# Made in Blockbench 5.1.6
mtllib sign_offset.mtl

o cube
v 0.078125 3.125 -0.125
v 0.078125 3.125 -0.1875
v 0.078125 1.4375 -0.125
v 0.078125 1.4375 -0.1875
v -0.078125 3.125 -0.1875
v -0.078125 3.125 -0.125
v -0.078125 1.4375 -0.1875
v -0.078125 1.4375 -0.125
vt 0.765625 0.734375
vt 0.796875 0.734375
vt 0.796875 0.5625
vt 0.765625 0.5625
vt 0.828125 0.734375
vt 0.84375 0.734375
vt 0.84375 0.484375
vt 0.828125 0.484375
vt 0.1875 1
vt 0.25 1
vt 0.25 0.75
vt 0.1875 0.75
vt 0.828125 0.734375
vt 0.84375 0.734375
vt 0.84375 0.484375
vt 0.828125 0.484375
vt 0.765625 0.75
vt 0.828125 0.75
vt 0.828125 0.734375
vt 0.765625 0.734375
vt 0.765625 0.75
vt 0.828125 0.75
vt 0.828125 0.734375
vt 0.765625 0.734375
vn 0 0 -1
vn 1 0 0
vn 0 0 1
vn -1 0 0
vn 0 1 0
vn 0 -1 0
usemtl m_3d215661-f591-00a8-53e2-d8d611c756be
f 4/4/1 7/3/1 5/2/1 2/1/1
f 3/8/2 4/7/2 2/6/2 1/5/2
f 8/12/3 3/11/3 1/10/3 6/9/3
f 7/16/4 8/15/4 6/14/4 5/13/4
f 6/20/5 1/19/5 2/18/5 5/17/5
f 7/24/6 4/23/6 3/22/6 8/21/6