# Blender 5.2.0 LTS
# www.blender.org
mtllib base.mtl
o cube
v 0.187500 1.187500 0.250000
v 0.187500 1.187500 -0.250000
v 0.187500 0.187500 0.250000
v 0.187500 0.187500 -0.250000
v -0.187500 1.187500 0.250000
v -0.187500 1.187500 -0.250000
v -0.187500 0.187500 0.250000
v -0.187500 0.187500 -0.250000
v -0.187500 1.204247 -0.000000
v 0.187500 1.204247 -0.000000
v -0.187500 1.220994 -0.250000
v 0.187500 1.220994 -0.250000
v -0.187500 1.250000 -0.183013
v 0.187500 1.250000 -0.183013
v -0.187500 1.266747 -0.066988
v 0.187500 1.266747 -0.066988
v -0.187500 1.266747 0.066987
v 0.187500 1.266747 0.066987
v -0.187500 1.250000 0.183012
v 0.187500 1.250000 0.183012
v -0.187500 1.220994 0.250000
v 0.187500 1.220994 0.250000
v 0.187500 0.125000 0.250000
v 0.187500 0.125000 -0.250000
v 0.187500 0.000000 0.250000
v 0.187500 -0.000000 -0.250000
v -0.187500 0.125000 0.250000
v -0.187500 0.125000 -0.250000
v -0.187500 0.000000 0.250000
v -0.187500 -0.000000 -0.250000
v 0.156250 0.187500 -0.125000
v 0.156250 0.187500 -0.187500
v 0.156250 0.125000 -0.125000
v 0.156250 0.125000 -0.187500
v -0.156250 0.187500 -0.125000
v -0.156250 0.187500 -0.187500
v -0.156250 0.125000 -0.125000
v -0.156250 0.125000 -0.187500
v 0.156250 0.187500 0.187500
v 0.156250 0.187500 0.125000
v 0.156250 0.125000 0.187500
v 0.156250 0.125000 0.125000
v -0.156250 0.187500 0.187500
v -0.156250 0.187500 0.125000
v -0.156250 0.125000 0.187500
v -0.156250 0.125000 0.125000
vn 1.0000 -0.0000 -0.0000
vn -1.0000 -0.0000 -0.0000
vn -0.0000 1.0000 -0.0000
vn -0.0000 -1.0000 -0.0000
vn -0.0000 -0.0000 1.0000
vn -0.0000 -0.0000 -1.0000
vn -0.0000 0.9177 -0.3974
vn -0.0000 0.9897 -0.1429
vn -0.0000 0.9897 0.1429
vn -0.0000 0.9177 0.3974
vt 0.062500 0.875000
vt 0.062500 1.000000
vt 0.000000 1.000000
vt 0.000000 0.875000
vt 0.132812 0.875000
vt 0.132812 1.000000
vt 0.070312 1.000000
vt 0.070312 0.875000
vt 0.046875 0.734375
vt 0.046875 0.671875
vt 0.093750 0.671875
vt 0.093750 0.734375
vt 0.281250 0.882812
vt 0.281250 0.945312
vt 0.328125 0.945312
vt 0.328125 0.882812
vt 0.101562 0.742188
vt 0.101562 0.867188
vt 0.054688 0.867188
vt 0.054688 0.742188
vt 0.046875 0.742188
vt 0.046875 0.867188
vt 0.000000 0.867188
vt 0.000000 0.742188
vt 0.286203 0.359375
vt 0.286203 0.421875
vt 0.284110 0.390625
vt 0.059640 0.468750
vt 0.059640 0.531250
vt 0.057547 0.500000
vt 0.453892 0.476562
vt 0.458078 0.476562
vt 0.455985 0.507812
vt 0.460938 0.406250
vt 0.468750 0.406250
vt 0.468750 0.453125
vt 0.460938 0.453125
vt 0.055454 0.531250
vt 0.450265 0.484936
vt 0.284254 0.953125
vt 0.293379 0.953125
vt 0.293379 1.000000
vt 0.284254 1.000000
vt 0.051828 0.522877
vt 0.448172 0.499439
vt 0.308033 0.953125
vt 0.308033 1.000000
vt 0.049735 0.508373
vt 0.448172 0.516186
vt 0.324780 0.953125
vt 0.324780 1.000000
vt 0.049735 0.491627
vt 0.450265 0.530689
vt 0.339434 0.953125
vt 0.339434 1.000000
vt 0.051828 0.477123
vt 0.453892 0.539062
vt 0.348559 0.953125
vt 0.348559 1.000000
vt 0.055454 0.468750
vt 0.458078 0.539062
vt 0.181501 0.382812
vt 0.185687 0.382812
vt 0.185687 0.429688
vt 0.181501 0.429688
vt 0.492188 0.843750
vt 0.492188 0.859375
vt 0.429688 0.859375
vt 0.429688 0.843750
vt 0.492188 0.820312
vt 0.492188 0.835938
vt 0.429688 0.835938
vt 0.429688 0.820312
vt 0.281250 0.875000
vt 0.281250 0.812500
vt 0.328125 0.812500
vt 0.328125 0.875000
vt 0.281250 0.742188
vt 0.281250 0.804688
vt 0.328125 0.804688
vt 0.328125 0.742188
vt 0.492188 0.546875
vt 0.492188 0.562500
vt 0.445312 0.562500
vt 0.445312 0.546875
vt 0.484375 0.593750
vt 0.484375 0.609375
vt 0.437500 0.609375
vt 0.437500 0.593750
vt 0.601562 0.687500
vt 0.601562 0.695312
vt 0.593750 0.695312
vt 0.593750 0.687500
vt 0.601562 0.671875
vt 0.601562 0.679688
vt 0.593750 0.679688
vt 0.593750 0.671875
vt 0.554688 0.507812
vt 0.554688 0.500000
vt 0.593750 0.500000
vt 0.593750 0.507812
vt 0.523438 0.437500
vt 0.523438 0.445312
vt 0.562500 0.445312
vt 0.562500 0.437500
vt 0.593750 0.515625
vt 0.593750 0.523438
vt 0.554688 0.523438
vt 0.554688 0.515625
vt 0.515625 0.437500
vt 0.515625 0.445312
vt 0.476562 0.445312
vt 0.476562 0.437500
vt 0.601562 0.703125
vt 0.601562 0.710938
vt 0.593750 0.710938
vt 0.593750 0.703125
vt 0.304688 0.398438
vt 0.304688 0.406250
vt 0.296875 0.406250
vt 0.296875 0.398438
vt 0.546875 0.625000
vt 0.546875 0.617188
vt 0.585938 0.617188
vt 0.585938 0.625000
vt 0.554688 0.531250
vt 0.554688 0.539062
vt 0.593750 0.539062
vt 0.593750 0.531250
vt 0.585938 0.703125
vt 0.585938 0.710938
vt 0.546875 0.710938
vt 0.546875 0.703125
vt 0.578125 0.546875
vt 0.578125 0.554688
vt 0.539062 0.554688
vt 0.539062 0.546875
s 1
usemtl m_7430e538-1216-3d00-08a7-09ab883c8326
f 4/1/1 2/2/1 1/3/1 3/4/1
f 7/5/2 5/6/2 6/7/2 8/8/2
f 1/9/3 2/10/3 6/11/3 5/12/3
f 4/13/4 3/14/4 7/15/4 8/16/4
f 3/17/5 1/18/5 5/19/5 7/20/5
f 8/21/6 6/22/6 2/23/6 4/24/6
f 6/25/2 5/26/2 9/27/2
f 1/28/1 2/29/1 10/30/1
f 11/31/2 6/32/2 9/33/2
f 6/34/6 11/35/6 12/36/6 2/37/6
f 2/29/1 12/38/1 10/30/1
f 13/39/2 11/31/2 9/33/2
f 11/40/7 13/41/7 14/42/7 12/43/7
f 12/38/1 14/44/1 10/30/1
f 15/45/2 13/39/2 9/33/2
f 13/41/8 15/46/8 16/47/8 14/42/8
f 14/44/1 16/48/1 10/30/1
f 17/49/2 15/45/2 9/33/2
f 15/46/3 17/50/3 18/51/3 16/47/3
f 16/48/1 18/52/1 10/30/1
f 19/53/2 17/49/2 9/33/2
f 17/50/9 19/54/9 20/55/9 18/51/9
f 18/52/1 20/56/1 10/30/1
f 21/57/2 19/53/2 9/33/2
f 19/54/10 21/58/10 22/59/10 20/55/10
f 20/56/1 22/60/1 10/30/1
f 5/61/2 21/57/2 9/33/2
f 21/62/5 5/63/5 1/64/5 22/65/5
f 22/60/1 1/28/1 10/30/1
f 26/66/1 24/67/1 23/68/1 25/69/1
f 29/70/2 27/71/2 28/72/2 30/73/2
f 23/74/3 24/75/3 28/76/3 27/77/3
f 26/78/4 25/79/4 29/80/4 30/81/4
f 25/82/5 23/83/5 27/84/5 29/85/5
f 30/86/6 28/87/6 24/88/6 26/89/6
f 34/90/1 32/91/1 31/92/1 33/93/1
f 37/94/2 35/95/2 36/96/2 38/97/2
f 31/98/3 32/99/3 36/100/3 35/101/3
f 34/102/4 33/103/4 37/104/4 38/105/4
f 33/106/5 31/107/5 35/108/5 37/109/5
f 38/110/6 36/111/6 32/112/6 34/113/6
f 42/114/1 40/115/1 39/116/1 41/117/1
f 45/118/2 43/119/2 44/120/2 46/121/2
f 39/122/3 40/123/3 44/124/3 43/125/3
f 42/126/4 41/127/4 45/128/4 46/129/4
f 41/130/5 39/131/5 43/132/5 45/133/5
f 46/134/6 44/135/6 40/136/6 42/137/6
