# Made in Blockbench 5.1.6
mtllib gate.mtl

o cylinder
v 0 1.3877787807814457e-16 -0.625
v 0 1.0824674490095276e-15 -4.875
v 0.0388325 0.09375000000000014 -0.625
v 0.0388325 0.09375000000000108 -4.875
v 0.09375 0.038832500000000186 -0.625
v 0.09375 0.03883250000000113 -4.875
v 0.09375 -0.03883249999999991 -0.625
v 0.09375 -0.038832499999998965 -4.875
v 0.0388325 -0.09374999999999986 -0.625
v 0.0388325 -0.09374999999999892 -4.875
v -0.0388325 -0.09374999999999986 -0.625
v -0.0388325 -0.09374999999999892 -4.875
v -0.09375 -0.03883249999999991 -0.625
v -0.09375 -0.038832499999998965 -4.875
v -0.09375 0.038832500000000186 -0.625
v -0.09375 0.03883250000000113 -4.875
v -0.0388325 0.09375000000000014 -0.625
v -0.0388325 0.09375000000000108 -4.875
v -0.25 -4.930380657631324e-32 2.220446049250313e-16
v 0.25 -4.930380657631324e-32 2.220446049250313e-16
v -0.25 -0.025888125000000053 0.06250000000000022
v 0.25 -0.025888125000000053 0.06250000000000022
v -0.25 -0.0625 0.02588812500000026
v 0.25 -0.0625 0.02588812500000026
v -0.25 -0.06249999999999999 -0.025888124999999762
v 0.25 -0.06249999999999999 -0.025888124999999762
v -0.25 -0.025888125000000026 -0.06249999999999978
v 0.25 -0.025888125000000026 -0.06249999999999978
v -0.25 0.025888125000000053 -0.06249999999999978
v 0.25 0.025888125000000053 -0.06249999999999978
v -0.25 0.0625 -0.025888124999999762
v 0.25 0.0625 -0.025888124999999762
v -0.25 0.06249999999999999 0.02588812500000026
v 0.25 0.06249999999999999 0.02588812500000026
v -0.25 0.025888125000000026 0.06250000000000022
v 0.25 0.025888125000000026 0.06250000000000022
v 0.25 -4.930380657631324e-32 2.220446049250313e-16
v 0.3125 -4.930380657631324e-32 2.220446049250313e-16
v 0.25 -0.04143437499999993 0.09375000000000022
v 0.3125 -0.04143437499999993 0.09375000000000022
v 0.25 -0.10003125000000003 0.03883250000000027
v 0.3125 -0.10003125000000003 0.03883250000000027
v 0.25 -0.10003125 -0.03883249999999977
v 0.3125 -0.10003125 -0.03883249999999977
v 0.25 -0.04143437499999989 -0.09374999999999978
v 0.3125 -0.04143437499999989 -0.09374999999999978
v 0.25 0.04143437499999993 -0.09374999999999978
v 0.3125 0.04143437499999993 -0.09374999999999978
v 0.25 0.10003125000000003 -0.03883249999999977
v 0.3125 0.10003125000000003 -0.03883249999999977
v 0.25 0.10003125 0.03883250000000027
v 0.3125 0.10003125 0.03883250000000027
v 0.25 0.04143437499999989 0.09375000000000022
v 0.3125 0.04143437499999989 0.09375000000000022
v -0.3125 -4.930380657631324e-32 2.220446049250313e-16
v -0.25 -4.930380657631324e-32 2.220446049250313e-16
v -0.3125 -0.04143437499999993 0.09375000000000022
v -0.25 -0.04143437499999993 0.09375000000000022
v -0.3125 -0.10003125000000003 0.03883250000000027
v -0.25 -0.10003125000000003 0.03883250000000027
v -0.3125 -0.10003125 -0.03883249999999977
v -0.25 -0.10003125 -0.03883249999999977
v -0.3125 -0.04143437499999989 -0.09374999999999978
v -0.25 -0.04143437499999989 -0.09374999999999978
v -0.3125 0.04143437499999993 -0.09374999999999978
v -0.25 0.04143437499999993 -0.09374999999999978
v -0.3125 0.10003125000000003 -0.03883249999999977
v -0.25 0.10003125000000003 -0.03883249999999977
v -0.3125 0.10003125 0.03883250000000027
v -0.25 0.10003125 0.03883250000000027
v -0.3125 0.04143437499999989 0.09375000000000022
v -0.25 0.04143437499999989 0.09375000000000022
v 0.25 0.10006250000000007 -0.5875
v 0.25 0.10006250000000008 -0.625
v 0.25 -0.09993749999999989 -0.5875
v 0.25 -0.09993749999999987 -0.625
v -0.25 0.10006250000000007 -0.5875
v -0.25 0.10006250000000008 -0.625
v -0.25 -0.09993749999999989 -0.5875
v -0.25 -0.09993749999999987 -0.625
v -0.249773125 0.1000000000000001 -0.032026249999999756
v -0.188363125 0.10000000000000023 -0.6163075
v -0.249773125 -0.09999999999999996 -0.032026249999999756
v -0.188363125 -0.09999999999999984 -0.6163075
v -0.311930625 0.1000000000000001 -0.03855937499999973
v -0.250520625 0.10000000000000023 -0.622840625
v -0.311930625 -0.09999999999999996 -0.03855937499999973
v -0.250520625 -0.09999999999999984 -0.622840625
v 0.311930625 0.1000000000000001 -0.03855937499999973
v 0.250520625 0.10000000000000023 -0.622840625
v 0.311930625 -0.09999999999999996 -0.03855937499999973
v 0.250520625 -0.09999999999999984 -0.622840625
v 0.249773125 0.1000000000000001 -0.032026249999999756
v 0.188363125 0.10000000000000023 -0.6163075
v 0.249773125 -0.09999999999999996 -0.032026249999999756
v 0.188363125 -0.09999999999999984 -0.6163075
v 0.25 0.0937500000000001 -0.4375
v 0.25 0.09375000000000011 -0.46875
v 0.25 -0.0937499999999999 -0.4375
v 0.25 -0.09374999999999989 -0.46875
v -0.25 0.0937500000000001 -0.4375
v -0.25 0.09375000000000011 -0.46875
v -0.25 -0.0937499999999999 -0.4375
v -0.25 -0.09374999999999989 -0.46875
v 0.25 0.031250000000000104 -0.46875
v 0.25 0.03125000000000013 -0.59375
v 0.25 -0.031249999999999896 -0.46875
v 0.25 -0.031249999999999868 -0.59375
v -0.25 0.031250000000000104 -0.46875
v -0.25 0.03125000000000013 -0.59375
v -0.25 -0.031249999999999896 -0.46875
v -0.25 -0.031249999999999868 -0.59375
v 0.3625 0.07499999999999982 0.64375
v 0.3625 0.07499999999999993 0.11250000000000027
v 0.3625 -0.0750000000000001 0.64375
v 0.3625 -0.07499999999999998 0.11250000000000027
v 0.225 0.07499999999999982 0.64375
v 0.225 0.07499999999999993 0.11250000000000027
v 0.225 -0.0750000000000001 0.64375
v 0.225 -0.07499999999999998 0.11250000000000027
v 0.30625 0.09999999999999994 0.6625000000000001
v 0.30625 0.10000000000000007 0.0375000000000002
v 0.30625 -0.10000000000000013 0.6625000000000001
v 0.30625 -0.09999999999999999 0.0375000000000002
v 0.25 0.09999999999999994 0.6625000000000001
v 0.25 0.10000000000000007 0.0375000000000002
v 0.25 -0.10000000000000013 0.6625000000000001
v 0.25 -0.09999999999999999 0.0375000000000002
v -0.25 0.09999999999999994 0.6625000000000001
v -0.25 0.10000000000000007 0.0375000000000002
v -0.25 -0.10000000000000013 0.6625000000000001
v -0.25 -0.09999999999999999 0.0375000000000002
v -0.30625 0.09999999999999994 0.6625000000000001
v -0.30625 0.10000000000000007 0.0375000000000002
v -0.30625 -0.10000000000000013 0.6625000000000001
v -0.30625 -0.09999999999999999 0.0375000000000002
v -0.225 0.07499999999999982 0.64375
v -0.225 0.07499999999999993 0.11250000000000027
v -0.225 -0.0750000000000001 0.64375
v -0.225 -0.07499999999999998 0.11250000000000027
v -0.3625 0.07499999999999982 0.64375
v -0.3625 0.07499999999999993 0.11250000000000027
v -0.3625 -0.0750000000000001 0.64375
v -0.3625 -0.07499999999999998 0.11250000000000027
vt 0.3046875 0.5165726562499999
vt 0.29782265625 0.5234375
vt 0.29296875 0.51171875
vt 0 0.203125
vt 0.0078125 0.203125
vt 0.0078125 0.734375
vt 0 0.734375
vt 0.32907265625 0.5
vt 0.3359375 0.5068648437500001
vt 0.32421875 0.51171875
vt 0.3046875 0.5068648437500001
vt 0.3046875 0.5165726562499999
vt 0.29296875 0.51171875
vt 0.1328125 0.2421875
vt 0.140625 0.2421875
vt 0.140625 0.7734375
vt 0.1328125 0.7734375
vt 0.3359375 0.5068648437500001
vt 0.3359375 0.5165726562499999
vt 0.32421875 0.51171875
vt 0.29782265625 0.5
vt 0.3046875 0.5068648437500001
vt 0.29296875 0.51171875
vt 0.265625 0.46875
vt 0.2734375 0.46875
vt 0.2734375 1
vt 0.265625 1
vt 0.3359375 0.5165726562499999
vt 0.32907265625 0.5234375
vt 0.32421875 0.51171875
vt 0.28811484375 0.5
vt 0.29782265625 0.5
vt 0.29296875 0.51171875
vt 0.1484375 0.2421875
vt 0.15625 0.2421875
vt 0.15625 0.7734375
vt 0.1484375 0.7734375
vt 0.32907265625 0.5234375
vt 0.31936484375 0.5234375
vt 0.32421875 0.51171875
vt 0.28125 0.5068648437500001
vt 0.28811484375 0.5
vt 0.29296875 0.51171875
vt 0.015625 0.203125
vt 0.0234375 0.203125
vt 0.0234375 0.734375
vt 0.015625 0.734375
vt 0.31936484375 0.5234375
vt 0.3125 0.5165726562499999
vt 0.32421875 0.51171875
vt 0.28125 0.5165726562499999
vt 0.28125 0.5068648437500001
vt 0.29296875 0.51171875
vt 0.1640625 0.2421875
vt 0.171875 0.2421875
vt 0.171875 0.7734375
vt 0.1640625 0.7734375
vt 0.3125 0.5165726562499999
vt 0.3125 0.5068648437500001
vt 0.32421875 0.51171875
vt 0.28811484375 0.5234375
vt 0.28125 0.5165726562499999
vt 0.29296875 0.51171875
vt 0.03125 0.203125
vt 0.0390625 0.203125
vt 0.0390625 0.734375
vt 0.03125 0.734375
vt 0.3125 0.5068648437500001
vt 0.31936484375 0.5
vt 0.32421875 0.51171875
vt 0.29782265625 0.5234375
vt 0.28811484375 0.5234375
vt 0.29296875 0.51171875
vt 0.25 0.46875
vt 0.2578125 0.46875
vt 0.2578125 1
vt 0.25 1
vt 0.31936484375 0.5
vt 0.32907265625 0.5
vt 0.32421875 0.51171875
vt 0.5625 0.8795765625
vt 0.5670765625 0.875
vt 0.5703125 0.8828125
vt 0.546875 0.515625
vt 0.546875 0.5234375
vt 0.484375 0.5234375
vt 0.484375 0.515625
vt 0.5735484375 0.8046875
vt 0.578125 0.8092640625
vt 0.5703125 0.8125
vt 0.5625 0.8860484375
vt 0.5625 0.8795765625
vt 0.5703125 0.8828125
vt 0.546875 0.9921875
vt 0.546875 1
vt 0.484375 1
vt 0.484375 0.9921875
vt 0.578125 0.8092640625
vt 0.578125 0.8157359375
vt 0.5703125 0.8125
vt 0.5670765625 0.890625
vt 0.5625 0.8860484375
vt 0.5703125 0.8828125
vt 0.5546875 0.8046875
vt 0.5546875 0.8125
vt 0.4921875 0.8125
vt 0.4921875 0.8046875
vt 0.578125 0.8157359375
vt 0.5735484375 0.8203125
vt 0.5703125 0.8125
vt 0.5735484375 0.890625
vt 0.5670765625 0.890625
vt 0.5703125 0.8828125
vt 0.484375 0.984375
vt 0.484375 0.9765625
vt 0.546875 0.9765625
vt 0.546875 0.984375
vt 0.5735484375 0.8203125
vt 0.5670765625 0.8203125
vt 0.5703125 0.8125
vt 0.578125 0.8860484375
vt 0.5735484375 0.890625
vt 0.5703125 0.8828125
vt 0.4921875 0.796875
vt 0.4921875 0.7890625
vt 0.5546875 0.7890625
vt 0.5546875 0.796875
vt 0.5670765625 0.8203125
vt 0.5625 0.8157359375
vt 0.5703125 0.8125
vt 0.578125 0.8795765625
vt 0.578125 0.8860484375
vt 0.5703125 0.8828125
vt 0.484375 0.96875
vt 0.484375 0.9609375
vt 0.546875 0.9609375
vt 0.546875 0.96875
vt 0.5625 0.8157359375
vt 0.5625 0.8092640625
vt 0.5703125 0.8125
vt 0.5735484375 0.875
vt 0.578125 0.8795765625
vt 0.5703125 0.8828125
vt 0.4921875 0.78125
vt 0.4921875 0.7734375
vt 0.5546875 0.7734375
vt 0.5546875 0.78125
vt 0.5625 0.8092640625
vt 0.5670765625 0.8046875
vt 0.5703125 0.8125
vt 0.5670765625 0.875
vt 0.5735484375 0.875
vt 0.5703125 0.8828125
vt 0.484375 0.953125
vt 0.484375 0.9453125
vt 0.546875 0.9453125
vt 0.546875 0.953125
vt 0.5670765625 0.8046875
vt 0.5735484375 0.8046875
vt 0.5703125 0.8125
vt 0.46405859375 0.90530234375
vt 0.47138359375 0.8984375
vt 0.4765625 0.91015625
vt 0.5859375 0.40625
vt 0.5859375 0.4140625
vt 0.578125 0.4140625
vt 0.578125 0.40625
vt 0.4817421875 0.8671875
vt 0.48906640625 0.87405234375
vt 0.4765625 0.87890625
vt 0.46405859375 0.91501015625
vt 0.46405859375 0.90530234375
vt 0.4765625 0.91015625
vt 0.34375 0.7421875
vt 0.34375 0.75
vt 0.3359375 0.75
vt 0.3359375 0.7421875
vt 0.48906640625 0.87405234375
vt 0.48906640625 0.88376015625
vt 0.4765625 0.87890625
vt 0.47138359375 0.921875
vt 0.46405859375 0.91501015625
vt 0.4765625 0.91015625
vt 0.0546875 0.3984375
vt 0.0546875 0.40625
vt 0.046875 0.40625
vt 0.046875 0.3984375
vt 0.48906640625 0.88376015625
vt 0.4817421875 0.890625
vt 0.4765625 0.87890625
vt 0.4817421875 0.921875
vt 0.47138359375 0.921875
vt 0.4765625 0.91015625
vt 0.421875 0.765625
vt 0.421875 0.7578125
vt 0.4296875 0.7578125
vt 0.4296875 0.765625
vt 0.4817421875 0.890625
vt 0.47138359375 0.890625
vt 0.4765625 0.87890625
vt 0.48906640625 0.91501015625
vt 0.4817421875 0.921875
vt 0.4765625 0.91015625
vt 0.0625 0.40625
vt 0.0625 0.3984375
vt 0.0703125 0.3984375
vt 0.0703125 0.40625
vt 0.47138359375 0.890625
vt 0.46405859375 0.88376015625
vt 0.4765625 0.87890625
vt 0.48906640625 0.90530234375
vt 0.48906640625 0.91501015625
vt 0.4765625 0.91015625
vt 0.5234375 0.8671875
vt 0.5234375 0.859375
vt 0.53125 0.859375
vt 0.53125 0.8671875
vt 0.46405859375 0.88376015625
vt 0.46405859375 0.87405234375
vt 0.4765625 0.87890625
vt 0.4817421875 0.8984375
vt 0.48906640625 0.90530234375
vt 0.4765625 0.91015625
vt 0.59375 0.9296875
vt 0.59375 0.921875
vt 0.6015625 0.921875
vt 0.6015625 0.9296875
vt 0.46405859375 0.87405234375
vt 0.47138359375 0.8671875
vt 0.4765625 0.87890625
vt 0.47138359375 0.8984375
vt 0.4817421875 0.8984375
vt 0.4765625 0.91015625
vt 0.359375 0.4453125
vt 0.359375 0.4375
vt 0.3671875 0.4375
vt 0.3671875 0.4453125
vt 0.47138359375 0.8671875
vt 0.4817421875 0.8671875
vt 0.4765625 0.87890625
vt 0.46405859375 0.6709273437500001
vt 0.47138359375 0.6640625
vt 0.4765625 0.67578125
vt 0.6015625 0.859375
vt 0.6015625 0.8671875
vt 0.59375 0.8671875
vt 0.59375 0.859375
vt 0.4895546875 0.6328125
vt 0.49687890625 0.6396773437500001
vt 0.484375 0.64453125
vt 0.46405859375 0.6806351562499999
vt 0.46405859375 0.6709273437500001
vt 0.4765625 0.67578125
vt 0.59375 0.453125
vt 0.59375 0.4609375
vt 0.5859375 0.4609375
vt 0.5859375 0.453125
vt 0.49687890625 0.6396773437500001
vt 0.49687890625 0.6493851562499999
vt 0.484375 0.64453125
vt 0.47138359375 0.6875
vt 0.46405859375 0.6806351562499999
vt 0.4765625 0.67578125
vt 0.6015625 0.84375
vt 0.6015625 0.8515625
vt 0.59375 0.8515625
vt 0.59375 0.84375
vt 0.49687890625 0.6493851562499999
vt 0.4895546875 0.65625
vt 0.484375 0.64453125
vt 0.4817421875 0.6875
vt 0.47138359375 0.6875
vt 0.4765625 0.67578125
vt 0.546875 0.4140625
vt 0.546875 0.40625
vt 0.5546875 0.40625
vt 0.5546875 0.4140625
vt 0.4895546875 0.65625
vt 0.47919609375 0.65625
vt 0.484375 0.64453125
vt 0.48906640625 0.6806351562499999
vt 0.4817421875 0.6875
vt 0.4765625 0.67578125
vt 0.25 0.40625
vt 0.25 0.3984375
vt 0.2578125 0.3984375
vt 0.2578125 0.40625
vt 0.47919609375 0.65625
vt 0.47187109375 0.6493851562499999
vt 0.484375 0.64453125
vt 0.48906640625 0.6709273437500001
vt 0.48906640625 0.6806351562499999
vt 0.4765625 0.67578125
vt 0.5625 0.4140625
vt 0.5625 0.40625
vt 0.5703125 0.40625
vt 0.5703125 0.4140625
vt 0.47187109375 0.6493851562499999
vt 0.47187109375 0.6396773437500001
vt 0.484375 0.64453125
vt 0.4817421875 0.6640625
vt 0.48906640625 0.6709273437500001
vt 0.4765625 0.67578125
vt 0.265625 0.40625
vt 0.265625 0.3984375
vt 0.2734375 0.3984375
vt 0.2734375 0.40625
vt 0.47187109375 0.6396773437500001
vt 0.47919609375 0.6328125
vt 0.484375 0.64453125
vt 0.47138359375 0.6640625
vt 0.4817421875 0.6640625
vt 0.4765625 0.67578125
vt 0.5859375 0.4296875
vt 0.5859375 0.421875
vt 0.59375 0.421875
vt 0.59375 0.4296875
vt 0.47919609375 0.6328125
vt 0.4895546875 0.6328125
vt 0.484375 0.64453125
vt 0.59375 0.90625
vt 0.5703125 0.90625
vt 0.5703125 0.8984375
vt 0.59375 0.8984375
vt 0.5703125 0.578125
vt 0.59375 0.578125
vt 0.59375 0.5859375
vt 0.5703125 0.5859375
vt 0.546875 0.9296875
vt 0.546875 0.9375
vt 0.484375 0.9375
vt 0.484375 0.9296875
vt 0.484375 0.5390625
vt 0.484375 0.53125
vt 0.546875 0.53125
vt 0.546875 0.5390625
vt 0.421875 0.8203125
vt 0.421875 0.84375
vt 0.359375 0.84375
vt 0.359375 0.8203125
vt 0.390625 0.921875
vt 0.390625 0.8984375
vt 0.453125 0.8984375
vt 0.453125 0.921875
vt 0.3828125 0.6875
vt 0.359375 0.6875
vt 0.359375 0.6171875
vt 0.3828125 0.6171875
vt 0.359375 0.9296875
vt 0.3828125 0.9296875
vt 0.3828125 1
vt 0.359375 1
vt 0.453125 0.578125
vt 0.5234375 0.578125
vt 0.5234375 0.5859375
vt 0.453125 0.5859375
vt 0.40625 0.5234375
vt 0.40625 0.453125
vt 0.4140625 0.453125
vt 0.4140625 0.5234375
vt 0.5234375 0.421875
vt 0.546875 0.421875
vt 0.546875 0.4296875
vt 0.5234375 0.4296875
vt 0.59375 0.4453125
vt 0.5703125 0.4453125
vt 0.5703125 0.4375
vt 0.59375 0.4375
vt 0.3828125 0.921875
vt 0.359375 0.921875
vt 0.359375 0.8515625
vt 0.3828125 0.8515625
vt 0.390625 0.9296875
vt 0.4140625 0.9296875
vt 0.4140625 1
vt 0.390625 1
vt 0.4296875 0.453125
vt 0.4296875 0.5234375
vt 0.421875 0.5234375
vt 0.421875 0.453125
vt 0.5390625 0.625
vt 0.46875 0.625
vt 0.46875 0.6171875
vt 0.5390625 0.6171875
vt 0.578125 0.4296875
vt 0.5546875 0.4296875
vt 0.5546875 0.421875
vt 0.578125 0.421875
vt 0.046875 0.4140625
vt 0.0703125 0.4140625
vt 0.0703125 0.421875
vt 0.046875 0.421875
vt 0.0859375 0.3984375
vt 0.0859375 0.421875
vt 0.078125 0.421875
vt 0.078125 0.3984375
vt 0.1015625 0.3984375
vt 0.1015625 0.421875
vt 0.09375 0.421875
vt 0.09375 0.3984375
vt 0.5 0.921875
vt 0.5 0.9140625
vt 0.5625 0.9140625
vt 0.5625 0.921875
vt 0.5 0.8984375
vt 0.5 0.90625
vt 0.5625 0.90625
vt 0.5625 0.8984375
vt 0.453125 0.6640625
vt 0.453125 0.6875
vt 0.390625 0.6875
vt 0.390625 0.6640625
vt 0.453125 0.8671875
vt 0.453125 0.890625
vt 0.390625 0.890625
vt 0.390625 0.8671875
vt 0.59375 0.828125
vt 0.59375 0.8359375
vt 0.578125 0.8359375
vt 0.578125 0.828125
vt 0.3125 0.4140625
vt 0.3125 0.421875
vt 0.296875 0.421875
vt 0.296875 0.4140625
vt 0.421875 0.8125
vt 0.421875 0.796875
vt 0.484375 0.796875
vt 0.484375 0.8125
vt 0.421875 0.7734375
vt 0.421875 0.7890625
vt 0.484375 0.7890625
vt 0.484375 0.7734375
vt 0.546875 0.5
vt 0.546875 0.5078125
vt 0.484375 0.5078125
vt 0.484375 0.5
vt 0.5546875 0.6015625
vt 0.5546875 0.609375
vt 0.4921875 0.609375
vt 0.4921875 0.6015625
vt 0.4609375 0.640625
vt 0.4609375 0.65625
vt 0.390625 0.65625
vt 0.390625 0.640625
vt 0.4296875 0.59375
vt 0.4296875 0.609375
vt 0.359375 0.609375
vt 0.359375 0.59375
vt 0.28125 0.6015625
vt 0.28125 0.53125
vt 0.296875 0.53125
vt 0.296875 0.6015625
vt 0.3046875 0.53125
vt 0.3046875 0.6015625
vt 0.3203125 0.6015625
vt 0.3203125 0.53125
vt 0.578125 0.4765625
vt 0.578125 0.4921875
vt 0.5625 0.4921875
vt 0.5625 0.4765625
vt 0.578125 0.734375
vt 0.578125 0.75
vt 0.5625 0.75
vt 0.5625 0.734375
vt 0.4140625 0.7890625
vt 0.4140625 0.8125
vt 0.3359375 0.8125
vt 0.3359375 0.7890625
vt 0.4140625 0.7578125
vt 0.4140625 0.78125
vt 0.3359375 0.78125
vt 0.3359375 0.7578125
vt 0.234375 0.5390625
vt 0.234375 0.4609375
vt 0.2421875 0.4609375
vt 0.2421875 0.5390625
vt 0.0703125 0.453125
vt 0.0703125 0.53125
vt 0.078125 0.53125
vt 0.078125 0.453125
vt 0.5859375 0.84375
vt 0.5859375 0.8671875
vt 0.578125 0.8671875
vt 0.578125 0.84375
vt 0.1171875 0.3984375
vt 0.1171875 0.421875
vt 0.109375 0.421875
vt 0.109375 0.3984375
vt 0.4296875 0.7265625
vt 0.4296875 0.75
vt 0.3515625 0.75
vt 0.3515625 0.7265625
vt 0.4296875 0.6953125
vt 0.4296875 0.71875
vt 0.3515625 0.71875
vt 0.3515625 0.6953125
vt 0.0859375 0.53125
vt 0.0859375 0.453125
vt 0.09375 0.453125
vt 0.09375 0.53125
vt 0.46875 0.4609375
vt 0.46875 0.5390625
vt 0.4765625 0.5390625
vt 0.4765625 0.4609375
vt 0.21875 0.3984375
vt 0.21875 0.421875
vt 0.2109375 0.421875
vt 0.2109375 0.3984375
vt 0.203125 0.3984375
vt 0.203125 0.421875
vt 0.1953125 0.421875
vt 0.1953125 0.3984375
vt 0.4609375 0.6171875
vt 0.4609375 0.6328125
vt 0.390625 0.6328125
vt 0.390625 0.6171875
vt 0.4453125 0.5703125
vt 0.4453125 0.5859375
vt 0.375 0.5859375
vt 0.375 0.5703125
vt 0.421875 1
vt 0.421875 0.9296875
vt 0.4375 0.9296875
vt 0.4375 1
vt 0.1796875 0.5078125
vt 0.1796875 0.578125
vt 0.1953125 0.578125
vt 0.1953125 0.5078125
vt 0.453125 0.4140625
vt 0.453125 0.4296875
vt 0.4375 0.4296875
vt 0.4375 0.4140625
vt 0.5859375 0.59375
vt 0.5859375 0.609375
vt 0.5703125 0.609375
vt 0.5703125 0.59375
vn 0 -2.220446049250313e-16 1
vn 0.7071067811865472 0.7071067811865479 1.570092458683776e-16
vn 0 2.220446049250313e-16 -1
vn 0 -2.220446049250313e-16 1
vn 1 0 0
vn 0 2.220446049250313e-16 -1
vn 0 -2.220446049250313e-16 1
vn 0.7071067811865472 -0.7071067811865479 -1.570092458683776e-16
vn 0 2.220446049250313e-16 -1
vn 0 -2.220446049250313e-16 1
vn 0 -1 -2.220446049250313e-16
vn 0 2.220446049250313e-16 -1
vn 0 -2.220446049250313e-16 1
vn -0.7071067811865472 -0.7071067811865479 -1.570092458683776e-16
vn 0 2.220446049250313e-16 -1
vn 0 -2.220446049250313e-16 1
vn -1 0 0
vn 0 2.220446049250313e-16 -1
vn 0 -2.220446049250313e-16 1
vn -0.7071067811865472 0.7071067811865479 1.570092458683776e-16
vn 0 2.220446049250313e-16 -1
vn 0 -2.220446049250313e-16 1
vn 0 1 2.220446049250313e-16
vn 0 2.220446049250313e-16 -1
vn -1 0 0
vn 0 -0.7071067811865477 0.7071067811865475
vn 1 0 0
vn -1 0 0
vn 0 -1 -2.220446049250313e-16
vn 1 0 0
vn -1 0 0
vn 0 -0.707106781186548 -0.7071067811865471
vn 1 0 0
vn -1 0 0
vn 0 2.220446049250313e-16 -1
vn 1 0 0
vn -1 0 0
vn 0 0.7071067811865482 -0.7071067811865469
vn 1 0 0
vn -1 0 0
vn 0 1 2.220446049250313e-16
vn 1 0 0
vn -1 0 0
vn 0 0.7071067811865475 0.7071067811865477
vn 1 0 0
vn -1 0 0
vn 0 -2.220446049250313e-16 1
vn 1 0 0
vn -1 0 0
vn 0 -0.6838279920415908 0.7296432534467553
vn 1 0 0
vn -1 0 0
vn 0 -1 -2.220446049250313e-16
vn 1 0 0
vn -1 0 0
vn 0 -0.683827992041591 -0.7296432534467552
vn 1 0 0
vn -1 0 0
vn 0 2.220446049250313e-16 -1
vn 1 0 0
vn -1 0 0
vn 0 0.6838279920415912 -0.729643253446755
vn 1 0 0
vn -1 0 0
vn 0 1 2.220446049250313e-16
vn 1 0 0
vn -1 0 0
vn 0 0.6838279920415906 0.7296432534467555
vn 1 0 0
vn -1 0 0
vn 0 -2.220446049250313e-16 1
vn 1 0 0
vn -1 0 0
vn 0 -0.6838279920415908 0.7296432534467553
vn 1 0 0
vn -1 0 0
vn 0 -1 -2.220446049250313e-16
vn 1 0 0
vn -1 0 0
vn 0 -0.683827992041591 -0.7296432534467552
vn 1 0 0
vn -1 0 0
vn 0 2.220446049250313e-16 -1
vn 1 0 0
vn -1 0 0
vn 0 0.6838279920415912 -0.729643253446755
vn 1 0 0
vn -1 0 0
vn 0 1 2.220446049250313e-16
vn 1 0 0
vn -1 0 0
vn 0 0.6838279920415906 0.7296432534467555
vn 1 0 0
vn -1 0 0
vn 0 -2.220446049250313e-16 1
vn 1 0 0
vn 1 0 0
vn -1 0 0
vn 0 1 2.220446049250313e-16
vn 0 -1 -2.220446049250313e-16
vn 0 -2.220446049250313e-16 1
vn 0 2.220446049250313e-16 -1
vn 0.994521972155831 -2.3209819106698152e-17 0.10452773268026241
vn -0.994521972155831 2.3209819106698152e-17 -0.10452773268026241
vn 0 1 2.220446049250313e-16
vn 0 -1 -2.220446049250313e-16
vn -0.10453018024677128 -2.2082818127544484e-16 0.9945217149049977
vn 0.10453018024677216 2.2082818127544482e-16 -0.9945217149049976
vn 0.994521972155831 2.3209819106698152e-17 -0.10452773268026241
vn -0.994521972155831 -2.3209819106698152e-17 0.10452773268026241
vn 0 1 2.220446049250313e-16
vn 0 -1 -2.220446049250313e-16
vn 0.10453018024677128 -2.2082818127544484e-16 0.9945217149049977
vn -0.10453018024677216 2.2082818127544482e-16 -0.9945217149049976
vn 1 0 0
vn -1 0 0
vn 0 1 2.220446049250313e-16
vn 0 -1 -2.220446049250313e-16
vn 0 -2.220446049250313e-16 1
vn 0 2.220446049250313e-16 -1
vn 1 0 0
vn -1 0 0
vn 0 1 2.220446049250313e-16
vn 0 -1 -2.220446049250313e-16
vn 0 -2.220446049250313e-16 1
vn 0 2.220446049250313e-16 -1
vn 1 0 0
vn -1 0 0
vn 0 1 2.220446049250313e-16
vn 0 -1 -2.220446049250313e-16
vn 0 -2.220446049250313e-16 1
vn 0 2.220446049250313e-16 -1
vn 1 0 0
vn -1 0 0
vn 0 1 2.220446049250313e-16
vn 0 -1 -2.220446049250313e-16
vn 0 -2.220446049250313e-16 1
vn 0 2.220446049250313e-16 -1
vn 1 0 0
vn -1 0 0
vn 0 1 2.220446049250313e-16
vn 0 -1 -2.220446049250313e-16
vn 0 -2.220446049250313e-16 1
vn 0 2.220446049250313e-16 -1
vn 1 0 0
vn -1 0 0
vn 0 1 2.220446049250313e-16
vn 0 -1 -2.220446049250313e-16
vn 0 -2.220446049250313e-16 1
vn 0 2.220446049250313e-16 -1
usemtl m_e7a4bcab-9cbd-40bb-8944-2cddfe4d98d2
f 5/1/1 3/2/1 1/3/1
f 3/4/2 5/5/2 6/6/2 4/7/2
f 4/8/3 6/9/3 2/10/3
f 7/11/4 5/12/4 1/13/4
f 5/14/5 7/15/5 8/16/5 6/17/5
f 6/18/6 8/19/6 2/20/6
f 9/21/7 7/22/7 1/23/7
f 7/24/8 9/25/8 10/26/8 8/27/8
f 8/28/9 10/29/9 2/30/9
f 11/31/10 9/32/10 1/33/10
f 9/34/11 11/35/11 12/36/11 10/37/11
f 10/38/12 12/39/12 2/40/12
f 13/41/13 11/42/13 1/43/13
f 11/44/14 13/45/14 14/46/14 12/47/14
f 12/48/15 14/49/15 2/50/15
f 15/51/16 13/52/16 1/53/16
f 13/54/17 15/55/17 16/56/17 14/57/17
f 14/58/18 16/59/18 2/60/18
f 17/61/19 15/62/19 1/63/19
f 15/64/20 17/65/20 18/66/20 16/67/20
f 16/68/21 18/69/21 2/70/21
f 3/71/22 17/72/22 1/73/22
f 17/74/23 3/75/23 4/76/23 18/77/23
f 18/78/24 4/79/24 2/80/24
f 23/81/25 21/82/25 19/83/25
f 21/84/26 23/85/26 24/86/26 22/87/26
f 22/88/27 24/89/27 20/90/27
f 25/91/28 23/92/28 19/93/28
f 23/94/29 25/95/29 26/96/29 24/97/29
f 24/98/30 26/99/30 20/100/30
f 27/101/31 25/102/31 19/103/31
f 25/104/32 27/105/32 28/106/32 26/107/32
f 26/108/33 28/109/33 20/110/33
f 29/111/34 27/112/34 19/113/34
f 27/114/35 29/115/35 30/116/35 28/117/35
f 28/118/36 30/119/36 20/120/36
f 31/121/37 29/122/37 19/123/37
f 29/124/38 31/125/38 32/126/38 30/127/38
f 30/128/39 32/129/39 20/130/39
f 33/131/40 31/132/40 19/133/40
f 31/134/41 33/135/41 34/136/41 32/137/41
f 32/138/42 34/139/42 20/140/42
f 35/141/43 33/142/43 19/143/43
f 33/144/44 35/145/44 36/146/44 34/147/44
f 34/148/45 36/149/45 20/150/45
f 21/151/46 35/152/46 19/153/46
f 35/154/47 21/155/47 22/156/47 36/157/47
f 36/158/48 22/159/48 20/160/48
f 41/161/49 39/162/49 37/163/49
f 39/164/50 41/165/50 42/166/50 40/167/50
f 40/168/51 42/169/51 38/170/51
f 43/171/52 41/172/52 37/173/52
f 41/174/53 43/175/53 44/176/53 42/177/53
f 42/178/54 44/179/54 38/180/54
f 45/181/55 43/182/55 37/183/55
f 43/184/56 45/185/56 46/186/56 44/187/56
f 44/188/57 46/189/57 38/190/57
f 47/191/58 45/192/58 37/193/58
f 45/194/59 47/195/59 48/196/59 46/197/59
f 46/198/60 48/199/60 38/200/60
f 49/201/61 47/202/61 37/203/61
f 47/204/62 49/205/62 50/206/62 48/207/62
f 48/208/63 50/209/63 38/210/63
f 51/211/64 49/212/64 37/213/64
f 49/214/65 51/215/65 52/216/65 50/217/65
f 50/218/66 52/219/66 38/220/66
f 53/221/67 51/222/67 37/223/67
f 51/224/68 53/225/68 54/226/68 52/227/68
f 52/228/69 54/229/69 38/230/69
f 39/231/70 53/232/70 37/233/70
f 53/234/71 39/235/71 40/236/71 54/237/71
f 54/238/72 40/239/72 38/240/72
f 59/241/73 57/242/73 55/243/73
f 57/244/74 59/245/74 60/246/74 58/247/74
f 58/248/75 60/249/75 56/250/75
f 61/251/76 59/252/76 55/253/76
f 59/254/77 61/255/77 62/256/77 60/257/77
f 60/258/78 62/259/78 56/260/78
f 63/261/79 61/262/79 55/263/79
f 61/264/80 63/265/80 64/266/80 62/267/80
f 62/268/81 64/269/81 56/270/81
f 65/271/82 63/272/82 55/273/82
f 63/274/83 65/275/83 66/276/83 64/277/83
f 64/278/84 66/279/84 56/280/84
f 67/281/85 65/282/85 55/283/85
f 65/284/86 67/285/86 68/286/86 66/287/86
f 66/288/87 68/289/87 56/290/87
f 69/291/88 67/292/88 55/293/88
f 67/294/89 69/295/89 70/296/89 68/297/89
f 68/298/90 70/299/90 56/300/90
f 71/301/91 69/302/91 55/303/91
f 69/304/92 71/305/92 72/306/92 70/307/92
f 70/308/93 72/309/93 56/310/93
f 57/311/94 71/312/94 55/313/94
f 71/314/95 57/315/95 58/316/95 72/317/95
f 72/318/96 58/319/96 56/320/96
f 76/321/97 74/322/97 73/323/97 75/324/97
f 79/325/98 77/326/98 78/327/98 80/328/98
f 73/329/99 74/330/99 78/331/99 77/332/99
f 76/333/100 75/334/100 79/335/100 80/336/100
f 75/337/101 73/338/101 77/339/101 79/340/101
f 80/341/102 78/342/102 74/343/102 76/344/102
f 84/345/103 82/346/103 81/347/103 83/348/103
f 87/349/104 85/350/104 86/351/104 88/352/104
f 81/353/105 82/354/105 86/355/105 85/356/105
f 84/357/106 83/358/106 87/359/106 88/360/106
f 83/361/107 81/362/107 85/363/107 87/364/107
f 88/365/108 86/366/108 82/367/108 84/368/108
f 92/369/109 90/370/109 89/371/109 91/372/109
f 95/373/110 93/374/110 94/375/110 96/376/110
f 89/377/111 90/378/111 94/379/111 93/380/111
f 92/381/112 91/382/112 95/383/112 96/384/112
f 91/385/113 89/386/113 93/387/113 95/388/113
f 96/389/114 94/390/114 90/391/114 92/392/114
f 100/393/115 98/394/115 97/395/115 99/396/115
f 103/397/116 101/398/116 102/399/116 104/400/116
f 97/401/117 98/402/117 102/403/117 101/404/117
f 100/405/118 99/406/118 103/407/118 104/408/118
f 99/409/119 97/410/119 101/411/119 103/412/119
f 104/413/120 102/414/120 98/415/120 100/416/120
f 108/417/121 106/418/121 105/419/121 107/420/121
f 111/421/122 109/422/122 110/423/122 112/424/122
f 105/425/123 106/426/123 110/427/123 109/428/123
f 108/429/124 107/430/124 111/431/124 112/432/124
f 107/433/125 105/434/125 109/435/125 111/436/125
f 112/437/126 110/438/126 106/439/126 108/440/126
f 116/441/127 114/442/127 113/443/127 115/444/127
f 119/445/128 117/446/128 118/447/128 120/448/128
f 113/449/129 114/450/129 118/451/129 117/452/129
f 116/453/130 115/454/130 119/455/130 120/456/130
f 115/457/131 113/458/131 117/459/131 119/460/131
f 120/461/132 118/462/132 114/463/132 116/464/132
f 124/465/133 122/466/133 121/467/133 123/468/133
f 127/469/134 125/470/134 126/471/134 128/472/134
f 121/473/135 122/474/135 126/475/135 125/476/135
f 124/477/136 123/478/136 127/479/136 128/480/136
f 123/481/137 121/482/137 125/483/137 127/484/137
f 128/485/138 126/486/138 122/487/138 124/488/138
f 132/489/139 130/490/139 129/491/139 131/492/139
f 135/493/140 133/494/140 134/495/140 136/496/140
f 129/497/141 130/498/141 134/499/141 133/500/141
f 132/501/142 131/502/142 135/503/142 136/504/142
f 131/505/143 129/506/143 133/507/143 135/508/143
f 136/509/144 134/510/144 130/511/144 132/512/144
f 140/513/145 138/514/145 137/515/145 139/516/145
f 143/517/146 141/518/146 142/519/146 144/520/146
f 137/521/147 138/522/147 142/523/147 141/524/147
f 140/525/148 139/526/148 143/527/148 144/528/148
f 139/529/149 137/530/149 141/531/149 143/532/149
f 144/533/150 142/534/150 138/535/150 140/536/150