# Made in Blockbench 5.1.6
mtllib 1000_left.mtl

o cube
v 0.375 3.8125 -0.1875
v 0.375 3.8125 -0.25
v 0.375 3.6875 -0.1875
v 0.4375 3.8125 -0.1875
v 0.4375 3.8125 -0.25
v 0.4375 3.6875 -0.1875
v 0.125 3.8125 -0.1875
v 0.125 3.8125 -0.25
v 0.125 3.6875 -0.1875
v 0.1875 3.8125 -0.1875
v 0.1875 3.8125 -0.25
v 0.1875 3.6875 -0.1875
v -0.125 3.8125 -0.1875
v -0.125 3.8125 -0.25
v -0.125 3.6875 -0.1875
v -0.0625 3.8125 -0.1875
v -0.0625 3.8125 -0.25
v -0.0625 3.6875 -0.1875
v 0.625 3.8125 -0.1875
v 0.625 3.8125 -0.25
v 0.625 3.6875 -0.1875
v 0.6875 3.8125 -0.1875
v 0.6875 3.8125 -0.25
v 0.6875 3.6875 -0.1875
v 0.875 3.8125 -0.1875
v 0.875 3.8125 -0.25
v 0.875 3.6875 -0.1875
v 0.9375 3.8125 -0.1875
v 0.9375 3.8125 -0.25
v 0.9375 3.6875 -0.1875
v 0.4375 3.8125 0.1875
v 0.4375 3.8125 0.25
v 0.4375 3.6875 0.1875
v 0.5 3.8125 0.1875
v 0.5 3.8125 0.25
v 0.5 3.6875 0.1875
v 0.625 3.8125 0.1875
v 0.625 3.8125 0.25
v 0.625 3.6875 0.1875
v 0.6875 3.8125 0.1875
v 0.6875 3.8125 0.25
v 0.6875 3.6875 0.1875
v 0.8125 3.8125 0.1875
v 0.8125 3.8125 0.25
v 0.8125 3.6875 0.1875
v 0.875 3.8125 0.1875
v 0.875 3.8125 0.25
v 0.875 3.6875 0.1875
v 0.390625 3.553125 0.03125
v 0.390625 3.553125 -0.03125
v 0.390625 3.50625 0.03125
v 0.390625 3.50625 -0.03125
v 0.96875 3.615625 0.03125
v 0.96875 3.615625 -0.03125
v 0.96875 3.56875 0.03125
v 0.96875 3.56875 -0.03125
v 0.21875 3.490625 0.03125
v 0.21875 3.490625 -0.03125
v 0.21875 3.44375 0.03125
v 0.21875 3.44375 -0.03125
v 0.40625 3.553125 0.03125
v 0.40625 3.553125 -0.03125
v 0.40625 3.50625 0.03125
v 0.40625 3.50625 -0.03125
v -0.0625 3.56875 0.03125
v -0.0625 3.56875 -0.03125
v -0.109375 3.56875 0.03125
v -0.109375 3.56875 -0.03125
v 0.015625 3.490625 0.03125
v 0.015625 3.490625 -0.03125
v 0.015625 3.44375 0.03125
v 0.015625 3.44375 -0.03125
v 0 4 -0.1625
v 0 4 -0.2125
v 0.0625 3.875 -0.1625
v 0.0625 3.875 -0.2125
v 0.0625 4 -0.1625
v 0.0625 4 -0.2125
v 0.125 3.875 -0.1625
v 0.125 3.875 -0.2125
v -0.0625 4 -0.1625
v -0.0625 4 -0.2125
v -0.125 3.875 -0.1625
v -0.125 3.875 -0.2125
v -0.0625 3.875 -0.1625
v -0.0625 3.875 -0.2125
v 0 4 -0.1625
v 0 4 -0.2125
v -0.0625 4 0.21250000000000002
v -0.0625 4 0.09999999999999998
v -0.125 3.875 0.21250000000000002
v -0.125 3.875 0.09999999999999998
v -0.0625 3.875 0.21250000000000002
v -0.0625 3.875 0.09999999999999998
v 0 4 0.21250000000000002
v 0 4 0.09999999999999998
v 0 4 0.21250000000000002
v 0 4 0.09999999999999998
v 0.0625 3.875 0.21250000000000002
v 0.0625 3.875 0.09999999999999998
v 0.0625 4 0.21250000000000002
v 0.0625 4 0.09999999999999998
v 0.125 3.875 0.21250000000000002
v 0.125 3.875 0.09999999999999998
v 1.21875 3.125 0.125
v 1.21875 3.125 -0.125
v 1.21875 2.125 0.125
v 1.21875 2.125 -0.125
v 0.96875 3.125 0.125
v 0.96875 3.125 -0.125
v 0.96875 2.125 0.125
v 0.96875 2.125 -0.125
v 1.21875 3.6875 0.125
v 1.21875 3.6875 -0.125
v 1.21875 3.125 0.125
v 1.21875 3.125 -0.125
v 0.96875 3.6875 0.125
v 0.96875 3.6875 -0.125
v 0.96875 3.125 0.125
v 0.96875 3.125 -0.125
v 1.21875 2.125 0.125
v 1.21875 2.125 -0.125
v 1.21875 1.125 0.125
v 1.21875 1.125 -0.125
v 0.96875 2.125 0.125
v 0.96875 2.125 -0.125
v 0.96875 1.125 0.125
v 0.96875 1.125 -0.125
v 1.21875 1.125 0.125
v 1.21875 1.125 -0.125
v 1.21875 0.3125 0.125
v 1.21875 0.3125 -0.125
v 0.96875 1.125 0.125
v 0.96875 1.125 -0.125
v 0.96875 0.3125 0.125
v 0.96875 0.3125 -0.125
v 0.96875 1.375 -0.0625
v 0.96875 1.375 -0.125
v 0.96875 1.3125 -0.0625
v 0.96875 1.3125 -0.125
v 0.78125 1.375 -0.0625
v 0.78125 1.375 -0.125
v 0.78125 1.3125 -0.0625
v 0.78125 1.3125 -0.125
v 0.84375 1.375 0.0625
v 0.84375 1.375 -0.0625
v 0.84375 1.3125 0.0625
v 0.84375 1.3125 -0.0625
v 0.78125 1.375 0.0625
v 0.78125 1.375 -0.0625
v 0.78125 1.3125 0.0625
v 0.78125 1.3125 -0.0625
v 0.96875 1.375 0.125
v 0.96875 1.375 0.0625
v 0.96875 1.3125 0.125
v 0.96875 1.3125 0.0625
v 0.78125 1.375 0.125
v 0.78125 1.375 0.0625
v 0.78125 1.3125 0.125
v 0.78125 1.3125 0.0625
v 0.96875 1 -0.0625
v 0.96875 1 -0.125
v 0.96875 0.9375 -0.0625
v 0.96875 0.9375 -0.125
v 0.78125 1 -0.0625
v 0.78125 1 -0.125
v 0.78125 0.9375 -0.0625
v 0.78125 0.9375 -0.125
v 0.84375 1 0.0625
v 0.84375 1 -0.0625
v 0.84375 0.9375 0.0625
v 0.84375 0.9375 -0.0625
v 0.78125 1 0.0625
v 0.78125 1 -0.0625
v 0.78125 0.9375 0.0625
v 0.78125 0.9375 -0.0625
v 0.96875 1 0.125
v 0.96875 1 0.0625
v 0.96875 0.9375 0.125
v 0.96875 0.9375 0.0625
v 0.78125 1 0.125
v 0.78125 1 0.0625
v 0.78125 0.9375 0.125
v 0.78125 0.9375 0.0625
v 0.84375 0.625 0.0625
v 0.84375 0.625 -0.0625
v 0.84375 0.5625 0.0625
v 0.84375 0.5625 -0.0625
v 0.78125 0.625 0.0625
v 0.78125 0.625 -0.0625
v 0.78125 0.5625 0.0625
v 0.78125 0.5625 -0.0625
v 0.96875 0.625 0.125
v 0.96875 0.625 0.0625
v 0.96875 0.5625 0.125
v 0.96875 0.5625 0.0625
v 0.78125 0.625 0.125
v 0.78125 0.625 0.0625
v 0.78125 0.5625 0.125
v 0.78125 0.5625 0.0625
v 0.96875 0.625 -0.0625
v 0.96875 0.625 -0.125
v 0.96875 0.5625 -0.0625
v 0.96875 0.5625 -0.125
v 0.78125 0.625 -0.0625
v 0.78125 0.625 -0.125
v 0.78125 0.5625 -0.0625
v 0.78125 0.5625 -0.125
v 0.0625 5 -0.15624999999999997
v 0.0625 5 -0.21874999999999997
v 0.0625 3.875 -0.15624999999999997
v 0.0625 3.875 -0.21874999999999997
v -0.0625 5 -0.15624999999999997
v -0.0625 5 -0.21874999999999997
v -0.0625 3.875 -0.15624999999999997
v -0.0625 3.875 -0.21874999999999997
v 0.0625 5 0.21875
v 0.0625 5 0.09375
v 0.0625 3.875 0.21875
v 0.0625 3.875 0.09375
v -0.0625 5 0.21875
v -0.0625 5 0.09375
v -0.0625 3.875 0.21875
v -0.0625 3.875 0.09375
v 0.0625 5 0.09375
v 0.0625 5 -0.15625
v 0.0625 4.9375 0.09375
v 0.0625 4.9375 -0.15625
v -0.0625 5 0.09375
v -0.0625 5 -0.15625
v -0.0625 4.9375 0.09375
v -0.0625 4.9375 -0.15625
v 0.0625 4.5625 0.09375
v 0.0625 4.5625 -0.15625
v 0.0625 4.5 0.09375
v 0.0625 4.5 -0.15625
v -0.0625 4.5625 0.09375
v -0.0625 4.5625 -0.15625
v -0.0625 4.5 0.09375
v -0.0625 4.5 -0.15625
v 0.0625 4.125 0.09375
v 0.0625 4.125 -0.15625
v 0.0625 3.9375 0.09375
v 0.0625 3.9375 -0.15625
v -0.0625 4.125 0.09375
v -0.0625 4.125 -0.15625
v -0.0625 3.9375 0.09375
v -0.0625 3.9375 -0.15625
v 1.15625 3.25 0.1875
v 1.15625 3.25 0.125
v 1.15625 3.1875 0.1875
v 1.15625 3.1875 0.125
v 0.78125 3.25 0.1875
v 0.78125 3.25 0.125
v 0.78125 3.1875 0.1875
v 0.78125 3.1875 0.125
v 1.40625 2.75 0.1875
v 1.40625 2.75 0.125
v 1.40625 2.6875 0.1875
v 1.40625 2.6875 0.125
v 1.03125 2.75 0.1875
v 1.03125 2.75 0.125
v 1.03125 2.6875 0.1875
v 1.03125 2.6875 0.125
v 1.15625 2.25 0.1875
v 1.15625 2.25 0.125
v 1.15625 2.1875 0.1875
v 1.15625 2.1875 0.125
v 0.78125 2.25 0.1875
v 0.78125 2.25 0.125
v 0.78125 2.1875 0.1875
v 0.78125 2.1875 0.125
v 1.40625 1.75 0.1875
v 1.40625 1.75 0.125
v 1.40625 1.6875 0.1875
v 1.40625 1.6875 0.125
v 1.03125 1.75 0.1875
v 1.03125 1.75 0.125
v 1.03125 1.6875 0.1875
v 1.03125 1.6875 0.125
v 1.46875 0.25 0.375
v 1.46875 0.25 -0.375
v 1.46875 -0.1875 0.375
v 1.46875 -0.1875 -0.375
v 0.71875 0.25 0.375
v 0.71875 0.25 -0.375
v 0.71875 -0.1875 0.375
v 0.71875 -0.1875 -0.375
v 1.40625 0.3125 0.25
v 1.40625 0.3125 -0.25
v 1.40625 0.25 0.25
v 1.40625 0.25 -0.25
v 0.78125 0.3125 0.25
v 0.78125 0.3125 -0.25
v 0.78125 0.25 0.25
v 0.78125 0.25 -0.25
v 1.3589150429449552 0.28661165235168173 -0.037500000000000006
v 1.3589150429449552 0.28661165235168173 -0.11875
v 1.270526695296637 0.19822330470336302 -0.037500000000000006
v 1.270526695296637 0.19822330470336302 -0.11875
v 1.1379441738241591 0.5075825214724778 -0.037500000000000006
v 1.1379441738241591 0.5075825214724778 -0.11875
v 1.0495558261758409 0.41919417382415913 -0.037500000000000006
v 1.0495558261758409 0.41919417382415913 -0.11875
v 1.0571383476483185 0.5151650429449552 -0.037500000000000006
v 1.0571383476483185 0.5151650429449552 -0.11875
v 1.145526695296637 0.426776695296637 -0.037500000000000006
v 1.145526695296637 0.426776695296637 -0.11875
v 0.8361674785275224 0.29419417382415913 -0.037500000000000006
v 0.8361674785275224 0.29419417382415913 -0.11875
v 0.9245558261758408 0.20580582617584087 -0.037500000000000006
v 0.9245558261758408 0.20580582617584087 -0.11875
v 1.0571383476483185 0.5151650429449552 0.11875000000000002
v 1.0571383476483185 0.5151650429449552 0.03749999999999998
v 1.145526695296637 0.426776695296637 0.11875000000000002
v 1.145526695296637 0.426776695296637 0.03749999999999998
v 0.8361674785275224 0.29419417382415913 0.11875000000000002
v 0.8361674785275224 0.29419417382415913 0.03749999999999998
v 0.9245558261758408 0.20580582617584087 0.11875000000000002
v 0.9245558261758408 0.20580582617584087 0.03749999999999998
v 1.3589150429449552 0.28661165235168173 0.11875000000000002
v 1.3589150429449552 0.28661165235168173 0.03749999999999998
v 1.270526695296637 0.19822330470336302 0.11875000000000002
v 1.270526695296637 0.19822330470336302 0.03749999999999998
v 1.1379441738241591 0.5075825214724778 0.11875000000000002
v 1.1379441738241591 0.5075825214724778 0.03749999999999998
v 1.0495558261758409 0.41919417382415913 0.11875000000000002
v 1.0495558261758409 0.41919417382415913 0.03749999999999998
v 1.40625 1.3125 0.5
v 1.40625 1.3125 0.125
v 1.40625 0.5 0.5
v 1.40625 0.5 0.125
v 0.78125 1.3125 0.5
v 0.78125 1.3125 0.125
v 0.78125 0.5 0.5
v 0.78125 0.5 0.125
v 1.125 3.6401650429449552 0.11875000000000002
v 1.125 3.6401650429449552 0.06874999999999998
v 0.9924174785275224 3.507582521472478 0.11875000000000002
v 0.9924174785275224 3.507582521472478 0.06874999999999998
v 0.9040291308792039 3.8611359120657514 0.11875000000000002
v 0.9040291308792039 3.8611359120657514 0.06874999999999998
v 0.7714466094067263 3.728553390593274 0.11875000000000002
v 0.7714466094067263 3.728553390593274 0.06874999999999998
v 1.125 3.6401650429449552 -0.06875
v 1.125 3.6401650429449552 -0.11875
v 0.9924174785275224 3.507582521472478 -0.06875
v 0.9924174785275224 3.507582521472478 -0.11875
v 0.9040291308792039 3.8611359120657514 -0.06875
v 0.9040291308792039 3.8611359120657514 -0.11875
v 0.7714466094067263 3.728553390593274 -0.06875
v 0.7714466094067263 3.728553390593274 -0.11875
v 0.9375 3.875 0.25
v 0.9375 3.875 -0.25
v 0.9375 3.8125 0.25
v 0.9375 3.8125 -0.25
v -0.1875 3.875 0.25
v -0.1875 3.875 -0.25
v -0.1875 3.8125 0.25
v -0.1875 3.8125 -0.25
v 1.21875 3.8125 0.1875
v 1.21875 3.8125 -0.1875
v 1.21875 3.6875 0.1875
v 1.21875 3.6875 -0.1875
v 0.375 3.8125 0.1875
v 0.375 3.8125 -0.1875
v 0.375 3.6875 0.1875
v 0.375 3.6875 -0.1875
v 0.375 3.8125 0.1875
v 0.375 3.8125 -0.1875
v 0.375 3.6875 0.1875
v 0.375 3.6875 -0.1875
v -0.1875 3.8125 0.1875
v -0.1875 3.8125 -0.1875
v -0.1875 3.6875 0.1875
v -0.1875 3.6875 -0.1875
v 1.21875 3.875 0.1875
v 1.21875 3.875 -0.1875
v 1.21875 3.8125 0.1875
v 1.21875 3.8125 -0.1875
v 0.9375 3.875 0.1875
v 0.9375 3.875 -0.1875
v 0.9375 3.8125 0.1875
v 0.9375 3.8125 -0.1875
v 0.25 3.6875 0.0625
v 0.25 3.6875 -0.0625
v 0.25 3.4375 0.0625
v 0.25 3.4375 -0.0625
v 0.1875 3.6875 0.0625
v 0.1875 3.6875 -0.0625
v 0.1875 3.4375 0.0625
v 0.1875 3.4375 -0.0625
v -0.0625 3.6875 0.03125
v -0.0625 3.6875 -0.03125
v -0.0625 3.5687499999999996 0.03125
v -0.0625 3.5687499999999996 -0.03125
v -0.109375 3.6875 0.03125
v -0.109375 3.6875 -0.03125
v -0.109375 3.5687499999999996 0.03125
v -0.109375 3.5687499999999996 -0.03125
v 0.21875 3.490625 0.03125
v 0.21875 3.490625 -0.03125
v 0.21875 3.44375 0.03125
v 0.21875 3.44375 -0.03125
v 0.015625 3.490625 0.03125
v 0.015625 3.490625 -0.03125
v 0.015625 3.44375 0.03125
v 0.015625 3.44375 -0.03125
v 1.25625 3.9375 0.30625
v 1.25625 3.9375 -0.69375
v 1.25625 3.875 0.30625
v 1.25625 3.875 -0.69375
v 0.38125 3.9375 0.30625
v 0.38125 3.9375 -0.69375
v 0.38125 3.875 0.30625
v 0.38125 3.875 -0.69375
v 0.4125 4.4375 -0.22499999999999998
v 0.4125 4.4375 -0.725
v 0.4125 4.40625 -0.22499999999999998
v 0.4125 4.40625 -0.725
v 0.38125 4.4375 -0.22499999999999998
v 0.38125 4.4375 -0.725
v 0.38125 4.40625 -0.22499999999999998
v 0.38125 4.40625 -0.725
v 0.4125 4.875 -0.22499999999999998
v 0.4125 4.875 -0.725
v 0.4125 4.84375 -0.22499999999999998
v 0.4125 4.84375 -0.725
v 0.38125 4.875 -0.22499999999999998
v 0.38125 4.875 -0.725
v 0.38125 4.84375 -0.22499999999999998
v 0.38125 4.84375 -0.725
v 1.25625 3.9375 -0.69375
v 1.25625 3.9375 -0.75625
v 1.25625 3.875 -0.69375
v 1.25625 3.875 -0.75625
v 0.38125 3.9375 -0.69375
v 0.38125 3.9375 -0.75625
v 0.38125 3.875 -0.69375
v 0.38125 3.875 -0.75625
v 1.225 4.4375 -0.725
v 1.225 4.4375 -0.75625
v 1.225 4.40625 -0.725
v 1.225 4.40625 -0.75625
v 0.4125 4.4375 -0.725
v 0.4125 4.4375 -0.75625
v 0.4125 4.40625 -0.725
v 0.4125 4.40625 -0.75625
v 1.225 4.875 -0.725
v 1.225 4.875 -0.75625
v 1.225 4.84375 -0.725
v 1.225 4.84375 -0.75625
v 0.4125 4.875 -0.725
v 0.4125 4.875 -0.75625
v 0.4125 4.84375 -0.725
v 0.4125 4.84375 -0.75625
v 0.7875 4.4375 0.30625
v 0.7875 4.4375 0.275
v 0.7875 4.40625 0.30625
v 0.7875 4.40625 0.275
v 0.4125 4.4375 0.30625
v 0.4125 4.4375 0.275
v 0.4125 4.40625 0.30625
v 0.4125 4.40625 0.275
v 0.7875 4.875 0.30625
v 0.7875 4.875 0.275
v 0.7875 4.84375 0.30625
v 0.7875 4.84375 0.275
v 0.4125 4.875 0.30625
v 0.4125 4.875 0.275
v 0.4125 4.84375 0.30625
v 0.4125 4.84375 0.275
v 1.25625 4.875 -0.725
v 1.25625 4.875 -0.75625
v 1.25625 3.9375 -0.725
v 1.25625 3.9375 -0.75625
v 1.225 4.875 -0.725
v 1.225 4.875 -0.75625
v 1.225 3.9375 -0.725
v 1.225 3.9375 -0.75625
v 0.4125 4.875 -0.725
v 0.4125 4.875 -0.75625
v 0.4125 3.9375 -0.725
v 0.4125 3.9375 -0.75625
v 0.38125 4.875 -0.725
v 0.38125 4.875 -0.75625
v 0.38125 3.9375 -0.725
v 0.38125 3.9375 -0.75625
v 0.4125 4.875 -0.19374999999999998
v 0.4125 4.875 -0.22499999999999998
v 0.4125 3.9375 -0.19374999999999998
v 0.4125 3.9375 -0.22499999999999998
v 0.38125 4.875 -0.19374999999999998
v 0.38125 4.875 -0.22499999999999998
v 0.38125 3.9375 -0.19374999999999998
v 0.38125 3.9375 -0.22499999999999998
v 1.25625 4.875 0.30625
v 1.25625 4.875 0.275
v 1.25625 3.9375 0.30625
v 1.25625 3.9375 0.275
v 1.225 4.875 0.30625
v 1.225 4.875 0.275
v 1.225 3.9375 0.30625
v 1.225 3.9375 0.275
v 0.4125 4.875 0.30625
v 0.4125 4.875 0.275
v 0.4125 3.9375 0.30625
v 0.4125 3.9375 0.275
v 0.38125 4.875 0.30625
v 0.38125 4.875 0.275
v 0.38125 3.9375 0.30625
v 0.38125 3.9375 0.275
v 0.81875 4.875 0.30625
v 0.81875 4.875 0.275
v 0.81875 3.9375 0.30625
v 0.81875 3.9375 0.275
v 0.7875 4.875 0.30625
v 0.7875 4.875 0.275
v 0.7875 3.9375 0.30625
v 0.7875 3.9375 0.275
v 1.25625 4.875 0.275
v 1.25625 4.875 -0.725
v 1.25625 4.84375 0.275
v 1.25625 4.84375 -0.725
v 1.225 4.875 0.275
v 1.225 4.875 -0.725
v 1.225 4.84375 0.275
v 1.225 4.84375 -0.725
v 1.25625 4.4375 0.275
v 1.25625 4.4375 -0.725
v 1.25625 4.40625 0.275
v 1.25625 4.40625 -0.725
v 1.225 4.4375 0.275
v 1.225 4.4375 -0.725
v 1.225 4.40625 0.275
v 1.225 4.40625 -0.725
v 1.1625 3.875 -0.19374999999999998
v 1.1625 3.875 -0.69375
v 1.1625 3.8125 -0.19374999999999998
v 1.1625 3.8125 -0.69375
v 0.9750000000000001 3.875 -0.19374999999999998
v 0.9750000000000001 3.875 -0.69375
v 0.9750000000000001 3.8125 -0.19374999999999998
v 0.9750000000000001 3.8125 -0.69375
v 1.0375 3.8125 -0.19374999999999998
v 1.0375 3.8125 -0.69375
v 1.0375 3.6875 -0.19374999999999998
v 1.0375 3.6875 -0.69375
v 0.9750000000000001 3.8125 -0.19374999999999998
v 0.9750000000000001 3.8125 -0.69375
v 0.9750000000000001 3.6875 -0.19374999999999998
v 0.9750000000000001 3.6875 -0.69375
v 1.15625 3.6875 -0.125
v 1.15625 3.6875 -0.15625
v 1.15625 2.6875 -0.125
v 1.15625 2.6875 -0.15625
v 1.03125 3.6875 -0.125
v 1.03125 3.6875 -0.15625
v 1.03125 2.6875 -0.125
v 1.03125 2.6875 -0.15625
vt 0.109375 1
vt 0.125 1
vt 0.125 0.96875
vt 0.125 1
vt 0.140625 1
vt 0.125 0.96875
vt 0.125 0.984375
vt 0.140625 0.984375
vt 0.140625 0.96875
vt 0.125 0.96875
vt 0.125 1
vt 0.140625 1
vt 0.140625 0.96875
vt 0.125 0.96875
vt 0.109375 1
vt 0.125 1
vt 0.125 0.96875
vt 0.109375 0.96875
vt 0.109375 1
vt 0.125 1
vt 0.125 0.96875
vt 0.125 1
vt 0.140625 1
vt 0.125 0.96875
vt 0.125 0.984375
vt 0.140625 0.984375
vt 0.140625 0.96875
vt 0.125 0.96875
vt 0.125 1
vt 0.140625 1
vt 0.140625 0.96875
vt 0.125 0.96875
vt 0.109375 1
vt 0.125 1
vt 0.125 0.96875
vt 0.109375 0.96875
vt 0.109375 1
vt 0.125 1
vt 0.125 0.96875
vt 0.125 1
vt 0.140625 1
vt 0.125 0.96875
vt 0.125 0.984375
vt 0.140625 0.984375
vt 0.140625 0.96875
vt 0.125 0.96875
vt 0.125 1
vt 0.140625 1
vt 0.140625 0.96875
vt 0.125 0.96875
vt 0.109375 1
vt 0.125 1
vt 0.125 0.96875
vt 0.109375 0.96875
vt 0.109375 1
vt 0.125 1
vt 0.125 0.96875
vt 0.125 1
vt 0.140625 1
vt 0.125 0.96875
vt 0.125 0.984375
vt 0.140625 0.984375
vt 0.140625 0.96875
vt 0.125 0.96875
vt 0.125 1
vt 0.140625 1
vt 0.140625 0.96875
vt 0.125 0.96875
vt 0.109375 1
vt 0.125 1
vt 0.125 0.96875
vt 0.109375 0.96875
vt 0.109375 1
vt 0.125 1
vt 0.125 0.96875
vt 0.125 1
vt 0.140625 1
vt 0.125 0.96875
vt 0.125 0.984375
vt 0.140625 0.984375
vt 0.140625 0.96875
vt 0.125 0.96875
vt 0.125 1
vt 0.140625 1
vt 0.140625 0.96875
vt 0.125 0.96875
vt 0.109375 1
vt 0.125 1
vt 0.125 0.96875
vt 0.109375 0.96875
vt 0.125 1
vt 0.109375 1
vt 0.125 0.96875
vt 0.140625 1
vt 0.125 1
vt 0.125 0.96875
vt 0.140625 0.96875
vt 0.140625 0.984375
vt 0.125 0.984375
vt 0.125 0.96875
vt 0.140625 0.96875
vt 0.140625 1
vt 0.125 1
vt 0.125 0.96875
vt 0.125 0.96875
vt 0.125 1
vt 0.109375 1
vt 0.109375 0.96875
vt 0.125 1
vt 0.109375 1
vt 0.125 0.96875
vt 0.140625 1
vt 0.125 1
vt 0.125 0.96875
vt 0.140625 0.96875
vt 0.140625 0.984375
vt 0.125 0.984375
vt 0.125 0.96875
vt 0.140625 0.96875
vt 0.140625 1
vt 0.125 1
vt 0.125 0.96875
vt 0.125 0.96875
vt 0.125 1
vt 0.109375 1
vt 0.109375 0.96875
vt 0.125 1
vt 0.109375 1
vt 0.125 0.96875
vt 0.140625 1
vt 0.125 1
vt 0.125 0.96875
vt 0.140625 0.96875
vt 0.140625 0.984375
vt 0.125 0.984375
vt 0.125 0.96875
vt 0.140625 0.96875
vt 0.140625 1
vt 0.125 1
vt 0.125 0.96875
vt 0.125 0.96875
vt 0.125 1
vt 0.109375 1
vt 0.109375 0.96875
vt 0.3046875 0.44921875
vt 0.3203125 0.44921875
vt 0.3203125 0.4375
vt 0.3046875 0.4375
vt 0.3046875 0.44921875
vt 0.3203125 0.44921875
vt 0.3203125 0.4375
vt 0.3046875 0.4375
vt 0.296875 0.4453125
vt 0.34765625 0.4453125
vt 0.34765625 0.4296875
vt 0.296875 0.4296875
vt 0.296875 0.4453125
vt 0.34765625 0.4453125
vt 0.34765625 0.4296875
vt 0.296875 0.4296875
vt 0.296875 0.44921875
vt 0.34765625 0.44921875
vt 0.34765625 0.4375
vt 0.296875 0.4375
vt 0.3046875 0.44921875
vt 0.35546875 0.44921875
vt 0.35546875 0.4375
vt 0.3046875 0.4375
vt 0.3046875 0.44921875
vt 0.3203125 0.44921875
vt 0.3203125 0.4375
vt 0.3046875 0.4375
vt 0.3046875 0.44921875
vt 0.3203125 0.44921875
vt 0.3203125 0.4375
vt 0.3046875 0.4375
vt 0.32421875 0.4453125
vt 0.35546875 0.4453125
vt 0.35546875 0.4296875
vt 0.32421875 0.4296875
vt 0.32421875 0.4453125
vt 0.35546875 0.4453125
vt 0.35546875 0.4296875
vt 0.32421875 0.4296875
vt 0.32421875 0.44921875
vt 0.35546875 0.44921875
vt 0.35546875 0.4375
vt 0.32421875 0.4375
vt 0.296875 0.44921875
vt 0.328125 0.44921875
vt 0.328125 0.4375
vt 0.296875 0.4375
vt 0.3046875 0.44921875
vt 0.3203125 0.44921875
vt 0.3203125 0.4375
vt 0.3046875 0.4375
vt 0.3046875 0.44921875
vt 0.3203125 0.44921875
vt 0.3203125 0.4375
vt 0.3046875 0.4375
vt 0.296875 0.4453125
vt 0.35546875 0.4453125
vt 0.35546875 0.4296875
vt 0.296875 0.4296875
vt 0.296875 0.4453125
vt 0.35546875 0.4453125
vt 0.35546875 0.4296875
vt 0.296875 0.4296875
vt 0.296875 0.44921875
vt 0.35546875 0.44921875
vt 0.35546875 0.4375
vt 0.296875 0.4375
vt 0.296875 0.44921875
vt 0.35546875 0.44921875
vt 0.35546875 0.4375
vt 0.296875 0.4375
vt 0.015625 1
vt 0.03125 1
vt 0.03125 0.96875
vt 0.015625 0.96875
vt 0 1
vt 0.015625 1
vt 0.015625 0.96875
vt 0 0.96875
vt 0 1
vt 0.015625 1
vt 0.015625 0.984375
vt 0 0.984375
vt 0 0.984375
vt 0.015625 0.984375
vt 0.015625 0.96875
vt 0 0.96875
vt 0 1
vt 0.015625 1
vt 0.015625 0.96875
vt 0 0.96875
vt 0.015625 1
vt 0.03125 1
vt 0.03125 0.96875
vt 0.015625 0.96875
vt 0.015625 1
vt 0.03125 1
vt 0.03125 0.96875
vt 0.015625 0.96875
vt 0 1
vt 0.015625 1
vt 0.015625 0.96875
vt 0 0.96875
vt 0 0.984375
vt 0.015625 0.984375
vt 0.015625 0.96875
vt 0 0.96875
vt 0 1
vt 0.015625 1
vt 0.015625 0.96875
vt 0 0.96875
vt 0.015625 1
vt 0.03125 1
vt 0.03125 0.96875
vt 0.015625 0.96875
vt 0 1
vt 0.015625 1
vt 0.015625 0.984375
vt 0 0.984375
vt 0 1
vt 0.03125 1
vt 0.03125 0.96875
vt 0 0.96875
vt 0 1
vt 0.03125 1
vt 0.03125 0.96875
vt 0 0.96875
vt 0 1
vt 0.015625 1
vt 0.015625 0.96875
vt 0 0.96875
vt 0 1
vt 0.015625 1
vt 0.015625 0.96875
vt 0 0.96875
vt 0.015625 1
vt 0.03125 1
vt 0.03125 0.96875
vt 0.015625 0.96875
vt 0 1
vt 0.015625 1
vt 0.015625 0.96875
vt 0 0.96875
vt 0 1
vt 0.03125 1
vt 0.03125 0.96875
vt 0 0.96875
vt 0 1
vt 0.03125 1
vt 0.03125 0.96875
vt 0 0.96875
vt 0 1
vt 0.015625 1
vt 0.015625 0.96875
vt 0 0.96875
vt 0 1
vt 0.015625 1
vt 0.015625 0.96875
vt 0 0.96875
vt 0 1
vt 0.015625 1
vt 0.015625 0.96875
vt 0 0.96875
vt 0.015625 1
vt 0.03125 1
vt 0.03125 0.96875
vt 0.015625 0.96875
vt 0.015625 0.75
vt 0.015625 1
vt 0.078125 1
vt 0.078125 0.75
vt 0.015625 0.75
vt 0.015625 1
vt 0.078125 1
vt 0.078125 0.75
vt 0 0.921875
vt 0 0.984375
vt 0.0625 0.984375
vt 0.0625 0.921875
vt 0 0.921875
vt 0 0.984375
vt 0.0625 0.984375
vt 0.0625 0.921875
vt 0 0.75
vt 0 1
vt 0.0625 1
vt 0.0625 0.75
vt 0.015625 0.75
vt 0.015625 1
vt 0.078125 1
vt 0.078125 0.75
vt 0.015625 0.859375
vt 0.015625 1
vt 0.078125 1
vt 0.078125 0.859375
vt 0.015625 0.859375
vt 0.015625 1
vt 0.078125 1
vt 0.078125 0.859375
vt 0 0.921875
vt 0 0.984375
vt 0.0625 0.984375
vt 0.0625 0.921875
vt 0 0.921875
vt 0 0.984375
vt 0.0625 0.984375
vt 0.0625 0.921875
vt 0 0.859375
vt 0 1
vt 0.0625 1
vt 0.0625 0.859375
vt 0.015625 0.859375
vt 0.015625 1
vt 0.078125 1
vt 0.078125 0.859375
vt 0.015625 0.75
vt 0.015625 1
vt 0.078125 1
vt 0.078125 0.75
vt 0.015625 0.75
vt 0.015625 1
vt 0.078125 1
vt 0.078125 0.75
vt 0 0.921875
vt 0 0.984375
vt 0.0625 0.984375
vt 0.0625 0.921875
vt 0 0.921875
vt 0 0.984375
vt 0.0625 0.984375
vt 0.0625 0.921875
vt 0 0.75
vt 0 1
vt 0.0625 1
vt 0.0625 0.75
vt 0.015625 0.75
vt 0.015625 1
vt 0.078125 1
vt 0.078125 0.75
vt 0.015625 0.796875
vt 0.015625 1
vt 0.078125 1
vt 0.078125 0.796875
vt 0.015625 0.796875
vt 0.015625 1
vt 0.078125 1
vt 0.078125 0.796875
vt 0 0.921875
vt 0 0.984375
vt 0.0625 0.984375
vt 0.0625 0.921875
vt 0 0.921875
vt 0 0.984375
vt 0.0625 0.984375
vt 0.0625 0.921875
vt 0 0.796875
vt 0 1
vt 0.0625 1
vt 0.0625 0.796875
vt 0.015625 0.796875
vt 0.015625 1
vt 0.078125 1
vt 0.078125 0.796875
vt 0 0.96875
vt 0 0.984375
vt 0.015625 0.984375
vt 0.015625 0.96875
vt 0.015625 0.96875
vt 0.015625 0.984375
vt 0.03125 0.984375
vt 0.03125 0.96875
vt 0.015625 0.984375
vt 0.015625 1
vt 0.0625 1
vt 0.0625 0.984375
vt 0.015625 0.96875
vt 0.015625 0.984375
vt 0.0625 0.984375
vt 0.0625 0.96875
vt 0.015625 0.96875
vt 0.015625 0.984375
vt 0.0625 0.984375
vt 0.0625 0.96875
vt 0 0.96875
vt 0 0.984375
vt 0.046875 0.984375
vt 0.046875 0.96875
vt 0 0.96875
vt 0 0.984375
vt 0.03125 0.984375
vt 0.03125 0.96875
vt 0.015625 0.96875
vt 0.015625 0.984375
vt 0.046875 0.984375
vt 0.046875 0.96875
vt 0.046875 0.96875
vt 0.046875 1
vt 0.0625 1
vt 0.0625 0.96875
vt 0.046875 0.953125
vt 0.046875 0.984375
vt 0.0625 0.984375
vt 0.0625 0.953125
vt 0.046875 0.96875
vt 0.046875 0.984375
vt 0.0625 0.984375
vt 0.0625 0.96875
vt 0 0.96875
vt 0 0.984375
vt 0.015625 0.984375
vt 0.015625 0.96875
vt 0 0.96875
vt 0 0.984375
vt 0.015625 0.984375
vt 0.015625 0.96875
vt 0.015625 0.96875
vt 0.015625 0.984375
vt 0.03125 0.984375
vt 0.03125 0.96875
vt 0.015625 0.984375
vt 0.015625 1
vt 0.0625 1
vt 0.0625 0.984375
vt 0.015625 0.96875
vt 0.015625 0.984375
vt 0.0625 0.984375
vt 0.0625 0.96875
vt 0.015625 0.96875
vt 0.015625 0.984375
vt 0.0625 0.984375
vt 0.0625 0.96875
vt 0 0.96875
vt 0 0.984375
vt 0.046875 0.984375
vt 0.046875 0.96875
vt 0 0.96875
vt 0 0.984375
vt 0.015625 0.984375
vt 0.015625 0.96875
vt 0.015625 0.96875
vt 0.015625 0.984375
vt 0.03125 0.984375
vt 0.03125 0.96875
vt 0.015625 0.984375
vt 0.015625 1
vt 0.0625 1
vt 0.0625 0.984375
vt 0.015625 0.96875
vt 0.015625 0.984375
vt 0.0625 0.984375
vt 0.0625 0.96875
vt 0.015625 0.96875
vt 0.015625 0.984375
vt 0.0625 0.984375
vt 0.0625 0.96875
vt 0 0.96875
vt 0 0.984375
vt 0.046875 0.984375
vt 0.046875 0.96875
vt 0 0.96875
vt 0 0.984375
vt 0.03125 0.984375
vt 0.03125 0.96875
vt 0.015625 0.96875
vt 0.015625 0.984375
vt 0.046875 0.984375
vt 0.046875 0.96875
vt 0.046875 0.96875
vt 0.046875 1
vt 0.0625 1
vt 0.0625 0.96875
vt 0.046875 0.953125
vt 0.046875 0.984375
vt 0.0625 0.984375
vt 0.0625 0.953125
vt 0.046875 0.96875
vt 0.046875 0.984375
vt 0.0625 0.984375
vt 0.0625 0.96875
vt 0 0.96875
vt 0 0.984375
vt 0.015625 0.984375
vt 0.015625 0.96875
vt 0 0.96875
vt 0 0.984375
vt 0.015625 0.984375
vt 0.015625 0.96875
vt 0.015625 0.96875
vt 0.015625 0.984375
vt 0.03125 0.984375
vt 0.03125 0.96875
vt 0.015625 0.984375
vt 0.015625 1
vt 0.0625 1
vt 0.0625 0.984375
vt 0.015625 0.96875
vt 0.015625 0.984375
vt 0.0625 0.984375
vt 0.0625 0.96875
vt 0.015625 0.96875
vt 0.015625 0.984375
vt 0.0625 0.984375
vt 0.0625 0.96875
vt 0 0.96875
vt 0 0.984375
vt 0.046875 0.984375
vt 0.046875 0.96875
vt 0 0.96875
vt 0 0.984375
vt 0.03125 0.984375
vt 0.03125 0.96875
vt 0.015625 0.96875
vt 0.015625 0.984375
vt 0.046875 0.984375
vt 0.046875 0.96875
vt 0.046875 0.96875
vt 0.046875 1
vt 0.0625 1
vt 0.0625 0.96875
vt 0.046875 0.953125
vt 0.046875 0.984375
vt 0.0625 0.984375
vt 0.0625 0.953125
vt 0.046875 0.96875
vt 0.046875 0.984375
vt 0.0625 0.984375
vt 0.0625 0.96875
vt 0 0.96875
vt 0 0.984375
vt 0.015625 0.984375
vt 0.015625 0.96875
vt 0 0.96875
vt 0 0.984375
vt 0.015625 0.984375
vt 0.015625 0.96875
vt 0.015625 0.96875
vt 0.015625 0.984375
vt 0.03125 0.984375
vt 0.03125 0.96875
vt 0.015625 0.984375
vt 0.015625 1
vt 0.0625 1
vt 0.0625 0.984375
vt 0.015625 0.96875
vt 0.015625 0.984375
vt 0.0625 0.984375
vt 0.0625 0.96875
vt 0.015625 0.96875
vt 0.015625 0.984375
vt 0.0625 0.984375
vt 0.0625 0.96875
vt 0 0.96875
vt 0 0.984375
vt 0.046875 0.984375
vt 0.046875 0.96875
vt 0 0.96875
vt 0 0.984375
vt 0.015625 0.984375
vt 0.015625 0.96875
vt 0.015625 0.96875
vt 0.015625 0.984375
vt 0.03125 0.984375
vt 0.03125 0.96875
vt 0.015625 0.984375
vt 0.015625 1
vt 0.0625 1
vt 0.0625 0.984375
vt 0.015625 0.96875
vt 0.015625 0.984375
vt 0.0625 0.984375
vt 0.0625 0.96875
vt 0.015625 0.96875
vt 0.015625 0.984375
vt 0.0625 0.984375
vt 0.0625 0.96875
vt 0 0.96875
vt 0 0.984375
vt 0.046875 0.984375
vt 0.046875 0.96875
vt 0.03125 0.75
vt 0.03125 1
vt 0 1
vt 0 0.75
vt 0.03125 0.75
vt 0.03125 1
vt 0 1
vt 0 0.75
vt 0.046875 0.96875
vt 0.046875 1
vt 0 1
vt 0 0.96875
vt 0.046875 0.96875
vt 0.046875 1
vt 0 1
vt 0 0.96875
vt 0.046875 0.75
vt 0.046875 1
vt 0 1
vt 0 0.75
vt 0.046875 0.75
vt 0.046875 1
vt 0 1
vt 0 0.75
vt 0.03125 0.75
vt 0.03125 1
vt 0 1
vt 0 0.75
vt 0.03125 0.75
vt 0.03125 1
vt 0 1
vt 0 0.75
vt 0.046875 0.96875
vt 0.046875 1
vt 0 1
vt 0 0.96875
vt 0.046875 0.96875
vt 0.046875 1
vt 0 1
vt 0 0.96875
vt 0.046875 0.75
vt 0.046875 1
vt 0 1
vt 0 0.75
vt 0.046875 0.75
vt 0.046875 1
vt 0 1
vt 0 0.75
vt 0.171875 0.9375
vt 0.171875 0.953125
vt 0.109375 0.953125
vt 0.109375 0.9375
vt 0.171875 0.9375
vt 0.171875 0.953125
vt 0.109375 0.953125
vt 0.109375 0.9375
vt 0.028125 0.9375
vt 0.028125 1
vt 0 1
vt 0 0.9375
vt 0.028125 0.9375
vt 0.028125 1
vt 0 1
vt 0 0.9375
vt 0.028125 0.984375
vt 0.028125 1
vt 0 1
vt 0 0.984375
vt 0.028125 0.984375
vt 0.028125 1
vt 0 1
vt 0 0.984375
vt 0.15625 0.90625
vt 0.15625 0.921875
vt 0.09375 0.921875
vt 0.09375 0.90625
vt 0.15625 0.90625
vt 0.15625 0.921875
vt 0.09375 0.921875
vt 0.09375 0.90625
vt 0.046875 0.9375
vt 0.046875 1
vt 0 1
vt 0 0.9375
vt 0.046875 0.9375
vt 0.046875 1
vt 0 1
vt 0 0.9375
vt 0.140625 0.90625
vt 0.140625 0.921875
vt 0.09375 0.921875
vt 0.09375 0.90625
vt 0.140625 0.90625
vt 0.140625 0.921875
vt 0.09375 0.921875
vt 0.09375 0.90625
vt 0.15625 0.875
vt 0.15625 0.921875
vt 0.09375 0.921875
vt 0.09375 0.875
vt 0.15625 0.875
vt 0.15625 0.921875
vt 0.09375 0.921875
vt 0.09375 0.875
vt 0.046875 0.9375
vt 0.046875 1
vt 0 1
vt 0 0.9375
vt 0.046875 0.9375
vt 0.046875 1
vt 0 1
vt 0 0.9375
vt 0.140625 0.90625
vt 0.140625 0.921875
vt 0.09375 0.921875
vt 0.09375 0.90625
vt 0.140625 0.90625
vt 0.140625 0.921875
vt 0.09375 0.921875
vt 0.09375 0.90625
vt 0.734375 0.71875
vt 0.734375 0.734375
vt 0.75 0.734375
vt 0.75 0.71875
vt 0.734375 0.71875
vt 0.734375 0.734375
vt 0.75 0.734375
vt 0.75 0.71875
vt 0.5 0.71875
vt 0.5 0.734375
vt 0.609375 0.734375
vt 0.609375 0.71875
vt 0.5 0.71875
vt 0.5 0.734375
vt 0.609375 0.734375
vt 0.609375 0.71875
vt 0.5 0.71875
vt 0.5 0.734375
vt 0.609375 0.734375
vt 0.609375 0.71875
vt 0.5 0.71875
vt 0.5 0.734375
vt 0.609375 0.734375
vt 0.609375 0.71875
vt 0.734375 0.71875
vt 0.734375 0.734375
vt 0.75 0.734375
vt 0.75 0.71875
vt 0.734375 0.71875
vt 0.734375 0.734375
vt 0.75 0.734375
vt 0.75 0.71875
vt 0.5 0.71875
vt 0.5 0.734375
vt 0.609375 0.734375
vt 0.609375 0.71875
vt 0.5 0.71875
vt 0.5 0.734375
vt 0.609375 0.734375
vt 0.609375 0.71875
vt 0.5 0.71875
vt 0.5 0.734375
vt 0.609375 0.734375
vt 0.609375 0.71875
vt 0.5 0.71875
vt 0.5 0.734375
vt 0.609375 0.734375
vt 0.609375 0.71875
vt 0.734375 0.71875
vt 0.734375 0.734375
vt 0.75 0.734375
vt 0.75 0.71875
vt 0.734375 0.71875
vt 0.734375 0.734375
vt 0.75 0.734375
vt 0.75 0.71875
vt 0.5 0.71875
vt 0.5 0.734375
vt 0.609375 0.734375
vt 0.609375 0.71875
vt 0.5 0.71875
vt 0.5 0.734375
vt 0.609375 0.734375
vt 0.609375 0.71875
vt 0.5 0.71875
vt 0.5 0.734375
vt 0.609375 0.734375
vt 0.609375 0.71875
vt 0.5 0.71875
vt 0.5 0.734375
vt 0.609375 0.734375
vt 0.609375 0.71875
vt 0.734375 0.71875
vt 0.734375 0.734375
vt 0.75 0.734375
vt 0.75 0.71875
vt 0.734375 0.71875
vt 0.734375 0.734375
vt 0.75 0.734375
vt 0.75 0.71875
vt 0.5 0.71875
vt 0.5 0.734375
vt 0.609375 0.734375
vt 0.609375 0.71875
vt 0.5 0.71875
vt 0.5 0.734375
vt 0.609375 0.734375
vt 0.609375 0.71875
vt 0.5 0.71875
vt 0.5 0.734375
vt 0.609375 0.734375
vt 0.609375 0.71875
vt 0.5 0.71875
vt 0.5 0.734375
vt 0.609375 0.734375
vt 0.609375 0.71875
vt 0 0.578125
vt 0 0.6875
vt 0.1875 0.6875
vt 0.1875 0.578125
vt 0 0.578125
vt 0 0.6875
vt 0.1875 0.6875
vt 0.1875 0.578125
vt 0 0.5
vt 0 0.6875
vt 0.1875 0.6875
vt 0.1875 0.5
vt 0 0.5
vt 0 0.6875
vt 0.1875 0.6875
vt 0.1875 0.5
vt 0 0.578125
vt 0 0.6875
vt 0.1875 0.6875
vt 0.1875 0.578125
vt 0 0.578125
vt 0 0.6875
vt 0.1875 0.6875
vt 0.1875 0.578125
vt 0.015625 0.984375
vt 0.015625 1
vt 0.140625 1
vt 0.140625 0.984375
vt 0.015625 0.984375
vt 0.015625 1
vt 0.140625 1
vt 0.140625 0.984375
vt 0 0.859375
vt 0 0.984375
vt 0.15625 0.984375
vt 0.15625 0.859375
vt 0 0.859375
vt 0 0.984375
vt 0.15625 0.984375
vt 0.15625 0.859375
vt 0 0.984375
vt 0 1
vt 0.15625 1
vt 0.15625 0.984375
vt 0 0.984375
vt 0 1
vt 0.15625 1
vt 0.15625 0.984375
vt 0.0078125 0.96875
vt 0.0078125 1
vt 0.028125 1
vt 0.028125 0.96875
vt 0 0.96875
vt 0 1
vt 0.0203125 1
vt 0.0203125 0.96875
vt 0 0.971875
vt 0 0.9921875
vt 0.078125 0.9921875
vt 0.078125 0.971875
vt 0 0.9796875
vt 0 1
vt 0.078125 1
vt 0.078125 0.9796875
vt 0 0.96875
vt 0 1
vt 0.078125 1
vt 0.078125 0.96875
vt 0 0.96875
vt 0 1
vt 0.078125 1
vt 0.078125 0.96875
vt 0.0078125 0.96875
vt 0.0078125 1
vt 0.028125 1
vt 0.028125 0.96875
vt 0 0.96875
vt 0 1
vt 0.0203125 1
vt 0.0203125 0.96875
vt 0 0.971875
vt 0 0.9921875
vt 0.078125 0.9921875
vt 0.078125 0.971875
vt 0 0.9796875
vt 0 1
vt 0.078125 1
vt 0.078125 0.9796875
vt 0 0.96875
vt 0 1
vt 0.078125 1
vt 0.078125 0.96875
vt 0 0.96875
vt 0 1
vt 0.078125 1
vt 0.078125 0.96875
vt 0 0.96875
vt 0 1
vt 0.0203125 1
vt 0.0203125 0.96875
vt 0.0078125 0.96875
vt 0.0078125 1
vt 0.028125 1
vt 0.028125 0.96875
vt 0 0.9796875
vt 0 1
vt 0.078125 1
vt 0.078125 0.9796875
vt 0 0.971875
vt 0 0.9921875
vt 0.078125 0.9921875
vt 0.078125 0.971875
vt 0 0.96875
vt 0 1
vt 0.078125 1
vt 0.078125 0.96875
vt 0 0.96875
vt 0 1
vt 0.078125 1
vt 0.078125 0.96875
vt 0 0.96875
vt 0 1
vt 0.0203125 1
vt 0.0203125 0.96875
vt 0.0078125 0.96875
vt 0.0078125 1
vt 0.028125 1
vt 0.028125 0.96875
vt 0 0.9796875
vt 0 1
vt 0.078125 1
vt 0.078125 0.9796875
vt 0 0.971875
vt 0 0.9921875
vt 0.078125 0.9921875
vt 0.078125 0.971875
vt 0 0.96875
vt 0 1
vt 0.078125 1
vt 0.078125 0.96875
vt 0 0.96875
vt 0 1
vt 0.078125 1
vt 0.078125 0.96875
vt 0.4375 0.84375
vt 0.4375 1
vt 0.515625 1
vt 0.515625 0.84375
vt 0.4375 0.84375
vt 0.4375 1
vt 0.515625 1
vt 0.515625 0.84375
vt 0.265625 0.75
vt 0.265625 0.828125
vt 0.390625 0.828125
vt 0.390625 0.75
vt 0.265625 0.75
vt 0.265625 0.828125
vt 0.390625 0.828125
vt 0.390625 0.75
vt 0.265625 0.84375
vt 0.265625 1
vt 0.390625 1
vt 0.390625 0.84375
vt 0.265625 0.84375
vt 0.265625 1
vt 0.390625 1
vt 0.390625 0.84375
vt 0.078125 0.953125
vt 0.078125 1
vt 0.090625 1
vt 0.090625 0.953125
vt 0 0.953125
vt 0 1
vt 0.0125 1
vt 0.0125 0.953125
vt 0 0.909375
vt 0 0.921875
vt 0.078125 0.921875
vt 0.078125 0.909375
vt 0 0.9875
vt 0 1
vt 0.078125 1
vt 0.078125 0.9875
vt 0 0.953125
vt 0 1
vt 0.078125 1
vt 0.078125 0.953125
vt 0 0.953125
vt 0 1
vt 0.078125 1
vt 0.078125 0.953125
vt 0.078125 0.953125
vt 0.078125 1
vt 0.090625 1
vt 0.090625 0.953125
vt 0 0.953125
vt 0 1
vt 0.0125 1
vt 0.0125 0.953125
vt 0 0.909375
vt 0 0.921875
vt 0.078125 0.921875
vt 0.078125 0.909375
vt 0 0.9875
vt 0 1
vt 0.078125 1
vt 0.078125 0.9875
vt 0 0.953125
vt 0 1
vt 0.078125 1
vt 0.078125 0.953125
vt 0 0.953125
vt 0 1
vt 0.078125 1
vt 0.078125 0.953125
vt 0 0.984375
vt 0 1
vt 0.125 1
vt 0.125 0.984375
vt 0 0.984375
vt 0 1
vt 0.125 1
vt 0.125 0.984375
vt 0 0.875
vt 0 1
vt 0.25 1
vt 0.25 0.875
vt 0 0.875
vt 0 1
vt 0.25 1
vt 0.25 0.875
vt 0 0.984375
vt 0 1
vt 0.25 1
vt 0.25 0.984375
vt 0 0.984375
vt 0 1
vt 0.25 1
vt 0.25 0.984375
vt 0.015625 0.96875
vt 0.015625 1
vt 0.109375 1
vt 0.109375 0.96875
vt 0.015625 0.96875
vt 0.015625 1
vt 0.109375 1
vt 0.109375 0.96875
vt 0 0
vt 0 0.09375
vt 0.2109375 0.09375
vt 0.2109375 0
vt 0.015625 0.90625
vt 0.015625 1
vt 0.2265625 1
vt 0.2265625 0.90625
vt 0.0078125 0.96875
vt 0.0078125 1
vt 0.21875 1
vt 0.21875 0.96875
vt 0 0.96875
vt 0 1
vt 0.2109375 1
vt 0.2109375 0.96875
vt 0.015625 0.96875
vt 0.015625 1
vt 0.109375 1
vt 0.109375 0.96875
vt 0.015625 0.96875
vt 0.015625 1
vt 0.109375 1
vt 0.109375 0.96875
vt 0 0
vt 0 0.09375
vt 0.2109375 0.09375
vt 0.2109375 0
vt 0.015625 0.90625
vt 0.015625 1
vt 0.2265625 1
vt 0.2265625 0.90625
vt 0.0078125 0.96875
vt 0.0078125 1
vt 0.21875 1
vt 0.21875 0.96875
vt 0 0.96875
vt 0 1
vt 0.2109375 1
vt 0.2109375 0.96875
vt 0.015625 0.9375
vt 0.015625 0.953125
vt 0.109375 0.953125
vt 0.109375 0.9375
vt 0.015625 0.9375
vt 0.015625 0.953125
vt 0.109375 0.953125
vt 0.109375 0.9375
vt 0 0
vt 0 0.09375
vt 0.2109375 0.09375
vt 0.2109375 0
vt 0 0
vt 0 0.09375
vt 0.2109375 0.09375
vt 0.2109375 0
vt 0.0078125 0.9375
vt 0.0078125 0.953125
vt 0.109375 0.953125
vt 0.109375 0.9375
vt 0 0.9375
vt 0 0.953125
vt 0.1015625 0.953125
vt 0.1015625 0.9375
vt 0 0.9375
vt 0 1
vt 0.03125 1
vt 0.03125 0.9375
vt 0 0.9375
vt 0 1
vt 0.03125 1
vt 0.03125 0.9375
vt 0.015625 0.96875
vt 0.015625 1
vt 0.03125 1
vt 0.03125 0.96875
vt 0.015625 0.96875
vt 0.015625 1
vt 0.03125 1
vt 0.03125 0.96875
vt 0.015625 0.9375
vt 0.015625 1
vt 0.03125 1
vt 0.03125 0.9375
vt 0 0.9375
vt 0 1
vt 0.015625 1
vt 0.015625 0.9375
vt 0.3046875 0.4234375
vt 0.3046875 0.453125
vt 0.3203125 0.453125
vt 0.3203125 0.4234375
vt 0.3046875 0.4234375
vt 0.3046875 0.453125
vt 0.3203125 0.453125
vt 0.3203125 0.4234375
vt 0.31640625 0.4296875
vt 0.31640625 0.4453125
vt 0.328125 0.4453125
vt 0.328125 0.4296875
vt 0.31640625 0.4296875
vt 0.31640625 0.4453125
vt 0.328125 0.4453125
vt 0.328125 0.4296875
vt 0.31640625 0.4234375
vt 0.31640625 0.453125
vt 0.328125 0.453125
vt 0.328125 0.4234375
vt 0.296875 0.4234375
vt 0.296875 0.453125
vt 0.30859375 0.453125
vt 0.30859375 0.4234375
vt 0.3046875 0.4375
vt 0.3046875 0.44921875
vt 0.3203125 0.44921875
vt 0.3203125 0.4375
vt 0.3046875 0.4375
vt 0.3046875 0.44921875
vt 0.3203125 0.44921875
vt 0.3203125 0.4375
vt 0.296875 0.4296875
vt 0.296875 0.4453125
vt 0.34765625 0.4453125
vt 0.34765625 0.4296875
vt 0.296875 0.4296875
vt 0.296875 0.4453125
vt 0.34765625 0.4453125
vt 0.34765625 0.4296875
vt 0.296875 0.4375
vt 0.296875 0.44921875
vt 0.34765625 0.44921875
vt 0.34765625 0.4375
vt 0.3046875 0.4375
vt 0.3046875 0.44921875
vt 0.35546875 0.44921875
vt 0.35546875 0.4375
vt 0 0.875
vt 0 0.9375
vt 1 0.9375
vt 1 0.875
vt 0 0.875
vt 0 0.9375
vt 1 0.9375
vt 1 0.875
vt 0.0625 0
vt 0.0625 1
vt 0.9375 1
vt 0.9375 0
vt 0.0625 0
vt 0.0625 1
vt 0.9375 1
vt 0.9375 0
vt 0.0625 0.875
vt 0.0625 0.9375
vt 0.9375 0.9375
vt 0.9375 0.875
vt 0.0625 0.875
vt 0.0625 0.9375
vt 0.9375 0.9375
vt 0.9375 0.875
vt 0 0.90625
vt 0 0.9375
vt 0.5 0.9375
vt 0.5 0.90625
vt 0.5 0.90625
vt 0.5 0.9375
vt 1 0.9375
vt 1 0.90625
vt 0.96875 0.5
vt 0.96875 1
vt 1 1
vt 1 0.5
vt 0.96875 0
vt 0.96875 0.5
vt 1 0.5
vt 1 0
vt 0.96875 0.90625
vt 0.96875 0.9375
vt 1 0.9375
vt 1 0.90625
vt 0 0.90625
vt 0 0.9375
vt 0.03125 0.9375
vt 0.03125 0.90625
vt 0 0.90625
vt 0 0.9375
vt 0.5 0.9375
vt 0.5 0.90625
vt 0.5 0.90625
vt 0.5 0.9375
vt 1 0.9375
vt 1 0.90625
vt 0.96875 0.5
vt 0.96875 1
vt 1 1
vt 1 0.5
vt 0.96875 0
vt 0.96875 0.5
vt 1 0.5
vt 1 0
vt 0.96875 0.90625
vt 0.96875 0.9375
vt 1 0.9375
vt 1 0.90625
vt 0 0.90625
vt 0 0.9375
vt 0.03125 0.9375
vt 0.03125 0.90625
vt 0.9375 0.875
vt 0.9375 0.9375
vt 1 0.9375
vt 1 0.875
vt 0 0.875
vt 0 0.9375
vt 0.0625 0.9375
vt 0.0625 0.875
vt 0.125 0
vt 0.125 0.0625
vt 1 0.0625
vt 1 0
vt 0.125 0.9375
vt 0.125 1
vt 1 1
vt 1 0.9375
vt 0.125 0.875
vt 0.125 0.9375
vt 1 0.9375
vt 1 0.875
vt 0 0.875
vt 0 0.9375
vt 0.875 0.9375
vt 0.875 0.875
vt 0.9375 0.90625
vt 0.9375 0.9375
vt 0.96875 0.9375
vt 0.96875 0.90625
vt 0.03125 0.90625
vt 0.03125 0.9375
vt 0.0625 0.9375
vt 0.0625 0.90625
vt 0.1875 0.03125
vt 0.1875 0.0625
vt 1 0.0625
vt 1 0.03125
vt 0.1875 0.9375
vt 0.1875 0.96875
vt 1 0.96875
vt 1 0.9375
vt 0.1875 0.90625
vt 0.1875 0.9375
vt 1 0.9375
vt 1 0.90625
vt 0 0.90625
vt 0 0.9375
vt 0.8125 0.9375
vt 0.8125 0.90625
vt 0.9375 0.90625
vt 0.9375 0.9375
vt 0.96875 0.9375
vt 0.96875 0.90625
vt 0.03125 0.90625
vt 0.03125 0.9375
vt 0.0625 0.9375
vt 0.0625 0.90625
vt 0.1875 0.03125
vt 0.1875 0.0625
vt 1 0.0625
vt 1 0.03125
vt 0.1875 0.9375
vt 0.1875 0.96875
vt 1 0.96875
vt 1 0.9375
vt 0.1875 0.90625
vt 0.1875 0.9375
vt 1 0.9375
vt 1 0.90625
vt 0 0.90625
vt 0 0.9375
vt 0.8125 0.9375
vt 0.8125 0.90625
vt 0.96875 0.90625
vt 0.96875 0.9375
vt 1 0.9375
vt 1 0.90625
vt 0 0.90625
vt 0 0.9375
vt 0.03125 0.9375
vt 0.03125 0.90625
vt 0.625 0
vt 0.625 0.03125
vt 1 0.03125
vt 1 0
vt 0.625 0.96875
vt 0.625 1
vt 1 1
vt 1 0.96875
vt 0.625 0.90625
vt 0.625 0.9375
vt 1 0.9375
vt 1 0.90625
vt 0 0.90625
vt 0 0.9375
vt 0.375 0.9375
vt 0.375 0.90625
vt 0.96875 0.90625
vt 0.96875 0.9375
vt 1 0.9375
vt 1 0.90625
vt 0 0.90625
vt 0 0.9375
vt 0.03125 0.9375
vt 0.03125 0.90625
vt 0.625 0
vt 0.625 0.03125
vt 1 0.03125
vt 1 0
vt 0.625 0.96875
vt 0.625 1
vt 1 1
vt 1 0.96875
vt 0.625 0.90625
vt 0.625 0.9375
vt 1 0.9375
vt 1 0.90625
vt 0 0.90625
vt 0 0.9375
vt 0.375 0.9375
vt 0.375 0.90625
vt 0.9375 0
vt 0.9375 0.9375
vt 0.96875 0.9375
vt 0.96875 0
vt 0.03125 0
vt 0.03125 0.9375
vt 0.0625 0.9375
vt 0.0625 0
vt 0.25 0.03125
vt 0.25 0.0625
vt 0.28125 0.0625
vt 0.28125 0.03125
vt 0.25 0.9375
vt 0.25 0.96875
vt 0.28125 0.96875
vt 0.28125 0.9375
vt 0.25 0
vt 0.25 0.9375
vt 0.28125 0.9375
vt 0.28125 0
vt 0.71875 0
vt 0.71875 0.9375
vt 0.75 0.9375
vt 0.75 0
vt 0.9375 0
vt 0.9375 0.9375
vt 0.96875 0.9375
vt 0.96875 0
vt 0.03125 0
vt 0.03125 0.9375
vt 0.0625 0.9375
vt 0.0625 0
vt 0.28125 0.03125
vt 0.28125 0.0625
vt 0.3125 0.0625
vt 0.3125 0.03125
vt 0.28125 0.9375
vt 0.28125 0.96875
vt 0.3125 0.96875
vt 0.3125 0.9375
vt 0.28125 0
vt 0.28125 0.9375
vt 0.3125 0.9375
vt 0.3125 0
vt 0.6875 0
vt 0.6875 0.9375
vt 0.71875 0.9375
vt 0.71875 0
vt 0.96875 0
vt 0.96875 0.9375
vt 1 0.9375
vt 1 0
vt 0 0
vt 0 0.9375
vt 0.03125 0.9375
vt 0.03125 0
vt 0.28125 0
vt 0.28125 0.03125
vt 0.3125 0.03125
vt 0.3125 0
vt 0.28125 0.96875
vt 0.28125 1
vt 0.3125 1
vt 0.3125 0.96875
vt 0.28125 0
vt 0.28125 0.9375
vt 0.3125 0.9375
vt 0.3125 0
vt 0.6875 0
vt 0.6875 0.9375
vt 0.71875 0.9375
vt 0.71875 0
vt 0.96875 0
vt 0.96875 0.9375
vt 1 0.9375
vt 1 0
vt 0 0
vt 0 0.9375
vt 0.03125 0.9375
vt 0.03125 0
vt 0.25 0
vt 0.25 0.03125
vt 0.28125 0.03125
vt 0.28125 0
vt 0.25 0.96875
vt 0.25 1
vt 0.28125 1
vt 0.28125 0.96875
vt 0.25 0
vt 0.25 0.9375
vt 0.28125 0.9375
vt 0.28125 0
vt 0.71875 0
vt 0.71875 0.9375
vt 0.75 0.9375
vt 0.75 0
vt 0.96875 0
vt 0.96875 0.9375
vt 1 0.9375
vt 1 0
vt 0 0
vt 0 0.9375
vt 0.03125 0.9375
vt 0.03125 0
vt 0.28125 0
vt 0.28125 0.03125
vt 0.3125 0.03125
vt 0.3125 0
vt 0.28125 0.96875
vt 0.28125 1
vt 0.3125 1
vt 0.3125 0.96875
vt 0.28125 0
vt 0.28125 0.9375
vt 0.3125 0.9375
vt 0.3125 0
vt 0.6875 0
vt 0.6875 0.9375
vt 0.71875 0.9375
vt 0.71875 0
vt 0.96875 0
vt 0.96875 0.9375
vt 1 0.9375
vt 1 0
vt 0 0
vt 0 0.9375
vt 0.03125 0.9375
vt 0.03125 0
vt 0.25 0
vt 0.25 0.03125
vt 0.28125 0.03125
vt 0.28125 0
vt 0.25 0.96875
vt 0.25 1
vt 0.28125 1
vt 0.28125 0.96875
vt 0.25 0
vt 0.25 0.9375
vt 0.28125 0.9375
vt 0.28125 0
vt 0.71875 0
vt 0.71875 0.9375
vt 0.75 0.9375
vt 0.75 0
vt 0 0.90625
vt 0 0.9375
vt 1 0.9375
vt 1 0.90625
vt 0 0.90625
vt 0 0.9375
vt 1 0.9375
vt 1 0.90625
vt 0.25 0
vt 0.25 1
vt 0.28125 1
vt 0.28125 0
vt 0.25 0
vt 0.25 1
vt 0.28125 1
vt 0.28125 0
vt 0.25 0.90625
vt 0.25 0.9375
vt 0.28125 0.9375
vt 0.28125 0.90625
vt 0.71875 0.90625
vt 0.71875 0.9375
vt 0.75 0.9375
vt 0.75 0.90625
vt 0 0.90625
vt 0 0.9375
vt 1 0.9375
vt 1 0.90625
vt 0 0.90625
vt 0 0.9375
vt 1 0.9375
vt 1 0.90625
vt 0.25 0
vt 0.25 1
vt 0.28125 1
vt 0.28125 0
vt 0.25 0
vt 0.25 1
vt 0.28125 1
vt 0.28125 0
vt 0.25 0.90625
vt 0.25 0.9375
vt 0.28125 0.9375
vt 0.28125 0.90625
vt 0.71875 0.90625
vt 0.71875 0.9375
vt 0.75 0.9375
vt 0.75 0.90625
vt 0.5 0.875
vt 0.5 0.9375
vt 1 0.9375
vt 1 0.875
vt 0 0.875
vt 0 0.9375
vt 0.5 0.9375
vt 0.5 0.875
vt 0.03125 0
vt 0.03125 0.5
vt 0.21875 0.5
vt 0.21875 0
vt 0.03125 0.5
vt 0.03125 1
vt 0.21875 1
vt 0.21875 0.5
vt 0.03125 0.875
vt 0.03125 0.9375
vt 0.21875 0.9375
vt 0.21875 0.875
vt 0.40625 0.875
vt 0.40625 0.9375
vt 0.59375 0.9375
vt 0.59375 0.875
vt 0.5 0.8125
vt 0.5 0.9375
vt 1 0.9375
vt 1 0.8125
vt 0 0.8125
vt 0 0.9375
vt 0.5 0.9375
vt 0.5 0.8125
vt 0.15625 0
vt 0.15625 0.5
vt 0.21875 0.5
vt 0.21875 0
vt 0.15625 0.5
vt 0.15625 1
vt 0.21875 1
vt 0.21875 0.5
vt 0.15625 0.8125
vt 0.15625 0.9375
vt 0.21875 0.9375
vt 0.21875 0.8125
vt 0.40625 0.8125
vt 0.40625 0.9375
vt 0.46875 0.9375
vt 0.46875 0.8125
vt 0.09375 0
vt 0.09375 1
vt 0.125 1
vt 0.125 0
vt 0 0
vt 0 1
vt 0.03125 1
vt 0.03125 0
vt 0 0.875
vt 0 0.90625
vt 0.125 0.90625
vt 0.125 0.875
vt 0 0.96875
vt 0 1
vt 0.125 1
vt 0.125 0.96875
vt 0 0
vt 0 1
vt 0.125 1
vt 0.125 0
vt 0 0
vt 0 1
vt 0.125 1
vt 0.125 0
vn -1 0 0
vn 1 0 0
vn 0 1 0
vn 0 0 1
vn 0 -0.44721359549995804 -0.8944271909999161
vn -1 0 0
vn 1 0 0
vn 0 1 0
vn 0 0 1
vn 0 -0.44721359549995804 -0.8944271909999161
vn -1 0 0
vn 1 0 0
vn 0 1 0
vn 0 0 1
vn 0 -0.44721359549995804 -0.8944271909999161
vn -1 0 0
vn 1 0 0
vn 0 1 0
vn 0 0 1
vn 0 -0.44721359549995804 -0.8944271909999161
vn -1 0 0
vn 1 0 0
vn 0 1 0
vn 0 0 1
vn 0 -0.44721359549995804 -0.8944271909999161
vn -1 0 0
vn 1 0 0
vn 0 1 0
vn 0 0 -1
vn 0 -0.44721359549995804 0.8944271909999161
vn -1 0 0
vn 1 0 0
vn 0 1 0
vn 0 0 -1
vn 0 -0.44721359549995804 0.8944271909999161
vn -1 0 0
vn 1 0 0
vn 0 1 0
vn 0 0 -1
vn 0 -0.44721359549995804 0.8944271909999161
vn -1 0 0
vn 1 0 0
vn -0.10748184298009181 0.9942070475658493 0
vn 0.10748184298009181 -0.9942070475658493 0
vn 0 0 1
vn 0 0 -1
vn -1 0 0
vn 1 0 0
vn -0.316227766016838 0.948683298050514 0
vn 0.316227766016838 -0.948683298050514 0
vn 0 0 1
vn 0 0 -1
vn 0 1 0
vn 1 0 0
vn 0.7071067811865476 0.7071067811865476 0
vn -0.7071067811865476 -0.7071067811865476 0
vn 0 0 1
vn 0 0 -1
vn -0.894427190999916 -0.447213595499958 0
vn 0.894427190999916 0.447213595499958 0
vn 0 1 0
vn 0 -1 0
vn 0 0 1
vn 0 0 -1
vn -0.894427190999916 0.447213595499958 0
vn 0.894427190999916 -0.447213595499958 0
vn 0 -1 0
vn 0 0 1
vn 0 0 -1
vn 0 1 0
vn -0.8944271909999161 0.44721359549995804 0
vn 0.8944271909999161 -0.44721359549995804 0
vn 0 -1 0
vn 0 0 1
vn 0 0 -1
vn 0 1 0
vn -0.8944271909999161 -0.44721359549995804 0
vn 0.8944271909999161 0.44721359549995804 0
vn 0 1 0
vn 0 -1 0
vn 0 0 1
vn 0 0 -1
vn 1 0 0
vn -1 0 0
vn 0 1 0
vn 0 -1 0
vn 0 0 1
vn 0 0 -1
vn 1 0 0
vn -1 0 0
vn 0 1 0
vn 0 -1 0
vn 0 0 1
vn 0 0 -1
vn 1 0 0
vn -1 0 0
vn 0 1 0
vn 0 -1 0
vn 0 0 1
vn 0 0 -1
vn 1 0 0
vn -1 0 0
vn 0 1 0
vn 0 -1 0
vn 0 0 1
vn 0 0 -1
vn 1 0 0
vn -1 0 0
vn 0 1 0
vn 0 -1 0
vn 0 0 1
vn 0 0 -1
vn 1 0 0
vn -1 0 0
vn 0 1 0
vn 0 -1 0
vn 0 0 1
vn 0 0 -1
vn 1 0 0
vn -1 0 0
vn 0 1 0
vn 0 -1 0
vn 0 0 1
vn 0 0 -1
vn 1 0 0
vn -1 0 0
vn 0 1 0
vn 0 -1 0
vn 0 0 1
vn 0 0 -1
vn 1 0 0
vn -1 0 0
vn 0 1 0
vn 0 -1 0
vn 0 0 1
vn 0 0 -1
vn 1 0 0
vn -1 0 0
vn 0 1 0
vn 0 -1 0
vn 0 0 1
vn 0 0 -1
vn 1 0 0
vn -1 0 0
vn 0 1 0
vn 0 -1 0
vn 0 0 1
vn 0 0 -1
vn 1 0 0
vn -1 0 0
vn 0 1 0
vn 0 -1 0
vn 0 0 1
vn 0 0 -1
vn 1 0 0
vn -1 0 0
vn 0 1 0
vn 0 -1 0
vn 0 0 1
vn 0 0 -1
vn 1 0 0
vn -1 0 0
vn 0 1 0
vn 0 -1 0
vn 0 0 1
vn 0 0 -1
vn 1 0 0
vn -1 0 0
vn 0 1 0
vn 0 -1 0
vn 0 0 1
vn 0 0 -1
vn 1 0 0
vn -1 0 0
vn 0 1 0
vn 0 -1 0
vn 0 0 1
vn 0 0 -1
vn 1 0 0
vn -1 0 0
vn 0 1 0
vn 0 -1 0
vn 0 0 1
vn 0 0 -1
vn 1 0 0
vn -1 0 0
vn 0 1 0
vn 0 -1 0
vn 0 0 1
vn 0 0 -1
vn 1 0 0
vn -1 0 0
vn 0 1 0
vn 0 -1 0
vn 0 0 1
vn 0 0 -1
vn 1 0 0
vn -1 0 0
vn 0 1 0
vn 0 -1 0
vn 0 0 1
vn 0 0 -1
vn 1 0 0
vn -1 0 0
vn 0 1 0
vn 0 -1 0
vn 0 0 1
vn 0 0 -1
vn 1 0 0
vn -1 0 0
vn 0 1 0
vn 0 -1 0
vn 0 0 1
vn 0 0 -1
vn 1 0 0
vn -1 0 0
vn 0 1 0
vn 0 -1 0
vn 0 0 1
vn 0 0 -1
vn 1 0 0
vn -1 0 0
vn 0 1 0
vn 0 -1 0
vn 0 0 1
vn 0 0 -1
vn 0.7071067811865492 -0.7071067811865458 0
vn -0.7071067811865492 0.7071067811865458 0
vn 0.7071067811865476 0.7071067811865476 0
vn -0.7071067811865476 -0.7071067811865476 0
vn 0 0 1
vn 0 0 -1
vn 0.7071067811865466 0.7071067811865485 0
vn -0.7071067811865471 -0.7071067811865479 0
vn -0.7071067811865476 0.7071067811865476 0
vn 0.7071067811865474 -0.7071067811865477 0
vn 0 0 1
vn 0 0 -1
vn 0.7071067811865467 0.7071067811865483 0
vn -0.7071067811865471 -0.707106781186548 0
vn -0.7071067811865476 0.7071067811865476 0
vn 0.7071067811865474 -0.7071067811865477 0
vn 0 0 1
vn 0 0 -1
vn 0.7071067811865493 -0.7071067811865458 0
vn -0.7071067811865493 0.7071067811865458 0
vn 0.7071067811865476 0.7071067811865476 0
vn -0.7071067811865476 -0.7071067811865476 0
vn 0 0 1
vn 0 0 -1
vn 1 0 0
vn -1 0 0
vn 0 1 0
vn 0 -1 0
vn 0 0 1
vn 0 0 -1
vn 0.7071067811865469 -0.7071067811865481 0
vn -0.7071067811865469 0.7071067811865481 0
vn 0.7071067811865476 0.7071067811865476 0
vn -0.7071067811865476 -0.7071067811865476 0
vn 0 0 1
vn 0 0 -1
vn 0.7071067811865469 -0.7071067811865481 0
vn -0.7071067811865469 0.7071067811865481 0
vn 0.7071067811865476 0.7071067811865476 0
vn -0.7071067811865476 -0.7071067811865476 0
vn 0 0 1
vn 0 0 -1
vn 1 0 0
vn -1 0 0
vn 0 1 0
vn 0 -1 0
vn 0 0 1
vn 0 0 -1
vn 1 0 0
vn -1 0 0
vn 0 1 0
vn 0 -1 0
vn 0 0 1
vn 0 0 -1
vn 1 0 0
vn -1 0 0
vn 0 1 0
vn 0 -1 0
vn 0 0 1
vn 0 0 -1
vn 1 0 0
vn -1 0 0
vn 0 1 0
vn 0 -1 0
vn 0 0 1
vn 0 0 -1
vn 1 0 0
vn -1 0 0
vn 0 1 0
vn 0 -1 0
vn 0 0 1
vn 0 0 -1
vn 1 0 0
vn -1 0 0
vn 0 1 0
vn 0 -1 0
vn 0 0 1
vn 0 0 -1
vn 1 0 0
vn -1 0 0
vn 0 1 0
vn 0 -1 0
vn 0 0 1
vn 0 0 -1
vn 1 0 0
vn -1 0 0
vn 0 1 0
vn 0 -1 0
vn 0 0 1
vn 0 0 -1
vn 1 0 0
vn -1 0 0
vn 0 1 0
vn 0 -1 0
vn 0 0 1
vn 0 0 -1
vn 1 0 0
vn -1 0 0
vn 0 1 0
vn 0 -1 0
vn 0 0 1
vn 0 0 -1
vn 1 0 0
vn -1 0 0
vn 0 1 0
vn 0 -1 0
vn 0 0 1
vn 0 0 -1
vn 1 0 0
vn -1 0 0
vn 0 1 0
vn 0 -1 0
vn 0 0 1
vn 0 0 -1
vn 1 0 0
vn -1 0 0
vn 0 1 0
vn 0 -1 0
vn 0 0 1
vn 0 0 -1
vn 1 0 0
vn -1 0 0
vn 0 1 0
vn 0 -1 0
vn 0 0 1
vn 0 0 -1
vn 1 0 0
vn -1 0 0
vn 0 1 0
vn 0 -1 0
vn 0 0 1
vn 0 0 -1
vn 1 0 0
vn -1 0 0
vn 0 1 0
vn 0 -1 0
vn 0 0 1
vn 0 0 -1
vn 1 0 0
vn -1 0 0
vn 0 1 0
vn 0 -1 0
vn 0 0 1
vn 0 0 -1
vn 1 0 0
vn -1 0 0
vn 0 1 0
vn 0 -1 0
vn 0 0 1
vn 0 0 -1
vn 1 0 0
vn -1 0 0
vn 0 1 0
vn 0 -1 0
vn 0 0 1
vn 0 0 -1
vn 1 0 0
vn -1 0 0
vn 0 1 0
vn 0 -1 0
vn 0 0 1
vn 0 0 -1
vn 1 0 0
vn -1 0 0
vn 0 1 0
vn 0 -1 0
vn 0 0 1
vn 0 0 -1
vn 1 0 0
vn -1 0 0
vn 0 1 0
vn 0 -1 0
vn 0 0 1
vn 0 0 -1
vn 1 0 0
vn -1 0 0
vn 0 1 0
vn 0 -1 0
vn 0 0 1
vn 0 0 -1
vn 1 0 0
vn -1 0 0
vn 0 1 0
vn 0 -1 0
vn 0 0 1
vn 0 0 -1
vn 1 0 0
vn -1 0 0
vn 0 1 0
vn 0 -1 0
vn 0 0 1
vn 0 0 -1
vn 1 0 0
vn -1 0 0
vn 0 1 0
vn 0 -1 0
vn 0 0 1
vn 0 0 -1
usemtl m_3d215661-f591-00a8-53e2-d8d611c756be
f 1/1/1 2/2/1 3/3/1
f 5/4/2 4/5/2 6/6/2
f 5/7/3 2/8/3 1/9/3 4/10/3
f 4/11/4 1/12/4 3/13/4 6/14/4
f 2/15/5 5/16/5 6/17/5 3/18/5
f 7/19/6 8/20/6 9/21/6
f 11/22/7 10/23/7 12/24/7
f 11/25/8 8/26/8 7/27/8 10/28/8
f 10/29/9 7/30/9 9/31/9 12/32/9
f 8/33/10 11/34/10 12/35/10 9/36/10
f 13/37/11 14/38/11 15/39/11
f 17/40/12 16/41/12 18/42/12
f 17/43/13 14/44/13 13/45/13 16/46/13
f 16/47/14 13/48/14 15/49/14 18/50/14
f 14/51/15 17/52/15 18/53/15 15/54/15
f 19/55/16 20/56/16 21/57/16
f 23/58/17 22/59/17 24/60/17
f 23/61/18 20/62/18 19/63/18 22/64/18
f 22/65/19 19/66/19 21/67/19 24/68/19
f 20/69/20 23/70/20 24/71/20 21/72/20
f 25/73/21 26/74/21 27/75/21
f 29/76/22 28/77/22 30/78/22
f 29/79/23 26/80/23 25/81/23 28/82/23
f 28/83/24 25/84/24 27/85/24 30/86/24
f 26/87/25 29/88/25 30/89/25 27/90/25
f 32/91/26 31/92/26 33/93/26
f 34/94/27 35/95/27 36/96/27
f 31/97/28 32/98/28 35/99/28 34/100/28
f 33/101/29 31/102/29 34/103/29 36/104/29
f 36/105/30 35/106/30 32/107/30 33/108/30
f 38/109/31 37/110/31 39/111/31
f 40/112/32 41/113/32 42/114/32
f 37/115/33 38/116/33 41/117/33 40/118/33
f 39/119/34 37/120/34 40/121/34 42/122/34
f 42/123/35 41/124/35 38/125/35 39/126/35
f 44/127/36 43/128/36 45/129/36
f 46/130/37 47/131/37 48/132/37
f 43/133/38 44/134/38 47/135/38 46/136/38
f 45/137/39 43/138/39 46/139/39 48/140/39
f 48/141/40 47/142/40 44/143/40 45/144/40
f 49/145/41 50/146/41 52/147/41 51/148/41
f 54/149/42 53/150/42 55/151/42 56/152/42
f 54/153/43 50/154/43 49/155/43 53/156/43
f 55/157/44 51/158/44 52/159/44 56/160/44
f 53/161/45 49/162/45 51/163/45 55/164/45
f 50/165/46 54/166/46 56/167/46 52/168/46
f 57/169/47 58/170/47 60/171/47 59/172/47
f 62/173/48 61/174/48 63/175/48 64/176/48
f 62/177/49 58/178/49 57/179/49 61/180/49
f 63/181/50 59/182/50 60/183/50 64/184/50
f 61/185/51 57/186/51 59/187/51 63/188/51
f 58/189/52 62/190/52 64/191/52 60/192/52
f 65/193/53 66/194/53 68/195/53 67/196/53
f 70/197/54 69/198/54 71/199/54 72/200/54
f 70/201/55 66/202/55 65/203/55 69/204/55
f 71/205/56 67/206/56 68/207/56 72/208/56
f 69/209/57 65/210/57 67/211/57 71/212/57
f 66/213/58 70/214/58 72/215/58 68/216/58
f 73/217/59 74/218/59 76/219/59 75/220/59
f 78/221/60 77/222/60 79/223/60 80/224/60
f 78/225/61 74/226/61 73/227/61 77/228/61
f 79/229/62 75/230/62 76/231/62 80/232/62
f 77/233/63 73/234/63 75/235/63 79/236/63
f 74/237/64 78/238/64 80/239/64 76/240/64
f 81/241/65 82/242/65 84/243/65 83/244/65
f 88/245/66 87/246/66 85/247/66 86/248/66
f 85/249/67 83/250/67 84/251/67 86/252/67
f 87/253/68 81/254/68 83/255/68 85/256/68
f 82/257/69 88/258/69 86/259/69 84/260/69
f 88/261/70 82/262/70 81/263/70 87/264/70
f 89/265/71 90/266/71 92/267/71 91/268/71
f 96/269/72 95/270/72 93/271/72 94/272/72
f 93/273/73 91/274/73 92/275/73 94/276/73
f 95/277/74 89/278/74 91/279/74 93/280/74
f 90/281/75 96/282/75 94/283/75 92/284/75
f 96/285/76 90/286/76 89/287/76 95/288/76
f 97/289/77 98/290/77 100/291/77 99/292/77
f 102/293/78 101/294/78 103/295/78 104/296/78
f 102/297/79 98/298/79 97/299/79 101/300/79
f 103/301/80 99/302/80 100/303/80 104/304/80
f 101/305/81 97/306/81 99/307/81 103/308/81
f 98/309/82 102/310/82 104/311/82 100/312/82
f 108/313/83 106/314/83 105/315/83 107/316/83
f 111/317/84 109/318/84 110/319/84 112/320/84
f 105/321/85 106/322/85 110/323/85 109/324/85
f 108/325/86 107/326/86 111/327/86 112/328/86
f 107/329/87 105/330/87 109/331/87 111/332/87
f 112/333/88 110/334/88 106/335/88 108/336/88
f 116/337/89 114/338/89 113/339/89 115/340/89
f 119/341/90 117/342/90 118/343/90 120/344/90
f 113/345/91 114/346/91 118/347/91 117/348/91
f 116/349/92 115/350/92 119/351/92 120/352/92
f 115/353/93 113/354/93 117/355/93 119/356/93
f 120/357/94 118/358/94 114/359/94 116/360/94
f 124/361/95 122/362/95 121/363/95 123/364/95
f 127/365/96 125/366/96 126/367/96 128/368/96
f 121/369/97 122/370/97 126/371/97 125/372/97
f 124/373/98 123/374/98 127/375/98 128/376/98
f 123/377/99 121/378/99 125/379/99 127/380/99
f 128/381/100 126/382/100 122/383/100 124/384/100
f 132/385/101 130/386/101 129/387/101 131/388/101
f 135/389/102 133/390/102 134/391/102 136/392/102
f 129/393/103 130/394/103 134/395/103 133/396/103
f 132/397/104 131/398/104 135/399/104 136/400/104
f 131/401/105 129/402/105 133/403/105 135/404/105
f 136/405/106 134/406/106 130/407/106 132/408/106
f 140/409/107 138/410/107 137/411/107 139/412/107
f 143/413/108 141/414/108 142/415/108 144/416/108
f 137/417/109 138/418/109 142/419/109 141/420/109
f 140/421/110 139/422/110 143/423/110 144/424/110
f 139/425/111 137/426/111 141/427/111 143/428/111
f 144/429/112 142/430/112 138/431/112 140/432/112
f 148/433/113 146/434/113 145/435/113 147/436/113
f 151/437/114 149/438/114 150/439/114 152/440/114
f 145/441/115 146/442/115 150/443/115 149/444/115
f 148/445/116 147/446/116 151/447/116 152/448/116
f 147/449/117 145/450/117 149/451/117 151/452/117
f 152/453/118 150/454/118 146/455/118 148/456/118
f 156/457/119 154/458/119 153/459/119 155/460/119
f 159/461/120 157/462/120 158/463/120 160/464/120
f 153/465/121 154/466/121 158/467/121 157/468/121
f 156/469/122 155/470/122 159/471/122 160/472/122
f 155/473/123 153/474/123 157/475/123 159/476/123
f 160/477/124 158/478/124 154/479/124 156/480/124
f 164/481/125 162/482/125 161/483/125 163/484/125
f 167/485/126 165/486/126 166/487/126 168/488/126
f 161/489/127 162/490/127 166/491/127 165/492/127
f 164/493/128 163/494/128 167/495/128 168/496/128
f 163/497/129 161/498/129 165/499/129 167/500/129
f 168/501/130 166/502/130 162/503/130 164/504/130
f 172/505/131 170/506/131 169/507/131 171/508/131
f 175/509/132 173/510/132 174/511/132 176/512/132
f 169/513/133 170/514/133 174/515/133 173/516/133
f 172/517/134 171/518/134 175/519/134 176/520/134
f 171/521/135 169/522/135 173/523/135 175/524/135
f 176/525/136 174/526/136 170/527/136 172/528/136
f 180/529/137 178/530/137 177/531/137 179/532/137
f 183/533/138 181/534/138 182/535/138 184/536/138
f 177/537/139 178/538/139 182/539/139 181/540/139
f 180/541/140 179/542/140 183/543/140 184/544/140
f 179/545/141 177/546/141 181/547/141 183/548/141
f 184/549/142 182/550/142 178/551/142 180/552/142
f 188/553/143 186/554/143 185/555/143 187/556/143
f 191/557/144 189/558/144 190/559/144 192/560/144
f 185/561/145 186/562/145 190/563/145 189/564/145
f 188/565/146 187/566/146 191/567/146 192/568/146
f 187/569/147 185/570/147 189/571/147 191/572/147
f 192/573/148 190/574/148 186/575/148 188/576/148
f 196/577/149 194/578/149 193/579/149 195/580/149
f 199/581/150 197/582/150 198/583/150 200/584/150
f 193/585/151 194/586/151 198/587/151 197/588/151
f 196/589/152 195/590/152 199/591/152 200/592/152
f 195/593/153 193/594/153 197/595/153 199/596/153
f 200/597/154 198/598/154 194/599/154 196/600/154
f 204/601/155 202/602/155 201/603/155 203/604/155
f 207/605/156 205/606/156 206/607/156 208/608/156
f 201/609/157 202/610/157 206/611/157 205/612/157
f 204/613/158 203/614/158 207/615/158 208/616/158
f 203/617/159 201/618/159 205/619/159 207/620/159
f 208/621/160 206/622/160 202/623/160 204/624/160
f 212/625/161 210/626/161 209/627/161 211/628/161
f 215/629/162 213/630/162 214/631/162 216/632/162
f 209/633/163 210/634/163 214/635/163 213/636/163
f 212/637/164 211/638/164 215/639/164 216/640/164
f 211/641/165 209/642/165 213/643/165 215/644/165
f 216/645/166 214/646/166 210/647/166 212/648/166
f 220/649/167 218/650/167 217/651/167 219/652/167
f 223/653/168 221/654/168 222/655/168 224/656/168
f 217/657/169 218/658/169 222/659/169 221/660/169
f 220/661/170 219/662/170 223/663/170 224/664/170
f 219/665/171 217/666/171 221/667/171 223/668/171
f 224/669/172 222/670/172 218/671/172 220/672/172
f 228/673/173 226/674/173 225/675/173 227/676/173
f 231/677/174 229/678/174 230/679/174 232/680/174
f 225/681/175 226/682/175 230/683/175 229/684/175
f 228/685/176 227/686/176 231/687/176 232/688/176
f 227/689/177 225/690/177 229/691/177 231/692/177
f 232/693/178 230/694/178 226/695/178 228/696/178
f 236/697/179 234/698/179 233/699/179 235/700/179
f 239/701/180 237/702/180 238/703/180 240/704/180
f 233/705/181 234/706/181 238/707/181 237/708/181
f 236/709/182 235/710/182 239/711/182 240/712/182
f 235/713/183 233/714/183 237/715/183 239/716/183
f 240/717/184 238/718/184 234/719/184 236/720/184
f 244/721/185 242/722/185 241/723/185 243/724/185
f 247/725/186 245/726/186 246/727/186 248/728/186
f 241/729/187 242/730/187 246/731/187 245/732/187
f 244/733/188 243/734/188 247/735/188 248/736/188
f 243/737/189 241/738/189 245/739/189 247/740/189
f 248/741/190 246/742/190 242/743/190 244/744/190
f 252/745/191 250/746/191 249/747/191 251/748/191
f 255/749/192 253/750/192 254/751/192 256/752/192
f 249/753/193 250/754/193 254/755/193 253/756/193
f 252/757/194 251/758/194 255/759/194 256/760/194
f 251/761/195 249/762/195 253/763/195 255/764/195
f 256/765/196 254/766/196 250/767/196 252/768/196
f 260/769/197 258/770/197 257/771/197 259/772/197
f 263/773/198 261/774/198 262/775/198 264/776/198
f 257/777/199 258/778/199 262/779/199 261/780/199
f 260/781/200 259/782/200 263/783/200 264/784/200
f 259/785/201 257/786/201 261/787/201 263/788/201
f 264/789/202 262/790/202 258/791/202 260/792/202
f 268/793/203 266/794/203 265/795/203 267/796/203
f 271/797/204 269/798/204 270/799/204 272/800/204
f 265/801/205 266/802/205 270/803/205 269/804/205
f 268/805/206 267/806/206 271/807/206 272/808/206
f 267/809/207 265/810/207 269/811/207 271/812/207
f 272/813/208 270/814/208 266/815/208 268/816/208
f 276/817/209 274/818/209 273/819/209 275/820/209
f 279/821/210 277/822/210 278/823/210 280/824/210
f 273/825/211 274/826/211 278/827/211 277/828/211
f 276/829/212 275/830/212 279/831/212 280/832/212
f 275/833/213 273/834/213 277/835/213 279/836/213
f 280/837/214 278/838/214 274/839/214 276/840/214
f 284/841/215 282/842/215 281/843/215 283/844/215
f 287/845/216 285/846/216 286/847/216 288/848/216
f 281/849/217 282/850/217 286/851/217 285/852/217
f 284/853/218 283/854/218 287/855/218 288/856/218
f 283/857/219 281/858/219 285/859/219 287/860/219
f 288/861/220 286/862/220 282/863/220 284/864/220
f 292/865/221 290/866/221 289/867/221 291/868/221
f 295/869/222 293/870/222 294/871/222 296/872/222
f 289/873/223 290/874/223 294/875/223 293/876/223
f 292/877/224 291/878/224 295/879/224 296/880/224
f 291/881/225 289/882/225 293/883/225 295/884/225
f 296/885/226 294/886/226 290/887/226 292/888/226
f 300/889/227 298/890/227 297/891/227 299/892/227
f 303/893/228 301/894/228 302/895/228 304/896/228
f 297/897/229 298/898/229 302/899/229 301/900/229
f 300/901/230 299/902/230 303/903/230 304/904/230
f 299/905/231 297/906/231 301/907/231 303/908/231
f 304/909/232 302/910/232 298/911/232 300/912/232
f 308/913/233 306/914/233 305/915/233 307/916/233
f 311/917/234 309/918/234 310/919/234 312/920/234
f 305/921/235 306/922/235 310/923/235 309/924/235
f 308/925/236 307/926/236 311/927/236 312/928/236
f 307/929/237 305/930/237 309/931/237 311/932/237
f 312/933/238 310/934/238 306/935/238 308/936/238
f 316/937/239 314/938/239 313/939/239 315/940/239
f 319/941/240 317/942/240 318/943/240 320/944/240
f 313/945/241 314/946/241 318/947/241 317/948/241
f 316/949/242 315/950/242 319/951/242 320/952/242
f 315/953/243 313/954/243 317/955/243 319/956/243
f 320/957/244 318/958/244 314/959/244 316/960/244
f 324/961/245 322/962/245 321/963/245 323/964/245
f 327/965/246 325/966/246 326/967/246 328/968/246
f 321/969/247 322/970/247 326/971/247 325/972/247
f 324/973/248 323/974/248 327/975/248 328/976/248
f 323/977/249 321/978/249 325/979/249 327/980/249
f 328/981/250 326/982/250 322/983/250 324/984/250
f 332/985/251 330/986/251 329/987/251 331/988/251
f 335/989/252 333/990/252 334/991/252 336/992/252
f 329/993/253 330/994/253 334/995/253 333/996/253
f 332/997/254 331/998/254 335/999/254 336/1000/254
f 331/1001/255 329/1002/255 333/1003/255 335/1004/255
f 336/1005/256 334/1006/256 330/1007/256 332/1008/256
f 340/1009/257 338/1010/257 337/1011/257 339/1012/257
f 343/1013/258 341/1014/258 342/1015/258 344/1016/258
f 337/1017/259 338/1018/259 342/1019/259 341/1020/259
f 340/1021/260 339/1022/260 343/1023/260 344/1024/260
f 339/1025/261 337/1026/261 341/1027/261 343/1028/261
f 344/1029/262 342/1030/262 338/1031/262 340/1032/262
f 348/1033/263 346/1034/263 345/1035/263 347/1036/263
f 351/1037/264 349/1038/264 350/1039/264 352/1040/264
f 345/1041/265 346/1042/265 350/1043/265 349/1044/265
f 348/1045/266 347/1046/266 351/1047/266 352/1048/266
f 347/1049/267 345/1050/267 349/1051/267 351/1052/267
f 352/1053/268 350/1054/268 346/1055/268 348/1056/268
f 356/1057/269 354/1058/269 353/1059/269 355/1060/269
f 359/1061/270 357/1062/270 358/1063/270 360/1064/270
f 353/1065/271 354/1066/271 358/1067/271 357/1068/271
f 356/1069/272 355/1070/272 359/1071/272 360/1072/272
f 355/1073/273 353/1074/273 357/1075/273 359/1076/273
f 360/1077/274 358/1078/274 354/1079/274 356/1080/274
f 364/1081/275 362/1082/275 361/1083/275 363/1084/275
f 367/1085/276 365/1086/276 366/1087/276 368/1088/276
f 361/1089/277 362/1090/277 366/1091/277 365/1092/277
f 364/1093/278 363/1094/278 367/1095/278 368/1096/278
f 363/1097/279 361/1098/279 365/1099/279 367/1100/279
f 368/1101/280 366/1102/280 362/1103/280 364/1104/280
f 372/1105/281 370/1106/281 369/1107/281 371/1108/281
f 375/1109/282 373/1110/282 374/1111/282 376/1112/282
f 369/1113/283 370/1114/283 374/1115/283 373/1116/283
f 372/1117/284 371/1118/284 375/1119/284 376/1120/284
f 371/1121/285 369/1122/285 373/1123/285 375/1124/285
f 376/1125/286 374/1126/286 370/1127/286 372/1128/286
f 380/1129/287 378/1130/287 377/1131/287 379/1132/287
f 383/1133/288 381/1134/288 382/1135/288 384/1136/288
f 377/1137/289 378/1138/289 382/1139/289 381/1140/289
f 380/1141/290 379/1142/290 383/1143/290 384/1144/290
f 379/1145/291 377/1146/291 381/1147/291 383/1148/291
f 384/1149/292 382/1150/292 378/1151/292 380/1152/292
f 388/1153/293 386/1154/293 385/1155/293 387/1156/293
f 391/1157/294 389/1158/294 390/1159/294 392/1160/294
f 385/1161/295 386/1162/295 390/1163/295 389/1164/295
f 388/1165/296 387/1166/296 391/1167/296 392/1168/296
f 387/1169/297 385/1170/297 389/1171/297 391/1172/297
f 392/1173/298 390/1174/298 386/1175/298 388/1176/298
f 396/1177/299 394/1178/299 393/1179/299 395/1180/299
f 399/1181/300 397/1182/300 398/1183/300 400/1184/300
f 393/1185/301 394/1186/301 398/1187/301 397/1188/301
f 396/1189/302 395/1190/302 399/1191/302 400/1192/302
f 395/1193/303 393/1194/303 397/1195/303 399/1196/303
f 400/1197/304 398/1198/304 394/1199/304 396/1200/304
f 404/1201/305 402/1202/305 401/1203/305 403/1204/305
f 407/1205/306 405/1206/306 406/1207/306 408/1208/306
f 401/1209/307 402/1210/307 406/1211/307 405/1212/307
f 404/1213/308 403/1214/308 407/1215/308 408/1216/308
f 403/1217/309 401/1218/309 405/1219/309 407/1220/309
f 408/1221/310 406/1222/310 402/1223/310 404/1224/310
usemtl m_b2af6bd8-ffc8-ff72-7f7b-7b18782af15d
f 412/1225/311 410/1226/311 409/1227/311 411/1228/311
f 415/1229/312 413/1230/312 414/1231/312 416/1232/312
f 409/1233/313 410/1234/313 414/1235/313 413/1236/313
f 412/1237/314 411/1238/314 415/1239/314 416/1240/314
f 411/1241/315 409/1242/315 413/1243/315 415/1244/315
f 416/1245/316 414/1246/316 410/1247/316 412/1248/316
f 420/1249/317 418/1250/317 417/1251/317 419/1252/317
f 423/1253/318 421/1254/318 422/1255/318 424/1256/318
f 417/1257/319 418/1258/319 422/1259/319 421/1260/319
f 420/1261/320 419/1262/320 423/1263/320 424/1264/320
f 419/1265/321 417/1266/321 421/1267/321 423/1268/321
f 424/1269/322 422/1270/322 418/1271/322 420/1272/322
f 428/1273/323 426/1274/323 425/1275/323 427/1276/323
f 431/1277/324 429/1278/324 430/1279/324 432/1280/324
f 425/1281/325 426/1282/325 430/1283/325 429/1284/325
f 428/1285/326 427/1286/326 431/1287/326 432/1288/326
f 427/1289/327 425/1290/327 429/1291/327 431/1292/327
f 432/1293/328 430/1294/328 426/1295/328 428/1296/328
f 436/1297/329 434/1298/329 433/1299/329 435/1300/329
f 439/1301/330 437/1302/330 438/1303/330 440/1304/330
f 433/1305/331 434/1306/331 438/1307/331 437/1308/331
f 436/1309/332 435/1310/332 439/1311/332 440/1312/332
f 435/1313/333 433/1314/333 437/1315/333 439/1316/333
f 440/1317/334 438/1318/334 434/1319/334 436/1320/334
f 444/1321/335 442/1322/335 441/1323/335 443/1324/335
f 447/1325/336 445/1326/336 446/1327/336 448/1328/336
f 441/1329/337 442/1330/337 446/1331/337 445/1332/337
f 444/1333/338 443/1334/338 447/1335/338 448/1336/338
f 443/1337/339 441/1338/339 445/1339/339 447/1340/339
f 448/1341/340 446/1342/340 442/1343/340 444/1344/340
f 452/1345/341 450/1346/341 449/1347/341 451/1348/341
f 455/1349/342 453/1350/342 454/1351/342 456/1352/342
f 449/1353/343 450/1354/343 454/1355/343 453/1356/343
f 452/1357/344 451/1358/344 455/1359/344 456/1360/344
f 451/1361/345 449/1362/345 453/1363/345 455/1364/345
f 456/1365/346 454/1366/346 450/1367/346 452/1368/346
f 460/1369/347 458/1370/347 457/1371/347 459/1372/347
f 463/1373/348 461/1374/348 462/1375/348 464/1376/348
f 457/1377/349 458/1378/349 462/1379/349 461/1380/349
f 460/1381/350 459/1382/350 463/1383/350 464/1384/350
f 459/1385/351 457/1386/351 461/1387/351 463/1388/351
f 464/1389/352 462/1390/352 458/1391/352 460/1392/352
f 468/1393/353 466/1394/353 465/1395/353 467/1396/353
f 471/1397/354 469/1398/354 470/1399/354 472/1400/354
f 465/1401/355 466/1402/355 470/1403/355 469/1404/355
f 468/1405/356 467/1406/356 471/1407/356 472/1408/356
f 467/1409/357 465/1410/357 469/1411/357 471/1412/357
f 472/1413/358 470/1414/358 466/1415/358 468/1416/358
f 476/1417/359 474/1418/359 473/1419/359 475/1420/359
f 479/1421/360 477/1422/360 478/1423/360 480/1424/360
f 473/1425/361 474/1426/361 478/1427/361 477/1428/361
f 476/1429/362 475/1430/362 479/1431/362 480/1432/362
f 475/1433/363 473/1434/363 477/1435/363 479/1436/363
f 480/1437/364 478/1438/364 474/1439/364 476/1440/364
f 484/1441/365 482/1442/365 481/1443/365 483/1444/365
f 487/1445/366 485/1446/366 486/1447/366 488/1448/366
f 481/1449/367 482/1450/367 486/1451/367 485/1452/367
f 484/1453/368 483/1454/368 487/1455/368 488/1456/368
f 483/1457/369 481/1458/369 485/1459/369 487/1460/369
f 488/1461/370 486/1462/370 482/1463/370 484/1464/370
f 492/1465/371 490/1466/371 489/1467/371 491/1468/371
f 495/1469/372 493/1470/372 494/1471/372 496/1472/372
f 489/1473/373 490/1474/373 494/1475/373 493/1476/373
f 492/1477/374 491/1478/374 495/1479/374 496/1480/374
f 491/1481/375 489/1482/375 493/1483/375 495/1484/375
f 496/1485/376 494/1486/376 490/1487/376 492/1488/376
f 500/1489/377 498/1490/377 497/1491/377 499/1492/377
f 503/1493/378 501/1494/378 502/1495/378 504/1496/378
f 497/1497/379 498/1498/379 502/1499/379 501/1500/379
f 500/1501/380 499/1502/380 503/1503/380 504/1504/380
f 499/1505/381 497/1506/381 501/1507/381 503/1508/381
f 504/1509/382 502/1510/382 498/1511/382 500/1512/382
f 508/1513/383 506/1514/383 505/1515/383 507/1516/383
f 511/1517/384 509/1518/384 510/1519/384 512/1520/384
f 505/1521/385 506/1522/385 510/1523/385 509/1524/385
f 508/1525/386 507/1526/386 511/1527/386 512/1528/386
f 507/1529/387 505/1530/387 509/1531/387 511/1532/387
f 512/1533/388 510/1534/388 506/1535/388 508/1536/388
f 516/1537/389 514/1538/389 513/1539/389 515/1540/389
f 519/1541/390 517/1542/390 518/1543/390 520/1544/390
f 513/1545/391 514/1546/391 518/1547/391 517/1548/391
f 516/1549/392 515/1550/392 519/1551/392 520/1552/392
f 515/1553/393 513/1554/393 517/1555/393 519/1556/393
f 520/1557/394 518/1558/394 514/1559/394 516/1560/394
f 524/1561/395 522/1562/395 521/1563/395 523/1564/395
f 527/1565/396 525/1566/396 526/1567/396 528/1568/396
f 521/1569/397 522/1570/397 526/1571/397 525/1572/397
f 524/1573/398 523/1574/398 527/1575/398 528/1576/398
f 523/1577/399 521/1578/399 525/1579/399 527/1580/399
f 528/1581/400 526/1582/400 522/1583/400 524/1584/400
f 532/1585/401 530/1586/401 529/1587/401 531/1588/401
f 535/1589/402 533/1590/402 534/1591/402 536/1592/402
f 529/1593/403 530/1594/403 534/1595/403 533/1596/403
f 532/1597/404 531/1598/404 535/1599/404 536/1600/404
f 531/1601/405 529/1602/405 533/1603/405 535/1604/405
f 536/1605/406 534/1606/406 530/1607/406 532/1608/406
f 540/1609/407 538/1610/407 537/1611/407 539/1612/407
f 543/1613/408 541/1614/408 542/1615/408 544/1616/408
f 537/1617/409 538/1618/409 542/1619/409 541/1620/409
f 540/1621/410 539/1622/410 543/1623/410 544/1624/410
f 539/1625/411 537/1626/411 541/1627/411 543/1628/411
f 544/1629/412 542/1630/412 538/1631/412 540/1632/412
f 548/1633/413 546/1634/413 545/1635/413 547/1636/413
f 551/1637/414 549/1638/414 550/1639/414 552/1640/414
f 545/1641/415 546/1642/415 550/1643/415 549/1644/415
f 548/1645/416 547/1646/416 551/1647/416 552/1648/416
f 547/1649/417 545/1650/417 549/1651/417 551/1652/417
f 552/1653/418 550/1654/418 546/1655/418 548/1656/418
f 556/1657/419 554/1658/419 553/1659/419 555/1660/419
f 559/1661/420 557/1662/420 558/1663/420 560/1664/420
f 553/1665/421 554/1666/421 558/1667/421 557/1668/421
f 556/1669/422 555/1670/422 559/1671/422 560/1672/422
f 555/1673/423 553/1674/423 557/1675/423 559/1676/423
f 560/1677/424 558/1678/424 554/1679/424 556/1680/424