# Made in Blockbench 5.1.6
mtllib 1000_right.mtl

o cube
v -0.9040291308792039 3.8611359120657514 -0.06875
v -0.9040291308792039 3.8611359120657514 -0.11875
v -0.7714466094067263 3.728553390593274 -0.06875
v -0.7714466094067263 3.728553390593274 -0.11875
v -1.125 3.6401650429449552 -0.06875
v -1.125 3.6401650429449552 -0.11875
v -0.9924174785275224 3.507582521472478 -0.06875
v -0.9924174785275224 3.507582521472478 -0.11875
v -0.96875 3.125 0.125
v -0.96875 3.125 -0.125
v -0.9687499999999999 2.125 0.125
v -0.9687499999999999 2.125 -0.125
v -1.21875 3.125 0.125
v -1.21875 3.125 -0.125
v -1.21875 2.125 0.125
v -1.21875 2.125 -0.125
v -0.96875 3.6875 0.125
v -0.96875 3.6875 -0.125
v -0.96875 3.125 0.125
v -0.96875 3.125 -0.125
v -1.2187499999999998 3.6875 0.125
v -1.2187499999999998 3.6875 -0.125
v -1.21875 3.125 0.125
v -1.21875 3.125 -0.125
v -0.9687499999999999 2.125 0.125
v -0.9687499999999999 2.125 -0.125
v -0.9687499999999998 1.125 0.125
v -0.9687499999999998 1.125 -0.125
v -1.21875 2.125 0.125
v -1.21875 2.125 -0.125
v -1.21875 1.125 0.125
v -1.21875 1.125 -0.125
v -0.9687499999999998 1.125 0.125
v -0.9687499999999998 1.125 -0.125
v -0.96875 0.3125 0.125
v -0.96875 0.3125 -0.125
v -1.21875 1.125 0.125
v -1.21875 1.125 -0.125
v -1.2187499999999998 0.3125 0.125
v -1.2187499999999998 0.3125 -0.125
v -0.7812499999999998 1.375 -0.0625
v -0.7812499999999998 1.375 -0.125
v -0.78125 1.3125 -0.0625
v -0.78125 1.3125 -0.125
v -0.96875 1.375 -0.0625
v -0.96875 1.375 -0.125
v -0.9687500000000001 1.3125 -0.0625
v -0.9687500000000001 1.3125 -0.125
v -0.7812499999999998 1.375 0.0625
v -0.7812499999999998 1.375 -0.0625
v -0.78125 1.3125 0.0625
v -0.78125 1.3125 -0.0625
v -0.8437499999999998 1.375 0.0625
v -0.8437499999999998 1.375 -0.0625
v -0.8437499999999997 1.3125 0.0625
v -0.8437499999999997 1.3125 -0.0625
v -0.7812499999999998 1.375 0.125
v -0.7812499999999998 1.375 0.0625
v -0.78125 1.3125 0.125
v -0.78125 1.3125 0.0625
v -0.96875 1.375 0.125
v -0.96875 1.375 0.0625
v -0.9687500000000001 1.3125 0.125
v -0.9687500000000001 1.3125 0.0625
v -0.78125 1 -0.0625
v -0.78125 1 -0.125
v -0.7812499999999998 0.9375 -0.0625
v -0.7812499999999998 0.9375 -0.125
v -0.96875 1 -0.0625
v -0.96875 1 -0.125
v -0.96875 0.9375 -0.0625
v -0.96875 0.9375 -0.125
v -0.78125 1 0.0625
v -0.78125 1 -0.0625
v -0.7812499999999998 0.9375 0.0625
v -0.7812499999999998 0.9375 -0.0625
v -0.8437499999999996 1 0.0625
v -0.8437499999999996 1 -0.0625
v -0.84375 0.9375 0.0625
v -0.84375 0.9375 -0.0625
v -0.78125 1 0.125
v -0.78125 1 0.0625
v -0.7812499999999998 0.9375 0.125
v -0.7812499999999998 0.9375 0.0625
v -0.96875 1 0.125
v -0.96875 1 0.0625
v -0.96875 0.9375 0.125
v -0.96875 0.9375 0.0625
v -0.7812499999999998 0.625 0.0625
v -0.7812499999999998 0.625 -0.0625
v -0.78125 0.5625 0.0625
v -0.78125 0.5625 -0.0625
v -0.84375 0.625 0.0625
v -0.84375 0.625 -0.0625
v -0.84375 0.5625 0.0625
v -0.84375 0.5625 -0.0625
v -0.7812499999999998 0.625 0.125
v -0.7812499999999998 0.625 0.0625
v -0.78125 0.5625 0.125
v -0.78125 0.5625 0.0625
v -0.96875 0.625 0.125
v -0.96875 0.625 0.0625
v -0.9687499999999998 0.5625 0.125
v -0.9687499999999998 0.5625 0.0625
v -0.7812499999999998 0.625 -0.0625
v -0.7812499999999998 0.625 -0.125
v -0.78125 0.5625 -0.0625
v -0.78125 0.5625 -0.125
v -0.96875 0.625 -0.0625
v -0.96875 0.625 -0.125
v -0.9687499999999998 0.5625 -0.0625
v -0.9687499999999998 0.5625 -0.125
v 0.0625 5 -0.15624999999999997
v 0.0625 5 -0.21874999999999997
v 0.0625 3.875 -0.15624999999999997
v 0.0625 3.875 -0.21874999999999997
v -0.06249999999999978 5 -0.15624999999999997
v -0.06249999999999978 5 -0.21874999999999997
v -0.06249999999999978 3.875 -0.15624999999999997
v -0.06249999999999978 3.875 -0.21874999999999997
v 0.0625 5 0.21875
v 0.0625 5 0.09375
v 0.0625 3.875 0.21875
v 0.0625 3.875 0.09375
v -0.06249999999999978 5 0.21875
v -0.06249999999999978 5 0.09375
v -0.06249999999999978 3.875 0.21875
v -0.06249999999999978 3.875 0.09375
v 0.0625 5 0.09375
v 0.0625 5 -0.15625
v 0.06249999999999978 4.9375 0.09375
v 0.06249999999999978 4.9375 -0.15625
v -0.06249999999999978 5 0.09375
v -0.06249999999999978 5 -0.15625
v -0.06249999999999978 4.9375 0.09375
v -0.06249999999999978 4.9375 -0.15625
v 0.0625 4.5625 0.09375
v 0.0625 4.5625 -0.15625
v 0.0625 4.5 0.09375
v 0.0625 4.5 -0.15625
v -0.06249999999999978 4.5625 0.09375
v -0.06249999999999978 4.5625 -0.15625
v -0.0625 4.5 0.09375
v -0.0625 4.5 -0.15625
v 0.0625 4.125 0.09375
v 0.0625 4.125 -0.15625
v 0.0625 3.9375 0.09375
v 0.0625 3.9375 -0.15625
v -0.06249999999999978 4.125 0.09375
v -0.06249999999999978 4.125 -0.15625
v -0.06249999999999978 3.9375 0.09375
v -0.06249999999999978 3.9375 -0.15625
v -0.7812499999999999 3.25 0.1875
v -0.7812499999999999 3.25 0.125
v -0.7812500000000002 3.1875 0.1875
v -0.7812500000000002 3.1875 0.125
v -1.1562499999999998 3.25 0.1875
v -1.1562499999999998 3.25 0.125
v -1.15625 3.1875 0.1875
v -1.15625 3.1875 0.125
v -1.0312499999999998 2.75 0.1875
v -1.0312499999999998 2.75 0.125
v -1.03125 2.6875 0.1875
v -1.03125 2.6875 0.125
v -1.4062499999999998 2.75 0.1875
v -1.4062499999999998 2.75 0.125
v -1.40625 2.6875 0.1875
v -1.40625 2.6875 0.125
v -0.7812499999999998 2.25 0.1875
v -0.7812499999999998 2.25 0.125
v -0.78125 2.1875 0.1875
v -0.78125 2.1875 0.125
v -1.1562499999999998 2.25 0.1875
v -1.1562499999999998 2.25 0.125
v -1.15625 2.1875 0.1875
v -1.15625 2.1875 0.125
v -1.03125 1.75 0.1875
v -1.03125 1.75 0.125
v -1.03125 1.6875 0.1875
v -1.03125 1.6875 0.125
v -1.40625 1.7499999999999998 0.1875
v -1.40625 1.7499999999999998 0.125
v -1.40625 1.6875 0.1875
v -1.40625 1.6875 0.125
v -0.71875 0.25 0.375
v -0.71875 0.25 -0.375
v -0.7187499999999998 -0.1875 0.375
v -0.7187499999999998 -0.1875 -0.375
v -1.46875 0.25 0.375
v -1.46875 0.25 -0.375
v -1.46875 -0.1875 0.375
v -1.46875 -0.1875 -0.375
v -0.7812499999999998 0.3125 0.25
v -0.7812499999999998 0.3125 -0.25
v -0.78125 0.25 0.25
v -0.78125 0.25 -0.25
v -1.4062499999999998 0.3125 0.25
v -1.4062499999999998 0.3125 -0.25
v -1.4062499999999998 0.25 0.25
v -1.4062499999999998 0.25 -0.25
v -1.137944173824159 0.5075825214724778 -0.037500000000000006
v -1.137944173824159 0.5075825214724778 -0.11875
v -1.0495558261758409 0.4191941738241596 -0.037500000000000006
v -1.0495558261758409 0.4191941738241596 -0.11875
v -1.358915042944955 0.28661165235168173 -0.037500000000000006
v -1.358915042944955 0.28661165235168173 -0.11875
v -1.270526695296637 0.19822330470336347 -0.037500000000000006
v -1.270526695296637 0.19822330470336347 -0.11875
v -0.8361674785275222 0.29419417382415913 -0.037500000000000006
v -0.8361674785275222 0.29419417382415913 -0.11875
v -0.9245558261758406 0.20580582617584042 -0.037500000000000006
v -0.9245558261758406 0.20580582617584042 -0.11875
v -1.0571383476483183 0.5151650429449552 -0.037500000000000006
v -1.0571383476483183 0.5151650429449552 -0.11875
v -1.1455266952966368 0.42677669529663653 -0.037500000000000006
v -1.1455266952966368 0.42677669529663653 -0.11875
v -0.8361674785275222 0.29419417382415913 0.11875
v -0.8361674785275222 0.29419417382415913 0.037500000000000006
v -0.9245558261758406 0.20580582617584042 0.11875
v -0.9245558261758406 0.20580582617584042 0.037500000000000006
v -1.0571383476483183 0.5151650429449552 0.11875
v -1.0571383476483183 0.5151650429449552 0.037500000000000006
v -1.1455266952966368 0.42677669529663653 0.11875
v -1.1455266952966368 0.42677669529663653 0.037500000000000006
v -1.137944173824159 0.5075825214724778 0.11875
v -1.137944173824159 0.5075825214724778 0.037500000000000006
v -1.0495558261758409 0.4191941738241596 0.11875
v -1.0495558261758409 0.4191941738241596 0.037500000000000006
v -1.358915042944955 0.28661165235168173 0.11875
v -1.358915042944955 0.28661165235168173 0.037500000000000006
v -1.270526695296637 0.19822330470336347 0.11875
v -1.270526695296637 0.19822330470336347 0.037500000000000006
v -0.78125 1.3125 0.5
v -0.78125 1.3125 0.125
v -0.78125 0.5000000000000004 0.5
v -0.78125 0.5000000000000004 0.125
v -1.40625 1.3125 0.5
v -1.40625 1.3125 0.125
v -1.40625 0.5 0.5
v -1.40625 0.5 0.125
v -0.9040291308792038 3.861135912065752 0.11875
v -0.9040291308792038 3.861135912065752 0.06875
v -0.771446609406726 3.728553390593274 0.11875
v -0.771446609406726 3.728553390593274 0.06875
v -1.125 3.6401650429449552 0.11875
v -1.125 3.6401650429449552 0.06875
v -0.9924174785275224 3.507582521472478 0.11875
v -0.9924174785275224 3.507582521472478 0.06875
v 0.18750000000000044 3.875 0.25
v 0.18750000000000044 3.875 -0.25
v 0.18750000000000044 3.8125 0.25
v 0.18750000000000044 3.8125 -0.25
v -0.9375 3.875 0.25
v -0.9375 3.875 -0.25
v -0.9375 3.8124999999999996 0.25
v -0.9375 3.8124999999999996 -0.25
v -0.3749999999999998 3.8124999999999996 0.1875
v -0.3749999999999998 3.8124999999999996 -0.1875
v -0.3749999999999998 3.6875 0.1875
v -0.3749999999999998 3.6875 -0.1875
v -1.2187499999999998 3.8124999999999996 0.1875
v -1.2187499999999998 3.8124999999999996 -0.1875
v -1.2187499999999998 3.6875 0.1875
v -1.2187499999999998 3.6875 -0.1875
v 0.18750000000000044 3.8125 0.1875
v 0.18750000000000044 3.8125 -0.1875
v 0.18750000000000044 3.6875 0.1875
v 0.18750000000000044 3.6875 -0.1875
v -0.3749999999999998 3.8124999999999996 0.1875
v -0.3749999999999998 3.8124999999999996 -0.1875
v -0.3749999999999998 3.6875 0.1875
v -0.3749999999999998 3.6875 -0.1875
v -0.9375 3.875 0.1875
v -0.9375 3.875 -0.1875
v -0.9375 3.8124999999999996 0.1875
v -0.9375 3.8124999999999996 -0.1875
v -1.2187499999999996 3.875 0.1875
v -1.2187499999999996 3.875 -0.1875
v -1.2187499999999998 3.8124999999999996 0.1875
v -1.2187499999999998 3.8124999999999996 -0.1875
v -0.3749999999999998 3.8124999999999996 -0.1875
v -0.3749999999999998 3.8124999999999996 -0.25
v -0.3749999999999998 3.6875 -0.1875
v -0.4374999999999998 3.8124999999999996 -0.1875
v -0.4374999999999998 3.8124999999999996 -0.25
v -0.43749999999999956 3.6875 -0.1875
v -0.12499999999999978 3.8124999999999996 -0.1875
v -0.12499999999999978 3.8124999999999996 -0.25
v -0.12499999999999956 3.6875 -0.1875
v -0.18750000000000022 3.8124999999999996 -0.1875
v -0.18750000000000022 3.8124999999999996 -0.25
v -0.18750000000000022 3.6875 -0.1875
v 0.12499999999999978 3.8124999999999996 -0.1875
v 0.12499999999999978 3.8124999999999996 -0.25
v 0.12499999999999978 3.6875 -0.1875
v 0.0625 3.8124999999999996 -0.1875
v 0.0625 3.8124999999999996 -0.25
v 0.0625 3.6875 -0.1875
v -0.6249999999999999 3.8124999999999996 -0.1875
v -0.6249999999999999 3.8124999999999996 -0.25
v -0.6249999999999999 3.6875 -0.1875
v -0.6874999999999998 3.8124999999999996 -0.1875
v -0.6874999999999998 3.8124999999999996 -0.25
v -0.6874999999999998 3.6875 -0.1875
v -0.875 3.8124999999999996 -0.1875
v -0.875 3.8124999999999996 -0.25
v -0.8749999999999999 3.6875 -0.1875
v -0.9375 3.8124999999999996 -0.1875
v -0.9375 3.8124999999999996 -0.25
v -0.9375 3.6875 -0.1875
v -0.4374999999999998 3.8124999999999996 0.1875
v -0.4374999999999998 3.8124999999999996 0.25
v -0.43749999999999956 3.6875 0.1875
v -0.4999999999999999 3.8125 0.1875
v -0.4999999999999999 3.8125 0.25
v -0.4999999999999999 3.6875 0.1875
v -0.6249999999999999 3.8124999999999996 0.1875
v -0.6249999999999999 3.8124999999999996 0.25
v -0.6249999999999999 3.6875 0.1875
v -0.6874999999999998 3.8124999999999996 0.1875
v -0.6874999999999998 3.8124999999999996 0.25
v -0.6874999999999998 3.6875 0.1875
v -0.8124999999999999 3.8125 0.1875
v -0.8124999999999999 3.8125 0.25
v -0.8124999999999998 3.6875 0.1875
v -0.875 3.8124999999999996 0.1875
v -0.875 3.8124999999999996 0.25
v -0.8749999999999999 3.6875 0.1875
v -0.18750000000000022 3.6875 0.0625
v -0.18750000000000022 3.6875 -0.0625
v -0.1875000000000001 3.4375 0.0625
v -0.1875000000000001 3.4375 -0.0625
v -0.25 3.6875 0.0625
v -0.25 3.6875 -0.0625
v -0.25 3.4375 0.0625
v -0.25 3.4375 -0.0625
v 0.10937500000000022 3.6875 0.03125
v 0.10937500000000022 3.6875 -0.03125
v 0.10937500000000044 3.5687499999999996 0.03125
v 0.10937500000000044 3.5687499999999996 -0.03125
v 0.0625 3.6875 0.03125
v 0.0625 3.6875 -0.03125
v 0.0625 3.5687499999999996 0.03125
v 0.0625 3.5687499999999996 -0.03125
v -0.015625 3.4906249999999996 0.03125
v -0.015625 3.4906249999999996 -0.03125
v -0.015625 3.44375 0.03125
v -0.015625 3.44375 -0.03125
v -0.21874999999999978 3.4906249999999996 0.03125
v -0.21874999999999978 3.4906249999999996 -0.03125
v -0.21874999999999978 3.44375 0.03125
v -0.21874999999999978 3.44375 -0.03125
v -0.3906250000000002 3.553125 0.03125
v -0.3906250000000002 3.553125 -0.03125
v -0.3906249999999999 3.50625 0.03125
v -0.3906249999999999 3.50625 -0.03125
v -0.96875 3.6156250000000005 0.03125
v -0.96875 3.6156250000000005 -0.03125
v -0.96875 3.56875 0.03125
v -0.96875 3.56875 -0.03125
v -0.21874999999999978 3.4906249999999996 0.03125
v -0.21874999999999978 3.4906249999999996 -0.03125
v -0.21874999999999978 3.44375 0.03125
v -0.21874999999999978 3.44375 -0.03125
v -0.40625000000000033 3.553125 0.03125
v -0.40625000000000033 3.553125 -0.03125
v -0.40625 3.50625 0.03125
v -0.40625 3.50625 -0.03125
v 0.0625 3.5687499999999996 0.03125
v 0.0625 3.5687499999999996 -0.03125
v 0.10937500000000044 3.5687499999999996 0.03125
v 0.10937500000000044 3.5687499999999996 -0.03125
v -0.015625 3.4906249999999996 0.03125
v -0.015625 3.4906249999999996 -0.03125
v -0.015625 3.44375 0.03125
v -0.015625 3.44375 -0.03125
v 0 4 -0.1625
v 0 4 -0.2125
v -0.06249999999999978 3.875 -0.1625
v -0.06249999999999978 3.875 -0.2125
v -0.06249999999999978 4 -0.1625
v -0.06249999999999978 4 -0.2125
v -0.12499999999999956 3.875 -0.1625
v -0.12499999999999956 3.875 -0.2125
v 0.0625 4 -0.1625
v 0.0625 4 -0.2125
v 0.12499999999999978 3.875 -0.1625
v 0.12499999999999978 3.875 -0.2125
v 0.0625 3.875 -0.1625
v 0.0625 3.875 -0.2125
v 0 4 -0.1625
v 0 4 -0.2125
v 0.0625 4 0.21250000000000002
v 0.0625 4 0.1
v 0.12499999999999978 3.875 0.21250000000000002
v 0.12499999999999978 3.875 0.1
v 0.0625 3.875 0.21250000000000002
v 0.0625 3.875 0.1
v 0 4 0.21250000000000002
v 0 4 0.1
v 0 4 0.21250000000000002
v 0 4 0.1
v -0.06249999999999978 3.875 0.21250000000000002
v -0.06249999999999978 3.875 0.1
v -0.06249999999999978 4 0.21250000000000002
v -0.06249999999999978 4 0.1
v -0.12499999999999956 3.875 0.21250000000000002
v -0.12499999999999956 3.875 0.1
v -0.3812500000000001 3.9375 0.30625
v -0.3812500000000001 3.9375 -0.69375
v -0.3812500000000001 3.875 0.30625
v -0.3812500000000001 3.875 -0.69375
v -1.25625 3.9375 0.30625
v -1.25625 3.9375 -0.69375
v -1.25625 3.875 0.30625
v -1.25625 3.875 -0.69375
v -0.3812500000000001 4.4375 -0.22499999999999998
v -0.3812500000000001 4.4375 -0.725
v -0.3812500000000002 4.40625 -0.22499999999999998
v -0.3812500000000002 4.40625 -0.725
v -0.41249999999999987 4.4375 -0.22499999999999998
v -0.41249999999999987 4.4375 -0.725
v -0.41249999999999976 4.40625 -0.22499999999999998
v -0.41249999999999976 4.40625 -0.725
v -0.3812500000000001 4.875 -0.22499999999999998
v -0.3812500000000001 4.875 -0.725
v -0.3812500000000002 4.84375 -0.22499999999999998
v -0.3812500000000002 4.84375 -0.725
v -0.41249999999999964 4.875 -0.22499999999999998
v -0.41249999999999964 4.875 -0.725
v -0.41249999999999987 4.84375 -0.22499999999999998
v -0.41249999999999987 4.84375 -0.725
v -0.3812500000000001 3.9375 -0.69375
v -0.3812500000000001 3.9375 -0.75625
v -0.3812500000000001 3.875 -0.69375
v -0.3812500000000001 3.875 -0.75625
v -1.25625 3.9375 -0.69375
v -1.25625 3.9375 -0.75625
v -1.25625 3.875 -0.69375
v -1.25625 3.875 -0.75625
v -0.41249999999999987 4.4375 -0.725
v -0.41249999999999987 4.4375 -0.75625
v -0.41249999999999976 4.40625 -0.725
v -0.41249999999999976 4.40625 -0.75625
v -1.225 4.4375 -0.725
v -1.225 4.4375 -0.75625
v -1.225 4.40625 -0.725
v -1.225 4.40625 -0.75625
v -0.41249999999999964 4.875 -0.725
v -0.41249999999999964 4.875 -0.75625
v -0.41249999999999987 4.84375 -0.725
v -0.41249999999999987 4.84375 -0.75625
v -1.2250000000000005 4.875 -0.725
v -1.2250000000000005 4.875 -0.75625
v -1.2250000000000005 4.84375 -0.725
v -1.2250000000000005 4.84375 -0.75625
v -0.41249999999999987 4.4375 0.30625
v -0.41249999999999987 4.4375 0.275
v -0.41249999999999976 4.40625 0.30625
v -0.41249999999999976 4.40625 0.275
v -0.7875 4.4375 0.30625
v -0.7875 4.4375 0.275
v -0.7874999999999996 4.40625 0.30625
v -0.7874999999999996 4.40625 0.275
v -0.41249999999999964 4.875 0.30625
v -0.41249999999999964 4.875 0.275
v -0.41249999999999987 4.84375 0.30625
v -0.41249999999999987 4.84375 0.275
v -0.7874999999999996 4.875 0.30625
v -0.7874999999999996 4.875 0.275
v -0.7874999999999996 4.84375 0.30625
v -0.7874999999999996 4.84375 0.275
v -1.2250000000000005 4.875 -0.725
v -1.2250000000000005 4.875 -0.75625
v -1.225 3.9375 -0.725
v -1.225 3.9375 -0.75625
v -1.25625 4.875 -0.725
v -1.25625 4.875 -0.75625
v -1.25625 3.9375 -0.725
v -1.25625 3.9375 -0.75625
v -0.3812500000000001 4.875 -0.725
v -0.3812500000000001 4.875 -0.75625
v -0.3812500000000001 3.9375 -0.725
v -0.3812500000000001 3.9375 -0.75625
v -0.41249999999999964 4.875 -0.725
v -0.41249999999999964 4.875 -0.75625
v -0.41249999999999976 3.9375 -0.725
v -0.41249999999999976 3.9375 -0.75625
v -0.3812500000000001 4.875 -0.19374999999999998
v -0.3812500000000001 4.875 -0.22499999999999998
v -0.3812500000000001 3.9375 -0.19374999999999998
v -0.3812500000000001 3.9375 -0.22499999999999998
v -0.41249999999999964 4.875 -0.19374999999999998
v -0.41249999999999964 4.875 -0.22499999999999998
v -0.41249999999999976 3.9375 -0.19374999999999998
v -0.41249999999999976 3.9375 -0.22499999999999998
v -1.2250000000000005 4.875 0.30625
v -1.2250000000000005 4.875 0.275
v -1.225 3.9375 0.30625
v -1.225 3.9375 0.275
v -1.25625 4.875 0.30625
v -1.25625 4.875 0.275
v -1.25625 3.9375 0.30625
v -1.25625 3.9375 0.275
v -0.3812500000000001 4.875 0.30625
v -0.3812500000000001 4.875 0.275
v -0.3812500000000001 3.9375 0.30625
v -0.3812500000000001 3.9375 0.275
v -0.41249999999999964 4.875 0.30625
v -0.41249999999999964 4.875 0.275
v -0.41249999999999976 3.9375 0.30625
v -0.41249999999999976 3.9375 0.275
v -0.7874999999999996 4.875 0.30625
v -0.7874999999999996 4.875 0.275
v -0.7874999999999996 3.9375 0.30625
v -0.7874999999999996 3.9375 0.275
v -0.8187499999999999 4.875 0.30625
v -0.8187499999999999 4.875 0.275
v -0.8187499999999999 3.9375 0.30625
v -0.8187499999999999 3.9375 0.275
v -1.2250000000000005 4.875 0.275
v -1.2250000000000005 4.875 -0.725
v -1.2250000000000005 4.84375 0.275
v -1.2250000000000005 4.84375 -0.725
v -1.25625 4.875 0.275
v -1.25625 4.875 -0.725
v -1.25625 4.84375 0.275
v -1.25625 4.84375 -0.725
v -1.225 4.4375 0.275
v -1.225 4.4375 -0.725
v -1.225 4.40625 0.275
v -1.225 4.40625 -0.725
v -1.25625 4.4375 0.275
v -1.25625 4.4375 -0.725
v -1.25625 4.40625 0.275
v -1.25625 4.40625 -0.725
v -0.9749999999999999 3.875 -0.19374999999999998
v -0.9749999999999999 3.875 -0.69375
v -0.9749999999999999 3.8124999999999996 -0.19374999999999998
v -0.9749999999999999 3.8124999999999996 -0.69375
v -1.1625 3.875 -0.19374999999999998
v -1.1625 3.875 -0.69375
v -1.1625 3.8124999999999996 -0.19374999999999998
v -1.1625 3.8124999999999996 -0.69375
v -0.9749999999999999 3.8124999999999996 -0.19374999999999998
v -0.9749999999999999 3.8124999999999996 -0.69375
v -0.9749999999999999 3.6875 -0.19374999999999998
v -0.9749999999999999 3.6875 -0.69375
v -1.0374999999999996 3.8124999999999996 -0.19374999999999998
v -1.0374999999999996 3.8124999999999996 -0.69375
v -1.0374999999999996 3.6875 -0.19374999999999998
v -1.0374999999999996 3.6875 -0.69375
v -1.03125 3.6875 -0.125
v -1.03125 3.6875 -0.15625
v -1.03125 2.6875 -0.125
v -1.03125 2.6875 -0.15625
v -1.1562499999999998 3.6875 -0.125
v -1.1562499999999998 3.6875 -0.15625
v -1.15625 2.6875 -0.125
v -1.15625 2.6875 -0.15625
vt 0.0125 0.953125
vt 0.0125 1
vt 0 1
vt 0 0.953125
vt 0.090625 0.953125
vt 0.090625 1
vt 0.078125 1
vt 0.078125 0.953125
vt 0.078125 0.909375
vt 0.078125 0.921875
vt 0 0.921875
vt 0 0.909375
vt 0.078125 0.9875
vt 0.078125 1
vt 0 1
vt 0 0.9875
vt 0.078125 0.953125
vt 0.078125 1
vt 0 1
vt 0 0.953125
vt 0.078125 0.953125
vt 0.078125 1
vt 0 1
vt 0 0.953125
vt 0.078125 0.75
vt 0.078125 1
vt 0.015625 1
vt 0.015625 0.75
vt 0.078125 0.75
vt 0.078125 1
vt 0.015625 1
vt 0.015625 0.75
vt 0.0625 0.921875
vt 0.0625 0.984375
vt 0 0.984375
vt 0 0.921875
vt 0.0625 0.921875
vt 0.0625 0.984375
vt 0 0.984375
vt 0 0.921875
vt 0.0625 0.75
vt 0.0625 1
vt 0 1
vt 0 0.75
vt 0.078125 0.75
vt 0.078125 1
vt 0.015625 1
vt 0.015625 0.75
vt 0.078125 0.859375
vt 0.078125 1
vt 0.015625 1
vt 0.015625 0.859375
vt 0.078125 0.859375
vt 0.078125 1
vt 0.015625 1
vt 0.015625 0.859375
vt 0.0625 0.921875
vt 0.0625 0.984375
vt 0 0.984375
vt 0 0.921875
vt 0.0625 0.921875
vt 0.0625 0.984375
vt 0 0.984375
vt 0 0.921875
vt 0.0625 0.859375
vt 0.0625 1
vt 0 1
vt 0 0.859375
vt 0.078125 0.859375
vt 0.078125 1
vt 0.015625 1
vt 0.015625 0.859375
vt 0.078125 0.75
vt 0.078125 1
vt 0.015625 1
vt 0.015625 0.75
vt 0.078125 0.75
vt 0.078125 1
vt 0.015625 1
vt 0.015625 0.75
vt 0.0625 0.921875
vt 0.0625 0.984375
vt 0 0.984375
vt 0 0.921875
vt 0.0625 0.921875
vt 0.0625 0.984375
vt 0 0.984375
vt 0 0.921875
vt 0.0625 0.75
vt 0.0625 1
vt 0 1
vt 0 0.75
vt 0.078125 0.75
vt 0.078125 1
vt 0.015625 1
vt 0.015625 0.75
vt 0.078125 0.796875
vt 0.078125 1
vt 0.015625 1
vt 0.015625 0.796875
vt 0.078125 0.796875
vt 0.078125 1
vt 0.015625 1
vt 0.015625 0.796875
vt 0.0625 0.921875
vt 0.0625 0.984375
vt 0 0.984375
vt 0 0.921875
vt 0.0625 0.921875
vt 0.0625 0.984375
vt 0 0.984375
vt 0 0.921875
vt 0.0625 0.796875
vt 0.0625 1
vt 0 1
vt 0 0.796875
vt 0.078125 0.796875
vt 0.078125 1
vt 0.015625 1
vt 0.015625 0.796875
vt 0.03125 0.96875
vt 0.03125 0.984375
vt 0.015625 0.984375
vt 0.015625 0.96875
vt 0.015625 0.96875
vt 0.015625 0.984375
vt 0 0.984375
vt 0 0.96875
vt 0.0625 0.984375
vt 0.0625 1
vt 0.015625 1
vt 0.015625 0.984375
vt 0.0625 0.96875
vt 0.0625 0.984375
vt 0.015625 0.984375
vt 0.015625 0.96875
vt 0.0625 0.96875
vt 0.0625 0.984375
vt 0.015625 0.984375
vt 0.015625 0.96875
vt 0.046875 0.96875
vt 0.046875 0.984375
vt 0 0.984375
vt 0 0.96875
vt 0.046875 0.96875
vt 0.046875 0.984375
vt 0.015625 0.984375
vt 0.015625 0.96875
vt 0.03125 0.96875
vt 0.03125 0.984375
vt 0 0.984375
vt 0 0.96875
vt 0.0625 0.96875
vt 0.0625 1
vt 0.046875 1
vt 0.046875 0.96875
vt 0.0625 0.953125
vt 0.0625 0.984375
vt 0.046875 0.984375
vt 0.046875 0.953125
vt 0.0625 0.96875
vt 0.0625 0.984375
vt 0.046875 0.984375
vt 0.046875 0.96875
vt 0.015625 0.96875
vt 0.015625 0.984375
vt 0 0.984375
vt 0 0.96875
vt 0.03125 0.96875
vt 0.03125 0.984375
vt 0.015625 0.984375
vt 0.015625 0.96875
vt 0.015625 0.96875
vt 0.015625 0.984375
vt 0 0.984375
vt 0 0.96875
vt 0.0625 0.984375
vt 0.0625 1
vt 0.015625 1
vt 0.015625 0.984375
vt 0.0625 0.96875
vt 0.0625 0.984375
vt 0.015625 0.984375
vt 0.015625 0.96875
vt 0.0625 0.96875
vt 0.0625 0.984375
vt 0.015625 0.984375
vt 0.015625 0.96875
vt 0.046875 0.96875
vt 0.046875 0.984375
vt 0 0.984375
vt 0 0.96875
vt 0.03125 0.96875
vt 0.03125 0.984375
vt 0.015625 0.984375
vt 0.015625 0.96875
vt 0.015625 0.96875
vt 0.015625 0.984375
vt 0 0.984375
vt 0 0.96875
vt 0.0625 0.984375
vt 0.0625 1
vt 0.015625 1
vt 0.015625 0.984375
vt 0.0625 0.96875
vt 0.0625 0.984375
vt 0.015625 0.984375
vt 0.015625 0.96875
vt 0.0625 0.96875
vt 0.0625 0.984375
vt 0.015625 0.984375
vt 0.015625 0.96875
vt 0.046875 0.96875
vt 0.046875 0.984375
vt 0 0.984375
vt 0 0.96875
vt 0.046875 0.96875
vt 0.046875 0.984375
vt 0.015625 0.984375
vt 0.015625 0.96875
vt 0.03125 0.96875
vt 0.03125 0.984375
vt 0 0.984375
vt 0 0.96875
vt 0.0625 0.96875
vt 0.0625 1
vt 0.046875 1
vt 0.046875 0.96875
vt 0.0625 0.953125
vt 0.0625 0.984375
vt 0.046875 0.984375
vt 0.046875 0.953125
vt 0.0625 0.96875
vt 0.0625 0.984375
vt 0.046875 0.984375
vt 0.046875 0.96875
vt 0.015625 0.96875
vt 0.015625 0.984375
vt 0 0.984375
vt 0 0.96875
vt 0.03125 0.96875
vt 0.03125 0.984375
vt 0.015625 0.984375
vt 0.015625 0.96875
vt 0.015625 0.96875
vt 0.015625 0.984375
vt 0 0.984375
vt 0 0.96875
vt 0.0625 0.984375
vt 0.0625 1
vt 0.015625 1
vt 0.015625 0.984375
vt 0.0625 0.96875
vt 0.0625 0.984375
vt 0.015625 0.984375
vt 0.015625 0.96875
vt 0.0625 0.96875
vt 0.0625 0.984375
vt 0.015625 0.984375
vt 0.015625 0.96875
vt 0.046875 0.96875
vt 0.046875 0.984375
vt 0 0.984375
vt 0 0.96875
vt 0.046875 0.96875
vt 0.046875 0.984375
vt 0.015625 0.984375
vt 0.015625 0.96875
vt 0.03125 0.96875
vt 0.03125 0.984375
vt 0 0.984375
vt 0 0.96875
vt 0.0625 0.96875
vt 0.0625 1
vt 0.046875 1
vt 0.046875 0.96875
vt 0.0625 0.953125
vt 0.0625 0.984375
vt 0.046875 0.984375
vt 0.046875 0.953125
vt 0.0625 0.96875
vt 0.0625 0.984375
vt 0.046875 0.984375
vt 0.046875 0.96875
vt 0.015625 0.96875
vt 0.015625 0.984375
vt 0 0.984375
vt 0 0.96875
vt 0.03125 0.96875
vt 0.03125 0.984375
vt 0.015625 0.984375
vt 0.015625 0.96875
vt 0.015625 0.96875
vt 0.015625 0.984375
vt 0 0.984375
vt 0 0.96875
vt 0.0625 0.984375
vt 0.0625 1
vt 0.015625 1
vt 0.015625 0.984375
vt 0.0625 0.96875
vt 0.0625 0.984375
vt 0.015625 0.984375
vt 0.015625 0.96875
vt 0.0625 0.96875
vt 0.0625 0.984375
vt 0.015625 0.984375
vt 0.015625 0.96875
vt 0.046875 0.96875
vt 0.046875 0.984375
vt 0 0.984375
vt 0 0.96875
vt 0.03125 0.96875
vt 0.03125 0.984375
vt 0.015625 0.984375
vt 0.015625 0.96875
vt 0.015625 0.96875
vt 0.015625 0.984375
vt 0 0.984375
vt 0 0.96875
vt 0.0625 0.984375
vt 0.0625 1
vt 0.015625 1
vt 0.015625 0.984375
vt 0.0625 0.96875
vt 0.0625 0.984375
vt 0.015625 0.984375
vt 0.015625 0.96875
vt 0.0625 0.96875
vt 0.0625 0.984375
vt 0.015625 0.984375
vt 0.015625 0.96875
vt 0.046875 0.96875
vt 0.046875 0.984375
vt 0 0.984375
vt 0 0.96875
vt 0.03125 0.75
vt 0.03125 1
vt 0 1
vt 0 0.75
vt 0.03125 0.75
vt 0.03125 1
vt 0 1
vt 0 0.75
vt 0.046875 0.96875
vt 0.046875 1
vt 0 1
vt 0 0.96875
vt 0.046875 0.96875
vt 0.046875 1
vt 0 1
vt 0 0.96875
vt 0.046875 0.75
vt 0.046875 1
vt 0 1
vt 0 0.75
vt 0.046875 0.75
vt 0.046875 1
vt 0 1
vt 0 0.75
vt 0.03125 0.75
vt 0.03125 1
vt 0 1
vt 0 0.75
vt 0.03125 0.75
vt 0.03125 1
vt 0 1
vt 0 0.75
vt 0.046875 0.96875
vt 0.046875 1
vt 0 1
vt 0 0.96875
vt 0.046875 0.96875
vt 0.046875 1
vt 0 1
vt 0 0.96875
vt 0.046875 0.75
vt 0.046875 1
vt 0 1
vt 0 0.75
vt 0.046875 0.75
vt 0.046875 1
vt 0 1
vt 0 0.75
vt 0.171875 0.9375
vt 0.171875 0.953125
vt 0.109375 0.953125
vt 0.109375 0.9375
vt 0.171875 0.9375
vt 0.171875 0.953125
vt 0.109375 0.953125
vt 0.109375 0.9375
vt 0.028125 0.9375
vt 0.028125 1
vt 0 1
vt 0 0.9375
vt 0.028125 0.9375
vt 0.028125 1
vt 0 1
vt 0 0.9375
vt 0.028125 0.984375
vt 0.028125 1
vt 0 1
vt 0 0.984375
vt 0.028125 0.984375
vt 0.028125 1
vt 0 1
vt 0 0.984375
vt 0.15625 0.90625
vt 0.15625 0.921875
vt 0.09375 0.921875
vt 0.09375 0.90625
vt 0.15625 0.90625
vt 0.15625 0.921875
vt 0.09375 0.921875
vt 0.09375 0.90625
vt 0.046875 0.9375
vt 0.046875 1
vt 0 1
vt 0 0.9375
vt 0.046875 0.9375
vt 0.046875 1
vt 0 1
vt 0 0.9375
vt 0.140625 0.90625
vt 0.140625 0.921875
vt 0.09375 0.921875
vt 0.09375 0.90625
vt 0.140625 0.90625
vt 0.140625 0.921875
vt 0.09375 0.921875
vt 0.09375 0.90625
vt 0.15625 0.875
vt 0.15625 0.921875
vt 0.09375 0.921875
vt 0.09375 0.875
vt 0.15625 0.875
vt 0.15625 0.921875
vt 0.09375 0.921875
vt 0.09375 0.875
vt 0.046875 0.9375
vt 0.046875 1
vt 0 1
vt 0 0.9375
vt 0.046875 0.9375
vt 0.046875 1
vt 0 1
vt 0 0.9375
vt 0.140625 0.90625
vt 0.140625 0.921875
vt 0.09375 0.921875
vt 0.09375 0.90625
vt 0.140625 0.90625
vt 0.140625 0.921875
vt 0.09375 0.921875
vt 0.09375 0.90625
vt 0.75 0.71875
vt 0.75 0.734375
vt 0.734375 0.734375
vt 0.734375 0.71875
vt 0.75 0.71875
vt 0.75 0.734375
vt 0.734375 0.734375
vt 0.734375 0.71875
vt 0.609375 0.71875
vt 0.609375 0.734375
vt 0.5 0.734375
vt 0.5 0.71875
vt 0.609375 0.71875
vt 0.609375 0.734375
vt 0.5 0.734375
vt 0.5 0.71875
vt 0.609375 0.71875
vt 0.609375 0.734375
vt 0.5 0.734375
vt 0.5 0.71875
vt 0.609375 0.71875
vt 0.609375 0.734375
vt 0.5 0.734375
vt 0.5 0.71875
vt 0.75 0.71875
vt 0.75 0.734375
vt 0.734375 0.734375
vt 0.734375 0.71875
vt 0.75 0.71875
vt 0.75 0.734375
vt 0.734375 0.734375
vt 0.734375 0.71875
vt 0.609375 0.71875
vt 0.609375 0.734375
vt 0.5 0.734375
vt 0.5 0.71875
vt 0.609375 0.71875
vt 0.609375 0.734375
vt 0.5 0.734375
vt 0.5 0.71875
vt 0.609375 0.71875
vt 0.609375 0.734375
vt 0.5 0.734375
vt 0.5 0.71875
vt 0.609375 0.71875
vt 0.609375 0.734375
vt 0.5 0.734375
vt 0.5 0.71875
vt 0.75 0.71875
vt 0.75 0.734375
vt 0.734375 0.734375
vt 0.734375 0.71875
vt 0.75 0.71875
vt 0.75 0.734375
vt 0.734375 0.734375
vt 0.734375 0.71875
vt 0.609375 0.71875
vt 0.609375 0.734375
vt 0.5 0.734375
vt 0.5 0.71875
vt 0.609375 0.71875
vt 0.609375 0.734375
vt 0.5 0.734375
vt 0.5 0.71875
vt 0.609375 0.71875
vt 0.609375 0.734375
vt 0.5 0.734375
vt 0.5 0.71875
vt 0.609375 0.71875
vt 0.609375 0.734375
vt 0.5 0.734375
vt 0.5 0.71875
vt 0.75 0.71875
vt 0.75 0.734375
vt 0.734375 0.734375
vt 0.734375 0.71875
vt 0.75 0.71875
vt 0.75 0.734375
vt 0.734375 0.734375
vt 0.734375 0.71875
vt 0.609375 0.71875
vt 0.609375 0.734375
vt 0.5 0.734375
vt 0.5 0.71875
vt 0.609375 0.71875
vt 0.609375 0.734375
vt 0.5 0.734375
vt 0.5 0.71875
vt 0.609375 0.71875
vt 0.609375 0.734375
vt 0.5 0.734375
vt 0.5 0.71875
vt 0.609375 0.71875
vt 0.609375 0.734375
vt 0.5 0.734375
vt 0.5 0.71875
vt 0.1875 0.578125
vt 0.1875 0.6875
vt 0 0.6875
vt 0 0.578125
vt 0.1875 0.578125
vt 0.1875 0.6875
vt 0 0.6875
vt 0 0.578125
vt 0.1875 0.5
vt 0.1875 0.6875
vt 0 0.6875
vt 0 0.5
vt 0.1875 0.5
vt 0.1875 0.6875
vt 0 0.6875
vt 0 0.5
vt 0.1875 0.578125
vt 0.1875 0.6875
vt 0 0.6875
vt 0 0.578125
vt 0.1875 0.578125
vt 0.1875 0.6875
vt 0 0.6875
vt 0 0.578125
vt 0.140625 0.984375
vt 0.140625 1
vt 0.015625 1
vt 0.015625 0.984375
vt 0.140625 0.984375
vt 0.140625 1
vt 0.015625 1
vt 0.015625 0.984375
vt 0.15625 0.859375
vt 0.15625 0.984375
vt 0 0.984375
vt 0 0.859375
vt 0.15625 0.859375
vt 0.15625 0.984375
vt 0 0.984375
vt 0 0.859375
vt 0.15625 0.984375
vt 0.15625 1
vt 0 1
vt 0 0.984375
vt 0.15625 0.984375
vt 0.15625 1
vt 0 1
vt 0 0.984375
vt 0.0203125 0.96875
vt 0.0203125 1
vt 0 1
vt 0 0.96875
vt 0.028125 0.96875
vt 0.028125 1
vt 0.0078125 1
vt 0.0078125 0.96875
vt 0.078125 0.971875
vt 0.078125 0.9921875
vt 0 0.9921875
vt 0 0.971875
vt 0.078125 0.9796875
vt 0.078125 1
vt 0 1
vt 0 0.9796875
vt 0.078125 0.96875
vt 0.078125 1
vt 0 1
vt 0 0.96875
vt 0.078125 0.96875
vt 0.078125 1
vt 0 1
vt 0 0.96875
vt 0.0203125 0.96875
vt 0.0203125 1
vt 0 1
vt 0 0.96875
vt 0.028125 0.96875
vt 0.028125 1
vt 0.0078125 1
vt 0.0078125 0.96875
vt 0.078125 0.971875
vt 0.078125 0.9921875
vt 0 0.9921875
vt 0 0.971875
vt 0.078125 0.9796875
vt 0.078125 1
vt 0 1
vt 0 0.9796875
vt 0.078125 0.96875
vt 0.078125 1
vt 0 1
vt 0 0.96875
vt 0.078125 0.96875
vt 0.078125 1
vt 0 1
vt 0 0.96875
vt 0.028125 0.96875
vt 0.028125 1
vt 0.0078125 1
vt 0.0078125 0.96875
vt 0.0203125 0.96875
vt 0.0203125 1
vt 0 1
vt 0 0.96875
vt 0.078125 0.9796875
vt 0.078125 1
vt 0 1
vt 0 0.9796875
vt 0.078125 0.971875
vt 0.078125 0.9921875
vt 0 0.9921875
vt 0 0.971875
vt 0.078125 0.96875
vt 0.078125 1
vt 0 1
vt 0 0.96875
vt 0.078125 0.96875
vt 0.078125 1
vt 0 1
vt 0 0.96875
vt 0.028125 0.96875
vt 0.028125 1
vt 0.0078125 1
vt 0.0078125 0.96875
vt 0.0203125 0.96875
vt 0.0203125 1
vt 0 1
vt 0 0.96875
vt 0.078125 0.9796875
vt 0.078125 1
vt 0 1
vt 0 0.9796875
vt 0.078125 0.971875
vt 0.078125 0.9921875
vt 0 0.9921875
vt 0 0.971875
vt 0.078125 0.96875
vt 0.078125 1
vt 0 1
vt 0 0.96875
vt 0.078125 0.96875
vt 0.078125 1
vt 0 1
vt 0 0.96875
vt 0.515625 0.84375
vt 0.515625 1
vt 0.4375 1
vt 0.4375 0.84375
vt 0.515625 0.84375
vt 0.515625 1
vt 0.4375 1
vt 0.4375 0.84375
vt 0.390625 0.75
vt 0.390625 0.828125
vt 0.265625 0.828125
vt 0.265625 0.75
vt 0.390625 0.75
vt 0.390625 0.828125
vt 0.265625 0.828125
vt 0.265625 0.75
vt 0.390625 0.84375
vt 0.390625 1
vt 0.265625 1
vt 0.265625 0.84375
vt 0.390625 0.84375
vt 0.390625 1
vt 0.265625 1
vt 0.265625 0.84375
vt 0.0125 0.953125
vt 0.0125 1
vt 0 1
vt 0 0.953125
vt 0.090625 0.953125
vt 0.090625 1
vt 0.078125 1
vt 0.078125 0.953125
vt 0.078125 0.909375
vt 0.078125 0.921875
vt 0 0.921875
vt 0 0.909375
vt 0.078125 0.9875
vt 0.078125 1
vt 0 1
vt 0 0.9875
vt 0.078125 0.953125
vt 0.078125 1
vt 0 1
vt 0 0.953125
vt 0.078125 0.953125
vt 0.078125 1
vt 0 1
vt 0 0.953125
vt 0.125 0.984375
vt 0.125 1
vt 0 1
vt 0 0.984375
vt 0.125 0.984375
vt 0.125 1
vt 0 1
vt 0 0.984375
vt 0.25 0.875
vt 0.25 1
vt 0 1
vt 0 0.875
vt 0.25 0.875
vt 0.25 1
vt 0 1
vt 0 0.875
vt 0.25 0.984375
vt 0.25 1
vt 0 1
vt 0 0.984375
vt 0.25 0.984375
vt 0.25 1
vt 0 1
vt 0 0.984375
vt 0.109375 0.96875
vt 0.109375 1
vt 0.015625 1
vt 0.015625 0.96875
vt 0.109375 0.96875
vt 0.109375 1
vt 0.015625 1
vt 0.015625 0.96875
vt 0.2109375 0
vt 0.2109375 0.09375
vt 0 0.09375
vt 0 0
vt 0.2265625 0.90625
vt 0.2265625 1
vt 0.015625 1
vt 0.015625 0.90625
vt 0.21875 0.96875
vt 0.21875 1
vt 0.0078125 1
vt 0.0078125 0.96875
vt 0.2109375 0.96875
vt 0.2109375 1
vt 0 1
vt 0 0.96875
vt 0.109375 0.96875
vt 0.109375 1
vt 0.015625 1
vt 0.015625 0.96875
vt 0.109375 0.96875
vt 0.109375 1
vt 0.015625 1
vt 0.015625 0.96875
vt 0.2109375 0
vt 0.2109375 0.09375
vt 0 0.09375
vt 0 0
vt 0.2265625 0.90625
vt 0.2265625 1
vt 0.015625 1
vt 0.015625 0.90625
vt 0.21875 0.96875
vt 0.21875 1
vt 0.0078125 1
vt 0.0078125 0.96875
vt 0.2109375 0.96875
vt 0.2109375 1
vt 0 1
vt 0 0.96875
vt 0.109375 0.9375
vt 0.109375 0.953125
vt 0.015625 0.953125
vt 0.015625 0.9375
vt 0.109375 0.9375
vt 0.109375 0.953125
vt 0.015625 0.953125
vt 0.015625 0.9375
vt 0.2109375 0
vt 0.2109375 0.09375
vt 0 0.09375
vt 0 0
vt 0.2109375 0
vt 0.2109375 0.09375
vt 0 0.09375
vt 0 0
vt 0.109375 0.9375
vt 0.109375 0.953125
vt 0.0078125 0.953125
vt 0.0078125 0.9375
vt 0.1015625 0.9375
vt 0.1015625 0.953125
vt 0 0.953125
vt 0 0.9375
vt 0.125 1
vt 0.109375 1
vt 0.125 0.96875
vt 0.140625 1
vt 0.125 1
vt 0.125 0.96875
vt 0.140625 0.96875
vt 0.140625 0.984375
vt 0.125 0.984375
vt 0.125 0.96875
vt 0.140625 0.96875
vt 0.140625 1
vt 0.125 1
vt 0.125 0.96875
vt 0.125 0.96875
vt 0.125 1
vt 0.109375 1
vt 0.109375 0.96875
vt 0.125 1
vt 0.109375 1
vt 0.125 0.96875
vt 0.140625 1
vt 0.125 1
vt 0.125 0.96875
vt 0.140625 0.96875
vt 0.140625 0.984375
vt 0.125 0.984375
vt 0.125 0.96875
vt 0.140625 0.96875
vt 0.140625 1
vt 0.125 1
vt 0.125 0.96875
vt 0.125 0.96875
vt 0.125 1
vt 0.109375 1
vt 0.109375 0.96875
vt 0.125 1
vt 0.109375 1
vt 0.125 0.96875
vt 0.140625 1
vt 0.125 1
vt 0.125 0.96875
vt 0.140625 0.96875
vt 0.140625 0.984375
vt 0.125 0.984375
vt 0.125 0.96875
vt 0.140625 0.96875
vt 0.140625 1
vt 0.125 1
vt 0.125 0.96875
vt 0.125 0.96875
vt 0.125 1
vt 0.109375 1
vt 0.109375 0.96875
vt 0.125 1
vt 0.109375 1
vt 0.125 0.96875
vt 0.140625 1
vt 0.125 1
vt 0.125 0.96875
vt 0.140625 0.96875
vt 0.140625 0.984375
vt 0.125 0.984375
vt 0.125 0.96875
vt 0.140625 0.96875
vt 0.140625 1
vt 0.125 1
vt 0.125 0.96875
vt 0.125 0.96875
vt 0.125 1
vt 0.109375 1
vt 0.109375 0.96875
vt 0.125 1
vt 0.109375 1
vt 0.125 0.96875
vt 0.140625 1
vt 0.125 1
vt 0.125 0.96875
vt 0.140625 0.96875
vt 0.140625 0.984375
vt 0.125 0.984375
vt 0.125 0.96875
vt 0.140625 0.96875
vt 0.140625 1
vt 0.125 1
vt 0.125 0.96875
vt 0.125 0.96875
vt 0.125 1
vt 0.109375 1
vt 0.109375 0.96875
vt 0.109375 1
vt 0.125 1
vt 0.125 0.96875
vt 0.125 1
vt 0.140625 1
vt 0.125 0.96875
vt 0.125 0.984375
vt 0.140625 0.984375
vt 0.140625 0.96875
vt 0.125 0.96875
vt 0.125 1
vt 0.140625 1
vt 0.140625 0.96875
vt 0.125 0.96875
vt 0.109375 1
vt 0.125 1
vt 0.125 0.96875
vt 0.109375 0.96875
vt 0.109375 1
vt 0.125 1
vt 0.125 0.96875
vt 0.125 1
vt 0.140625 1
vt 0.125 0.96875
vt 0.125 0.984375
vt 0.140625 0.984375
vt 0.140625 0.96875
vt 0.125 0.96875
vt 0.125 1
vt 0.140625 1
vt 0.140625 0.96875
vt 0.125 0.96875
vt 0.109375 1
vt 0.125 1
vt 0.125 0.96875
vt 0.109375 0.96875
vt 0.109375 1
vt 0.125 1
vt 0.125 0.96875
vt 0.125 1
vt 0.140625 1
vt 0.125 0.96875
vt 0.125 0.984375
vt 0.140625 0.984375
vt 0.140625 0.96875
vt 0.125 0.96875
vt 0.125 1
vt 0.140625 1
vt 0.140625 0.96875
vt 0.125 0.96875
vt 0.109375 1
vt 0.125 1
vt 0.125 0.96875
vt 0.109375 0.96875
vt 0.03125 0.9375
vt 0.03125 1
vt 0 1
vt 0 0.9375
vt 0.03125 0.9375
vt 0.03125 1
vt 0 1
vt 0 0.9375
vt 0.03125 0.96875
vt 0.03125 1
vt 0.015625 1
vt 0.015625 0.96875
vt 0.03125 0.96875
vt 0.03125 1
vt 0.015625 1
vt 0.015625 0.96875
vt 0.03125 0.9375
vt 0.03125 1
vt 0.015625 1
vt 0.015625 0.9375
vt 0.015625 0.9375
vt 0.015625 1
vt 0 1
vt 0 0.9375
vt 0.3203125 0.4234375
vt 0.3203125 0.453125
vt 0.3046875 0.453125
vt 0.3046875 0.4234375
vt 0.3203125 0.4234375
vt 0.3203125 0.453125
vt 0.3046875 0.453125
vt 0.3046875 0.4234375
vt 0.328125 0.4296875
vt 0.328125 0.4453125
vt 0.31640625 0.4453125
vt 0.31640625 0.4296875
vt 0.328125 0.4296875
vt 0.328125 0.4453125
vt 0.31640625 0.4453125
vt 0.31640625 0.4296875
vt 0.328125 0.4234375
vt 0.328125 0.453125
vt 0.31640625 0.453125
vt 0.31640625 0.4234375
vt 0.30859375 0.4234375
vt 0.30859375 0.453125
vt 0.296875 0.453125
vt 0.296875 0.4234375
vt 0.3203125 0.4375
vt 0.3203125 0.44921875
vt 0.3046875 0.44921875
vt 0.3046875 0.4375
vt 0.3203125 0.4375
vt 0.3203125 0.44921875
vt 0.3046875 0.44921875
vt 0.3046875 0.4375
vt 0.34765625 0.4296875
vt 0.34765625 0.4453125
vt 0.296875 0.4453125
vt 0.296875 0.4296875
vt 0.34765625 0.4296875
vt 0.34765625 0.4453125
vt 0.296875 0.4453125
vt 0.296875 0.4296875
vt 0.34765625 0.4375
vt 0.34765625 0.44921875
vt 0.296875 0.44921875
vt 0.296875 0.4375
vt 0.35546875 0.4375
vt 0.35546875 0.44921875
vt 0.3046875 0.44921875
vt 0.3046875 0.4375
vt 0.3203125 0.4375
vt 0.3203125 0.44921875
vt 0.3046875 0.44921875
vt 0.3046875 0.4375
vt 0.3203125 0.4375
vt 0.3203125 0.44921875
vt 0.3046875 0.44921875
vt 0.3046875 0.4375
vt 0.34765625 0.4296875
vt 0.34765625 0.4453125
vt 0.296875 0.4453125
vt 0.296875 0.4296875
vt 0.34765625 0.4296875
vt 0.34765625 0.4453125
vt 0.296875 0.4453125
vt 0.296875 0.4296875
vt 0.34765625 0.4375
vt 0.34765625 0.44921875
vt 0.296875 0.44921875
vt 0.296875 0.4375
vt 0.35546875 0.4375
vt 0.35546875 0.44921875
vt 0.3046875 0.44921875
vt 0.3046875 0.4375
vt 0.3203125 0.4375
vt 0.3203125 0.44921875
vt 0.3046875 0.44921875
vt 0.3046875 0.4375
vt 0.3203125 0.4375
vt 0.3203125 0.44921875
vt 0.3046875 0.44921875
vt 0.3046875 0.4375
vt 0.35546875 0.4296875
vt 0.35546875 0.4453125
vt 0.32421875 0.4453125
vt 0.32421875 0.4296875
vt 0.35546875 0.4296875
vt 0.35546875 0.4453125
vt 0.32421875 0.4453125
vt 0.32421875 0.4296875
vt 0.35546875 0.4375
vt 0.35546875 0.44921875
vt 0.32421875 0.44921875
vt 0.32421875 0.4375
vt 0.328125 0.4375
vt 0.328125 0.44921875
vt 0.296875 0.44921875
vt 0.296875 0.4375
vt 0.3203125 0.4375
vt 0.3203125 0.44921875
vt 0.3046875 0.44921875
vt 0.3046875 0.4375
vt 0.3203125 0.4375
vt 0.3203125 0.44921875
vt 0.3046875 0.44921875
vt 0.3046875 0.4375
vt 0.35546875 0.4296875
vt 0.35546875 0.4453125
vt 0.296875 0.4453125
vt 0.296875 0.4296875
vt 0.35546875 0.4296875
vt 0.35546875 0.4453125
vt 0.296875 0.4453125
vt 0.296875 0.4296875
vt 0.35546875 0.4375
vt 0.35546875 0.44921875
vt 0.296875 0.44921875
vt 0.296875 0.4375
vt 0.35546875 0.4375
vt 0.35546875 0.44921875
vt 0.296875 0.44921875
vt 0.296875 0.4375
vt 0.03125 0.96875
vt 0.03125 1
vt 0.015625 1
vt 0.015625 0.96875
vt 0.015625 0.96875
vt 0.015625 1
vt 0 1
vt 0 0.96875
vt 0.015625 0.984375
vt 0.015625 1
vt 0 1
vt 0 0.984375
vt 0.015625 0.96875
vt 0.015625 0.984375
vt 0 0.984375
vt 0 0.96875
vt 0.015625 0.96875
vt 0.015625 1
vt 0 1
vt 0 0.96875
vt 0.03125 0.96875
vt 0.03125 1
vt 0.015625 1
vt 0.015625 0.96875
vt 0.03125 0.96875
vt 0.03125 1
vt 0.015625 1
vt 0.015625 0.96875
vt 0.015625 0.96875
vt 0.015625 1
vt 0 1
vt 0 0.96875
vt 0.015625 0.96875
vt 0.015625 0.984375
vt 0 0.984375
vt 0 0.96875
vt 0.015625 0.96875
vt 0.015625 1
vt 0 1
vt 0 0.96875
vt 0.03125 0.96875
vt 0.03125 1
vt 0.015625 1
vt 0.015625 0.96875
vt 0.015625 0.984375
vt 0.015625 1
vt 0 1
vt 0 0.984375
vt 0.03125 0.96875
vt 0.03125 1
vt 0 1
vt 0 0.96875
vt 0.03125 0.96875
vt 0.03125 1
vt 0 1
vt 0 0.96875
vt 0.015625 0.96875
vt 0.015625 1
vt 0 1
vt 0 0.96875
vt 0.015625 0.96875
vt 0.015625 1
vt 0 1
vt 0 0.96875
vt 0.03125 0.96875
vt 0.03125 1
vt 0.015625 1
vt 0.015625 0.96875
vt 0.015625 0.96875
vt 0.015625 1
vt 0 1
vt 0 0.96875
vt 0.03125 0.96875
vt 0.03125 1
vt 0 1
vt 0 0.96875
vt 0.03125 0.96875
vt 0.03125 1
vt 0 1
vt 0 0.96875
vt 0.015625 0.96875
vt 0.015625 1
vt 0 1
vt 0 0.96875
vt 0.015625 0.96875
vt 0.015625 1
vt 0 1
vt 0 0.96875
vt 0.015625 0.96875
vt 0.015625 1
vt 0 1
vt 0 0.96875
vt 0.03125 0.96875
vt 0.03125 1
vt 0.015625 1
vt 0.015625 0.96875
vt 1 0.875
vt 1 0.9375
vt 0 0.9375
vt 0 0.875
vt 1 0.875
vt 1 0.9375
vt 0 0.9375
vt 0 0.875
vt 0.9375 0
vt 0.9375 1
vt 0.0625 1
vt 0.0625 0
vt 0.9375 0
vt 0.9375 1
vt 0.0625 1
vt 0.0625 0
vt 0.9375 0.875
vt 0.9375 0.9375
vt 0.0625 0.9375
vt 0.0625 0.875
vt 0.9375 0.875
vt 0.9375 0.9375
vt 0.0625 0.9375
vt 0.0625 0.875
vt 1 0.90625
vt 1 0.9375
vt 0.5 0.9375
vt 0.5 0.90625
vt 0.5 0.90625
vt 0.5 0.9375
vt 0 0.9375
vt 0 0.90625
vt 1 0.5
vt 1 1
vt 0.96875 1
vt 0.96875 0.5
vt 1 0
vt 1 0.5
vt 0.96875 0.5
vt 0.96875 0
vt 1 0.90625
vt 1 0.9375
vt 0.96875 0.9375
vt 0.96875 0.90625
vt 0.03125 0.90625
vt 0.03125 0.9375
vt 0 0.9375
vt 0 0.90625
vt 1 0.90625
vt 1 0.9375
vt 0.5 0.9375
vt 0.5 0.90625
vt 0.5 0.90625
vt 0.5 0.9375
vt 0 0.9375
vt 0 0.90625
vt 1 0.5
vt 1 1
vt 0.96875 1
vt 0.96875 0.5
vt 1 0
vt 1 0.5
vt 0.96875 0.5
vt 0.96875 0
vt 1 0.90625
vt 1 0.9375
vt 0.96875 0.9375
vt 0.96875 0.90625
vt 0.03125 0.90625
vt 0.03125 0.9375
vt 0 0.9375
vt 0 0.90625
vt 0.0625 0.875
vt 0.0625 0.9375
vt 0 0.9375
vt 0 0.875
vt 1 0.875
vt 1 0.9375
vt 0.9375 0.9375
vt 0.9375 0.875
vt 1 0
vt 1 0.0625
vt 0.125 0.0625
vt 0.125 0
vt 1 0.9375
vt 1 1
vt 0.125 1
vt 0.125 0.9375
vt 1 0.875
vt 1 0.9375
vt 0.125 0.9375
vt 0.125 0.875
vt 0.875 0.875
vt 0.875 0.9375
vt 0 0.9375
vt 0 0.875
vt 0.0625 0.90625
vt 0.0625 0.9375
vt 0.03125 0.9375
vt 0.03125 0.90625
vt 0.96875 0.90625
vt 0.96875 0.9375
vt 0.9375 0.9375
vt 0.9375 0.90625
vt 1 0.03125
vt 1 0.0625
vt 0.1875 0.0625
vt 0.1875 0.03125
vt 1 0.9375
vt 1 0.96875
vt 0.1875 0.96875
vt 0.1875 0.9375
vt 1 0.90625
vt 1 0.9375
vt 0.1875 0.9375
vt 0.1875 0.90625
vt 0.8125 0.90625
vt 0.8125 0.9375
vt 0 0.9375
vt 0 0.90625
vt 0.0625 0.90625
vt 0.0625 0.9375
vt 0.03125 0.9375
vt 0.03125 0.90625
vt 0.96875 0.90625
vt 0.96875 0.9375
vt 0.9375 0.9375
vt 0.9375 0.90625
vt 1 0.03125
vt 1 0.0625
vt 0.1875 0.0625
vt 0.1875 0.03125
vt 1 0.9375
vt 1 0.96875
vt 0.1875 0.96875
vt 0.1875 0.9375
vt 1 0.90625
vt 1 0.9375
vt 0.1875 0.9375
vt 0.1875 0.90625
vt 0.8125 0.90625
vt 0.8125 0.9375
vt 0 0.9375
vt 0 0.90625
vt 0.03125 0.90625
vt 0.03125 0.9375
vt 0 0.9375
vt 0 0.90625
vt 1 0.90625
vt 1 0.9375
vt 0.96875 0.9375
vt 0.96875 0.90625
vt 1 0
vt 1 0.03125
vt 0.625 0.03125
vt 0.625 0
vt 1 0.96875
vt 1 1
vt 0.625 1
vt 0.625 0.96875
vt 1 0.90625
vt 1 0.9375
vt 0.625 0.9375
vt 0.625 0.90625
vt 0.375 0.90625
vt 0.375 0.9375
vt 0 0.9375
vt 0 0.90625
vt 0.03125 0.90625
vt 0.03125 0.9375
vt 0 0.9375
vt 0 0.90625
vt 1 0.90625
vt 1 0.9375
vt 0.96875 0.9375
vt 0.96875 0.90625
vt 1 0
vt 1 0.03125
vt 0.625 0.03125
vt 0.625 0
vt 1 0.96875
vt 1 1
vt 0.625 1
vt 0.625 0.96875
vt 1 0.90625
vt 1 0.9375
vt 0.625 0.9375
vt 0.625 0.90625
vt 0.375 0.90625
vt 0.375 0.9375
vt 0 0.9375
vt 0 0.90625
vt 0.0625 0
vt 0.0625 0.9375
vt 0.03125 0.9375
vt 0.03125 0
vt 0.96875 0
vt 0.96875 0.9375
vt 0.9375 0.9375
vt 0.9375 0
vt 0.28125 0.03125
vt 0.28125 0.0625
vt 0.25 0.0625
vt 0.25 0.03125
vt 0.28125 0.9375
vt 0.28125 0.96875
vt 0.25 0.96875
vt 0.25 0.9375
vt 0.28125 0
vt 0.28125 0.9375
vt 0.25 0.9375
vt 0.25 0
vt 0.75 0
vt 0.75 0.9375
vt 0.71875 0.9375
vt 0.71875 0
vt 0.0625 0
vt 0.0625 0.9375
vt 0.03125 0.9375
vt 0.03125 0
vt 0.96875 0
vt 0.96875 0.9375
vt 0.9375 0.9375
vt 0.9375 0
vt 0.3125 0.03125
vt 0.3125 0.0625
vt 0.28125 0.0625
vt 0.28125 0.03125
vt 0.3125 0.9375
vt 0.3125 0.96875
vt 0.28125 0.96875
vt 0.28125 0.9375
vt 0.3125 0
vt 0.3125 0.9375
vt 0.28125 0.9375
vt 0.28125 0
vt 0.71875 0
vt 0.71875 0.9375
vt 0.6875 0.9375
vt 0.6875 0
vt 0.03125 0
vt 0.03125 0.9375
vt 0 0.9375
vt 0 0
vt 1 0
vt 1 0.9375
vt 0.96875 0.9375
vt 0.96875 0
vt 0.3125 0
vt 0.3125 0.03125
vt 0.28125 0.03125
vt 0.28125 0
vt 0.3125 0.96875
vt 0.3125 1
vt 0.28125 1
vt 0.28125 0.96875
vt 0.3125 0
vt 0.3125 0.9375
vt 0.28125 0.9375
vt 0.28125 0
vt 0.71875 0
vt 0.71875 0.9375
vt 0.6875 0.9375
vt 0.6875 0
vt 0.03125 0
vt 0.03125 0.9375
vt 0 0.9375
vt 0 0
vt 1 0
vt 1 0.9375
vt 0.96875 0.9375
vt 0.96875 0
vt 0.28125 0
vt 0.28125 0.03125
vt 0.25 0.03125
vt 0.25 0
vt 0.28125 0.96875
vt 0.28125 1
vt 0.25 1
vt 0.25 0.96875
vt 0.28125 0
vt 0.28125 0.9375
vt 0.25 0.9375
vt 0.25 0
vt 0.75 0
vt 0.75 0.9375
vt 0.71875 0.9375
vt 0.71875 0
vt 0.03125 0
vt 0.03125 0.9375
vt 0 0.9375
vt 0 0
vt 1 0
vt 1 0.9375
vt 0.96875 0.9375
vt 0.96875 0
vt 0.3125 0
vt 0.3125 0.03125
vt 0.28125 0.03125
vt 0.28125 0
vt 0.3125 0.96875
vt 0.3125 1
vt 0.28125 1
vt 0.28125 0.96875
vt 0.3125 0
vt 0.3125 0.9375
vt 0.28125 0.9375
vt 0.28125 0
vt 0.71875 0
vt 0.71875 0.9375
vt 0.6875 0.9375
vt 0.6875 0
vt 0.03125 0
vt 0.03125 0.9375
vt 0 0.9375
vt 0 0
vt 1 0
vt 1 0.9375
vt 0.96875 0.9375
vt 0.96875 0
vt 0.28125 0
vt 0.28125 0.03125
vt 0.25 0.03125
vt 0.25 0
vt 0.28125 0.96875
vt 0.28125 1
vt 0.25 1
vt 0.25 0.96875
vt 0.28125 0
vt 0.28125 0.9375
vt 0.25 0.9375
vt 0.25 0
vt 0.75 0
vt 0.75 0.9375
vt 0.71875 0.9375
vt 0.71875 0
vt 1 0.90625
vt 1 0.9375
vt 0 0.9375
vt 0 0.90625
vt 1 0.90625
vt 1 0.9375
vt 0 0.9375
vt 0 0.90625
vt 0.28125 0
vt 0.28125 1
vt 0.25 1
vt 0.25 0
vt 0.28125 0
vt 0.28125 1
vt 0.25 1
vt 0.25 0
vt 0.28125 0.90625
vt 0.28125 0.9375
vt 0.25 0.9375
vt 0.25 0.90625
vt 0.75 0.90625
vt 0.75 0.9375
vt 0.71875 0.9375
vt 0.71875 0.90625
vt 1 0.90625
vt 1 0.9375
vt 0 0.9375
vt 0 0.90625
vt 1 0.90625
vt 1 0.9375
vt 0 0.9375
vt 0 0.90625
vt 0.28125 0
vt 0.28125 1
vt 0.25 1
vt 0.25 0
vt 0.28125 0
vt 0.28125 1
vt 0.25 1
vt 0.25 0
vt 0.28125 0.90625
vt 0.28125 0.9375
vt 0.25 0.9375
vt 0.25 0.90625
vt 0.75 0.90625
vt 0.75 0.9375
vt 0.71875 0.9375
vt 0.71875 0.90625
vt 0.5 0.875
vt 0.5 0.9375
vt 0 0.9375
vt 0 0.875
vt 1 0.875
vt 1 0.9375
vt 0.5 0.9375
vt 0.5 0.875
vt 0.21875 0
vt 0.21875 0.5
vt 0.03125 0.5
vt 0.03125 0
vt 0.21875 0.5
vt 0.21875 1
vt 0.03125 1
vt 0.03125 0.5
vt 0.21875 0.875
vt 0.21875 0.9375
vt 0.03125 0.9375
vt 0.03125 0.875
vt 0.59375 0.875
vt 0.59375 0.9375
vt 0.40625 0.9375
vt 0.40625 0.875
vt 0.5 0.8125
vt 0.5 0.9375
vt 0 0.9375
vt 0 0.8125
vt 1 0.8125
vt 1 0.9375
vt 0.5 0.9375
vt 0.5 0.8125
vt 0.21875 0
vt 0.21875 0.5
vt 0.15625 0.5
vt 0.15625 0
vt 0.21875 0.5
vt 0.21875 1
vt 0.15625 1
vt 0.15625 0.5
vt 0.21875 0.8125
vt 0.21875 0.9375
vt 0.15625 0.9375
vt 0.15625 0.8125
vt 0.46875 0.8125
vt 0.46875 0.9375
vt 0.40625 0.9375
vt 0.40625 0.8125
vt 0.03125 0
vt 0.03125 1
vt 0 1
vt 0 0
vt 0.125 0
vt 0.125 1
vt 0.09375 1
vt 0.09375 0
vt 0.125 0.875
vt 0.125 0.90625
vt 0 0.90625
vt 0 0.875
vt 0.125 0.96875
vt 0.125 1
vt 0 1
vt 0 0.96875
vt 0.125 0
vt 0.125 1
vt 0 1
vt 0 0
vt 0.125 0
vt 0.125 1
vt 0 1
vt 0 0
vn 0.7071067811865475 0.7071067811865476 0
vn -0.7071067811865475 -0.7071067811865476 0
vn -0.7071067811865476 0.7071067811865475 0
vn 0.7071067811865476 -0.7071067811865475 0
vn 0 0 1
vn 0 0 -1
vn 1 1.1102230246251565e-16 0
vn -1 0 0
vn 5.551115123125783e-16 1 0
vn -2.220446049250313e-16 -1 0
vn 0 0 1
vn 0 0 -1
vn 1 1.1102230246251565e-16 0
vn -1 4.996003610813204e-16 0
vn -7.216449660063519e-16 1 0
vn -5.551115123125783e-16 -1 0
vn 0 0 1
vn 0 0 -1
vn 1 1.1102230246251565e-16 0
vn -1 0 0
vn 2.220446049250313e-16 1 0
vn 1.1102230246251565e-16 -1 0
vn 0 0 1
vn 0 0 -1
vn 1 -2.7755575615628914e-16 0
vn -1 -1.1102230246251565e-16 0
vn -1.1102230246251565e-16 1 0
vn 1.27675647831893e-15 -1 0
vn 0 0 1
vn 0 0 -1
vn 1 1.1102230246251565e-16 0
vn -1 2.3869795029440866e-15 0
vn 7.216449660063518e-16 1 0
vn 1.1102230246251565e-16 -1 0
vn 0 0 1
vn 0 0 -1
vn 1 1.1102230246251565e-16 0
vn -1 -1.1102230246251565e-16 0
vn -1.1102230246251565e-16 1 0
vn 1.1102230246251565e-16 -1 0
vn 0 0 1
vn 0 0 -1
vn 1 1.1102230246251565e-16 0
vn -1 2.3869795029440866e-15 0
vn 7.216449660063518e-16 1 0
vn 1.1102230246251565e-16 -1 0
vn 0 0 1
vn 0 0 -1
vn 1 1.1102230246251565e-16 0
vn -1 -2.609024107869118e-15 0
vn -1.1102230246251565e-16 1 0
vn 9.43689570931383e-16 -1 0
vn 0 0 1
vn 0 0 -1
vn 1 1.1102230246251565e-16 0
vn -1 2.3869795029440866e-15 0
vn -1.1102230246251565e-16 1 0
vn 2.609024107869118e-15 -1 0
vn 0 0 1
vn 0 0 -1
vn 1 1.1102230246251565e-16 0
vn -1 -2.609024107869118e-15 0
vn -1.1102230246251565e-16 1 0
vn 9.43689570931383e-16 -1 0
vn 0 0 1
vn 0 0 -1
vn 1 -2.3869795029440866e-15 0
vn -1 -1.1102230246251565e-16 0
vn -2.609024107869118e-15 1 0
vn 1.1102230246251565e-16 -1 0
vn 0 0 1
vn 0 0 -1
vn 1 -2.3869795029440866e-15 0
vn -1 -5.162537064506978e-15 0
vn -1.1102230246251565e-16 1 0
vn 8.326672684688674e-16 -1 0
vn 0 0 1
vn 0 0 -1
vn 1 -2.3869795029440866e-15 0
vn -1 -5.162537064506978e-15 0
vn -1.1102230246251565e-16 1 0
vn 8.326672684688674e-16 -1 0
vn 0 0 1
vn 0 0 -1
vn 1 1.1102230246251568e-16 0
vn -1 -1.1102230246251568e-16 0
vn -1.1102230246251565e-16 1 0
vn 1.1102230246251565e-16 -1 0
vn 0 0 1
vn 0 0 -1
vn 1 1.1102230246251568e-16 0
vn -1 -1.1102230246251568e-16 0
vn -1.1102230246251565e-16 1 0
vn 1.1102230246251565e-16 -1 0
vn 0 0 1
vn 0 0 -1
vn 1 1.1102230246251565e-16 0
vn -1 -1.1102230246251565e-16 0
vn -1.1102230246251565e-16 1 0
vn 1.1102230246251565e-16 -1 0
vn 0 0 1
vn 0 0 -1
vn 1 1.1102230246251565e-16 0
vn -1 -1.1102230246251565e-16 0
vn -1.1102230246251565e-16 1 0
vn 1.1102230246251565e-16 -1 0
vn 0 0 1
vn 0 0 -1
vn 1 1.1102230246251568e-16 0
vn -1 -1.1102230246251568e-16 0
vn -1.1102230246251565e-16 1 0
vn 1.1102230246251565e-16 -1 0
vn 0 0 1
vn 0 0 -1
vn 1 -4.9404924595819466e-15 0
vn -1 4.9404924595819466e-15 0
vn -1.1102230246251565e-16 1 0
vn 1.1102230246251565e-16 -1 0
vn 0 0 1
vn 0 0 -1
vn 1 -2.3869795029440866e-15 0
vn -1 2.3869795029440866e-15 0
vn -2.220446049250313e-16 1 0
vn 2.220446049250313e-16 -1 0
vn 0 0 1
vn 0 0 -1
vn 1 -3.7192471324942744e-15 0
vn -1 2.3869795029440866e-15 0
vn -4.440892098500626e-16 1 0
vn 2.220446049250313e-16 -1 0
vn 0 0 1
vn 0 0 -1
vn 1 1.1102230246251565e-16 0
vn -1 -1.1102230246251565e-16 0
vn -4.440892098500626e-16 1 0
vn 4.440892098500626e-16 -1 0
vn 0 0 1
vn 0 0 -1
vn 1 4.440892098500626e-16 0
vn -1 -1.1102230246251568e-16 0
vn -2.775557561562892e-16 1 0
vn -3.3306690738754706e-16 -1 0
vn 0 0 1
vn 0 0 -1
vn 1 -2.3869795029440866e-15 0
vn -1 -1.1102230246251565e-16 0
vn -1.1102230246251565e-16 1 0
vn -2.220446049250313e-16 -1 0
vn 0 0 1
vn 0 0 -1
vn 0.7071067811865475 0.7071067811865476 0
vn -0.7071067811865475 -0.7071067811865476 0
vn -0.7071067811865476 0.7071067811865475 0
vn 0.7071067811865476 -0.7071067811865475 0
vn 0 0 1
vn 0 0 -1
vn 0.7071067811865476 -0.7071067811865475 0
vn -0.7071067811865476 0.7071067811865475 0
vn 0.7071067811865475 0.7071067811865476 0
vn -0.7071067811865475 -0.7071067811865476 0
vn 0 0 1
vn 0 0 -1
vn 0.7071067811865476 -0.7071067811865475 0
vn -0.7071067811865476 0.7071067811865475 0
vn 0.7071067811865475 0.7071067811865476 0
vn -0.7071067811865475 -0.7071067811865476 0
vn 0 0 1
vn 0 0 -1
vn 0.7071067811865475 0.7071067811865476 0
vn -0.7071067811865475 -0.7071067811865476 0
vn -0.7071067811865476 0.7071067811865475 0
vn 0.7071067811865476 -0.7071067811865475 0
vn 0 0 1
vn 0 0 -1
vn 1 -1.1102230246251565e-16 0
vn -1 2.220446049250313e-16 0
vn -1.1102230246251568e-16 1 0
vn 5.551115123125784e-16 -1 0
vn 0 0 1
vn 0 0 -1
vn 0.7071067811865475 0.7071067811865476 0
vn -0.7071067811865475 -0.7071067811865476 0
vn -0.7071067811865476 0.7071067811865475 0
vn 0.7071067811865476 -0.7071067811865475 0
vn 0 0 1
vn 0 0 -1
vn 1 1.1102230246251565e-16 0
vn -1 -1.1102230246251565e-16 0
vn -1.1102230246251565e-16 1 0
vn 1.1102230246251565e-16 -1 0
vn 0 0 1
vn 0 0 -1
vn 1 1.1102230246251568e-16 0
vn -1 -1.1102230246251568e-16 0
vn -1.1102230246251565e-16 1 0
vn 1.1102230246251565e-16 -1 0
vn 0 0 1
vn 0 0 -1
vn 1 1.1102230246251568e-16 0
vn -1 -1.1102230246251568e-16 0
vn -1.1102230246251565e-16 1 0
vn 1.1102230246251565e-16 -1 0
vn 0 0 1
vn 0 0 -1
vn 1 1.1102230246251568e-16 0
vn -1 -1.1102230246251568e-16 0
vn -1.1102230246251565e-16 1 0
vn 1.1102230246251565e-16 -1 0
vn 0 0 1
vn 0 0 -1
vn 1 1.1102230246251565e-16 0
vn -1 -1.1102230246251565e-16 0
vn -1.1102230246251565e-16 1 0
vn 0 0 1
vn 5.551115123125784e-17 -0.44721359549995876 -0.8944271909999156
vn 1 1.1102230246251565e-16 0
vn -1 -1.1102230246251565e-16 0
vn -1.1102230246251565e-16 1 0
vn 0 0 1
vn 2.775557561562892e-17 -0.44721359549995865 -0.8944271909999157
vn 1 1.1102230246251565e-16 0
vn -1 -1.1102230246251565e-16 0
vn -1.1102230246251565e-16 1 0
vn 0 0 1
vn 5.551115123125784e-17 -0.44721359549995876 -0.8944271909999156
vn 1 1.1102230246251565e-16 0
vn -1 -1.1102230246251565e-16 0
vn -1.1102230246251565e-16 1 0
vn 0 0 1
vn 5.551115123125784e-17 -0.44721359549995876 -0.8944271909999156
vn 1 1.27675647831893e-15 0
vn -1 -1.1102230246251565e-16 0
vn -1.1102230246251565e-16 1 0
vn 0 0 1
vn 5.551115123125784e-17 -0.44721359549995876 -0.8944271909999156
vn 1 1.1102230246251565e-16 0
vn -1 -1.1102230246251565e-16 0
vn 4.9404924595819466e-15 1 0
vn 0 0 -1
vn -2.220446049250313e-15 -0.44721359549995865 0.8944271909999156
vn 1 1.1102230246251565e-16 0
vn -1 -1.1102230246251565e-16 0
vn -1.1102230246251565e-16 1 0
vn 0 0 -1
vn 5.551115123125784e-17 -0.44721359549995876 0.8944271909999156
vn 1 1.1102230246251565e-16 0
vn -1 -1.27675647831893e-15 0
vn -5.162537064506978e-15 1 0
vn 0 0 -1
vn 2.275957200481571e-15 -0.4472135954999591 0.8944271909999153
vn 1 1.1102230246251565e-16 0
vn -1 -1.1102230246251565e-16 0
vn -1.1102230246251565e-16 1 0
vn 1.1102230246251565e-16 -1 0
vn 0 0 1
vn 0 0 -1
vn 1 1.1102230246251565e-16 0
vn -1 -1.1102230246251565e-16 0
vn -1.1102230246251568e-16 1 0
vn 1.1102230246251568e-16 -1 0
vn 0 0 1
vn 0 0 -1
vn 1 1.1102230246251565e-16 0
vn -1 -1.1102230246251565e-16 0
vn -1.1102230246251565e-16 1 0
vn 1.1102230246251565e-16 -1 0
vn 0 0 1
vn 0 0 -1
vn 1 6.827871601444713e-15 0
vn -1 -1.1102230246251568e-16 0
vn 0.10748184298009233 0.9942070475658493 0
vn -0.10748184298009178 -0.9942070475658493 0
vn 0 0 1
vn 0 0 -1
vn 1 1.1102230246251565e-16 0
vn -1 -6.827871601444713e-15 0
vn 0.3162277660168379 0.948683298050514 0
vn -0.31622776601683694 -0.9486832980505143 0
vn 0 0 1
vn 0 0 -1
vn -1.1102230246251568e-16 1 0
vn -1 -1.1102230246251565e-16 0
vn -0.7071067811865476 0.7071067811865475 0
vn 0.7071067811865458 -0.7071067811865492 0
vn 0 0 1
vn 0 0 -1
vn 0.894427190999916 -0.4472135954999579 0
vn -0.894427190999916 0.4472135954999579 0
vn -1.1102230246251565e-16 1 0
vn 1.1102230246251565e-16 -1 0
vn 0 0 1
vn 0 0 -1
vn 0.894427190999916 0.4472135954999581 0
vn -0.894427190999916 -0.4472135954999581 0
vn 1.1102230246251565e-16 -1 0
vn 0 0 1
vn 0 0 -1
vn -1.1102230246251565e-16 1 0
vn 0.894427190999916 0.4472135954999581 0
vn -0.894427190999916 -0.4472135954999581 0
vn 1.1102230246251565e-16 -1 0
vn 0 0 1
vn 0 0 -1
vn -1.1102230246251565e-16 1 0
vn 0.8944271909999161 -0.4472135954999579 0
vn -0.8944271909999161 0.4472135954999579 0
vn -1.1102230246251565e-16 1 0
vn 1.1102230246251565e-16 -1 0
vn 0 0 1
vn 0 0 -1
vn 1 1.1102230246251565e-16 0
vn -1 -1.1102230246251565e-16 0
vn 2.220446049250313e-16 1 0
vn -2.220446049250313e-16 -1 0
vn 0 0 1
vn 0 0 -1
vn 1 1.1102230246251565e-16 0
vn -1 -1.1102230246251565e-16 0
vn -1.1102230246251565e-16 1 0
vn 1.1102230246251565e-16 -1 0
vn 0 0 1
vn 0 0 -1
vn 1 1.1102230246251565e-16 0
vn -1 -1.1102230246251565e-16 0
vn -1.1102230246251565e-16 1 0
vn 1.1102230246251565e-16 -1 0
vn 0 0 1
vn 0 0 -1
vn 1 1.1102230246251565e-16 0
vn -1 -1.1102230246251565e-16 0
vn 2.220446049250313e-16 1 0
vn -2.220446049250313e-16 -1 0
vn 0 0 1
vn 0 0 -1
vn 1 1.1102230246251565e-16 0
vn -1 -1.1102230246251565e-16 0
vn -1.1102230246251565e-16 1 0
vn 1.1102230246251565e-16 -1 0
vn 0 0 1
vn 0 0 -1
vn 1 1.1102230246251565e-16 0
vn -1 -1.1102230246251565e-16 0
vn 2.7755575615628914e-16 1 0
vn -2.7755575615628914e-16 -1 0
vn 0 0 1
vn 0 0 -1
vn 1 1.1102230246251565e-16 0
vn -1 -1.0158540675320182e-14 0
vn 7.216449660063518e-16 1 0
vn 1.1102230246251565e-16 -1 0
vn 0 0 1
vn 0 0 -1
vn 1 1.1102230246251565e-16 0
vn -1 -1.1102230246251565e-16 0
vn -1.1102230246251565e-16 1 0
vn 1.1102230246251565e-16 -1 0
vn 0 0 1
vn 0 0 -1
vn 1 3.885780586188048e-16 0
vn -1 1.1102230246251565e-16 0
vn -2.015054789694659e-14 1 0
vn -4.9404924595819466e-15 -1 0
vn 0 0 1
vn 0 0 -1
vn 1 1.1102230246251568e-16 0
vn -1 -1.1102230246251568e-16 0
vn -1.1102230246251565e-16 1 0
vn 1.1102230246251565e-16 -1 0
vn 0 0 1
vn 0 0 -1
vn 1 1.1102230246251568e-16 0
vn -1 -1.1102230246251568e-16 0
vn -1.1102230246251565e-16 1 0
vn 1.1102230246251565e-16 -1 0
vn 0 0 1
vn 0 0 -1
vn 1 3.885780586188048e-16 0
vn -1 1.1102230246251565e-16 0
vn -2.015054789694659e-14 1 0
vn -4.9404924595819466e-15 -1 0
vn 0 0 1
vn 0 0 -1
vn 1 1.1102230246251568e-16 0
vn -1 -1.1102230246251568e-16 0
vn -1.1102230246251565e-16 1 0
vn 1.1102230246251565e-16 -1 0
vn 0 0 1
vn 0 0 -1
vn 1 1.1102230246251568e-16 0
vn -1 -1.1102230246251568e-16 0
vn -1.1102230246251565e-16 1 0
vn 1.1102230246251565e-16 -1 0
vn 0 0 1
vn 0 0 -1
vn 1 1.1102230246251565e-16 0
vn -1 -1.1102230246251565e-16 0
vn -2.015054789694659e-14 1 0
vn 2.015054789694659e-14 -1 0
vn 0 0 1
vn 0 0 -1
vn 1 1.1102230246251565e-16 0
vn -1 -1.1102230246251565e-16 0
vn 9.936496070395151e-15 1 0
vn 1.0158540675320182e-14 -1 0
vn 0 0 1
vn 0 0 -1
vn 1 1.1102230246251565e-16 0
vn -1 -1.1102230246251565e-16 0
vn -1.1102230246251565e-16 1 0
vn 1.1102230246251565e-16 -1 0
vn 0 0 1
vn 0 0 -1
vn 1 1.1102230246251565e-16 0
vn -1 -1.1102230246251565e-16 0
vn -1.1102230246251565e-16 1 0
vn 1.1102230246251565e-16 -1 0
vn 0 0 1
vn 0 0 -1
vn 1 -1.1102230246251565e-16 0
vn -1 1.1102230246251565e-16 0
vn -1.27675647831893e-15 1 0
vn 1.27675647831893e-15 -1 0
vn 0 0 1
vn 0 0 -1
usemtl m_3d215661-f591-00a8-53e2-d8d611c756be
f 4/1/1 2/2/1 1/3/1 3/4/1
f 7/5/2 5/6/2 6/7/2 8/8/2
f 1/9/3 2/10/3 6/11/3 5/12/3
f 4/13/4 3/14/4 7/15/4 8/16/4
f 3/17/5 1/18/5 5/19/5 7/20/5
f 8/21/6 6/22/6 2/23/6 4/24/6
f 12/25/7 10/26/7 9/27/7 11/28/7
f 15/29/8 13/30/8 14/31/8 16/32/8
f 9/33/9 10/34/9 14/35/9 13/36/9
f 12/37/10 11/38/10 15/39/10 16/40/10
f 11/41/11 9/42/11 13/43/11 15/44/11
f 16/45/12 14/46/12 10/47/12 12/48/12
f 20/49/13 18/50/13 17/51/13 19/52/13
f 23/53/14 21/54/14 22/55/14 24/56/14
f 17/57/15 18/58/15 22/59/15 21/60/15
f 20/61/16 19/62/16 23/63/16 24/64/16
f 19/65/17 17/66/17 21/67/17 23/68/17
f 24/69/18 22/70/18 18/71/18 20/72/18
f 28/73/19 26/74/19 25/75/19 27/76/19
f 31/77/20 29/78/20 30/79/20 32/80/20
f 25/81/21 26/82/21 30/83/21 29/84/21
f 28/85/22 27/86/22 31/87/22 32/88/22
f 27/89/23 25/90/23 29/91/23 31/92/23
f 32/93/24 30/94/24 26/95/24 28/96/24
f 36/97/25 34/98/25 33/99/25 35/100/25
f 39/101/26 37/102/26 38/103/26 40/104/26
f 33/105/27 34/106/27 38/107/27 37/108/27
f 36/109/28 35/110/28 39/111/28 40/112/28
f 35/113/29 33/114/29 37/115/29 39/116/29
f 40/117/30 38/118/30 34/119/30 36/120/30
f 44/121/31 42/122/31 41/123/31 43/124/31
f 47/125/32 45/126/32 46/127/32 48/128/32
f 41/129/33 42/130/33 46/131/33 45/132/33
f 44/133/34 43/134/34 47/135/34 48/136/34
f 43/137/35 41/138/35 45/139/35 47/140/35
f 48/141/36 46/142/36 42/143/36 44/144/36
f 52/145/37 50/146/37 49/147/37 51/148/37
f 55/149/38 53/150/38 54/151/38 56/152/38
f 49/153/39 50/154/39 54/155/39 53/156/39
f 52/157/40 51/158/40 55/159/40 56/160/40
f 51/161/41 49/162/41 53/163/41 55/164/41
f 56/165/42 54/166/42 50/167/42 52/168/42
f 60/169/43 58/170/43 57/171/43 59/172/43
f 63/173/44 61/174/44 62/175/44 64/176/44
f 57/177/45 58/178/45 62/179/45 61/180/45
f 60/181/46 59/182/46 63/183/46 64/184/46
f 59/185/47 57/186/47 61/187/47 63/188/47
f 64/189/48 62/190/48 58/191/48 60/192/48
f 68/193/49 66/194/49 65/195/49 67/196/49
f 71/197/50 69/198/50 70/199/50 72/200/50
f 65/201/51 66/202/51 70/203/51 69/204/51
f 68/205/52 67/206/52 71/207/52 72/208/52
f 67/209/53 65/210/53 69/211/53 71/212/53
f 72/213/54 70/214/54 66/215/54 68/216/54
f 76/217/55 74/218/55 73/219/55 75/220/55
f 79/221/56 77/222/56 78/223/56 80/224/56
f 73/225/57 74/226/57 78/227/57 77/228/57
f 76/229/58 75/230/58 79/231/58 80/232/58
f 75/233/59 73/234/59 77/235/59 79/236/59
f 80/237/60 78/238/60 74/239/60 76/240/60
f 84/241/61 82/242/61 81/243/61 83/244/61
f 87/245/62 85/246/62 86/247/62 88/248/62
f 81/249/63 82/250/63 86/251/63 85/252/63
f 84/253/64 83/254/64 87/255/64 88/256/64
f 83/257/65 81/258/65 85/259/65 87/260/65
f 88/261/66 86/262/66 82/263/66 84/264/66
f 92/265/67 90/266/67 89/267/67 91/268/67
f 95/269/68 93/270/68 94/271/68 96/272/68
f 89/273/69 90/274/69 94/275/69 93/276/69
f 92/277/70 91/278/70 95/279/70 96/280/70
f 91/281/71 89/282/71 93/283/71 95/284/71
f 96/285/72 94/286/72 90/287/72 92/288/72
f 100/289/73 98/290/73 97/291/73 99/292/73
f 103/293/74 101/294/74 102/295/74 104/296/74
f 97/297/75 98/298/75 102/299/75 101/300/75
f 100/301/76 99/302/76 103/303/76 104/304/76
f 99/305/77 97/306/77 101/307/77 103/308/77
f 104/309/78 102/310/78 98/311/78 100/312/78
f 108/313/79 106/314/79 105/315/79 107/316/79
f 111/317/80 109/318/80 110/319/80 112/320/80
f 105/321/81 106/322/81 110/323/81 109/324/81
f 108/325/82 107/326/82 111/327/82 112/328/82
f 107/329/83 105/330/83 109/331/83 111/332/83
f 112/333/84 110/334/84 106/335/84 108/336/84
f 116/337/85 114/338/85 113/339/85 115/340/85
f 119/341/86 117/342/86 118/343/86 120/344/86
f 113/345/87 114/346/87 118/347/87 117/348/87
f 116/349/88 115/350/88 119/351/88 120/352/88
f 115/353/89 113/354/89 117/355/89 119/356/89
f 120/357/90 118/358/90 114/359/90 116/360/90
f 124/361/91 122/362/91 121/363/91 123/364/91
f 127/365/92 125/366/92 126/367/92 128/368/92
f 121/369/93 122/370/93 126/371/93 125/372/93
f 124/373/94 123/374/94 127/375/94 128/376/94
f 123/377/95 121/378/95 125/379/95 127/380/95
f 128/381/96 126/382/96 122/383/96 124/384/96
f 132/385/97 130/386/97 129/387/97 131/388/97
f 135/389/98 133/390/98 134/391/98 136/392/98
f 129/393/99 130/394/99 134/395/99 133/396/99
f 132/397/100 131/398/100 135/399/100 136/400/100
f 131/401/101 129/402/101 133/403/101 135/404/101
f 136/405/102 134/406/102 130/407/102 132/408/102
f 140/409/103 138/410/103 137/411/103 139/412/103
f 143/413/104 141/414/104 142/415/104 144/416/104
f 137/417/105 138/418/105 142/419/105 141/420/105
f 140/421/106 139/422/106 143/423/106 144/424/106
f 139/425/107 137/426/107 141/427/107 143/428/107
f 144/429/108 142/430/108 138/431/108 140/432/108
f 148/433/109 146/434/109 145/435/109 147/436/109
f 151/437/110 149/438/110 150/439/110 152/440/110
f 145/441/111 146/442/111 150/443/111 149/444/111
f 148/445/112 147/446/112 151/447/112 152/448/112
f 147/449/113 145/450/113 149/451/113 151/452/113
f 152/453/114 150/454/114 146/455/114 148/456/114
f 156/457/115 154/458/115 153/459/115 155/460/115
f 159/461/116 157/462/116 158/463/116 160/464/116
f 153/465/117 154/466/117 158/467/117 157/468/117
f 156/469/118 155/470/118 159/471/118 160/472/118
f 155/473/119 153/474/119 157/475/119 159/476/119
f 160/477/120 158/478/120 154/479/120 156/480/120
f 164/481/121 162/482/121 161/483/121 163/484/121
f 167/485/122 165/486/122 166/487/122 168/488/122
f 161/489/123 162/490/123 166/491/123 165/492/123
f 164/493/124 163/494/124 167/495/124 168/496/124
f 163/497/125 161/498/125 165/499/125 167/500/125
f 168/501/126 166/502/126 162/503/126 164/504/126
f 172/505/127 170/506/127 169/507/127 171/508/127
f 175/509/128 173/510/128 174/511/128 176/512/128
f 169/513/129 170/514/129 174/515/129 173/516/129
f 172/517/130 171/518/130 175/519/130 176/520/130
f 171/521/131 169/522/131 173/523/131 175/524/131
f 176/525/132 174/526/132 170/527/132 172/528/132
f 180/529/133 178/530/133 177/531/133 179/532/133
f 183/533/134 181/534/134 182/535/134 184/536/134
f 177/537/135 178/538/135 182/539/135 181/540/135
f 180/541/136 179/542/136 183/543/136 184/544/136
f 179/545/137 177/546/137 181/547/137 183/548/137
f 184/549/138 182/550/138 178/551/138 180/552/138
f 188/553/139 186/554/139 185/555/139 187/556/139
f 191/557/140 189/558/140 190/559/140 192/560/140
f 185/561/141 186/562/141 190/563/141 189/564/141
f 188/565/142 187/566/142 191/567/142 192/568/142
f 187/569/143 185/570/143 189/571/143 191/572/143
f 192/573/144 190/574/144 186/575/144 188/576/144
f 196/577/145 194/578/145 193/579/145 195/580/145
f 199/581/146 197/582/146 198/583/146 200/584/146
f 193/585/147 194/586/147 198/587/147 197/588/147
f 196/589/148 195/590/148 199/591/148 200/592/148
f 195/593/149 193/594/149 197/595/149 199/596/149
f 200/597/150 198/598/150 194/599/150 196/600/150
f 204/601/151 202/602/151 201/603/151 203/604/151
f 207/605/152 205/606/152 206/607/152 208/608/152
f 201/609/153 202/610/153 206/611/153 205/612/153
f 204/613/154 203/614/154 207/615/154 208/616/154
f 203/617/155 201/618/155 205/619/155 207/620/155
f 208/621/156 206/622/156 202/623/156 204/624/156
f 212/625/157 210/626/157 209/627/157 211/628/157
f 215/629/158 213/630/158 214/631/158 216/632/158
f 209/633/159 210/634/159 214/635/159 213/636/159
f 212/637/160 211/638/160 215/639/160 216/640/160
f 211/641/161 209/642/161 213/643/161 215/644/161
f 216/645/162 214/646/162 210/647/162 212/648/162
f 220/649/163 218/650/163 217/651/163 219/652/163
f 223/653/164 221/654/164 222/655/164 224/656/164
f 217/657/165 218/658/165 222/659/165 221/660/165
f 220/661/166 219/662/166 223/663/166 224/664/166
f 219/665/167 217/666/167 221/667/167 223/668/167
f 224/669/168 222/670/168 218/671/168 220/672/168
f 228/673/169 226/674/169 225/675/169 227/676/169
f 231/677/170 229/678/170 230/679/170 232/680/170
f 225/681/171 226/682/171 230/683/171 229/684/171
f 228/685/172 227/686/172 231/687/172 232/688/172
f 227/689/173 225/690/173 229/691/173 231/692/173
f 232/693/174 230/694/174 226/695/174 228/696/174
f 236/697/175 234/698/175 233/699/175 235/700/175
f 239/701/176 237/702/176 238/703/176 240/704/176
f 233/705/177 234/706/177 238/707/177 237/708/177
f 236/709/178 235/710/178 239/711/178 240/712/178
f 235/713/179 233/714/179 237/715/179 239/716/179
f 240/717/180 238/718/180 234/719/180 236/720/180
f 244/721/181 242/722/181 241/723/181 243/724/181
f 247/725/182 245/726/182 246/727/182 248/728/182
f 241/729/183 242/730/183 246/731/183 245/732/183
f 244/733/184 243/734/184 247/735/184 248/736/184
f 243/737/185 241/738/185 245/739/185 247/740/185
f 248/741/186 246/742/186 242/743/186 244/744/186
f 252/745/187 250/746/187 249/747/187 251/748/187
f 255/749/188 253/750/188 254/751/188 256/752/188
f 249/753/189 250/754/189 254/755/189 253/756/189
f 252/757/190 251/758/190 255/759/190 256/760/190
f 251/761/191 249/762/191 253/763/191 255/764/191
f 256/765/192 254/766/192 250/767/192 252/768/192
f 260/769/193 258/770/193 257/771/193 259/772/193
f 263/773/194 261/774/194 262/775/194 264/776/194
f 257/777/195 258/778/195 262/779/195 261/780/195
f 260/781/196 259/782/196 263/783/196 264/784/196
f 259/785/197 257/786/197 261/787/197 263/788/197
f 264/789/198 262/790/198 258/791/198 260/792/198
f 268/793/199 266/794/199 265/795/199 267/796/199
f 271/797/200 269/798/200 270/799/200 272/800/200
f 265/801/201 266/802/201 270/803/201 269/804/201
f 268/805/202 267/806/202 271/807/202 272/808/202
f 267/809/203 265/810/203 269/811/203 271/812/203
f 272/813/204 270/814/204 266/815/204 268/816/204
f 276/817/205 274/818/205 273/819/205 275/820/205
f 279/821/206 277/822/206 278/823/206 280/824/206
f 273/825/207 274/826/207 278/827/207 277/828/207
f 276/829/208 275/830/208 279/831/208 280/832/208
f 275/833/209 273/834/209 277/835/209 279/836/209
f 280/837/210 278/838/210 274/839/210 276/840/210
f 282/841/211 281/842/211 283/843/211
f 284/844/212 285/845/212 286/846/212
f 281/847/213 282/848/213 285/849/213 284/850/213
f 283/851/214 281/852/214 284/853/214 286/854/214
f 286/855/215 285/856/215 282/857/215 283/858/215
f 288/859/216 287/860/216 289/861/216
f 290/862/217 291/863/217 292/864/217
f 287/865/218 288/866/218 291/867/218 290/868/218
f 289/869/219 287/870/219 290/871/219 292/872/219
f 292/873/220 291/874/220 288/875/220 289/876/220
f 294/877/221 293/878/221 295/879/221
f 296/880/222 297/881/222 298/882/222
f 293/883/223 294/884/223 297/885/223 296/886/223
f 295/887/224 293/888/224 296/889/224 298/890/224
f 298/891/225 297/892/225 294/893/225 295/894/225
f 300/895/226 299/896/226 301/897/226
f 302/898/227 303/899/227 304/900/227
f 299/901/228 300/902/228 303/903/228 302/904/228
f 301/905/229 299/906/229 302/907/229 304/908/229
f 304/909/230 303/910/230 300/911/230 301/912/230
f 306/913/231 305/914/231 307/915/231
f 308/916/232 309/917/232 310/918/232
f 305/919/233 306/920/233 309/921/233 308/922/233
f 307/923/234 305/924/234 308/925/234 310/926/234
f 310/927/235 309/928/235 306/929/235 307/930/235
f 311/931/236 312/932/236 313/933/236
f 315/934/237 314/935/237 316/936/237
f 315/937/238 312/938/238 311/939/238 314/940/238
f 314/941/239 311/942/239 313/943/239 316/944/239
f 312/945/240 315/946/240 316/947/240 313/948/240
f 317/949/241 318/950/241 319/951/241
f 321/952/242 320/953/242 322/954/242
f 321/955/243 318/956/243 317/957/243 320/958/243
f 320/959/244 317/960/244 319/961/244 322/962/244
f 318/963/245 321/964/245 322/965/245 319/966/245
f 323/967/246 324/968/246 325/969/246
f 327/970/247 326/971/247 328/972/247
f 327/973/248 324/974/248 323/975/248 326/976/248
f 326/977/249 323/978/249 325/979/249 328/980/249
f 324/981/250 327/982/250 328/983/250 325/984/250
f 332/985/251 330/986/251 329/987/251 331/988/251
f 335/989/252 333/990/252 334/991/252 336/992/252
f 329/993/253 330/994/253 334/995/253 333/996/253
f 332/997/254 331/998/254 335/999/254 336/1000/254
f 331/1001/255 329/1002/255 333/1003/255 335/1004/255
f 336/1005/256 334/1006/256 330/1007/256 332/1008/256
f 340/1009/257 338/1010/257 337/1011/257 339/1012/257
f 343/1013/258 341/1014/258 342/1015/258 344/1016/258
f 337/1017/259 338/1018/259 342/1019/259 341/1020/259
f 340/1021/260 339/1022/260 343/1023/260 344/1024/260
f 339/1025/261 337/1026/261 341/1027/261 343/1028/261
f 344/1029/262 342/1030/262 338/1031/262 340/1032/262
f 348/1033/263 346/1034/263 345/1035/263 347/1036/263
f 351/1037/264 349/1038/264 350/1039/264 352/1040/264
f 345/1041/265 346/1042/265 350/1043/265 349/1044/265
f 348/1045/266 347/1046/266 351/1047/266 352/1048/266
f 347/1049/267 345/1050/267 349/1051/267 351/1052/267
f 352/1053/268 350/1054/268 346/1055/268 348/1056/268
f 356/1057/269 354/1058/269 353/1059/269 355/1060/269
f 359/1061/270 357/1062/270 358/1063/270 360/1064/270
f 353/1065/271 354/1066/271 358/1067/271 357/1068/271
f 356/1069/272 355/1070/272 359/1071/272 360/1072/272
f 355/1073/273 353/1074/273 357/1075/273 359/1076/273
f 360/1077/274 358/1078/274 354/1079/274 356/1080/274
f 364/1081/275 362/1082/275 361/1083/275 363/1084/275
f 367/1085/276 365/1086/276 366/1087/276 368/1088/276
f 361/1089/277 362/1090/277 366/1091/277 365/1092/277
f 364/1093/278 363/1094/278 367/1095/278 368/1096/278
f 363/1097/279 361/1098/279 365/1099/279 367/1100/279
f 368/1101/280 366/1102/280 362/1103/280 364/1104/280
f 372/1105/281 370/1106/281 369/1107/281 371/1108/281
f 375/1109/282 373/1110/282 374/1111/282 376/1112/282
f 369/1113/283 370/1114/283 374/1115/283 373/1116/283
f 372/1117/284 371/1118/284 375/1119/284 376/1120/284
f 371/1121/285 369/1122/285 373/1123/285 375/1124/285
f 376/1125/286 374/1126/286 370/1127/286 372/1128/286
f 380/1129/287 378/1130/287 377/1131/287 379/1132/287
f 383/1133/288 381/1134/288 382/1135/288 384/1136/288
f 377/1137/289 378/1138/289 382/1139/289 381/1140/289
f 380/1141/290 379/1142/290 383/1143/290 384/1144/290
f 379/1145/291 377/1146/291 381/1147/291 383/1148/291
f 384/1149/292 382/1150/292 378/1151/292 380/1152/292
f 388/1153/293 386/1154/293 385/1155/293 387/1156/293
f 389/1157/294 391/1158/294 392/1159/294 390/1160/294
f 388/1161/295 387/1162/295 389/1163/295 390/1164/295
f 387/1165/296 385/1166/296 391/1167/296 389/1168/296
f 390/1169/297 392/1170/297 386/1171/297 388/1172/297
f 385/1173/298 386/1174/298 392/1175/298 391/1176/298
f 396/1177/299 394/1178/299 393/1179/299 395/1180/299
f 397/1181/300 399/1182/300 400/1183/300 398/1184/300
f 396/1185/301 395/1186/301 397/1187/301 398/1188/301
f 395/1189/302 393/1190/302 399/1191/302 397/1192/302
f 398/1193/303 400/1194/303 394/1195/303 396/1196/303
f 393/1197/304 394/1198/304 400/1199/304 399/1200/304
f 404/1201/305 402/1202/305 401/1203/305 403/1204/305
f 407/1205/306 405/1206/306 406/1207/306 408/1208/306
f 401/1209/307 402/1210/307 406/1211/307 405/1212/307
f 404/1213/308 403/1214/308 407/1215/308 408/1216/308
f 403/1217/309 401/1218/309 405/1219/309 407/1220/309
f 408/1221/310 406/1222/310 402/1223/310 404/1224/310
usemtl m_b2af6bd8-ffc8-ff72-7f7b-7b18782af15d
f 412/1225/311 410/1226/311 409/1227/311 411/1228/311
f 415/1229/312 413/1230/312 414/1231/312 416/1232/312
f 409/1233/313 410/1234/313 414/1235/313 413/1236/313
f 412/1237/314 411/1238/314 415/1239/314 416/1240/314
f 411/1241/315 409/1242/315 413/1243/315 415/1244/315
f 416/1245/316 414/1246/316 410/1247/316 412/1248/316
f 420/1249/317 418/1250/317 417/1251/317 419/1252/317
f 423/1253/318 421/1254/318 422/1255/318 424/1256/318
f 417/1257/319 418/1258/319 422/1259/319 421/1260/319
f 420/1261/320 419/1262/320 423/1263/320 424/1264/320
f 419/1265/321 417/1266/321 421/1267/321 423/1268/321
f 424/1269/322 422/1270/322 418/1271/322 420/1272/322
f 428/1273/323 426/1274/323 425/1275/323 427/1276/323
f 431/1277/324 429/1278/324 430/1279/324 432/1280/324
f 425/1281/325 426/1282/325 430/1283/325 429/1284/325
f 428/1285/326 427/1286/326 431/1287/326 432/1288/326
f 427/1289/327 425/1290/327 429/1291/327 431/1292/327
f 432/1293/328 430/1294/328 426/1295/328 428/1296/328
f 436/1297/329 434/1298/329 433/1299/329 435/1300/329
f 439/1301/330 437/1302/330 438/1303/330 440/1304/330
f 433/1305/331 434/1306/331 438/1307/331 437/1308/331
f 436/1309/332 435/1310/332 439/1311/332 440/1312/332
f 435/1313/333 433/1314/333 437/1315/333 439/1316/333
f 440/1317/334 438/1318/334 434/1319/334 436/1320/334
f 444/1321/335 442/1322/335 441/1323/335 443/1324/335
f 447/1325/336 445/1326/336 446/1327/336 448/1328/336
f 441/1329/337 442/1330/337 446/1331/337 445/1332/337
f 444/1333/338 443/1334/338 447/1335/338 448/1336/338
f 443/1337/339 441/1338/339 445/1339/339 447/1340/339
f 448/1341/340 446/1342/340 442/1343/340 444/1344/340
f 452/1345/341 450/1346/341 449/1347/341 451/1348/341
f 455/1349/342 453/1350/342 454/1351/342 456/1352/342
f 449/1353/343 450/1354/343 454/1355/343 453/1356/343
f 452/1357/344 451/1358/344 455/1359/344 456/1360/344
f 451/1361/345 449/1362/345 453/1363/345 455/1364/345
f 456/1365/346 454/1366/346 450/1367/346 452/1368/346
f 460/1369/347 458/1370/347 457/1371/347 459/1372/347
f 463/1373/348 461/1374/348 462/1375/348 464/1376/348
f 457/1377/349 458/1378/349 462/1379/349 461/1380/349
f 460/1381/350 459/1382/350 463/1383/350 464/1384/350
f 459/1385/351 457/1386/351 461/1387/351 463/1388/351
f 464/1389/352 462/1390/352 458/1391/352 460/1392/352
f 468/1393/353 466/1394/353 465/1395/353 467/1396/353
f 471/1397/354 469/1398/354 470/1399/354 472/1400/354
f 465/1401/355 466/1402/355 470/1403/355 469/1404/355
f 468/1405/356 467/1406/356 471/1407/356 472/1408/356
f 467/1409/357 465/1410/357 469/1411/357 471/1412/357
f 472/1413/358 470/1414/358 466/1415/358 468/1416/358
f 476/1417/359 474/1418/359 473/1419/359 475/1420/359
f 479/1421/360 477/1422/360 478/1423/360 480/1424/360
f 473/1425/361 474/1426/361 478/1427/361 477/1428/361
f 476/1429/362 475/1430/362 479/1431/362 480/1432/362
f 475/1433/363 473/1434/363 477/1435/363 479/1436/363
f 480/1437/364 478/1438/364 474/1439/364 476/1440/364
f 484/1441/365 482/1442/365 481/1443/365 483/1444/365
f 487/1445/366 485/1446/366 486/1447/366 488/1448/366
f 481/1449/367 482/1450/367 486/1451/367 485/1452/367
f 484/1453/368 483/1454/368 487/1455/368 488/1456/368
f 483/1457/369 481/1458/369 485/1459/369 487/1460/369
f 488/1461/370 486/1462/370 482/1463/370 484/1464/370
f 492/1465/371 490/1466/371 489/1467/371 491/1468/371
f 495/1469/372 493/1470/372 494/1471/372 496/1472/372
f 489/1473/373 490/1474/373 494/1475/373 493/1476/373
f 492/1477/374 491/1478/374 495/1479/374 496/1480/374
f 491/1481/375 489/1482/375 493/1483/375 495/1484/375
f 496/1485/376 494/1486/376 490/1487/376 492/1488/376
f 500/1489/377 498/1490/377 497/1491/377 499/1492/377
f 503/1493/378 501/1494/378 502/1495/378 504/1496/378
f 497/1497/379 498/1498/379 502/1499/379 501/1500/379
f 500/1501/380 499/1502/380 503/1503/380 504/1504/380
f 499/1505/381 497/1506/381 501/1507/381 503/1508/381
f 504/1509/382 502/1510/382 498/1511/382 500/1512/382
f 508/1513/383 506/1514/383 505/1515/383 507/1516/383
f 511/1517/384 509/1518/384 510/1519/384 512/1520/384
f 505/1521/385 506/1522/385 510/1523/385 509/1524/385
f 508/1525/386 507/1526/386 511/1527/386 512/1528/386
f 507/1529/387 505/1530/387 509/1531/387 511/1532/387
f 512/1533/388 510/1534/388 506/1535/388 508/1536/388
f 516/1537/389 514/1538/389 513/1539/389 515/1540/389
f 519/1541/390 517/1542/390 518/1543/390 520/1544/390
f 513/1545/391 514/1546/391 518/1547/391 517/1548/391
f 516/1549/392 515/1550/392 519/1551/392 520/1552/392
f 515/1553/393 513/1554/393 517/1555/393 519/1556/393
f 520/1557/394 518/1558/394 514/1559/394 516/1560/394
f 524/1561/395 522/1562/395 521/1563/395 523/1564/395
f 527/1565/396 525/1566/396 526/1567/396 528/1568/396
f 521/1569/397 522/1570/397 526/1571/397 525/1572/397
f 524/1573/398 523/1574/398 527/1575/398 528/1576/398
f 523/1577/399 521/1578/399 525/1579/399 527/1580/399
f 528/1581/400 526/1582/400 522/1583/400 524/1584/400
f 532/1585/401 530/1586/401 529/1587/401 531/1588/401
f 535/1589/402 533/1590/402 534/1591/402 536/1592/402
f 529/1593/403 530/1594/403 534/1595/403 533/1596/403
f 532/1597/404 531/1598/404 535/1599/404 536/1600/404
f 531/1601/405 529/1602/405 533/1603/405 535/1604/405
f 536/1605/406 534/1606/406 530/1607/406 532/1608/406
f 540/1609/407 538/1610/407 537/1611/407 539/1612/407
f 543/1613/408 541/1614/408 542/1615/408 544/1616/408
f 537/1617/409 538/1618/409 542/1619/409 541/1620/409
f 540/1621/410 539/1622/410 543/1623/410 544/1624/410
f 539/1625/411 537/1626/411 541/1627/411 543/1628/411
f 544/1629/412 542/1630/412 538/1631/412 540/1632/412
f 548/1633/413 546/1634/413 545/1635/413 547/1636/413
f 551/1637/414 549/1638/414 550/1639/414 552/1640/414
f 545/1641/415 546/1642/415 550/1643/415 549/1644/415
f 548/1645/416 547/1646/416 551/1647/416 552/1648/416
f 547/1649/417 545/1650/417 549/1651/417 551/1652/417
f 552/1653/418 550/1654/418 546/1655/418 548/1656/418
f 556/1657/419 554/1658/419 553/1659/419 555/1660/419
f 559/1661/420 557/1662/420 558/1663/420 560/1664/420
f 553/1665/421 554/1666/421 558/1667/421 557/1668/421
f 556/1669/422 555/1670/422 559/1671/422 560/1672/422
f 555/1673/423 553/1674/423 557/1675/423 559/1676/423
f 560/1677/424 558/1678/424 554/1679/424 556/1680/424