# Made in Blockbench 5.1.6
mtllib 400_left.mtl

o cube
v 0.59375 3.6875 -0.125
v 0.59375 3.6875 -0.15625
v 0.59375 2.6875 -0.125
v 0.59375 2.6875 -0.15625
v 0.46875 3.6875 -0.125
v 0.46875 3.6875 -0.15625
v 0.46875 2.6875 -0.125
v 0.46875 2.6875 -0.15625
v 0.65625 3.125 0.125
v 0.65625 3.125 -0.125
v 0.65625 2.125 0.125
v 0.65625 2.125 -0.125
v 0.40625 3.125 0.125
v 0.40625 3.125 -0.125
v 0.40625 2.125 0.125
v 0.40625 2.125 -0.125
v 0.65625 3.6875 0.125
v 0.65625 3.6875 -0.125
v 0.65625 3.125 0.125
v 0.65625 3.125 -0.125
v 0.40625 3.6875 0.125
v 0.40625 3.6875 -0.125
v 0.40625 3.125 0.125
v 0.40625 3.125 -0.125
v 0.65625 2.125 0.125
v 0.65625 2.125 -0.125
v 0.65625 1.125 0.125
v 0.65625 1.125 -0.125
v 0.40625 2.125 0.125
v 0.40625 2.125 -0.125
v 0.40625 1.125 0.125
v 0.40625 1.125 -0.125
v 0.65625 1.125 0.125
v 0.65625 1.125 -0.125
v 0.65625 0.3125 0.125
v 0.65625 0.3125 -0.125
v 0.40625 1.125 0.125
v 0.40625 1.125 -0.125
v 0.40625 0.3125 0.125
v 0.40625 0.3125 -0.125
v 0.40625 0.625 -0.0625
v 0.40625 0.625 -0.125
v 0.40625 0.5625 -0.0625
v 0.40625 0.5625 -0.125
v 0.21875 0.625 -0.0625
v 0.21875 0.625 -0.125
v 0.21875 0.5625 -0.0625
v 0.21875 0.5625 -0.125
v 0.40625 0.625 0.125
v 0.40625 0.625 0.0625
v 0.40625 0.5625 0.125
v 0.40625 0.5625 0.0625
v 0.21875 0.625 0.125
v 0.21875 0.625 0.0625
v 0.21875 0.5625 0.125
v 0.21875 0.5625 0.0625
v 0.28125 0.625 0.0625
v 0.28125 0.625 -0.0625
v 0.28125 0.5625 0.0625
v 0.28125 0.5625 -0.0625
v 0.21875 0.625 0.0625
v 0.21875 0.625 -0.0625
v 0.21875 0.5625 0.0625
v 0.21875 0.5625 -0.0625
v 0.40625 1 0.125
v 0.40625 1 0.0625
v 0.40625 0.9375 0.125
v 0.40625 0.9375 0.0625
v 0.21875 1 0.125
v 0.21875 1 0.0625
v 0.21875 0.9375 0.125
v 0.21875 0.9375 0.0625
v 0.28125 0.9375 -0.0625
v 0.28125 1 0.0625
v 0.28125 1 -0.0625
v 0.28125 0.9375 0.0625
v 0.21875 1 0.0625
v 0.21875 1 -0.0625
v 0.21875 0.9375 0.0625
v 0.21875 0.9375 -0.0625
v 0.40625 1 -0.0625
v 0.40625 1 -0.125
v 0.40625 0.9375 -0.0625
v 0.40625 0.9375 -0.125
v 0.21875 1 -0.0625
v 0.21875 1 -0.125
v 0.21875 0.9375 -0.0625
v 0.21875 0.9375 -0.125
v 0.40625 1.375 -0.0625
v 0.40625 1.375 -0.125
v 0.40625 1.3125 -0.0625
v 0.40625 1.3125 -0.125
v 0.21875 1.375 -0.0625
v 0.21875 1.375 -0.125
v 0.21875 1.3125 -0.0625
v 0.21875 1.3125 -0.125
v 0.28125 1.375 0.0625
v 0.28125 1.375 -0.0625
v 0.28125 1.3125 0.0625
v 0.28125 1.3125 -0.0625
v 0.21875 1.375 0.0625
v 0.21875 1.375 -0.0625
v 0.21875 1.3125 0.0625
v 0.21875 1.3125 -0.0625
v 0.40625 1.375 0.125
v 0.40625 1.375 0.0625
v 0.40625 1.3125 0.125
v 0.40625 1.3125 0.0625
v 0.21875 1.375 0.125
v 0.21875 1.375 0.0625
v 0.21875 1.3125 0.125
v 0.21875 1.3125 0.0625
v 0.0625 5 -0.15624999999999997
v 0.0625 5 -0.21874999999999997
v 0.0625 3.875 -0.15624999999999997
v 0.0625 3.875 -0.21874999999999997
v -0.0625 5 -0.15624999999999997
v -0.0625 5 -0.21874999999999997
v -0.0625 3.875 -0.15624999999999997
v -0.0625 3.875 -0.21874999999999997
v 0.0625 5 0.21875
v 0.0625 5 0.09375
v 0.0625 3.875 0.21875
v 0.0625 3.875 0.09375
v -0.0625 5 0.21875
v -0.0625 5 0.09375
v -0.0625 3.875 0.21875
v -0.0625 3.875 0.09375
v 0.0625 5 0.09375
v 0.0625 5 -0.15625
v 0.0625 4.9375 0.09375
v 0.0625 4.9375 -0.15625
v -0.0625 5 0.09375
v -0.0625 5 -0.15625
v -0.0625 4.9375 0.09375
v -0.0625 4.9375 -0.15625
v 0.0625 4.5625 0.09375
v 0.0625 4.5625 -0.15625
v 0.0625 4.5 0.09375
v 0.0625 4.5 -0.15625
v -0.0625 4.5625 0.09375
v -0.0625 4.5625 -0.15625
v -0.0625 4.5 0.09375
v -0.0625 4.5 -0.15625
v 0.0625 4.125 0.09375
v 0.0625 4.125 -0.15625
v 0.0625 3.9375 0.09375
v 0.0625 3.9375 -0.15625
v -0.0625 4.125 0.09375
v -0.0625 4.125 -0.15625
v -0.0625 3.9375 0.09375
v -0.0625 3.9375 -0.15625
v 0.59375 3.25 0.1875
v 0.59375 3.25 0.125
v 0.59375 3.1875 0.1875
v 0.59375 3.1875 0.125
v 0.21875 3.25 0.1875
v 0.21875 3.25 0.125
v 0.21875 3.1875 0.1875
v 0.21875 3.1875 0.125
v 0.84375 2.75 0.1875
v 0.84375 2.75 0.125
v 0.84375 2.6875 0.1875
v 0.84375 2.6875 0.125
v 0.46875 2.75 0.1875
v 0.46875 2.75 0.125
v 0.46875 2.6875 0.1875
v 0.46875 2.6875 0.125
v 0.59375 2.25 0.1875
v 0.59375 2.25 0.125
v 0.59375 2.1875 0.1875
v 0.59375 2.1875 0.125
v 0.21875 2.25 0.1875
v 0.21875 2.25 0.125
v 0.21875 2.1875 0.1875
v 0.21875 2.1875 0.125
v 0.84375 1.75 0.1875
v 0.84375 1.75 0.125
v 0.84375 1.6875 0.1875
v 0.84375 1.6875 0.125
v 0.46875 1.75 0.1875
v 0.46875 1.75 0.125
v 0.46875 1.6875 0.1875
v 0.46875 1.6875 0.125
v 0.90625 0.25 0.375
v 0.90625 0.25 -0.375
v 0.90625 -0.1875 0.375
v 0.90625 -0.1875 -0.375
v 0.15625 0.25 0.375
v 0.15625 0.25 -0.375
v 0.15625 -0.1875 0.375
v 0.15625 -0.1875 -0.375
v 0.84375 0.3125 0.25
v 0.84375 0.3125 -0.25
v 0.84375 0.25 0.25
v 0.84375 0.25 -0.25
v 0.21875 0.3125 0.25
v 0.21875 0.3125 -0.25
v 0.21875 0.25 0.25
v 0.21875 0.25 -0.25
v 0.7964150429449552 0.28661165235168173 -0.037500000000000006
v 0.7964150429449552 0.28661165235168173 -0.11875
v 0.7080266952966369 0.19822330470336302 -0.037500000000000006
v 0.7080266952966369 0.19822330470336302 -0.11875
v 0.5754441738241592 0.5075825214724778 -0.037500000000000006
v 0.5754441738241592 0.5075825214724778 -0.11875
v 0.48705582617584076 0.41919417382415913 -0.037500000000000006
v 0.48705582617584076 0.41919417382415913 -0.11875
v 0.49463834764831843 0.5151650429449552 -0.037500000000000006
v 0.49463834764831843 0.5151650429449552 -0.11875
v 0.5830266952966369 0.426776695296637 -0.037500000000000006
v 0.5830266952966369 0.426776695296637 -0.11875
v 0.2736674785275223 0.29419417382415913 -0.037500000000000006
v 0.2736674785275223 0.29419417382415913 -0.11875
v 0.36205582617584076 0.20580582617584087 -0.037500000000000006
v 0.36205582617584076 0.20580582617584087 -0.11875
v 0.49463834764831843 0.5151650429449552 0.11875000000000002
v 0.49463834764831843 0.5151650429449552 0.037500000000000006
v 0.5830266952966369 0.426776695296637 0.11875000000000002
v 0.5830266952966369 0.426776695296637 0.037500000000000006
v 0.2736674785275223 0.29419417382415913 0.11875000000000002
v 0.2736674785275223 0.29419417382415913 0.037500000000000006
v 0.36205582617584076 0.20580582617584087 0.11875000000000002
v 0.36205582617584076 0.20580582617584087 0.037500000000000006
v 0.7964150429449552 0.28661165235168173 0.11875000000000002
v 0.7964150429449552 0.28661165235168173 0.037500000000000006
v 0.7080266952966369 0.19822330470336302 0.11875000000000002
v 0.7080266952966369 0.19822330470336302 0.037500000000000006
v 0.5754441738241592 0.5075825214724778 0.11875000000000002
v 0.5754441738241592 0.5075825214724778 0.037500000000000006
v 0.48705582617584076 0.41919417382415913 0.11875000000000002
v 0.48705582617584076 0.41919417382415913 0.037500000000000006
v 0.84375 1.3125 0.5
v 0.84375 1.3125 0.125
v 0.84375 0.5 0.5
v 0.84375 0.5 0.125
v 0.21875 1.3125 0.5
v 0.21875 1.3125 0.125
v 0.21875 0.5 0.5
v 0.21875 0.5 0.125
v 0.5625 3.6401650429449552 0.11875000000000002
v 0.5625 3.6401650429449552 0.06874999999999998
v 0.4299174785275224 3.507582521472478 0.11875000000000002
v 0.4299174785275224 3.507582521472478 0.06874999999999998
v 0.34152913087920395 3.8611359120657514 0.11875000000000002
v 0.34152913087920395 3.8611359120657514 0.06874999999999998
v 0.20894660940672627 3.728553390593274 0.11875000000000002
v 0.20894660940672627 3.728553390593274 0.06874999999999998
v 0.5625 3.6401650429449552 -0.06875
v 0.5625 3.6401650429449552 -0.11875
v 0.4299174785275224 3.507582521472478 -0.06875
v 0.4299174785275224 3.507582521472478 -0.11875
v 0.34152913087920395 3.8611359120657514 -0.06875
v 0.34152913087920395 3.8611359120657514 -0.11875
v 0.20894660940672627 3.728553390593274 -0.06875
v 0.20894660940672627 3.728553390593274 -0.11875
v 0.375 3.875 0.25
v 0.375 3.875 -0.25
v 0.375 3.8125 0.25
v 0.375 3.8125 -0.25
v -0.1875 3.875 0.25
v -0.1875 3.875 -0.25
v -0.1875 3.8125 0.25
v -0.1875 3.8125 -0.25
v 0.65625 3.8125 0.1875
v 0.65625 3.8125 -0.1875
v 0.65625 3.6875 0.1875
v 0.65625 3.6875 -0.1875
v -0.1875 3.8125 0.1875
v -0.1875 3.8125 -0.1875
v -0.1875 3.6875 0.1875
v -0.1875 3.6875 -0.1875
v 0.65625 3.875 0.1875
v 0.65625 3.875 -0.1875
v 0.65625 3.8125 0.1875
v 0.65625 3.8125 -0.1875
v 0.375 3.875 0.1875
v 0.375 3.875 -0.1875
v 0.375 3.8125 0.1875
v 0.375 3.8125 -0.1875
v -0.125 3.8125 -0.1875
v -0.125 3.8125 -0.25
v -0.125 3.6875 -0.1875
v -0.0625 3.8125 -0.1875
v -0.0625 3.8125 -0.25
v -0.0625 3.6875 -0.1875
v 0.0625 3.8125 -0.1875
v 0.0625 3.8125 -0.25
v 0.0625 3.6875 -0.1875
v 0.125 3.8125 -0.1875
v 0.125 3.8125 -0.25
v 0.125 3.6875 -0.1875
v 0.25 3.8125 -0.1875
v 0.25 3.8125 -0.25
v 0.25 3.6875 -0.1875
v 0.3125 3.8125 -0.1875
v 0.3125 3.8125 -0.25
v 0.3125 3.6875 -0.1875
v -0.125 3.8125 0.1875
v -0.125 3.8125 0.25
v -0.125 3.6875 0.1875
v -0.0625 3.8125 0.1875
v -0.0625 3.8125 0.25
v -0.0625 3.6875 0.1875
v 0.0625 3.8125 0.1875
v 0.0625 3.8125 0.25
v 0.0625 3.6875 0.1875
v 0.125 3.8125 0.1875
v 0.125 3.8125 0.25
v 0.125 3.6875 0.1875
v 0.25 3.8125 0.1875
v 0.25 3.8125 0.25
v 0.25 3.6875 0.1875
v 0.3125 3.8125 0.1875
v 0.3125 3.8125 0.25
v 0.3125 3.6875 0.1875
v 0.125 3.6875 0.0625
v 0.125 3.6875 -0.0625
v 0.125 3.4375 0.0625
v 0.125 3.4375 -0.0625
v 0.0625 3.6875 0.0625
v 0.0625 3.6875 -0.0625
v 0.0625 3.4375 0.0625
v 0.0625 3.4375 -0.0625
v -0.0625 3.6875 0.03125
v -0.0625 3.6875 -0.03125
v -0.0625 3.5687499999999996 0.03125
v -0.0625 3.5687499999999996 -0.03125
v -0.109375 3.6875 0.03125
v -0.109375 3.6875 -0.03125
v -0.109375 3.5687499999999996 0.03125
v -0.109375 3.5687499999999996 -0.03125
v 0.21875 3.490625 0.03125
v 0.21875 3.490625 -0.03125
v 0.21875 3.44375 0.03125
v 0.21875 3.44375 -0.03125
v 0.015625 3.490625 0.03125
v 0.015625 3.490625 -0.03125
v 0.015625 3.44375 0.03125
v 0.015625 3.44375 -0.03125
v 0.21875 3.490625 0.03125
v 0.21875 3.490625 -0.03125
v 0.21875 3.44375 0.03125
v 0.21875 3.44375 -0.03125
v 0.40625 3.553125 0.03125
v 0.40625 3.553125 -0.03125
v 0.40625 3.50625 0.03125
v 0.40625 3.50625 -0.03125
v -0.0625 3.56875 0.03125
v -0.0625 3.56875 -0.03125
v -0.109375 3.56875 0.03125
v -0.109375 3.56875 -0.03125
v 0.015625 3.490625 0.03125
v 0.015625 3.490625 -0.03125
v 0.015625 3.44375 0.03125
v 0.015625 3.44375 -0.03125
v -0.0625 4 0.21250000000000002
v -0.0625 4 0.09999999999999998
v -0.125 3.875 0.21250000000000002
v -0.125 3.875 0.09999999999999998
v -0.0625 3.875 0.21250000000000002
v -0.0625 3.875 0.09999999999999998
v 0 4 0.21250000000000002
v 0 4 0.09999999999999998
v -0.0625 4 -0.1625
v -0.0625 4 -0.2125
v -0.125 3.875 -0.1625
v -0.125 3.875 -0.2125
v -0.0625 3.875 -0.1625
v -0.0625 3.875 -0.2125
v 0 4 -0.1625
v 0 4 -0.2125
v 0 4 -0.1625
v 0 4 -0.2125
v 0.0625 3.875 -0.1625
v 0.0625 3.875 -0.2125
v 0.0625 4 -0.1625
v 0.0625 4 -0.2125
v 0.125 3.875 -0.1625
v 0.125 3.875 -0.2125
v 0 4 0.21250000000000002
v 0 4 0.09999999999999998
v 0.0625 3.875 0.21250000000000002
v 0.0625 3.875 0.09999999999999998
v 0.0625 4 0.21250000000000002
v 0.0625 4 0.09999999999999998
v 0.125 3.875 0.21250000000000002
v 0.125 3.875 0.09999999999999998
v 1.1 3.9375 0.275
v 1.1 3.9375 -0.69375
v 1.1 3.875 0.275
v 1.1 3.875 -0.69375
v 0.38125000000000003 3.9375 0.275
v 0.38125000000000003 3.9375 -0.69375
v 0.38125000000000003 3.875 0.275
v 0.38125000000000003 3.875 -0.69375
v 0.4125 4.4375 -0.25625
v 0.4125 4.4375 -0.725
v 0.4125 4.40625 -0.25625
v 0.4125 4.40625 -0.725
v 0.38125 4.4375 -0.25625
v 0.38125 4.4375 -0.725
v 0.38125 4.40625 -0.25625
v 0.38125 4.40625 -0.725
v 0.4125 4.875 -0.25625
v 0.4125 4.875 -0.725
v 0.4125 4.84375 -0.25625
v 0.4125 4.84375 -0.725
v 0.38125 4.875 -0.25625
v 0.38125 4.875 -0.725
v 0.38125 4.84375 -0.25625
v 0.38125 4.84375 -0.725
v 1.1 3.9375 -0.69375
v 1.1 3.9375 -0.75625
v 1.1 3.875 -0.69375
v 1.1 3.875 -0.75625
v 0.38125000000000003 3.9375 -0.69375
v 0.38125000000000003 3.9375 -0.75625
v 0.38125000000000003 3.875 -0.69375
v 0.38125000000000003 3.875 -0.75625
v 1.06875 4.4375 -0.725
v 1.06875 4.4375 -0.75625
v 1.06875 4.40625 -0.725
v 1.06875 4.40625 -0.75625
v 0.41250000000000003 4.4375 -0.725
v 0.41250000000000003 4.4375 -0.75625
v 0.41250000000000003 4.40625 -0.725
v 0.41250000000000003 4.40625 -0.75625
v 1.06875 4.875 -0.725
v 1.06875 4.875 -0.75625
v 1.06875 4.84375 -0.725
v 1.06875 4.84375 -0.75625
v 0.41250000000000003 4.875 -0.725
v 0.41250000000000003 4.875 -0.75625
v 0.41250000000000003 4.84375 -0.725
v 0.41250000000000003 4.84375 -0.75625
v 1.1 4.875 -0.725
v 1.1 4.875 -0.75625
v 1.1 3.9375 -0.725
v 1.1 3.9375 -0.75625
v 1.06875 4.875 -0.725
v 1.06875 4.875 -0.75625
v 1.06875 3.9375 -0.725
v 1.06875 3.9375 -0.75625
v 0.4125 4.875 -0.725
v 0.4125 4.875 -0.75625
v 0.4125 3.9375 -0.725
v 0.4125 3.9375 -0.75625
v 0.38125 4.875 -0.725
v 0.38125 4.875 -0.75625
v 0.38125 3.9375 -0.725
v 0.38125 3.9375 -0.75625
v 0.4125 4.875 -0.22499999999999998
v 0.4125 4.875 -0.25625
v 0.4125 3.9375 -0.22499999999999998
v 0.4125 3.9375 -0.25625
v 0.38125 4.875 -0.22499999999999998
v 0.38125 4.875 -0.25625
v 0.38125 3.9375 -0.22499999999999998
v 0.38125 3.9375 -0.25625
v 1.1 4.875 0.275
v 1.1 4.875 0.24375000000000002
v 1.1 3.9375 0.275
v 1.1 3.9375 0.24375000000000002
v 1.06875 4.875 0.275
v 1.06875 4.875 0.24375000000000002
v 1.06875 3.9375 0.275
v 1.06875 3.9375 0.24375000000000002
v 1.1 4.875 0.24375000000000002
v 1.1 4.875 -0.725
v 1.1 4.84375 0.24375000000000002
v 1.1 4.84375 -0.725
v 1.06875 4.875 0.24375000000000002
v 1.06875 4.875 -0.725
v 1.06875 4.84375 0.24375000000000002
v 1.06875 4.84375 -0.725
v 1.1 4.4375 0.24375000000000002
v 1.1 4.4375 -0.725
v 1.1 4.40625 0.24375000000000002
v 1.1 4.40625 -0.725
v 1.06875 4.4375 0.24375000000000002
v 1.06875 4.4375 -0.725
v 1.06875 4.40625 0.24375000000000002
v 1.06875 4.40625 -0.725
v 0.85 3.875 0.24375000000000002
v 0.85 3.875 -0.69375
v 0.85 3.8125 0.24375000000000002
v 0.85 3.8125 -0.69375
v 0.6625 3.875 0.24375000000000002
v 0.6625 3.875 -0.69375
v 0.6625 3.8125 0.24375000000000002
v 0.6625 3.8125 -0.69375
v 0.725 3.8125 0.24375000000000002
v 0.725 3.8125 -0.69375
v 0.725 3.6875 0.24375000000000002
v 0.725 3.6875 -0.69375
v 0.6625 3.8125 0.24375000000000002
v 0.6625 3.8125 -0.69375
v 0.6625 3.6875 0.24375000000000002
v 0.6625 3.6875 -0.69375
vt 0.09375 0
vt 0.09375 1
vt 0.125 1
vt 0.125 0
vt 0 0
vt 0 1
vt 0.03125 1
vt 0.03125 0
vt 0 0.875
vt 0 0.90625
vt 0.125 0.90625
vt 0.125 0.875
vt 0 0.96875
vt 0 1
vt 0.125 1
vt 0.125 0.96875
vt 0 0
vt 0 1
vt 0.125 1
vt 0.125 0
vt 0 0
vt 0 1
vt 0.125 1
vt 0.125 0
vt 0.015625 0.75
vt 0.015625 1
vt 0.078125 1
vt 0.078125 0.75
vt 0.015625 0.75
vt 0.015625 1
vt 0.078125 1
vt 0.078125 0.75
vt 0 0.921875
vt 0 0.984375
vt 0.0625 0.984375
vt 0.0625 0.921875
vt 0 0.921875
vt 0 0.984375
vt 0.0625 0.984375
vt 0.0625 0.921875
vt 0 0.75
vt 0 1
vt 0.0625 1
vt 0.0625 0.75
vt 0.015625 0.75
vt 0.015625 1
vt 0.078125 1
vt 0.078125 0.75
vt 0.015625 0.859375
vt 0.015625 1
vt 0.078125 1
vt 0.078125 0.859375
vt 0.015625 0.859375
vt 0.015625 1
vt 0.078125 1
vt 0.078125 0.859375
vt 0 0.921875
vt 0 0.984375
vt 0.0625 0.984375
vt 0.0625 0.921875
vt 0 0.921875
vt 0 0.984375
vt 0.0625 0.984375
vt 0.0625 0.921875
vt 0 0.859375
vt 0 1
vt 0.0625 1
vt 0.0625 0.859375
vt 0.015625 0.859375
vt 0.015625 1
vt 0.078125 1
vt 0.078125 0.859375
vt 0.015625 0.75
vt 0.015625 1
vt 0.078125 1
vt 0.078125 0.75
vt 0.015625 0.75
vt 0.015625 1
vt 0.078125 1
vt 0.078125 0.75
vt 0 0.921875
vt 0 0.984375
vt 0.0625 0.984375
vt 0.0625 0.921875
vt 0 0.921875
vt 0 0.984375
vt 0.0625 0.984375
vt 0.0625 0.921875
vt 0 0.75
vt 0 1
vt 0.0625 1
vt 0.0625 0.75
vt 0.015625 0.75
vt 0.015625 1
vt 0.078125 1
vt 0.078125 0.75
vt 0.015625 0.796875
vt 0.015625 1
vt 0.078125 1
vt 0.078125 0.796875
vt 0.015625 0.796875
vt 0.015625 1
vt 0.078125 1
vt 0.078125 0.796875
vt 0 0.921875
vt 0 0.984375
vt 0.0625 0.984375
vt 0.0625 0.921875
vt 0 0.921875
vt 0 0.984375
vt 0.0625 0.984375
vt 0.0625 0.921875
vt 0 0.796875
vt 0 1
vt 0.0625 1
vt 0.0625 0.796875
vt 0.015625 0.796875
vt 0.015625 1
vt 0.078125 1
vt 0.078125 0.796875
vt 0 0.96875
vt 0 0.984375
vt 0.015625 0.984375
vt 0.015625 0.96875
vt 0.015625 0.96875
vt 0.015625 0.984375
vt 0.03125 0.984375
vt 0.03125 0.96875
vt 0.015625 0.984375
vt 0.015625 1
vt 0.0625 1
vt 0.0625 0.984375
vt 0.015625 0.96875
vt 0.015625 0.984375
vt 0.0625 0.984375
vt 0.0625 0.96875
vt 0.015625 0.96875
vt 0.015625 0.984375
vt 0.0625 0.984375
vt 0.0625 0.96875
vt 0 0.96875
vt 0 0.984375
vt 0.046875 0.984375
vt 0.046875 0.96875
vt 0 0.96875
vt 0 0.984375
vt 0.015625 0.984375
vt 0.015625 0.96875
vt 0.015625 0.96875
vt 0.015625 0.984375
vt 0.03125 0.984375
vt 0.03125 0.96875
vt 0.015625 0.984375
vt 0.015625 1
vt 0.0625 1
vt 0.0625 0.984375
vt 0.015625 0.96875
vt 0.015625 0.984375
vt 0.0625 0.984375
vt 0.0625 0.96875
vt 0.015625 0.96875
vt 0.015625 0.984375
vt 0.0625 0.984375
vt 0.0625 0.96875
vt 0 0.96875
vt 0 0.984375
vt 0.046875 0.984375
vt 0.046875 0.96875
vt 0 0.96875
vt 0 0.984375
vt 0.03125 0.984375
vt 0.03125 0.96875
vt 0.015625 0.96875
vt 0.015625 0.984375
vt 0.046875 0.984375
vt 0.046875 0.96875
vt 0.046875 0.96875
vt 0.046875 1
vt 0.0625 1
vt 0.0625 0.96875
vt 0.046875 0.953125
vt 0.046875 0.984375
vt 0.0625 0.984375
vt 0.0625 0.953125
vt 0.046875 0.96875
vt 0.046875 0.984375
vt 0.0625 0.984375
vt 0.0625 0.96875
vt 0 0.96875
vt 0 0.984375
vt 0.015625 0.984375
vt 0.015625 0.96875
vt 0 0.96875
vt 0 0.984375
vt 0.015625 0.984375
vt 0.015625 0.96875
vt 0.015625 0.96875
vt 0.015625 0.984375
vt 0.03125 0.984375
vt 0.03125 0.96875
vt 0.015625 0.984375
vt 0.015625 1
vt 0.0625 1
vt 0.0625 0.984375
vt 0.015625 0.96875
vt 0.015625 0.984375
vt 0.0625 0.984375
vt 0.0625 0.96875
vt 0.015625 0.96875
vt 0.015625 0.984375
vt 0.0625 0.984375
vt 0.0625 0.96875
vt 0 0.96875
vt 0 0.984375
vt 0.046875 0.984375
vt 0.046875 0.96875
vt 0 0.96875
vt 0 0.984375
vt 0.03125 0.984375
vt 0.03125 0.96875
vt 0.015625 0.96875
vt 0.015625 0.984375
vt 0.046875 0.984375
vt 0.046875 0.96875
vt 0.046875 0.96875
vt 0.046875 1
vt 0.0625 1
vt 0.0625 0.96875
vt 0.046875 0.953125
vt 0.046875 0.984375
vt 0.0625 0.984375
vt 0.0625 0.953125
vt 0.046875 0.96875
vt 0.046875 0.984375
vt 0.0625 0.984375
vt 0.0625 0.96875
vt 0 0.96875
vt 0 0.984375
vt 0.015625 0.984375
vt 0.015625 0.96875
vt 0 0.96875
vt 0 0.984375
vt 0.015625 0.984375
vt 0.015625 0.96875
vt 0.015625 0.96875
vt 0.015625 0.984375
vt 0.03125 0.984375
vt 0.03125 0.96875
vt 0.015625 0.984375
vt 0.015625 1
vt 0.0625 1
vt 0.0625 0.984375
vt 0.015625 0.96875
vt 0.015625 0.984375
vt 0.0625 0.984375
vt 0.0625 0.96875
vt 0.015625 0.96875
vt 0.015625 0.984375
vt 0.0625 0.984375
vt 0.0625 0.96875
vt 0 0.96875
vt 0 0.984375
vt 0.046875 0.984375
vt 0.046875 0.96875
vt 0 0.96875
vt 0 0.984375
vt 0.015625 0.984375
vt 0.015625 0.96875
vt 0.015625 0.96875
vt 0.015625 0.984375
vt 0.03125 0.984375
vt 0.03125 0.96875
vt 0.015625 0.984375
vt 0.015625 1
vt 0.0625 1
vt 0.0625 0.984375
vt 0.015625 0.96875
vt 0.015625 0.984375
vt 0.0625 0.984375
vt 0.0625 0.96875
vt 0.015625 0.96875
vt 0.015625 0.984375
vt 0.0625 0.984375
vt 0.0625 0.96875
vt 0 0.96875
vt 0 0.984375
vt 0.046875 0.984375
vt 0.046875 0.96875
vt 0 0.96875
vt 0 0.984375
vt 0.03125 0.984375
vt 0.03125 0.96875
vt 0.015625 0.96875
vt 0.015625 0.984375
vt 0.046875 0.984375
vt 0.046875 0.96875
vt 0.046875 0.96875
vt 0.046875 1
vt 0.0625 1
vt 0.0625 0.96875
vt 0.046875 0.953125
vt 0.046875 0.984375
vt 0.0625 0.984375
vt 0.0625 0.953125
vt 0.046875 0.96875
vt 0.046875 0.984375
vt 0.0625 0.984375
vt 0.0625 0.96875
vt 0 0.96875
vt 0 0.984375
vt 0.015625 0.984375
vt 0.015625 0.96875
vt 0 0.96875
vt 0 0.984375
vt 0.015625 0.984375
vt 0.015625 0.96875
vt 0.015625 0.96875
vt 0.015625 0.984375
vt 0.03125 0.984375
vt 0.03125 0.96875
vt 0.015625 0.984375
vt 0.015625 1
vt 0.0625 1
vt 0.0625 0.984375
vt 0.015625 0.96875
vt 0.015625 0.984375
vt 0.0625 0.984375
vt 0.0625 0.96875
vt 0.015625 0.96875
vt 0.015625 0.984375
vt 0.0625 0.984375
vt 0.0625 0.96875
vt 0 0.96875
vt 0 0.984375
vt 0.046875 0.984375
vt 0.046875 0.96875
vt 0.03125 0.75
vt 0.03125 1
vt 0 1
vt 0 0.75
vt 0.03125 0.75
vt 0.03125 1
vt 0 1
vt 0 0.75
vt 0.046875 0.96875
vt 0.046875 1
vt 0 1
vt 0 0.96875
vt 0.046875 0.96875
vt 0.046875 1
vt 0 1
vt 0 0.96875
vt 0.046875 0.75
vt 0.046875 1
vt 0 1
vt 0 0.75
vt 0.046875 0.75
vt 0.046875 1
vt 0 1
vt 0 0.75
vt 0.03125 0.75
vt 0.03125 1
vt 0 1
vt 0 0.75
vt 0.03125 0.75
vt 0.03125 1
vt 0 1
vt 0 0.75
vt 0.046875 0.96875
vt 0.046875 1
vt 0 1
vt 0 0.96875
vt 0.046875 0.96875
vt 0.046875 1
vt 0 1
vt 0 0.96875
vt 0.046875 0.75
vt 0.046875 1
vt 0 1
vt 0 0.75
vt 0.046875 0.75
vt 0.046875 1
vt 0 1
vt 0 0.75
vt 0.171875 0.9375
vt 0.171875 0.953125
vt 0.109375 0.953125
vt 0.109375 0.9375
vt 0.171875 0.9375
vt 0.171875 0.953125
vt 0.109375 0.953125
vt 0.109375 0.9375
vt 0.028125 0.9375
vt 0.028125 1
vt 0 1
vt 0 0.9375
vt 0.028125 0.9375
vt 0.028125 1
vt 0 1
vt 0 0.9375
vt 0.028125 0.984375
vt 0.028125 1
vt 0 1
vt 0 0.984375
vt 0.028125 0.984375
vt 0.028125 1
vt 0 1
vt 0 0.984375
vt 0.15625 0.90625
vt 0.15625 0.921875
vt 0.09375 0.921875
vt 0.09375 0.90625
vt 0.15625 0.90625
vt 0.15625 0.921875
vt 0.09375 0.921875
vt 0.09375 0.90625
vt 0.046875 0.9375
vt 0.046875 1
vt 0 1
vt 0 0.9375
vt 0.046875 0.9375
vt 0.046875 1
vt 0 1
vt 0 0.9375
vt 0.140625 0.90625
vt 0.140625 0.921875
vt 0.09375 0.921875
vt 0.09375 0.90625
vt 0.140625 0.90625
vt 0.140625 0.921875
vt 0.09375 0.921875
vt 0.09375 0.90625
vt 0.15625 0.875
vt 0.15625 0.921875
vt 0.09375 0.921875
vt 0.09375 0.875
vt 0.15625 0.875
vt 0.15625 0.921875
vt 0.09375 0.921875
vt 0.09375 0.875
vt 0.046875 0.9375
vt 0.046875 1
vt 0 1
vt 0 0.9375
vt 0.046875 0.9375
vt 0.046875 1
vt 0 1
vt 0 0.9375
vt 0.140625 0.90625
vt 0.140625 0.921875
vt 0.09375 0.921875
vt 0.09375 0.90625
vt 0.140625 0.90625
vt 0.140625 0.921875
vt 0.09375 0.921875
vt 0.09375 0.90625
vt 0.734375 0.71875
vt 0.734375 0.734375
vt 0.75 0.734375
vt 0.75 0.71875
vt 0.734375 0.71875
vt 0.734375 0.734375
vt 0.75 0.734375
vt 0.75 0.71875
vt 0.5 0.71875
vt 0.5 0.734375
vt 0.609375 0.734375
vt 0.609375 0.71875
vt 0.5 0.71875
vt 0.5 0.734375
vt 0.609375 0.734375
vt 0.609375 0.71875
vt 0.5 0.71875
vt 0.5 0.734375
vt 0.609375 0.734375
vt 0.609375 0.71875
vt 0.5 0.71875
vt 0.5 0.734375
vt 0.609375 0.734375
vt 0.609375 0.71875
vt 0.734375 0.71875
vt 0.734375 0.734375
vt 0.75 0.734375
vt 0.75 0.71875
vt 0.734375 0.71875
vt 0.734375 0.734375
vt 0.75 0.734375
vt 0.75 0.71875
vt 0.5 0.71875
vt 0.5 0.734375
vt 0.609375 0.734375
vt 0.609375 0.71875
vt 0.5 0.71875
vt 0.5 0.734375
vt 0.609375 0.734375
vt 0.609375 0.71875
vt 0.5 0.71875
vt 0.5 0.734375
vt 0.609375 0.734375
vt 0.609375 0.71875
vt 0.5 0.71875
vt 0.5 0.734375
vt 0.609375 0.734375
vt 0.609375 0.71875
vt 0.734375 0.71875
vt 0.734375 0.734375
vt 0.75 0.734375
vt 0.75 0.71875
vt 0.734375 0.71875
vt 0.734375 0.734375
vt 0.75 0.734375
vt 0.75 0.71875
vt 0.5 0.71875
vt 0.5 0.734375
vt 0.609375 0.734375
vt 0.609375 0.71875
vt 0.5 0.71875
vt 0.5 0.734375
vt 0.609375 0.734375
vt 0.609375 0.71875
vt 0.5 0.71875
vt 0.5 0.734375
vt 0.609375 0.734375
vt 0.609375 0.71875
vt 0.5 0.71875
vt 0.5 0.734375
vt 0.609375 0.734375
vt 0.609375 0.71875
vt 0.734375 0.71875
vt 0.734375 0.734375
vt 0.75 0.734375
vt 0.75 0.71875
vt 0.734375 0.71875
vt 0.734375 0.734375
vt 0.75 0.734375
vt 0.75 0.71875
vt 0.5 0.71875
vt 0.5 0.734375
vt 0.609375 0.734375
vt 0.609375 0.71875
vt 0.5 0.71875
vt 0.5 0.734375
vt 0.609375 0.734375
vt 0.609375 0.71875
vt 0.5 0.71875
vt 0.5 0.734375
vt 0.609375 0.734375
vt 0.609375 0.71875
vt 0.5 0.71875
vt 0.5 0.734375
vt 0.609375 0.734375
vt 0.609375 0.71875
vt 0 0.578125
vt 0 0.6875
vt 0.1875 0.6875
vt 0.1875 0.578125
vt 0 0.578125
vt 0 0.6875
vt 0.1875 0.6875
vt 0.1875 0.578125
vt 0 0.5
vt 0 0.6875
vt 0.1875 0.6875
vt 0.1875 0.5
vt 0 0.5
vt 0 0.6875
vt 0.1875 0.6875
vt 0.1875 0.5
vt 0 0.578125
vt 0 0.6875
vt 0.1875 0.6875
vt 0.1875 0.578125
vt 0 0.578125
vt 0 0.6875
vt 0.1875 0.6875
vt 0.1875 0.578125
vt 0.015625 0.984375
vt 0.015625 1
vt 0.140625 1
vt 0.140625 0.984375
vt 0.015625 0.984375
vt 0.015625 1
vt 0.140625 1
vt 0.140625 0.984375
vt 0 0.859375
vt 0 0.984375
vt 0.15625 0.984375
vt 0.15625 0.859375
vt 0 0.859375
vt 0 0.984375
vt 0.15625 0.984375
vt 0.15625 0.859375
vt 0 0.984375
vt 0 1
vt 0.15625 1
vt 0.15625 0.984375
vt 0 0.984375
vt 0 1
vt 0.15625 1
vt 0.15625 0.984375
vt 0.0078125 0.96875
vt 0.0078125 1
vt 0.028125 1
vt 0.028125 0.96875
vt 0 0.96875
vt 0 1
vt 0.0203125 1
vt 0.0203125 0.96875
vt 0 0.971875
vt 0 0.9921875
vt 0.078125 0.9921875
vt 0.078125 0.971875
vt 0 0.9796875
vt 0 1
vt 0.078125 1
vt 0.078125 0.9796875
vt 0 0.96875
vt 0 1
vt 0.078125 1
vt 0.078125 0.96875
vt 0 0.96875
vt 0 1
vt 0.078125 1
vt 0.078125 0.96875
vt 0.0078125 0.96875
vt 0.0078125 1
vt 0.028125 1
vt 0.028125 0.96875
vt 0 0.96875
vt 0 1
vt 0.0203125 1
vt 0.0203125 0.96875
vt 0 0.971875
vt 0 0.9921875
vt 0.078125 0.9921875
vt 0.078125 0.971875
vt 0 0.9796875
vt 0 1
vt 0.078125 1
vt 0.078125 0.9796875
vt 0 0.96875
vt 0 1
vt 0.078125 1
vt 0.078125 0.96875
vt 0 0.96875
vt 0 1
vt 0.078125 1
vt 0.078125 0.96875
vt 0 0.96875
vt 0 1
vt 0.0203125 1
vt 0.0203125 0.96875
vt 0.0078125 0.96875
vt 0.0078125 1
vt 0.028125 1
vt 0.028125 0.96875
vt 0 0.9796875
vt 0 1
vt 0.078125 1
vt 0.078125 0.9796875
vt 0 0.971875
vt 0 0.9921875
vt 0.078125 0.9921875
vt 0.078125 0.971875
vt 0 0.96875
vt 0 1
vt 0.078125 1
vt 0.078125 0.96875
vt 0 0.96875
vt 0 1
vt 0.078125 1
vt 0.078125 0.96875
vt 0 0.96875
vt 0 1
vt 0.0203125 1
vt 0.0203125 0.96875
vt 0.0078125 0.96875
vt 0.0078125 1
vt 0.028125 1
vt 0.028125 0.96875
vt 0 0.9796875
vt 0 1
vt 0.078125 1
vt 0.078125 0.9796875
vt 0 0.971875
vt 0 0.9921875
vt 0.078125 0.9921875
vt 0.078125 0.971875
vt 0 0.96875
vt 0 1
vt 0.078125 1
vt 0.078125 0.96875
vt 0 0.96875
vt 0 1
vt 0.078125 1
vt 0.078125 0.96875
vt 0.4375 0.84375
vt 0.4375 1
vt 0.515625 1
vt 0.515625 0.84375
vt 0.4375 0.84375
vt 0.4375 1
vt 0.515625 1
vt 0.515625 0.84375
vt 0.265625 0.75
vt 0.265625 0.828125
vt 0.390625 0.828125
vt 0.390625 0.75
vt 0.265625 0.75
vt 0.265625 0.828125
vt 0.390625 0.828125
vt 0.390625 0.75
vt 0.265625 0.84375
vt 0.265625 1
vt 0.390625 1
vt 0.390625 0.84375
vt 0.265625 0.84375
vt 0.265625 1
vt 0.390625 1
vt 0.390625 0.84375
vt 0.078125 0.953125
vt 0.078125 1
vt 0.090625 1
vt 0.090625 0.953125
vt 0 0.953125
vt 0 1
vt 0.0125 1
vt 0.0125 0.953125
vt 0 0.909375
vt 0 0.921875
vt 0.078125 0.921875
vt 0.078125 0.909375
vt 0 0.9875
vt 0 1
vt 0.078125 1
vt 0.078125 0.9875
vt 0 0.953125
vt 0 1
vt 0.078125 1
vt 0.078125 0.953125
vt 0 0.953125
vt 0 1
vt 0.078125 1
vt 0.078125 0.953125
vt 0.078125 0.953125
vt 0.078125 1
vt 0.090625 1
vt 0.090625 0.953125
vt 0 0.953125
vt 0 1
vt 0.0125 1
vt 0.0125 0.953125
vt 0 0.909375
vt 0 0.921875
vt 0.078125 0.921875
vt 0.078125 0.909375
vt 0 0.9875
vt 0 1
vt 0.078125 1
vt 0.078125 0.9875
vt 0 0.953125
vt 0 1
vt 0.078125 1
vt 0.078125 0.953125
vt 0 0.953125
vt 0 1
vt 0.078125 1
vt 0.078125 0.953125
vt 0 0.984375
vt 0 1
vt 0.125 1
vt 0.125 0.984375
vt 0 0.984375
vt 0 1
vt 0.125 1
vt 0.125 0.984375
vt 0.078125 0.875
vt 0.078125 1
vt 0.21875 1
vt 0.21875 0.875
vt 0.078125 0.875
vt 0.078125 1
vt 0.21875 1
vt 0.21875 0.875
vt 0.078125 0.984375
vt 0.078125 1
vt 0.21875 1
vt 0.21875 0.984375
vt 0 0.984375
vt 0 1
vt 0.140625 1
vt 0.140625 0.984375
vt 0.015625 0.96875
vt 0.015625 1
vt 0.109375 1
vt 0.109375 0.96875
vt 0.015625 0.96875
vt 0.015625 1
vt 0.109375 1
vt 0.109375 0.96875
vt 0 0
vt 0 0.09375
vt 0.2109375 0.09375
vt 0.2109375 0
vt 0.015625 0.90625
vt 0.015625 1
vt 0.2265625 1
vt 0.2265625 0.90625
vt 0.0078125 0.96875
vt 0.0078125 1
vt 0.21875 1
vt 0.21875 0.96875
vt 0 0.96875
vt 0 1
vt 0.2109375 1
vt 0.2109375 0.96875
vt 0.015625 0.9375
vt 0.015625 0.953125
vt 0.109375 0.953125
vt 0.109375 0.9375
vt 0.015625 0.9375
vt 0.015625 0.953125
vt 0.109375 0.953125
vt 0.109375 0.9375
vt 0 0
vt 0 0.09375
vt 0.2109375 0.09375
vt 0.2109375 0
vt 0 0
vt 0 0.09375
vt 0.2109375 0.09375
vt 0.2109375 0
vt 0.0078125 0.9375
vt 0.0078125 0.953125
vt 0.109375 0.953125
vt 0.109375 0.9375
vt 0 0.9375
vt 0 0.953125
vt 0.1015625 0.953125
vt 0.1015625 0.9375
vt 0.109375 1
vt 0.125 1
vt 0.125 0.96875
vt 0.125 1
vt 0.140625 1
vt 0.125 0.96875
vt 0.125 0.984375
vt 0.140625 0.984375
vt 0.140625 0.96875
vt 0.125 0.96875
vt 0.125 1
vt 0.140625 1
vt 0.140625 0.96875
vt 0.125 0.96875
vt 0.109375 1
vt 0.125 1
vt 0.125 0.96875
vt 0.109375 0.96875
vt 0.109375 1
vt 0.125 1
vt 0.125 0.96875
vt 0.125 1
vt 0.140625 1
vt 0.125 0.96875
vt 0.125 0.984375
vt 0.140625 0.984375
vt 0.140625 0.96875
vt 0.125 0.96875
vt 0.125 1
vt 0.140625 1
vt 0.140625 0.96875
vt 0.125 0.96875
vt 0.109375 1
vt 0.125 1
vt 0.125 0.96875
vt 0.109375 0.96875
vt 0.109375 1
vt 0.125 1
vt 0.125 0.96875
vt 0.125 1
vt 0.140625 1
vt 0.125 0.96875
vt 0.125 0.984375
vt 0.140625 0.984375
vt 0.140625 0.96875
vt 0.125 0.96875
vt 0.125 1
vt 0.140625 1
vt 0.140625 0.96875
vt 0.125 0.96875
vt 0.109375 1
vt 0.125 1
vt 0.125 0.96875
vt 0.109375 0.96875
vt 0.125 1
vt 0.109375 1
vt 0.125 0.96875
vt 0.140625 1
vt 0.125 1
vt 0.125 0.96875
vt 0.140625 0.96875
vt 0.140625 0.984375
vt 0.125 0.984375
vt 0.125 0.96875
vt 0.140625 0.96875
vt 0.140625 1
vt 0.125 1
vt 0.125 0.96875
vt 0.125 0.96875
vt 0.125 1
vt 0.109375 1
vt 0.109375 0.96875
vt 0.125 1
vt 0.109375 1
vt 0.125 0.96875
vt 0.140625 1
vt 0.125 1
vt 0.125 0.96875
vt 0.140625 0.96875
vt 0.140625 0.984375
vt 0.125 0.984375
vt 0.125 0.96875
vt 0.140625 0.96875
vt 0.140625 1
vt 0.125 1
vt 0.125 0.96875
vt 0.125 0.96875
vt 0.125 1
vt 0.109375 1
vt 0.109375 0.96875
vt 0.125 1
vt 0.109375 1
vt 0.125 0.96875
vt 0.140625 1
vt 0.125 1
vt 0.125 0.96875
vt 0.140625 0.96875
vt 0.140625 0.984375
vt 0.125 0.984375
vt 0.125 0.96875
vt 0.140625 0.96875
vt 0.140625 1
vt 0.125 1
vt 0.125 0.96875
vt 0.125 0.96875
vt 0.125 1
vt 0.109375 1
vt 0.109375 0.96875
vt 0 0.9375
vt 0 1
vt 0.03125 1
vt 0.03125 0.9375
vt 0 0.9375
vt 0 1
vt 0.03125 1
vt 0.03125 0.9375
vt 0.015625 0.96875
vt 0.015625 1
vt 0.03125 1
vt 0.03125 0.96875
vt 0.015625 0.96875
vt 0.015625 1
vt 0.03125 1
vt 0.03125 0.96875
vt 0.015625 0.9375
vt 0.015625 1
vt 0.03125 1
vt 0.03125 0.9375
vt 0 0.9375
vt 0 1
vt 0.015625 1
vt 0.015625 0.9375
vt 0.3046875 0.4234375
vt 0.3046875 0.453125
vt 0.3203125 0.453125
vt 0.3203125 0.4234375
vt 0.3046875 0.4234375
vt 0.3046875 0.453125
vt 0.3203125 0.453125
vt 0.3203125 0.4234375
vt 0.31640625 0.4296875
vt 0.31640625 0.4453125
vt 0.328125 0.4453125
vt 0.328125 0.4296875
vt 0.31640625 0.4296875
vt 0.31640625 0.4453125
vt 0.328125 0.4453125
vt 0.328125 0.4296875
vt 0.31640625 0.4234375
vt 0.31640625 0.453125
vt 0.328125 0.453125
vt 0.328125 0.4234375
vt 0.296875 0.4234375
vt 0.296875 0.453125
vt 0.30859375 0.453125
vt 0.30859375 0.4234375
vt 0.3046875 0.4375
vt 0.3046875 0.44921875
vt 0.3203125 0.44921875
vt 0.3203125 0.4375
vt 0.3046875 0.4375
vt 0.3046875 0.44921875
vt 0.3203125 0.44921875
vt 0.3203125 0.4375
vt 0.296875 0.4296875
vt 0.296875 0.4453125
vt 0.34765625 0.4453125
vt 0.34765625 0.4296875
vt 0.296875 0.4296875
vt 0.296875 0.4453125
vt 0.34765625 0.4453125
vt 0.34765625 0.4296875
vt 0.296875 0.4375
vt 0.296875 0.44921875
vt 0.34765625 0.44921875
vt 0.34765625 0.4375
vt 0.3046875 0.4375
vt 0.3046875 0.44921875
vt 0.35546875 0.44921875
vt 0.35546875 0.4375
vt 0.3046875 0.44921875
vt 0.3203125 0.44921875
vt 0.3203125 0.4375
vt 0.3046875 0.4375
vt 0.3046875 0.44921875
vt 0.3203125 0.44921875
vt 0.3203125 0.4375
vt 0.3046875 0.4375
vt 0.32421875 0.4453125
vt 0.35546875 0.4453125
vt 0.35546875 0.4296875
vt 0.32421875 0.4296875
vt 0.32421875 0.4453125
vt 0.35546875 0.4453125
vt 0.35546875 0.4296875
vt 0.32421875 0.4296875
vt 0.32421875 0.44921875
vt 0.35546875 0.44921875
vt 0.35546875 0.4375
vt 0.32421875 0.4375
vt 0.296875 0.44921875
vt 0.328125 0.44921875
vt 0.328125 0.4375
vt 0.296875 0.4375
vt 0.3046875 0.44921875
vt 0.3203125 0.44921875
vt 0.3203125 0.4375
vt 0.3046875 0.4375
vt 0.3046875 0.44921875
vt 0.3203125 0.44921875
vt 0.3203125 0.4375
vt 0.3046875 0.4375
vt 0.296875 0.4453125
vt 0.35546875 0.4453125
vt 0.35546875 0.4296875
vt 0.296875 0.4296875
vt 0.296875 0.4453125
vt 0.35546875 0.4453125
vt 0.35546875 0.4296875
vt 0.296875 0.4296875
vt 0.296875 0.44921875
vt 0.35546875 0.44921875
vt 0.35546875 0.4375
vt 0.296875 0.4375
vt 0.296875 0.44921875
vt 0.35546875 0.44921875
vt 0.35546875 0.4375
vt 0.296875 0.4375
vt 0 1
vt 0.03125 1
vt 0.03125 0.96875
vt 0 0.96875
vt 0 1
vt 0.03125 1
vt 0.03125 0.96875
vt 0 0.96875
vt 0 1
vt 0.015625 1
vt 0.015625 0.96875
vt 0 0.96875
vt 0 1
vt 0.015625 1
vt 0.015625 0.96875
vt 0 0.96875
vt 0.015625 1
vt 0.03125 1
vt 0.03125 0.96875
vt 0.015625 0.96875
vt 0 1
vt 0.015625 1
vt 0.015625 0.96875
vt 0 0.96875
vt 0.015625 1
vt 0.03125 1
vt 0.03125 0.96875
vt 0.015625 0.96875
vt 0 1
vt 0.015625 1
vt 0.015625 0.96875
vt 0 0.96875
vt 0 0.984375
vt 0.015625 0.984375
vt 0.015625 0.96875
vt 0 0.96875
vt 0 1
vt 0.015625 1
vt 0.015625 0.96875
vt 0 0.96875
vt 0.015625 1
vt 0.03125 1
vt 0.03125 0.96875
vt 0.015625 0.96875
vt 0 1
vt 0.015625 1
vt 0.015625 0.984375
vt 0 0.984375
vt 0.015625 1
vt 0.03125 1
vt 0.03125 0.96875
vt 0.015625 0.96875
vt 0 1
vt 0.015625 1
vt 0.015625 0.96875
vt 0 0.96875
vt 0 1
vt 0.015625 1
vt 0.015625 0.984375
vt 0 0.984375
vt 0 0.984375
vt 0.015625 0.984375
vt 0.015625 0.96875
vt 0 0.96875
vt 0 1
vt 0.015625 1
vt 0.015625 0.96875
vt 0 0.96875
vt 0.015625 1
vt 0.03125 1
vt 0.03125 0.96875
vt 0.015625 0.96875
vt 0 1
vt 0.03125 1
vt 0.03125 0.96875
vt 0 0.96875
vt 0 1
vt 0.03125 1
vt 0.03125 0.96875
vt 0 0.96875
vt 0 1
vt 0.015625 1
vt 0.015625 0.96875
vt 0 0.96875
vt 0 1
vt 0.015625 1
vt 0.015625 0.96875
vt 0 0.96875
vt 0 1
vt 0.015625 1
vt 0.015625 0.96875
vt 0 0.96875
vt 0.015625 1
vt 0.03125 1
vt 0.03125 0.96875
vt 0.015625 0.96875
vt 0 0.875
vt 0 0.9375
vt 0.96875 0.9375
vt 0.96875 0.875
vt 0.03125 0.875
vt 0.03125 0.9375
vt 1 0.9375
vt 1 0.875
vt 0.28125 0.03125
vt 0.28125 1
vt 1 1
vt 1 0.03125
vt 0.28125 0
vt 0.28125 0.96875
vt 1 0.96875
vt 1 0
vt 0.28125 0.875
vt 0.28125 0.9375
vt 1 0.9375
vt 1 0.875
vt 0 0.875
vt 0 0.9375
vt 0.71875 0.9375
vt 0.71875 0.875
vt 0 0.90625
vt 0 0.9375
vt 0.46875 0.9375
vt 0.46875 0.90625
vt 0.53125 0.90625
vt 0.53125 0.9375
vt 1 0.9375
vt 1 0.90625
vt 0.9375 0.53125
vt 0.9375 1
vt 0.96875 1
vt 0.96875 0.53125
vt 0.9375 0
vt 0.9375 0.46875
vt 0.96875 0.46875
vt 0.96875 0
vt 0.9375 0.90625
vt 0.9375 0.9375
vt 0.96875 0.9375
vt 0.96875 0.90625
vt 0.03125 0.90625
vt 0.03125 0.9375
vt 0.0625 0.9375
vt 0.0625 0.90625
vt 0 0.90625
vt 0 0.9375
vt 0.46875 0.9375
vt 0.46875 0.90625
vt 0.53125 0.90625
vt 0.53125 0.9375
vt 1 0.9375
vt 1 0.90625
vt 0.9375 0.53125
vt 0.9375 1
vt 0.96875 1
vt 0.96875 0.53125
vt 0.9375 0
vt 0.9375 0.46875
vt 0.96875 0.46875
vt 0.96875 0
vt 0.9375 0.90625
vt 0.9375 0.9375
vt 0.96875 0.9375
vt 0.96875 0.90625
vt 0.03125 0.90625
vt 0.03125 0.9375
vt 0.0625 0.9375
vt 0.0625 0.90625
vt 0.9375 0.875
vt 0.9375 0.9375
vt 1 0.9375
vt 1 0.875
vt 0 0.875
vt 0 0.9375
vt 0.0625 0.9375
vt 0.0625 0.875
vt 0.28125 0
vt 0.28125 0.0625
vt 1 0.0625
vt 1 0
vt 0.28125 0.9375
vt 0.28125 1
vt 1 1
vt 1 0.9375
vt 0.28125 0.875
vt 0.28125 0.9375
vt 1 0.9375
vt 1 0.875
vt 0 0.875
vt 0 0.9375
vt 0.71875 0.9375
vt 0.71875 0.875
vt 0.9375 0.90625
vt 0.9375 0.9375
vt 0.96875 0.9375
vt 0.96875 0.90625
vt 0.03125 0.90625
vt 0.03125 0.9375
vt 0.0625 0.9375
vt 0.0625 0.90625
vt 0.3125 0.03125
vt 0.3125 0.0625
vt 0.96875 0.0625
vt 0.96875 0.03125
vt 0.3125 0.9375
vt 0.3125 0.96875
vt 0.96875 0.96875
vt 0.96875 0.9375
vt 0.3125 0.90625
vt 0.3125 0.9375
vt 0.96875 0.9375
vt 0.96875 0.90625
vt 0.03125 0.90625
vt 0.03125 0.9375
vt 0.6875 0.9375
vt 0.6875 0.90625
vt 0.9375 0.90625
vt 0.9375 0.9375
vt 0.96875 0.9375
vt 0.96875 0.90625
vt 0.03125 0.90625
vt 0.03125 0.9375
vt 0.0625 0.9375
vt 0.0625 0.90625
vt 0.3125 0.03125
vt 0.3125 0.0625
vt 0.96875 0.0625
vt 0.96875 0.03125
vt 0.3125 0.9375
vt 0.3125 0.96875
vt 0.96875 0.96875
vt 0.96875 0.9375
vt 0.3125 0.90625
vt 0.3125 0.9375
vt 0.96875 0.9375
vt 0.96875 0.90625
vt 0.03125 0.90625
vt 0.03125 0.9375
vt 0.6875 0.9375
vt 0.6875 0.90625
vt 0.9375 0
vt 0.9375 0.9375
vt 0.96875 0.9375
vt 0.96875 0
vt 0.03125 0
vt 0.03125 0.9375
vt 0.0625 0.9375
vt 0.0625 0
vt 0.28125 0.03125
vt 0.28125 0.0625
vt 0.3125 0.0625
vt 0.3125 0.03125
vt 0.28125 0.9375
vt 0.28125 0.96875
vt 0.3125 0.96875
vt 0.3125 0.9375
vt 0.28125 0
vt 0.28125 0.9375
vt 0.3125 0.9375
vt 0.3125 0
vt 0.6875 0
vt 0.6875 0.9375
vt 0.71875 0.9375
vt 0.71875 0
vt 0.9375 0
vt 0.9375 0.9375
vt 0.96875 0.9375
vt 0.96875 0
vt 0.03125 0
vt 0.03125 0.9375
vt 0.0625 0.9375
vt 0.0625 0
vt 0.25 0.03125
vt 0.25 0.0625
vt 0.28125 0.0625
vt 0.28125 0.03125
vt 0.25 0.9375
vt 0.25 0.96875
vt 0.28125 0.96875
vt 0.28125 0.9375
vt 0.25 0
vt 0.25 0.9375
vt 0.28125 0.9375
vt 0.28125 0
vt 0.71875 0
vt 0.71875 0.9375
vt 0.75 0.9375
vt 0.75 0
vt 0.9375 0
vt 0.9375 0.9375
vt 0.96875 0.9375
vt 0.96875 0
vt 0.03125 0
vt 0.03125 0.9375
vt 0.0625 0.9375
vt 0.0625 0
vt 0.25 0.03125
vt 0.25 0.0625
vt 0.28125 0.0625
vt 0.28125 0.03125
vt 0.25 0.9375
vt 0.25 0.96875
vt 0.28125 0.96875
vt 0.28125 0.9375
vt 0.25 0
vt 0.25 0.9375
vt 0.28125 0.9375
vt 0.28125 0
vt 0.71875 0
vt 0.71875 0.9375
vt 0.75 0.9375
vt 0.75 0
vt 0.9375 0
vt 0.9375 0.9375
vt 0.96875 0.9375
vt 0.96875 0
vt 0.03125 0
vt 0.03125 0.9375
vt 0.0625 0.9375
vt 0.0625 0
vt 0.28125 0.03125
vt 0.28125 0.0625
vt 0.3125 0.0625
vt 0.3125 0.03125
vt 0.28125 0.9375
vt 0.28125 0.96875
vt 0.3125 0.96875
vt 0.3125 0.9375
vt 0.28125 0
vt 0.28125 0.9375
vt 0.3125 0.9375
vt 0.3125 0
vt 0.6875 0
vt 0.6875 0.9375
vt 0.71875 0.9375
vt 0.71875 0
vt 0.03125 0.90625
vt 0.03125 0.9375
vt 1 0.9375
vt 1 0.90625
vt 0 0.90625
vt 0 0.9375
vt 0.96875 0.9375
vt 0.96875 0.90625
vt 0.28125 0
vt 0.28125 0.96875
vt 0.3125 0.96875
vt 0.3125 0
vt 0.28125 0.03125
vt 0.28125 1
vt 0.3125 1
vt 0.3125 0.03125
vt 0.28125 0.90625
vt 0.28125 0.9375
vt 0.3125 0.9375
vt 0.3125 0.90625
vt 0.6875 0.90625
vt 0.6875 0.9375
vt 0.71875 0.9375
vt 0.71875 0.90625
vt 0.03125 0.90625
vt 0.03125 0.9375
vt 1 0.9375
vt 1 0.90625
vt 0 0.90625
vt 0 0.9375
vt 0.96875 0.9375
vt 0.96875 0.90625
vt 0.28125 0
vt 0.28125 0.96875
vt 0.3125 0.96875
vt 0.3125 0
vt 0.28125 0.03125
vt 0.28125 1
vt 0.3125 1
vt 0.3125 0.03125
vt 0.28125 0.90625
vt 0.28125 0.9375
vt 0.3125 0.9375
vt 0.3125 0.90625
vt 0.6875 0.90625
vt 0.6875 0.9375
vt 0.71875 0.9375
vt 0.71875 0.90625
vt 0.0625 0.875
vt 0.0625 0.9375
vt 1 0.9375
vt 1 0.875
vt 0 0.875
vt 0 0.9375
vt 0.9375 0.9375
vt 0.9375 0.875
vt 0.03125 0
vt 0.03125 0.9375
vt 0.21875 0.9375
vt 0.21875 0
vt 0.03125 0.0625
vt 0.03125 1
vt 0.21875 1
vt 0.21875 0.0625
vt 0.03125 0.875
vt 0.03125 0.9375
vt 0.21875 0.9375
vt 0.21875 0.875
vt 0.40625 0.875
vt 0.40625 0.9375
vt 0.59375 0.9375
vt 0.59375 0.875
vt 0.0625 0.8125
vt 0.0625 0.9375
vt 1 0.9375
vt 1 0.8125
vt 0 0.8125
vt 0 0.9375
vt 0.9375 0.9375
vt 0.9375 0.8125
vt 0.15625 0
vt 0.15625 0.9375
vt 0.21875 0.9375
vt 0.21875 0
vt 0.15625 0.0625
vt 0.15625 1
vt 0.21875 1
vt 0.21875 0.0625
vt 0.15625 0.8125
vt 0.15625 0.9375
vt 0.21875 0.9375
vt 0.21875 0.8125
vt 0.40625 0.8125
vt 0.40625 0.9375
vt 0.46875 0.9375
vt 0.46875 0.8125
vn 1 0 0
vn -1 0 0
vn 0 1 0
vn 0 -1 0
vn 0 0 1
vn 0 0 -1
vn 1 0 0
vn -1 0 0
vn 0 1 0
vn 0 -1 0
vn 0 0 1
vn 0 0 -1
vn 1 0 0
vn -1 0 0
vn 0 1 0
vn 0 -1 0
vn 0 0 1
vn 0 0 -1
vn 1 0 0
vn -1 0 0
vn 0 1 0
vn 0 -1 0
vn 0 0 1
vn 0 0 -1
vn 1 0 0
vn -1 0 0
vn 0 1 0
vn 0 -1 0
vn 0 0 1
vn 0 0 -1
vn 1 0 0
vn -1 0 0
vn 0 1 0
vn 0 -1 0
vn 0 0 1
vn 0 0 -1
vn 1 0 0
vn -1 0 0
vn 0 1 0
vn 0 -1 0
vn 0 0 1
vn 0 0 -1
vn 1 0 0
vn -1 0 0
vn 0 1 0
vn 0 -1 0
vn 0 0 1
vn 0 0 -1
vn 1 0 0
vn -1 0 0
vn 0 1 0
vn 0 -1 0
vn 0 0 1
vn 0 0 -1
vn 1 0 0
vn -1 0 0
vn 0 1 0
vn 0 -1 0
vn 0 0 1
vn 0 0 -1
vn 1 0 0
vn -1 0 0
vn 0 1 0
vn 0 -1 0
vn 0 0 1
vn 0 0 -1
vn 1 0 0
vn -1 0 0
vn 0 1 0
vn 0 -1 0
vn 0 0 1
vn 0 0 -1
vn 1 0 0
vn -1 0 0
vn 0 1 0
vn 0 -1 0
vn 0 0 1
vn 0 0 -1
vn 1 0 0
vn -1 0 0
vn 0 1 0
vn 0 -1 0
vn 0 0 1
vn 0 0 -1
vn 1 0 0
vn -1 0 0
vn 0 1 0
vn 0 -1 0
vn 0 0 1
vn 0 0 -1
vn 1 0 0
vn -1 0 0
vn 0 1 0
vn 0 -1 0
vn 0 0 1
vn 0 0 -1
vn 1 0 0
vn -1 0 0
vn 0 1 0
vn 0 -1 0
vn 0 0 1
vn 0 0 -1
vn 1 0 0
vn -1 0 0
vn 0 1 0
vn 0 -1 0
vn 0 0 1
vn 0 0 -1
vn 1 0 0
vn -1 0 0
vn 0 1 0
vn 0 -1 0
vn 0 0 1
vn 0 0 -1
vn 1 0 0
vn -1 0 0
vn 0 1 0
vn 0 -1 0
vn 0 0 1
vn 0 0 -1
vn 1 0 0
vn -1 0 0
vn 0 1 0
vn 0 -1 0
vn 0 0 1
vn 0 0 -1
vn 1 0 0
vn -1 0 0
vn 0 1 0
vn 0 -1 0
vn 0 0 1
vn 0 0 -1
vn 1 0 0
vn -1 0 0
vn 0 1 0
vn 0 -1 0
vn 0 0 1
vn 0 0 -1
vn 1 0 0
vn -1 0 0
vn 0 1 0
vn 0 -1 0
vn 0 0 1
vn 0 0 -1
vn 1 0 0
vn -1 0 0
vn 0 1 0
vn 0 -1 0
vn 0 0 1
vn 0 0 -1
vn 0.7071067811865489 -0.7071067811865462 0
vn -0.7071067811865485 0.7071067811865467 0
vn 0.7071067811865478 0.7071067811865474 0
vn -0.7071067811865476 -0.7071067811865476 0
vn 0 0 1
vn 0 0 -1
vn 0.7071067811865469 0.7071067811865481 0
vn -0.7071067811865469 -0.7071067811865481 0
vn -0.7071067811865476 0.7071067811865476 0
vn 0.7071067811865476 -0.7071067811865476 0
vn 0 0 1
vn 0 0 -1
vn 0.7071067811865469 0.7071067811865481 0
vn -0.7071067811865469 -0.7071067811865481 0
vn -0.7071067811865476 0.7071067811865476 0
vn 0.7071067811865476 -0.7071067811865476 0
vn 0 0 1
vn 0 0 -1
vn 0.7071067811865489 -0.7071067811865462 0
vn -0.7071067811865485 0.7071067811865467 0
vn 0.7071067811865477 0.7071067811865474 0
vn -0.7071067811865476 -0.7071067811865476 0
vn 0 0 1
vn 0 0 -1
vn 1 0 0
vn -1 0 0
vn 0 1 0
vn 0 -1 0
vn 0 0 1
vn 0 0 -1
vn 0.7071067811865469 -0.7071067811865481 0
vn -0.7071067811865468 0.7071067811865482 0
vn 0.7071067811865476 0.7071067811865475 0
vn -0.7071067811865476 -0.7071067811865476 0
vn 0 0 1
vn 0 0 -1
vn 0.7071067811865469 -0.7071067811865481 0
vn -0.7071067811865468 0.7071067811865482 0
vn 0.7071067811865476 0.7071067811865475 0
vn -0.7071067811865476 -0.7071067811865476 0
vn 0 0 1
vn 0 0 -1
vn 1 0 0
vn -1 0 0
vn 0 1 0
vn 0 -1 0
vn 0 0 1
vn 0 0 -1
vn 1 0 0
vn -1 0 0
vn 0 1 0
vn 0 -1 0
vn 0 0 1
vn 0 0 -1
vn 1 0 0
vn -1 0 0
vn 0 1 0
vn 0 -1 0
vn 0 0 1
vn 0 0 -1
vn -1 0 0
vn 1 0 0
vn 0 1 0
vn 0 0 1
vn 0 -0.44721359549995804 -0.8944271909999161
vn -1 0 0
vn 1 0 0
vn 0 1 0
vn 0 0 1
vn 0 -0.44721359549995804 -0.8944271909999161
vn -1 0 0
vn 1 0 0
vn 0 1 0
vn 0 0 1
vn 0 -0.44721359549995804 -0.8944271909999161
vn -1 0 0
vn 1 0 0
vn 0 1 0
vn 0 0 -1
vn 0 -0.44721359549995804 0.8944271909999161
vn -1 0 0
vn 1 0 0
vn 0 1 0
vn 0 0 -1
vn 0 -0.44721359549995804 0.8944271909999161
vn -1 0 0
vn 1 0 0
vn 0 1 0
vn 0 0 -1
vn 0 -0.44721359549995804 0.8944271909999161
vn 1 0 0
vn -1 0 0
vn 0 1 0
vn 0 -1 0
vn 0 0 1
vn 0 0 -1
vn 1 0 0
vn -1 0 0
vn 0 1 0
vn 0 -1 0
vn 0 0 1
vn 0 0 -1
vn 1 0 0
vn -1 0 0
vn 0 1 0
vn 0 -1 0
vn 0 0 1
vn 0 0 -1
vn -1 0 0
vn 1 0 0
vn -0.316227766016838 0.948683298050514 0
vn 0.316227766016838 -0.948683298050514 0
vn 0 0 1
vn 0 0 -1
vn 0 1 0
vn 1 0 0
vn 0.7071067811865476 0.7071067811865476 0
vn -0.7071067811865476 -0.7071067811865476 0
vn 0 0 1
vn 0 0 -1
vn -0.8944271909999161 0.44721359549995804 0
vn 0.8944271909999161 -0.44721359549995804 0
vn 0 -1 0
vn 0 0 1
vn 0 0 -1
vn 0 1 0
vn -0.894427190999916 0.447213595499958 0
vn 0.894427190999916 -0.447213595499958 0
vn 0 -1 0
vn 0 0 1
vn 0 0 -1
vn 0 1 0
vn -0.894427190999916 -0.447213595499958 0
vn 0.894427190999916 0.447213595499958 0
vn 0 1 0
vn 0 -1 0
vn 0 0 1
vn 0 0 -1
vn -0.8944271909999161 -0.44721359549995804 0
vn 0.8944271909999161 0.44721359549995804 0
vn 0 1 0
vn 0 -1 0
vn 0 0 1
vn 0 0 -1
vn 1 0 0
vn -1 0 0
vn 0 1 0
vn 0 -1 0
vn 0 0 1
vn 0 0 -1
vn 1 0 0
vn -1 0 0
vn 0 1 0
vn 0 -1 0
vn 0 0 1
vn 0 0 -1
vn 1 0 0
vn -1 0 0
vn 0 1 0
vn 0 -1 0
vn 0 0 1
vn 0 0 -1
vn 1 0 0
vn -1 0 0
vn 0 1 0
vn 0 -1 0
vn 0 0 1
vn 0 0 -1
vn 1 0 0
vn -1 0 0
vn 0 1 0
vn 0 -1 0
vn 0 0 1
vn 0 0 -1
vn 1 0 0
vn -1 0 0
vn 0 1 0
vn 0 -1 0
vn 0 0 1
vn 0 0 -1
vn 1 0 0
vn -1 0 0
vn 0 1 0
vn 0 -1 0
vn 0 0 1
vn 0 0 -1
vn 1 0 0
vn -1 0 0
vn 0 1 0
vn 0 -1 0
vn 0 0 1
vn 0 0 -1
vn 1 0 0
vn -1 0 0
vn 0 1 0
vn 0 -1 0
vn 0 0 1
vn 0 0 -1
vn 1 0 0
vn -1 0 0
vn 0 1 0
vn 0 -1 0
vn 0 0 1
vn 0 0 -1
vn 1 0 0
vn -1 0 0
vn 0 1 0
vn 0 -1 0
vn 0 0 1
vn 0 0 -1
vn 1 0 0
vn -1 0 0
vn 0 1 0
vn 0 -1 0
vn 0 0 1
vn 0 0 -1
vn 1 0 0
vn -1 0 0
vn 0 1 0
vn 0 -1 0
vn 0 0 1
vn 0 0 -1
vn 1 0 0
vn -1 0 0
vn 0 1 0
vn 0 -1 0
vn 0 0 1
vn 0 0 -1
usemtl m_b2af6bd8-ffc8-ff72-7f7b-7b18782af15d
f 4/1/1 2/2/1 1/3/1 3/4/1
f 7/5/2 5/6/2 6/7/2 8/8/2
f 1/9/3 2/10/3 6/11/3 5/12/3
f 4/13/4 3/14/4 7/15/4 8/16/4
f 3/17/5 1/18/5 5/19/5 7/20/5
f 8/21/6 6/22/6 2/23/6 4/24/6
usemtl m_3d215661-f591-00a8-53e2-d8d611c756be
f 12/25/7 10/26/7 9/27/7 11/28/7
f 15/29/8 13/30/8 14/31/8 16/32/8
f 9/33/9 10/34/9 14/35/9 13/36/9
f 12/37/10 11/38/10 15/39/10 16/40/10
f 11/41/11 9/42/11 13/43/11 15/44/11
f 16/45/12 14/46/12 10/47/12 12/48/12
f 20/49/13 18/50/13 17/51/13 19/52/13
f 23/53/14 21/54/14 22/55/14 24/56/14
f 17/57/15 18/58/15 22/59/15 21/60/15
f 20/61/16 19/62/16 23/63/16 24/64/16
f 19/65/17 17/66/17 21/67/17 23/68/17
f 24/69/18 22/70/18 18/71/18 20/72/18
f 28/73/19 26/74/19 25/75/19 27/76/19
f 31/77/20 29/78/20 30/79/20 32/80/20
f 25/81/21 26/82/21 30/83/21 29/84/21
f 28/85/22 27/86/22 31/87/22 32/88/22
f 27/89/23 25/90/23 29/91/23 31/92/23
f 32/93/24 30/94/24 26/95/24 28/96/24
f 36/97/25 34/98/25 33/99/25 35/100/25
f 39/101/26 37/102/26 38/103/26 40/104/26
f 33/105/27 34/106/27 38/107/27 37/108/27
f 36/109/28 35/110/28 39/111/28 40/112/28
f 35/113/29 33/114/29 37/115/29 39/116/29
f 40/117/30 38/118/30 34/119/30 36/120/30
f 44/121/31 42/122/31 41/123/31 43/124/31
f 47/125/32 45/126/32 46/127/32 48/128/32
f 41/129/33 42/130/33 46/131/33 45/132/33
f 44/133/34 43/134/34 47/135/34 48/136/34
f 43/137/35 41/138/35 45/139/35 47/140/35
f 48/141/36 46/142/36 42/143/36 44/144/36
f 52/145/37 50/146/37 49/147/37 51/148/37
f 55/149/38 53/150/38 54/151/38 56/152/38
f 49/153/39 50/154/39 54/155/39 53/156/39
f 52/157/40 51/158/40 55/159/40 56/160/40
f 51/161/41 49/162/41 53/163/41 55/164/41
f 56/165/42 54/166/42 50/167/42 52/168/42
f 60/169/43 58/170/43 57/171/43 59/172/43
f 63/173/44 61/174/44 62/175/44 64/176/44
f 57/177/45 58/178/45 62/179/45 61/180/45
f 60/181/46 59/182/46 63/183/46 64/184/46
f 59/185/47 57/186/47 61/187/47 63/188/47
f 64/189/48 62/190/48 58/191/48 60/192/48
f 68/193/49 66/194/49 65/195/49 67/196/49
f 71/197/50 69/198/50 70/199/50 72/200/50
f 65/201/51 66/202/51 70/203/51 69/204/51
f 68/205/52 67/206/52 71/207/52 72/208/52
f 67/209/53 65/210/53 69/211/53 71/212/53
f 72/213/54 70/214/54 66/215/54 68/216/54
f 73/217/55 75/218/55 74/219/55 76/220/55
f 79/221/56 77/222/56 78/223/56 80/224/56
f 74/225/57 75/226/57 78/227/57 77/228/57
f 73/229/58 76/230/58 79/231/58 80/232/58
f 76/233/59 74/234/59 77/235/59 79/236/59
f 80/237/60 78/238/60 75/239/60 73/240/60
f 84/241/61 82/242/61 81/243/61 83/244/61
f 87/245/62 85/246/62 86/247/62 88/248/62
f 81/249/63 82/250/63 86/251/63 85/252/63
f 84/253/64 83/254/64 87/255/64 88/256/64
f 83/257/65 81/258/65 85/259/65 87/260/65
f 88/261/66 86/262/66 82/263/66 84/264/66
f 92/265/67 90/266/67 89/267/67 91/268/67
f 95/269/68 93/270/68 94/271/68 96/272/68
f 89/273/69 90/274/69 94/275/69 93/276/69
f 92/277/70 91/278/70 95/279/70 96/280/70
f 91/281/71 89/282/71 93/283/71 95/284/71
f 96/285/72 94/286/72 90/287/72 92/288/72
f 100/289/73 98/290/73 97/291/73 99/292/73
f 103/293/74 101/294/74 102/295/74 104/296/74
f 97/297/75 98/298/75 102/299/75 101/300/75
f 100/301/76 99/302/76 103/303/76 104/304/76
f 99/305/77 97/306/77 101/307/77 103/308/77
f 104/309/78 102/310/78 98/311/78 100/312/78
f 108/313/79 106/314/79 105/315/79 107/316/79
f 111/317/80 109/318/80 110/319/80 112/320/80
f 105/321/81 106/322/81 110/323/81 109/324/81
f 108/325/82 107/326/82 111/327/82 112/328/82
f 107/329/83 105/330/83 109/331/83 111/332/83
f 112/333/84 110/334/84 106/335/84 108/336/84
f 116/337/85 114/338/85 113/339/85 115/340/85
f 119/341/86 117/342/86 118/343/86 120/344/86
f 113/345/87 114/346/87 118/347/87 117/348/87
f 116/349/88 115/350/88 119/351/88 120/352/88
f 115/353/89 113/354/89 117/355/89 119/356/89
f 120/357/90 118/358/90 114/359/90 116/360/90
f 124/361/91 122/362/91 121/363/91 123/364/91
f 127/365/92 125/366/92 126/367/92 128/368/92
f 121/369/93 122/370/93 126/371/93 125/372/93
f 124/373/94 123/374/94 127/375/94 128/376/94
f 123/377/95 121/378/95 125/379/95 127/380/95
f 128/381/96 126/382/96 122/383/96 124/384/96
f 132/385/97 130/386/97 129/387/97 131/388/97
f 135/389/98 133/390/98 134/391/98 136/392/98
f 129/393/99 130/394/99 134/395/99 133/396/99
f 132/397/100 131/398/100 135/399/100 136/400/100
f 131/401/101 129/402/101 133/403/101 135/404/101
f 136/405/102 134/406/102 130/407/102 132/408/102
f 140/409/103 138/410/103 137/411/103 139/412/103
f 143/413/104 141/414/104 142/415/104 144/416/104
f 137/417/105 138/418/105 142/419/105 141/420/105
f 140/421/106 139/422/106 143/423/106 144/424/106
f 139/425/107 137/426/107 141/427/107 143/428/107
f 144/429/108 142/430/108 138/431/108 140/432/108
f 148/433/109 146/434/109 145/435/109 147/436/109
f 151/437/110 149/438/110 150/439/110 152/440/110
f 145/441/111 146/442/111 150/443/111 149/444/111
f 148/445/112 147/446/112 151/447/112 152/448/112
f 147/449/113 145/450/113 149/451/113 151/452/113
f 152/453/114 150/454/114 146/455/114 148/456/114
f 156/457/115 154/458/115 153/459/115 155/460/115
f 159/461/116 157/462/116 158/463/116 160/464/116
f 153/465/117 154/466/117 158/467/117 157/468/117
f 156/469/118 155/470/118 159/471/118 160/472/118
f 155/473/119 153/474/119 157/475/119 159/476/119
f 160/477/120 158/478/120 154/479/120 156/480/120
f 164/481/121 162/482/121 161/483/121 163/484/121
f 167/485/122 165/486/122 166/487/122 168/488/122
f 161/489/123 162/490/123 166/491/123 165/492/123
f 164/493/124 163/494/124 167/495/124 168/496/124
f 163/497/125 161/498/125 165/499/125 167/500/125
f 168/501/126 166/502/126 162/503/126 164/504/126
f 172/505/127 170/506/127 169/507/127 171/508/127
f 175/509/128 173/510/128 174/511/128 176/512/128
f 169/513/129 170/514/129 174/515/129 173/516/129
f 172/517/130 171/518/130 175/519/130 176/520/130
f 171/521/131 169/522/131 173/523/131 175/524/131
f 176/525/132 174/526/132 170/527/132 172/528/132
f 180/529/133 178/530/133 177/531/133 179/532/133
f 183/533/134 181/534/134 182/535/134 184/536/134
f 177/537/135 178/538/135 182/539/135 181/540/135
f 180/541/136 179/542/136 183/543/136 184/544/136
f 179/545/137 177/546/137 181/547/137 183/548/137
f 184/549/138 182/550/138 178/551/138 180/552/138
f 188/553/139 186/554/139 185/555/139 187/556/139
f 191/557/140 189/558/140 190/559/140 192/560/140
f 185/561/141 186/562/141 190/563/141 189/564/141
f 188/565/142 187/566/142 191/567/142 192/568/142
f 187/569/143 185/570/143 189/571/143 191/572/143
f 192/573/144 190/574/144 186/575/144 188/576/144
f 196/577/145 194/578/145 193/579/145 195/580/145
f 199/581/146 197/582/146 198/583/146 200/584/146
f 193/585/147 194/586/147 198/587/147 197/588/147
f 196/589/148 195/590/148 199/591/148 200/592/148
f 195/593/149 193/594/149 197/595/149 199/596/149
f 200/597/150 198/598/150 194/599/150 196/600/150
f 204/601/151 202/602/151 201/603/151 203/604/151
f 207/605/152 205/606/152 206/607/152 208/608/152
f 201/609/153 202/610/153 206/611/153 205/612/153
f 204/613/154 203/614/154 207/615/154 208/616/154
f 203/617/155 201/618/155 205/619/155 207/620/155
f 208/621/156 206/622/156 202/623/156 204/624/156
f 212/625/157 210/626/157 209/627/157 211/628/157
f 215/629/158 213/630/158 214/631/158 216/632/158
f 209/633/159 210/634/159 214/635/159 213/636/159
f 212/637/160 211/638/160 215/639/160 216/640/160
f 211/641/161 209/642/161 213/643/161 215/644/161
f 216/645/162 214/646/162 210/647/162 212/648/162
f 220/649/163 218/650/163 217/651/163 219/652/163
f 223/653/164 221/654/164 222/655/164 224/656/164
f 217/657/165 218/658/165 222/659/165 221/660/165
f 220/661/166 219/662/166 223/663/166 224/664/166
f 219/665/167 217/666/167 221/667/167 223/668/167
f 224/669/168 222/670/168 218/671/168 220/672/168
f 228/673/169 226/674/169 225/675/169 227/676/169
f 231/677/170 229/678/170 230/679/170 232/680/170
f 225/681/171 226/682/171 230/683/171 229/684/171
f 228/685/172 227/686/172 231/687/172 232/688/172
f 227/689/173 225/690/173 229/691/173 231/692/173
f 232/693/174 230/694/174 226/695/174 228/696/174
f 236/697/175 234/698/175 233/699/175 235/700/175
f 239/701/176 237/702/176 238/703/176 240/704/176
f 233/705/177 234/706/177 238/707/177 237/708/177
f 236/709/178 235/710/178 239/711/178 240/712/178
f 235/713/179 233/714/179 237/715/179 239/716/179
f 240/717/180 238/718/180 234/719/180 236/720/180
f 244/721/181 242/722/181 241/723/181 243/724/181
f 247/725/182 245/726/182 246/727/182 248/728/182
f 241/729/183 242/730/183 246/731/183 245/732/183
f 244/733/184 243/734/184 247/735/184 248/736/184
f 243/737/185 241/738/185 245/739/185 247/740/185
f 248/741/186 246/742/186 242/743/186 244/744/186
f 252/745/187 250/746/187 249/747/187 251/748/187
f 255/749/188 253/750/188 254/751/188 256/752/188
f 249/753/189 250/754/189 254/755/189 253/756/189
f 252/757/190 251/758/190 255/759/190 256/760/190
f 251/761/191 249/762/191 253/763/191 255/764/191
f 256/765/192 254/766/192 250/767/192 252/768/192
f 260/769/193 258/770/193 257/771/193 259/772/193
f 263/773/194 261/774/194 262/775/194 264/776/194
f 257/777/195 258/778/195 262/779/195 261/780/195
f 260/781/196 259/782/196 263/783/196 264/784/196
f 259/785/197 257/786/197 261/787/197 263/788/197
f 264/789/198 262/790/198 258/791/198 260/792/198
f 268/793/199 266/794/199 265/795/199 267/796/199
f 271/797/200 269/798/200 270/799/200 272/800/200
f 265/801/201 266/802/201 270/803/201 269/804/201
f 268/805/202 267/806/202 271/807/202 272/808/202
f 267/809/203 265/810/203 269/811/203 271/812/203
f 272/813/204 270/814/204 266/815/204 268/816/204
f 276/817/205 274/818/205 273/819/205 275/820/205
f 279/821/206 277/822/206 278/823/206 280/824/206
f 273/825/207 274/826/207 278/827/207 277/828/207
f 276/829/208 275/830/208 279/831/208 280/832/208
f 275/833/209 273/834/209 277/835/209 279/836/209
f 280/837/210 278/838/210 274/839/210 276/840/210
f 281/841/211 282/842/211 283/843/211
f 285/844/212 284/845/212 286/846/212
f 285/847/213 282/848/213 281/849/213 284/850/213
f 284/851/214 281/852/214 283/853/214 286/854/214
f 282/855/215 285/856/215 286/857/215 283/858/215
f 287/859/216 288/860/216 289/861/216
f 291/862/217 290/863/217 292/864/217
f 291/865/218 288/866/218 287/867/218 290/868/218
f 290/869/219 287/870/219 289/871/219 292/872/219
f 288/873/220 291/874/220 292/875/220 289/876/220
f 293/877/221 294/878/221 295/879/221
f 297/880/222 296/881/222 298/882/222
f 297/883/223 294/884/223 293/885/223 296/886/223
f 296/887/224 293/888/224 295/889/224 298/890/224
f 294/891/225 297/892/225 298/893/225 295/894/225
f 300/895/226 299/896/226 301/897/226
f 302/898/227 303/899/227 304/900/227
f 299/901/228 300/902/228 303/903/228 302/904/228
f 301/905/229 299/906/229 302/907/229 304/908/229
f 304/909/230 303/910/230 300/911/230 301/912/230
f 306/913/231 305/914/231 307/915/231
f 308/916/232 309/917/232 310/918/232
f 305/919/233 306/920/233 309/921/233 308/922/233
f 307/923/234 305/924/234 308/925/234 310/926/234
f 310/927/235 309/928/235 306/929/235 307/930/235
f 312/931/236 311/932/236 313/933/236
f 314/934/237 315/935/237 316/936/237
f 311/937/238 312/938/238 315/939/238 314/940/238
f 313/941/239 311/942/239 314/943/239 316/944/239
f 316/945/240 315/946/240 312/947/240 313/948/240
f 320/949/241 318/950/241 317/951/241 319/952/241
f 323/953/242 321/954/242 322/955/242 324/956/242
f 317/957/243 318/958/243 322/959/243 321/960/243
f 320/961/244 319/962/244 323/963/244 324/964/244
f 319/965/245 317/966/245 321/967/245 323/968/245
f 324/969/246 322/970/246 318/971/246 320/972/246
f 328/973/247 326/974/247 325/975/247 327/976/247
f 331/977/248 329/978/248 330/979/248 332/980/248
f 325/981/249 326/982/249 330/983/249 329/984/249
f 328/985/250 327/986/250 331/987/250 332/988/250
f 327/989/251 325/990/251 329/991/251 331/992/251
f 332/993/252 330/994/252 326/995/252 328/996/252
f 336/997/253 334/998/253 333/999/253 335/1000/253
f 339/1001/254 337/1002/254 338/1003/254 340/1004/254
f 333/1005/255 334/1006/255 338/1007/255 337/1008/255
f 336/1009/256 335/1010/256 339/1011/256 340/1012/256
f 335/1013/257 333/1014/257 337/1015/257 339/1016/257
f 340/1017/258 338/1018/258 334/1019/258 336/1020/258
f 341/1021/259 342/1022/259 344/1023/259 343/1024/259
f 346/1025/260 345/1026/260 347/1027/260 348/1028/260
f 346/1029/261 342/1030/261 341/1031/261 345/1032/261
f 347/1033/262 343/1034/262 344/1035/262 348/1036/262
f 345/1037/263 341/1038/263 343/1039/263 347/1040/263
f 342/1041/264 346/1042/264 348/1043/264 344/1044/264
f 349/1045/265 350/1046/265 352/1047/265 351/1048/265
f 354/1049/266 353/1050/266 355/1051/266 356/1052/266
f 354/1053/267 350/1054/267 349/1055/267 353/1056/267
f 355/1057/268 351/1058/268 352/1059/268 356/1060/268
f 353/1061/269 349/1062/269 351/1063/269 355/1064/269
f 350/1065/270 354/1066/270 356/1067/270 352/1068/270
f 357/1069/271 358/1070/271 360/1071/271 359/1072/271
f 364/1073/272 363/1074/272 361/1075/272 362/1076/272
f 361/1077/273 359/1078/273 360/1079/273 362/1080/273
f 363/1081/274 357/1082/274 359/1083/274 361/1084/274
f 358/1085/275 364/1086/275 362/1087/275 360/1088/275
f 364/1089/276 358/1090/276 357/1091/276 363/1092/276
f 365/1093/277 366/1094/277 368/1095/277 367/1096/277
f 372/1097/278 371/1098/278 369/1099/278 370/1100/278
f 369/1101/279 367/1102/279 368/1103/279 370/1104/279
f 371/1105/280 365/1106/280 367/1107/280 369/1108/280
f 366/1109/281 372/1110/281 370/1111/281 368/1112/281
f 372/1113/282 366/1114/282 365/1115/282 371/1116/282
f 373/1117/283 374/1118/283 376/1119/283 375/1120/283
f 378/1121/284 377/1122/284 379/1123/284 380/1124/284
f 378/1125/285 374/1126/285 373/1127/285 377/1128/285
f 379/1129/286 375/1130/286 376/1131/286 380/1132/286
f 377/1133/287 373/1134/287 375/1135/287 379/1136/287
f 374/1137/288 378/1138/288 380/1139/288 376/1140/288
f 381/1141/289 382/1142/289 384/1143/289 383/1144/289
f 386/1145/290 385/1146/290 387/1147/290 388/1148/290
f 386/1149/291 382/1150/291 381/1151/291 385/1152/291
f 387/1153/292 383/1154/292 384/1155/292 388/1156/292
f 385/1157/293 381/1158/293 383/1159/293 387/1160/293
f 382/1161/294 386/1162/294 388/1163/294 384/1164/294
usemtl m_b2af6bd8-ffc8-ff72-7f7b-7b18782af15d
f 392/1165/295 390/1166/295 389/1167/295 391/1168/295
f 395/1169/296 393/1170/296 394/1171/296 396/1172/296
f 389/1173/297 390/1174/297 394/1175/297 393/1176/297
f 392/1177/298 391/1178/298 395/1179/298 396/1180/298
f 391/1181/299 389/1182/299 393/1183/299 395/1184/299
f 396/1185/300 394/1186/300 390/1187/300 392/1188/300
f 400/1189/301 398/1190/301 397/1191/301 399/1192/301
f 403/1193/302 401/1194/302 402/1195/302 404/1196/302
f 397/1197/303 398/1198/303 402/1199/303 401/1200/303
f 400/1201/304 399/1202/304 403/1203/304 404/1204/304
f 399/1205/305 397/1206/305 401/1207/305 403/1208/305
f 404/1209/306 402/1210/306 398/1211/306 400/1212/306
f 408/1213/307 406/1214/307 405/1215/307 407/1216/307
f 411/1217/308 409/1218/308 410/1219/308 412/1220/308
f 405/1221/309 406/1222/309 410/1223/309 409/1224/309
f 408/1225/310 407/1226/310 411/1227/310 412/1228/310
f 407/1229/311 405/1230/311 409/1231/311 411/1232/311
f 412/1233/312 410/1234/312 406/1235/312 408/1236/312
f 416/1237/313 414/1238/313 413/1239/313 415/1240/313
f 419/1241/314 417/1242/314 418/1243/314 420/1244/314
f 413/1245/315 414/1246/315 418/1247/315 417/1248/315
f 416/1249/316 415/1250/316 419/1251/316 420/1252/316
f 415/1253/317 413/1254/317 417/1255/317 419/1256/317
f 420/1257/318 418/1258/318 414/1259/318 416/1260/318
f 424/1261/319 422/1262/319 421/1263/319 423/1264/319
f 427/1265/320 425/1266/320 426/1267/320 428/1268/320
f 421/1269/321 422/1270/321 426/1271/321 425/1272/321
f 424/1273/322 423/1274/322 427/1275/322 428/1276/322
f 423/1277/323 421/1278/323 425/1279/323 427/1280/323
f 428/1281/324 426/1282/324 422/1283/324 424/1284/324
f 432/1285/325 430/1286/325 429/1287/325 431/1288/325
f 435/1289/326 433/1290/326 434/1291/326 436/1292/326
f 429/1293/327 430/1294/327 434/1295/327 433/1296/327
f 432/1297/328 431/1298/328 435/1299/328 436/1300/328
f 431/1301/329 429/1302/329 433/1303/329 435/1304/329
f 436/1305/330 434/1306/330 430/1307/330 432/1308/330
f 440/1309/331 438/1310/331 437/1311/331 439/1312/331
f 443/1313/332 441/1314/332 442/1315/332 444/1316/332
f 437/1317/333 438/1318/333 442/1319/333 441/1320/333
f 440/1321/334 439/1322/334 443/1323/334 444/1324/334
f 439/1325/335 437/1326/335 441/1327/335 443/1328/335
f 444/1329/336 442/1330/336 438/1331/336 440/1332/336
f 448/1333/337 446/1334/337 445/1335/337 447/1336/337
f 451/1337/338 449/1338/338 450/1339/338 452/1340/338
f 445/1341/339 446/1342/339 450/1343/339 449/1344/339
f 448/1345/340 447/1346/340 451/1347/340 452/1348/340
f 447/1349/341 445/1350/341 449/1351/341 451/1352/341
f 452/1353/342 450/1354/342 446/1355/342 448/1356/342
f 456/1357/343 454/1358/343 453/1359/343 455/1360/343
f 459/1361/344 457/1362/344 458/1363/344 460/1364/344
f 453/1365/345 454/1366/345 458/1367/345 457/1368/345
f 456/1369/346 455/1370/346 459/1371/346 460/1372/346
f 455/1373/347 453/1374/347 457/1375/347 459/1376/347
f 460/1377/348 458/1378/348 454/1379/348 456/1380/348
f 464/1381/349 462/1382/349 461/1383/349 463/1384/349
f 467/1385/350 465/1386/350 466/1387/350 468/1388/350
f 461/1389/351 462/1390/351 466/1391/351 465/1392/351
f 464/1393/352 463/1394/352 467/1395/352 468/1396/352
f 463/1397/353 461/1398/353 465/1399/353 467/1400/353
f 468/1401/354 466/1402/354 462/1403/354 464/1404/354
f 472/1405/355 470/1406/355 469/1407/355 471/1408/355
f 475/1409/356 473/1410/356 474/1411/356 476/1412/356
f 469/1413/357 470/1414/357 474/1415/357 473/1416/357
f 472/1417/358 471/1418/358 475/1419/358 476/1420/358
f 471/1421/359 469/1422/359 473/1423/359 475/1424/359
f 476/1425/360 474/1426/360 470/1427/360 472/1428/360
f 480/1429/361 478/1430/361 477/1431/361 479/1432/361
f 483/1433/362 481/1434/362 482/1435/362 484/1436/362
f 477/1437/363 478/1438/363 482/1439/363 481/1440/363
f 480/1441/364 479/1442/364 483/1443/364 484/1444/364
f 479/1445/365 477/1446/365 481/1447/365 483/1448/365
f 484/1449/366 482/1450/366 478/1451/366 480/1452/366
f 488/1453/367 486/1454/367 485/1455/367 487/1456/367
f 491/1457/368 489/1458/368 490/1459/368 492/1460/368
f 485/1461/369 486/1462/369 490/1463/369 489/1464/369
f 488/1465/370 487/1466/370 491/1467/370 492/1468/370
f 487/1469/371 485/1470/371 489/1471/371 491/1472/371
f 492/1473/372 490/1474/372 486/1475/372 488/1476/372
f 496/1477/373 494/1478/373 493/1479/373 495/1480/373
f 499/1481/374 497/1482/374 498/1483/374 500/1484/374
f 493/1485/375 494/1486/375 498/1487/375 497/1488/375
f 496/1489/376 495/1490/376 499/1491/376 500/1492/376
f 495/1493/377 493/1494/377 497/1495/377 499/1496/377
f 500/1497/378 498/1498/378 494/1499/378 496/1500/378