# Made in Blockbench 5.1.4
mtllib arm6.mtl

o cube
v -0.26214312500000014 0.09381249999999985 -0.65175375
v 0.029526249999999976 0.09381249999999985 -4.822818125
v -0.26214312500000014 -0.09375000000000011 -0.65175375
v 0.029526249999999976 -0.09375000000000011 -4.822818125
v -0.3244906249999999 0.09381249999999985 -0.656113125
v -0.032821250000000024 0.09381249999999985 -4.827178125
v -0.3244906249999999 -0.09375000000000011 -0.656113125
v -0.032821250000000024 -0.09375000000000011 -4.827178125
v 0.32499999999999996 0.09375 0.125
v 0.32499999999999996 0.09375 -0.66875
v 0.32499999999999996 -0.09375000000000011 0.125
v 0.32499999999999996 -0.09375000000000011 -0.66875
v 0.26249999999999996 0.09375 0.125
v 0.26249999999999996 0.09375 -0.66875
v 0.26249999999999996 -0.09375000000000011 0.125
v 0.26249999999999996 -0.09375000000000011 -0.66875
v 0.30000000000000004 0.03125 -0.74375
v -0.3125 0.03125 -0.743750625
v 0.30000000000000004 -0.03125 -0.74375
v -0.3125 -0.03125 -0.743750625
v 0.30000000000000004 0.03125 -0.68125
v -0.3125 0.03125 -0.68125
v 0.30000000000000004 -0.03125 -0.68125
v -0.3125 -0.03125 -0.68125
v 0.24375000000000002 0.03125 -1.675
v -0.24999937500000002 0.03125 -1.675
v 0.24375000000000002 -0.03125 -1.675
v -0.24999937500000002 -0.03125 -1.675
v 0.24375000000000002 0.03125 -1.6125
v -0.25 0.03125 -1.6125
v 0.24375000000000002 -0.03125 -1.6125
v -0.25 -0.03125 -1.6125
v 0.15625 0.03125 -2.6125
v -0.1812499999999999 0.03125 -2.6125
v 0.15625 -0.03125 -2.6125
v -0.1812499999999999 -0.03125 -2.6125
v 0.15625 0.03125 -2.55
v -0.1812499999999999 0.03125 -2.55
v 0.15625 -0.03125 -2.55
v -0.1812499999999999 -0.03125 -2.55
v 0.03125 0.09387499999999993 -4.8125
v 0.03125 0.09387499999999993 -5.75
v 0.03125 -0.09375000000000011 -4.8125
v 0.03125 -0.09375000000000011 -5.75
v -0.03125 0.09387499999999993 -4.8125
v -0.03125 0.09387499999999993 -5.75
v -0.03125 -0.09375000000000011 -4.8125
v -0.03125 -0.09375000000000011 -5.75
v 0.3244906249999999 0.09375 -0.656113125
v 0.032821250000000024 0.09375 -4.8271775
v 0.3244906249999999 -0.09375000000000011 -0.656113125
v 0.032821250000000024 -0.09375000000000011 -4.8271775
v 0.2621431249999999 0.09375 -0.65175375
v -0.029526249999999976 0.09375 -4.822818125
v 0.2621431249999999 -0.09375000000000011 -0.65175375
v -0.029526249999999976 -0.09375000000000011 -4.822818125
v -0.4136481249999999 0.09375 0.905675625
v -0.2610012500000001 0.09375 0.12037374999999995
v -0.4136481249999999 -0.09375000000000011 0.905675625
v -0.2610012500000001 -0.09375000000000011 0.12037374999999995
v -0.4750000000000001 0.09375 0.89375
v -0.322353125 0.09375 0.108448125
v -0.4750000000000001 -0.09375000000000011 0.89375
v -0.322353125 -0.09375000000000011 0.108448125
v 0.475 0.09375 0.89375
v 0.322353125 0.09375 0.108448125
v 0.475 -0.09375000000000011 0.89375
v 0.322353125 -0.09375000000000011 0.108448125
v 0.4136481249999999 0.09375 0.905675625
v 0.2610012500000001 0.09375 0.12037374999999995
v 0.4136481249999999 -0.09375000000000011 0.905675625
v 0.2610012500000001 -0.09375000000000011 0.12037374999999995
v 0.53125 0.1812499999999999 1
v 0.53125 0.1812499999999999 0.5
v 0.53125 -0.1312500000000001 1
v 0.53125 -0.1312500000000001 0.5
v 0.34375 0.1812499999999999 1
v 0.34375 0.1812499999999999 0.5
v 0.34375 -0.1312500000000001 1
v 0.34375 -0.1312500000000001 0.5
v -0.34375 0.15625 1
v -0.34375 0.15625 0.5
v -0.34375 -0.1562500000000001 1
v -0.34375 -0.1562500000000001 0.5
v -0.53125 0.15625 1
v -0.53125 0.15625 0.5
v -0.53125 -0.1562500000000001 1
v -0.53125 -0.1562500000000001 0.5
v 0.26249999999999996 0.08749999999999991 0.09375
v 0.26249999999999996 0.08749999999999991 -0.08124999999999999
v 0.26249999999999996 -0.08750000000000013 0.09375
v 0.26249999999999996 -0.08750000000000013 -0.08124999999999999
v -0.26249999999999996 0.08749999999999991 0.09375
v -0.26249999999999996 0.08749999999999991 -0.08124999999999999
v -0.26249999999999996 -0.08750000000000013 0.09375
v -0.26249999999999996 -0.08750000000000013 -0.08124999999999999
v -0.26249999999999996 0.09375 0.125
v -0.26249999999999996 0.09375 -0.6625
v -0.26249999999999996 -0.09375000000000011 0.125
v -0.26249999999999996 -0.09375000000000011 -0.6625
v -0.32500062499999993 0.09375 0.125
v -0.32499999999999996 0.09375 -0.6625
v -0.32500062499999993 -0.09375000000000011 0.125
v -0.32499999999999996 -0.09375000000000011 -0.6625
vt 0.5234375 0.9765625
vt 0.5234375 1
vt 0 1
vt 0 0.9765625
vt 0.5234375 0.9453125
vt 0.5234375 0.96875
vt 0 0.96875
vt 0 0.9453125
vt 0 0.7578125
vt 0 0.234375
vt 0.0078125 0.234375
vt 0.0078125 0.7578125
vt 0.015625 0.234375
vt 0.015625 0.7578125
vt 0.0234375 0.7578125
vt 0.0234375 0.234375
vt 0.5078125 0.4765625
vt 0.5078125 0.5
vt 0.5 0.5
vt 0.5 0.4765625
vt 0.5078125 0.5078125
vt 0.5078125 0.53125
vt 0.5 0.53125
vt 0.5 0.5078125
vt 0.21875 0.65625
vt 0.21875 0.6796875
vt 0.1171875 0.6796875
vt 0.1171875 0.65625
vt 0.421875 0.7890625
vt 0.421875 0.8125
vt 0.3203125 0.8125
vt 0.3203125 0.7890625
vt 0.1875 0.5234375
vt 0.1875 0.421875
vt 0.1953125 0.421875
vt 0.1953125 0.5234375
vt 0.203125 0.421875
vt 0.203125 0.5234375
vt 0.2109375 0.5234375
vt 0.2109375 0.421875
vt 0.0859375 0.4609375
vt 0.0859375 0.484375
vt 0.078125 0.484375
vt 0.078125 0.4609375
vt 0.0703125 0.4609375
vt 0.0703125 0.484375
vt 0.0625 0.484375
vt 0.0625 0.4609375
vt 0.5546875 0.7421875
vt 0.5546875 0.75
vt 0.4765625 0.75
vt 0.4765625 0.7421875
vt 0.5546875 0.7265625
vt 0.5546875 0.734375
vt 0.4765625 0.734375
vt 0.4765625 0.7265625
vt 0.28125 0.5234375
vt 0.28125 0.4453125
vt 0.2890625 0.4453125
vt 0.2890625 0.5234375
vt 0.296875 0.4375
vt 0.296875 0.515625
vt 0.3046875 0.515625
vt 0.3046875 0.4375
vt 0.3046875 0.5703125
vt 0.3046875 0.578125
vt 0.296875 0.578125
vt 0.296875 0.5703125
vt 0.3203125 0.640625
vt 0.3203125 0.6484375
vt 0.3125 0.6484375
vt 0.3125 0.640625
vt 0.5390625 0.7109375
vt 0.5390625 0.71875
vt 0.4765625 0.71875
vt 0.4765625 0.7109375
vt 0.546875 0.7578125
vt 0.546875 0.765625
vt 0.484375 0.765625
vt 0.484375 0.7578125
vt 0.3125 0.515625
vt 0.3125 0.453125
vt 0.3203125 0.453125
vt 0.3203125 0.515625
vt 0.328125 0.453125
vt 0.328125 0.515625
vt 0.3359375 0.515625
vt 0.3359375 0.453125
vt 0.40625 0.5625
vt 0.40625 0.5703125
vt 0.3984375 0.5703125
vt 0.3984375 0.5625
vt 0.390625 0.5625
vt 0.390625 0.5703125
vt 0.3828125 0.5703125
vt 0.3828125 0.5625
vt 0.53125 0.5546875
vt 0.53125 0.5625
vt 0.4921875 0.5625
vt 0.4921875 0.5546875
vt 0.53125 0.5390625
vt 0.53125 0.546875
vt 0.4921875 0.546875
vt 0.4921875 0.5390625
vt 0.5 0.84375
vt 0.5 0.8046875
vt 0.5078125 0.8046875
vt 0.5078125 0.84375
vt 0.5 0.6171875
vt 0.5 0.65625
vt 0.5078125 0.65625
vt 0.5078125 0.6171875
vt 0.5078125 0.5703125
vt 0.5078125 0.578125
vt 0.5 0.578125
vt 0.5 0.5703125
vt 0.453125 0.6484375
vt 0.453125 0.65625
vt 0.4453125 0.65625
vt 0.4453125 0.6484375
vt 0.3359375 0.734375
vt 0.3359375 0.7578125
vt 0.21875 0.7578125
vt 0.21875 0.734375
vt 0.3359375 0.734375
vt 0.3359375 0.7578125
vt 0.21875 0.7578125
vt 0.21875 0.734375
vt 0.421875 0.5234375
vt 0.421875 0.40625
vt 0.4296875 0.40625
vt 0.4296875 0.5234375
vt 0.4375 0.40625
vt 0.4375 0.5234375
vt 0.4453125 0.5234375
vt 0.4453125 0.40625
vt 0.5234375 0.5703125
vt 0.5234375 0.59375
vt 0.515625 0.59375
vt 0.515625 0.5703125
vt 0.5234375 0.6015625
vt 0.5234375 0.625
vt 0.515625 0.625
vt 0.515625 0.6015625
vt 0 0.9453125
vt 0 0.96875
vt 0.5234375 0.96875
vt 0.5234375 0.9453125
vt 0 0.9765625
vt 0 1
vt 0.5234375 1
vt 0.5234375 0.9765625
vt 0.0078125 0.7578125
vt 0.0078125 0.234375
vt 0 0.234375
vt 0 0.7578125
vt 0.0234375 0.234375
vt 0.0234375 0.7578125
vt 0.015625 0.7578125
vt 0.015625 0.234375
vt 0.5 0.4765625
vt 0.5 0.5
vt 0.5078125 0.5
vt 0.5078125 0.4765625
vt 0.5 0.5078125
vt 0.5 0.53125
vt 0.5078125 0.53125
vt 0.5078125 0.5078125
vt 0.4375 0.671875
vt 0.4375 0.6953125
vt 0.3359375 0.6953125
vt 0.3359375 0.671875
vt 0.4375 0.640625
vt 0.4375 0.6640625
vt 0.3359375 0.6640625
vt 0.3359375 0.640625
vt 0.25 0.5234375
vt 0.25 0.421875
vt 0.2578125 0.421875
vt 0.2578125 0.5234375
vt 0.265625 0.421875
vt 0.265625 0.5234375
vt 0.2734375 0.5234375
vt 0.2734375 0.421875
vt 0.5234375 0.4765625
vt 0.5234375 0.5
vt 0.515625 0.5
vt 0.515625 0.4765625
vt 0.5234375 0.5078125
vt 0.5234375 0.53125
vt 0.515625 0.53125
vt 0.515625 0.5078125
vt 0.40625 0.8515625
vt 0.40625 0.875
vt 0.3046875 0.875
vt 0.3046875 0.8515625
vt 0.40625 0.8203125
vt 0.40625 0.84375
vt 0.3046875 0.84375
vt 0.3046875 0.8203125
vt 0.15625 0.5234375
vt 0.15625 0.421875
vt 0.1640625 0.421875
vt 0.1640625 0.5234375
vt 0.171875 0.421875
vt 0.171875 0.5234375
vt 0.1796875 0.5234375
vt 0.1796875 0.421875
vt 0.5078125 0.5859375
vt 0.5078125 0.609375
vt 0.5 0.609375
vt 0.5 0.5859375
vt 0.421875 0.8203125
vt 0.421875 0.84375
vt 0.4140625 0.84375
vt 0.4140625 0.8203125
vt 0.3125 0.765625
vt 0.3125 0.8046875
vt 0.25 0.8046875
vt 0.25 0.765625
vt 0.1796875 0.6875
vt 0.1796875 0.7265625
vt 0.1171875 0.7265625
vt 0.1171875 0.6875
vt 0.21875 0.6484375
vt 0.21875 0.5859375
vt 0.2421875 0.5859375
vt 0.2421875 0.6484375
vt 0.25 0.5859375
vt 0.25 0.6484375
vt 0.2734375 0.6484375
vt 0.2734375 0.5859375
vt 0.4921875 0.8046875
vt 0.4921875 0.84375
vt 0.46875 0.84375
vt 0.46875 0.8046875
vt 0.0859375 0.4921875
vt 0.0859375 0.53125
vt 0.0625 0.53125
vt 0.0625 0.4921875
vt 0.25 0.6875
vt 0.25 0.7265625
vt 0.1875 0.7265625
vt 0.1875 0.6875
vt 0.3203125 0.6875
vt 0.3203125 0.7265625
vt 0.2578125 0.7265625
vt 0.2578125 0.6875
vt 0.28125 0.6484375
vt 0.28125 0.5859375
vt 0.3046875 0.5859375
vt 0.3046875 0.6484375
vt 0.3125 0.5703125
vt 0.3125 0.6328125
vt 0.3359375 0.6328125
vt 0.3359375 0.5703125
vt 0.4921875 0.5703125
vt 0.4921875 0.609375
vt 0.46875 0.609375
vt 0.46875 0.5703125
vt 0.4921875 0.6171875
vt 0.4921875 0.65625
vt 0.46875 0.65625
vt 0.46875 0.6171875
vt 0.5078125 0.8515625
vt 0.5078125 0.875
vt 0.484375 0.875
vt 0.484375 0.8515625
vt 0.5078125 0.7734375
vt 0.5078125 0.796875
vt 0.484375 0.796875
vt 0.484375 0.7734375
vt 0.34375 0.6015625
vt 0.34375 0.578125
vt 0.40625 0.578125
vt 0.40625 0.6015625
vt 0.4140625 0.8515625
vt 0.4140625 0.875
vt 0.4765625 0.875
vt 0.4765625 0.8515625
vt 0.4375 0.7578125
vt 0.4375 0.78125
vt 0.375 0.78125
vt 0.375 0.7578125
vt 0.40625 0.609375
vt 0.40625 0.6328125
vt 0.34375 0.6328125
vt 0.34375 0.609375
vt 0.328125 0.65625
vt 0.328125 0.6796875
vt 0.2265625 0.6796875
vt 0.2265625 0.65625
vt 0.4296875 0.703125
vt 0.4296875 0.7265625
vt 0.328125 0.7265625
vt 0.328125 0.703125
vt 0.21875 0.5234375
vt 0.21875 0.421875
vt 0.2265625 0.421875
vt 0.2265625 0.5234375
vt 0.234375 0.421875
vt 0.234375 0.5234375
vt 0.2421875 0.5234375
vt 0.2421875 0.421875
vt 0.5234375 0.8203125
vt 0.5234375 0.84375
vt 0.515625 0.84375
vt 0.515625 0.8203125
vt 0.5234375 0.8515625
vt 0.5234375 0.875
vt 0.515625 0.875
vt 0.515625 0.8515625
vn 0.9975640479158057 0 0.06975650726514457
vn -0.9975640486431554 0 -0.0697564968635633
vn 0 1 0
vn 0 -1 0
vn -0.06975031331562294 0 0.997564481019835
vn 0.06976026469883868 0 -0.9975637851632086
vn 1 0 0
vn -1 0 0
vn 0 1 0
vn 0 -1 0
vn 0 0 1
vn 0 0 -1
vn 0.0000010204081632261445 0 -0.9999999999994794
vn 0 0 1
vn 0 1 0
vn 0 -1 0
vn 1 0 0
vn -1 0 0
vn 0 0 -1
vn 0 0 1
vn 0 1 0
vn 0 -1 0
vn 1 0 0
vn -0.99999999995 0 -0.000009999999999121423
vn 0 0 -1
vn 0 0 1
vn 0 1 0
vn 0 -1 0
vn 1 0 0
vn -1 0 0
vn 1 0 0
vn -1 0 0
vn 0 1 0
vn 0 -1 0
vn 0 0 1
vn 0 0 -1
vn 0.9975640479158058 0 -0.06975650726514453
vn -0.9975640479158058 0 0.06975650726514453
vn 0 1 0
vn 0 -1 0
vn 0.0697503133156227 0 0.9975644810198351
vn -0.0697503133156227 0 -0.9975644810198351
vn 0.981627264509844 0 0.19080857834730874
vn -0.9816272645098438 0 -0.19080857834730897
vn 0 1 0
vn 0 -1 0
vn -0.19080943587273538 0 0.9816270978237759
vn 0.190809435872736 0 -0.9816270978237757
vn 0.9816272645098438 0 -0.19080857834730883
vn -0.981627264509844 0 0.19080857834730874
vn 0 1 0
vn 0 -1 0
vn 0.19080943587273566 0 0.9816270978237757
vn -0.190809435872736 0 -0.9816270978237757
vn 1 0 0
vn -1 0 0
vn 0 1 0
vn 0 -1 0
vn 0 0 1
vn 0 0 -1
vn 1 0 0
vn -1 0 0
vn 0 1 0
vn 0 -1 0
vn 0 0 1
vn 0 0 -1
vn 1 0 0
vn -1 0 0
vn 0 1 0
vn 0 -1 0
vn 0 0 1
vn 0 0 -1
vn 1 0 0
vn -0.9999999999996851 0 -7.93650793620498e-7
vn 0 1 0
vn 0 -1 0
vn 0 0 1
vn 0 0 -1
usemtl m_3b95a012-fb9c-9e45-8529-b6c96616df44
f 4/1/1 2/2/1 1/3/1 3/4/1
f 7/5/2 5/6/2 6/7/2 8/8/2
f 1/9/3 2/10/3 6/11/3 5/12/3
f 4/13/4 3/14/4 7/15/4 8/16/4
f 3/17/5 1/18/5 5/19/5 7/20/5
f 8/21/6 6/22/6 2/23/6 4/24/6
f 12/25/7 10/26/7 9/27/7 11/28/7
f 15/29/8 13/30/8 14/31/8 16/32/8
f 9/33/9 10/34/9 14/35/9 13/36/9
f 12/37/10 11/38/10 15/39/10 16/40/10
f 11/41/11 9/42/11 13/43/11 15/44/11
f 16/45/12 14/46/12 10/47/12 12/48/12
f 20/49/13 18/50/13 17/51/13 19/52/13
f 23/53/14 21/54/14 22/55/14 24/56/14
f 17/57/15 18/58/15 22/59/15 21/60/15
f 20/61/16 19/62/16 23/63/16 24/64/16
f 19/65/17 17/66/17 21/67/17 23/68/17
f 24/69/18 22/70/18 18/71/18 20/72/18
f 28/73/19 26/74/19 25/75/19 27/76/19
f 31/77/20 29/78/20 30/79/20 32/80/20
f 25/81/21 26/82/21 30/83/21 29/84/21
f 28/85/22 27/86/22 31/87/22 32/88/22
f 27/89/23 25/90/23 29/91/23 31/92/23
f 32/93/24 30/94/24 26/95/24 28/96/24
f 36/97/25 34/98/25 33/99/25 35/100/25
f 39/101/26 37/102/26 38/103/26 40/104/26
f 33/105/27 34/106/27 38/107/27 37/108/27
f 36/109/28 35/110/28 39/111/28 40/112/28
f 35/113/29 33/114/29 37/115/29 39/116/29
f 40/117/30 38/118/30 34/119/30 36/120/30
f 44/121/31 42/122/31 41/123/31 43/124/31
f 47/125/32 45/126/32 46/127/32 48/128/32
f 41/129/33 42/130/33 46/131/33 45/132/33
f 44/133/34 43/134/34 47/135/34 48/136/34
f 43/137/35 41/138/35 45/139/35 47/140/35
f 48/141/36 46/142/36 42/143/36 44/144/36
f 52/145/37 50/146/37 49/147/37 51/148/37
f 55/149/38 53/150/38 54/151/38 56/152/38
f 49/153/39 50/154/39 54/155/39 53/156/39
f 52/157/40 51/158/40 55/159/40 56/160/40
f 51/161/41 49/162/41 53/163/41 55/164/41
f 56/165/42 54/166/42 50/167/42 52/168/42
f 60/169/43 58/170/43 57/171/43 59/172/43
f 63/173/44 61/174/44 62/175/44 64/176/44
f 57/177/45 58/178/45 62/179/45 61/180/45
f 60/181/46 59/182/46 63/183/46 64/184/46
f 59/185/47 57/186/47 61/187/47 63/188/47
f 64/189/48 62/190/48 58/191/48 60/192/48
f 68/193/49 66/194/49 65/195/49 67/196/49
f 71/197/50 69/198/50 70/199/50 72/200/50
f 65/201/51 66/202/51 70/203/51 69/204/51
f 68/205/52 67/206/52 71/207/52 72/208/52
f 67/209/53 65/210/53 69/211/53 71/212/53
f 72/213/54 70/214/54 66/215/54 68/216/54
f 76/217/55 74/218/55 73/219/55 75/220/55
f 79/221/56 77/222/56 78/223/56 80/224/56
f 73/225/57 74/226/57 78/227/57 77/228/57
f 76/229/58 75/230/58 79/231/58 80/232/58
f 75/233/59 73/234/59 77/235/59 79/236/59
f 80/237/60 78/238/60 74/239/60 76/240/60
f 84/241/61 82/242/61 81/243/61 83/244/61
f 87/245/62 85/246/62 86/247/62 88/248/62
f 81/249/63 82/250/63 86/251/63 85/252/63
f 84/253/64 83/254/64 87/255/64 88/256/64
f 83/257/65 81/258/65 85/259/65 87/260/65
f 88/261/66 86/262/66 82/263/66 84/264/66
f 92/265/67 90/266/67 89/267/67 91/268/67
f 95/269/68 93/270/68 94/271/68 96/272/68
f 89/273/69 90/274/69 94/275/69 93/276/69
f 92/277/70 91/278/70 95/279/70 96/280/70
f 91/281/71 89/282/71 93/283/71 95/284/71
f 96/285/72 94/286/72 90/287/72 92/288/72
f 100/289/73 98/290/73 97/291/73 99/292/73
f 103/293/74 101/294/74 102/295/74 104/296/74
f 97/297/75 98/298/75 102/299/75 101/300/75
f 100/301/76 99/302/76 103/303/76 104/304/76
f 99/305/77 97/306/77 101/307/77 103/308/77
f 104/309/78 102/310/78 98/311/78 100/312/78