# Made in Blockbench 5.0.3
mtllib base.mtl

o cube
v 0.1875 1.225 0.25625
v 0.1875 1.225 -0.24375
v 0.1875 0.35 0.25625
v 0.1875 0.35 -0.24375
v -0.1875 1.225 0.25625
v -0.1875 1.225 -0.24375
v -0.1875 0.35 0.25625
v -0.1875 0.35 -0.24375
v 0.1875 1.3193125 0.13125
v 0.1875 1.3193125 -0.11875
v 0.1875 1.225 0.13125
v 0.1875 1.225 -0.11875
v -0.1875 1.3193125 0.13125
v -0.1875 1.3193125 -0.11875
v -0.1875 1.225 0.13125
v -0.1875 1.225 -0.11875
v -0.1871875 1.19375 -0.09375
v 0.1871875 1.19375 -0.09375
v -0.1871875 1.16025625 0.0559375
v 0.1871875 1.16025625 0.0559375
v -0.1871875 1.10224375 0.01582875
v 0.1871875 1.10224375 0.01582875
v -0.1871875 1.06875 -0.05364125
v 0.1871875 1.06875 -0.05364125
v -0.1871875 1.06875 -0.13385875
v 0.1871875 1.06875 -0.13385875
v -0.1871875 1.10224375 -0.20332875
v 0.1871875 1.10224375 -0.20332875
v -0.1871875 1.16025625 -0.2434375
v 0.1871875 1.16025625 -0.2434375
v -0.1871875 1.22724375 -0.2434375
v 0.1871875 1.22724375 -0.2434375
v -0.1871875 1.28525625 -0.20332875
v 0.1871875 1.28525625 -0.20332875
v -0.1871875 1.31875 -0.13385875
v 0.1871875 1.31875 -0.13385875
v -0.1871875 1.31875 -0.05364125
v 0.1871875 1.31875 -0.05364125
v -0.1871875 1.28525625 0.01582875
v 0.1871875 1.28525625 0.01582875
v -0.1871875 1.22724375 0.0559375
v 0.1871875 1.22724375 0.0559375
v 0 0 0
v 0 0.5 0
v 0.03349374999999999 0 0.125
v 0.03349374999999999 0.5 0.125
v 0.09150625000000001 0 0.09150625
v 0.09150625000000001 0.5 0.09150625
v 0.125 0 0.03349375
v 0.125 0.5 0.03349375
v 0.125 0 -0.03349375
v 0.125 0.5 -0.03349375
v 0.09150625000000001 0 -0.09150625
v 0.09150625000000001 0.5 -0.09150625
v 0.03349374999999999 0 -0.125
v 0.03349374999999999 0.5 -0.125
v -0.03349375000000002 0 -0.125
v -0.03349375000000002 0.5 -0.125
v -0.09150625000000001 0 -0.09150625
v -0.09150625000000001 0.5 -0.09150625
v -0.125 0 -0.03349375
v -0.125 0.5 -0.03349375
v -0.125 0 0.03349375
v -0.125 0.5 0.03349375
v -0.09150625000000001 0 0.09150625
v -0.09150625000000001 0.5 0.09150625
v -0.03349375000000002 0 0.125
v -0.03349375000000002 0.5 0.125
v -0.1871875 1.19375 0.10625
v 0.1871875 1.19375 0.10625
v -0.1871875 1.16025625 -0.0434375
v 0.1871875 1.16025625 -0.0434375
v -0.1871875 1.10224375 -0.00332875
v 0.1871875 1.10224375 -0.00332875
v -0.1871875 1.06875 0.06614125
v 0.1871875 1.06875 0.06614125
v -0.1871875 1.06875 0.14635875
v 0.1871875 1.06875 0.14635875
v -0.1871875 1.10224375 0.21582875
v 0.1871875 1.10224375 0.21582875
v -0.1871875 1.16025625 0.2559375
v 0.1871875 1.16025625 0.2559375
v -0.1871875 1.22724375 0.2559375
v 0.1871875 1.22724375 0.2559375
v -0.1871875 1.28525625 0.21582875
v 0.1871875 1.28525625 0.21582875
v -0.1871875 1.31875 0.14635875
v 0.1871875 1.31875 0.14635875
v -0.1871875 1.31875 0.06614125
v 0.1871875 1.31875 0.06614125
v -0.1871875 1.28525625 -0.00332875
v 0.1871875 1.28525625 -0.00332875
v -0.1871875 1.22724375 -0.0434375
v 0.1871875 1.22724375 -0.0434375
vt 0.0625 0.765625
vt 0.0625 0.875
vt 0 0.875
vt 0 0.765625
vt 0.1328125 0.765625
vt 0.1328125 0.875
vt 0.0703125 0.875
vt 0.0703125 0.765625
vt 0.25 0.875
vt 0.25 0.8125
vt 0.296875 0.8125
vt 0.296875 0.875
vt 0.0625 0.6640625
vt 0.0625 0.7265625
vt 0.109375 0.7265625
vt 0.109375 0.6640625
vt 0.2421875 0.765625
vt 0.2421875 0.875
vt 0.1953125 0.875
vt 0.1953125 0.765625
vt 0.1875 0.765625
vt 0.1875 0.875
vt 0.140625 0.875
vt 0.140625 0.765625
vt 0.515625 0.6875
vt 0.515625 0.703125
vt 0.484375 0.703125
vt 0.484375 0.6875
vt 0.515625 0.6640625
vt 0.515625 0.6796875
vt 0.484375 0.6796875
vt 0.484375 0.6640625
vt 0.4140625 0.6328125
vt 0.4140625 0.6015625
vt 0.4609375 0.6015625
vt 0.4609375 0.6328125
vt 0.4140625 0.5625
vt 0.4140625 0.59375
vt 0.4609375 0.59375
vt 0.4609375 0.5625
vt 0.421875 0.734375
vt 0.421875 0.75
vt 0.375 0.75
vt 0.375 0.734375
vt 0.3671875 0.765625
vt 0.3671875 0.78125
vt 0.3203125 0.78125
vt 0.3203125 0.765625
vt 0.46456328125 0.74334609375
vt 0.45731171875 0.7483593749999999
vt 0.453125 0.7296484375000001
vt 0.23856171875 0.5313281249999999
vt 0.24737734375 0.5313281249999999
vt 0.24737734375 0.578125
vt 0.23856171875 0.578125
vt 0.31668671875 0.5250781250000001
vt 0.32393828125 0.53009140625
vt 0.3125 0.5437890624999999
vt 0.46875 0.73466171875
vt 0.46456328125 0.74334609375
vt 0.453125 0.7296484375000001
vt 0.063471875 0.5391406249999999
vt 0.07311171875 0.5391406249999999
vt 0.07311171875 0.5859375
vt 0.063471875 0.5859375
vt 0.32393828125 0.53009140625
vt 0.328125 0.53877578125
vt 0.3125 0.5437890624999999
vt 0.46875 0.72463515625
vt 0.46875 0.73466171875
vt 0.453125 0.7296484375000001
vt 0.07311171875 0.5391406249999999
vt 0.08313828125 0.5391406249999999
vt 0.08313828125 0.5859375
vt 0.07311171875 0.5859375
vt 0.328125 0.53877578125
vt 0.328125 0.54880234375
vt 0.3125 0.5437890624999999
vt 0.46456328125 0.71595078125
vt 0.46875 0.72463515625
vt 0.453125 0.7296484375000001
vt 0.08313828125 0.5391406249999999
vt 0.092778125 0.5391406249999999
vt 0.092778125 0.5859375
vt 0.08313828125 0.5859375
vt 0.328125 0.54880234375
vt 0.32393828125 0.55748671875
vt 0.3125 0.5437890624999999
vt 0.45731171875 0.7109375
vt 0.46456328125 0.71595078125
vt 0.453125 0.7296484375000001
vt 0.26043515625 0.5313281249999999
vt 0.26925078125 0.5313281249999999
vt 0.26925078125 0.578125
vt 0.26043515625 0.578125
vt 0.32393828125 0.55748671875
vt 0.31668671875 0.5625
vt 0.3125 0.5437890624999999
vt 0.44893828125 0.7109375
vt 0.45731171875 0.7109375
vt 0.453125 0.7296484375000001
vt 0.26925078125 0.5313281249999999
vt 0.27762421875 0.5313281249999999
vt 0.27762421875 0.578125
vt 0.26925078125 0.578125
vt 0.31668671875 0.5625
vt 0.30831328125 0.5625
vt 0.3125 0.5437890624999999
vt 0.44168671875 0.71595078125
vt 0.44893828125 0.7109375
vt 0.453125 0.7296484375000001
vt 0.27762421875 0.5313281249999999
vt 0.28643984375 0.5313281249999999
vt 0.28643984375 0.578125
vt 0.27762421875 0.578125
vt 0.30831328125 0.5625
vt 0.30106171875 0.55748671875
vt 0.3125 0.5437890624999999
vt 0.4375 0.72463515625
vt 0.44168671875 0.71595078125
vt 0.453125 0.7296484375000001
vt 0.102534375 0.5313281249999999
vt 0.11217421875 0.5313281249999999
vt 0.11217421875 0.578125
vt 0.102534375 0.578125
vt 0.30106171875 0.55748671875
vt 0.296875 0.54880234375
vt 0.3125 0.5437890624999999
vt 0.4375 0.73466171875
vt 0.4375 0.72463515625
vt 0.453125 0.7296484375000001
vt 0.11217421875 0.5313281249999999
vt 0.12220078125 0.5313281249999999
vt 0.12220078125 0.578125
vt 0.11217421875 0.578125
vt 0.296875 0.54880234375
vt 0.296875 0.53877578125
vt 0.3125 0.5437890624999999
vt 0.44168671875 0.74334609375
vt 0.4375 0.73466171875
vt 0.453125 0.7296484375000001
vt 0.12220078125 0.5313281249999999
vt 0.131840625 0.5313281249999999
vt 0.131840625 0.578125
vt 0.12220078125 0.578125
vt 0.296875 0.53877578125
vt 0.30106171875 0.53009140625
vt 0.3125 0.5437890624999999
vt 0.44893828125 0.7483593749999999
vt 0.44168671875 0.74334609375
vt 0.453125 0.7296484375000001
vt 0.22137265625 0.5313281249999999
vt 0.23018828125 0.5313281249999999
vt 0.23018828125 0.578125
vt 0.22137265625 0.578125
vt 0.30106171875 0.53009140625
vt 0.30831328125 0.5250781250000001
vt 0.3125 0.5437890624999999
vt 0.45731171875 0.7483593749999999
vt 0.44893828125 0.7483593749999999
vt 0.453125 0.7296484375000001
vt 0.23018828125 0.5313281249999999
vt 0.23856171875 0.5313281249999999
vt 0.23856171875 0.578125
vt 0.23018828125 0.578125
vt 0.30831328125 0.5250781250000001
vt 0.31668671875 0.5250781250000001
vt 0.3125 0.5437890624999999
vt 0.47237578125 0.78487578125
vt 0.46512421875 0.7890625
vt 0.4609375 0.7734375
vt 0.62918671875 0.34375
vt 0.63756015625 0.34375
vt 0.63756015625 0.40625
vt 0.62918671875 0.40625
vt 0.47293671875 0.5234375
vt 0.48018828125 0.52762421875
vt 0.46875 0.5390625
vt 0.4765625 0.77762421875
vt 0.47237578125 0.78487578125
vt 0.4609375 0.7734375
vt 0.61243984375 0.34375
vt 0.62081328125 0.34375
vt 0.62081328125 0.40625
vt 0.61243984375 0.40625
vt 0.48018828125 0.52762421875
vt 0.484375 0.53487578125
vt 0.46875 0.5390625
vt 0.4765625 0.76925078125
vt 0.4765625 0.77762421875
vt 0.4609375 0.7734375
vt 0.62081328125 0.34375
vt 0.62918671875 0.34375
vt 0.62918671875 0.40625
vt 0.62081328125 0.40625
vt 0.484375 0.53487578125
vt 0.484375 0.54324921875
vt 0.46875 0.5390625
vt 0.47237578125 0.76199921875
vt 0.4765625 0.76925078125
vt 0.4609375 0.7734375
vt 0.62918671875 0.34375
vt 0.63756015625 0.34375
vt 0.63756015625 0.40625
vt 0.62918671875 0.40625
vt 0.484375 0.54324921875
vt 0.48018828125 0.55050078125
vt 0.46875 0.5390625
vt 0.46512421875 0.7578125
vt 0.47237578125 0.76199921875
vt 0.4609375 0.7734375
vt 0.61243984375 0.34375
vt 0.62081328125 0.34375
vt 0.62081328125 0.40625
vt 0.61243984375 0.40625
vt 0.48018828125 0.55050078125
vt 0.47293671875 0.5546875
vt 0.46875 0.5390625
vt 0.45675078125 0.7578125
vt 0.46512421875 0.7578125
vt 0.4609375 0.7734375
vt 0.62081328125 0.34375
vt 0.62918671875 0.34375
vt 0.62918671875 0.40625
vt 0.62081328125 0.40625
vt 0.47293671875 0.5546875
vt 0.46456328125 0.5546875
vt 0.46875 0.5390625
vt 0.44949921875 0.76199921875
vt 0.45675078125 0.7578125
vt 0.4609375 0.7734375
vt 0.62918671875 0.34375
vt 0.63756015625 0.34375
vt 0.63756015625 0.40625
vt 0.62918671875 0.40625
vt 0.46456328125 0.5546875
vt 0.45731171875 0.55050078125
vt 0.46875 0.5390625
vt 0.4453125 0.76925078125
vt 0.44949921875 0.76199921875
vt 0.4609375 0.7734375
vt 0.61243984375 0.34375
vt 0.62081328125 0.34375
vt 0.62081328125 0.40625
vt 0.61243984375 0.40625
vt 0.45731171875 0.55050078125
vt 0.453125 0.54324921875
vt 0.46875 0.5390625
vt 0.4453125 0.77762421875
vt 0.4453125 0.76925078125
vt 0.4609375 0.7734375
vt 0.62081328125 0.34375
vt 0.62918671875 0.34375
vt 0.62918671875 0.40625
vt 0.62081328125 0.40625
vt 0.453125 0.54324921875
vt 0.453125 0.53487578125
vt 0.46875 0.5390625
vt 0.44949921875 0.78487578125
vt 0.4453125 0.77762421875
vt 0.4609375 0.7734375
vt 0.62918671875 0.34375
vt 0.63756015625 0.34375
vt 0.63756015625 0.40625
vt 0.62918671875 0.40625
vt 0.453125 0.53487578125
vt 0.45731171875 0.52762421875
vt 0.46875 0.5390625
vt 0.45675078125 0.7890625
vt 0.44949921875 0.78487578125
vt 0.4609375 0.7734375
vt 0.61243984375 0.34375
vt 0.62081328125 0.34375
vt 0.62081328125 0.40625
vt 0.61243984375 0.40625
vt 0.45731171875 0.52762421875
vt 0.46456328125 0.5234375
vt 0.46875 0.5390625
vt 0.46512421875 0.7890625
vt 0.45675078125 0.7890625
vt 0.4609375 0.7734375
vt 0.62081328125 0.34375
vt 0.62918671875 0.34375
vt 0.62918671875 0.40625
vt 0.62081328125 0.40625
vt 0.46456328125 0.5234375
vt 0.47293671875 0.5234375
vt 0.46875 0.5390625
vt 0.45731171875 0.7483593749999999
vt 0.46456328125 0.74334609375
vt 0.453125 0.7296484375000001
vt 0.24737734375 0.578125
vt 0.24737734375 0.5313281249999999
vt 0.23856171875 0.5313281249999999
vt 0.23856171875 0.578125
vt 0.32393828125 0.53009140625
vt 0.31668671875 0.5250781250000001
vt 0.3125 0.5437890624999999
vt 0.46456328125 0.74334609375
vt 0.46875 0.73466171875
vt 0.453125 0.7296484375000001
vt 0.07311171875 0.5859375
vt 0.07311171875 0.5391406249999999
vt 0.063471875 0.5391406249999999
vt 0.063471875 0.5859375
vt 0.328125 0.53877578125
vt 0.32393828125 0.53009140625
vt 0.3125 0.5437890624999999
vt 0.46875 0.73466171875
vt 0.46875 0.72463515625
vt 0.453125 0.7296484375000001
vt 0.08313828125 0.5859375
vt 0.08313828125 0.5391406249999999
vt 0.07311171875 0.5391406249999999
vt 0.07311171875 0.5859375
vt 0.328125 0.54880234375
vt 0.328125 0.53877578125
vt 0.3125 0.5437890624999999
vt 0.46875 0.72463515625
vt 0.46456328125 0.71595078125
vt 0.453125 0.7296484375000001
vt 0.092778125 0.5859375
vt 0.092778125 0.5391406249999999
vt 0.08313828125 0.5391406249999999
vt 0.08313828125 0.5859375
vt 0.32393828125 0.55748671875
vt 0.328125 0.54880234375
vt 0.3125 0.5437890624999999
vt 0.46456328125 0.71595078125
vt 0.45731171875 0.7109375
vt 0.453125 0.7296484375000001
vt 0.26925078125 0.578125
vt 0.26925078125 0.5313281249999999
vt 0.26043515625 0.5313281249999999
vt 0.26043515625 0.578125
vt 0.31668671875 0.5625
vt 0.32393828125 0.55748671875
vt 0.3125 0.5437890624999999
vt 0.45731171875 0.7109375
vt 0.44893828125 0.7109375
vt 0.453125 0.7296484375000001
vt 0.27762421875 0.578125
vt 0.27762421875 0.5313281249999999
vt 0.26925078125 0.5313281249999999
vt 0.26925078125 0.578125
vt 0.30831328125 0.5625
vt 0.31668671875 0.5625
vt 0.3125 0.5437890624999999
vt 0.44893828125 0.7109375
vt 0.44168671875 0.71595078125
vt 0.453125 0.7296484375000001
vt 0.28643984375 0.578125
vt 0.28643984375 0.5313281249999999
vt 0.27762421875 0.5313281249999999
vt 0.27762421875 0.578125
vt 0.30106171875 0.55748671875
vt 0.30831328125 0.5625
vt 0.3125 0.5437890624999999
vt 0.44168671875 0.71595078125
vt 0.4375 0.72463515625
vt 0.453125 0.7296484375000001
vt 0.11217421875 0.578125
vt 0.11217421875 0.5313281249999999
vt 0.102534375 0.5313281249999999
vt 0.102534375 0.578125
vt 0.296875 0.54880234375
vt 0.30106171875 0.55748671875
vt 0.3125 0.5437890624999999
vt 0.4375 0.72463515625
vt 0.4375 0.73466171875
vt 0.453125 0.7296484375000001
vt 0.12220078125 0.578125
vt 0.12220078125 0.5313281249999999
vt 0.11217421875 0.5313281249999999
vt 0.11217421875 0.578125
vt 0.296875 0.53877578125
vt 0.296875 0.54880234375
vt 0.3125 0.5437890624999999
vt 0.4375 0.73466171875
vt 0.44168671875 0.74334609375
vt 0.453125 0.7296484375000001
vt 0.131840625 0.578125
vt 0.131840625 0.5313281249999999
vt 0.12220078125 0.5313281249999999
vt 0.12220078125 0.578125
vt 0.30106171875 0.53009140625
vt 0.296875 0.53877578125
vt 0.3125 0.5437890624999999
vt 0.44168671875 0.74334609375
vt 0.44893828125 0.7483593749999999
vt 0.453125 0.7296484375000001
vt 0.23018828125 0.578125
vt 0.23018828125 0.5313281249999999
vt 0.22137265625 0.5313281249999999
vt 0.22137265625 0.578125
vt 0.30831328125 0.5250781250000001
vt 0.30106171875 0.53009140625
vt 0.3125 0.5437890624999999
vt 0.44893828125 0.7483593749999999
vt 0.45731171875 0.7483593749999999
vt 0.453125 0.7296484375000001
vt 0.23856171875 0.578125
vt 0.23856171875 0.5313281249999999
vt 0.23018828125 0.5313281249999999
vt 0.23018828125 0.578125
vt 0.31668671875 0.5250781250000001
vt 0.30831328125 0.5250781250000001
vt 0.3125 0.5437890624999999
vn 1 0 0
vn -1 0 0
vn 0 1 0
vn 0 -1 0
vn 0 0 1
vn 0 0 -1
vn 1 0 0
vn -1 0 0
vn 0 1 0
vn 0 -1 0
vn 0 0 1
vn 0 0 -1
vn -1 0 0
vn 0 -0.568694679721735 0.8225486984101267
vn 1 0 0
vn -1 0 0
vn 0 -0.9007723045348415 0.43429167086531933
vn 1 0 0
vn -1 0 0
vn 0 -1 0
vn 1 0 0
vn -1 0 0
vn 0 -0.9007723045348415 -0.43429167086531933
vn 1 0 0
vn -1 0 0
vn 0 -0.568694679721735 -0.8225486984101267
vn 1 0 0
vn -1 0 0
vn 0 0 -1
vn 1 0 0
vn -1 0 0
vn 0 0.568694679721735 -0.8225486984101267
vn 1 0 0
vn -1 0 0
vn 0 0.9007723045348404 -0.4342916708653217
vn 1 0 0
vn -1 0 0
vn 0 1 0
vn 1 0 0
vn -1 0 0
vn 0 0.9007723045348404 0.4342916708653217
vn 1 0 0
vn -1 0 0
vn 0 0.568694679721735 0.8225486984101267
vn 1 0 0
vn -1 0 0
vn 0 0 1
vn 1 0 0
vn 0 -1 0
vn 0.5000024352623957 0 0.8660239977804737
vn 0 1 0
vn 0 -1 0
vn 0.8660239977804738 0 0.5000024352623959
vn 0 1 0
vn 0 -1 0
vn 1 0 0
vn 0 1 0
vn 0 -1 0
vn 0.8660239977804738 0 -0.5000024352623959
vn 0 1 0
vn 0 -1 0
vn 0.5000024352623957 0 -0.8660239977804737
vn 0 1 0
vn 0 -1 0
vn 0 0 -1
vn 0 1 0
vn 0 -1 0
vn -0.5000024352623959 0 -0.8660239977804736
vn 0 1 0
vn 0 -1 0
vn -0.8660239977804738 0 -0.5000024352623959
vn 0 1 0
vn 0 -1 0
vn -1 0 0
vn 0 1 0
vn 0 -1 0
vn -0.8660239977804738 0 0.5000024352623959
vn 0 1 0
vn 0 -1 0
vn -0.5000024352623959 0 0.8660239977804736
vn 0 1 0
vn 0 -1 0
vn 0 0 1
vn 0 1 0
vn -1 0 0
vn 0 -0.568694679721735 -0.8225486984101267
vn 1 0 0
vn -1 0 0
vn 0 -0.9007723045348415 -0.43429167086531933
vn 1 0 0
vn -1 0 0
vn 0 -1 0
vn 1 0 0
vn -1 0 0
vn 0 -0.9007723045348415 0.43429167086531933
vn 1 0 0
vn -1 0 0
vn 0 -0.5686946797217347 0.8225486984101267
vn 1 0 0
vn -1 0 0
vn 0 0 1
vn 1 0 0
vn -1 0 0
vn 0 0.5686946797217347 0.8225486984101267
vn 1 0 0
vn -1 0 0
vn 0 0.9007723045348404 0.4342916708653217
vn 1 0 0
vn -1 0 0
vn 0 1 0
vn 1 0 0
vn -1 0 0
vn 0 0.9007723045348404 -0.4342916708653217
vn 1 0 0
vn -1 0 0
vn 0 0.568694679721735 -0.8225486984101267
vn 1 0 0
vn -1 0 0
vn 0 0 -1
vn 1 0 0
usemtl m_3b95a012-fb9c-9e45-8529-b6c96616df44
f 4/1/1 2/2/1 1/3/1 3/4/1
f 7/5/2 5/6/2 6/7/2 8/8/2
f 1/9/3 2/10/3 6/11/3 5/12/3
f 4/13/4 3/14/4 7/15/4 8/16/4
f 3/17/5 1/18/5 5/19/5 7/20/5
f 8/21/6 6/22/6 2/23/6 4/24/6
f 12/25/7 10/26/7 9/27/7 11/28/7
f 15/29/8 13/30/8 14/31/8 16/32/8
f 9/33/9 10/34/9 14/35/9 13/36/9
f 12/37/10 11/38/10 15/39/10 16/40/10
f 11/41/11 9/42/11 13/43/11 15/44/11
f 16/45/12 14/46/12 10/47/12 12/48/12
f 21/49/13 19/50/13 17/51/13
f 19/52/14 21/53/14 22/54/14 20/55/14
f 20/56/15 22/57/15 18/58/15
f 23/59/16 21/60/16 17/61/16
f 21/62/17 23/63/17 24/64/17 22/65/17
f 22/66/18 24/67/18 18/68/18
f 25/69/19 23/70/19 17/71/19
f 23/72/20 25/73/20 26/74/20 24/75/20
f 24/76/21 26/77/21 18/78/21
f 27/79/22 25/80/22 17/81/22
f 25/82/23 27/83/23 28/84/23 26/85/23
f 26/86/24 28/87/24 18/88/24
f 29/89/25 27/90/25 17/91/25
f 27/92/26 29/93/26 30/94/26 28/95/26
f 28/96/27 30/97/27 18/98/27
f 31/99/28 29/100/28 17/101/28
f 29/102/29 31/103/29 32/104/29 30/105/29
f 30/106/30 32/107/30 18/108/30
f 33/109/31 31/110/31 17/111/31
f 31/112/32 33/113/32 34/114/32 32/115/32
f 32/116/33 34/117/33 18/118/33
f 35/119/34 33/120/34 17/121/34
f 33/122/35 35/123/35 36/124/35 34/125/35
f 34/126/36 36/127/36 18/128/36
f 37/129/37 35/130/37 17/131/37
f 35/132/38 37/133/38 38/134/38 36/135/38
f 36/136/39 38/137/39 18/138/39
f 39/139/40 37/140/40 17/141/40
f 37/142/41 39/143/41 40/144/41 38/145/41
f 38/146/42 40/147/42 18/148/42
f 41/149/43 39/150/43 17/151/43
f 39/152/44 41/153/44 42/154/44 40/155/44
f 40/156/45 42/157/45 18/158/45
f 19/159/46 41/160/46 17/161/46
f 41/162/47 19/163/47 20/164/47 42/165/47
f 42/166/48 20/167/48 18/168/48
f 47/169/49 45/170/49 43/171/49
f 45/172/50 47/173/50 48/174/50 46/175/50
f 46/176/51 48/177/51 44/178/51
f 49/179/52 47/180/52 43/181/52
f 47/182/53 49/183/53 50/184/53 48/185/53
f 48/186/54 50/187/54 44/188/54
f 51/189/55 49/190/55 43/191/55
f 49/192/56 51/193/56 52/194/56 50/195/56
f 50/196/57 52/197/57 44/198/57
f 53/199/58 51/200/58 43/201/58
f 51/202/59 53/203/59 54/204/59 52/205/59
f 52/206/60 54/207/60 44/208/60
f 55/209/61 53/210/61 43/211/61
f 53/212/62 55/213/62 56/214/62 54/215/62
f 54/216/63 56/217/63 44/218/63
f 57/219/64 55/220/64 43/221/64
f 55/222/65 57/223/65 58/224/65 56/225/65
f 56/226/66 58/227/66 44/228/66
f 59/229/67 57/230/67 43/231/67
f 57/232/68 59/233/68 60/234/68 58/235/68
f 58/236/69 60/237/69 44/238/69
f 61/239/70 59/240/70 43/241/70
f 59/242/71 61/243/71 62/244/71 60/245/71
f 60/246/72 62/247/72 44/248/72
f 63/249/73 61/250/73 43/251/73
f 61/252/74 63/253/74 64/254/74 62/255/74
f 62/256/75 64/257/75 44/258/75
f 65/259/76 63/260/76 43/261/76
f 63/262/77 65/263/77 66/264/77 64/265/77
f 64/266/78 66/267/78 44/268/78
f 67/269/79 65/270/79 43/271/79
f 65/272/80 67/273/80 68/274/80 66/275/80
f 66/276/81 68/277/81 44/278/81
f 45/279/82 67/280/82 43/281/82
f 67/282/83 45/283/83 46/284/83 68/285/83
f 68/286/84 46/287/84 44/288/84
f 71/289/85 73/290/85 69/291/85
f 74/292/86 73/293/86 71/294/86 72/295/86
f 74/296/87 72/297/87 70/298/87
f 73/299/88 75/300/88 69/301/88
f 76/302/89 75/303/89 73/304/89 74/305/89
f 76/306/90 74/307/90 70/308/90
f 75/309/91 77/310/91 69/311/91
f 78/312/92 77/313/92 75/314/92 76/315/92
f 78/316/93 76/317/93 70/318/93
f 77/319/94 79/320/94 69/321/94
f 80/322/95 79/323/95 77/324/95 78/325/95
f 80/326/96 78/327/96 70/328/96
f 79/329/97 81/330/97 69/331/97
f 82/332/98 81/333/98 79/334/98 80/335/98
f 82/336/99 80/337/99 70/338/99
f 81/339/100 83/340/100 69/341/100
f 84/342/101 83/343/101 81/344/101 82/345/101
f 84/346/102 82/347/102 70/348/102
f 83/349/103 85/350/103 69/351/103
f 86/352/104 85/353/104 83/354/104 84/355/104
f 86/356/105 84/357/105 70/358/105
f 85/359/106 87/360/106 69/361/106
f 88/362/107 87/363/107 85/364/107 86/365/107
f 88/366/108 86/367/108 70/368/108
f 87/369/109 89/370/109 69/371/109
f 90/372/110 89/373/110 87/374/110 88/375/110
f 90/376/111 88/377/111 70/378/111
f 89/379/112 91/380/112 69/381/112
f 92/382/113 91/383/113 89/384/113 90/385/113
f 92/386/114 90/387/114 70/388/114
f 91/389/115 93/390/115 69/391/115
f 94/392/116 93/393/116 91/394/116 92/395/116
f 94/396/117 92/397/117 70/398/117
f 93/399/118 71/400/118 69/401/118
f 72/402/119 71/403/119 93/404/119 94/405/119
f 72/406/120 94/407/120 70/408/120