# Made in Blockbench 5.1.6
mtllib crossbucks_extra.mtl

o cube
v -0.4121770536526509 0.8106226080817358 0.026301875000000002
v 0.47077053920627604 0.3411510452958451 0.026301875000000002
v -0.4708609990008873 0.7002541589743699 0.026301875000000002
v 0.4120865938580397 0.23078259618847918 0.026301875000000002
v -0.4121770536526509 0.8106226080817358 -0.004948125
v 0.47077053920627604 0.3411510452958451 -0.004948125
v -0.4708609990008873 0.7002541589743699 -0.004948125
v 0.4120865938580397 0.23078259618847918 -0.004948125
v -0.47086102299808735 0.3411508936182156 0.026301875000000002
v 0.41208673139703156 0.8106222883401224 0.026301875000000002
v -0.41217719119164264 0.23078291593009254 0.026301875000000002
v 0.4707705632034763 0.7002543106519993 0.026301875000000002
v -0.47086102299808735 0.3411508936182156 -0.011198125
v 0.41208673139703156 0.8106222883401224 -0.011198125
v -0.41217719119164264 0.23078291593009254 -0.011198125
v 0.4707705632034763 0.7002543106519993 -0.011198125
v 0.062454751455787674 0.5399073502053403 0.010676875
v 0.09370492415754347 0.5399068491386566 0.010676875
v 0.062454802231349596 0.5086568840838579 0.010676875
v 0.0937047165105865 0.5086572282791465 0.010676875
v 0.062454751455787674 0.5399073502053403 -0.020573125
v 0.09370492415754347 0.5399068491386566 -0.020573125
v 0.062454802231349596 0.5086568840838579 -0.020573125
v 0.0937047165105865 0.5086572282791465 -0.020573125
v -0.09379533678543439 0.539907319752842 0.010676875
v -0.0625451640836787 0.5399068186861583 0.010676875
v -0.09379528600987252 0.5086568536313596 0.010676875
v -0.06254537173063564 0.5086571978266481 0.010676875
v -0.09379533678543439 0.539907319752842 -0.020573125
v -0.0625451640836787 0.5399068186861583 -0.020573125
v -0.09379528600987252 0.5086568536313596 -0.020573125
v -0.06254537173063564 0.5086571978266481 -0.020573125
v -0.015670405403209464 0.589906823379667 0.010676875
v 0.015579508876027437 0.5899071675749556 0.010676875
v -0.015670061207920832 0.5586569091004302 0.010676875
v 0.015579853071316097 0.5586572532957188 0.010676875
v -0.015670405403209464 0.589906823379667 -0.020573125
v 0.015579508876027437 0.5899071675749556 -0.020573125
v -0.015670061207920832 0.5586569091004302 -0.020573125
v 0.015579853071316097 0.5586572532957188 -0.020573125
v -0.015670470190493196 0.48365692209112976 0.010676875
v 0.01557999593098923 0.48365697286669157 0.010676875
v -0.015670125995204606 0.4524070078118928 0.010676875
v 0.015579788284032309 0.45240735200718135 0.010676875
v -0.015670470190493196 0.48365692209112976 -0.020573125
v 0.01557999593098923 0.48365697286669157 -0.020573125
v -0.015670125995204606 0.4524070078118928 -0.020573125
v 0.015579788284032309 0.45240735200718135 -0.020573125
v 0.0010446678371815732 0.326547759447772 0.026301875000000002
v 0.370770035726339 0.1286510522392061 0.026301875000000002
v -0.05697990102529617 0.2176896678084509 0.026301875000000002
v 0.3120860903781027 0.018282603131840186 0.026301875000000002
v 0.0010446678371815732 0.326547759447772 -0.004948125
v 0.370770035726339 0.1286510522392061 -0.004948125
v -0.05697990102529617 0.2176896678084509 -0.004948125
v 0.3120860903781027 0.018282603131840186 -0.004948125
v 0.06245416843442758 0.2711572814501676 0.010676875
v 0.09370463455591 0.27115733222572946 0.010676875
v 0.062454512629716165 0.2399073671709307 0.010676875
v 0.09370413348922634 0.2399071595239738 0.010676875
v 0.06245416843442758 0.2711572814501676 -0.020573125
v 0.09370463455591 0.27115733222572946 -0.020573125
v 0.062454512629716165 0.2399073671709307 -0.020573125
v 0.09370413348922634 0.2399071595239738 -0.020573125
v -0.015670398429445356 0.3149074856638453 0.010676875
v 0.015579222430064842 0.3149072780168883 0.010676875
v -0.01567034765388349 0.28365701954236294 0.010676875
v 0.015579566625353425 0.2836573637376514 0.010676875
v -0.015670398429445356 0.3149074856638453 -0.020573125
v 0.015579222430064842 0.3149072780168883 -0.020573125
v -0.01567034765388349 0.28365701954236294 -0.020573125
v 0.015579566625353425 0.2836573637376514 -0.020573125
v -0.37086133050953085 0.12865157494043195 0.026301875000000002
v 0.0010446678371815732 0.326547759447772 0.026301875000000002
v -0.3121772402805674 0.01828275199033661 0.026301875000000002
v 0.056888719448093865 0.21768971967345907 0.026301875000000002
v -0.37086133050953085 0.12865157494043195 -0.004948125
v 0.0010446678371815732 0.326547759447772 -0.004948125
v -0.3121772402805674 0.01828275199033661 -0.004948125
v 0.056888719448093865 0.21768971967345907 -0.004948125
v -0.09379591980679455 0.2711572509976693 0.010676875
v -0.0625454536853121 0.27115730177323105 0.010676875
v -0.09379557561150592 0.23990733671843234 0.010676875
v -0.06254566133226905 0.23990768091372094 0.010676875
v -0.09379591980679455 0.2711572509976693 -0.020573125
v -0.0625454536853121 0.27115730177323105 -0.020573125
v -0.09379557561150592 0.23990733671843234 -0.020573125
v -0.06254566133226905 0.23990768091372094 -0.020573125
v -0.015670507680949373 0.2274073052065103 0.010676875
v 0.015579406598287528 0.2274076494017989 0.010676875
v -0.01567016348566081 0.19615739092727344 0.010676875
v 0.015579457373849352 0.19615718328031642 0.010676875
v -0.015670507680949373 0.2274073052065103 -0.020573125
v 0.015579406598287528 0.2274076494017989 -0.020573125
v -0.01567016348566081 0.19615739092727344 -0.020573125
v 0.015579457373849352 0.19615718328031642 -0.020573125
vt 0.5 0.9375
vt 0.5 1
vt 0 1
vt 0 0.9375
vt 0.5 0.84375
vt 0.5 0.90625
vt 0 0.90625
vt 0 0.84375
vt 0.125 0.03125
vt 0.125 0.53125
vt 0.09375 0.53125
vt 0.09375 0.03125
vt 0.1875 0.03125
vt 0.1875 0.53125
vt 0.15625 0.53125
vt 0.15625 0.03125
vt 0.5625 0.9375
vt 0.5625 1
vt 0.53125 1
vt 0.53125 0.9375
vt 0.5625 0.84375
vt 0.5625 0.90625
vt 0.53125 0.90625
vt 0.53125 0.84375
vt 0.5 0.75
vt 0.5 0.8125
vt 0 0.8125
vt 0 0.75
vt 0 0.21875
vt 0.0625 0.21875
vt 0.0625 0.71875
vt 0 0.71875
vt 0.25 0.03125
vt 0.25 0.53125
vt 0.21875 0.53125
vt 0.21875 0.03125
vt 0.28125 0.53125
vt 0.28125 0.03125
vt 0.3125 0.03125
vt 0.3125 0.53125
vt 0.625 0.9375
vt 0.625 1
vt 0.59375 1
vt 0.59375 0.9375
vt 0.5625 0.75
vt 0.5625 0.8125
vt 0.53125 0.8125
vt 0.53125 0.75
vt 0.6875 0.78125
vt 0.6875 0.8125
vt 0.65625 0.8125
vt 0.65625 0.78125
vt 0.6875 0.59375
vt 0.71875 0.59375
vt 0.71875 0.625
vt 0.6875 0.625
vt 0.75 0.78125
vt 0.75 0.8125
vt 0.71875 0.8125
vt 0.71875 0.78125
vt 0.71875 0.75
vt 0.71875 0.71875
vt 0.75 0.71875
vt 0.75 0.75
vt 0.625 0.28125
vt 0.625 0.3125
vt 0.59375 0.3125
vt 0.59375 0.28125
vt 0.71875 0.34375
vt 0.71875 0.375
vt 0.6875 0.375
vt 0.6875 0.34375
vt 0.4375 0.28125
vt 0.4375 0.3125
vt 0.40625 0.3125
vt 0.40625 0.28125
vt 0.6875 0.53125
vt 0.71875 0.53125
vt 0.71875 0.5625
vt 0.6875 0.5625
vt 0.75 0.65625
vt 0.75 0.6875
vt 0.71875 0.6875
vt 0.71875 0.65625
vt 0.71875 0.3125
vt 0.71875 0.28125
vt 0.75 0.28125
vt 0.75 0.3125
vt 0.6875 0.28125
vt 0.6875 0.3125
vt 0.65625 0.3125
vt 0.65625 0.28125
vt 0.75 0.96875
vt 0.75 1
vt 0.71875 1
vt 0.71875 0.96875
vt 0.5 0.28125
vt 0.5 0.3125
vt 0.46875 0.3125
vt 0.46875 0.28125
vt 0.6875 0.46875
vt 0.71875 0.46875
vt 0.71875 0.5
vt 0.6875 0.5
vt 0.78125 0.59375
vt 0.78125 0.625
vt 0.75 0.625
vt 0.75 0.59375
vt 0.40625 0.25
vt 0.40625 0.21875
vt 0.4375 0.21875
vt 0.4375 0.25
vt 0.75 0.90625
vt 0.75 0.9375
vt 0.71875 0.9375
vt 0.71875 0.90625
vt 0.75 0.84375
vt 0.75 0.875
vt 0.71875 0.875
vt 0.71875 0.84375
vt 0.5625 0.28125
vt 0.5625 0.3125
vt 0.53125 0.3125
vt 0.53125 0.28125
vt 0.6875 0.40625
vt 0.71875 0.40625
vt 0.71875 0.4375
vt 0.6875 0.4375
vt 0.78125 0.53125
vt 0.78125 0.5625
vt 0.75 0.5625
vt 0.75 0.53125
vt 0.46875 0.25
vt 0.46875 0.21875
vt 0.5 0.21875
vt 0.5 0.25
vt 0.78125 0.46875
vt 0.78125 0.5
vt 0.75 0.5
vt 0.75 0.46875
vt 0.5625 0.21875
vt 0.5625 0.25
vt 0.53125 0.25
vt 0.53125 0.21875
vt 0.3125 0.65625
vt 0.3125 0.71875
vt 0.09375 0.71875
vt 0.09375 0.65625
vt 0.375 0.5625
vt 0.375 0.625
vt 0.15625 0.625
vt 0.15625 0.5625
vt 0.375 0.25
vt 0.375 0.46875
vt 0.34375 0.46875
vt 0.34375 0.25
vt 0.53125 0.40625
vt 0.53125 0.625
vt 0.5 0.625
vt 0.5 0.40625
vt 0.625 0.84375
vt 0.625 0.90625
vt 0.59375 0.90625
vt 0.59375 0.84375
vt 0.625 0.75
vt 0.625 0.8125
vt 0.59375 0.8125
vt 0.59375 0.75
vt 0.78125 0.40625
vt 0.78125 0.4375
vt 0.75 0.4375
vt 0.75 0.40625
vt 0.59375 0.21875
vt 0.625 0.21875
vt 0.625 0.25
vt 0.59375 0.25
vt 0.8125 0.28125
vt 0.8125 0.3125
vt 0.78125 0.3125
vt 0.78125 0.28125
vt 0 0.1875
vt 0 0.15625
vt 0.03125 0.15625
vt 0.03125 0.1875
vt 0.84375 0.59375
vt 0.84375 0.625
vt 0.8125 0.625
vt 0.8125 0.59375
vt 0.8125 0.65625
vt 0.8125 0.6875
vt 0.78125 0.6875
vt 0.78125 0.65625
vt 0.78125 0.34375
vt 0.78125 0.375
vt 0.75 0.375
vt 0.75 0.34375
vt 0.65625 0.21875
vt 0.6875 0.21875
vt 0.6875 0.25
vt 0.65625 0.25
vt 0.4375 0.15625
vt 0.4375 0.1875
vt 0.40625 0.1875
vt 0.40625 0.15625
vt 0.8125 0.5625
vt 0.8125 0.53125
vt 0.84375 0.53125
vt 0.84375 0.5625
vt 0.5 0.15625
vt 0.5 0.1875
vt 0.46875 0.1875
vt 0.46875 0.15625
vt 0.84375 0.46875
vt 0.84375 0.5
vt 0.8125 0.5
vt 0.8125 0.46875
vt 0.6875 0.65625
vt 0.6875 0.71875
vt 0.46875 0.71875
vt 0.46875 0.65625
vt 0.40625 0.40625
vt 0.46875 0.40625
vt 0.46875 0.625
vt 0.40625 0.625
vt 0.59375 0.40625
vt 0.59375 0.625
vt 0.5625 0.625
vt 0.5625 0.40625
vt 0.625 0.625
vt 0.625 0.40625
vt 0.65625 0.40625
vt 0.65625 0.625
vt 0.6875 0.84375
vt 0.6875 0.90625
vt 0.65625 0.90625
vt 0.65625 0.84375
vt 0.6875 0.9375
vt 0.6875 1
vt 0.65625 1
vt 0.65625 0.9375
vt 0.75 0.21875
vt 0.75 0.25
vt 0.71875 0.25
vt 0.71875 0.21875
vt 0.78125 0.96875
vt 0.8125 0.96875
vt 0.8125 1
vt 0.78125 1
vt 0.5625 0.15625
vt 0.5625 0.1875
vt 0.53125 0.1875
vt 0.53125 0.15625
vt 0.8125 0.4375
vt 0.8125 0.40625
vt 0.84375 0.40625
vt 0.84375 0.4375
vt 0.8125 0.78125
vt 0.8125 0.8125
vt 0.78125 0.8125
vt 0.78125 0.78125
vt 0.8125 0.71875
vt 0.8125 0.75
vt 0.78125 0.75
vt 0.78125 0.71875
vt 0.8125 0.90625
vt 0.8125 0.9375
vt 0.78125 0.9375
vt 0.78125 0.90625
vt 0.78125 0.84375
vt 0.8125 0.84375
vt 0.8125 0.875
vt 0.78125 0.875
vt 0.8125 0.21875
vt 0.8125 0.25
vt 0.78125 0.25
vt 0.78125 0.21875
vt 0.59375 0.1875
vt 0.59375 0.15625
vt 0.625 0.15625
vt 0.625 0.1875
vt 0.84375 0.34375
vt 0.84375 0.375
vt 0.8125 0.375
vt 0.8125 0.34375
vt 0.375 0.1875
vt 0.375 0.21875
vt 0.34375 0.21875
vt 0.34375 0.1875
vn 0 0 1
vn 0 0 -1
vn 0.4694715627858907 0.882947592858927 0
vn -0.46947156278589075 -0.882947592858927 0
vn -0.8829475928589268 0.4694715627858911 0
vn 0.8829475928589272 -0.46947156278589064 0
vn 0 0 1
vn 0 0 -1
vn -0.4694713648040197 0.8829476981277267 0
vn 0.4694713648040197 -0.8829476981277267 0
vn -0.8829471381586596 -0.4694724179517187 0
vn 0.8829471381586594 0.4694724179517189 0
vn 0 0 1
vn 0 0 -1
vn 0.000016034045264896722 0.9999999998714548 0
vn 0.000011014279447540415 -0.9999999999393429 0
vn -0.9999999999986802 -0.0000016247937462509482 0
vn 0.9999999999779234 -0.000006644783240894713 0
vn 0 0 1
vn 0 0 -1
vn 0.000016034045264896777 0.9999999998714548 0
vn 0.000011014279443987696 -0.9999999999393429 0
vn -0.9999999999986802 -0.0000016247937444746178 0
vn 0.9999999999779234 -0.0000066447832395624055 0
vn 0 0 1
vn 0 0 -1
vn -0.000011014279447540415 0.9999999999393429 0
vn 0.000011014279447540405 -0.9999999999393429 0
vn -0.9999999999393429 -0.000011014279448428615 0
vn 0.9999999999393429 0.000011014279449316797 0
vn 0 0 1
vn 0 0 -1
vn -0.0000016247937426982868 0.9999999999986802 0
vn 0.000011014279445764048 -0.9999999999393429 0
vn -0.9999999999393429 -0.000011014279447096305 0
vn 0.9999999999779234 -0.000006644783239118311 0
vn 0 0 1
vn 0 0 -1
vn 0.47190555537265844 0.881649106395749 0
vn -0.4753545611561355 -0.8797943175470377 0
vn -0.8824642652582435 0.4703794431543842 0
vn 0.8829475928589272 -0.4694715627858903 0
vn 0 0 1
vn 0 0 -1
vn -0.0000016247937444746178 0.9999999999986802 0
vn -0.000006644783238674227 -0.9999999999779234 0
vn -0.9999999999393429 -0.00001101427944687428 0
vn 0.9999999998714548 -0.000016034045263564526 0
vn 0 0 1
vn 0 0 -1
vn 0.000006644783242226978 0.9999999999779234 0
vn 0.000011014279442211326 -0.9999999999393429 0
vn -0.9999999999986802 -0.0000016247937444746208 0
vn 0.9999999999393429 0.00001101427944687428 0
vn 0 0 1
vn 0 0 -1
vn -0.46974959724908744 0.8827997031514682 0
vn 0.4753544137636895 -0.8797943971834439 0
vn -0.8829477715821412 -0.4694712266562575 0
vn 0.8897530174117364 0.45644229427903615 0
vn 0 0 1
vn 0 0 -1
vn -0.000001624793740921955 0.9999999999986802 0
vn 0.000011014279447540425 -0.9999999999393429 0
vn -0.9999999999393429 -0.000011014279448428576 0
vn 0.9999999999779234 -0.000006644783240006524 0
vn 0 0 1
vn 0 0 -1
vn -0.000011014279446652235 0.9999999999393429 0
vn -0.000006644783242226986 -0.9999999999779234 0
vn -0.9999999999393429 -0.000011014279446208154 0
vn 0.9999999999986802 0.0000016247937431423671 0
usemtl m_24045301-0e41-3cf2-88ba-fc7b3bfa36d0
f 4/1/1 2/2/1 1/3/1 3/4/1
f 7/5/2 5/6/2 6/7/2 8/8/2
f 1/9/3 2/10/3 6/11/3 5/12/3
f 4/13/4 3/14/4 7/15/4 8/16/4
f 3/17/5 1/18/5 5/19/5 7/20/5
f 8/21/6 6/22/6 2/23/6 4/24/6
f 12/25/7 10/26/7 9/27/7 11/28/7
f 15/29/8 13/30/8 14/31/8 16/32/8
f 9/33/9 10/34/9 14/35/9 13/36/9
f 12/37/10 11/38/10 15/39/10 16/40/10
f 11/41/11 9/42/11 13/43/11 15/44/11
f 16/45/12 14/46/12 10/47/12 12/48/12
f 20/49/13 18/50/13 17/51/13 19/52/13
f 23/53/14 21/54/14 22/55/14 24/56/14
f 17/57/15 18/58/15 22/59/15 21/60/15
f 20/61/16 19/62/16 23/63/16 24/64/16
f 19/65/17 17/66/17 21/67/17 23/68/17
f 24/69/18 22/70/18 18/71/18 20/72/18
f 28/73/19 26/74/19 25/75/19 27/76/19
f 31/77/20 29/78/20 30/79/20 32/80/20
f 25/81/21 26/82/21 30/83/21 29/84/21
f 28/85/22 27/86/22 31/87/22 32/88/22
f 27/89/23 25/90/23 29/91/23 31/92/23
f 32/93/24 30/94/24 26/95/24 28/96/24
f 36/97/25 34/98/25 33/99/25 35/100/25
f 39/101/26 37/102/26 38/103/26 40/104/26
f 33/105/27 34/106/27 38/107/27 37/108/27
f 36/109/28 35/110/28 39/111/28 40/112/28
f 35/113/29 33/114/29 37/115/29 39/116/29
f 40/117/30 38/118/30 34/119/30 36/120/30
f 44/121/31 42/122/31 41/123/31 43/124/31
f 47/125/32 45/126/32 46/127/32 48/128/32
f 41/129/33 42/130/33 46/131/33 45/132/33
f 44/133/34 43/134/34 47/135/34 48/136/34
f 43/137/35 41/138/35 45/139/35 47/140/35
f 48/141/36 46/142/36 42/143/36 44/144/36
f 52/145/37 50/146/37 49/147/37 51/148/37
f 55/149/38 53/150/38 54/151/38 56/152/38
f 49/153/39 50/154/39 54/155/39 53/156/39
f 52/157/40 51/158/40 55/159/40 56/160/40
f 51/161/41 49/162/41 53/163/41 55/164/41
f 56/165/42 54/166/42 50/167/42 52/168/42
f 60/169/43 58/170/43 57/171/43 59/172/43
f 63/173/44 61/174/44 62/175/44 64/176/44
f 57/177/45 58/178/45 62/179/45 61/180/45
f 60/181/46 59/182/46 63/183/46 64/184/46
f 59/185/47 57/186/47 61/187/47 63/188/47
f 64/189/48 62/190/48 58/191/48 60/192/48
f 68/193/49 66/194/49 65/195/49 67/196/49
f 71/197/50 69/198/50 70/199/50 72/200/50
f 65/201/51 66/202/51 70/203/51 69/204/51
f 68/205/52 67/206/52 71/207/52 72/208/52
f 67/209/53 65/210/53 69/211/53 71/212/53
f 72/213/54 70/214/54 66/215/54 68/216/54
f 76/217/55 74/218/55 73/219/55 75/220/55
f 79/221/56 77/222/56 78/223/56 80/224/56
f 73/225/57 74/226/57 78/227/57 77/228/57
f 76/229/58 75/230/58 79/231/58 80/232/58
f 75/233/59 73/234/59 77/235/59 79/236/59
f 80/237/60 78/238/60 74/239/60 76/240/60
f 84/241/61 82/242/61 81/243/61 83/244/61
f 87/245/62 85/246/62 86/247/62 88/248/62
f 81/249/63 82/250/63 86/251/63 85/252/63
f 84/253/64 83/254/64 87/255/64 88/256/64
f 83/257/65 81/258/65 85/259/65 87/260/65
f 88/261/66 86/262/66 82/263/66 84/264/66
f 92/265/67 90/266/67 89/267/67 91/268/67
f 95/269/68 93/270/68 94/271/68 96/272/68
f 89/273/69 90/274/69 94/275/69 93/276/69
f 92/277/70 91/278/70 95/279/70 96/280/70
f 91/281/71 89/282/71 93/283/71 95/284/71
f 96/285/72 94/286/72 90/287/72 92/288/72