# Blender 5.2.2 LTS
# www.blender.org
mtllib 2l_signal_modern_pole.mtl
o tube.001
v -0.062500 0.999500 0.093625
v -0.068631 1.006936 0.096750
v 0.045304 1.124500 -0.000125
v 0.045304 1.124500 0.031125
v 0.036093 1.146738 -0.000125
v 0.036093 1.146738 0.031125
v 0.109375 1.188571 -0.000125
v 0.109375 1.188571 0.031125
v 0.087137 1.197782 -0.000125
v 0.087137 1.197782 0.031125
v 0.109375 1.279179 -0.000125
v 0.109375 1.279179 0.031125
v 0.087137 1.269968 -0.000125
v 0.087137 1.269968 0.031125
v 0.045304 1.343250 -0.000125
v 0.045304 1.343250 0.031125
v 0.036093 1.321012 -0.000125
v 0.036093 1.321012 0.031125
v -0.045304 1.343250 -0.000125
v -0.045304 1.343250 0.031125
v -0.036093 1.321012 -0.000125
v -0.036093 1.321012 0.031125
v -0.109375 1.279179 -0.000125
v -0.109375 1.279179 0.031125
v -0.087137 1.269968 -0.000125
v -0.087137 1.269968 0.031125
v -0.109375 1.188571 -0.000125
v -0.109375 1.188571 0.031125
v -0.087137 1.197782 -0.000125
v -0.087137 1.197782 0.031125
v -0.045304 1.124500 -0.000125
v -0.045304 1.124500 0.031125
v -0.036093 1.146738 -0.000125
v -0.036093 1.146738 0.031125
v 0.045304 1.562000 -0.000125
v 0.045304 1.562000 0.031125
v 0.036093 1.584238 -0.000125
v 0.036093 1.584238 0.031125
v 0.109375 1.626071 -0.000125
v 0.109375 1.626071 0.031125
v 0.087137 1.635282 -0.000125
v 0.087137 1.635282 0.031125
v 0.109375 1.716679 -0.000125
v 0.109375 1.716679 0.031125
v 0.087137 1.707468 -0.000125
v 0.087137 1.707468 0.031125
v 0.045304 1.780750 -0.000125
v 0.045304 1.780750 0.031125
v 0.036093 1.758512 -0.000125
v 0.036093 1.758512 0.031125
v -0.045304 1.780750 -0.000125
v -0.045304 1.780750 0.031125
v -0.036093 1.758512 -0.000125
v -0.036093 1.758512 0.031125
v -0.109375 1.716679 -0.000125
v -0.109375 1.716679 0.031125
v -0.087137 1.707468 -0.000125
v -0.087137 1.707468 0.031125
v -0.109375 1.626071 -0.000125
v -0.109375 1.626071 0.031125
v -0.087137 1.635282 -0.000125
v -0.087137 1.635282 0.031125
v -0.045304 1.562000 -0.000125
v -0.045304 1.562000 0.031125
v -0.036093 1.584238 -0.000125
v -0.036093 1.584238 0.031125
v 0.000000 1.233875 0.093625
v 0.000000 1.233875 0.187375
v 0.045304 1.124500 0.093625
v 0.045304 1.124500 0.187375
v 0.109375 1.188571 0.093625
v 0.109375 1.188571 0.187375
v 0.109375 1.279179 0.093625
v 0.109375 1.279179 0.187375
v 0.045304 1.343250 0.093625
v 0.045304 1.343250 0.187375
v -0.045304 1.343250 0.093625
v -0.045304 1.343250 0.187375
v -0.109375 1.279179 0.093625
v -0.109375 1.279179 0.187375
v -0.109375 1.188571 0.093625
v -0.109375 1.188571 0.187375
v -0.045304 1.124500 0.093625
v -0.045304 1.124500 0.187375
v 0.000000 1.671375 0.093625
v 0.000000 1.671375 0.187375
v 0.045304 1.562000 0.093625
v 0.045304 1.562000 0.187375
v 0.109375 1.626071 0.093625
v 0.109375 1.626071 0.187375
v 0.109375 1.716679 0.093625
v 0.109375 1.716679 0.187375
v 0.045304 1.780750 0.093625
v 0.045304 1.780750 0.187375
v -0.045304 1.780750 0.093625
v -0.045304 1.780750 0.187375
v -0.109375 1.716679 0.093625
v -0.109375 1.716679 0.187375
v -0.109375 1.626071 0.093625
v -0.109375 1.626071 0.187375
v -0.045304 1.562000 0.093625
v -0.045304 1.562000 0.187375
v 0.156250 1.880750 0.171750
v 0.156250 1.880750 0.093625
v 0.156250 1.818250 0.171750
v 0.156250 1.818250 0.093625
v -0.156250 1.880750 0.171750
v -0.156250 1.880750 0.093625
v -0.156250 1.818250 0.171750
v -0.156250 1.818250 0.093625
v 0.125000 0.905750 0.062375
v 0.125000 0.905750 0.031125
v 0.125000 0.655750 0.062375
v 0.125000 0.655750 0.031125
v -0.125000 0.905750 0.062375
v -0.125000 0.905750 0.031125
v -0.125000 0.655750 0.062375
v -0.125000 0.655750 0.031125
v 0.125000 1.358875 0.031125
v 0.125000 1.358875 0.024875
v 0.125000 1.171375 0.031125
v 0.125000 1.171375 0.024875
v -0.125000 1.358875 0.031125
v -0.125000 1.358875 0.024875
v -0.125000 1.171375 0.031125
v -0.125000 1.171375 0.024875
v 0.062500 1.374500 0.078000
v 0.062500 1.374500 -0.218875
v 0.062500 1.343250 0.078000
v 0.062500 1.343250 -0.218875
v -0.062500 1.374500 0.078000
v -0.062500 1.374500 -0.218875
v -0.062500 1.343250 0.078000
v -0.062500 1.343250 -0.218875
v 0.105807 1.356562 0.062375
v 0.105807 1.356562 -0.203250
v 0.093848 1.327691 0.062375
v 0.093848 1.327691 -0.203250
v 0.062500 1.374500 0.062375
v 0.062500 1.374500 -0.203250
v 0.050541 1.345629 0.062375
v 0.050541 1.345629 -0.203250
v 0.122687 1.339682 0.078000
v 0.122687 1.339682 -0.187625
v 0.100589 1.317584 0.078000
v 0.100589 1.317584 -0.187625
v 0.105807 1.356562 0.078000
v 0.105807 1.356562 -0.187625
v 0.083709 1.334464 0.078000
v 0.083709 1.334464 -0.187625
v 0.140625 1.296375 0.078000
v 0.140625 1.296375 -0.156375
v 0.111754 1.284416 0.078000
v 0.111754 1.284416 -0.156375
v 0.122687 1.339682 0.078000
v 0.122687 1.339682 -0.156375
v 0.093816 1.327723 0.078000
v 0.093816 1.327723 -0.156375
v 0.109375 1.296375 0.062375
v 0.109375 1.296375 -0.125125
v 0.140625 1.296375 0.062375
v 0.140625 1.296375 -0.125125
v 0.109375 1.233875 0.062375
v 0.109375 1.233875 -0.125125
v 0.140625 1.233875 0.062375
v 0.140625 1.233875 -0.125125
v 0.109375 1.233875 0.078000
v 0.109375 1.233875 -0.078250
v 0.140625 1.233875 0.078000
v 0.140625 1.233875 -0.078250
v 0.109375 1.202625 0.078000
v 0.109375 1.202625 -0.078250
v 0.140625 1.202625 0.078000
v 0.140625 1.202625 -0.078250
v -0.062500 1.374500 0.062375
v -0.062500 1.374500 -0.203250
v -0.050541 1.345629 0.062375
v -0.050541 1.345629 -0.203250
v -0.105807 1.356562 0.062375
v -0.105807 1.356562 -0.203250
v -0.093848 1.327691 0.062375
v -0.093848 1.327691 -0.203250
v -0.109375 1.202625 0.078000
v -0.109375 1.202625 -0.078250
v -0.140625 1.202625 0.078000
v -0.140625 1.202625 -0.078250
v -0.109375 1.233875 0.078000
v -0.109375 1.233875 -0.078250
v -0.140625 1.233875 0.078000
v -0.140625 1.233875 -0.078250
v -0.109375 1.233875 0.078000
v -0.109375 1.233875 -0.125125
v -0.140625 1.233875 0.078000
v -0.140625 1.233875 -0.125125
v -0.109375 1.296375 0.078000
v -0.109375 1.296375 -0.125125
v -0.140625 1.296375 0.078000
v -0.140625 1.296375 -0.125125
v -0.122687 1.339682 0.078000
v -0.122687 1.339682 -0.156375
v -0.093816 1.327723 0.078000
v -0.093816 1.327723 -0.156375
v -0.140625 1.296375 0.078000
v -0.140625 1.296375 -0.156375
v -0.111754 1.284416 0.078000
v -0.111754 1.284416 -0.156375
v -0.105807 1.356562 0.078000
v -0.105807 1.356562 -0.187625
v -0.083709 1.334464 0.078000
v -0.083709 1.334464 -0.187625
v -0.122687 1.339682 0.078000
v -0.122687 1.339682 -0.187625
v -0.100589 1.317584 0.078000
v -0.100589 1.317584 -0.187625
v -0.317287 1.504287 0.103000
v -0.317287 1.504287 0.021750
v -0.254787 1.504287 0.103000
v -0.254787 1.504287 0.021750
v -0.317287 1.223037 0.103000
v -0.317287 1.223037 0.021750
v -0.254787 1.223037 0.103000
v -0.254787 1.223037 0.021750
v -0.019057 0.998299 0.096750
v -0.019057 0.998299 0.021750
v -0.031250 0.937000 0.096750
v -0.031250 0.937000 0.021750
v -0.080356 1.010493 0.096750
v -0.080356 1.010493 0.021750
v -0.092549 0.949194 0.096750
v -0.092549 0.949194 0.021750
v 0.031250 0.999500 0.099875
v 0.031250 0.999500 0.021750
v 0.031250 0.937000 0.099875
v 0.031250 0.937000 0.021750
v -0.031250 0.999500 0.099875
v -0.031250 0.999500 0.021750
v -0.031250 0.937000 0.099875
v -0.031250 0.937000 0.021750
v -0.068631 1.006936 0.021750
v -0.092549 0.949193 0.096750
v -0.092549 0.949193 0.021750
v -0.126374 1.030853 0.096750
v -0.126374 1.030853 0.021750
v -0.150292 0.973111 0.096750
v -0.150292 0.973111 0.021750
v -0.115568 1.025077 0.096750
v -0.115568 1.025077 0.021750
v -0.150291 0.973111 0.096750
v -0.150291 0.973111 0.021750
v -0.167535 1.059801 0.096750
v -0.167535 1.059801 0.021750
v -0.202258 1.007834 0.096750
v -0.202258 1.007834 0.021750
v -0.158064 1.052028 0.096750
v -0.158064 1.052028 0.021750
v -0.202259 1.007834 0.096750
v -0.202259 1.007834 0.021750
v -0.202259 1.096222 0.096750
v -0.202259 1.096222 0.021750
v -0.246452 1.052028 0.096750
v -0.246452 1.052028 0.021750
v -0.194486 1.086751 0.096750
v -0.194486 1.086751 0.021750
v -0.246452 1.052028 0.096750
v -0.246452 1.052028 0.021750
v -0.229209 1.138718 0.096750
v -0.229209 1.138718 0.021750
v -0.281176 1.103995 0.096750
v -0.281176 1.103995 0.021750
v -0.223433 1.127913 0.096750
v -0.223433 1.127913 0.021750
v -0.281176 1.103995 0.096750
v -0.281176 1.103995 0.021750
v -0.247351 1.185656 0.096750
v -0.247351 1.185656 0.021750
v -0.305093 1.161738 0.096750
v -0.305093 1.161738 0.021750
v -0.243794 1.173931 0.096750
v -0.243794 1.173931 0.021750
v -0.305093 1.161738 0.096750
v -0.305093 1.161738 0.021750
v -0.255987 1.235229 0.096750
v -0.255987 1.235229 0.021750
v -0.317286 1.223036 0.096750
v -0.317286 1.223036 0.021750
v 0.317287 1.223037 0.103000
v 0.317287 1.223037 0.021750
v 0.254787 1.223037 0.103000
v 0.254787 1.223037 0.021750
v 0.317287 1.504287 0.103000
v 0.317287 1.504287 0.021750
v 0.254787 1.504287 0.103000
v 0.254787 1.504287 0.021750
v 0.255987 1.235229 0.096750
v 0.255987 1.235229 0.021750
v 0.317286 1.223036 0.096750
v 0.317286 1.223036 0.021750
v 0.243794 1.173931 0.096750
v 0.243794 1.173931 0.021750
v 0.305093 1.161738 0.096750
v 0.305093 1.161738 0.021750
v 0.247351 1.185656 0.096750
v 0.247351 1.185656 0.021750
v 0.305093 1.161738 0.096750
v 0.305093 1.161738 0.021750
v 0.223433 1.127913 0.096750
v 0.223433 1.127913 0.021750
v 0.281176 1.103995 0.096750
v 0.281176 1.103995 0.021750
v 0.229209 1.138718 0.096750
v 0.229209 1.138718 0.021750
v 0.281176 1.103995 0.096750
v 0.281176 1.103995 0.021750
v 0.194486 1.086751 0.096750
v 0.194486 1.086751 0.021750
v 0.246452 1.052028 0.096750
v 0.246452 1.052028 0.021750
v 0.202259 1.096222 0.096750
v 0.202259 1.096222 0.021750
v 0.246452 1.052028 0.096750
v 0.246452 1.052028 0.021750
v 0.158064 1.052028 0.096750
v 0.158064 1.052028 0.021750
v 0.202259 1.007834 0.096750
v 0.202259 1.007834 0.021750
v 0.167535 1.059801 0.096750
v 0.167535 1.059801 0.021750
v 0.202258 1.007834 0.096750
v 0.202258 1.007834 0.021750
v 0.115568 1.025077 0.096750
v 0.115568 1.025077 0.021750
v 0.150291 0.973111 0.096750
v 0.150291 0.973111 0.021750
v 0.126374 1.030853 0.096750
v 0.126374 1.030853 0.021750
v 0.150292 0.973111 0.096750
v 0.150292 0.973111 0.021750
v 0.068631 1.006936 0.096750
v 0.068631 1.006936 0.021750
v 0.092549 0.949193 0.096750
v 0.092549 0.949193 0.021750
v 0.080356 1.010493 0.096750
v 0.080356 1.010493 0.021750
v 0.092549 0.949194 0.096750
v 0.092549 0.949194 0.021750
v 0.019057 0.998299 0.096750
v 0.019057 0.998299 0.021750
v 0.031250 0.937000 0.096750
v 0.031250 0.937000 0.021750
v 0.171875 1.062000 0.093625
v 0.171875 1.062000 0.031125
v 0.171875 0.999500 0.093625
v 0.171875 0.999500 0.031125
v -0.171875 1.062000 0.093625
v -0.171875 1.062000 0.031125
v -0.171875 0.999500 0.093625
v -0.171875 0.999500 0.031125
v 0.218750 1.124500 0.093625
v 0.218750 1.124500 0.031125
v 0.218750 1.062000 0.093625
v 0.218750 1.062000 0.031125
v -0.218750 1.124500 0.093625
v -0.218750 1.124500 0.031125
v -0.218750 1.062000 0.093625
v -0.218750 1.062000 0.031125
v -0.281250 1.499500 0.093625
v 0.281250 1.499500 0.093625
v 0.281250 1.499500 0.031125
v 0.281250 1.124500 0.093625
v 0.281250 1.124500 0.031125
v -0.281250 1.499500 0.031125
v -0.281250 1.124500 0.093625
v -0.281250 1.124500 0.031125
v -0.254787 1.494713 0.103000
v -0.254787 1.494713 0.021750
v -0.317287 1.494713 0.103000
v -0.317287 1.494713 0.021750
v -0.254787 1.713463 0.103000
v -0.254787 1.713463 0.021750
v -0.317287 1.713463 0.103000
v -0.317287 1.713463 0.021750
v -0.031250 1.999500 0.096750
v -0.031250 1.999500 0.021750
v -0.019057 1.938201 0.096750
v -0.019057 1.938201 0.021750
v -0.092549 1.987306 0.096750
v -0.092549 1.987306 0.021750
v -0.080356 1.926008 0.096750
v -0.080356 1.926008 0.021750
v -0.092549 1.987307 0.096750
v -0.092549 1.987307 0.021750
v -0.068631 1.929564 0.096750
v -0.068631 1.929564 0.021750
v -0.150292 1.963389 0.096750
v -0.150292 1.963389 0.021750
v -0.126374 1.905647 0.096750
v -0.126374 1.905647 0.021750
v -0.150291 1.963389 0.096750
v -0.150291 1.963389 0.021750
v -0.115568 1.911422 0.096750
v -0.115568 1.911422 0.021750
v -0.202258 1.928666 0.096750
v -0.202258 1.928666 0.021750
v -0.167535 1.876699 0.096750
v -0.167535 1.876699 0.021750
v -0.202259 1.928666 0.096750
v -0.202259 1.928666 0.021750
v -0.158064 1.884472 0.096750
v -0.158064 1.884472 0.021750
v -0.246452 1.884472 0.096750
v -0.246452 1.884472 0.021750
v -0.202259 1.840278 0.096750
v -0.202259 1.840278 0.021750
v -0.246452 1.884472 0.096750
v -0.246452 1.884472 0.021750
v -0.194486 1.849749 0.096750
v -0.194486 1.849749 0.021750
v -0.281176 1.832505 0.096750
v -0.281176 1.832505 0.021750
v -0.229209 1.797782 0.096750
v -0.229209 1.797782 0.021750
v -0.281176 1.832505 0.096750
v -0.281176 1.832505 0.021750
v -0.223433 1.808587 0.096750
v -0.223433 1.808587 0.021750
v -0.305093 1.774763 0.096750
v -0.305093 1.774763 0.021750
v -0.247351 1.750844 0.096750
v -0.247351 1.750844 0.021750
v -0.305093 1.774763 0.096750
v -0.305093 1.774763 0.021750
v -0.243794 1.762569 0.096750
v -0.243794 1.762569 0.021750
v -0.317286 1.713464 0.096750
v -0.317286 1.713464 0.021750
v -0.255987 1.701271 0.096750
v -0.255987 1.701271 0.021750
v 0.092549 1.987306 0.096750
v 0.092549 1.987306 0.021750
v 0.080356 1.926008 0.096750
v 0.080356 1.926008 0.021750
v 0.031250 1.999500 0.096750
v 0.031250 1.999500 0.021750
v 0.019057 1.938201 0.096750
v 0.019057 1.938201 0.021750
v 0.150292 1.963389 0.096750
v 0.150292 1.963389 0.021750
v 0.126374 1.905647 0.096750
v 0.126374 1.905647 0.021750
v 0.092549 1.987307 0.096750
v 0.092549 1.987307 0.021750
v 0.068631 1.929564 0.096750
v 0.068631 1.929564 0.021750
v 0.202258 1.928666 0.096750
v 0.202258 1.928666 0.021750
v 0.167535 1.876699 0.096750
v 0.167535 1.876699 0.021750
v 0.150291 1.963389 0.096750
v 0.150291 1.963389 0.021750
v 0.115568 1.911422 0.096750
v 0.115568 1.911422 0.021750
v 0.246452 1.884472 0.096750
v 0.246452 1.884472 0.021750
v 0.202259 1.840278 0.096750
v 0.202259 1.840278 0.021750
v 0.202259 1.928666 0.096750
v 0.202259 1.928666 0.021750
v 0.158064 1.884472 0.096750
v 0.158064 1.884472 0.021750
v 0.281176 1.832505 0.096750
v 0.281176 1.832505 0.021750
v 0.229209 1.797782 0.096750
v 0.229209 1.797782 0.021750
v 0.246452 1.884472 0.096750
v 0.246452 1.884472 0.021750
v 0.194486 1.849749 0.096750
v 0.194486 1.849749 0.021750
v 0.305093 1.774763 0.096750
v 0.305093 1.774763 0.021750
v 0.247351 1.750844 0.096750
v 0.247351 1.750844 0.021750
v 0.281176 1.832505 0.096750
v 0.281176 1.832505 0.021750
v 0.223433 1.808587 0.096750
v 0.223433 1.808587 0.021750
v 0.317286 1.713464 0.096750
v 0.317286 1.713464 0.021750
v 0.255987 1.701271 0.096750
v 0.255987 1.701271 0.021750
v 0.305093 1.774763 0.096750
v 0.305093 1.774763 0.021750
v 0.243794 1.762569 0.096750
v 0.243794 1.762569 0.021750
v 0.254787 1.713463 0.103000
v 0.254787 1.713463 0.021750
v 0.317287 1.713463 0.103000
v 0.317287 1.713463 0.021750
v 0.254787 1.494713 0.103000
v 0.254787 1.494713 0.021750
v 0.317287 1.494713 0.103000
v 0.317287 1.494713 0.021750
v 0.031250 1.999500 0.099875
v 0.031250 1.999500 0.021750
v 0.031250 1.937000 0.099875
v 0.031250 1.937000 0.021750
v -0.031250 1.999500 0.099875
v -0.031250 1.999500 0.021750
v -0.031250 1.937000 0.099875
v -0.031250 1.937000 0.021750
v 0.125000 1.796375 0.031125
v 0.125000 1.796375 0.024875
v 0.125000 1.608875 0.031125
v 0.125000 1.608875 0.024875
v -0.125000 1.796375 0.031125
v -0.125000 1.796375 0.024875
v -0.125000 1.608875 0.031125
v -0.125000 1.608875 0.024875
v 0.062500 1.812000 0.078000
v 0.062500 1.812000 -0.218875
v 0.062500 1.780750 0.078000
v 0.062500 1.780750 -0.218875
v -0.062500 1.812000 0.078000
v -0.062500 1.812000 -0.218875
v -0.062500 1.780750 0.078000
v -0.062500 1.780750 -0.218875
v 0.105807 1.794062 0.062375
v 0.105807 1.794062 -0.203250
v 0.093848 1.765191 0.062375
v 0.093848 1.765191 -0.203250
v 0.062500 1.812000 0.062375
v 0.062500 1.812000 -0.203250
v 0.050541 1.783129 0.062375
v 0.050541 1.783129 -0.203250
v 0.122687 1.777182 0.078000
v 0.122687 1.777182 -0.187625
v 0.100589 1.755084 0.078000
v 0.100589 1.755084 -0.187625
v 0.105807 1.794062 0.078000
v 0.105807 1.794062 -0.187625
v 0.083709 1.771964 0.078000
v 0.083709 1.771964 -0.187625
v 0.140625 1.733875 0.078000
v 0.140625 1.733875 -0.156375
v 0.111754 1.721916 0.078000
v 0.111754 1.721916 -0.156375
v 0.122687 1.777182 0.078000
v 0.122687 1.777182 -0.156375
v 0.093816 1.765223 0.078000
v 0.093816 1.765223 -0.156375
v 0.109375 1.733875 0.062375
v 0.109375 1.733875 -0.125125
v 0.140625 1.733875 0.062375
v 0.140625 1.733875 -0.125125
v 0.109375 1.671375 0.062375
v 0.109375 1.671375 -0.125125
v 0.140625 1.671375 0.062375
v 0.140625 1.671375 -0.125125
v 0.109375 1.671375 0.078000
v 0.109375 1.671375 -0.078250
v 0.140625 1.671375 0.078000
v 0.140625 1.671375 -0.078250
v 0.109375 1.640125 0.078000
v 0.109375 1.640125 -0.078250
v 0.140625 1.640125 0.078000
v 0.140625 1.640125 -0.078250
v -0.062500 1.812000 0.062375
v -0.062500 1.812000 -0.203250
v -0.050541 1.783129 0.062375
v -0.050541 1.783129 -0.203250
v -0.105807 1.794062 0.062375
v -0.105807 1.794062 -0.203250
v -0.093848 1.765191 0.062375
v -0.093848 1.765191 -0.203250
v -0.109375 1.640125 0.078000
v -0.109375 1.640125 -0.078250
v -0.140625 1.640125 0.078000
v -0.140625 1.640125 -0.078250
v -0.109375 1.671375 0.078000
v -0.109375 1.671375 -0.078250
v -0.140625 1.671375 0.078000
v -0.140625 1.671375 -0.078250
v -0.109375 1.671375 0.078000
v -0.109375 1.671375 -0.125125
v -0.140625 1.671375 0.078000
v -0.140625 1.671375 -0.125125
v -0.109375 1.733875 0.078000
v -0.109375 1.733875 -0.125125
v -0.140625 1.733875 0.078000
v -0.140625 1.733875 -0.125125
v -0.122687 1.777182 0.078000
v -0.122687 1.777182 -0.156375
v -0.093816 1.765223 0.078000
v -0.093816 1.765223 -0.156375
v -0.140625 1.733875 0.078000
v -0.140625 1.733875 -0.156375
v -0.111754 1.721916 0.078000
v -0.111754 1.721916 -0.156375
v -0.105807 1.794062 0.078000
v -0.105807 1.794062 -0.187625
v -0.083709 1.771964 0.078000
v -0.083709 1.771964 -0.187625
v -0.122687 1.777182 0.078000
v -0.122687 1.777182 -0.187625
v -0.100589 1.755084 0.078000
v -0.100589 1.755084 -0.187625
v 0.281250 1.812000 0.093625
v 0.281250 1.812000 0.031125
v 0.281250 1.499500 0.093625
v 0.281250 1.499500 0.031125
v -0.281250 1.812000 0.093625
v -0.281250 1.812000 0.031125
v -0.281250 1.499500 0.093625
v -0.281250 1.499500 0.031125
v 0.218750 1.874500 0.093625
v 0.218750 1.874500 0.031125
v 0.218750 1.812000 0.093625
v 0.218750 1.812000 0.031125
v -0.218750 1.874500 0.093625
v -0.218750 1.874500 0.031125
v -0.218750 1.812000 0.093625
v -0.218750 1.812000 0.031125
v 0.171875 1.937000 0.093625
v 0.171875 1.937000 0.031125
v 0.171875 1.874500 0.093625
v 0.171875 1.874500 0.031125
v -0.171875 1.937000 0.093625
v -0.171875 1.937000 0.031125
v -0.171875 1.874500 0.093625
v -0.171875 1.874500 0.031125
v 0.269160 1.265125 0.111825
v 0.245243 1.265125 0.054082
v 0.269160 1.202625 0.111825
v 0.245243 1.202625 0.054082
v 0.095932 1.265125 0.183578
v 0.072015 1.265125 0.125836
v 0.095932 1.202625 0.183578
v 0.072015 1.202625 0.125836
v -0.095932 1.265125 0.183578
v -0.072015 1.265125 0.125836
v -0.095932 1.202625 0.183578
v -0.072015 1.202625 0.125836
v -0.269160 1.265125 0.111825
v -0.245243 1.265125 0.054082
v -0.269160 1.202625 0.111825
v -0.245243 1.202625 0.054082
v -0.062500 1.437000 0.156125
v -0.062500 1.437000 0.093625
v -0.062500 0.999500 0.156125
v -0.125000 1.437000 0.156125
v -0.125000 1.437000 0.093625
v -0.125000 0.999500 0.156125
v -0.125000 0.999500 0.093625
v 0.125000 1.437000 0.156125
v 0.125000 1.437000 0.093625
v 0.125000 0.999500 0.156125
v 0.125000 0.999500 0.093625
v 0.062500 1.437000 0.156125
v 0.062500 1.437000 0.093625
v 0.062500 0.999500 0.156125
v 0.062500 0.999500 0.093625
v 0.156250 1.437000 0.171750
v 0.156250 1.437000 0.093625
v 0.156250 1.374500 0.171750
v 0.156250 1.374500 0.093625
v -0.156250 1.437000 0.171750
v -0.156250 1.437000 0.093625
v -0.156250 1.374500 0.171750
v -0.156250 1.374500 0.093625
v 0.269160 1.702625 0.111825
v 0.245243 1.702625 0.054082
v 0.269160 1.640125 0.111825
v 0.245243 1.640125 0.054082
v 0.095932 1.702625 0.183578
v 0.072015 1.702625 0.125836
v 0.095932 1.640125 0.183578
v 0.072015 1.640125 0.125836
v -0.095932 1.702625 0.183578
v -0.072015 1.702625 0.125836
v -0.095932 1.640125 0.183578
v -0.072015 1.640125 0.125836
v -0.269160 1.702625 0.111825
v -0.245243 1.702625 0.054082
v -0.269160 1.640125 0.111825
v -0.245243 1.640125 0.054082
v -0.062500 1.874500 0.156125
v -0.062500 1.874500 0.093625
v -0.062500 1.437000 0.156125
v -0.062500 1.437000 0.093625
v -0.125000 1.874500 0.156125
v -0.125000 1.874500 0.093625
v -0.125000 1.437000 0.156125
v -0.125000 1.437000 0.093625
v 0.125000 1.874500 0.156125
v 0.125000 1.874500 0.093625
v 0.125000 1.437000 0.156125
v 0.125000 1.437000 0.093625
v 0.062500 1.874500 0.156125
v 0.062500 1.874500 0.093625
v 0.062500 1.437000 0.156125
v 0.062500 1.437000 0.093625
v 0.187500 0.999500 0.187375
v 0.187500 0.999500 0.062375
v 0.187500 0.968250 0.187375
v 0.187500 0.968250 0.062375
v -0.187500 0.999500 0.187375
v -0.187500 0.999500 0.062375
v -0.187500 0.968250 0.187375
v -0.187500 0.968250 0.062375
v 0.156250 0.968250 0.171750
v 0.156250 0.968250 0.078000
v 0.156250 0.937000 0.171750
v 0.156250 0.937000 0.078000
v -0.156250 0.968250 0.171750
v -0.156250 0.968250 0.078000
v -0.156250 0.937000 0.171750
v -0.156250 0.937000 0.078000
v 0.187500 0.937000 0.187375
v 0.187500 0.937000 0.062375
v 0.187500 0.905750 0.187375
v 0.187500 0.905750 0.062375
v -0.187500 0.937000 0.187375
v -0.187500 0.937000 0.062375
v -0.187500 0.905750 0.187375
v -0.187500 0.905750 0.062375
v 0.093750 0.905750 0.187375
v 0.093750 0.905750 0.062375
v 0.093750 0.749500 0.187375
v 0.093750 0.749500 0.062375
v -0.093750 0.905750 0.187375
v -0.093750 0.905750 0.062375
v -0.093750 0.749500 0.187375
v -0.093750 0.749500 0.062375
v 0.062500 0.749500 0.187375
v 0.062500 0.749500 0.062375
v 0.062500 0.562000 0.187375
v 0.062500 0.562000 0.062375
v -0.062500 0.749500 0.187375
v -0.062500 0.749500 0.062375
v -0.062500 0.562000 0.187375
v -0.062500 0.562000 0.062375
vn 0.7071 -0.7071 -0.0000
vn -0.7071 0.7071 -0.0000
vn -0.0000 -0.0000 -1.0000
vn -0.0000 -0.0000 1.0000
vn 1.0000 -0.0000 -0.0000
vn -1.0000 -0.0000 -0.0000
vn 0.7071 0.7071 -0.0000
vn -0.7071 -0.7071 -0.0000
vn -0.0000 1.0000 -0.0000
vn -0.0000 -1.0000 -0.0000
vn 0.9239 -0.3827 -0.0000
vn -0.9239 0.3827 -0.0000
vn 0.3827 0.9239 -0.0000
vn -0.3827 -0.9239 -0.0000
vn 0.3827 -0.9239 -0.0000
vn -0.3827 0.9239 -0.0000
vn 0.9239 0.3827 -0.0000
vn -0.9239 -0.3827 -0.0000
vn 0.9808 -0.1951 -0.0000
vn -0.9808 0.1951 -0.0000
vn 0.1951 0.9808 -0.0000
vn -0.1951 -0.9808 -0.0000
vn 0.8315 -0.5556 -0.0000
vn -0.8315 0.5556 -0.0000
vn 0.5556 0.8315 -0.0000
vn -0.5556 -0.8315 -0.0000
vn 0.5556 -0.8315 -0.0000
vn -0.5556 0.8315 -0.0000
vn 0.8315 0.5556 -0.0000
vn -0.8315 -0.5556 -0.0000
vn 0.1951 -0.9808 -0.0000
vn -0.1951 0.9808 -0.0000
vn 0.9808 0.1951 -0.0000
vn -0.9808 -0.1951 -0.0000
vn 0.9239 -0.0000 -0.3827
vn -0.9239 -0.0000 0.3827
vn 0.3827 -0.0000 0.9239
vn -0.3827 -0.0000 -0.9239
vn 0.9239 -0.0000 0.3827
vn -0.9239 -0.0000 -0.3827
vn -0.3827 -0.0000 0.9239
vn 0.3827 -0.0000 -0.9239
vt 0.093750 0.343750
vt 0.116403 0.343750
vt 0.116403 0.359375
vt 0.093750 0.359375
vt 0.174297 0.375000
vt 0.156250 0.375000
vt 0.156250 0.359375
vt 0.174297 0.359375
vt 0.078125 0.341448
vt 0.078125 0.323401
vt 0.083685 0.321098
vt 0.083685 0.343750
vt 0.140625 0.400690
vt 0.163277 0.400690
vt 0.160974 0.406250
vt 0.142927 0.406250
vt 0.125000 0.375000
vt 0.147653 0.375000
vt 0.147653 0.390625
vt 0.125000 0.390625
vt 0.189922 0.406250
vt 0.171875 0.406250
vt 0.171875 0.390625
vt 0.189922 0.390625
vt 0.078125 0.341447
vt 0.078125 0.323400
vt 0.083684 0.321097
vt 0.083684 0.343750
vt 0.099309 0.352347
vt 0.099309 0.375000
vt 0.093750 0.372697
vt 0.093750 0.354650
vt 0.187500 0.375000
vt 0.210153 0.375000
vt 0.210153 0.390625
vt 0.187500 0.390625
vt 0.143047 0.390625
vt 0.143047 0.375000
vt 0.207849 0.359375
vt 0.189802 0.359375
vt 0.187500 0.353815
vt 0.210152 0.353815
vt 0.161810 0.352348
vt 0.161810 0.375000
vt 0.156250 0.372698
vt 0.156250 0.354651
vt 0.140625 0.390625
vt 0.163278 0.390625
vt 0.163278 0.406250
vt 0.140625 0.406250
vt 0.111797 0.375000
vt 0.093750 0.375000
vt 0.111797 0.359375
vt 0.207850 0.406250
vt 0.189803 0.406250
vt 0.187500 0.400691
vt 0.210153 0.400691
vt 0.194528 0.390625
vt 0.174178 0.385066
vt 0.192225 0.385066
vt 0.109375 0.359375
vt 0.132028 0.359375
vt 0.132028 0.375000
vt 0.109375 0.375000
vt 0.096172 0.390625
vt 0.078125 0.390625
vt 0.078125 0.375000
vt 0.096172 0.375000
vt 0.161810 0.385901
vt 0.161810 0.403948
vt 0.156250 0.406250
vt 0.156250 0.383598
vt 0.147652 0.312500
vt 0.125000 0.312500
vt 0.127302 0.306940
vt 0.145349 0.306940
vt 0.140625 0.359375
vt 0.163278 0.359375
vt 0.163278 0.375000
vt 0.140625 0.375000
vt 0.127422 0.375000
vt 0.127422 0.359375
vt 0.161809 0.354650
vt 0.161809 0.372697
vt 0.156250 0.352347
vt 0.218750 0.406250
vt 0.218750 0.383597
vt 0.224309 0.385900
vt 0.224309 0.403947
vt 0.116403 0.375000
vt 0.080547 0.390625
vt 0.062500 0.390625
vt 0.062500 0.375000
vt 0.080547 0.375000
vt 0.158552 0.369440
vt 0.176599 0.369440
vt 0.178902 0.375000
vt 0.078125 0.367973
vt 0.083685 0.370276
vt 0.083685 0.388323
vt 0.093750 0.328125
vt 0.116403 0.328125
vt 0.111797 0.406250
vt 0.093750 0.406250
vt 0.093750 0.390625
vt 0.111797 0.390625
vt 0.096053 0.369441
vt 0.114100 0.369441
vt 0.078125 0.369441
vt 0.100778 0.369441
vt 0.098475 0.375000
vt 0.080428 0.375000
vt 0.029597 0.979073
vt 0.020929 1.000000
vt 0.000000 0.979073
vt 0.000000 0.968750
vt 0.022653 0.968750
vt 0.022653 1.000000
vt 0.000000 1.000000
vt 0.000000 0.970403
vt 0.020927 0.979071
vt 0.027344 0.977347
vt 0.027344 1.000000
vt 0.000000 0.988673
vt 0.000000 0.972656
vt 0.022653 0.972656
vt 0.011327 1.000000
vt 0.011327 0.972656
vt 0.008668 0.979073
vt 0.029597 1.000000
vt 0.020927 1.000000
vt 0.000000 0.991332
vt 0.020927 0.970403
vt 0.000000 0.977347
vt 0.027344 0.988673
vt 0.019531 0.968750
vt 0.019531 0.984375
vt 0.000000 0.984375
vt 0.035156 0.968750
vt 0.035156 0.984375
vt 0.015625 0.984375
vt 0.015625 0.968750
vt 0.078125 0.964844
vt 0.078125 0.984375
vt 0.000000 0.964844
vt 0.078125 0.980469
vt 0.078125 1.000000
vt 0.000000 0.980469
vt 0.078125 0.968750
vt 0.523438 0.359375
vt 0.523438 0.421875
vt 0.515625 0.421875
vt 0.515625 0.359375
vt 0.531250 0.359375
vt 0.531250 0.421875
vt 0.632812 0.359375
vt 0.632812 0.367188
vt 0.523438 0.367188
vt 0.632812 0.375000
vt 0.523438 0.375000
vt 0.968750 0.343750
vt 0.968750 0.468750
vt 0.750000 0.468750
vt 0.750000 0.343750
vt 0.703125 0.359375
vt 0.703125 0.484375
vt 0.546875 0.484375
vt 0.546875 0.359375
vt 0.937500 0.015625
vt 0.937500 0.062500
vt 0.935938 0.062500
vt 0.935938 0.015625
vt 0.923437 0.000000
vt 0.923437 0.046875
vt 0.921875 0.046875
vt 0.921875 0.000000
vt 0.984375 0.060938
vt 0.984375 0.062500
vt 0.921875 0.062500
vt 0.921875 0.060938
vt 0.984375 0.046875
vt 0.984375 0.048437
vt 0.921875 0.048437
vt 0.968750 0.015625
vt 0.968750 0.062500
vt 0.906250 0.062500
vt 0.906250 0.015625
vt 0.359375 0.359375
vt 0.359375 0.406250
vt 0.296875 0.406250
vt 0.296875 0.359375
vt 0.125000 0.367188
vt 0.046875 0.375000
vt 0.046875 0.367188
vt 0.109375 0.398438
vt 0.109375 0.406250
vt 0.031250 0.406250
vt 0.031250 0.398438
vt 0.062500 0.328125
vt 0.062500 0.406250
vt 0.031250 0.328125
vt 0.062500 0.343750
vt 0.062500 0.421875
vt 0.031250 0.421875
vt 0.031250 0.343750
vt 0.093750 0.367188
vt 0.062500 0.367188
vt 0.125000 0.382812
vt 0.093750 0.382812
vt 0.113281 0.398438
vt 0.113281 0.406250
vt 0.046875 0.406250
vt 0.046875 0.398438
vt 0.140625 0.398438
vt 0.074219 0.406250
vt 0.074219 0.398438
vt 0.062500 0.410156
vt 0.050781 0.410156
vt 0.050781 0.343750
vt 0.062500 0.355469
vt 0.050781 0.421875
vt 0.050781 0.355469
vt 0.078125 0.398438
vt 0.078125 0.406250
vt 0.066406 0.406250
vt 0.066406 0.398438
vt 0.089844 0.398438
vt 0.089844 0.406250
vt 0.199219 0.382812
vt 0.199219 0.390625
vt 0.218750 0.367188
vt 0.218750 0.375000
vt 0.144531 0.375000
vt 0.144531 0.367188
vt 0.103624 0.343750
vt 0.103624 0.417969
vt 0.097656 0.417969
vt 0.097656 0.343750
vt 0.119249 0.332031
vt 0.119249 0.406250
vt 0.113281 0.332031
vt 0.087999 0.367188
vt 0.087999 0.375000
vt 0.082031 0.375000
vt 0.082031 0.367188
vt 0.084093 0.398438
vt 0.084093 0.406250
vt 0.167969 0.382812
vt 0.167969 0.390625
vt 0.125000 0.398438
vt 0.125000 0.406250
vt 0.050781 0.406250
vt 0.050781 0.398438
vt 0.078125 0.343750
vt 0.078125 0.417969
vt 0.066406 0.417969
vt 0.066406 0.343750
vt 0.062500 0.347656
vt 0.050781 0.347656
vt 0.156250 0.367188
vt 0.121094 0.382812
vt 0.121094 0.390625
vt 0.109375 0.390625
vt 0.109375 0.382812
vt 0.062500 0.382812
vt 0.046875 0.343750
vt 0.078125 0.312500
vt 0.062500 0.312500
vt 0.078125 0.414062
vt 0.078125 0.421875
vt 0.062500 0.414062
vt 0.171875 0.382812
vt 0.156250 0.390625
vt 0.156250 0.382812
vt 0.093750 0.398438
vt 0.156250 0.343750
vt 0.148438 0.390625
vt 0.148438 0.343750
vt 0.109375 0.328125
vt 0.101562 0.375000
vt 0.101562 0.328125
vt 0.187500 0.367188
vt 0.179688 0.375000
vt 0.179688 0.367188
vt 0.195312 0.382812
vt 0.195312 0.390625
vt 0.187500 0.382812
vt 0.395312 0.671875
vt 0.395312 0.687500
vt 0.375000 0.687500
vt 0.375000 0.671875
vt 0.348437 0.687500
vt 0.348437 0.703125
vt 0.328125 0.703125
vt 0.328125 0.687500
vt 0.406250 0.698438
vt 0.406250 0.718750
vt 0.343750 0.718750
vt 0.343750 0.698438
vt 0.390625 0.651563
vt 0.390625 0.671875
vt 0.328125 0.671875
vt 0.328125 0.651563
vt 0.390625 0.656250
vt 0.328125 0.656250
vt 0.953125 0.671875
vt 0.953125 0.687500
vt 0.890625 0.687500
vt 0.890625 0.671875
vt 0.393750 0.703125
vt 0.393750 0.718750
vt 0.375000 0.718750
vt 0.375000 0.703125
vt 0.331250 0.656250
vt 0.331250 0.671875
vt 0.312500 0.671875
vt 0.312500 0.656250
vt 0.390625 0.668750
vt 0.390625 0.687500
vt 0.367188 0.687500
vt 0.367188 0.668750
vt 0.343750 0.684375
vt 0.343750 0.703125
vt 0.320312 0.703125
vt 0.320312 0.684375
vt 0.304688 0.703125
vt 0.304688 0.687500
vt 0.929688 0.625000
vt 0.929688 0.640625
vt 0.906250 0.640625
vt 0.906250 0.625000
vt 0.359375 0.625000
vt 0.359375 0.640625
vt 0.328125 0.640625
vt 0.328125 0.625000
vt 0.453125 0.593750
vt 0.453125 0.609375
vt 0.421875 0.609375
vt 0.421875 0.593750
vt 0.375000 0.625000
vt 0.375000 0.656250
vt 0.343750 0.656250
vt 0.343750 0.625000
vt 0.296875 0.703125
vt 0.296875 0.671875
vt 0.390625 0.578125
vt 0.390625 0.593750
vt 0.359375 0.593750
vt 0.359375 0.578125
vt 0.937500 0.671875
vt 0.937500 0.687500
vt 0.906250 0.687500
vt 0.906250 0.671875
vt 0.359375 0.671875
vt 0.359375 0.687500
vt 0.343750 0.687500
vt 0.343750 0.671875
vt 0.390625 0.703125
vt 0.425781 0.703125
vt 0.425781 0.718750
vt 0.339844 0.718750
vt 0.339844 0.703125
vt 0.425781 0.625000
vt 0.425781 0.640625
vt 0.339844 0.640625
vt 0.339844 0.625000
vt 0.425781 0.687500
vt 0.339844 0.687500
vt 0.429688 0.578125
vt 0.429688 0.593750
vt 0.343750 0.593750
vt 0.343750 0.578125
vt 0.296875 0.656250
vt 0.312500 0.609375
vt 0.312500 0.625000
vt 0.296875 0.625000
vt 0.296875 0.609375
vt 0.437500 0.671875
vt 0.437500 0.687500
vt 0.437500 0.625000
vt 0.437500 0.640625
vt 0.421875 0.703125
vt 0.421875 0.718750
vt 0.312500 0.718750
vt 0.312500 0.703125
vt 0.437500 0.562500
vt 0.437500 0.578125
vt 0.328125 0.578125
vt 0.328125 0.562500
vt 0.312500 0.578125
vt 0.296875 0.578125
vt 0.437500 0.656250
vt 0.296875 0.640625
vt 0.406250 0.218750
vt 0.406250 0.312500
vt 0.265625 0.312500
vt 0.265625 0.218750
vt 0.359375 0.656250
vt 0.312500 0.359375
vt 0.312500 0.437500
vt 0.296875 0.437500
vt 0.437500 0.421875
vt 0.437500 0.437500
vt 0.296875 0.421875
vt 0.437500 0.359375
vt 0.437500 0.375000
vt 0.296875 0.375000
vt 0.375000 0.437500
vt 0.375000 0.453125
vt 0.359375 0.453125
vt 0.359375 0.437500
vt 0.343750 0.453125
vt 0.343750 0.437500
vt 0.421875 0.437500
vt 0.421875 0.453125
vt 0.312500 0.453125
vt 0.390625 0.453125
vt 0.390625 0.468750
vt 0.375000 0.468750
vt 0.359375 0.468750
vt 0.343750 0.468750
vt 0.410156 0.453125
vt 0.410156 0.468750
vt 0.324219 0.468750
vt 0.324219 0.453125
vt 0.015625 1.000000
vt 0.031250 0.984375
vt 0.031250 1.000000
vt 0.046875 0.968750
vt 0.046875 0.984375
vt 0.046875 1.000000
vt 0.125000 0.890625
vt 0.125000 1.000000
vt 0.093750 1.000000
vt 0.093750 0.890625
vt 0.109375 0.968750
vt 0.109375 1.000000
vt 0.093750 0.968750
vt 0.125000 0.968750
vt 0.109375 0.890625
vt 0.093750 0.984375
vt 0.031250 0.992188
vt 0.000000 0.992188
vt 0.093750 0.992188
vt 0.027344 0.992188
vt 0.003906 1.000000
vt 0.003906 0.992188
vt 0.085938 0.972656
vt 0.085938 0.996094
vt 0.007812 0.996094
vt 0.007812 0.972656
vt 0.085938 0.992188
vt 0.085938 1.000000
vt 0.007812 1.000000
vt 0.007812 0.992188
vt 0.031250 0.953125
vt 0.000000 0.953125
vt 0.070312 0.968750
vt 0.070312 1.000000
vt 0.023438 1.000000
vt 0.023438 0.968750
vt 0.070312 0.953125
vt 0.070312 0.992188
vt 0.023438 0.992188
vt 0.023438 0.953125
vt 0.156250 0.859375
vt 0.156250 0.906250
vt 0.125000 0.906250
vt 0.125000 0.859375
vt 0.156250 0.875000
vt 0.125000 0.875000
s 1
usemtl m_3d215661-f591-00a8-53e2-d8d611c756be.002
f 3/1/1 7/2/1 8/3/1 4/4/1
f 6/5/2 10/6/2 9/7/2 5/8/2
f 5/9/3 9/10/3 7/11/3 3/12/3
f 4/13/4 8/14/4 10/15/4 6/16/4
f 7/17/5 11/18/5 12/19/5 8/20/5
f 10/21/6 14/22/6 13/23/6 9/24/6
f 9/25/3 13/26/3 11/27/3 7/28/3
f 8/29/4 12/30/4 14/31/4 10/32/4
f 11/33/7 15/34/7 16/35/7 12/36/7
f 14/37/8 18/20/8 17/17/8 13/38/8
f 13/39/3 17/40/3 15/41/3 11/42/3
f 12/43/4 16/44/4 18/45/4 14/46/4
f 15/47/9 19/48/9 20/49/9 16/50/9
f 18/51/10 22/52/10 21/4/10 17/53/10
f 17/54/3 21/55/3 19/56/3 15/57/3
f 16/58/4 20/23/4 22/59/4 18/60/4
f 19/61/2 23/62/2 24/63/2 20/64/2
f 22/65/1 26/66/1 25/67/1 21/68/1
f 21/69/3 25/70/3 23/71/3 19/72/3
f 20/73/4 24/74/4 26/75/4 22/76/4
f 23/77/6 27/78/6 28/79/6 24/80/6
f 26/81/5 30/64/5 29/61/5 25/82/5
f 25/83/3 29/84/3 27/6/3 23/85/3
f 24/86/4 28/87/4 30/88/4 26/89/4
f 27/4/8 31/3/8 32/90/8 28/52/8
f 30/91/7 34/92/7 33/93/7 29/94/7
f 29/95/3 33/96/3 31/97/3 27/6/3
f 28/66/4 32/98/4 34/99/4 30/100/4
f 31/101/10 3/102/10 4/2/10 32/1/10
f 34/103/9 6/104/9 5/105/9 33/106/9
f 33/107/3 5/108/3 3/90/3 31/52/3
f 32/109/4 4/110/4 6/111/4 34/112/4
f 35/1/1 39/2/1 40/3/1 36/4/1
f 38/5/2 42/6/2 41/7/2 37/8/2
f 37/9/3 41/10/3 39/11/3 35/12/3
f 36/13/4 40/14/4 42/15/4 38/16/4
f 39/17/5 43/18/5 44/19/5 40/20/5
f 42/21/6 46/22/6 45/23/6 41/24/6
f 41/25/3 45/26/3 43/27/3 39/28/3
f 40/29/4 44/30/4 46/31/4 42/32/4
f 43/33/7 47/34/7 48/35/7 44/36/7
f 46/37/8 50/20/8 49/17/8 45/38/8
f 45/39/3 49/40/3 47/41/3 43/42/3
f 44/43/4 48/44/4 50/45/4 46/46/4
f 47/47/9 51/48/9 52/49/9 48/50/9
f 50/51/10 54/52/10 53/4/10 49/53/10
f 49/54/3 53/55/3 51/56/3 47/57/3
f 48/58/4 52/23/4 54/59/4 50/60/4
f 51/61/2 55/62/2 56/63/2 52/64/2
f 54/65/1 58/66/1 57/67/1 53/68/1
f 53/69/3 57/70/3 55/71/3 51/72/3
f 52/73/4 56/74/4 58/75/4 54/76/4
f 55/77/6 59/78/6 60/79/6 56/80/6
f 58/81/5 62/64/5 61/61/5 57/82/5
f 57/83/3 61/84/3 59/6/3 55/85/3
f 56/86/4 60/87/4 62/88/4 58/89/4
f 59/4/8 63/3/8 64/90/8 60/52/8
f 62/91/7 66/92/7 65/93/7 61/94/7
f 61/95/3 65/96/3 63/97/3 59/6/3
f 60/66/4 64/98/4 66/99/4 62/100/4
f 63/101/10 35/102/10 36/2/10 64/1/10
f 66/103/9 38/104/9 37/105/9 65/106/9
f 65/107/3 37/108/3 35/90/3 63/52/3
f 64/109/4 36/110/4 38/111/4 66/112/4
f 71/113/3 69/114/3 67/115/3
f 69/116/1 71/117/1 72/118/1 70/119/1
f 70/120/4 72/121/4 68/119/4
f 73/122/3 71/123/3 67/124/3
f 71/116/5 73/117/5 74/118/5 72/119/5
f 72/122/4 74/123/4 68/124/4
f 75/120/3 73/121/3 67/119/3
f 73/116/7 75/117/7 76/118/7 74/119/7
f 74/113/4 76/114/4 68/115/4
f 77/125/3 75/126/3 67/127/3
f 75/116/9 77/117/9 78/118/9 76/119/9
f 76/118/4 78/119/4 68/128/4
f 79/119/3 77/129/3 67/130/3
f 77/116/2 79/117/2 80/118/2 78/119/2
f 78/131/4 80/132/4 68/133/4
f 81/119/3 79/134/3 67/135/3
f 79/116/6 81/117/6 82/118/6 80/119/6
f 80/119/4 82/134/4 68/135/4
f 83/131/3 81/132/3 67/133/3
f 81/116/8 83/117/8 84/118/8 82/119/8
f 82/119/4 84/129/4 68/130/4
f 69/118/3 83/119/3 67/128/3
f 83/116/10 69/117/10 70/118/10 84/119/10
f 84/125/4 70/126/4 68/127/4
f 89/113/3 87/114/3 85/115/3
f 87/116/1 89/117/1 90/118/1 88/119/1
f 88/120/4 90/121/4 86/119/4
f 91/122/3 89/123/3 85/124/3
f 89/116/5 91/117/5 92/118/5 90/119/5
f 90/122/4 92/123/4 86/124/4
f 93/120/3 91/121/3 85/119/3
f 91/116/7 93/117/7 94/118/7 92/119/7
f 92/113/4 94/114/4 86/115/4
f 95/125/3 93/126/3 85/127/3
f 93/116/9 95/117/9 96/118/9 94/119/9
f 94/118/4 96/119/4 86/128/4
f 97/119/3 95/129/3 85/130/3
f 95/116/2 97/117/2 98/118/2 96/119/2
f 96/131/4 98/132/4 86/133/4
f 99/119/3 97/134/3 85/135/3
f 97/116/6 99/117/6 100/118/6 98/119/6
f 98/119/4 100/134/4 86/135/4
f 101/131/3 99/132/3 85/133/3
f 99/116/8 101/117/8 102/118/8 100/119/8
f 100/119/4 102/129/4 86/130/4
f 87/118/3 101/119/3 85/128/3
f 101/116/10 87/117/10 88/118/10 102/119/10
f 102/125/4 88/126/4 86/127/4
f 106/136/5 104/137/5 103/138/5 105/116/5
f 109/139/6 107/140/6 108/141/6 110/142/6
f 103/143/9 104/144/9 108/138/9 107/145/9
f 106/146/10 105/147/10 109/119/10 110/148/10
f 105/149/4 103/144/4 107/138/4 109/116/4
f 110/149/3 108/144/3 104/138/3 106/116/3
f 114/150/5 112/151/5 111/152/5 113/153/5
f 117/154/6 115/155/6 116/151/6 118/150/6
f 111/156/9 112/157/9 116/158/9 115/150/9
f 114/157/10 113/159/10 117/160/10 118/158/10
f 113/161/4 111/162/4 115/163/4 117/164/4
f 118/165/3 116/166/3 112/167/3 114/168/3
f 122/169/5 120/170/5 119/171/5 121/172/5
f 125/173/6 123/174/6 124/175/6 126/176/6
f 119/177/9 120/178/9 124/179/9 123/180/9
f 122/181/10 121/182/10 125/183/10 126/175/10
f 121/184/4 119/185/4 123/186/4 125/187/4
f 126/188/3 124/189/3 120/190/3 122/191/3
f 130/192/5 128/17/5 127/193/5 129/194/5
f 133/195/6 131/196/6 132/197/6 134/198/6
f 127/199/9 128/200/9 132/197/9 131/201/9
f 130/202/10 129/203/10 133/204/10 134/205/10
f 129/206/4 127/52/4 131/93/4 133/207/4
f 134/208/3 132/20/3 128/105/3 130/209/3
f 138/210/11 136/211/11 135/212/11 137/213/11
f 141/214/12 139/50/12 140/215/12 142/216/12
f 135/202/13 136/217/13 140/218/13 139/219/13
f 138/220/14 137/203/14 141/221/14 142/222/14
f 137/223/4 135/224/4 139/225/4 141/226/4
f 142/227/3 140/228/3 136/224/3 138/223/3
f 146/229/1 144/230/1 143/20/1 145/208/1
f 149/231/2 147/232/2 148/233/2 150/234/2
f 143/235/7 144/236/7 148/237/7 147/238/7
f 146/239/8 145/240/8 149/211/8 150/241/8
f 145/242/4 143/243/4 147/244/4 149/245/4
f 150/246/3 148/247/3 144/224/3 146/223/3
f 154/248/15 152/249/15 151/105/15 153/209/15
f 157/250/16 155/251/16 156/252/16 158/253/16
f 151/254/17 152/255/17 156/256/17 155/257/17
f 154/258/18 153/203/18 157/221/18 158/259/18
f 153/260/4 151/6/4 155/233/4 157/234/4
f 158/261/3 156/262/3 152/263/3 154/264/3
f 162/260/9 160/6/9 159/52/9 161/206/9
f 165/208/10 163/20/10 164/92/10 166/265/10
f 159/202/6 160/200/6 164/212/6 163/266/6
f 162/267/5 161/67/5 165/93/5 166/268/5
f 161/269/4 159/270/4 163/203/4 165/271/4
f 166/272/3 164/23/3 160/273/3 162/274/3
f 170/272/9 168/23/9 167/20/9 169/208/9
f 173/214/10 171/50/10 172/104/10 174/275/10
f 167/276/6 168/273/6 172/277/6 171/278/6
f 170/279/5 169/64/5 173/280/5 174/281/5
f 169/282/4 167/33/4 171/283/4 173/284/4
f 174/285/3 172/286/3 168/36/3 170/287/3
f 178/216/17 176/215/17 175/50/17 177/214/17
f 181/213/18 179/212/18 180/211/18 182/210/18
f 175/219/16 176/218/16 180/217/16 179/202/16
f 178/222/15 177/221/15 181/203/15 182/220/15
f 177/226/4 175/225/4 179/224/4 181/223/4
f 182/223/3 180/224/3 176/228/3 178/227/3
f 186/275/10 184/104/10 183/50/10 185/214/10
f 189/208/9 187/20/9 188/23/9 190/272/9
f 183/278/5 184/277/5 188/273/5 187/276/5
f 186/281/6 185/280/6 189/64/6 190/279/6
f 185/284/4 183/283/4 187/33/4 189/282/4
f 190/287/3 188/36/3 184/286/3 186/285/3
f 194/265/10 192/92/10 191/20/10 193/208/10
f 197/206/9 195/52/9 196/6/9 198/260/9
f 191/266/5 192/212/5 196/200/5 195/202/5
f 194/268/6 193/93/6 197/67/6 198/267/6
f 193/271/4 191/203/4 195/270/4 197/269/4
f 198/274/3 196/273/3 192/23/3 194/272/3
f 202/253/13 200/252/13 199/251/13 201/250/13
f 205/209/14 203/105/14 204/249/14 206/248/14
f 199/257/12 200/256/12 204/255/12 203/254/12
f 202/259/11 201/221/11 205/203/11 206/258/11
f 201/234/4 199/233/4 203/6/4 205/260/4
f 206/264/3 204/263/3 200/262/3 202/261/3
f 210/234/7 208/233/7 207/232/7 209/231/7
f 213/208/8 211/20/8 212/230/8 214/229/8
f 207/238/2 208/237/2 212/236/2 211/235/2
f 210/241/1 209/211/1 213/240/1 214/239/1
f 209/245/4 207/244/4 211/243/4 213/242/4
f 214/223/3 212/224/3 208/247/3 210/246/3
f 218/288/9 216/289/9 215/290/9 217/291/9
f 221/292/10 219/293/10 220/294/10 222/295/10
f 215/296/6 216/297/6 220/298/6 219/299/6
f 218/300/5 217/301/5 221/302/5 222/303/5
f 217/304/4 215/301/4 219/302/4 221/305/4
f 222/306/3 220/307/3 216/308/3 218/309/3
f 226/310/19 224/311/19 223/312/19 225/313/19
f 229/314/20 227/315/20 228/316/20 230/317/20
f 223/318/21 224/319/21 228/320/21 227/321/21
f 226/322/22 225/323/22 229/324/22 230/325/22
f 225/295/4 223/294/4 227/326/4 229/327/4
f 230/328/3 228/329/3 224/330/3 226/331/3
f 234/332/5 232/333/5 231/334/5 233/335/5
f 237/336/6 235/337/6 236/338/6 238/339/6
f 231/340/9 232/341/9 236/342/9 235/343/9
f 234/302/10 233/294/10 237/344/10 238/345/10
f 233/346/4 231/347/4 235/348/4 237/349/4
f 238/350/3 236/351/3 232/352/3 234/353/3
f 241/310/11 239/311/11 2/312/11 240/313/11
f 244/314/12 242/315/12 243/316/12 245/317/12
f 2/318/13 239/319/13 243/320/13 242/321/13
f 241/322/14 240/323/14 244/324/14 245/325/14
f 240/295/4 2/294/4 242/326/4 244/327/4
f 245/328/3 243/329/3 239/330/3 241/331/3
f 249/310/23 247/311/23 246/312/23 248/313/23
f 252/314/24 250/315/24 251/316/24 253/317/24
f 246/318/25 247/319/25 251/320/25 250/321/25
f 249/322/26 248/323/26 252/324/26 253/325/26
f 248/295/4 246/294/4 250/326/4 252/327/4
f 253/328/3 251/329/3 247/330/3 249/331/3
f 257/310/1 255/311/1 254/312/1 256/313/1
f 260/314/2 258/315/2 259/316/2 261/317/2
f 254/318/7 255/319/7 259/320/7 258/321/7
f 257/322/8 256/323/8 260/324/8 261/325/8
f 256/295/4 254/294/4 258/326/4 260/327/4
f 261/328/3 259/329/3 255/330/3 257/331/3
f 265/310/27 263/311/27 262/312/27 264/313/27
f 268/314/28 266/315/28 267/316/28 269/317/28
f 262/318/29 263/319/29 267/320/29 266/321/29
f 265/322/30 264/323/30 268/324/30 269/325/30
f 264/295/4 262/294/4 266/326/4 268/327/4
f 269/328/3 267/329/3 263/330/3 265/331/3
f 273/310/15 271/311/15 270/312/15 272/313/15
f 276/314/16 274/315/16 275/316/16 277/317/16
f 270/318/17 271/319/17 275/320/17 274/321/17
f 273/322/18 272/323/18 276/324/18 277/325/18
f 272/295/4 270/294/4 274/326/4 276/327/4
f 277/328/3 275/329/3 271/330/3 273/331/3
f 281/310/31 279/311/31 278/312/31 280/313/31
f 284/314/32 282/315/32 283/316/32 285/317/32
f 278/318/33 279/319/33 283/320/33 282/321/33
f 281/322/34 280/323/34 284/324/34 285/325/34
f 280/295/4 278/294/4 282/326/4 284/327/4
f 285/328/3 283/329/3 279/330/3 281/331/3
f 289/295/10 287/294/10 286/293/10 288/292/10
f 292/291/9 290/290/9 291/289/9 293/288/9
f 286/299/5 287/298/5 291/297/5 290/296/5
f 289/303/6 288/302/6 292/301/6 293/300/6
f 288/305/4 286/302/4 290/301/4 292/304/4
f 293/309/3 291/308/3 287/307/3 289/306/3
f 297/317/21 295/316/21 294/315/21 296/314/21
f 300/313/22 298/312/22 299/311/22 301/310/22
f 294/321/20 295/320/20 299/319/20 298/318/20
f 297/325/19 296/324/19 300/323/19 301/322/19
f 296/327/4 294/326/4 298/294/4 300/295/4
f 301/331/3 299/330/3 295/329/3 297/328/3
f 305/317/13 303/316/13 302/315/13 304/314/13
f 308/313/14 306/312/14 307/311/14 309/310/14
f 302/321/12 303/320/12 307/319/12 306/318/12
f 305/325/11 304/324/11 308/323/11 309/322/11
f 304/327/4 302/326/4 306/294/4 308/295/4
f 309/331/3 307/330/3 303/329/3 305/328/3
f 313/317/25 311/316/25 310/315/25 312/314/25
f 316/313/26 314/312/26 315/311/26 317/310/26
f 310/321/24 311/320/24 315/319/24 314/318/24
f 313/325/23 312/324/23 316/323/23 317/322/23
f 312/327/4 310/326/4 314/294/4 316/295/4
f 317/331/3 315/330/3 311/329/3 313/328/3
f 321/317/7 319/316/7 318/315/7 320/314/7
f 324/313/8 322/312/8 323/311/8 325/310/8
f 318/321/2 319/320/2 323/319/2 322/318/2
f 321/325/1 320/324/1 324/323/1 325/322/1
f 320/327/4 318/326/4 322/294/4 324/295/4
f 325/331/3 323/330/3 319/329/3 321/328/3
f 329/317/29 327/316/29 326/315/29 328/314/29
f 332/313/30 330/312/30 331/311/30 333/310/30
f 326/321/28 327/320/28 331/319/28 330/318/28
f 329/325/27 328/324/27 332/323/27 333/322/27
f 328/327/4 326/326/4 330/294/4 332/295/4
f 333/331/3 331/330/3 327/329/3 329/328/3
f 337/317/17 335/316/17 334/315/17 336/314/17
f 340/313/18 338/312/18 339/311/18 341/310/18
f 334/321/16 335/320/16 339/319/16 338/318/16
f 337/325/15 336/324/15 340/323/15 341/322/15
f 336/327/4 334/326/4 338/294/4 340/295/4
f 341/331/3 339/330/3 335/329/3 337/328/3
f 345/317/33 343/316/33 342/315/33 344/314/33
f 348/313/34 346/312/34 347/311/34 349/310/34
f 342/321/32 343/320/32 347/319/32 346/318/32
f 345/325/31 344/324/31 348/323/31 349/322/31
f 344/327/4 342/326/4 346/294/4 348/295/4
f 349/331/3 347/330/3 343/329/3 345/328/3
f 353/354/5 351/355/5 350/356/5 352/357/5
f 356/319/6 354/358/6 355/313/6 357/290/6
f 350/359/9 351/360/9 355/361/9 354/362/9
f 353/363/10 352/364/10 356/365/10 357/366/10
f 352/367/4 350/359/4 354/362/4 356/368/4
f 357/369/3 355/370/3 351/371/3 353/372/3
f 361/317/5 359/316/5 358/345/5 360/373/5
f 364/374/6 362/375/6 363/376/6 365/377/6
f 358/378/9 359/379/9 363/295/9 362/302/9
f 361/380/10 360/381/10 364/334/10 365/335/10
f 360/382/4 358/383/4 362/384/4 364/385/4
f 365/386/3 363/387/3 359/388/3 361/389/3
f 370/390/5 368/316/5 367/345/5 369/391/5
f 372/390/6 366/316/6 371/345/6 373/391/6
f 367/392/9 368/378/9 371/345/9 366/373/9
f 370/380/10 369/381/10 372/393/10 373/376/10
f 369/394/4 367/395/4 366/396/4 372/397/4
f 373/394/3 371/395/3 368/396/3 370/397/3
f 377/289/10 375/288/10 374/291/10 376/290/10
f 380/293/9 378/292/9 379/295/9 381/294/9
f 374/301/5 375/300/5 379/303/5 378/302/5
f 377/297/6 376/296/6 380/299/6 381/298/6
f 376/301/4 374/304/4 378/305/4 380/302/4
f 381/307/3 379/306/3 375/309/3 377/308/3
f 385/311/33 383/310/33 382/313/33 384/312/33
f 388/315/34 386/314/34 387/317/34 389/316/34
f 382/323/32 383/322/32 387/325/32 386/324/32
f 385/319/31 384/318/31 388/321/31 389/320/31
f 384/294/4 382/295/4 386/327/4 388/326/4
f 389/329/3 387/328/3 383/331/3 385/330/3
f 393/311/17 391/310/17 390/313/17 392/312/17
f 396/315/18 394/314/18 395/317/18 397/316/18
f 390/323/16 391/322/16 395/325/16 394/324/16
f 393/319/15 392/318/15 396/321/15 397/320/15
f 392/294/4 390/295/4 394/327/4 396/326/4
f 397/329/3 395/328/3 391/331/3 393/330/3
f 401/311/29 399/310/29 398/313/29 400/312/29
f 404/315/30 402/314/30 403/317/30 405/316/30
f 398/323/28 399/322/28 403/325/28 402/324/28
f 401/319/27 400/318/27 404/321/27 405/320/27
f 400/294/4 398/295/4 402/327/4 404/326/4
f 405/329/3 403/328/3 399/331/3 401/330/3
f 409/311/7 407/310/7 406/313/7 408/312/7
f 412/315/8 410/314/8 411/317/8 413/316/8
f 406/323/2 407/322/2 411/325/2 410/324/2
f 409/319/1 408/318/1 412/321/1 413/320/1
f 408/294/4 406/295/4 410/327/4 412/326/4
f 413/329/3 411/328/3 407/331/3 409/330/3
f 417/311/25 415/310/25 414/313/25 416/312/25
f 420/315/26 418/314/26 419/317/26 421/316/26
f 414/323/24 415/322/24 419/325/24 418/324/24
f 417/319/23 416/318/23 420/321/23 421/320/23
f 416/294/4 414/295/4 418/327/4 420/326/4
f 421/329/3 419/328/3 415/331/3 417/330/3
f 425/311/13 423/310/13 422/313/13 424/312/13
f 428/315/14 426/314/14 427/317/14 429/316/14
f 422/323/12 423/322/12 427/325/12 426/324/12
f 425/319/11 424/318/11 428/321/11 429/320/11
f 424/294/4 422/295/4 426/327/4 428/326/4
f 429/329/3 427/328/3 423/331/3 425/330/3
f 433/311/21 431/310/21 430/313/21 432/312/21
f 436/315/22 434/314/22 435/317/22 437/316/22
f 430/323/20 431/322/20 435/325/20 434/324/20
f 433/319/19 432/318/19 436/321/19 437/320/19
f 432/294/4 430/295/4 434/327/4 436/326/4
f 437/329/3 435/328/3 431/331/3 433/330/3
f 441/316/19 439/317/19 438/314/19 440/315/19
f 444/312/20 442/313/20 443/310/20 445/311/20
f 438/324/21 439/325/21 443/322/21 442/323/21
f 441/320/22 440/321/22 444/318/22 445/319/22
f 440/326/4 438/327/4 442/295/4 444/294/4
f 445/330/3 443/331/3 439/328/3 441/329/3
f 449/316/11 447/317/11 446/314/11 448/315/11
f 452/312/12 450/313/12 451/310/12 453/311/12
f 446/324/13 447/325/13 451/322/13 450/323/13
f 449/320/14 448/321/14 452/318/14 453/319/14
f 448/326/4 446/327/4 450/295/4 452/294/4
f 453/330/3 451/331/3 447/328/3 449/329/3
f 457/316/23 455/317/23 454/314/23 456/315/23
f 460/312/24 458/313/24 459/310/24 461/311/24
f 454/324/25 455/325/25 459/322/25 458/323/25
f 457/320/26 456/321/26 460/318/26 461/319/26
f 456/326/4 454/327/4 458/295/4 460/294/4
f 461/330/3 459/331/3 455/328/3 457/329/3
f 465/316/1 463/317/1 462/314/1 464/315/1
f 468/312/2 466/313/2 467/310/2 469/311/2
f 462/324/7 463/325/7 467/322/7 466/323/7
f 465/320/8 464/321/8 468/318/8 469/319/8
f 464/326/4 462/327/4 466/295/4 468/294/4
f 469/330/3 467/331/3 463/328/3 465/329/3
f 473/316/27 471/317/27 470/314/27 472/315/27
f 476/312/28 474/313/28 475/310/28 477/311/28
f 470/324/29 471/325/29 475/322/29 474/323/29
f 473/320/30 472/321/30 476/318/30 477/319/30
f 472/326/4 470/327/4 474/295/4 476/294/4
f 477/330/3 475/331/3 471/328/3 473/329/3
f 481/316/15 479/317/15 478/314/15 480/315/15
f 484/312/16 482/313/16 483/310/16 485/311/16
f 478/324/17 479/325/17 483/322/17 482/323/17
f 481/320/18 480/321/18 484/318/18 485/319/18
f 480/326/4 478/327/4 482/295/4 484/294/4
f 485/330/3 483/331/3 479/328/3 481/329/3
f 489/316/31 487/317/31 486/314/31 488/315/31
f 492/312/32 490/313/32 491/310/32 493/311/32
f 486/324/33 487/325/33 491/322/33 490/323/33
f 489/320/34 488/321/34 492/318/34 493/319/34
f 488/326/4 486/327/4 490/295/4 492/294/4
f 493/330/3 491/331/3 487/328/3 489/329/3
f 497/294/9 495/295/9 494/292/9 496/293/9
f 500/290/10 498/291/10 499/288/10 501/289/10
f 494/302/6 495/303/6 499/300/6 498/301/6
f 497/298/5 496/299/5 500/296/5 501/297/5
f 496/302/4 494/305/4 498/304/4 500/301/4
f 501/308/3 499/309/3 495/306/3 497/307/3
f 505/301/5 503/304/5 502/398/5 504/354/5
f 508/337/6 506/336/6 507/339/6 509/338/6
f 502/294/9 503/302/9 507/345/9 506/344/9
f 505/341/10 504/340/10 508/343/10 509/342/10
f 504/347/4 502/346/4 506/349/4 508/348/4
f 509/351/3 507/350/3 503/353/3 505/352/3
f 513/169/5 511/170/5 510/171/5 512/172/5
f 516/173/6 514/174/6 515/175/6 517/176/6
f 510/177/9 511/178/9 515/179/9 514/180/9
f 513/181/10 512/182/10 516/183/10 517/175/10
f 512/184/4 510/185/4 514/186/4 516/187/4
f 517/188/3 515/189/3 511/190/3 513/191/3
f 521/192/5 519/17/5 518/193/5 520/194/5
f 524/195/6 522/196/6 523/197/6 525/198/6
f 518/199/9 519/200/9 523/197/9 522/201/9
f 521/202/10 520/203/10 524/204/10 525/205/10
f 520/206/4 518/52/4 522/93/4 524/207/4
f 525/208/3 523/20/3 519/105/3 521/209/3
f 529/210/11 527/211/11 526/212/11 528/213/11
f 532/214/12 530/50/12 531/215/12 533/216/12
f 526/202/13 527/217/13 531/218/13 530/219/13
f 529/220/14 528/203/14 532/221/14 533/222/14
f 528/223/4 526/224/4 530/225/4 532/226/4
f 533/227/3 531/228/3 527/224/3 529/223/3
f 537/229/1 535/230/1 534/20/1 536/208/1
f 540/231/2 538/232/2 539/233/2 541/234/2
f 534/235/7 535/236/7 539/237/7 538/238/7
f 537/239/8 536/240/8 540/211/8 541/241/8
f 536/242/4 534/243/4 538/244/4 540/245/4
f 541/246/3 539/247/3 535/224/3 537/223/3
f 545/248/15 543/249/15 542/105/15 544/209/15
f 548/250/16 546/251/16 547/252/16 549/253/16
f 542/254/17 543/255/17 547/256/17 546/257/17
f 545/258/18 544/203/18 548/221/18 549/259/18
f 544/260/4 542/6/4 546/233/4 548/234/4
f 549/261/3 547/262/3 543/263/3 545/264/3
f 553/260/9 551/6/9 550/52/9 552/206/9
f 556/208/10 554/20/10 555/92/10 557/265/10
f 550/202/6 551/200/6 555/212/6 554/266/6
f 553/267/5 552/67/5 556/93/5 557/268/5
f 552/269/4 550/270/4 554/203/4 556/271/4
f 557/272/3 555/23/3 551/273/3 553/274/3
f 561/272/9 559/23/9 558/20/9 560/208/9
f 564/214/10 562/50/10 563/104/10 565/275/10
f 558/276/6 559/273/6 563/277/6 562/278/6
f 561/279/5 560/64/5 564/280/5 565/281/5
f 560/282/4 558/33/4 562/283/4 564/284/4
f 565/285/3 563/286/3 559/36/3 561/287/3
f 569/216/17 567/215/17 566/50/17 568/214/17
f 572/213/18 570/212/18 571/211/18 573/210/18
f 566/219/16 567/218/16 571/217/16 570/202/16
f 569/222/15 568/221/15 572/203/15 573/220/15
f 568/226/4 566/225/4 570/224/4 572/223/4
f 573/223/3 571/224/3 567/228/3 569/227/3
f 577/275/10 575/104/10 574/50/10 576/214/10
f 580/208/9 578/20/9 579/23/9 581/272/9
f 574/278/5 575/277/5 579/273/5 578/276/5
f 577/281/6 576/280/6 580/64/6 581/279/6
f 576/284/4 574/283/4 578/33/4 580/282/4
f 581/287/3 579/36/3 575/286/3 577/285/3
f 585/265/10 583/92/10 582/20/10 584/208/10
f 588/206/9 586/52/9 587/6/9 589/260/9
f 582/266/5 583/212/5 587/200/5 586/202/5
f 585/268/6 584/93/6 588/67/6 589/267/6
f 584/271/4 582/203/4 586/270/4 588/269/4
f 589/274/3 587/273/3 583/23/3 585/272/3
f 593/253/13 591/252/13 590/251/13 592/250/13
f 596/209/14 594/105/14 595/249/14 597/248/14
f 590/257/12 591/256/12 595/255/12 594/254/12
f 593/259/11 592/221/11 596/203/11 597/258/11
f 592/234/4 590/233/4 594/6/4 596/260/4
f 597/264/3 595/263/3 591/262/3 593/261/3
f 601/234/7 599/233/7 598/232/7 600/231/7
f 604/208/8 602/20/8 603/230/8 605/229/8
f 598/238/2 599/237/2 603/236/2 602/235/2
f 601/241/1 600/211/1 604/240/1 605/239/1
f 600/245/4 598/244/4 602/243/4 604/242/4
f 605/223/3 603/224/3 599/247/3 601/246/3
f 609/399/5 607/400/5 606/401/5 608/191/5
f 612/399/6 610/400/6 611/401/6 613/191/6
f 606/402/9 607/403/9 611/401/9 610/404/9
f 609/405/10 608/406/10 612/407/10 613/191/10
f 608/405/4 606/403/4 610/401/4 612/191/4
f 613/405/3 611/403/3 607/401/3 609/191/3
f 617/408/5 615/409/5 614/410/5 616/411/5
f 620/411/6 618/410/6 619/412/6 621/413/6
f 614/414/9 615/415/9 619/416/9 618/400/9
f 617/414/10 616/415/10 620/416/10 621/400/10
f 616/414/4 614/415/4 618/416/4 620/400/4
f 621/414/3 619/415/3 615/416/3 617/400/3
f 625/417/5 623/418/5 622/419/5 624/409/5
f 628/410/6 626/420/6 627/421/6 629/412/6
f 622/422/9 623/423/9 627/424/9 626/425/9
f 625/422/10 624/423/10 628/424/10 629/425/10
f 624/422/4 622/423/4 626/424/4 628/425/4
f 629/422/3 627/423/3 623/424/3 625/425/3
f 633/141/35 631/426/35 630/119/35 632/138/35
f 636/427/36 634/428/36 635/426/36 637/141/36
f 630/429/9 631/430/9 635/138/9 634/116/9
f 633/430/10 632/431/10 636/119/10 637/138/10
f 632/430/37 630/431/37 634/119/37 636/138/37
f 637/430/38 635/431/38 631/119/38 633/138/38
f 641/141/39 639/426/39 638/428/39 640/427/39
f 644/138/40 642/119/40 643/426/40 645/141/40
f 638/116/9 639/138/9 643/430/9 642/429/9
f 641/138/10 640/119/10 644/431/10 645/430/10
f 640/138/41 638/119/41 642/431/41 644/430/41
f 645/138/42 643/119/42 639/431/42 641/430/42
f 1/432/5 647/433/5 646/434/5 648/435/5
f 651/432/6 649/433/6 650/434/6 652/435/6
f 646/436/9 647/437/9 650/434/9 649/438/9
f 1/439/10 648/433/10 651/437/10 652/436/10
f 648/440/4 646/437/4 649/434/4 651/435/4
f 652/432/3 650/433/3 647/437/3 1/440/3
f 656/432/5 654/433/5 653/434/5 655/435/5
f 659/432/6 657/433/6 658/434/6 660/435/6
f 653/436/9 654/437/9 658/434/9 657/438/9
f 656/439/10 655/433/10 659/437/10 660/436/10
f 655/440/4 653/437/4 657/434/4 659/435/4
f 660/432/3 658/433/3 654/437/3 656/440/3
f 664/136/5 662/137/5 661/138/5 663/116/5
f 667/139/6 665/140/6 666/141/6 668/142/6
f 661/143/9 662/144/9 666/138/9 665/145/9
f 664/146/10 663/147/10 667/119/10 668/148/10
f 663/149/4 661/144/4 665/138/4 667/116/4
f 668/149/3 666/144/3 662/138/3 664/116/3
f 672/141/35 670/426/35 669/119/35 671/138/35
f 675/427/36 673/428/36 674/426/36 676/141/36
f 669/429/9 670/430/9 674/138/9 673/116/9
f 672/430/10 671/431/10 675/119/10 676/138/10
f 671/430/37 669/431/37 673/119/37 675/138/37
f 676/430/38 674/431/38 670/119/38 672/138/38
f 680/430/39 678/431/39 677/428/39 679/427/39
f 683/427/40 681/428/40 682/426/40 684/141/40
f 677/438/9 678/441/9 682/430/9 681/429/9
f 680/441/10 679/434/10 683/431/10 684/430/10
f 679/441/41 677/434/41 681/431/41 683/430/41
f 684/441/42 682/434/42 678/431/42 680/430/42
f 688/432/5 686/433/5 685/434/5 687/435/5
f 691/432/6 689/433/6 690/434/6 692/435/6
f 685/436/9 686/437/9 690/434/9 689/438/9
f 688/439/10 687/433/10 691/437/10 692/436/10
f 687/440/4 685/437/4 689/434/4 691/435/4
f 692/432/3 690/433/3 686/437/3 688/440/3
f 696/432/5 694/433/5 693/434/5 695/435/5
f 699/432/6 697/433/6 698/434/6 700/435/6
f 693/436/9 694/437/9 698/434/9 697/438/9
f 696/439/10 695/433/10 699/437/10 700/436/10
f 695/440/4 693/437/4 697/434/4 699/435/4
f 700/432/3 698/433/3 694/437/3 696/440/3
f 704/442/5 702/428/5 701/119/5 703/443/5
f 707/442/6 705/428/6 706/119/6 708/443/6
f 701/438/9 702/434/9 706/119/9 705/116/9
f 704/438/10 703/434/10 707/119/10 708/116/10
f 703/444/4 701/434/4 705/119/4 707/443/4
f 708/444/3 706/434/3 702/119/3 704/443/3
f 712/445/5 710/123/5 709/446/5 711/447/5
f 715/445/6 713/123/6 714/446/6 716/447/6
f 709/448/9 710/449/9 714/450/9 713/451/9
f 712/448/10 711/449/10 715/450/10 716/451/10
f 711/452/4 709/453/4 713/454/4 715/455/4
f 716/452/3 714/453/3 710/454/3 712/455/3
f 720/442/5 718/428/5 717/119/5 719/443/5
f 723/442/6 721/428/6 722/119/6 724/443/6
f 717/438/9 718/434/9 722/119/9 721/116/9
f 720/438/10 719/434/10 723/119/10 724/116/10
f 719/444/4 717/434/4 721/119/4 723/443/4
f 724/444/3 722/434/3 718/119/3 720/443/3
f 728/456/5 726/442/5 725/443/5 727/457/5
f 731/456/6 729/442/6 730/443/6 732/457/6
f 725/458/9 726/459/9 730/460/9 729/461/9
f 728/458/10 727/459/10 731/460/10 732/461/10
f 727/462/4 725/463/4 729/464/4 731/465/4
f 732/462/3 730/463/3 726/464/3 728/465/3
f 736/466/5 734/467/5 733/468/5 735/469/5
f 739/466/6 737/467/6 738/468/6 740/469/6
f 733/470/9 734/467/9 738/468/9 737/471/9
f 736/470/10 735/467/10 739/468/10 740/471/10
f 735/466/4 733/467/4 737/468/4 739/469/4
f 740/466/3 738/467/3 734/468/3 736/469/3
