# Blender 5.1.2
# www.blender.org
mtllib 4l_dwarf_signal_modern.mtl
o cube.005
v 0.337500 0.650000 0.159375
v 0.337500 0.650000 -0.168813
v 0.337500 0.218750 0.159375
v 0.337500 0.218750 -0.168812
v -0.337500 0.650000 0.159375
v -0.337500 0.650000 -0.168813
v -0.337500 0.218750 0.159375
v -0.337500 0.218750 -0.168812
v 0.187500 0.250000 -0.153125
v 0.187500 0.250000 -0.215625
v 0.187500 0.187500 -0.153125
v 0.187500 0.187500 -0.215625
v 0.125000 0.250000 -0.153125
v 0.125000 0.250000 -0.215625
v 0.125000 0.187500 -0.153125
v 0.125000 0.187500 -0.215625
v 0.302547 0.572416 -0.278992
v 0.280449 0.550319 -0.100867
v 0.280449 0.550319 -0.278992
v 0.285667 0.589296 -0.100867
v 0.285667 0.589296 -0.278992
v 0.263569 0.567199 -0.100867
v 0.263569 0.567199 -0.278992
v 0.069673 0.572416 -0.260242
v 0.098544 0.560457 -0.100867
v 0.098544 0.560457 -0.260242
v 0.051735 0.529109 -0.100867
v 0.051735 0.529109 -0.260242
v 0.080606 0.517150 -0.100867
v 0.080606 0.517150 -0.260242
v 0.086553 0.589296 -0.100867
v 0.086553 0.589296 -0.278992
v 0.108650 0.567199 -0.100867
v 0.108650 0.567199 -0.278992
v 0.069673 0.572416 -0.100867
v 0.069673 0.572416 -0.278992
v 0.091770 0.550319 -0.100867
v 0.091770 0.550319 -0.278992
v 0.125000 0.218750 0.115625
v 0.125000 0.218750 -0.115625
v 0.125000 0.000000 0.115625
v 0.125000 -0.000000 -0.115625
v -0.125000 0.218750 0.115625
v -0.125000 0.218750 -0.115625
v -0.125000 0.000000 0.115625
v -0.125000 -0.000000 -0.115625
v 0.206250 0.343750 -0.184375
v 0.206250 0.343750 -0.190625
v 0.206250 0.093750 -0.184375
v 0.206250 0.093750 -0.190625
v -0.206250 0.343750 -0.184375
v -0.206250 0.343750 -0.190625
v -0.206250 0.093750 -0.184375
v -0.206250 0.093750 -0.190625
v -0.125000 0.250000 -0.153125
v -0.125000 0.250000 -0.215625
v -0.125000 0.187500 -0.153125
v -0.125000 0.187500 -0.215625
v -0.187500 0.250000 -0.153125
v -0.187500 0.250000 -0.215625
v -0.187500 0.187500 -0.153125
v -0.187500 0.187500 -0.215625
v 0.306250 1.025000 0.178125
v 0.306250 1.025000 0.034375
v 0.306250 0.662500 0.178125
v 0.306250 0.662500 0.034375
v -0.112500 1.025000 0.178125
v -0.112500 1.025000 0.034375
v -0.112500 0.662500 0.178125
v -0.112500 0.662500 0.034375
v 0.337500 1.071875 0.159375
v 0.337500 1.071875 -0.168813
v -0.134375 1.071875 0.159375
v -0.134375 1.071875 -0.168813
v -0.134375 0.650000 0.159375
v -0.134375 0.650000 -0.168813
v 0.268750 0.218750 0.159375
v 0.268750 0.218750 -0.171875
v 0.268750 0.168750 0.159375
v 0.268750 0.168750 -0.171875
v -0.268750 0.218750 0.159375
v -0.268750 0.218750 -0.171875
v -0.268750 0.168750 0.159375
v -0.268750 0.168750 -0.171875
v -0.244488 0.248340 0.153125
v -0.244488 0.248340 -0.165625
v -0.268406 0.190598 0.153125
v -0.268406 0.190598 -0.165625
v -0.313779 0.277041 0.153125
v -0.313779 0.277041 -0.165625
v -0.337697 0.219299 0.153125
v -0.337697 0.219299 -0.165625
v 0.313779 0.277041 0.153125
v 0.313779 0.277041 -0.165625
v 0.337697 0.219299 0.153125
v 0.337697 0.219299 -0.165625
v 0.244488 0.248340 0.153125
v 0.244488 0.248340 -0.165625
v 0.268406 0.190598 0.153125
v 0.268406 0.190598 -0.165625
v -0.262500 0.481250 0.190625
v -0.262500 0.481250 0.128125
v -0.262500 0.418750 0.190625
v -0.262500 0.418750 0.128125
v -0.325000 0.481250 0.190625
v -0.325000 0.481250 0.128125
v -0.325000 0.418750 0.190625
v -0.325000 0.418750 0.128125
v 0.306250 0.625000 0.178125
v 0.306250 0.625000 0.034375
v 0.306250 0.262500 0.178125
v 0.306250 0.262500 0.034375
v -0.312500 0.625000 0.178125
v -0.312500 0.625000 0.034375
v -0.312500 0.262500 0.178125
v -0.312500 0.262500 0.034375
v -0.011017 1.011710 0.159437
v -0.011017 1.011710 -0.168063
v -0.053769 0.894249 0.159437
v -0.053769 0.894249 -0.168063
v -0.128478 1.054463 0.159437
v -0.128478 1.054463 -0.168063
v -0.171231 0.937001 0.159437
v -0.171231 0.937001 -0.168063
v 0.300000 1.087500 0.115625
v 0.300000 1.087500 -0.146875
v 0.300000 1.000000 0.115625
v 0.300000 1.000000 -0.146875
v -0.106250 1.087500 0.115625
v -0.106250 1.087500 -0.146875
v -0.106250 1.000000 0.115625
v -0.106250 1.000000 -0.146875
v -0.068750 0.856250 0.190625
v -0.068750 0.856250 0.128125
v -0.068750 0.793750 0.190625
v -0.068750 0.793750 0.128125
v -0.131250 0.856250 0.190625
v -0.131250 0.856250 0.128125
v -0.131250 0.793750 0.190625
v -0.131250 0.793750 0.128125
v 0.153988 0.822611 0.160062
v 0.153988 0.822611 -0.168063
v -0.022580 0.615876 0.160062
v -0.022580 0.615876 -0.168063
v -0.109777 1.047888 0.160062
v -0.109777 1.047888 -0.168063
v -0.286346 0.841153 0.160062
v -0.286346 0.841153 -0.168063
v 0.047170 0.756134 0.160000
v 0.047170 0.756134 -0.167500
v -0.002906 0.562504 0.160000
v -0.002906 0.562504 -0.167500
v -0.288656 0.842984 0.160000
v -0.288656 0.842984 -0.167500
v -0.338732 0.649355 0.160000
v -0.338732 0.649355 -0.167500
v 0.243750 1.037500 -0.100000
v 0.243750 1.037500 -0.321875
v 0.243750 1.006250 -0.100000
v 0.243750 1.006250 -0.321875
v 0.131250 1.037500 -0.100000
v 0.131250 1.037500 -0.321875
v 0.131250 1.006250 -0.100000
v 0.131250 1.006250 -0.321875
v 0.287057 1.019562 -0.115625
v 0.287057 1.019562 -0.300000
v 0.275098 0.990691 -0.115625
v 0.275098 0.990691 -0.300000
v 0.243750 1.037500 -0.115625
v 0.243750 1.037500 -0.300000
v 0.231791 1.008629 -0.115625
v 0.231791 1.008629 -0.300000
v 0.303937 1.002682 -0.100000
v 0.303937 1.002682 -0.278125
v 0.281840 0.980585 -0.100000
v 0.281840 0.980585 -0.278125
v 0.287057 1.019562 -0.100000
v 0.287057 1.019562 -0.278125
v 0.264960 0.997465 -0.100000
v 0.264960 0.997465 -0.278125
v 0.321875 0.959375 -0.100000
v 0.321875 0.959375 -0.259375
v 0.293004 0.947416 -0.100000
v 0.293004 0.947416 -0.259375
v 0.303937 1.002682 -0.259375
v 0.275065 0.990723 -0.100000
v 0.275065 0.990723 -0.259375
v 0.053125 0.959375 -0.115625
v 0.053125 0.959375 -0.228125
v 0.084375 0.959375 -0.115625
v 0.084375 0.959375 -0.228125
v 0.053125 0.921875 -0.115625
v 0.053125 0.921875 -0.228125
v 0.084375 0.921875 -0.115625
v 0.084375 0.921875 -0.228125
v 0.290625 0.921875 -0.100000
v 0.290625 0.921875 -0.200000
v 0.321875 0.921875 -0.100000
v 0.321875 0.921875 -0.200000
v 0.290625 0.903125 -0.100000
v 0.290625 0.903125 -0.200000
v 0.321875 0.903125 -0.100000
v 0.321875 0.903125 -0.200000
v 0.131250 1.037500 -0.115625
v 0.131250 1.037500 -0.300000
v 0.143209 1.008629 -0.115625
v 0.143209 1.008629 -0.300000
v 0.087943 1.019562 -0.115625
v 0.087943 1.019562 -0.300000
v 0.099902 0.990691 -0.115625
v 0.099902 0.990691 -0.300000
v 0.084375 0.903125 -0.100000
v 0.084375 0.903125 -0.200000
v 0.053125 0.903125 -0.100000
v 0.053125 0.903125 -0.200000
v 0.084375 0.921875 -0.100000
v 0.084375 0.921875 -0.200000
v 0.053125 0.921875 -0.100000
v 0.053125 0.921875 -0.200000
v 0.071063 1.002682 -0.259375
v 0.099935 0.990723 -0.100000
v 0.099935 0.990723 -0.259375
v 0.053125 0.959375 -0.100000
v 0.053125 0.959375 -0.259375
v 0.081996 0.947416 -0.100000
v 0.081996 0.947416 -0.259375
v 0.087943 1.019562 -0.100000
v 0.087943 1.019562 -0.278125
v 0.110040 0.997465 -0.100000
v 0.110040 0.997465 -0.278125
v 0.071063 1.002682 -0.100000
v 0.071063 1.002682 -0.278125
v 0.093160 0.980585 -0.100000
v 0.093160 0.980585 -0.278125
v 0.290625 0.959375 -0.115625
v 0.290625 0.959375 -0.228125
v 0.321875 0.959375 -0.115625
v 0.321875 0.959375 -0.228125
v 0.290625 0.921875 -0.115625
v 0.290625 0.921875 -0.228125
v 0.321875 0.921875 -0.115625
v 0.321875 0.921875 -0.228125
v -0.043750 0.937500 -0.100000
v -0.043750 0.937500 -0.321875
v -0.043750 0.906250 -0.100000
v -0.043750 0.906250 -0.321875
v -0.156250 0.937500 -0.100000
v -0.156250 0.937500 -0.321875
v -0.156250 0.906250 -0.100000
v -0.156250 0.906250 -0.321875
v -0.000443 0.919562 -0.115625
v -0.000443 0.919562 -0.300000
v -0.012402 0.890691 -0.115625
v -0.012402 0.890691 -0.300000
v -0.043750 0.937500 -0.115625
v -0.043750 0.937500 -0.300000
v -0.055709 0.908629 -0.115625
v -0.055709 0.908629 -0.300000
v -0.156250 0.937500 -0.115625
v -0.156250 0.937500 -0.300000
v -0.144291 0.908629 -0.115625
v -0.144291 0.908629 -0.300000
v -0.199557 0.919562 -0.115625
v -0.199557 0.919562 -0.300000
v -0.187598 0.890691 -0.115625
v -0.187598 0.890691 -0.300000
v -0.234375 0.859375 -0.115625
v -0.234375 0.859375 -0.228125
v -0.203125 0.859375 -0.115625
v -0.203125 0.859375 -0.228125
v -0.234375 0.821875 -0.115625
v -0.234375 0.821875 -0.228125
v -0.203125 0.821875 -0.115625
v -0.203125 0.821875 -0.228125
v -0.203125 0.803125 -0.100000
v -0.203125 0.803125 -0.200000
v -0.234375 0.803125 -0.100000
v -0.234375 0.803125 -0.200000
v -0.203125 0.821875 -0.100000
v -0.203125 0.821875 -0.200000
v -0.234375 0.821875 -0.100000
v -0.234375 0.821875 -0.200000
v 0.003125 0.821875 -0.100000
v 0.003125 0.821875 -0.200000
v 0.034375 0.821875 -0.100000
v 0.034375 0.821875 -0.200000
v 0.003125 0.803125 -0.100000
v 0.003125 0.803125 -0.200000
v 0.034375 0.803125 -0.100000
v 0.034375 0.803125 -0.200000
v 0.003125 0.859375 -0.115625
v 0.003125 0.859375 -0.228125
v 0.034375 0.859375 -0.115625
v 0.034375 0.859375 -0.228125
v 0.003125 0.821875 -0.115625
v 0.003125 0.821875 -0.228125
v 0.034375 0.821875 -0.115625
v 0.034375 0.821875 -0.228125
v 0.034375 0.859375 -0.100000
v 0.034375 0.859375 -0.259375
v 0.005504 0.847416 -0.100000
v 0.005504 0.847416 -0.259375
v 0.016437 0.902682 -0.100000
v 0.016437 0.902682 -0.259375
v -0.012435 0.890723 -0.100000
v -0.012435 0.890723 -0.259375
v 0.016437 0.902682 -0.278125
v -0.005660 0.880585 -0.100000
v -0.005660 0.880585 -0.278125
v -0.000443 0.919562 -0.100000
v -0.000443 0.919562 -0.278125
v -0.022540 0.897465 -0.100000
v -0.022540 0.897465 -0.278125
v -0.216437 0.902682 -0.100000
v -0.216437 0.902682 -0.259375
v -0.187565 0.890723 -0.100000
v -0.187565 0.890723 -0.259375
v -0.234375 0.859375 -0.100000
v -0.234375 0.859375 -0.259375
v -0.205504 0.847416 -0.100000
v -0.205504 0.847416 -0.259375
v -0.199557 0.919562 -0.100000
v -0.199557 0.919562 -0.278125
v -0.177460 0.897465 -0.100000
v -0.177460 0.897465 -0.278125
v -0.216437 0.902682 -0.278125
v -0.194340 0.880585 -0.100000
v -0.194340 0.880585 -0.278125
v -0.131250 0.607410 -0.100416
v -0.131250 0.607410 -0.322291
v -0.131250 0.576160 -0.100416
v -0.131250 0.576160 -0.322291
v -0.243750 0.607410 -0.100416
v -0.243750 0.607410 -0.322291
v -0.243750 0.576160 -0.100416
v -0.243750 0.576160 -0.322291
v -0.087943 0.589471 -0.116041
v -0.087943 0.589471 -0.300416
v -0.099902 0.560600 -0.116041
v -0.099902 0.560600 -0.300416
v -0.131250 0.607410 -0.116041
v -0.131250 0.607410 -0.300416
v -0.143209 0.578538 -0.116041
v -0.143209 0.578538 -0.300416
v -0.243750 0.607410 -0.116041
v -0.243750 0.607410 -0.300416
v -0.231791 0.578538 -0.116041
v -0.231791 0.578538 -0.300416
v -0.287057 0.589471 -0.116041
v -0.287057 0.589471 -0.300416
v -0.275098 0.560600 -0.116041
v -0.275098 0.560600 -0.300416
v -0.321875 0.529285 -0.116041
v -0.321875 0.529285 -0.228541
v -0.290625 0.529285 -0.116041
v -0.290625 0.529285 -0.228541
v -0.321875 0.491785 -0.116041
v -0.321875 0.491784 -0.228541
v -0.290625 0.491785 -0.116041
v -0.290625 0.491784 -0.228541
v -0.290625 0.473035 -0.100416
v -0.290625 0.473034 -0.200416
v -0.321875 0.473035 -0.100416
v -0.321875 0.473034 -0.200416
v -0.290625 0.491785 -0.100416
v -0.290625 0.491784 -0.200416
v -0.321875 0.491785 -0.100416
v -0.321875 0.491784 -0.200416
v -0.084375 0.491785 -0.100416
v -0.084375 0.491784 -0.200416
v -0.053125 0.491785 -0.100416
v -0.053125 0.491784 -0.200416
v -0.084375 0.473035 -0.100416
v -0.084375 0.473034 -0.200416
v -0.053125 0.473035 -0.100416
v -0.053125 0.473034 -0.200416
v -0.084375 0.529285 -0.116041
v -0.084375 0.529285 -0.228541
v -0.053125 0.529285 -0.116041
v -0.053125 0.529285 -0.228541
v -0.084375 0.491785 -0.116041
v -0.084375 0.491784 -0.228541
v -0.053125 0.491785 -0.116041
v -0.053125 0.491784 -0.228541
v -0.053125 0.529285 -0.100416
v -0.053125 0.529285 -0.259791
v -0.081996 0.517326 -0.100416
v -0.081996 0.517326 -0.259791
v -0.071063 0.572591 -0.259791
v -0.099935 0.560633 -0.100416
v -0.099935 0.560633 -0.259791
v -0.071063 0.572591 -0.100416
v -0.071063 0.572591 -0.278541
v -0.093160 0.550494 -0.100416
v -0.093160 0.550494 -0.278541
v -0.087943 0.589471 -0.100416
v -0.087943 0.589471 -0.278541
v -0.110040 0.567374 -0.100416
v -0.110040 0.567374 -0.278541
v -0.303937 0.572591 -0.259791
v -0.275065 0.560633 -0.100416
v -0.275065 0.560633 -0.259791
v -0.321875 0.529285 -0.100416
v -0.321875 0.529285 -0.259791
v -0.293004 0.517326 -0.100416
v -0.293004 0.517326 -0.259791
v -0.287057 0.589471 -0.100416
v -0.287057 0.589471 -0.278541
v -0.264960 0.567374 -0.100416
v -0.264960 0.567374 -0.278541
v -0.303937 0.572591 -0.100416
v -0.303937 0.572591 -0.278541
v -0.281840 0.550494 -0.100416
v -0.281840 0.550494 -0.278541
v 0.242360 0.607234 -0.100867
v 0.242360 0.607234 -0.322742
v 0.242360 0.575984 -0.100867
v 0.242360 0.575984 -0.322742
v 0.129860 0.607234 -0.100867
v 0.129860 0.607234 -0.322742
v 0.129860 0.575984 -0.100867
v 0.129860 0.575984 -0.322742
v 0.285667 0.589296 -0.116492
v 0.285667 0.589296 -0.300867
v 0.273708 0.560425 -0.116492
v 0.273708 0.560425 -0.300867
v 0.242360 0.607234 -0.116492
v 0.242360 0.607234 -0.300867
v 0.230401 0.578363 -0.116492
v 0.230401 0.578363 -0.300867
v 0.129860 0.607234 -0.116492
v 0.129860 0.607234 -0.300867
v 0.141819 0.578363 -0.116492
v 0.141819 0.578363 -0.300867
v 0.086553 0.589296 -0.116492
v 0.086553 0.589296 -0.300867
v 0.098512 0.560425 -0.116492
v 0.098512 0.560425 -0.300867
v 0.051735 0.529109 -0.116492
v 0.051735 0.529109 -0.228992
v 0.082985 0.529109 -0.116492
v 0.082985 0.529109 -0.228992
v 0.051735 0.491609 -0.116492
v 0.051735 0.491609 -0.228992
v 0.082985 0.491609 -0.116492
v 0.082985 0.491609 -0.228992
v 0.082985 0.472859 -0.100867
v 0.082985 0.472859 -0.200867
v 0.051735 0.472859 -0.100867
v 0.051735 0.472859 -0.200867
v 0.082985 0.491609 -0.100867
v 0.082985 0.491609 -0.200867
v 0.051735 0.491609 -0.100867
v 0.051735 0.491609 -0.200867
v 0.289235 0.491609 -0.100867
v 0.289235 0.491609 -0.200867
v 0.320485 0.491609 -0.100867
v 0.320485 0.491609 -0.200867
v 0.289235 0.472859 -0.100867
v 0.289235 0.472859 -0.200867
v 0.320485 0.472859 -0.100867
v 0.320485 0.472859 -0.200867
v 0.289235 0.529109 -0.116492
v 0.289235 0.529109 -0.228992
v 0.320485 0.529109 -0.116492
v 0.320485 0.529109 -0.228992
v 0.289235 0.491609 -0.116492
v 0.289235 0.491609 -0.228992
v 0.320485 0.491609 -0.116492
v 0.320485 0.491609 -0.228992
v 0.320485 0.529109 -0.100867
v 0.320485 0.529109 -0.260242
v 0.291614 0.517150 -0.100867
v 0.291614 0.517150 -0.260242
v 0.302547 0.572416 -0.100867
v 0.302547 0.572416 -0.260242
v 0.273675 0.560457 -0.100867
v 0.273675 0.560457 -0.260242
v -0.054696 0.687500 -0.178125
v -0.054696 0.687500 -0.146875
v -0.063907 0.709738 -0.178125
v -0.063907 0.709738 -0.146875
v 0.009375 0.751571 -0.178125
v 0.009375 0.751571 -0.146875
v -0.012863 0.760782 -0.178125
v -0.012863 0.760782 -0.146875
v 0.009375 0.842179 -0.178125
v 0.009375 0.842179 -0.146875
v -0.012863 0.832968 -0.178125
v -0.012863 0.832968 -0.146875
v -0.054696 0.906250 -0.178125
v -0.054696 0.906250 -0.146875
v -0.063907 0.884012 -0.178125
v -0.063907 0.884012 -0.146875
v -0.145304 0.906250 -0.178125
v -0.145304 0.906250 -0.146875
v -0.136093 0.884012 -0.178125
v -0.136093 0.884012 -0.146875
v -0.209375 0.842179 -0.178125
v -0.209375 0.842179 -0.146875
v -0.187137 0.832968 -0.178125
v -0.187137 0.832968 -0.146875
v -0.209375 0.751571 -0.178125
v -0.209375 0.751571 -0.146875
v -0.187137 0.760782 -0.178125
v -0.187137 0.760782 -0.146875
v -0.145304 0.687500 -0.178125
v -0.145304 0.687500 -0.146875
v -0.136093 0.709738 -0.178125
v -0.136093 0.709738 -0.146875
v -0.142196 0.357410 -0.178541
v -0.142196 0.357410 -0.147291
v -0.151407 0.379648 -0.178541
v -0.151407 0.379648 -0.147291
v -0.078125 0.421480 -0.178541
v -0.078125 0.421480 -0.147291
v -0.100363 0.430691 -0.178541
v -0.100363 0.430691 -0.147291
v -0.078125 0.512089 -0.178541
v -0.078125 0.512089 -0.147291
v -0.100363 0.502878 -0.178541
v -0.100363 0.502878 -0.147291
v -0.142196 0.576160 -0.178541
v -0.142196 0.576160 -0.147291
v -0.151407 0.553921 -0.178541
v -0.151407 0.553921 -0.147291
v -0.232804 0.576160 -0.178541
v -0.232804 0.576160 -0.147291
v -0.223593 0.553921 -0.178541
v -0.223593 0.553921 -0.147291
v -0.296875 0.512089 -0.178541
v -0.296875 0.512089 -0.147291
v -0.274637 0.502878 -0.178541
v -0.274637 0.502878 -0.147291
v -0.296875 0.421480 -0.178541
v -0.296875 0.421480 -0.147291
v -0.274637 0.430691 -0.178541
v -0.274637 0.430691 -0.147291
v -0.232804 0.357410 -0.178541
v -0.232804 0.357410 -0.147291
v -0.223593 0.379648 -0.178541
v -0.223593 0.379648 -0.147291
v 0.231414 0.357234 -0.178992
v 0.231414 0.357234 -0.147742
v 0.222203 0.379472 -0.178992
v 0.222203 0.379472 -0.147742
v 0.295485 0.421305 -0.178992
v 0.295485 0.421305 -0.147742
v 0.273247 0.430516 -0.178992
v 0.273247 0.430516 -0.147742
v 0.295485 0.511914 -0.178992
v 0.295485 0.511914 -0.147742
v 0.273247 0.502702 -0.178992
v 0.273247 0.502702 -0.147742
v 0.231414 0.575984 -0.178992
v 0.231414 0.575984 -0.147742
v 0.222203 0.553746 -0.178992
v 0.222203 0.553746 -0.147742
v 0.140805 0.575984 -0.178992
v 0.140805 0.575984 -0.147742
v 0.150017 0.553746 -0.178992
v 0.150017 0.553746 -0.147742
v 0.076735 0.511914 -0.178992
v 0.076735 0.511914 -0.147742
v 0.098973 0.502702 -0.178992
v 0.098973 0.502702 -0.147742
v 0.076735 0.421305 -0.178992
v 0.076735 0.421305 -0.147742
v 0.098973 0.430516 -0.178992
v 0.098973 0.430516 -0.147742
v 0.140805 0.357234 -0.178992
v 0.140805 0.357234 -0.147742
v 0.150017 0.379472 -0.178992
v 0.150017 0.379472 -0.147742
v 0.232804 0.787500 -0.178125
v 0.232804 0.787500 -0.146875
v 0.223593 0.809738 -0.178125
v 0.223593 0.809738 -0.146875
v 0.296875 0.851571 -0.178125
v 0.296875 0.851571 -0.146875
v 0.274637 0.860782 -0.178125
v 0.274637 0.860782 -0.146875
v 0.296875 0.942179 -0.178125
v 0.296875 0.942179 -0.146875
v 0.274637 0.932968 -0.178125
v 0.274637 0.932968 -0.146875
v 0.232804 1.006250 -0.178125
v 0.232804 1.006250 -0.146875
v 0.223593 0.984012 -0.178125
v 0.223593 0.984012 -0.146875
v 0.142196 1.006250 -0.178125
v 0.142196 1.006250 -0.146875
v 0.151407 0.984012 -0.178125
v 0.151407 0.984012 -0.146875
v 0.078125 0.942179 -0.178125
v 0.078125 0.942179 -0.146875
v 0.100363 0.932968 -0.178125
v 0.100363 0.932968 -0.146875
v 0.078125 0.851571 -0.178125
v 0.078125 0.851571 -0.146875
v 0.100363 0.860782 -0.178125
v 0.100363 0.860782 -0.146875
v 0.142196 0.787500 -0.178125
v 0.142196 0.787500 -0.146875
v 0.151407 0.809738 -0.178125
v 0.151407 0.809738 -0.146875
vn 1.0000 -0.0000 -0.0000
vn -1.0000 -0.0000 -0.0000
vn -0.0000 1.0000 -0.0000
vn -0.0000 -1.0000 -0.0000
vn -0.0000 -0.0000 1.0000
vn -0.0000 -0.0000 -1.0000
vn 0.7071 -0.7071 -0.0000
vn -0.7071 0.7071 -0.0000
vn 0.7071 0.7071 -0.0000
vn -0.7071 -0.7071 -0.0000
vn 0.3827 0.9239 -0.0000
vn -0.3827 -0.9239 -0.0000
vn -0.9239 0.3827 -0.0000
vn 0.9239 -0.3827 -0.0000
vn 0.9239 0.3827 -0.0000
vn -0.9239 -0.3827 -0.0000
vn -0.3827 0.9239 -0.0000
vn 0.3827 -0.9239 -0.0000
vn 0.9397 -0.3420 -0.0000
vn -0.9397 0.3420 -0.0000
vn 0.3420 0.9397 -0.0000
vn -0.3420 -0.9397 -0.0000
vn 0.7604 -0.6494 -0.0000
vn -0.7604 0.6494 -0.0000
vn 0.6494 0.7604 -0.0000
vn -0.6494 -0.7604 -0.0000
vn 0.9681 -0.2504 -0.0000
vn -0.9681 0.2504 -0.0000
vn 0.2504 0.9681 -0.0000
vn -0.2504 -0.9681 -0.0000
vt 0.781250 0.078125
vt 0.781250 0.187500
vt 0.859375 0.187500
vt 0.859375 0.078125
vt 0.765625 0.187500
vt 0.765625 0.296875
vt 0.843750 0.296875
vt 0.843750 0.187500
vt 0.265625 0.468750
vt 0.265625 0.546875
vt 0.437500 0.546875
vt 0.437500 0.468750
vt 0.812500 0.187500
vt 0.812500 0.109375
vt 0.984375 0.109375
vt 0.984375 0.187500
vt 0.500000 0.343750
vt 0.500000 0.484375
vt 0.734375 0.484375
vt 0.734375 0.343750
vt 0.281250 0.437500
vt 0.281250 0.546875
vt 0.453125 0.546875
vt 0.453125 0.437500
vt 0.875000 0.125000
vt 0.875000 0.140625
vt 0.890625 0.140625
vt 0.890625 0.125000
vt 0.875000 0.250000
vt 0.875000 0.265625
vt 0.890625 0.265625
vt 0.890625 0.250000
vt 0.906250 0.250000
vt 0.906250 0.265625
vt 0.921875 0.265625
vt 0.921875 0.250000
vt 0.812500 0.171875
vt 0.812500 0.156250
vt 0.828125 0.156250
vt 0.828125 0.171875
vt 0.875000 0.187500
vt 0.875000 0.203125
vt 0.890625 0.203125
vt 0.890625 0.187500
vt 0.812500 0.218750
vt 0.812500 0.234375
vt 0.828125 0.234375
vt 0.828125 0.218750
vt 0.199219 0.382812
vt 0.199219 0.390625
vt 0.125000 0.390625
vt 0.125000 0.382812
vt 0.218750 0.367188
vt 0.218750 0.375000
vt 0.144531 0.375000
vt 0.144531 0.367188
vt 0.103624 0.343750
vt 0.103624 0.417969
vt 0.097656 0.417969
vt 0.097656 0.343750
vt 0.119249 0.332031
vt 0.119249 0.406250
vt 0.113281 0.406250
vt 0.113281 0.332031
vt 0.087999 0.367188
vt 0.087999 0.375000
vt 0.082031 0.375000
vt 0.082031 0.367188
vt 0.084093 0.398438
vt 0.084093 0.406250
vt 0.078125 0.406250
vt 0.078125 0.398438
vt 0.050781 0.398438
vt 0.050781 0.406250
vt 0.125000 0.406250
vt 0.125000 0.398438
vt 0.093750 0.382812
vt 0.093750 0.390625
vt 0.167969 0.390625
vt 0.167969 0.382812
vt 0.066406 0.343750
vt 0.066406 0.417969
vt 0.078125 0.417969
vt 0.078125 0.343750
vt 0.050781 0.347656
vt 0.050781 0.421875
vt 0.062500 0.421875
vt 0.062500 0.347656
vt 0.156250 0.375000
vt 0.156250 0.367188
vt 0.109375 0.382812
vt 0.109375 0.390625
vt 0.121094 0.390625
vt 0.121094 0.382812
vt 0.187500 0.765625
vt 0.187500 0.812500
vt 0.250000 0.812500
vt 0.250000 0.765625
vt 0.187500 0.750000
vt 0.250000 0.750000
vt 0.187500 0.796875
vt 0.250000 0.796875
vt 0.375000 0.750000
vt 0.375000 0.812500
vt 0.390625 0.812500
vt 0.390625 0.750000
vt 0.281250 0.750000
vt 0.281250 0.812500
vt 0.296875 0.812500
vt 0.296875 0.750000
vt 0.281250 0.796875
vt 0.390625 0.796875
vt 0.359375 0.640625
vt 0.359375 0.656250
vt 0.375000 0.656250
vt 0.375000 0.640625
vt 0.781250 0.109375
vt 0.781250 0.125000
vt 0.796875 0.125000
vt 0.796875 0.109375
vt 0.828125 0.250000
vt 0.828125 0.265625
vt 0.843750 0.265625
vt 0.843750 0.250000
vt 0.843750 0.140625
vt 0.843750 0.125000
vt 0.859375 0.125000
vt 0.859375 0.140625
vt 0.000000 0.984375
vt 0.000000 1.000000
vt 0.015625 1.000000
vt 0.015625 0.984375
vt 0.875000 0.171875
vt 0.890625 0.171875
vt 0.593750 0.359375
vt 0.593750 0.453125
vt 0.625000 0.453125
vt 0.625000 0.359375
vt 0.578125 0.375000
vt 0.578125 0.468750
vt 0.609375 0.468750
vt 0.609375 0.375000
vt 0.562500 0.421875
vt 0.562500 0.453125
vt 0.671875 0.453125
vt 0.671875 0.421875
vt 0.562500 0.375000
vt 0.562500 0.468750
vt 0.671875 0.468750
vt 0.671875 0.375000
vt 0.687500 0.468750
vt 0.687500 0.375000
vt 0.812500 0.281250
vt 0.890625 0.281250
vt 0.765625 0.125000
vt 0.765625 0.234375
vt 0.843750 0.234375
vt 0.328125 0.468750
vt 0.328125 0.546875
vt 0.453125 0.468750
vt 1.000000 0.125000
vt 1.000000 0.203125
vt 0.562500 0.359375
vt 0.687500 0.359375
vt 0.875000 0.312500
vt 1.000000 0.312500
vt 0.328125 0.578125
vt 0.328125 0.593750
vt 0.406250 0.593750
vt 0.406250 0.578125
vt 0.296875 0.453125
vt 0.296875 0.468750
vt 0.375000 0.468750
vt 0.375000 0.453125
vt 0.265625 0.625000
vt 0.265625 0.703125
vt 0.406250 0.703125
vt 0.406250 0.625000
vt 0.281250 0.718750
vt 0.281250 0.640625
vt 0.421875 0.640625
vt 0.421875 0.718750
vt 0.265625 0.687500
vt 0.406250 0.687500
vt 0.296875 0.515625
vt 0.296875 0.531250
vt 0.437500 0.531250
vt 0.437500 0.515625
vt 0.296875 0.265625
vt 0.296875 0.281250
vt 0.375000 0.281250
vt 0.375000 0.265625
vt 0.296875 0.234375
vt 0.296875 0.250000
vt 0.375000 0.250000
vt 0.375000 0.234375
vt 0.265625 0.203125
vt 0.265625 0.281250
vt 0.281250 0.281250
vt 0.281250 0.203125
vt 0.328125 0.281250
vt 0.328125 0.203125
vt 0.343750 0.203125
vt 0.343750 0.281250
vt 0.359375 0.203125
vt 0.359375 0.218750
vt 0.375000 0.218750
vt 0.375000 0.203125
vt 0.296875 0.218750
vt 0.312500 0.234375
vt 0.312500 0.218750
vt 0.312500 0.203125
vt 0.312500 0.281250
vt 0.359375 0.281250
vt 0.390625 0.234375
vt 0.390625 0.218750
vt 0.390625 0.250000
vt 0.843750 0.281250
vt 0.859375 0.281250
vt 0.859375 0.265625
vt 0.921875 0.234375
vt 0.937500 0.250000
vt 0.937500 0.234375
vt 0.937500 0.218750
vt 0.953125 0.234375
vt 0.953125 0.218750
vt 0.937500 0.296875
vt 0.937500 0.281250
vt 0.953125 0.281250
vt 0.953125 0.296875
vt 0.953125 0.265625
vt 0.968750 0.281250
vt 0.968750 0.265625
vt 0.640625 0.359375
vt 0.640625 0.453125
vt 0.671875 0.359375
vt 0.578125 0.359375
vt 0.578125 0.453125
vt 0.609375 0.453125
vt 0.609375 0.359375
vt 0.546875 0.406250
vt 0.546875 0.437500
vt 0.703125 0.437500
vt 0.703125 0.406250
vt 0.562500 0.343750
vt 0.562500 0.437500
vt 0.718750 0.437500
vt 0.718750 0.343750
vt 0.531250 0.343750
vt 0.531250 0.437500
vt 0.687500 0.437500
vt 0.687500 0.343750
vt 0.328125 0.640625
vt 0.328125 0.671875
vt 0.406250 0.671875
vt 0.406250 0.640625
vt 0.312500 0.546875
vt 0.312500 0.578125
vt 0.390625 0.578125
vt 0.390625 0.546875
vt 0.390625 0.406250
vt 0.390625 0.484375
vt 0.421875 0.484375
vt 0.421875 0.406250
vt 0.343750 0.500000
vt 0.343750 0.421875
vt 0.375000 0.421875
vt 0.375000 0.500000
vt 0.546875 0.390625
vt 0.546875 0.421875
vt 0.578125 0.421875
vt 0.578125 0.390625
vt 0.421875 0.500000
vt 0.421875 0.531250
vt 0.453125 0.531250
vt 0.453125 0.500000
vt 0.328125 0.571875
vt 0.393750 0.593750
vt 0.393750 0.571875
vt 0.328125 0.493750
vt 0.328125 0.515625
vt 0.393750 0.515625
vt 0.393750 0.493750
vt 0.414062 0.468750
vt 0.414062 0.403125
vt 0.312500 0.403125
vt 0.312500 0.468750
vt 0.445312 0.671875
vt 0.445312 0.606250
vt 0.343750 0.606250
vt 0.343750 0.671875
vt 0.296875 0.603125
vt 0.296875 0.625000
vt 0.398438 0.625000
vt 0.398438 0.603125
vt 0.296875 0.525000
vt 0.296875 0.546875
vt 0.398438 0.546875
vt 0.398438 0.525000
vt 0.937500 0.187500
vt 0.937500 0.203125
vt 0.953125 0.203125
vt 0.953125 0.187500
vt 0.937500 0.125000
vt 0.937500 0.140625
vt 0.953125 0.140625
vt 0.953125 0.125000
vt 0.859375 0.250000
vt 0.937500 0.265625
vt 0.843750 0.171875
vt 0.843750 0.156250
vt 0.859375 0.156250
vt 0.859375 0.171875
vt 0.937500 0.156250
vt 0.937500 0.171875
vt 0.953125 0.171875
vt 0.953125 0.156250
vt 0.921875 0.125000
vt 0.765625 0.312500
vt 0.890625 0.312500
vt 0.890625 0.234375
vt 0.578125 0.484375
vt 0.703125 0.484375
vt 0.703125 0.375000
vt 0.531250 0.359375
vt 0.531250 0.468750
vt 0.656250 0.468750
vt 0.656250 0.359375
vt 0.125000 0.367188
vt 0.125000 0.375000
vt 0.046875 0.375000
vt 0.046875 0.367188
vt 0.109375 0.398438
vt 0.109375 0.406250
vt 0.031250 0.406250
vt 0.031250 0.398438
vt 0.062500 0.328125
vt 0.062500 0.406250
vt 0.031250 0.328125
vt 0.062500 0.343750
vt 0.031250 0.421875
vt 0.031250 0.343750
vt 0.093750 0.367188
vt 0.093750 0.375000
vt 0.062500 0.375000
vt 0.062500 0.367188
vt 0.113281 0.398438
vt 0.046875 0.406250
vt 0.046875 0.398438
vt 0.140625 0.398438
vt 0.140625 0.406250
vt 0.074219 0.406250
vt 0.074219 0.398438
vt 0.062500 0.410156
vt 0.050781 0.410156
vt 0.050781 0.343750
vt 0.062500 0.355469
vt 0.050781 0.355469
vt 0.066406 0.406250
vt 0.066406 0.398438
vt 0.089844 0.398438
vt 0.089844 0.406250
vt 0.062500 0.390625
vt 0.062500 0.382812
vt 0.046875 0.343750
vt 0.078125 0.312500
vt 0.078125 0.375000
vt 0.062500 0.312500
vt 0.078125 0.414062
vt 0.078125 0.421875
vt 0.062500 0.414062
vt 0.171875 0.382812
vt 0.171875 0.390625
vt 0.156250 0.390625
vt 0.156250 0.382812
vt 0.093750 0.406250
vt 0.093750 0.398438
vt 0.156250 0.343750
vt 0.148438 0.390625
vt 0.148438 0.343750
vt 0.109375 0.328125
vt 0.109375 0.375000
vt 0.101562 0.375000
vt 0.101562 0.328125
vt 0.187500 0.367188
vt 0.187500 0.375000
vt 0.179688 0.375000
vt 0.179688 0.367188
vt 0.195312 0.382812
vt 0.195312 0.390625
vt 0.187500 0.390625
vt 0.187500 0.382812
vt 0.093750 0.343750
vt 0.116403 0.343750
vt 0.116403 0.359375
vt 0.093750 0.359375
vt 0.174297 0.375000
vt 0.156250 0.359375
vt 0.174297 0.359375
vt 0.078125 0.341448
vt 0.078125 0.323401
vt 0.083685 0.321098
vt 0.083685 0.343750
vt 0.140625 0.400690
vt 0.163277 0.400690
vt 0.160974 0.406250
vt 0.142927 0.406250
vt 0.147653 0.375000
vt 0.147653 0.390625
vt 0.189922 0.406250
vt 0.171875 0.406250
vt 0.189922 0.390625
vt 0.078125 0.341447
vt 0.078125 0.323400
vt 0.083684 0.321097
vt 0.083684 0.343750
vt 0.099309 0.352347
vt 0.099309 0.375000
vt 0.093750 0.372697
vt 0.093750 0.354650
vt 0.210153 0.375000
vt 0.210153 0.390625
vt 0.143047 0.390625
vt 0.143047 0.375000
vt 0.207849 0.359375
vt 0.189802 0.359375
vt 0.187500 0.353815
vt 0.210152 0.353815
vt 0.161810 0.352348
vt 0.161810 0.375000
vt 0.156250 0.372698
vt 0.156250 0.354651
vt 0.140625 0.390625
vt 0.163278 0.390625
vt 0.163278 0.406250
vt 0.111797 0.375000
vt 0.111797 0.359375
vt 0.207850 0.406250
vt 0.189803 0.406250
vt 0.187500 0.400691
vt 0.210153 0.400691
vt 0.194528 0.390625
vt 0.174178 0.385066
vt 0.192225 0.385066
vt 0.109375 0.359375
vt 0.132028 0.359375
vt 0.132028 0.375000
vt 0.096172 0.390625
vt 0.078125 0.390625
vt 0.096172 0.375000
vt 0.161810 0.385901
vt 0.161810 0.403948
vt 0.156250 0.406250
vt 0.156250 0.383598
vt 0.147652 0.312500
vt 0.125000 0.312500
vt 0.127302 0.306940
vt 0.145349 0.306940
vt 0.140625 0.359375
vt 0.163278 0.359375
vt 0.163278 0.375000
vt 0.140625 0.375000
vt 0.127422 0.375000
vt 0.127422 0.359375
vt 0.161809 0.354650
vt 0.161809 0.372697
vt 0.156250 0.352347
vt 0.218750 0.406250
vt 0.218750 0.383597
vt 0.224309 0.385900
vt 0.224309 0.403947
vt 0.116403 0.375000
vt 0.080547 0.390625
vt 0.080547 0.375000
vt 0.158552 0.369440
vt 0.176599 0.369440
vt 0.178902 0.375000
vt 0.078125 0.367973
vt 0.083685 0.370276
vt 0.083685 0.388323
vt 0.093750 0.328125
vt 0.116403 0.328125
vt 0.111797 0.406250
vt 0.111797 0.390625
vt 0.096053 0.369441
vt 0.114100 0.369441
vt 0.078125 0.369441
vt 0.100778 0.369441
vt 0.098475 0.375000
vt 0.080428 0.375000
s 1
usemtl m_62aa9d64-9b44-d12c-d302-c8cf5944decb.001
f 4/1/1 2/2/1 1/3/1 3/4/1
f 7/5/2 5/6/2 6/7/2 8/8/2
f 1/9/3 2/10/3 6/11/3 5/12/3
f 4/13/4 3/14/4 7/15/4 8/16/4
f 3/17/5 1/18/5 5/19/5 7/20/5
f 8/21/6 6/22/6 2/23/6 4/24/6
f 12/25/1 10/26/1 9/27/1 11/28/1
f 15/29/2 13/30/2 14/31/2 16/32/2
f 9/33/3 10/34/3 14/35/3 13/36/3
f 12/37/4 11/38/4 15/39/4 16/40/4
f 11/41/5 9/42/5 13/43/5 15/44/5
f 16/45/6 14/46/6 10/47/6 12/48/6
f 19/49/7 17/50/7 475/51/7 18/52/7
f 22/53/8 20/54/8 21/55/8 23/56/8
f 475/57/9 17/58/9 21/59/9 20/60/9
f 19/61/10 18/62/10 22/63/10 23/64/10
f 18/65/5 475/66/5 20/67/5 22/68/5
f 23/69/6 21/70/6 17/71/6 19/72/6
f 26/73/11 24/74/11 35/75/11 25/76/11
f 29/77/12 27/78/12 28/79/12 30/80/12
f 35/81/13 24/82/13 28/83/13 27/84/13
f 26/85/14 25/86/14 29/87/14 30/88/14
f 25/56/5 35/55/5 27/89/5 29/90/5
f 30/91/6 28/92/6 24/93/6 26/94/6
f 34/56/9 32/55/9 31/54/9 33/53/9
f 37/52/10 35/51/10 36/50/10 38/49/10
f 31/60/8 32/59/8 36/58/8 35/57/8
f 34/64/7 33/63/7 37/62/7 38/61/7
f 33/68/5 31/67/5 35/66/5 37/65/5
f 38/72/6 36/71/6 32/70/6 34/69/6
f 42/95/1 40/96/1 39/97/1 41/98/1
f 45/95/2 43/96/2 44/97/2 46/98/2
f 39/99/3 40/96/3 44/97/3 43/100/3
f 42/96/4 41/99/4 45/100/4 46/97/4
f 41/95/5 39/96/5 43/97/5 45/98/5
f 46/99/6 44/101/6 40/102/6 42/100/6
f 50/103/1 48/104/1 47/105/1 49/106/1
f 53/107/2 51/108/2 52/109/2 54/110/2
f 47/111/3 48/108/3 52/105/3 51/112/3
f 50/108/4 49/111/4 53/112/4 54/105/4
f 49/107/5 47/108/5 51/105/5 53/106/5
f 54/107/6 52/108/6 48/105/6 50/106/6
f 58/113/1 56/114/1 55/115/1 57/116/1
f 61/117/2 59/118/2 60/119/2 62/120/2
f 55/121/3 56/122/3 60/123/3 59/124/3
f 58/125/4 57/126/4 61/127/4 62/128/4
f 57/129/5 55/130/5 59/131/5 61/132/5
f 62/133/6 60/41/6 56/44/6 58/134/6
f 66/135/1 64/136/1 63/137/1 65/138/1
f 69/139/2 67/140/2 68/141/2 70/142/2
f 63/143/3 64/144/3 68/145/3 67/146/3
f 66/144/4 65/143/4 69/146/4 70/145/4
f 65/147/5 63/148/5 67/149/5 69/150/5
f 70/139/6 68/140/6 64/151/6 66/152/6
f 2/37/1 72/153/1 71/154/1 1/134/1
f 75/155/2 73/156/2 74/157/2 76/126/2
f 71/158/3 72/159/3 74/23/3 73/160/3
f 2/42/4 1/25/4 75/161/4 76/162/4
f 1/163/5 71/148/5 73/151/5 75/164/5
f 76/42/6 74/165/6 72/166/6 2/162/6
f 80/167/1 78/168/1 77/169/1 79/170/1
f 83/171/2 81/172/2 82/173/2 84/174/2
f 77/175/3 78/176/3 82/177/3 81/178/3
f 80/179/4 79/180/4 83/181/4 84/182/4
f 79/183/5 77/176/5 81/177/5 83/184/5
f 84/185/6 82/186/6 78/187/6 80/188/6
f 88/189/14 86/190/14 85/191/14 87/192/14
f 91/193/13 89/194/13 90/195/13 92/196/13
f 85/197/11 86/198/11 90/199/11 89/200/11
f 88/201/12 87/202/12 91/203/12 92/204/12
f 87/205/5 85/206/5 89/207/5 91/208/5
f 92/209/6 90/193/6 86/210/6 88/211/6
f 96/209/15 94/193/15 93/196/15 95/207/15
f 99/189/16 97/190/16 98/191/16 100/192/16
f 93/212/17 94/213/17 98/201/17 97/202/17
f 96/204/18 95/203/18 99/205/18 100/214/18
f 95/207/5 93/196/5 97/215/5 99/216/5
f 100/196/6 98/195/6 94/217/6 96/215/6
f 104/123/1 102/218/1 101/219/1 103/220/1
f 107/221/2 105/36/2 106/222/2 108/223/2
f 101/224/3 102/223/3 106/225/3 105/226/3
f 104/227/4 103/228/4 107/229/4 108/230/4
f 103/32/5 101/31/5 105/34/5 107/33/5
f 108/231/6 106/229/6 102/232/6 104/233/6
f 112/234/1 110/235/1 109/145/1 111/236/1
f 115/237/2 113/238/2 114/239/2 116/240/2
f 109/241/3 110/242/3 114/243/3 113/244/3
f 112/242/4 111/241/4 115/244/4 116/243/4
f 111/245/5 109/246/5 113/247/5 115/248/5
f 116/249/6 114/250/6 110/251/6 112/252/6
f 120/253/19 118/254/19 117/255/19 119/256/19
f 123/257/20 121/258/20 122/259/20 124/260/20
f 117/261/21 118/262/21 122/263/21 121/264/21
f 120/265/22 119/266/22 123/267/22 124/268/22
f 119/269/5 117/270/5 121/271/5 123/272/5
f 124/273/6 122/274/6 118/275/6 120/276/6
f 128/277/1 126/168/1 125/278/1 127/279/1
f 131/280/2 129/281/2 130/282/2 132/283/2
f 125/284/3 126/285/3 130/286/3 129/287/3
f 128/288/4 127/289/4 131/290/4 132/291/4
f 127/292/5 125/293/5 129/294/5 131/295/5
f 132/296/6 130/297/6 126/298/6 128/299/6
f 136/300/1 134/301/1 133/302/1 135/303/1
f 139/304/2 137/305/2 138/306/2 140/307/2
f 133/124/3 134/123/3 138/220/3 137/308/3
f 136/228/4 135/309/4 139/231/4 140/229/4
f 135/310/5 133/311/5 137/312/5 139/313/5
f 140/314/6 138/315/6 134/316/6 136/317/6
f 144/126/23 142/157/23 141/221/23 143/318/23
f 147/155/24 145/156/24 146/157/24 148/126/24
f 141/156/25 142/319/25 146/320/25 145/321/25
f 144/42/26 143/25/26 147/161/26 148/162/26
f 143/139/5 141/322/5 145/323/5 147/324/5
f 148/42/6 146/165/6 142/166/6 144/162/6
f 152/126/27 150/157/27 149/221/27 151/318/27
f 155/155/28 153/156/28 154/157/28 156/126/28
f 149/156/29 150/319/29 154/320/29 153/321/29
f 152/42/30 151/25/30 155/161/30 156/162/30
f 151/325/5 149/326/5 153/327/5 155/328/5
f 156/42/6 154/165/6 150/166/6 152/162/6
f 160/329/1 158/330/1 157/331/1 159/332/1
f 163/333/2 161/334/2 162/335/2 164/336/2
f 157/337/3 158/338/3 162/335/3 161/339/3
f 160/340/4 159/87/4 163/341/4 164/342/4
f 159/343/5 157/344/5 161/345/5 163/346/5
f 164/52/6 162/51/6 158/78/6 160/77/6
f 168/347/14 166/63/14 165/348/14 167/349/14
f 171/350/13 169/351/13 170/352/13 172/353/13
f 165/340/11 166/354/11 170/355/11 169/356/11
f 168/357/12 167/87/12 171/86/12 172/358/12
f 167/72/5 165/71/5 169/359/5 171/360/5
f 172/361/6 170/362/6 166/71/6 168/72/6
f 176/49/7 174/50/7 173/51/7 175/52/7
f 179/53/8 177/54/8 178/55/8 180/56/8
f 173/57/9 174/58/9 178/59/9 177/60/9
f 176/61/10 175/62/10 179/63/10 180/64/10
f 175/65/5 173/66/5 177/67/5 179/68/5
f 180/69/6 178/70/6 174/71/6 176/72/6
f 184/80/18 182/79/18 181/78/18 183/77/18
f 186/76/17 173/75/17 185/74/17 187/73/17
f 181/84/15 182/83/15 185/82/15 173/81/15
f 184/88/16 183/87/16 186/86/16 187/85/16
f 183/90/5 181/89/5 173/55/5 186/56/5
f 187/94/6 185/93/6 182/92/6 184/91/6
f 191/90/3 189/89/3 188/344/3 190/343/3
f 194/52/4 192/51/4 193/363/4 195/364/4
f 188/340/2 189/338/2 193/348/2 192/365/2
f 191/366/1 190/367/1 194/345/1 195/368/1
f 190/369/5 188/370/5 192/87/5 194/371/5
f 195/372/6 193/373/6 189/374/6 191/375/6
f 199/372/3 197/373/3 196/51/3 198/52/3
f 202/350/4 200/351/4 201/376/4 203/377/4
f 196/378/2 197/374/2 201/379/2 200/380/2
f 199/381/1 198/382/1 202/383/1 203/384/1
f 198/385/5 196/386/5 200/387/5 202/388/5
f 203/389/6 201/390/6 197/391/6 199/392/6
f 207/353/15 205/352/15 204/351/15 206/350/15
f 210/349/16 208/348/16 209/63/16 211/347/16
f 204/356/17 205/355/17 209/354/17 208/340/17
f 207/358/18 206/86/18 210/87/18 211/357/18
f 206/360/5 204/359/5 208/71/5 210/72/5
f 211/72/6 209/71/6 205/362/6 207/361/6
f 215/377/4 213/376/4 212/351/4 214/350/4
f 218/52/3 216/51/3 217/373/3 219/372/3
f 212/380/1 213/379/1 217/374/1 216/378/1
f 215/384/2 214/383/2 218/382/2 219/381/2
f 214/388/5 212/387/5 216/386/5 218/385/5
f 219/392/6 217/391/6 213/390/6 215/389/6
f 222/73/11 220/74/11 231/75/11 221/76/11
f 225/77/12 223/78/12 224/79/12 226/80/12
f 231/81/13 220/82/13 224/83/13 223/84/13
f 222/85/14 221/86/14 225/87/14 226/88/14
f 221/56/5 231/55/5 223/89/5 225/90/5
f 226/91/6 224/92/6 220/93/6 222/94/6
f 230/56/9 228/55/9 227/54/9 229/53/9
f 233/52/10 231/51/10 232/50/10 234/49/10
f 227/60/8 228/59/8 232/58/8 231/57/8
f 230/64/7 229/63/7 233/62/7 234/61/7
f 229/68/5 227/67/5 231/66/5 233/65/5
f 234/72/6 232/71/6 228/70/6 230/69/6
f 238/90/3 236/89/3 235/344/3 237/343/3
f 241/52/4 239/51/4 240/363/4 242/364/4
f 235/340/2 236/338/2 240/348/2 239/365/2
f 238/366/1 237/367/1 241/345/1 242/368/1
f 237/369/5 235/370/5 239/87/5 241/371/5
f 242/372/6 240/373/6 236/374/6 238/375/6
f 246/329/1 244/330/1 243/331/1 245/332/1
f 249/333/2 247/334/2 248/335/2 250/336/2
f 243/337/3 244/338/3 248/335/3 247/339/3
f 246/340/4 245/87/4 249/341/4 250/342/4
f 245/343/5 243/344/5 247/345/5 249/346/5
f 250/52/6 248/51/6 244/78/6 246/77/6
f 254/347/14 252/63/14 251/348/14 253/349/14
f 257/350/13 255/351/13 256/352/13 258/353/13
f 251/340/11 252/354/11 256/355/11 255/356/11
f 254/357/12 253/87/12 257/86/12 258/358/12
f 253/72/5 251/71/5 255/359/5 257/360/5
f 258/361/6 256/362/6 252/71/6 254/72/6
f 262/353/15 260/352/15 259/351/15 261/350/15
f 265/349/16 263/348/16 264/63/16 266/347/16
f 259/356/17 260/355/17 264/354/17 263/340/17
f 262/358/18 261/86/18 265/87/18 266/357/18
f 261/360/5 259/359/5 263/71/5 265/72/5
f 266/72/6 264/71/6 260/362/6 262/361/6
f 270/90/3 268/89/3 267/344/3 269/343/3
f 273/52/4 271/51/4 272/363/4 274/364/4
f 267/340/2 268/338/2 272/348/2 271/365/2
f 270/366/1 269/367/1 273/345/1 274/368/1
f 269/369/5 267/370/5 271/87/5 273/371/5
f 274/372/6 272/373/6 268/374/6 270/375/6
f 278/377/4 276/376/4 275/351/4 277/350/4
f 281/52/3 279/51/3 280/373/3 282/372/3
f 275/380/1 276/379/1 280/374/1 279/378/1
f 278/384/2 277/383/2 281/382/2 282/381/2
f 277/388/5 275/387/5 279/386/5 281/385/5
f 282/392/6 280/391/6 276/390/6 278/389/6
f 286/372/3 284/373/3 283/51/3 285/52/3
f 289/350/4 287/351/4 288/376/4 290/377/4
f 283/378/2 284/374/2 288/379/2 287/380/2
f 286/381/1 285/382/1 289/383/1 290/384/1
f 285/385/5 283/386/5 287/387/5 289/388/5
f 290/389/6 288/390/6 284/391/6 286/392/6
f 294/90/3 292/89/3 291/344/3 293/343/3
f 297/52/4 295/51/4 296/363/4 298/364/4
f 291/340/2 292/338/2 296/348/2 295/365/2
f 294/366/1 293/367/1 297/345/1 298/368/1
f 293/369/5 291/370/5 295/87/5 297/371/5
f 298/372/6 296/373/6 292/374/6 294/375/6
f 302/80/18 300/79/18 299/78/18 301/77/18
f 305/76/17 303/75/17 304/74/17 306/73/17
f 299/84/15 300/83/15 304/82/15 303/81/15
f 302/88/16 301/87/16 305/86/16 306/85/16
f 301/90/5 299/89/5 303/55/5 305/56/5
f 306/94/6 304/93/6 300/92/6 302/91/6
f 309/49/7 307/50/7 303/51/7 308/52/7
f 312/53/8 310/54/8 311/55/8 313/56/8
f 303/57/9 307/58/9 311/59/9 310/60/9
f 309/61/10 308/62/10 312/63/10 313/64/10
f 308/65/5 303/66/5 310/67/5 312/68/5
f 313/69/6 311/70/6 307/71/6 309/72/6
f 317/73/11 315/74/11 314/75/11 316/76/11
f 320/77/12 318/78/12 319/79/12 321/80/12
f 314/81/13 315/82/13 319/83/13 318/84/13
f 317/85/14 316/86/14 320/87/14 321/88/14
f 316/56/5 314/55/5 318/89/5 320/90/5
f 321/91/6 319/92/6 315/93/6 317/94/6
f 325/56/9 323/55/9 322/54/9 324/53/9
f 327/52/10 314/51/10 326/50/10 328/49/10
f 322/60/8 323/59/8 326/58/8 314/57/8
f 325/64/7 324/63/7 327/62/7 328/61/7
f 324/68/5 322/67/5 314/66/5 327/65/5
f 328/72/6 326/71/6 323/70/6 325/69/6
f 332/329/1 330/330/1 329/331/1 331/332/1
f 335/333/2 333/334/2 334/335/2 336/336/2
f 329/337/3 330/338/3 334/335/3 333/339/3
f 332/340/4 331/87/4 335/341/4 336/342/4
f 331/343/5 329/344/5 333/345/5 335/346/5
f 336/52/6 334/51/6 330/78/6 332/77/6
f 340/347/14 338/63/14 337/348/14 339/349/14
f 343/350/13 341/351/13 342/352/13 344/353/13
f 337/340/11 338/354/11 342/355/11 341/356/11
f 340/357/12 339/87/12 343/86/12 344/358/12
f 339/72/5 337/71/5 341/359/5 343/360/5
f 344/361/6 342/362/6 338/71/6 340/72/6
f 348/353/15 346/352/15 345/351/15 347/350/15
f 351/349/16 349/348/16 350/63/16 352/347/16
f 345/356/17 346/355/17 350/354/17 349/340/17
f 348/358/18 347/86/18 351/87/18 352/357/18
f 347/360/5 345/359/5 349/71/5 351/72/5
f 352/72/6 350/71/6 346/362/6 348/361/6
f 356/90/3 354/89/3 353/344/3 355/343/3
f 359/52/4 357/51/4 358/363/4 360/364/4
f 353/340/2 354/338/2 358/348/2 357/365/2
f 356/366/1 355/367/1 359/345/1 360/368/1
f 355/369/5 353/370/5 357/87/5 359/371/5
f 360/372/6 358/373/6 354/374/6 356/375/6
f 364/377/4 362/376/4 361/351/4 363/350/4
f 367/52/3 365/51/3 366/373/3 368/372/3
f 361/380/1 362/379/1 366/374/1 365/378/1
f 364/384/2 363/383/2 367/382/2 368/381/2
f 363/388/5 361/387/5 365/386/5 367/385/5
f 368/392/6 366/391/6 362/390/6 364/389/6
f 372/372/3 370/373/3 369/51/3 371/52/3
f 375/350/4 373/351/4 374/376/4 376/377/4
f 369/378/2 370/374/2 374/379/2 373/380/2
f 372/381/1 371/382/1 375/383/1 376/384/1
f 371/385/5 369/386/5 373/387/5 375/388/5
f 376/389/6 374/390/6 370/391/6 372/392/6
f 380/90/3 378/89/3 377/344/3 379/343/3
f 383/52/4 381/51/4 382/363/4 384/364/4
f 377/340/2 378/338/2 382/348/2 381/365/2
f 380/366/1 379/367/1 383/345/1 384/368/1
f 379/369/5 377/370/5 381/87/5 383/371/5
f 384/372/6 382/373/6 378/374/6 380/375/6
f 388/80/18 386/79/18 385/78/18 387/77/18
f 390/76/17 392/75/17 389/74/17 391/73/17
f 385/84/15 386/83/15 389/82/15 392/81/15
f 388/88/16 387/87/16 390/86/16 391/85/16
f 387/90/5 385/89/5 392/55/5 390/56/5
f 391/94/6 389/93/6 386/92/6 388/91/6
f 395/49/7 393/50/7 392/51/7 394/52/7
f 398/53/8 396/54/8 397/55/8 399/56/8
f 392/57/9 393/58/9 397/59/9 396/60/9
f 395/61/10 394/62/10 398/63/10 399/64/10
f 394/65/5 392/66/5 396/67/5 398/68/5
f 399/69/6 397/70/6 393/71/6 395/72/6
f 402/73/11 400/74/11 411/75/11 401/76/11
f 405/77/12 403/78/12 404/79/12 406/80/12
f 411/81/13 400/82/13 404/83/13 403/84/13
f 402/85/14 401/86/14 405/87/14 406/88/14
f 401/56/5 411/55/5 403/89/5 405/90/5
f 406/91/6 404/92/6 400/93/6 402/94/6
f 410/56/9 408/55/9 407/54/9 409/53/9
f 413/52/10 411/51/10 412/50/10 414/49/10
f 407/60/8 408/59/8 412/58/8 411/57/8
f 410/64/7 409/63/7 413/62/7 414/61/7
f 409/68/5 407/67/5 411/66/5 413/65/5
f 414/72/6 412/71/6 408/70/6 410/69/6
f 418/329/1 416/330/1 415/331/1 417/332/1
f 421/333/2 419/334/2 420/335/2 422/336/2
f 415/337/3 416/338/3 420/335/3 419/339/3
f 418/340/4 417/87/4 421/341/4 422/342/4
f 417/343/5 415/344/5 419/345/5 421/346/5
f 422/52/6 420/51/6 416/78/6 418/77/6
f 426/347/14 424/63/14 423/348/14 425/349/14
f 429/350/13 427/351/13 428/352/13 430/353/13
f 423/340/11 424/354/11 428/355/11 427/356/11
f 426/357/12 425/87/12 429/86/12 430/358/12
f 425/72/5 423/71/5 427/359/5 429/360/5
f 430/361/6 428/362/6 424/71/6 426/72/6
f 434/353/15 432/352/15 431/351/15 433/350/15
f 437/349/16 435/348/16 436/63/16 438/347/16
f 431/356/17 432/355/17 436/354/17 435/340/17
f 434/358/18 433/86/18 437/87/18 438/357/18
f 433/360/5 431/359/5 435/71/5 437/72/5
f 438/72/6 436/71/6 432/362/6 434/361/6
f 442/90/3 440/89/3 439/344/3 441/343/3
f 445/52/4 443/51/4 444/363/4 446/364/4
f 439/340/2 440/338/2 444/348/2 443/365/2
f 442/366/1 441/367/1 445/345/1 446/368/1
f 441/369/5 439/370/5 443/87/5 445/371/5
f 446/372/6 444/373/6 440/374/6 442/375/6
f 450/377/4 448/376/4 447/351/4 449/350/4
f 453/52/3 451/51/3 452/373/3 454/372/3
f 447/380/1 448/379/1 452/374/1 451/378/1
f 450/384/2 449/383/2 453/382/2 454/381/2
f 449/388/5 447/387/5 451/386/5 453/385/5
f 454/392/6 452/391/6 448/390/6 450/389/6
f 458/372/3 456/373/3 455/51/3 457/52/3
f 461/350/4 459/351/4 460/376/4 462/377/4
f 455/378/2 456/374/2 460/379/2 459/380/2
f 458/381/1 457/382/1 461/383/1 462/384/1
f 457/385/5 455/386/5 459/387/5 461/388/5
f 462/389/6 460/390/6 456/391/6 458/392/6
f 466/90/3 464/89/3 463/344/3 465/343/3
f 469/52/4 467/51/4 468/363/4 470/364/4
f 463/340/2 464/338/2 468/348/2 467/365/2
f 466/366/1 465/367/1 469/345/1 470/368/1
f 465/369/5 463/370/5 467/87/5 469/371/5
f 470/372/6 468/373/6 464/374/6 466/375/6
f 474/80/18 472/79/18 471/78/18 473/77/18
f 477/76/17 475/75/17 476/74/17 478/73/17
f 471/84/15 472/83/15 476/82/15 475/81/15
f 474/88/16 473/87/16 477/86/16 478/85/16
f 473/90/5 471/89/5 475/55/5 477/56/5
f 478/94/6 476/93/6 472/92/6 474/91/6
f 479/393/7 483/394/7 484/395/7 480/396/7
f 482/397/8 486/89/8 485/398/8 481/399/8
f 481/400/6 485/401/6 483/402/6 479/403/6
f 480/404/5 484/405/5 486/406/5 482/407/5
f 483/330/1 487/408/1 488/409/1 484/51/1
f 486/410/2 490/411/2 489/373/2 485/412/2
f 485/413/6 489/414/6 487/415/6 483/416/6
f 484/417/5 488/418/5 490/419/5 486/420/5
f 487/386/9 491/421/9 492/422/9 488/391/9
f 490/423/10 494/51/10 493/330/10 489/424/10
f 489/425/6 493/426/6 491/427/6 487/428/6
f 488/429/5 492/430/5 494/431/5 490/432/5
f 491/433/3 495/434/3 496/435/3 492/351/3
f 494/436/4 498/344/4 497/396/4 493/437/4
f 493/438/6 497/439/6 495/440/6 491/441/6
f 492/442/5 496/373/5 498/443/5 494/444/5
f 495/445/8 499/446/8 500/447/8 496/382/8
f 498/448/7 502/449/7 501/367/7 497/450/7
f 497/451/6 501/452/6 499/453/6 495/454/6
f 496/455/5 500/456/5 502/457/5 498/458/5
f 499/459/2 503/460/2 504/461/2 500/462/2
f 502/463/1 506/382/1 505/445/1 501/464/1
f 501/465/6 505/466/6 503/89/6 499/467/6
f 500/468/5 504/469/5 506/470/5 502/471/5
f 503/396/10 507/395/10 508/472/10 504/344/10
f 506/473/9 510/363/9 509/345/9 505/474/9
f 505/475/6 509/476/6 507/477/6 503/89/6
f 504/449/5 508/478/5 510/479/5 506/480/5
f 507/481/4 479/482/4 480/394/4 508/393/4
f 510/483/3 482/376/3 481/78/3 509/484/3
f 509/485/6 481/486/6 479/472/6 507/344/6
f 508/487/5 480/488/5 482/489/5 510/490/5
f 511/393/7 515/394/7 516/395/7 512/396/7
f 514/397/8 518/89/8 517/398/8 513/399/8
f 513/400/6 517/401/6 515/402/6 511/403/6
f 512/404/5 516/405/5 518/406/5 514/407/5
f 515/330/1 519/408/1 520/409/1 516/51/1
f 518/410/2 522/411/2 521/373/2 517/412/2
f 517/413/6 521/414/6 519/415/6 515/416/6
f 516/417/5 520/418/5 522/419/5 518/420/5
f 519/386/9 523/421/9 524/422/9 520/391/9
f 522/423/10 526/51/10 525/330/10 521/424/10
f 521/425/6 525/426/6 523/427/6 519/428/6
f 520/429/5 524/430/5 526/431/5 522/432/5
f 523/433/3 527/434/3 528/435/3 524/351/3
f 526/436/4 530/344/4 529/396/4 525/437/4
f 525/438/6 529/439/6 527/440/6 523/441/6
f 524/442/5 528/373/5 530/443/5 526/444/5
f 527/445/8 531/446/8 532/447/8 528/382/8
f 530/448/7 534/449/7 533/367/7 529/450/7
f 529/451/6 533/452/6 531/453/6 527/454/6
f 528/455/5 532/456/5 534/457/5 530/458/5
f 531/459/2 535/460/2 536/461/2 532/462/2
f 534/463/1 538/382/1 537/445/1 533/464/1
f 533/465/6 537/466/6 535/89/6 531/467/6
f 532/468/5 536/469/5 538/470/5 534/471/5
f 535/396/10 539/395/10 540/472/10 536/344/10
f 538/473/9 542/363/9 541/345/9 537/474/9
f 537/475/6 541/476/6 539/477/6 535/89/6
f 536/449/5 540/478/5 542/479/5 538/480/5
f 539/481/4 511/482/4 512/394/4 540/393/4
f 542/483/3 514/376/3 513/78/3 541/484/3
f 541/485/6 513/486/6 511/472/6 539/344/6
f 540/487/5 512/488/5 514/489/5 542/490/5
f 543/393/7 547/394/7 548/395/7 544/396/7
f 546/397/8 550/89/8 549/398/8 545/399/8
f 545/400/6 549/401/6 547/402/6 543/403/6
f 544/404/5 548/405/5 550/406/5 546/407/5
f 547/330/1 551/408/1 552/409/1 548/51/1
f 550/410/2 554/411/2 553/373/2 549/412/2
f 549/413/6 553/414/6 551/415/6 547/416/6
f 548/417/5 552/418/5 554/419/5 550/420/5
f 551/386/9 555/421/9 556/422/9 552/391/9
f 554/423/10 558/51/10 557/330/10 553/424/10
f 553/425/6 557/426/6 555/427/6 551/428/6
f 552/429/5 556/430/5 558/431/5 554/432/5
f 555/433/3 559/434/3 560/435/3 556/351/3
f 558/436/4 562/344/4 561/396/4 557/437/4
f 557/438/6 561/439/6 559/440/6 555/441/6
f 556/442/5 560/373/5 562/443/5 558/444/5
f 559/445/8 563/446/8 564/447/8 560/382/8
f 562/448/7 566/449/7 565/367/7 561/450/7
f 561/451/6 565/452/6 563/453/6 559/454/6
f 560/455/5 564/456/5 566/457/5 562/458/5
f 563/459/2 567/460/2 568/461/2 564/462/2
f 566/463/1 570/382/1 569/445/1 565/464/1
f 565/465/6 569/466/6 567/89/6 563/467/6
f 564/468/5 568/469/5 570/470/5 566/471/5
f 567/396/10 571/395/10 572/472/10 568/344/10
f 570/473/9 574/363/9 573/345/9 569/474/9
f 569/475/6 573/476/6 571/477/6 567/89/6
f 568/449/5 572/478/5 574/479/5 570/480/5
f 571/481/4 543/482/4 544/394/4 572/393/4
f 574/483/3 546/376/3 545/78/3 573/484/3
f 573/485/6 545/486/6 543/472/6 571/344/6
f 572/487/5 544/488/5 546/489/5 574/490/5
f 575/393/7 579/394/7 580/395/7 576/396/7
f 578/397/8 582/89/8 581/398/8 577/399/8
f 577/400/6 581/401/6 579/402/6 575/403/6
f 576/404/5 580/405/5 582/406/5 578/407/5
f 579/330/1 583/408/1 584/409/1 580/51/1
f 582/410/2 586/411/2 585/373/2 581/412/2
f 581/413/6 585/414/6 583/415/6 579/416/6
f 580/417/5 584/418/5 586/419/5 582/420/5
f 583/386/9 587/421/9 588/422/9 584/391/9
f 586/423/10 590/51/10 589/330/10 585/424/10
f 585/425/6 589/426/6 587/427/6 583/428/6
f 584/429/5 588/430/5 590/431/5 586/432/5
f 587/433/3 591/434/3 592/435/3 588/351/3
f 590/436/4 594/344/4 593/396/4 589/437/4
f 589/438/6 593/439/6 591/440/6 587/441/6
f 588/442/5 592/373/5 594/443/5 590/444/5
f 591/445/8 595/446/8 596/447/8 592/382/8
f 594/448/7 598/449/7 597/367/7 593/450/7
f 593/451/6 597/452/6 595/453/6 591/454/6
f 592/455/5 596/456/5 598/457/5 594/458/5
f 595/459/2 599/460/2 600/461/2 596/462/2
f 598/463/1 602/382/1 601/445/1 597/464/1
f 597/465/6 601/466/6 599/89/6 595/467/6
f 596/468/5 600/469/5 602/470/5 598/471/5
f 599/396/10 603/395/10 604/472/10 600/344/10
f 602/473/9 606/363/9 605/345/9 601/474/9
f 601/475/6 605/476/6 603/477/6 599/89/6
f 600/449/5 604/478/5 606/479/5 602/480/5
f 603/481/4 575/482/4 576/394/4 604/393/4
f 606/483/3 578/376/3 577/78/3 605/484/3
f 605/485/6 577/486/6 575/472/6 603/344/6
f 604/487/5 576/488/5 578/489/5 606/490/5
