# Made in Blockbench 5.1.4
mtllib crossing_distant_signal_modern.mtl

o cylinder
v -0.00015924783993474377 0.3125000000000011 -0.06214401776113477
v -0.00015924783993472204 0.3125000000000011 0.062855982238865
v -0.051936122839934575 0.4375 -0.0621440177611348
v -0.051936122839934665 0.4375 0.06285598223886509
v -0.12515924783993437 0.3642768750000019 -0.06214401776113485
v -0.1251592478399347 0.3642768750000019 0.06285598223886502
v -0.12515924783993437 0.26072312500000183 -0.06214401776113488
v -0.1251592478399347 0.26072312500000183 0.06285598223886499
v -0.051936122839934575 0.1875000000000015 -0.06214401776113485
v -0.051936122839934665 0.18750000000000147 0.06285598223886503
v 0.05161762716006511 0.1875000000000015 -0.062144017761134755
v 0.051617627160065294 0.18750000000000147 0.06285598223886475
v 0.12484075216006503 0.26072312500000183 -0.06214401776113474
v 0.12484075216006492 0.26072312500000183 0.06285598223886488
v 0.12484075216006503 0.3642768750000019 -0.062144017761134714
v 0.12484075216006492 0.3642768750000019 0.0628559822388649
v 0.05161762716006511 0.4375 -0.0621440177611347
v 0.051617627160065294 0.4375 0.06285598223886481
v -0.2501592478399343 0.75 -0.062144017761134866
v -0.25015924783993404 0.75 0.06285598223886504
v -0.3019361228399346 0.875 -0.06214401776113459
v -0.3019361228399343 0.875 0.0628559822388654
v -0.37515924783993393 0.801776875 -0.06214401776113441
v -0.37515924783993354 0.801776875 0.06285598223886517
v -0.37515924783993404 0.698223125 -0.06214401776113449
v -0.3751592478399335 0.698223125 0.06285598223886503
v -0.3019361228399346 0.625 -0.062144017761134644
v -0.3019361228399342 0.625 0.06285598223886524
v -0.1983823728399343 0.625 -0.06214401776113449
v -0.19838237283993457 0.625 0.06285598223886507
v -0.12515924783993437 0.698223125 -0.062144017761134686
v -0.12515924783993465 0.698223125 0.06285598223886514
v -0.1251592478399344 0.801776875 -0.062144017761134644
v -0.12515924783993454 0.801776875 0.06285598223886522
v -0.1983823728399343 0.875 -0.062144017761134436
v -0.1983823728399345 0.875 0.06285598223886535
v 0.24984075216006466 0.75 -0.06214401776113466
v 0.2498407521600644 0.75 0.06285598223886515
v 0.19806387716006485 0.875 -0.06214401776113473
v 0.19806387716006466 0.875 0.0628559822388648
v 0.124840752160065 0.801776875 -0.06214401776113449
v 0.12484075216006492 0.801776875 0.06285598223886511
v 0.12484075216006509 0.698223125 -0.06214401776113459
v 0.12484075216006492 0.698223125 0.06285598223886497
v 0.19806387716006485 0.625 -0.06214401776113478
v 0.19806387716006474 0.625 0.0628559822388648
v 0.30161762716006474 0.625 -0.06214401776113442
v 0.3016176271600646 0.625 0.06285598223886518
v 0.3748407521600648 0.698223125 -0.06214401776113474
v 0.37484075216006496 0.698223125 0.06285598223886547
v 0.3748407521600647 0.801776875 -0.062144017761134714
v 0.37484075216006496 0.801776875 0.0628559822388655
v 0.30161762716006474 0.875 -0.06214401776113437
v 0.3016176271600646 0.875 0.06285598223886524
v -0.28140924783993365 1.0625 -0.06776901776113431
v -0.28140924783993404 1.0625 0.00035598223886514936
v -0.28140924783993365 1 -0.06776901776113432
v -0.28140924783993404 1 0.0003559822388651355
v 0.2810907521600646 1.0625 -0.06776901776113436
v 0.28109075216006485 1.0625 0.00035598223886545467
v 0.2810907521600646 1 -0.06776901776113438
v 0.28109075216006485 1 0.0003559822388654408
v 0.2754004562916981 1.0644910022493321 -0.06839401776113455
v 0.27540045629169796 1.0644910022493321 0.0003559822388653996
v 0.2514827417688799 1.0067485314673768 -0.0683940177611345
v 0.25148274176888 1.0067485314673768 0.0003559822388652064
v 0.4139823861683905 1.0070884873945687 -0.06839401776113421
v 0.41398238616839034 1.0070884873945687 0.0003559822388653036
v 0.39006467164557207 0.9493460166126133 -0.06839401776113425
v 0.39006467164557235 0.9493460166126133 0.00035598223886549896
v 0.3687702708102466 0.9640209684663308 -0.06839401776113464
v 0.3687702708102475 0.9640209684663308 0.000355982238865641
v 0.4615780358409813 0.8712132034355964 -0.06839401776113452
v 0.46157803584098117 0.8712132034355964 0.0003559822388656342
v 0.41296444463440607 1.00821514229049 -0.06839401776113417
v 0.41296444463440657 1.00821514229049 0.00035598223886580346
v 0.5057722096651401 0.9154073772597555 -0.0683940177611346
v 0.5057722096651408 0.9154073772597555 0.0003559822388657551
v 0.44819122503825026 0.8913710613787431 -0.06839401776113425
v 0.44819122503824965 0.8913710613787431 0.00035598223886516687
v 0.4888513397270414 0.793208861049419 -0.0683940177611344
v 0.4888513397270408 0.793208861049419 0.0003559822388652006
v 0.5059336958202055 0.9152887759015613 -0.06839401776113464
v 0.5059336958202061 0.9152887759015613 0.000355982238865533
v 0.5465938105089972 0.817126575572237 -0.06839401776113498
v 0.546593810508996 0.817126575572237 0.0003559822388651365
v 0.48421575216006385 0.8174999999999999 -0.06839401776113442
v 0.48421575216006435 0.8174999999999999 0.00035598223886534473
v 0.48421575216006385 0.7206249999999998 -0.06839401776113443
v 0.48421575216006435 0.7206249999999998 0.00035598223886532327
v 0.546715752160064 0.8174999999999999 -0.06839401776113457
v 0.5467157521600637 0.8174999999999999 0.000355982238865428
v 0.546715752160064 0.7206249999999998 -0.06839401776113459
v 0.5467157521600637 0.7206249999999998 0.00035598223886540653
v 0.4886077120834718 0.7435999515604168 -0.06839401776113434
v 0.4886077120834714 0.7435999515604168 0.0003559822388651341
v 0.2733482813781092 0.2239177145228177 -0.06839401776113489
v 0.2733482813781094 0.22391771452281767 0.00035598223886521295
v 0.5463501828654276 0.7196822370375988 -0.06839401776113416
v 0.5463501828654271 0.7196822370375988 0.0003559822388650455
v 0.3310907521600651 0.20000000000000015 -0.0683940177611349
v 0.33109075216006423 0.20000000000000012 0.0003559822388649023
v 0.2868965783359051 0.24419417382416028 -0.06839401776113475
v 0.2868965783359053 0.24419417382416025 0.000355982238864926
v 0.19850823068758694 0.15580582617584396 -0.06839401776113488
v 0.19850823068758702 0.15580582617584393 0.00035598223886493415
v 0.3310907521600651 0.20000000000000015 -0.0683940177611349
v 0.33109075216006423 0.20000000000000012 0.0003559822388649023
v 0.24270240451174632 0.11161165235168358 -0.0683940177611349
v 0.242702404511746 0.11161165235168356 0.00035598223886496597
v 0.09803591409814903 0.11904658505581589 -0.06839401776113478
v 0.09803591409814919 0.11904658505581582 0.0003559822388650509
v 0.1219536286209672 0.06130411427385395 -0.06839401776113489
v 0.12195362862096727 0.06130411427385394 0.0003559822388649409
v 0.2192951027402552 0.1692737855537321 -0.0683940177611348
v 0.21929510274025507 0.16927378555373207 0.00035598223886506203
v 0.2432128172630735 0.11153131477177691 -0.06839401776113495
v 0.2432128172630732 0.1115313147717769 0.00035598223886492434
v -0.12515924783993443 0.12500000000000314 -0.06776901776113485
v -0.12515924783993432 0.1250000000000031 0.0003559822388649967
v -0.12515924783993446 0.0612499999999998 -0.06776901776113499
v -0.12515924783993435 0.061249999999999784 0.00035598223886487153
v 0.12484075216006489 0.12500000000000314 -0.06776901776113492
v 0.124840752160065 0.1250000000000031 0.0003559822388648857
v 0.12484075216006492 0.0612499999999998 -0.06776901776113495
v 0.12484075216006497 0.061249999999999784 0.0003559822388648438
v -0.21961359842012473 0.1692737855537321 -0.06839401776113471
v -0.21961359842012484 0.16927378555373207 0.0003559822388651453
v -0.24353131294294264 0.11153131477177691 -0.06839401776113481
v -0.24353131294294278 0.1115313147717769 0.0003559822388650631
v -0.09835440977801856 0.11904658505581589 -0.06839401776113482
v -0.09835440977801857 0.11904658505581582 0.0003559822388649399
v -0.12227212430083678 0.06130411427385395 -0.06839401776113493
v -0.12227212430083671 0.06130411427385394 0.00035598223886492705
v -0.3314092478399336 0.20000000000000015 -0.0683940177611348
v -0.3314092478399339 0.20000000000000012 0.0003559822388650411
v -0.24302090019161554 0.11161165235168358 -0.06839401776113477
v -0.24302090019161604 0.11161165235168356 0.0003559822388649382
v -0.2872150740157753 0.24419417382416028 -0.06839401776113462
v -0.2872150740157749 0.24419417382416025 0.0003559822388649399
v -0.19882672636745652 0.15580582617584396 -0.06839401776113482
v -0.1988267263674569 0.15580582617584393 0.00035598223886479537
v -0.5466686785452951 0.7196822370375988 -0.06839401776113443
v -0.5466686785452954 0.7196822370375988 0.0003559822388647818
v -0.3314092478399336 0.20000000000000015 -0.0683940177611348
v -0.3314092478399339 0.20000000000000012 0.0003559822388650411
v -0.488926207763341 0.7435999515604168 -0.06839401776113464
v -0.488926207763341 0.7435999515604168 0.0003559822388655088
v -0.2736667770579787 0.2239177145228177 -0.06839401776113486
v -0.2736667770579787 0.22391771452281767 0.0003559822388649354
v -0.5470342478399328 0.8174999999999999 -0.0683940177611346
v -0.5470342478399328 0.8174999999999999 0.0003559822388652476
v -0.5470342478399328 0.7206249999999998 -0.06839401776113462
v -0.5470342478399328 0.7206249999999998 0.0003559822388652261
v -0.4845342478399335 0.8174999999999999 -0.068394017761134
v -0.4845342478399336 0.8174999999999999 0.0003559822388650672
v -0.4845342478399335 0.7206249999999998 -0.06839401776113402
v -0.4845342478399336 0.7206249999999998 0.0003559822388650457
v -0.41328294031427604 1.00821514229049 -0.06839401776113448
v -0.413282940314275 1.00821514229049 0.00035598223886524835
v -0.5060907053450101 0.9154073772597555 -0.06839401776113459
v -0.5060907053450097 0.9154073772597555 0.00035598223886522775
v -0.3690887664901164 0.9640209684663308 -0.06839401776113435
v -0.3690887664901161 0.9640209684663308 0.0003559822388654606
v -0.46189653152085036 0.8712132034355964 -0.06839401776113452
v -0.4618965315208506 0.8712132034355964 0.0003559822388657175
v -0.5062521915000744 0.9152887759015613 -0.06839401776113443
v -0.5062521915000744 0.9152887759015613 0.00035598223886519994
v -0.5469123061888644 0.817126575572237 -0.06839401776113471
v -0.5469123061888657 0.817126575572237 0.0003559822388653863
v -0.44850972071811923 0.8913710613787431 -0.06839401776113459
v -0.44850972071811984 0.8913710613787431 0.00035598223886566647
v -0.48916983540691006 0.793208861049419 -0.06839401776113449
v -0.48916983540691067 0.793208861049419 0.0003559822388651173
v -0.41430088184825975 1.0070884873945687 -0.068394017761135
v -0.4143008818482596 1.0070884873945687 0.0003559822388653036
v -0.39038316732544104 0.9493460166126133 -0.06839401776113434
v -0.3903831673254421 0.9493460166126133 0.0003559822388656516
v -0.2757189519715672 1.0644910022493321 -0.06839401776113448
v -0.27571895197156737 1.0644910022493321 0.0003559822388657049
v -0.25180123744874905 1.0067485314673768 -0.06839401776113448
v -0.25180123744874977 1.0067485314673768 0.0003559822388655256
v -0.4189092478399342 1 -0.06776901776113459
v -0.41890924783993405 1 -0.005894017761134233
v -0.4189092478399338 0.625 -0.06776901776113493
v -0.418909247839934 0.625 -0.005894017761134428
v 0.41859075216006447 1 -0.0677690177611346
v 0.41859075216006447 1 -0.00589401776113465
v 0.41859075216006436 0.625 -0.06776901776113471
v 0.4185907521600644 0.625 -0.0058940177611347885
v -0.35640924783993383 0.6312499999999999 -0.09901901776113423
v -0.3564092478399334 0.6312499999999999 -0.036519017761135024
v -0.3564092478399337 0.5687499999999999 -0.09901901776113432
v -0.3564092478399334 0.5687499999999999 -0.03651901776113504
v -0.14390924783993447 0.6312499999999999 -0.09901901776113453
v -0.1439092478399345 0.6312499999999999 -0.03651901776113479
v -0.14390924783993447 0.5687499999999999 -0.09901901776113455
v -0.1439092478399345 0.5687499999999999 -0.0365190177611348
v -0.23478412480449887 0.34375 -0.0310099185228965
v -0.24131043441550148 0.34375 0.018562324545793984
v -0.23478412480449887 0.28124999999999967 -0.031009918522896515
v -0.24131043441550148 0.28124999999999967 0.01856232454579397
v -0.11705004751635904 0.34375 -0.015509933196765217
v -0.12357635712736162 0.34375 0.03406230987192521
v -0.11705004751635907 0.28124999999999967 -0.015509933196765259
v -0.12357635712736155 0.28124999999999967 0.03406230987192506
v 0.11673155183648949 0.34375 -0.015509933196765162
v 0.12325786144749201 0.34375 0.0340623098719251
v 0.11673155183648949 0.28124999999999967 -0.015509933196765231
v 0.12325786144749205 0.28124999999999967 0.03406230987192503
v 0.23446562912462907 0.34375 -0.031009918522896404
v 0.24099193873563174 0.34375 0.018562324545794012
v 0.23446562912462907 0.28124999999999967 -0.031009918522896418
v 0.24099193873563174 0.28124999999999967 0.018562324545794
v -0.4847841248044975 0.78125 -0.031009918522896224
v -0.49131043441550015 0.78125 0.018562324545793887
v -0.4847841248044975 0.71875 -0.031009918522896238
v -0.49131043441550015 0.71875 0.018562324545793873
v -0.3670500475163578 0.78125 -0.015509933196765162
v -0.37357635712736037 0.78125 0.03406230987192506
v -0.3670500475163578 0.71875 -0.015509933196765175
v -0.37357635712736037 0.71875 0.034062309871925045
v -0.13326844816350977 0.78125 -0.015509933196765203
v -0.12674213855250732 0.78125 0.034062309871925225
v -0.13326844816350977 0.71875 -0.015509933196765217
v -0.12674213855250732 0.71875 0.03406230987192521
v -0.015534370875370162 0.78125 -0.031009918522896127
v -0.009008061264367533 0.78125 0.018562324545794262
v -0.015534370875370136 0.71875 -0.031009918522896196
v -0.009008061264367533 0.71875 0.018562324545794248
v 0.36673155183648937 0.78125 -0.015509933196765106
v 0.3732578614474915 0.78125 0.03406230987192525
v 0.36673155183648937 0.71875 -0.01550993319676512
v 0.3732578614474915 0.71875 0.03406230987192524
v 0.48446562912462865 0.78125 -0.031009918522895794
v 0.4909919387356309 0.78125 0.01856232454579461
v 0.48446562912462865 0.71875 -0.031009918522895807
v 0.4909919387356309 0.71875 0.018562324545794595
v 0.015215875195500652 0.78125 -0.031009918522896113
v 0.008689565584498127 0.78125 0.018562324545794262
v 0.015215875195500656 0.71875 -0.031009918522896182
v 0.008689565584498127 0.71875 0.018562324545794248
v 0.13294995248364047 0.78125 -0.015509933196765106
v 0.12642364287263785 0.78125 0.03406230987192525
v 0.13294995248364047 0.71875 -0.01550993319676512
v 0.12642364287263785 0.71875 0.03406230987192524
v -0.15015924783993434 0.59375 -0.012144017761134633
v -0.15015924783993426 0.59375 0.07535598223886497
v -0.15015924783993434 0.53125 -0.012144017761134647
v -0.15015924783993426 0.53125 0.07535598223886494
v 0.14984075216006487 0.59375 -0.012144017761134605
v 0.14984075216006504 0.59375 0.0753559822388652
v 0.14984075216006487 0.53125 -0.012144017761134619
v 0.14984075216006504 0.53125 0.07535598223886517
v -0.5001592478399334 0.91875 -0.06776901776113421
v -0.5001592478399337 0.91875 -0.0058940177611345014
v -0.5001592478399333 0.7437500000000001 -0.06776901776113434
v -0.5001592478399339 0.7437500000000001 -0.005894017761134568
v -0.41890924783993383 0.91875 -0.06776901776113464
v -0.41890924783993405 0.91875 -0.005894017761134252
v -0.418909247839934 0.7437500000000001 -0.06776901776113471
v -0.4189092478399341 0.7437500000000001 -0.005894017761134388
v -0.5099725367896702 0.7362957628897124 -0.06714401776113427
v -0.5099725367896709 0.7362957628897124 -0.006519017761134404
v -0.2703170372710332 0.15771620565451897 -0.06714401776113466
v -0.2703170372710331 0.15771620565451894 -0.006519017761135046
v -0.27900265366184884 0.8319666209809848 -0.06714401776113438
v -0.27900265366184857 0.8319666209809848 -0.006519017761134563
v -0.0393471541432123 0.2533870637457893 -0.06714401776113486
v -0.039347154143212285 0.2533870637457893 -0.006519017761134885
v 0.41859075216006425 0.912499999999999 -0.06776901776113457
v 0.41859075216006436 0.912499999999999 -0.005894017761134641
v 0.41859075216006425 0.7375 -0.06776901776113461
v 0.41859075216006436 0.7375 -0.005894017761134708
v 0.4998407521600644 0.912499999999999 -0.06776901776113484
v 0.499840752160064 0.912499999999999 -0.005894017761135002
v 0.4998407521600644 0.7375 -0.06776901776113488
v 0.499840752160064 0.7375 -0.005894017761135124
v -0.25015924783993404 0.625 -0.06776901776113481
v -0.2501592478399345 0.625 -0.005894017761134858
v -0.25015924783993393 0.12375000000000219 -0.06776901776113507
v -0.25015924783993454 0.12375000000000218 -0.005894017761135011
v 0.24984075216006457 0.625 -0.0677690177611346
v 0.2498407521600649 0.625 -0.005894017761134733
v 0.24984075216006446 0.12375000000000219 -0.0677690177611349
v 0.2498407521600649 0.12375000000000218 -0.005894017761134955
v 0.28344168720002444 0.855884335503803 -0.06714401776113449
v 0.28344168720002433 0.855884335503803 -0.006519017761134696
v 0.04378618768138739 0.2773047782686091 -0.06714401776113486
v 0.04378618768138734 0.2773047782686091 -0.006519017761134963
v 0.514411570327845 0.7602134774125304 -0.06714401776113425
v 0.514411570327845 0.7602134774125304 -0.006519017761134911
v 0.27475607080920866 0.1816339201773393 -0.06714401776113482
v 0.2747560708092087 0.18163392017733926 -0.006519017761134888
v -0.3564092478399332 0.9562500000000002 -0.25589401776113335
v -0.3564092478399336 0.95625 -0.06839401776113482
v -0.3564092478399332 0.8937500000000002 -0.25589401776113335
v -0.3564092478399336 0.89375 -0.06839401776113484
v -0.14390924783993447 0.9562500000000002 -0.2558940177611341
v -0.14390924783993442 0.95625 -0.0683940177611344
v -0.14390924783993428 0.8937500000000002 -0.2558940177611342
v -0.1439092478399344 0.89375 -0.06839401776113445
v -0.10640924783993468 0.5187500000000002 -0.2558940177611342
v -0.10640924783993441 0.51875 -0.06839401776113466
v -0.10640924783993468 0.45625 -0.2558940177611342
v -0.10640924783993441 0.45624999999999993 -0.06839401776113467
v 0.10609075216006515 0.5187500000000002 -0.25589401776113413
v 0.10609075216006497 0.51875 -0.06839401776113467
v 0.10609075216006515 0.45625 -0.25589401776113413
v 0.10609075216006497 0.45624999999999993 -0.06839401776113468
v -0.10640924783993445 0.19374999999999934 -0.09901901776113473
v -0.10640924783993455 0.1937499999999993 -0.03651901776113498
v -0.10640924783993445 0.13125000000000073 -0.09901901776113474
v -0.10640924783993436 0.1312500000000007 -0.03651901776113501
v 0.10609075216006515 0.19374999999999934 -0.09901901776113475
v 0.10609075216006489 0.1937499999999993 -0.03651901776113491
v 0.1060907521600651 0.13125000000000073 -0.09901901776113477
v 0.10609075216006492 0.1312500000000007 -0.036519017761134955
v -0.4439092478399333 0.8687499999999999 -0.09901901776113431
v -0.4439092478399331 0.8687499999999999 -0.03651901776113454
v -0.44390924783993335 0.65625 -0.09901901776113467
v -0.4439092478399333 0.65625 -0.036519017761134726
v -0.38140924783993363 0.8687499999999999 -0.09901901776113424
v -0.38140924783993313 0.8687499999999999 -0.03651901776113443
v -0.38140924783993374 0.65625 -0.09901901776113436
v -0.3814092478399331 0.65625 -0.036519017761134476
v -0.19390924783993418 0.21874999999999997 -0.0990190177611345
v -0.1939092478399343 0.4312500000000012 -0.0990190177611344
v -0.19390924783993418 0.4312500000000012 -0.03651901776113472
v -0.19390924783993427 0.21874999999999994 -0.03651901776113488
v -0.13140924783993435 0.4312500000000012 -0.09901901776113456
v -0.13140924783993432 0.4312500000000012 -0.03651901776113469
v -0.13140924783993432 0.21874999999999997 -0.09901901776113466
v -0.13140924783993432 0.21874999999999994 -0.036519017761134795
v -0.11890924783993445 0.8687499999999999 -0.09901901776113436
v -0.11890924783993435 0.8687499999999999 -0.036519017761134705
v -0.11890924783993431 0.65625 -0.09901901776113445
v -0.11890924783993437 0.65625 -0.03651901776113478
v -0.05640924783993453 0.8687499999999999 -0.0990190177611344
v -0.05640924783993457 0.8687499999999999 -0.036519017761134566
v -0.056409247839934534 0.65625 -0.09901901776113453
v -0.05640924783993455 0.65625 -0.0365190177611347
v 0.131090752160065 0.4312500000000012 -0.09901901776113471
v 0.13109075216006494 0.4312500000000012 -0.03651901776113483
v 0.131090752160065 0.21874999999999997 -0.0990190177611348
v 0.13109075216006497 0.21874999999999994 -0.03651901776113492
v 0.19359075216006466 0.4312500000000012 -0.09901901776113459
v 0.19359075216006516 0.4312500000000012 -0.03651901776113466
v 0.1935907521600647 0.21874999999999997 -0.09901901776113473
v 0.1935907521600651 0.21874999999999994 -0.036519017761134726
v 0.10653492598422418 0.5200825214724776 -0.2496440177611344
v 0.10653492598422427 0.5200825214724776 -0.06214401776113475
v 0.06234075216006522 0.4758883476483185 -0.24964401776113446
v 0.06234075216006511 0.47588834764831844 -0.06214401776113468
v 0.19492327363254267 0.43169417382415926 -0.24964401776113465
v 0.19492327363254247 0.4316941738241592 -0.06214401776113488
v 0.15072909980838337 0.3875 -0.24964401776113426
v 0.15072909980838314 0.38749999999999996 -0.062144017761134755
v -0.14346507401577532 0.9575825214724776 -0.2496440177611343
v -0.14346507401577502 0.9575825214724776 -0.0621440177611344
v -0.18765924783993404 0.9133883476483184 -0.24964401776113382
v -0.18765924783993423 0.9133883476483184 -0.062144017761134485
v -0.05507672636745681 0.8691941738241591 -0.24964401776113415
v -0.055076726367456925 0.8691941738241591 -0.06214401776113453
v -0.09927090019161604 0.825 -0.24964401776113382
v -0.09927090019161607 0.825 -0.06214401776113455
v -0.09927090019161612 0.7 -0.09964401776113453
v -0.09927090019161605 0.7 -0.03714401776113455
v -0.18765924783993435 0.6116116523516815 -0.09964401776113463
v -0.18765924783993415 0.6116116523516815 -0.03714401776113469
v -0.05507672636745683 0.6558058261758406 -0.09964401776113449
v -0.05507672636745698 0.6558058261758406 -0.03714401776113463
v -0.14346507401577502 0.5674174785275223 -0.09964401776113481
v -0.1434650740157749 0.5674174785275223 -0.03714401776113476
v 0.0623407521600651 0.174111652351683 -0.09964401776113475
v 0.06234075216006514 0.1741116523516829 -0.03714401776113494
v 0.10653492598422439 0.12991747852752414 -0.09964401776113475
v 0.10653492598422433 0.1299174785275241 -0.03714401776113491
v 0.1507290998083836 0.26249999999999957 -0.0996440177611347
v 0.15072909980838328 0.26249999999999957 -0.037144017761134886
v 0.19492327363254264 0.21830582617584474 -0.09964401776113467
v 0.1949232736325425 0.21830582617584465 -0.037144017761134865
v -0.4452417693124108 0.6558058261758406 -0.09964401776113432
v -0.44524176931241066 0.6558058261758406 -0.03714401776113438
v -0.35685342166409345 0.5674174785275223 -0.09964401776113474
v -0.35685342166409295 0.5674174785275223 -0.03714401776113487
v -0.4010475954882519 0.7 -0.09964401776113445
v -0.4010475954882523 0.7 -0.037144017761134705
v -0.3126592478399338 0.6116116523516815 -0.09964401776113437
v -0.3126592478399336 0.6116116523516815 -0.03714401776113497
v -0.15104759548825292 0.26249999999999957 -0.09964401776113474
v -0.15104759548825275 0.26249999999999957 -0.03714401776113494
v -0.1952417693124121 0.21830582617584474 -0.09964401776113477
v -0.19524176931241183 0.21830582617584465 -0.037144017761134976
v -0.06265924783993458 0.174111652351683 -0.09964401776113478
v -0.0626592478399346 0.1741116523516829 -0.0371440177611349
v -0.10685342166409381 0.12991747852752414 -0.0996440177611349
v -0.10685342166409366 0.1299174785275241 -0.0371440177611349
v -0.3568534216640927 0.9575825214724776 -0.24964401776113385
v -0.35685342166409284 0.9575825214724776 -0.06214401776113458
v -0.4452417693124106 0.8691941738241591 -0.24964401776113393
v -0.44524176931241105 0.8691941738241591 -0.06214401776113409
v -0.3126592478399334 0.9133883476483184 -0.24964401776113399
v -0.3126592478399341 0.9133883476483184 -0.062144017761134526
v -0.4010475954882527 0.825 -0.24964401776113404
v -0.40104759548825203 0.825 -0.06214401776113473
v -0.19524176931241172 0.43169417382415926 -0.24964401776113399
v -0.19524176931241208 0.4316941738241592 -0.062144017761134644
v -0.1510475954882525 0.3875 -0.24964401776113426
v -0.1510475954882526 0.38749999999999996 -0.06214401776113481
v -0.10685342166409371 0.5200825214724776 -0.24964401776113423
v -0.10685342166409363 0.5200825214724776 -0.06214401776113475
v -0.0626592478399347 0.4758883476483185 -0.24964401776113435
v -0.0626592478399346 0.47588834764831844 -0.06214401776113475
v 0.1435907521600648 0.6312499999999999 -0.09901901776113461
v 0.14359075216006487 0.6312499999999999 -0.036519017761134816
v 0.14359075216006478 0.5687499999999999 -0.09901901776113464
v 0.14359075216006478 0.5687499999999999 -0.03651901776113486
v 0.3560907521600646 0.6312499999999999 -0.09901901776113464
v 0.3560907521600645 0.6312499999999999 -0.03651901776113444
v 0.3560907521600646 0.5687499999999999 -0.09901901776113466
v 0.3560907521600645 0.5687499999999999 -0.036519017761134455
v 0.3565349259842238 0.9575825214724776 -0.24964401776113446
v 0.35653492598422376 0.9575825214724776 -0.06214401776113461
v 0.31234075216006524 0.9133883476483184 -0.24964401776113448
v 0.31234075216006424 0.9133883476483184 -0.06214401776113457
v 0.4449232736325418 0.8691941738241591 -0.2496440177611347
v 0.4449232736325426 0.8691941738241591 -0.062144017761134256
v 0.4007290998083825 0.825 -0.24964401776113404
v 0.4007290998083832 0.825 -0.06214401776113435
v 0.14314657833590563 0.9575825214724776 -0.24964401776113418
v 0.14314657833590563 0.9575825214724776 -0.06214401776113446
v 0.05475823068758745 0.8691941738241591 -0.24964401776113399
v 0.05475823068758752 0.8691941738241591 -0.06214401776113455
v 0.18734075216006463 0.9133883476483184 -0.2496440177611342
v 0.18734075216006468 0.9133883476483184 -0.062144017761134415
v 0.09895240451174664 0.825 -0.24964401776113415
v 0.0989524045117465 0.825 -0.06214401776113455
v 0.4007290998083826 0.7 -0.09964401776113467
v 0.4007290998083827 0.7 -0.037144017761134816
v 0.31234075216006457 0.6116116523516815 -0.09964401776113475
v 0.3123407521600645 0.6116116523516815 -0.03714401776113462
v 0.44492327363254214 0.6558058261758406 -0.09964401776113482
v 0.4449232736325417 0.6558058261758406 -0.037144017761134906
v 0.35653492598422376 0.5674174785275223 -0.09964401776113452
v 0.35653492598422293 0.5674174785275223 -0.037144017761134844
v 0.054758230687587506 0.6558058261758406 -0.09964401776113457
v 0.05475823068758754 0.6558058261758406 -0.037144017761134684
v 0.14314657833590577 0.5674174785275223 -0.0996440177611345
v 0.14314657833590574 0.5674174785275223 -0.037144017761134705
v 0.09895240451174662 0.7 -0.09964401776113453
v 0.09895240451174657 0.7 -0.03714401776113469
v 0.18734075216006482 0.6116116523516815 -0.09964401776113449
v 0.18734075216006477 0.6116116523516815 -0.03714401776113468
v 0.143590752160065 0.9562500000000002 -0.255894017761134
v 0.14359075216006487 0.95625 -0.06839401776113452
v 0.143590752160065 0.8937500000000002 -0.255894017761134
v 0.14359075216006484 0.89375 -0.06839401776113459
v 0.35609075216006425 0.9562500000000002 -0.2558940177611341
v 0.3560907521600646 0.95625 -0.06839401776113449
v 0.3560907521600641 0.8937500000000002 -0.25589401776113396
v 0.35609075216006447 0.89375 -0.06839401776113457
v 0.056090752160065045 0.8687499999999999 -0.09901901776113436
v 0.05609075216006517 0.8687499999999999 -0.036519017761134566
v 0.05609075216006512 0.65625 -0.09901901776113453
v 0.056090752160065156 0.65625 -0.03651901776113467
v 0.11859075216006498 0.8687499999999999 -0.09901901776113449
v 0.118590752160065 0.8687499999999999 -0.036519017761134566
v 0.118590752160065 0.65625 -0.09901901776113456
v 0.11859075216006501 0.65625 -0.0365190177611347
v 0.38109075216006394 0.8687499999999999 -0.09901901776113414
v 0.3810907521600645 0.8687499999999999 -0.03651901776113461
v 0.3810907521600639 0.65625 -0.09901901776113431
v 0.38109075216006444 0.65625 -0.03651901776113484
v 0.4435907521600648 0.8687499999999999 -0.09901901776113489
v 0.443590752160064 0.8687499999999999 -0.036519017761134566
v 0.4435907521600648 0.65625 -0.09901901776113495
v 0.443590752160064 0.65625 -0.036519017761134615
vt 0.1875 0.59106875
vt 0.16919375 0.609375
vt 0.15625 0.578125
vt 0.59375 0.3125
vt 0.625 0.3125
vt 0.625 0.34375
vt 0.59375 0.34375
vt 0.43481875 0.65625
vt 0.453125 0.67455625
vt 0.421875 0.6875
vt 0.1875 0.56518125
vt 0.1875 0.59106875
vt 0.15625 0.578125
vt 0.546875 0.328125
vt 0.578125 0.328125
vt 0.578125 0.359375
vt 0.546875 0.359375
vt 0.453125 0.67455625
vt 0.453125 0.70044375
vt 0.421875 0.6875
vt 0.16919375 0.546875
vt 0.1875 0.56518125
vt 0.15625 0.578125
vt 0.0625 0.296875
vt 0.09375 0.296875
vt 0.09375 0.328125
vt 0.0625 0.328125
vt 0.453125 0.70044375
vt 0.43481875 0.71875
vt 0.421875 0.6875
vt 0.14330625 0.546875
vt 0.16919375 0.546875
vt 0.15625 0.578125
vt 0.34375 0.3125
vt 0.375 0.3125
vt 0.375 0.34375
vt 0.34375 0.34375
vt 0.43481875 0.71875
vt 0.40893125 0.71875
vt 0.421875 0.6875
vt 0.125 0.56518125
vt 0.14330625 0.546875
vt 0.15625 0.578125
vt 0.109375 0.296875
vt 0.140625 0.296875
vt 0.140625 0.328125
vt 0.109375 0.328125
vt 0.40893125 0.71875
vt 0.390625 0.70044375
vt 0.421875 0.6875
vt 0.125 0.59106875
vt 0.125 0.56518125
vt 0.15625 0.578125
vt 0.65625 0.5
vt 0.6875 0.5
vt 0.6875 0.53125
vt 0.65625 0.53125
vt 0.390625 0.70044375
vt 0.390625 0.67455625
vt 0.421875 0.6875
vt 0.14330625 0.609375
vt 0.125 0.59106875
vt 0.15625 0.578125
vt 0.640625 0.3125
vt 0.671875 0.3125
vt 0.671875 0.34375
vt 0.640625 0.34375
vt 0.390625 0.67455625
vt 0.40893125 0.65625
vt 0.421875 0.6875
vt 0.16919375 0.609375
vt 0.14330625 0.609375
vt 0.15625 0.578125
vt 0.65625 0.546875
vt 0.6875 0.546875
vt 0.6875 0.578125
vt 0.65625 0.578125
vt 0.40893125 0.65625
vt 0.43481875 0.65625
vt 0.421875 0.6875
vt 0.453125 0.62231875
vt 0.43481875 0.640625
vt 0.421875 0.609375
vt 0.671875 0.453125
vt 0.703125 0.453125
vt 0.703125 0.484375
vt 0.671875 0.484375
vt 0.45044375 0.9375
vt 0.46875 0.95580625
vt 0.4375 0.96875
vt 0.453125 0.59643125
vt 0.453125 0.62231875
vt 0.421875 0.609375
vt 0.671875 0.84375
vt 0.703125 0.84375
vt 0.703125 0.875
vt 0.671875 0.875
vt 0.46875 0.95580625
vt 0.46875 0.98169375
vt 0.4375 0.96875
vt 0.43481875 0.578125
vt 0.453125 0.59643125
vt 0.421875 0.609375
vt 0 0.28125
vt 0.03125 0.28125
vt 0.03125 0.3125
vt 0 0.3125
vt 0.46875 0.98169375
vt 0.45044375 1
vt 0.4375 0.96875
vt 0.40893125 0.578125
vt 0.43481875 0.578125
vt 0.421875 0.609375
vt 0.15625 0.296875
vt 0.1875 0.296875
vt 0.1875 0.328125
vt 0.15625 0.328125
vt 0.45044375 1
vt 0.42455625 1
vt 0.4375 0.96875
vt 0.390625 0.59643125
vt 0.40893125 0.578125
vt 0.421875 0.609375
vt 0.25 0.28125
vt 0.28125 0.28125
vt 0.28125 0.3125
vt 0.25 0.3125
vt 0.42455625 1
vt 0.40625 0.98169375
vt 0.4375 0.96875
vt 0.390625 0.62231875
vt 0.390625 0.59643125
vt 0.421875 0.609375
vt 0.671875 0.609375
vt 0.703125 0.609375
vt 0.703125 0.640625
vt 0.671875 0.640625
vt 0.40625 0.98169375
vt 0.40625 0.95580625
vt 0.4375 0.96875
vt 0.40893125 0.640625
vt 0.390625 0.62231875
vt 0.421875 0.609375
vt 0.671875 0.40625
vt 0.703125 0.40625
vt 0.703125 0.4375
vt 0.671875 0.4375
vt 0.40625 0.95580625
vt 0.42455625 0.9375
vt 0.4375 0.96875
vt 0.43481875 0.640625
vt 0.40893125 0.640625
vt 0.421875 0.609375
vt 0.203125 0.296875
vt 0.234375 0.296875
vt 0.234375 0.328125
vt 0.203125 0.328125
vt 0.42455625 0.9375
vt 0.45044375 0.9375
vt 0.4375 0.96875
vt 0.46875 0.90356875
vt 0.45044375 0.921875
vt 0.4375 0.890625
vt 0.34375 0.265625
vt 0.375 0.265625
vt 0.375 0.296875
vt 0.34375 0.296875
vt 0.45044375 0.78125
vt 0.46875 0.79955625
vt 0.4375 0.8125
vt 0.46875 0.87768125
vt 0.46875 0.90356875
vt 0.4375 0.890625
vt 0.296875 0.28125
vt 0.328125 0.28125
vt 0.328125 0.3125
vt 0.296875 0.3125
vt 0.46875 0.79955625
vt 0.46875 0.82544375
vt 0.4375 0.8125
vt 0.45044375 0.859375
vt 0.46875 0.87768125
vt 0.4375 0.890625
vt 0.703125 0.515625
vt 0.734375 0.515625
vt 0.734375 0.546875
vt 0.703125 0.546875
vt 0.46875 0.82544375
vt 0.45044375 0.84375
vt 0.4375 0.8125
vt 0.42455625 0.859375
vt 0.45044375 0.859375
vt 0.4375 0.890625
vt 0.546875 0.28125
vt 0.578125 0.28125
vt 0.578125 0.3125
vt 0.546875 0.3125
vt 0.45044375 0.84375
vt 0.42455625 0.84375
vt 0.4375 0.8125
vt 0.40625 0.87768125
vt 0.42455625 0.859375
vt 0.4375 0.890625
vt 0.59375 0.265625
vt 0.625 0.265625
vt 0.625 0.296875
vt 0.59375 0.296875
vt 0.42455625 0.84375
vt 0.40625 0.82544375
vt 0.4375 0.8125
vt 0.40625 0.90356875
vt 0.40625 0.87768125
vt 0.4375 0.890625
vt 0.6875 0.3125
vt 0.71875 0.3125
vt 0.71875 0.34375
vt 0.6875 0.34375
vt 0.40625 0.82544375
vt 0.40625 0.79955625
vt 0.4375 0.8125
vt 0.42455625 0.921875
vt 0.40625 0.90356875
vt 0.4375 0.890625
vt 0.703125 0.5625
vt 0.734375 0.5625
vt 0.734375 0.59375
vt 0.703125 0.59375
vt 0.40625 0.79955625
vt 0.42455625 0.78125
vt 0.4375 0.8125
vt 0.45044375 0.921875
vt 0.42455625 0.921875
vt 0.4375 0.890625
vt 0.6875 0.359375
vt 0.71875 0.359375
vt 0.71875 0.390625
vt 0.6875 0.390625
vt 0.42455625 0.78125
vt 0.45044375 0.78125
vt 0.4375 0.8125
vt 0.921875 0.6875
vt 0.921875 0.703125
vt 0.90625 0.703125
vt 0.90625 0.6875
vt 0.921875 0.53125
vt 0.921875 0.546875
vt 0.90625 0.546875
vt 0.90625 0.53125
vt 0.484375 0.96875
vt 0.484375 0.953125
vt 0.625 0.953125
vt 0.625 0.96875
vt 0.484375 0.921875
vt 0.484375 0.9375
vt 0.625 0.9375
vt 0.625 0.921875
vt 0.625 0.96875
vt 0.625 0.984375
vt 0.484375 0.984375
vt 0.484375 0.96875
vt 0.53125 0.515625
vt 0.53125 0.53125
vt 0.390625 0.53125
vt 0.390625 0.515625
vt 0.265625 0.03125
vt 0.265625 0.046875
vt 0.25 0.046875
vt 0.25 0.03125
vt 0.96875 0.734375
vt 0.96875 0.75
vt 0.953125 0.75
vt 0.953125 0.734375
vt 0.296875 0.109375
vt 0.296875 0.09375
vt 0.328125 0.09375
vt 0.328125 0.109375
vt 0.890625 0.640625
vt 0.890625 0.65625
vt 0.921875 0.65625
vt 0.921875 0.640625
vt 0.28125 0.078125
vt 0.28125 0.09375
vt 0.25 0.09375
vt 0.25 0.078125
vt 0.921875 0.8125
vt 0.921875 0.828125
vt 0.890625 0.828125
vt 0.890625 0.8125
vt 0.453125 0.078125
vt 0.453125 0.109375
vt 0.4375 0.109375
vt 0.4375 0.078125
vt 0.90625 0.3125
vt 0.90625 0.34375
vt 0.890625 0.34375
vt 0.890625 0.3125
vt 0.28125 0.046875
vt 0.28125 0.03125
vt 0.296875 0.03125
vt 0.296875 0.046875
vt 0.3125 0.03125
vt 0.3125 0.046875
vt 0.328125 0.046875
vt 0.328125 0.03125
vt 0.5 0.078125
vt 0.5 0.109375
vt 0.484375 0.109375
vt 0.484375 0.078125
vt 0.90625 0.59375
vt 0.90625 0.625
vt 0.890625 0.625
vt 0.890625 0.59375
vt 0.078125 0.078125
vt 0.078125 0.109375
vt 0.0625 0.109375
vt 0.0625 0.078125
vt 0.234375 0.078125
vt 0.234375 0.109375
vt 0.21875 0.109375
vt 0.21875 0.078125
vt 0.953125 0.8125
vt 0.953125 0.796875
vt 0.96875 0.796875
vt 0.96875 0.8125
vt 0.953125 0.765625
vt 0.953125 0.78125
vt 0.96875 0.78125
vt 0.96875 0.765625
vt 0.921875 0.84375
vt 0.921875 0.875
vt 0.90625 0.875
vt 0.90625 0.84375
vt 0.609375 0.09375
vt 0.609375 0.125
vt 0.59375 0.125
vt 0.59375 0.09375
vt 0.8125 0.328125
vt 0.8125 0.359375
vt 0.796875 0.359375
vt 0.796875 0.328125
vt 0.109375 0.15625
vt 0.109375 0.1875
vt 0.09375 0.1875
vt 0.09375 0.15625
vt 0.90625 0.515625
vt 0.90625 0.5
vt 0.921875 0.5
vt 0.921875 0.515625
vt 0.5 0.078125
vt 0.5 0.09375
vt 0.515625 0.09375
vt 0.515625 0.078125
vt 0.09375 0.15625
vt 0.09375 0.1875
vt 0.078125 0.1875
vt 0.078125 0.15625
vt 0.8125 0.6875
vt 0.8125 0.71875
vt 0.796875 0.71875
vt 0.796875 0.6875
vt 0.4375 0.296875
vt 0.4375 0.4375
vt 0.421875 0.4375
vt 0.421875 0.296875
vt 0.5 0.296875
vt 0.5 0.4375
vt 0.484375 0.4375
vt 0.484375 0.296875
vt 0.125 0.046875
vt 0.125 0.03125
vt 0.140625 0.03125
vt 0.140625 0.046875
vt 0.953125 0.859375
vt 0.953125 0.875
vt 0.96875 0.875
vt 0.96875 0.859375
vt 0.484375 0.296875
vt 0.484375 0.4375
vt 0.46875 0.4375
vt 0.46875 0.296875
vt 0.5625 0.390625
vt 0.5625 0.53125
vt 0.546875 0.53125
vt 0.546875 0.390625
vt 0.390625 0.09375
vt 0.390625 0.125
vt 0.375 0.125
vt 0.375 0.09375
vt 0.890625 0.484375
vt 0.890625 0.515625
vt 0.875 0.515625
vt 0.875 0.484375
vt 0.9375 0.109375
vt 0.9375 0.09375
vt 0.953125 0.09375
vt 0.953125 0.109375
vt 0.9375 0.0625
vt 0.9375 0.078125
vt 0.953125 0.078125
vt 0.953125 0.0625
vt 0.4375 0.09375
vt 0.4375 0.125
vt 0.421875 0.125
vt 0.421875 0.09375
vt 0.359375 0.09375
vt 0.359375 0.125
vt 0.34375 0.125
vt 0.34375 0.09375
vt 0.859375 0.046875
vt 0.859375 0.0625
vt 0.84375 0.0625
vt 0.84375 0.046875
vt 0.890625 0.046875
vt 0.890625 0.0625
vt 0.875 0.0625
vt 0.875 0.046875
vt 0.875 0.765625
vt 0.875 0.75
vt 0.90625 0.75
vt 0.90625 0.765625
vt 0.875 0.71875
vt 0.875 0.734375
vt 0.90625 0.734375
vt 0.90625 0.71875
vt 0.90625 0.765625
vt 0.90625 0.78125
vt 0.875 0.78125
vt 0.875 0.765625
vt 0.203125 0.109375
vt 0.203125 0.125
vt 0.171875 0.125
vt 0.171875 0.109375
vt 0.9375 0.375
vt 0.9375 0.390625
vt 0.921875 0.390625
vt 0.921875 0.375
vt 0.9375 0.34375
vt 0.9375 0.359375
vt 0.921875 0.359375
vt 0.921875 0.34375
vt 0.71875 0.875
vt 0.71875 0.859375
vt 0.78125 0.859375
vt 0.78125 0.875
vt 0.71875 0.75
vt 0.71875 0.765625
vt 0.78125 0.765625
vt 0.78125 0.75
vt 0.1875 0.25
vt 0.1875 0.265625
vt 0.125 0.265625
vt 0.125 0.25
vt 0.78125 0.890625
vt 0.78125 0.90625
vt 0.71875 0.90625
vt 0.71875 0.890625
vt 0.109375 0.03125
vt 0.109375 0.046875
vt 0.09375 0.046875
vt 0.09375 0.03125
vt 1 0.890625
vt 1 0.90625
vt 0.984375 0.90625
vt 0.984375 0.890625
vt 0.875 0.171875
vt 0.875 0.15625
vt 0.90625 0.15625
vt 0.90625 0.171875
vt 0.875 0.125
vt 0.875 0.140625
vt 0.90625 0.140625
vt 0.90625 0.125
vt 0.90625 0.234375
vt 0.90625 0.25
vt 0.875 0.25
vt 0.875 0.234375
vt 0.90625 0.359375
vt 0.90625 0.375
vt 0.875 0.375
vt 0.875 0.359375
vt 0.890625 0.4375
vt 0.890625 0.46875
vt 0.875 0.46875
vt 0.875 0.4375
vt 0.890625 0.390625
vt 0.890625 0.421875
vt 0.875 0.421875
vt 0.875 0.390625
vt 0 0.046875
vt 0 0.03125
vt 0.015625 0.03125
vt 0.015625 0.046875
vt 0.03125 0.03125
vt 0.03125 0.046875
vt 0.046875 0.046875
vt 0.046875 0.03125
vt 0.59375 0.09375
vt 0.59375 0.125
vt 0.578125 0.125
vt 0.578125 0.09375
vt 0.546875 0.09375
vt 0.546875 0.125
vt 0.53125 0.125
vt 0.53125 0.09375
vt 0.265625 0.375
vt 0.265625 0.515625
vt 0.25 0.515625
vt 0.25 0.375
vt 0.40625 0.359375
vt 0.40625 0.5
vt 0.390625 0.5
vt 0.390625 0.359375
vt 0.40625 0.078125
vt 0.40625 0.0625
vt 0.421875 0.0625
vt 0.421875 0.078125
vt 0.53125 0.0625
vt 0.53125 0.078125
vt 0.546875 0.078125
vt 0.546875 0.0625
vt 0.53125 0.59375
vt 0.53125 0.734375
vt 0.515625 0.734375
vt 0.515625 0.59375
vt 0.234375 0.375
vt 0.234375 0.515625
vt 0.21875 0.515625
vt 0.21875 0.375
vt 0.5625 0.140625
vt 0.5625 0.171875
vt 0.546875 0.171875
vt 0.546875 0.140625
vt 0.328125 0.125
vt 0.328125 0.15625
vt 0.3125 0.15625
vt 0.3125 0.125
vt 0.375 0.078125
vt 0.375 0.0625
vt 0.390625 0.0625
vt 0.390625 0.078125
vt 0.921875 0.609375
vt 0.921875 0.625
vt 0.9375 0.625
vt 0.9375 0.609375
vt 0.3125 0.125
vt 0.3125 0.15625
vt 0.296875 0.15625
vt 0.296875 0.125
vt 0.765625 0.15625
vt 0.765625 0.1875
vt 0.75 0.1875
vt 0.75 0.15625
vt 0.015625 0.0625
vt 0.015625 0.09375
vt 0 0.09375
vt 0 0.0625
vt 0.921875 0.921875
vt 0.921875 0.953125
vt 0.90625 0.953125
vt 0.90625 0.921875
vt 0.375 0.046875
vt 0.375 0.03125
vt 0.390625 0.03125
vt 0.390625 0.046875
vt 0.40625 0.03125
vt 0.40625 0.046875
vt 0.421875 0.046875
vt 0.421875 0.03125
vt 0.9375 0.96875
vt 0.9375 1
vt 0.921875 1
vt 0.921875 0.96875
vt 0.875 0.078125
vt 0.875 0.109375
vt 0.859375 0.109375
vt 0.859375 0.078125
vt 0.796875 0.078125
vt 0.796875 0.109375
vt 0.78125 0.109375
vt 0.78125 0.078125
vt 0.859375 0.078125
vt 0.859375 0.109375
vt 0.84375 0.109375
vt 0.84375 0.078125
vt 0.34375 0.046875
vt 0.34375 0.03125
vt 0.359375 0.03125
vt 0.359375 0.046875
vt 0.953125 0.625
vt 0.953125 0.640625
vt 0.96875 0.640625
vt 0.96875 0.625
vt 0.84375 0.078125
vt 0.84375 0.109375
vt 0.828125 0.109375
vt 0.828125 0.078125
vt 0.90625 0.203125
vt 0.90625 0.234375
vt 0.890625 0.234375
vt 0.890625 0.203125
vt 0.546875 0.03125
vt 0.546875 0.046875
vt 0.53125 0.046875
vt 0.53125 0.03125
vt 0.578125 0.03125
vt 0.578125 0.046875
vt 0.5625 0.046875
vt 0.5625 0.03125
vt 0.90625 0.90625
vt 0.90625 0.890625
vt 0.9375 0.890625
vt 0.9375 0.90625
vt 0.15625 0.234375
vt 0.15625 0.25
vt 0.1875 0.25
vt 0.1875 0.234375
vt 0.921875 0.265625
vt 0.921875 0.28125
vt 0.890625 0.28125
vt 0.890625 0.265625
vt 0.921875 0.5625
vt 0.921875 0.578125
vt 0.890625 0.578125
vt 0.890625 0.5625
vt 0.59375 0.78125
vt 0.59375 0.875
vt 0.578125 0.875
vt 0.578125 0.78125
vt 0.59375 0.4375
vt 0.59375 0.53125
vt 0.578125 0.53125
vt 0.578125 0.4375
vt 0.40625 0.765625
vt 0.40625 0.75
vt 0.609375 0.75
vt 0.609375 0.765625
vt 0.390625 0.546875
vt 0.390625 0.5625
vt 0.59375 0.5625
vt 0.59375 0.546875
vt 0.203125 0.796875
vt 0.203125 0.890625
vt 0 0.890625
vt 0 0.796875
vt 0.203125 0.90625
vt 0.203125 1
vt 0 1
vt 0 0.90625
vt 0.921875 0.46875
vt 0.921875 0.484375
vt 0.90625 0.484375
vt 0.90625 0.46875
vt 0.921875 0.4375
vt 0.921875 0.453125
vt 0.90625 0.453125
vt 0.90625 0.4375
vt 0.71875 0.46875
vt 0.71875 0.453125
vt 0.765625 0.453125
vt 0.765625 0.46875
vt 0.71875 0.421875
vt 0.71875 0.4375
vt 0.765625 0.4375
vt 0.765625 0.421875
vt 0.765625 0.484375
vt 0.765625 0.5
vt 0.71875 0.5
vt 0.71875 0.484375
vt 0.515625 0.265625
vt 0.515625 0.28125
vt 0.46875 0.28125
vt 0.46875 0.265625
vt 0.921875 0.40625
vt 0.921875 0.421875
vt 0.90625 0.421875
vt 0.90625 0.40625
vt 0.640625 0.078125
vt 0.640625 0.09375
vt 0.625 0.09375
vt 0.625 0.078125
vt 0.125 0.1875
vt 0.125 0.171875
vt 0.15625 0.171875
vt 0.15625 0.1875
vt 0.8125 0.828125
vt 0.8125 0.84375
vt 0.84375 0.84375
vt 0.84375 0.828125
vt 0.828125 0.625
vt 0.828125 0.640625
vt 0.796875 0.640625
vt 0.796875 0.625
vt 0.828125 0.859375
vt 0.828125 0.875
vt 0.796875 0.875
vt 0.796875 0.859375
vt 0.671875 0.078125
vt 0.671875 0.09375
vt 0.65625 0.09375
vt 0.65625 0.078125
vt 0.703125 0.078125
vt 0.703125 0.09375
vt 0.6875 0.09375
vt 0.6875 0.078125
vt 0.359375 0.1875
vt 0.359375 0.171875
vt 0.390625 0.171875
vt 0.390625 0.1875
vt 0.40625 0.171875
vt 0.40625 0.1875
vt 0.4375 0.1875
vt 0.4375 0.171875
vt 0.84375 0.65625
vt 0.84375 0.671875
vt 0.8125 0.671875
vt 0.8125 0.65625
vt 0.84375 0.796875
vt 0.84375 0.8125
vt 0.8125 0.8125
vt 0.8125 0.796875
vt 0.734375 0.078125
vt 0.734375 0.09375
vt 0.71875 0.09375
vt 0.71875 0.078125
vt 0.765625 0.078125
vt 0.765625 0.09375
vt 0.75 0.09375
vt 0.75 0.078125
vt 0.578125 0.1875
vt 0.578125 0.171875
vt 0.609375 0.171875
vt 0.609375 0.1875
vt 0.8125 0.203125
vt 0.8125 0.21875
vt 0.84375 0.21875
vt 0.84375 0.203125
vt 0.84375 0.53125
vt 0.84375 0.546875
vt 0.8125 0.546875
vt 0.8125 0.53125
vt 0.484375 0.171875
vt 0.484375 0.1875
vt 0.453125 0.1875
vt 0.453125 0.171875
vt 0.921875 0.09375
vt 0.921875 0.109375
vt 0.90625 0.109375
vt 0.90625 0.09375
vt 0.046875 0.0625
vt 0.046875 0.078125
vt 0.03125 0.078125
vt 0.03125 0.0625
vt 0.828125 0.75
vt 0.828125 0.734375
vt 0.859375 0.734375
vt 0.859375 0.75
vt 0.828125 0.703125
vt 0.828125 0.71875
vt 0.859375 0.71875
vt 0.859375 0.703125
vt 0.859375 0.765625
vt 0.859375 0.78125
vt 0.828125 0.78125
vt 0.828125 0.765625
vt 0.84375 0.171875
vt 0.84375 0.1875
vt 0.8125 0.1875
vt 0.8125 0.171875
vt 0.109375 0.0625
vt 0.109375 0.078125
vt 0.09375 0.078125
vt 0.09375 0.0625
vt 0.140625 0.0625
vt 0.140625 0.078125
vt 0.125 0.078125
vt 0.125 0.0625
vt 0.828125 0.390625
vt 0.828125 0.375
vt 0.859375 0.375
vt 0.859375 0.390625
vt 0.625 0.15625
vt 0.625 0.171875
vt 0.65625 0.171875
vt 0.65625 0.15625
vt 0.859375 0.40625
vt 0.859375 0.421875
vt 0.828125 0.421875
vt 0.828125 0.40625
vt 0.53125 0.15625
vt 0.53125 0.171875
vt 0.5 0.171875
vt 0.5 0.15625
vt 0.9375 0.859375
vt 0.9375 0.875
vt 0.921875 0.875
vt 0.921875 0.859375
vt 0.9375 0.78125
vt 0.9375 0.796875
vt 0.921875 0.796875
vt 0.921875 0.78125
vt 0.84375 0.875
vt 0.84375 0.859375
vt 0.875 0.859375
vt 0.875 0.875
vt 0.171875 0.140625
vt 0.171875 0.15625
vt 0.203125 0.15625
vt 0.203125 0.140625
vt 0.15625 0.140625
vt 0.15625 0.15625
vt 0.125 0.15625
vt 0.125 0.140625
vt 0.859375 0.34375
vt 0.859375 0.359375
vt 0.828125 0.359375
vt 0.828125 0.34375
vt 0.9375 0.75
vt 0.9375 0.765625
vt 0.921875 0.765625
vt 0.921875 0.75
vt 0.265625 0.0625
vt 0.265625 0.078125
vt 0.25 0.078125
vt 0.25 0.0625
vt 0.640625 0.96875
vt 0.640625 0.953125
vt 0.71875 0.953125
vt 0.71875 0.96875
vt 0.0625 0.34375
vt 0.0625 0.359375
vt 0.140625 0.359375
vt 0.140625 0.34375
vt 0.71875 0.984375
vt 0.71875 1
vt 0.640625 1
vt 0.640625 0.984375
vt 0.703125 0.75
vt 0.703125 0.765625
vt 0.625 0.765625
vt 0.625 0.75
vt 0.21875 0.234375
vt 0.21875 0.28125
vt 0.203125 0.28125
vt 0.203125 0.234375
vt 0.015625 0.21875
vt 0.015625 0.265625
vt 0 0.265625
vt 0 0.21875
vt 0.3125 0.078125
vt 0.3125 0.0625
vt 0.328125 0.0625
vt 0.328125 0.078125
vt 0.34375 0.0625
vt 0.34375 0.078125
vt 0.359375 0.078125
vt 0.359375 0.0625
vt 0.734375 0.25
vt 0.734375 0.296875
vt 0.71875 0.296875
vt 0.71875 0.25
vt 0.40625 0.296875
vt 0.40625 0.34375
vt 0.390625 0.34375
vt 0.390625 0.296875
vt 0.140625 0.375
vt 0.140625 0.53125
vt 0.125 0.53125
vt 0.125 0.375
vt 0.171875 0.375
vt 0.171875 0.53125
vt 0.15625 0.53125
vt 0.15625 0.375
vt 0.640625 0.296875
vt 0.640625 0.28125
vt 0.703125 0.28125
vt 0.703125 0.296875
vt 0.046875 0.265625
vt 0.046875 0.28125
vt 0.109375 0.28125
vt 0.109375 0.265625
vt 0.28125 0.703125
vt 0.28125 0.859375
vt 0.21875 0.859375
vt 0.21875 0.703125
vt 0.203125 0.625
vt 0.203125 0.78125
vt 0.140625 0.78125
vt 0.140625 0.625
vt 0.25 0.21875
vt 0.25 0.265625
vt 0.234375 0.265625
vt 0.234375 0.21875
vt 0.75 0.6875
vt 0.75 0.734375
vt 0.734375 0.734375
vt 0.734375 0.6875
vt 0.5625 0.078125
vt 0.5625 0.0625
vt 0.578125 0.0625
vt 0.578125 0.078125
vt 0.59375 0.0625
vt 0.59375 0.078125
vt 0.609375 0.078125
vt 0.609375 0.0625
vt 0.28125 0.21875
vt 0.28125 0.265625
vt 0.265625 0.265625
vt 0.265625 0.21875
vt 0.75 0.953125
vt 0.75 1
vt 0.734375 1
vt 0.734375 0.953125
vt 0.5625 0.78125
vt 0.5625 0.90625
vt 0.546875 0.90625
vt 0.546875 0.78125
vt 0.53125 0.3125
vt 0.53125 0.4375
vt 0.515625 0.4375
vt 0.515625 0.3125
vt 0.53125 0.609375
vt 0.53125 0.59375
vt 0.65625 0.59375
vt 0.65625 0.609375
vt 0.578125 0.890625
vt 0.578125 0.90625
vt 0.703125 0.90625
vt 0.703125 0.890625
vt 0.34375 0.875
vt 0.34375 1
vt 0.21875 1
vt 0.21875 0.875
vt 0.125 0.65625
vt 0.125 0.78125
vt 0 0.78125
vt 0 0.65625
vt 0.203125 0.375
vt 0.203125 0.53125
vt 0.1875 0.53125
vt 0.1875 0.375
vt 0.484375 0.578125
vt 0.484375 0.734375
vt 0.46875 0.734375
vt 0.46875 0.578125
vt 0.71875 0.640625
vt 0.71875 0.625
vt 0.78125 0.625
vt 0.78125 0.640625
vt 0.390625 0.265625
vt 0.390625 0.28125
vt 0.453125 0.28125
vt 0.453125 0.265625
vt 0.28125 0.53125
vt 0.28125 0.6875
vt 0.21875 0.6875
vt 0.21875 0.53125
vt 0.359375 0.703125
vt 0.359375 0.859375
vt 0.296875 0.859375
vt 0.296875 0.703125
vt 0.578125 0.25
vt 0.578125 0.265625
vt 0.53125 0.265625
vt 0.53125 0.25
vt 0.78125 0.359375
vt 0.78125 0.375
vt 0.734375 0.375
vt 0.734375 0.359375
vt 0.484375 0.90625
vt 0.484375 0.859375
vt 0.53125 0.859375
vt 0.53125 0.90625
vt 0.484375 0.796875
vt 0.484375 0.84375
vt 0.53125 0.84375
vt 0.53125 0.796875
vt 0.78125 0.390625
vt 0.78125 0.40625
vt 0.734375 0.40625
vt 0.734375 0.390625
vt 0.78125 0.921875
vt 0.78125 0.9375
vt 0.734375 0.9375
vt 0.734375 0.921875
vt 0.78125 0.328125
vt 0.78125 0.34375
vt 0.734375 0.34375
vt 0.734375 0.328125
vt 0.140625 0.234375
vt 0.140625 0.25
vt 0.09375 0.25
vt 0.09375 0.234375
vt 0.421875 0.5
vt 0.421875 0.453125
vt 0.46875 0.453125
vt 0.46875 0.5
vt 0.484375 0.453125
vt 0.484375 0.5
vt 0.53125 0.5
vt 0.53125 0.453125
vt 0.078125 0.234375
vt 0.078125 0.25
vt 0.03125 0.25
vt 0.03125 0.234375
vt 0.6875 0.25
vt 0.6875 0.265625
vt 0.640625 0.265625
vt 0.640625 0.25
vt 0.9375 0.3125
vt 0.9375 0.328125
vt 0.921875 0.328125
vt 0.921875 0.3125
vt 0.9375 0.25
vt 0.9375 0.265625
vt 0.921875 0.265625
vt 0.921875 0.25
vt 0.296875 0.25
vt 0.296875 0.234375
vt 0.34375 0.234375
vt 0.34375 0.25
vt 0.75 0.65625
vt 0.75 0.671875
vt 0.796875 0.671875
vt 0.796875 0.65625
vt 0.796875 0.796875
vt 0.796875 0.8125
vt 0.75 0.8125
vt 0.75 0.796875
vt 0.796875 0.828125
vt 0.796875 0.84375
vt 0.75 0.84375
vt 0.75 0.828125
vt 0.375 0.203125
vt 0.375 0.25
vt 0.359375 0.25
vt 0.359375 0.203125
vt 0.765625 0.5625
vt 0.765625 0.609375
vt 0.75 0.609375
vt 0.75 0.5625
vt 0.921875 0.234375
vt 0.921875 0.21875
vt 0.9375 0.21875
vt 0.9375 0.234375
vt 0.921875 0.1875
vt 0.921875 0.203125
vt 0.9375 0.203125
vt 0.9375 0.1875
vt 0.40625 0.203125
vt 0.40625 0.25
vt 0.390625 0.25
vt 0.390625 0.203125
vt 0.171875 0.203125
vt 0.171875 0.25
vt 0.15625 0.25
vt 0.15625 0.203125
vt 0.46875 0.203125
vt 0.46875 0.25
vt 0.453125 0.25
vt 0.453125 0.203125
vt 0.609375 0.203125
vt 0.609375 0.25
vt 0.59375 0.25
vt 0.59375 0.203125
vt 0.921875 0.171875
vt 0.921875 0.15625
vt 0.9375 0.15625
vt 0.9375 0.171875
vt 0.921875 0.125
vt 0.921875 0.140625
vt 0.9375 0.140625
vt 0.9375 0.125
vt 0.5 0.203125
vt 0.5 0.25
vt 0.484375 0.25
vt 0.484375 0.203125
vt 0.4375 0.203125
vt 0.4375 0.25
vt 0.421875 0.25
vt 0.421875 0.203125
vt 0.765625 0.203125
vt 0.765625 0.25
vt 0.75 0.25
vt 0.75 0.203125
vt 0.78125 0.6875
vt 0.78125 0.734375
vt 0.765625 0.734375
vt 0.765625 0.6875
vt 0.90625 0.078125
vt 0.90625 0.0625
vt 0.921875 0.0625
vt 0.921875 0.078125
vt 0.9375 0.984375
vt 0.9375 1
vt 0.953125 1
vt 0.953125 0.984375
vt 0.78125 0.953125
vt 0.78125 1
vt 0.765625 1
vt 0.765625 0.953125
vt 0.765625 0.265625
vt 0.765625 0.3125
vt 0.75 0.3125
vt 0.75 0.265625
vt 0.5625 0.1875
vt 0.5625 0.234375
vt 0.546875 0.234375
vt 0.546875 0.1875
vt 0.671875 0.1875
vt 0.671875 0.234375
vt 0.65625 0.234375
vt 0.65625 0.1875
vt 0.9375 0.96875
vt 0.9375 0.953125
vt 0.953125 0.953125
vt 0.953125 0.96875
vt 0.0625 0.046875
vt 0.0625 0.0625
vt 0.078125 0.0625
vt 0.078125 0.046875
vt 0.640625 0.1875
vt 0.640625 0.234375
vt 0.625 0.234375
vt 0.625 0.1875
vt 0.53125 0.1875
vt 0.53125 0.234375
vt 0.515625 0.234375
vt 0.515625 0.1875
vt 0.796875 0.53125
vt 0.796875 0.546875
vt 0.75 0.546875
vt 0.75 0.53125
vt 0.734375 0.21875
vt 0.734375 0.234375
vt 0.6875 0.234375
vt 0.6875 0.21875
vt 0.578125 0.421875
vt 0.578125 0.375
vt 0.609375 0.375
vt 0.609375 0.421875
vt 0.59375 0.6875
vt 0.59375 0.734375
vt 0.625 0.734375
vt 0.625 0.6875
vt 0.875 0.625
vt 0.875 0.640625
vt 0.84375 0.640625
vt 0.84375 0.625
vt 0.375 0.140625
vt 0.375 0.15625
vt 0.34375 0.15625
vt 0.34375 0.140625
vt 0.078125 0.203125
vt 0.078125 0.21875
vt 0.03125 0.21875
vt 0.03125 0.203125
vt 0.140625 0.203125
vt 0.140625 0.21875
vt 0.09375 0.21875
vt 0.09375 0.203125
vt 0.28125 0.40625
vt 0.28125 0.359375
vt 0.3125 0.359375
vt 0.3125 0.40625
vt 0.328125 0.359375
vt 0.328125 0.40625
vt 0.359375 0.40625
vt 0.359375 0.359375
vt 0.875 0.59375
vt 0.875 0.609375
vt 0.84375 0.609375
vt 0.84375 0.59375
vt 0.421875 0.140625
vt 0.421875 0.15625
vt 0.390625 0.15625
vt 0.390625 0.140625
vt 0.484375 0.125
vt 0.484375 0.15625
vt 0.46875 0.15625
vt 0.46875 0.125
vt 0.859375 0.4375
vt 0.859375 0.46875
vt 0.84375 0.46875
vt 0.84375 0.4375
vt 0.9375 0.9375
vt 0.9375 0.921875
vt 0.953125 0.921875
vt 0.953125 0.9375
vt 0.15625 0.046875
vt 0.15625 0.0625
vt 0.171875 0.0625
vt 0.171875 0.046875
vt 0.859375 0.484375
vt 0.859375 0.515625
vt 0.84375 0.515625
vt 0.84375 0.484375
vt 0.453125 0.125
vt 0.453125 0.15625
vt 0.4375 0.15625
vt 0.4375 0.125
vt 0.953125 0.828125
vt 0.953125 0.84375
vt 0.9375 0.84375
vt 0.9375 0.828125
vt 0.203125 0.046875
vt 0.203125 0.0625
vt 0.1875 0.0625
vt 0.1875 0.046875
vt 0.84375 0.328125
vt 0.84375 0.3125
vt 0.875 0.3125
vt 0.875 0.328125
vt 0.84375 0.28125
vt 0.84375 0.296875
vt 0.875 0.296875
vt 0.875 0.28125
vt 0.609375 0.140625
vt 0.609375 0.15625
vt 0.578125 0.15625
vt 0.578125 0.140625
vt 0.875 0.5625
vt 0.875 0.578125
vt 0.84375 0.578125
vt 0.84375 0.5625
vt 0.796875 0.125
vt 0.796875 0.15625
vt 0.78125 0.15625
vt 0.78125 0.125
vt 0.859375 0.125
vt 0.859375 0.15625
vt 0.84375 0.15625
vt 0.84375 0.125
vt 0.21875 0.0625
vt 0.21875 0.046875
vt 0.234375 0.046875
vt 0.234375 0.0625
vt 0.9375 0.6875
vt 0.9375 0.703125
vt 0.953125 0.703125
vt 0.953125 0.6875
vt 0.828125 0.125
vt 0.828125 0.15625
vt 0.8125 0.15625
vt 0.8125 0.125
vt 0.859375 0.234375
vt 0.859375 0.265625
vt 0.84375 0.265625
vt 0.84375 0.234375
vt 0.953125 0.65625
vt 0.953125 0.671875
vt 0.9375 0.671875
vt 0.9375 0.65625
vt 0.953125 0.578125
vt 0.953125 0.59375
vt 0.9375 0.59375
vt 0.9375 0.578125
vt 0.0625 0.140625
vt 0.0625 0.125
vt 0.09375 0.125
vt 0.09375 0.140625
vt 0.859375 0.921875
vt 0.859375 0.9375
vt 0.890625 0.9375
vt 0.890625 0.921875
vt 0.890625 0.953125
vt 0.890625 0.96875
vt 0.859375 0.96875
vt 0.859375 0.953125
vt 0.890625 0.984375
vt 0.890625 1
vt 0.859375 1
vt 0.859375 0.984375
vt 0.640625 0.640625
vt 0.640625 0.671875
vt 0.59375 0.671875
vt 0.59375 0.640625
vt 0.65625 0.84375
vt 0.65625 0.875
vt 0.609375 0.875
vt 0.609375 0.84375
vt 0.1875 0.21875
vt 0.1875 0.171875
vt 0.203125 0.171875
vt 0.203125 0.21875
vt 0.296875 0.171875
vt 0.296875 0.21875
vt 0.3125 0.21875
vt 0.3125 0.171875
vt 0.875 0.8125
vt 0.875 0.84375
vt 0.859375 0.84375
vt 0.859375 0.8125
vt 0.015625 0.109375
vt 0.015625 0.140625
vt 0 0.140625
vt 0 0.109375
vt 0.828125 0.59375
vt 0.828125 0.609375
vt 0.78125 0.609375
vt 0.78125 0.59375
vt 0.828125 0.5625
vt 0.828125 0.578125
vt 0.78125 0.578125
vt 0.78125 0.5625
vt 0.609375 0.828125
vt 0.609375 0.78125
vt 0.640625 0.78125
vt 0.640625 0.828125
vt 0.609375 0.53125
vt 0.609375 0.578125
vt 0.640625 0.578125
vt 0.640625 0.53125
vt 0.25 0.125
vt 0.25 0.140625
vt 0.21875 0.140625
vt 0.21875 0.125
vt 0.890625 0.890625
vt 0.890625 0.90625
vt 0.859375 0.90625
vt 0.859375 0.890625
vt 0.515625 0.046875
vt 0.515625 0.0625
vt 0.5 0.0625
vt 0.5 0.046875
vt 0.953125 0.484375
vt 0.953125 0.5
vt 0.9375 0.5
vt 0.9375 0.484375
vt 0.78125 0.453125
vt 0.78125 0.4375
vt 0.828125 0.4375
vt 0.828125 0.453125
vt 0.78125 0.296875
vt 0.78125 0.3125
vt 0.828125 0.3125
vt 0.828125 0.296875
vt 0.828125 0.46875
vt 0.828125 0.484375
vt 0.78125 0.484375
vt 0.78125 0.46875
vt 0.828125 0.5
vt 0.828125 0.515625
vt 0.78125 0.515625
vt 0.78125 0.5
vt 0.828125 0.265625
vt 0.828125 0.28125
vt 0.78125 0.28125
vt 0.78125 0.265625
vt 0.828125 0.234375
vt 0.828125 0.25
vt 0.78125 0.25
vt 0.78125 0.234375
vt 0.609375 0.515625
vt 0.609375 0.46875
vt 0.640625 0.46875
vt 0.640625 0.515625
vt 0.625 0.40625
vt 0.625 0.453125
vt 0.65625 0.453125
vt 0.65625 0.40625
vt 0.890625 0.53125
vt 0.890625 0.546875
vt 0.859375 0.546875
vt 0.859375 0.53125
vt 0.890625 0.671875
vt 0.890625 0.6875
vt 0.859375 0.6875
vt 0.859375 0.671875
vt 0.671875 0.359375
vt 0.671875 0.390625
vt 0.625 0.390625
vt 0.625 0.359375
vt 0.046875 0.328125
vt 0.046875 0.359375
vt 0 0.359375
vt 0 0.328125
vt 0.328125 0.21875
vt 0.328125 0.171875
vt 0.34375 0.171875
vt 0.34375 0.21875
vt 0.78125 0.171875
vt 0.78125 0.21875
vt 0.796875 0.21875
vt 0.796875 0.171875
vt 0.640625 0.109375
vt 0.640625 0.140625
vt 0.625 0.140625
vt 0.625 0.109375
vt 0.515625 0.109375
vt 0.515625 0.140625
vt 0.5 0.140625
vt 0.5 0.109375
vt 0.703125 0.109375
vt 0.703125 0.140625
vt 0.6875 0.140625
vt 0.6875 0.109375
vt 0.765625 0.109375
vt 0.765625 0.140625
vt 0.75 0.140625
vt 0.75 0.109375
vt 0.9375 0.46875
vt 0.9375 0.453125
vt 0.953125 0.453125
vt 0.953125 0.46875
vt 0.9375 0.421875
vt 0.9375 0.4375
vt 0.953125 0.4375
vt 0.953125 0.421875
vt 0.734375 0.109375
vt 0.734375 0.140625
vt 0.71875 0.140625
vt 0.71875 0.109375
vt 0.671875 0.109375
vt 0.671875 0.140625
vt 0.65625 0.140625
vt 0.65625 0.109375
vt 0.046875 0.09375
vt 0.046875 0.125
vt 0.03125 0.125
vt 0.03125 0.09375
vt 0.15625 0.09375
vt 0.15625 0.125
vt 0.140625 0.125
vt 0.140625 0.09375
vt 0.625 0.0625
vt 0.625 0.046875
vt 0.640625 0.046875
vt 0.640625 0.0625
vt 0.65625 0.046875
vt 0.65625 0.0625
vt 0.671875 0.0625
vt 0.671875 0.046875
vt 0.125 0.09375
vt 0.125 0.125
vt 0.109375 0.125
vt 0.109375 0.09375
vt 0.875 0.1875
vt 0.875 0.21875
vt 0.859375 0.21875
vt 0.859375 0.1875
vt 0.84375 0.953125
vt 0.84375 0.96875
vt 0.796875 0.96875
vt 0.796875 0.953125
vt 0.84375 0.890625
vt 0.84375 0.90625
vt 0.796875 0.90625
vt 0.796875 0.890625
vt 0.53125 0.734375
vt 0.53125 0.6875
vt 0.578125 0.6875
vt 0.578125 0.734375
vt 0.53125 0.625
vt 0.53125 0.671875
vt 0.578125 0.671875
vt 0.578125 0.625
vt 0.84375 0.921875
vt 0.84375 0.9375
vt 0.796875 0.9375
vt 0.796875 0.921875
vt 0.84375 0.984375
vt 0.84375 1
vt 0.796875 1
vt 0.796875 0.984375
vt 0.234375 0.15625
vt 0.234375 0.203125
vt 0.21875 0.203125
vt 0.21875 0.15625
vt 0.265625 0.15625
vt 0.265625 0.203125
vt 0.25 0.203125
vt 0.25 0.15625
vt 0.6875 0.0625
vt 0.6875 0.046875
vt 0.703125 0.046875
vt 0.703125 0.0625
vt 0.9375 0.28125
vt 0.9375 0.296875
vt 0.953125 0.296875
vt 0.953125 0.28125
vt 0.8125 0.734375
vt 0.8125 0.78125
vt 0.796875 0.78125
vt 0.796875 0.734375
vt 0.015625 0.15625
vt 0.015625 0.203125
vt 0 0.203125
vt 0 0.15625
vt 0.703125 0.15625
vt 0.703125 0.203125
vt 0.6875 0.203125
vt 0.6875 0.15625
vt 0.046875 0.140625
vt 0.046875 0.1875
vt 0.03125 0.1875
vt 0.03125 0.140625
vt 0.71875 0.0625
vt 0.71875 0.046875
vt 0.734375 0.046875
vt 0.734375 0.0625
vt 0.75 0.046875
vt 0.75 0.0625
vt 0.765625 0.0625
vt 0.765625 0.046875
vt 0.734375 0.15625
vt 0.734375 0.203125
vt 0.71875 0.203125
vt 0.71875 0.15625
vt 0.8125 0.375
vt 0.8125 0.421875
vt 0.796875 0.421875
vt 0.796875 0.375
vn 7.160660730120032e-16 7.456070350763335e-17 -1
vn -0.7071067811865394 0.7071067811865557 -1.78622424858053e-15
vn -2.2204569480318716e-16 -7.581084722480007e-16 1
vn 7.771561172376118e-16 2.220446049250313e-16 -1
vn -1 5.916456789157595e-31 -2.6645352591003785e-15
vn 0 -2.220446049250313e-16 1
vn 7.160660730120059e-16 3.6952850634242737e-16 -1
vn -0.7071067811865501 -0.707106781186545 -6.930736581301369e-16
vn -2.2204569480317784e-16 3.140192623979312e-16 1
vn 9.381071632336007e-16 2.7755575615628933e-16 -1
vn 0 -1 -2.220446049250313e-16
vn 2.6803061806674235e-15 -8.881784197001266e-16 1
vn 2.355136293898377e-16 -1.3469024464805038e-17 -1
vn 0.7071067811865496 -0.7071067811865456 4.460632179261037e-16
vn 1.8394495543321108e-16 -1.9222086846105192e-15 1
vn 3.3306690738754755e-16 2.220446049250313e-16 -1
vn 1 -1.9721522630525356e-31 8.88178419700128e-16
vn 8.881784197001278e-16 -2.220446049250313e-16 1
vn 2.355136293898336e-16 4.575582343148708e-16 -1
vn 0.7071067811865388 0.7071067811865562 -8.481115271224379e-16
vn 1.8394495543318158e-16 1.478119474760479e-15 1
vn 9.381071632336007e-16 1.665334536937729e-16 -1
vn 0 1 2.220446049250313e-16
vn 2.680306180667424e-15 4.440892098500678e-16 1
vn -3.289305311969399e-15 8.579664494529009e-16 -1
vn -0.7071067811865506 0.7071067811865446 2.3682749464481546e-15
vn -2.6014643417316333e-16 -2.9943364192564445e-15 1
vn -3.3306690738754787e-15 7.581058410585189e-16 -1
vn -1 1.0721224722669647e-15 4.440892098500643e-15
vn 4.440892098500645e-16 -1.2941670771919991e-15 1
vn -2.7532414446464316e-15 -6.359229344060229e-16 -1
vn -0.7071067811865499 -0.7071067811865451 1.9872484031786736e-15
vn -8.881827792127295e-16 1.922210864366821e-15 1
vn 1.4741683993670781e-15 -2.386979502944088e-15 -1
vn 0 -1 -2.220446049250313e-16
vn 1.6081837084004592e-15 8.881784197001207e-16 1
vn 2.6639224830730547e-16 -2.8872585013553117e-15 -1
vn 0.7071067811865477 -0.7071067811865475 1.3841759393841859e-15
vn -8.500820398427467e-16 -1.300721272084284e-16 1
vn 1.6098233857064778e-15 3.5605991395840273e-16 -1
vn 1 2.680306180667416e-16 1.1102230246251577e-15
vn -1.1102230246251615e-15 -7.581058410585141e-16 1
vn 4.004082151380465e-16 3.2758362875045792e-15 -1
vn 0.7071067811865478 0.7071067811865472 1.4301622249900607e-15
vn -4.97963127952983e-16 -2.2362268571303013e-15 1
vn 1.4741683993670781e-15 2.8310687127941508e-15 -1
vn 0 1 2.220446049250313e-16
vn 5.360612361334856e-16 -2.6645352591003737e-15 1
vn -1.862755601043718e-15 -1.3266928235988992e-15 -1
vn -0.707106781186548 0.707106781186547 -3.120471148606646e-16
vn 1.0182559962993092e-15 3.308356771532523e-15 1
vn -9.43689570931386e-16 8.921211500918855e-16 -1
vn -1 -8.040918542002248e-16 -1.3322676295501928e-15
vn -8.88178419700129e-16 -1.2941670771919993e-15 1
vn -1.1926757668900142e-15 1.4932249149449864e-15 -1
vn -0.7071067811865483 -0.7071067811865467 -8.270897611955808e-16
vn -2.759174331498015e-16 -2.7722907244532628e-15 1
vn 3.4843980348676535e-15 -4.4408920985005877e-16 -1
vn 0 -1 -2.220446049250313e-16
vn -3.752428652934396e-15 -1.3322676295501961e-15 1
vn -1.7247968844688112e-15 -2.601815883363016e-15 -1
vn 0.707106781186547 -0.707106781186548 -1.0951219673264557e-15
vn -2.994337509134579e-15 -1.0182549064211537e-15 1
vn -5.551115123125779e-16 2.2204460492503072e-16 -1
vn 1 1.0721224722669684e-15 -2.2204460492503087e-15
vn -2.664535259100364e-15 -2.220446049250313e-16 1
vn -1.724796884468813e-15 3.0459050932130793e-15 -1
vn 0.7071067811865476 0.7071067811865476 7.600817096628597e-16
vn -2.994337509134579e-15 5.74165696571091e-16 1
vn 3.4843980348676535e-15 8.881784197001214e-16 -1
vn 0 1 2.220446049250313e-16
vn -4.288489889067878e-15 1.1102230246251644e-15 1
vn -1 1.26651980196035e-30 -5.7038981081659865e-15
vn 1 7.237256011201962e-31 -3.259370347523404e-15
vn 0 1 2.220446049250313e-16
vn 0 -1 -2.220446049250313e-16
vn -9.868649107779201e-17 2.220446049250313e-16 -1
vn -5.427757009278553e-16 -2.220446049250313e-16 1
vn -0.9238795325112877 0.3826834323650877 -2.1354732576994577e-15
vn 0.9238795325112849 -0.3826834323650945 2.1354732576994637e-15
vn 0.3826834323650911 0.9238795325112862 1.1321183736223728e-15
vn -0.38268343236509167 -0.923879532511286 4.1284147275693303e-16
vn 1.79700951915897e-15 -1.4836585035756124e-15 -1
vn 1.7874480377499062e-15 2.642660403119687e-15 1
vn -0.7071067811865503 -0.7071067811865449 9.070818491275776e-15
vn 0.7071067811865488 0.7071067811865462 -5.033643856275221e-15
vn -0.707106781186548 0.7071067811865471 9.292092641846674e-15
vn 0.7071067811865498 -0.7071067811865454 9.84876178628915e-16
vn 5.928968189220139e-15 4.655686643017784e-15 -1
vn -1.577569089439418e-15 -2.0986789245899274e-15 1
vn -0.9238795325112855 -0.3826834323650933 -8.278062491993261e-15
vn 0.9238795325112839 0.3826834323650969 -7.395674326244258e-15
vn -0.38268343236508556 0.9238795325112886 -3.193769196239651e-15
vn 0.3826834323650859 -0.9238795325112885 3.1937691962396444e-15
vn -6.448971458348134e-15 -1.0354459630217895e-15 -1
vn -3.984136244856722e-15 -5.68948223022346e-15 1
vn -1 -1.6135791243157115e-30 7.26691434300105e-15
vn 1 -7.17146277473647e-31 3.229739708000455e-15
vn 0 1 2.220446049250313e-16
vn 0 -1 -2.220446049250313e-16
vn -2.44249065417534e-15 2.220446049250313e-16 -1
vn -1.3322676295502009e-15 -2.220446049250313e-16 1
vn -0.9238795325112876 0.3826834323650882 -4.9390667542276655e-15
vn 0.9238795325112871 -0.3826834323650891 5.656786689338908e-15
vn 0.38268343236508656 0.9238795325112882 2.3680862507258046e-15
vn -0.3826834323650791 -0.9238795325112912 1.0308254113086083e-15
vn 2.968977536402004e-15 -1.532062512991219e-16 -1
vn 1.2119719522018856e-15 -7.774685688512621e-16 1
vn -0.7071067811865397 0.7071067811865555 2.377455295118731e-15
vn 0.7071067811865386 -0.7071067811865565 8.926633682883006e-15
vn 0.7071067811865573 0.7071067811865379 -2.126761603126249e-15
vn -0.7071067811865555 -0.7071067811865397 6.994048225046046e-16
vn -1.020560098144399e-15 2.3416694241481203e-15 -1
vn 6.280369834735195e-16 9.197388681172244e-17 1
vn -0.9238795325113021 -0.3826834323650529 1.6308264283242293e-15
vn 0.9238795325112853 0.38268343236509383 1.9521660602386342e-15
vn -0.38268343236507957 0.9238795325112911 1.8008429841935398e-15
vn 0.3826834323651221 -0.9238795325112735 -5.91382427389646e-16
vn -7.901833178033787e-16 1.5771153973447685e-15 -1
vn 7.64755123957734e-16 -2.068326797078168e-15 1
vn -1 4.353815782843492e-16 1.6296851737617013e-15
vn 1 4.3538157828435306e-16 -1.6296851737617023e-15
vn 0 1 2.220446049250313e-16
vn 0 -1 -2.220446049250313e-16
vn -2.7755575615628987e-16 2.181261707204617e-15 -1
vn 4.440892098500638e-16 -6.574261832093838e-16 1
vn -0.9238795325112872 0.3826834323650887 -1.4289676965743623e-15
vn 0.9238795325113015 -0.38268343236505453 -1.8590215742585827e-16
vn 0.3826834323650785 0.9238795325112915 8.231264043464939e-16
vn -0.38268343236512326 -0.923879532511273 -9.776223889845053e-16
vn -1.7397147001082088e-16 1.736142038196663e-15 -1
vn 1.3676164386319722e-15 -7.885298819307232e-16 1
vn -0.7071067811865422 -0.7071067811865528 -3.588607685618918e-15
vn 0.7071067811865378 0.7071067811865572 -3.77923602325724e-15
vn -0.7071067811865565 0.7071067811865387 -3.2686470276235484e-15
vn 0.7071067811865583 -0.7071067811865368 4.9814751643695344e-15
vn 2.1196248192230886e-15 1.870641686543013e-15 -1
vn 1.9626155733547157e-15 3.2748775561429046e-16 1
vn -0.9238795325112876 -0.3826834323650877 -4.3912924022181885e-15
vn 0.9238795325112873 0.3826834323650885 8.497279155086102e-17
vn -0.38268343236509383 0.9238795325112853 -1.6488093498604047e-15
vn 0.3826834323650852 -0.9238795325112888 1.648809349860346e-15
vn -3.23764114874023e-15 -6.650559440588571e-16 -1
vn -1.035584131897616e-14 -5.392818806817442e-15 1
vn -1 0 0
vn 1 -3.5857313873682835e-31 1.6148698540002493e-15
vn 0 1 2.220446049250313e-16
vn 0 -1 -2.220446049250313e-16
vn 9.547918011776447e-15 2.220446049250313e-16 -1
vn 2.886579864025443e-15 -2.220446049250313e-16 1
vn -0.7071067811865465 0.7071067811865486 1.1115054683727088e-14
vn 0.7071067811865492 -0.7071067811865458 -3.04070541372594e-15
vn 0.7071067811865498 0.7071067811865454 -1.0690902286855966e-14
vn -0.7071067811865427 -0.7071067811865525 4.410532452120766e-15
vn 2.0934566115783613e-15 -8.246837008641397e-16 -1
vn -1.0168217827666438e-15 3.7854294800964214e-15 1
vn -0.9238795325112853 0.38268343236509333 8.497279155086209e-17
vn 0.9238795325112865 -0.38268343236509045 8.226857339332639e-15
vn 0.3826834323650961 0.9238795325112842 2.0514246579479071e-16
vn -0.3826834323650941 -0.9238795325112852 -7.0029657898637616e-15
vn -1.1517127474093857e-15 3.2438692170843655e-15 -1
vn -8.874235648159921e-15 -1.918507162902797e-15 1
vn -0.9238795325112903 -0.3826834323650816 2.135473257699454e-15
vn 0.9238795325112864 0.3826834323650907 2.3054188408011696e-15
vn -0.38268343236509167 0.9238795325112862 1.1321183736223692e-15
vn 0.3826834323650921 -0.923879532511286 5.6657049504465714e-15
vn 7.326279800328563e-15 -8.519939015943896e-15 -1
vn -1.3736552689955734e-15 -3.67510342922257e-15 1
vn -1 -1.480297366166889e-16 2.6914497566670308e-15
vn 1 -2.960594732333751e-16 -6.573840876841766e-32
vn 0 1 2.220446049250313e-16
vn 0 -1 -2.220446049250313e-16
vn -1.657049290485311e-17 9.25185853854297e-16 -1
vn 4.971147871455934e-16 -3.700743415417189e-16 1
vn -1 -1.577721810442044e-30 7.105427357601093e-15
vn 1 -9.86076131526269e-32 4.440892098500645e-16
vn 0 1 2.220446049250313e-16
vn 0 -1 -2.220446049250313e-16
vn -1.4367592083384422e-15 1.5543122344752166e-15 -1
vn -1.1102230246251625e-15 -2.220446049250313e-16 1
vn -0.9914448613738104 2.898263678387024e-17 -0.13052619222005243
vn 0.9914448613738104 -5.272378754490078e-16 0.13052619222005174
vn 0 1 2.220446049250313e-16
vn 0 -1 -2.220446049250313e-16
vn 0.1305261922200531 2.2014498254870016e-16 -0.9914448613738104
vn -0.13052619222005257 -2.5665079919550406e-15 0.9914448613738103
vn -0.9914448613738105 -8.053481315654462e-16 0.1305261922200511
vn 0.9914448613738102 2.8982636783870515e-17 -0.13052619222005368
vn 0 1 2.220446049250313e-16
vn 0 -1 -2.220446049250313e-16
vn -0.13052619222005302 1.100724912743496e-15 -0.9914448613738104
vn 0.13052619222005157 -2.2014498254870016e-16 0.9914448613738104
vn -0.9914448613738102 2.8982636783870577e-17 -0.13052619222005396
vn 0.9914448613738103 -2.898263678387027e-17 0.13052619222005257
vn 0 1 2.220446049250313e-16
vn 0 -1 -2.220446049250313e-16
vn 0.13052619222005135 2.2014498254870018e-16 -0.9914448613738105
vn -0.13052619222005218 -2.2014498254870016e-16 0.9914448613738104
vn -0.9914448613738107 -2.898263678386954e-17 0.1305261922200493
vn 0.9914448613738104 5.576850261981645e-16 -0.13052619222005293
vn 0 1 2.220446049250313e-16
vn 0 -1 -2.220446049250313e-16
vn -0.13052619222005032 2.201449825487002e-16 -0.9914448613738106
vn 0.13052619222005046 -2.201449825487002e-16 0.9914448613738106
vn -0.9914448613738116 -2.8982636783868253e-17 0.1305261922200435
vn 0.9914448613738114 2.8982636783868716e-17 -0.13052619222004558
vn 0 1 2.220446049250313e-16
vn 0 -1 -2.220446049250313e-16
vn -0.13052619222004871 2.2014498254870026e-16 -0.9914448613738108
vn 0.13052619222004824 -2.2014498254870028e-16 0.9914448613738109
vn -0.9914448613738105 2.89826367838699e-17 -0.1305261922200509
vn 0.9914448613738104 -2.898263678387031e-17 0.13052619222005277
vn 0 1 2.220446049250313e-16
vn 0 -1 -2.220446049250313e-16
vn 0.1305261922200508 1.1079705719394684e-15 -0.9914448613738105
vn -0.13052619222005074 -2.2014498254870018e-16 0.9914448613738105
vn -1 -2.113020281842006e-31 9.516197353929958e-16
vn 1 4.226040563684002e-31 -1.9032394707859873e-15
vn 0 1 2.220446049250313e-16
vn 0 -1 -2.220446049250313e-16
vn 9.251858538542995e-17 2.220446049250313e-16 -1
vn -7.401486830834395e-16 -2.220446049250313e-16 1
vn -1 1.268826313857325e-15 -5.382899513334117e-15
vn 1 -9.516197353929937e-16 3.588599675556039e-15
vn 0 1 2.220446049250313e-16
vn 0 -1 -2.220446049250313e-16
vn -5.294909809750777e-15 6.978544726215241e-16 -1
vn -3.0744637605004462e-15 -7.771561172376091e-16 1
vn -0.9238795325112867 -0.3826834323650901 -1.0319759198779106e-14
vn 0.9238795325112877 0.38268343236508723 -4.3013642401183806e-15
vn -0.3826834323650887 0.9238795325112872 -3.999696703732363e-15
vn 0.3826834323650838 -0.9238795325112892 -5.555457299220516e-16
vn -6.226965998812316e-16 4.1984852354647505e-16 -1
vn 7.854374730857706e-16 -2.325092320980155e-16 1
vn -1 -6.829964547368092e-31 1.7942998377780325e-15
vn 1 -1.3944510950876509e-30 6.2800494322231245e-15
vn 0 1 2.220446049250313e-16
vn 0 -1 -2.220446049250313e-16
vn -3.2452673027504516e-15 2.220446049250313e-16 -1
vn 4.440892098500645e-15 -6.978544726215299e-16 1
vn -1 1.1074543886535493e-16 -7.177199351112128e-15
vn 1 -2.2149087773070221e-16 -5.382899513334103e-15
vn 0 1 2.220446049250313e-16
vn 0 -1 -2.220446049250313e-16
vn 4.1633363423443484e-16 5.265945618047515e-16 -1
vn -2.4980018054066057e-16 -4.4353548265573685e-16 1
vn -0.9238795325112872 0.3826834323650887 -1.3771395523388896e-15
vn 0.9238795325112868 -0.3826834323650895 -8.497279155086124e-17
vn 0.3826834323650919 0.9238795325112861 9.059489940493235e-16
vn -0.3826834323650815 -0.9238795325112902 -5.117453219061411e-16
vn 1.118592127332114e-15 1.6646994471028063e-16 -1
vn 8.112821339803234e-16 -2.9424307557832494e-16 1
vn -1 4.601688613789271e-31 -2.0724163126336415e-15
vn 1 3.1086244689504387e-15 -2.960594732333749e-16
vn 0 1 2.220446049250313e-16
vn 0 -1 -2.220446049250313e-16
vn -3.3959763106181458e-15 2.220446049250313e-16 -1
vn -1.9592171022796956e-15 -6.661338147750948e-16 1
vn -1 -3.1225744164998466e-31 1.4062824978585353e-15
vn 1 -2.13649828497358e-31 9.621932880084719e-16
vn 0 1 2.220446049250313e-16
vn 0 -1 -2.220446049250313e-16
vn 2.6122894697062527e-16 2.220446049250313e-16 -1
vn 6.530723674265645e-17 -2.220446049250313e-16 1
vn -1 -3.1086244689505065e-15 -1.5543122344752263e-15
vn 1 -8.88178419700146e-16 4.218847493575605e-15
vn 0 1 2.220446049250313e-16
vn 0 -1 -2.220446049250313e-16
vn -1.3061447348531279e-16 2.220446049250313e-16 -1
vn -3.265361837132822e-16 -6.66133814775104e-16 1
vn -1 1.0449157878824975e-15 3.5527136788005136e-15
vn 1 -5.224578939412459e-16 -7.99360577730115e-15
vn 0 1 2.220446049250313e-16
vn 0 -1 -2.220446049250313e-16
vn 1.110223024625162e-15 1.6588038132634694e-15 -1
vn -1.776356839400252e-15 -2.2204460492503175e-16 1
vn -1 3.9184342045593394e-16 1.776356839400259e-15
vn 1 1.3061447348531195e-16 -4.440892098500635e-16
vn 0 1 2.220446049250313e-16
vn 0 -1 -2.220446049250313e-16
vn -2.4424906541753464e-15 4.1796631515299764e-16 -1
vn -4.440892098500636e-16 -4.832735518956549e-16 1
vn -1 6.530723674265575e-17 1.5543122344752276e-15
vn 1 -3.2653618371328504e-17 6.661338147750956e-16
vn 0 1 2.220446049250313e-16
vn 0 -1 -2.220446049250313e-16
vn -6.661338147750947e-16 4.1796631515299976e-16 -1
vn -2.220446049250321e-15 -6.138880253809693e-16 1
vn -1 -1.306144734853114e-16 -8.88178419700127e-16
vn 1 1.3061447348531668e-16 -7.993605777301138e-15
vn 0 1 2.220446049250313e-16
vn 0 -1 -2.220446049250313e-16
vn 1.9984014443252924e-15 3.526590784103431e-16 -1
vn -2.6645352591003662e-15 -2.873518416676865e-16 1
vn -0.7071067811865474 0.7071067811865478 5.270835874100977e-16
vn 0.7071067811865471 -0.707106781186548 6.016431542921461e-16
vn 0.7071067811865483 0.7071067811865468 -2.093456611578379e-16
vn -0.7071067811865489 -0.7071067811865462 -5.495323605393223e-16
vn -6.280369834735105e-16 2.106155555345562e-15 -1
vn 2.198129442157285e-15 7.200108702852283e-16 1
vn -0.7071067811865469 0.7071067811865482 1.3042397046477077e-15
vn 0.7071067811865468 -0.7071067811865482 2.870799639816862e-16
vn 0.707106781186549 0.707106781186546 -9.943918904997276e-16
vn -0.7071067811865495 -0.7071067811865456 -8.8971905992081e-16
vn -4.7102773760513585e-15 -6.372343721546857e-15 -1
vn 6.280369834735111e-16 -8.500815883985425e-16 1
vn -0.7071067811865491 0.707106781186546 9.341653631059884e-16
vn 0.7071067811865479 -0.7071067811865472 1.397302988606849e-15
vn 0.7071067811865498 0.7071067811865452 -6.280369834735133e-16
vn -0.707106781186546 -0.7071067811865491 2.0411201962889043e-15
vn 1.099064721078643e-15 6.503535905665628e-17 -1
vn 1.5700924586837466e-16 -1.6351278177404278e-15 1
vn -0.7071067811865445 -0.7071067811865507 -3.2354269956215304e-16
vn 0.707106781186514 0.7071067811865811 3.6542117734378175e-15
vn -0.7071067811865416 0.7071067811865535 1.2560739669470259e-15
vn 0.7071067811865569 -0.7071067811865381 4.710277376051445e-16
vn 3.925231146709439e-16 3.005492278592214e-16 -1
vn -5.495323605393253e-16 -1.435399819908389e-16 1
vn -0.7071067811865498 -0.7071067811865454 1.0642360812193027e-15
vn 0.7071067811865491 0.707106781186546 4.597901344369029e-15
vn -0.7071067811865556 0.7071067811865396 1.4130832128154113e-15
vn 0.7071067811865436 -0.7071067811865516 -5.809342097129949e-15
vn -3.846726523775291e-15 9.28586211332738e-16 -1
vn 5.181305113656498e-15 2.133094083100686e-15 1
vn -0.7071067811865143 0.7071067811865809 2.044388387731252e-15
vn 0.7071067811865446 -0.7071067811865506 -6.566096069497017e-16
vn 0.7071067811865416 0.7071067811865536 -1.727101704552142e-15
vn -0.7071067811865568 -0.7071067811865384 2.3551386880257226e-15
vn 1.2227344030926426e-29 5.36063096661805e-16 -1
vn -1.5700924586838055e-16 2.4898313268010817e-16 1
vn -0.7071067811865487 0.7071067811865465 -4.721171347525479e-16
vn 0.7071067811865442 -0.7071067811865509 2.5075260132319914e-15
vn 0.7071067811865507 0.7071067811865445 7.850462293418921e-16
vn -0.7071067811865573 -0.7071067811865378 -1.8317745351310935e-15
vn -9.420554752102689e-16 1.792137063608804e-15 -1
vn -1.805606327486356e-15 -4.575584737275934e-16 1
vn -0.7071067811865458 -0.7071067811865493 -1.5077805924956525e-15
vn 0.7071067811865486 0.7071067811865467 -1.575539444420857e-16
vn -0.7071067811865474 0.7071067811865478 -1.2037375516575651e-15
vn 0.7071067811865503 -0.7071067811865447 2.616820764472994e-16
vn -4.7102773760513364e-15 1.7921370636087954e-15 -1
vn 5.495323605393219e-16 6.415062473510449e-16 1
vn -1 1.3322676295501873e-15 8.881784197001284e-16
vn 1 -1.9721522630525234e-31 8.881784197001225e-16
vn 0 1 2.220446049250313e-16
vn 0 -1 -2.220446049250313e-16
vn -1.3061447348531266e-16 4.440892098500626e-16 -1
vn -1.763295392051722e-15 -2.220446049250313e-16 1
vn -0.7071067811865445 0.7071067811865507 -2.802792490248088e-17
vn 0.7071067811865462 -0.7071067811865489 -3.0805965440479504e-15
vn 0.7071067811865462 0.7071067811865489 3.663549070262143e-16
vn -0.7071067811865525 -0.7071067811865427 -3.925231146709465e-15
vn -1.2560739669470308e-15 1.4781185718720463e-15 -1
vn -3.0616802944333482e-15 9.555247390877986e-16 1
vn -0.7071067811865491 0.707106781186546 1.5700924586837717e-16
vn 0.7071067811865496 -0.7071067811865456 -3.4204641663923715e-16
vn 0.7071067811865482 0.7071067811865469 1.5700924586837737e-16
vn -0.7071067811865472 -0.7071067811865479 1.046728305789189e-16
vn -1.2560739669470235e-15 -1.0340293620219882e-15 -1
vn -1.2560739669470245e-15 -2.2204460492503072e-16 1
vn -0.7071067811865487 0.7071067811865465 1.3782545729560535e-15
vn 0.7071067811865471 -0.707106781186548 4.838994364944841e-15
vn 0.7071067811865507 0.7071067811865445 -1.0990647210786518e-15
vn -0.7071067811865471 -0.707106781186548 -7.85046229341886e-16
vn -1.1775693440128272e-15 2.18466017827974e-15 -1
vn 1.4130832128153977e-15 -6.930723425301702e-16 1
vn -0.7071067811865478 -0.7071067811865474 1.7605766151917092e-16
vn 0.7071067811865487 0.7071067811865464 8.231430606434737e-16
vn -0.7071067811865501 0.7071067811865449 5.495323605393228e-16
vn 0.7071067811865482 -0.7071067811865469 1.57009245868379e-16
vn 7.850462293418895e-16 6.503535905665406e-17 -1
vn -3.944304526105065e-31 9.197388681172308e-17 1
vn -1 4.440892098500635e-16 -7.401486830834396e-16
vn 1 -2.664535259100378e-15 -1.776356839400255e-15
vn 0 1 2.220446049250313e-16
vn 0 -1 -2.220446049250313e-16
vn -2.61228946970626e-16 2.220446049250313e-16 -1
vn -1.306144734853127e-16 -1.3322676295501875e-15 1
vn -1 6.530723674265532e-17 1.998401444325288e-15
vn 1 6.530723674265637e-17 -2.2204460492503155e-16
vn 0 1 2.220446049250313e-16
vn 0 -1 -2.220446049250313e-16
vn -1.9984014443252837e-15 7.44502498866281e-16 -1
vn 0 -6.138880253809691e-16 1
vn -1 2.6122894697061566e-16 8.881784197001319e-15
vn 1 -2.9582283945787785e-30 1.3322676295501807e-14
vn 0 1 2.220446049250313e-16
vn 0 -1 -2.220446049250313e-16
vn -1.199040866595152e-14 8.098097356089409e-16 -1
vn -6.661338147750992e-16 -2.220446049250313e-16 1
usemtl m_12abb147-799f-72d2-100d-86519bf46a01
f 5/1/1 3/2/1 1/3/1
f 3/4/2 5/5/2 6/6/2 4/7/2
f 4/8/3 6/9/3 2/10/3
f 7/11/4 5/12/4 1/13/4
f 5/14/5 7/15/5 8/16/5 6/17/5
f 6/18/6 8/19/6 2/20/6
f 9/21/7 7/22/7 1/23/7
f 7/24/8 9/25/8 10/26/8 8/27/8
f 8/28/9 10/29/9 2/30/9
f 11/31/10 9/32/10 1/33/10
f 9/34/11 11/35/11 12/36/11 10/37/11
f 10/38/12 12/39/12 2/40/12
f 13/41/13 11/42/13 1/43/13
f 11/44/14 13/45/14 14/46/14 12/47/14
f 12/48/15 14/49/15 2/50/15
f 15/51/16 13/52/16 1/53/16
f 13/54/17 15/55/17 16/56/17 14/57/17
f 14/58/18 16/59/18 2/60/18
f 17/61/19 15/62/19 1/63/19
f 15/64/20 17/65/20 18/66/20 16/67/20
f 16/68/21 18/69/21 2/70/21
f 3/71/22 17/72/22 1/73/22
f 17/74/23 3/75/23 4/76/23 18/77/23
f 18/78/24 4/79/24 2/80/24
f 23/81/25 21/82/25 19/83/25
f 21/84/26 23/85/26 24/86/26 22/87/26
f 22/88/27 24/89/27 20/90/27
f 25/91/28 23/92/28 19/93/28
f 23/94/29 25/95/29 26/96/29 24/97/29
f 24/98/30 26/99/30 20/100/30
f 27/101/31 25/102/31 19/103/31
f 25/104/32 27/105/32 28/106/32 26/107/32
f 26/108/33 28/109/33 20/110/33
f 29/111/34 27/112/34 19/113/34
f 27/114/35 29/115/35 30/116/35 28/117/35
f 28/118/36 30/119/36 20/120/36
f 31/121/37 29/122/37 19/123/37
f 29/124/38 31/125/38 32/126/38 30/127/38
f 30/128/39 32/129/39 20/130/39
f 33/131/40 31/132/40 19/133/40
f 31/134/41 33/135/41 34/136/41 32/137/41
f 32/138/42 34/139/42 20/140/42
f 35/141/43 33/142/43 19/143/43
f 33/144/44 35/145/44 36/146/44 34/147/44
f 34/148/45 36/149/45 20/150/45
f 21/151/46 35/152/46 19/153/46
f 35/154/47 21/155/47 22/156/47 36/157/47
f 36/158/48 22/159/48 20/160/48
f 41/161/49 39/162/49 37/163/49
f 39/164/50 41/165/50 42/166/50 40/167/50
f 40/168/51 42/169/51 38/170/51
f 43/171/52 41/172/52 37/173/52
f 41/174/53 43/175/53 44/176/53 42/177/53
f 42/178/54 44/179/54 38/180/54
f 45/181/55 43/182/55 37/183/55
f 43/184/56 45/185/56 46/186/56 44/187/56
f 44/188/57 46/189/57 38/190/57
f 47/191/58 45/192/58 37/193/58
f 45/194/59 47/195/59 48/196/59 46/197/59
f 46/198/60 48/199/60 38/200/60
f 49/201/61 47/202/61 37/203/61
f 47/204/62 49/205/62 50/206/62 48/207/62
f 48/208/63 50/209/63 38/210/63
f 51/211/64 49/212/64 37/213/64
f 49/214/65 51/215/65 52/216/65 50/217/65
f 50/218/66 52/219/66 38/220/66
f 53/221/67 51/222/67 37/223/67
f 51/224/68 53/225/68 54/226/68 52/227/68
f 52/228/69 54/229/69 38/230/69
f 39/231/70 53/232/70 37/233/70
f 53/234/71 39/235/71 40/236/71 54/237/71
f 54/238/72 40/239/72 38/240/72
f 58/241/73 56/242/73 55/243/73 57/244/73
f 61/245/74 59/246/74 60/247/74 62/248/74
f 55/249/75 56/250/75 60/251/75 59/252/75
f 58/253/76 57/254/76 61/255/76 62/256/76
f 57/257/77 55/258/77 59/259/77 61/260/77
f 62/261/78 60/262/78 56/263/78 58/264/78
f 66/265/79 64/266/79 63/267/79 65/268/79
f 69/269/80 67/270/80 68/271/80 70/272/80
f 63/273/81 64/274/81 68/275/81 67/276/81
f 66/277/82 65/278/82 69/279/82 70/280/82
f 65/281/83 63/282/83 67/283/83 69/284/83
f 70/285/84 68/286/84 64/287/84 66/288/84
f 74/289/85 72/290/85 71/291/85 73/292/85
f 77/293/86 75/294/86 76/295/86 78/296/86
f 71/297/87 72/298/87 76/299/87 75/300/87
f 74/301/88 73/302/88 77/303/88 78/304/88
f 73/305/89 71/306/89 75/307/89 77/308/89
f 78/309/90 76/310/90 72/311/90 74/312/90
f 82/313/91 80/314/91 79/315/91 81/316/91
f 85/317/92 83/318/92 84/319/92 86/320/92
f 79/321/93 80/322/93 84/323/93 83/324/93
f 82/325/94 81/326/94 85/327/94 86/328/94
f 81/329/95 79/330/95 83/331/95 85/332/95
f 86/333/96 84/334/96 80/335/96 82/336/96
f 90/337/97 88/338/97 87/339/97 89/340/97
f 93/341/98 91/342/98 92/343/98 94/344/98
f 87/345/99 88/346/99 92/347/99 91/348/99
f 90/349/100 89/350/100 93/351/100 94/352/100
f 89/353/101 87/354/101 91/355/101 93/356/101
f 94/357/102 92/358/102 88/359/102 90/360/102
f 98/361/103 96/362/103 95/363/103 97/364/103
f 101/365/104 99/366/104 100/367/104 102/368/104
f 95/369/105 96/370/105 100/371/105 99/372/105
f 98/373/106 97/374/106 101/375/106 102/376/106
f 97/377/107 95/378/107 99/379/107 101/380/107
f 102/381/108 100/382/108 96/383/108 98/384/108
f 106/385/109 104/386/109 103/387/109 105/388/109
f 109/389/110 107/390/110 108/391/110 110/392/110
f 103/393/111 104/394/111 108/395/111 107/396/111
f 106/397/112 105/398/112 109/399/112 110/400/112
f 105/401/113 103/402/113 107/403/113 109/404/113
f 110/405/114 108/406/114 104/407/114 106/408/114
f 114/409/115 112/410/115 111/411/115 113/412/115
f 117/413/116 115/414/116 116/415/116 118/416/116
f 111/417/117 112/418/117 116/419/117 115/420/117
f 114/421/118 113/422/118 117/423/118 118/424/118
f 113/425/119 111/426/119 115/427/119 117/428/119
f 118/429/120 116/430/120 112/431/120 114/432/120
f 122/433/121 120/434/121 119/435/121 121/436/121
f 125/437/122 123/438/122 124/439/122 126/440/122
f 119/441/123 120/442/123 124/443/123 123/444/123
f 122/445/124 121/446/124 125/447/124 126/448/124
f 121/449/125 119/450/125 123/451/125 125/452/125
f 126/453/126 124/454/126 120/455/126 122/456/126
f 130/457/127 128/458/127 127/459/127 129/460/127
f 133/461/128 131/462/128 132/463/128 134/464/128
f 127/465/129 128/466/129 132/467/129 131/468/129
f 130/469/130 129/470/130 133/471/130 134/472/130
f 129/473/131 127/474/131 131/475/131 133/476/131
f 134/477/132 132/478/132 128/479/132 130/480/132
f 138/481/133 136/482/133 135/483/133 137/484/133
f 141/485/134 139/486/134 140/487/134 142/488/134
f 135/489/135 136/490/135 140/491/135 139/492/135
f 138/493/136 137/494/136 141/495/136 142/496/136
f 137/497/137 135/498/137 139/499/137 141/500/137
f 142/501/138 140/502/138 136/503/138 138/504/138
f 146/505/139 144/506/139 143/507/139 145/508/139
f 149/509/140 147/510/140 148/511/140 150/512/140
f 143/513/141 144/514/141 148/515/141 147/516/141
f 146/517/142 145/518/142 149/519/142 150/520/142
f 145/521/143 143/522/143 147/523/143 149/524/143
f 150/525/144 148/526/144 144/527/144 146/528/144
f 154/529/145 152/530/145 151/531/145 153/532/145
f 157/533/146 155/534/146 156/535/146 158/536/146
f 151/537/147 152/538/147 156/539/147 155/540/147
f 154/541/148 153/542/148 157/543/148 158/544/148
f 153/545/149 151/546/149 155/547/149 157/548/149
f 158/549/150 156/550/150 152/551/150 154/552/150
f 162/553/151 160/554/151 159/555/151 161/556/151
f 165/557/152 163/558/152 164/559/152 166/560/152
f 159/561/153 160/562/153 164/563/153 163/564/153
f 162/565/154 161/566/154 165/567/154 166/568/154
f 161/569/155 159/570/155 163/571/155 165/572/155
f 166/573/156 164/574/156 160/575/156 162/576/156
f 170/577/157 168/578/157 167/579/157 169/580/157
f 173/581/158 171/582/158 172/583/158 174/584/158
f 167/585/159 168/586/159 172/587/159 171/588/159
f 170/589/160 169/590/160 173/591/160 174/592/160
f 169/593/161 167/594/161 171/595/161 173/596/161
f 174/597/162 172/598/162 168/599/162 170/600/162
f 178/601/163 176/602/163 175/603/163 177/604/163
f 181/605/164 179/606/164 180/607/164 182/608/164
f 175/609/165 176/610/165 180/611/165 179/612/165
f 178/613/166 177/614/166 181/615/166 182/616/166
f 177/617/167 175/618/167 179/619/167 181/620/167
f 182/621/168 180/622/168 176/623/168 178/624/168
f 186/625/169 184/626/169 183/627/169 185/628/169
f 189/629/170 187/630/170 188/631/170 190/632/170
f 183/633/171 184/634/171 188/635/171 187/636/171
f 186/637/172 185/638/172 189/639/172 190/640/172
f 185/641/173 183/642/173 187/643/173 189/644/173
f 190/645/174 188/646/174 184/647/174 186/648/174
f 194/649/175 192/650/175 191/651/175 193/652/175
f 197/653/176 195/654/176 196/655/176 198/656/176
f 191/657/177 192/658/177 196/659/177 195/660/177
f 194/661/178 193/662/178 197/663/178 198/664/178
f 193/665/179 191/666/179 195/667/179 197/668/179
f 198/669/180 196/670/180 192/671/180 194/672/180
f 202/673/181 200/674/181 199/675/181 201/676/181
f 205/677/182 203/678/182 204/679/182 206/680/182
f 199/681/183 200/682/183 204/683/183 203/684/183
f 202/685/184 201/686/184 205/687/184 206/688/184
f 201/689/185 199/690/185 203/691/185 205/692/185
f 206/693/186 204/694/186 200/695/186 202/696/186
f 210/697/187 208/698/187 207/699/187 209/700/187
f 213/701/188 211/702/188 212/703/188 214/704/188
f 207/705/189 208/706/189 212/707/189 211/708/189
f 210/709/190 209/710/190 213/711/190 214/712/190
f 209/713/191 207/714/191 211/715/191 213/716/191
f 214/717/192 212/718/192 208/719/192 210/720/192
f 218/721/193 216/722/193 215/723/193 217/724/193
f 221/725/194 219/726/194 220/727/194 222/728/194
f 215/729/195 216/730/195 220/731/195 219/732/195
f 218/733/196 217/734/196 221/735/196 222/736/196
f 217/737/197 215/738/197 219/739/197 221/740/197
f 222/741/198 220/742/198 216/743/198 218/744/198
f 226/745/199 224/746/199 223/747/199 225/748/199
f 229/749/200 227/750/200 228/751/200 230/752/200
f 223/753/201 224/754/201 228/755/201 227/756/201
f 226/757/202 225/758/202 229/759/202 230/760/202
f 225/761/203 223/762/203 227/763/203 229/764/203
f 230/765/204 228/766/204 224/767/204 226/768/204
f 234/769/205 232/770/205 231/771/205 233/772/205
f 237/773/206 235/774/206 236/775/206 238/776/206
f 231/777/207 232/778/207 236/779/207 235/780/207
f 234/781/208 233/782/208 237/783/208 238/784/208
f 233/785/209 231/786/209 235/787/209 237/788/209
f 238/789/210 236/790/210 232/791/210 234/792/210
f 242/793/211 240/794/211 239/795/211 241/796/211
f 245/797/212 243/798/212 244/799/212 246/800/212
f 239/801/213 240/802/213 244/803/213 243/804/213
f 242/805/214 241/806/214 245/807/214 246/808/214
f 241/809/215 239/810/215 243/811/215 245/812/215
f 246/813/216 244/814/216 240/815/216 242/816/216
f 250/817/217 248/818/217 247/819/217 249/820/217
f 253/821/218 251/822/218 252/823/218 254/824/218
f 247/825/219 248/826/219 252/827/219 251/828/219
f 250/829/220 249/830/220 253/831/220 254/832/220
f 249/833/221 247/834/221 251/835/221 253/836/221
f 254/837/222 252/838/222 248/839/222 250/840/222
f 258/841/223 256/842/223 255/843/223 257/844/223
f 261/845/224 259/846/224 260/847/224 262/848/224
f 255/849/225 256/850/225 260/851/225 259/852/225
f 258/853/226 257/854/226 261/855/226 262/856/226
f 257/857/227 255/858/227 259/859/227 261/860/227
f 262/861/228 260/862/228 256/863/228 258/864/228
f 266/865/229 264/866/229 263/867/229 265/868/229
f 269/869/230 267/870/230 268/871/230 270/872/230
f 263/873/231 264/874/231 268/875/231 267/876/231
f 266/877/232 265/878/232 269/879/232 270/880/232
f 265/881/233 263/882/233 267/883/233 269/884/233
f 270/885/234 268/886/234 264/887/234 266/888/234
f 274/889/235 272/890/235 271/891/235 273/892/235
f 277/893/236 275/894/236 276/895/236 278/896/236
f 271/897/237 272/898/237 276/899/237 275/900/237
f 274/901/238 273/902/238 277/903/238 278/904/238
f 273/905/239 271/906/239 275/907/239 277/908/239
f 278/909/240 276/910/240 272/911/240 274/912/240
f 282/913/241 280/914/241 279/915/241 281/916/241
f 285/917/242 283/918/242 284/919/242 286/920/242
f 279/921/243 280/922/243 284/923/243 283/924/243
f 282/925/244 281/926/244 285/927/244 286/928/244
f 281/929/245 279/930/245 283/931/245 285/932/245
f 286/933/246 284/934/246 280/935/246 282/936/246
f 290/937/247 288/938/247 287/939/247 289/940/247
f 293/941/248 291/942/248 292/943/248 294/944/248
f 287/945/249 288/946/249 292/947/249 291/948/249
f 290/949/250 289/950/250 293/951/250 294/952/250
f 289/953/251 287/954/251 291/955/251 293/956/251
f 294/957/252 292/958/252 288/959/252 290/960/252
f 298/961/253 296/962/253 295/963/253 297/964/253
f 301/965/254 299/966/254 300/967/254 302/968/254
f 295/969/255 296/970/255 300/971/255 299/972/255
f 298/973/256 297/974/256 301/975/256 302/976/256
f 297/977/257 295/978/257 299/979/257 301/980/257
f 302/981/258 300/982/258 296/983/258 298/984/258
f 306/985/259 304/986/259 303/987/259 305/988/259
f 309/989/260 307/990/260 308/991/260 310/992/260
f 303/993/261 304/994/261 308/995/261 307/996/261
f 306/997/262 305/998/262 309/999/262 310/1000/262
f 305/1001/263 303/1002/263 307/1003/263 309/1004/263
f 310/1005/264 308/1006/264 304/1007/264 306/1008/264
f 314/1009/265 312/1010/265 311/1011/265 313/1012/265
f 317/1013/266 315/1014/266 316/1015/266 318/1016/266
f 311/1017/267 312/1018/267 316/1019/267 315/1020/267
f 314/1021/268 313/1022/268 317/1023/268 318/1024/268
f 313/1025/269 311/1026/269 315/1027/269 317/1028/269
f 318/1029/270 316/1030/270 312/1031/270 314/1032/270
f 322/1033/271 320/1034/271 319/1035/271 321/1036/271
f 325/1037/272 323/1038/272 324/1039/272 326/1040/272
f 319/1041/273 320/1042/273 324/1043/273 323/1044/273
f 322/1045/274 321/1046/274 325/1047/274 326/1048/274
f 321/1049/275 319/1050/275 323/1051/275 325/1052/275
f 326/1053/276 324/1054/276 320/1055/276 322/1056/276
f 330/1057/277 329/1058/277 328/1059/277 327/1060/277
f 333/1061/278 331/1062/278 332/1063/278 334/1064/278
f 328/1065/279 329/1066/279 332/1067/279 331/1068/279
f 330/1069/280 327/1070/280 333/1071/280 334/1072/280
f 327/1073/281 328/1074/281 331/1075/281 333/1076/281
f 334/1077/282 332/1078/282 329/1079/282 330/1080/282
f 338/1081/283 336/1082/283 335/1083/283 337/1084/283
f 341/1085/284 339/1086/284 340/1087/284 342/1088/284
f 335/1089/285 336/1090/285 340/1091/285 339/1092/285
f 338/1093/286 337/1094/286 341/1095/286 342/1096/286
f 337/1097/287 335/1098/287 339/1099/287 341/1100/287
f 342/1101/288 340/1102/288 336/1103/288 338/1104/288
f 346/1105/289 344/1106/289 343/1107/289 345/1108/289
f 349/1109/290 347/1110/290 348/1111/290 350/1112/290
f 343/1113/291 344/1114/291 348/1115/291 347/1116/291
f 346/1117/292 345/1118/292 349/1119/292 350/1120/292
f 345/1121/293 343/1122/293 347/1123/293 349/1124/293
f 350/1125/294 348/1126/294 344/1127/294 346/1128/294
f 354/1129/295 352/1130/295 351/1131/295 353/1132/295
f 357/1133/296 355/1134/296 356/1135/296 358/1136/296
f 351/1137/297 352/1138/297 356/1139/297 355/1140/297
f 354/1141/298 353/1142/298 357/1143/298 358/1144/298
f 353/1145/299 351/1146/299 355/1147/299 357/1148/299
f 358/1149/300 356/1150/300 352/1151/300 354/1152/300
f 362/1153/301 360/1154/301 359/1155/301 361/1156/301
f 365/1157/302 363/1158/302 364/1159/302 366/1160/302
f 359/1161/303 360/1162/303 364/1163/303 363/1164/303
f 362/1165/304 361/1166/304 365/1167/304 366/1168/304
f 361/1169/305 359/1170/305 363/1171/305 365/1172/305
f 366/1173/306 364/1174/306 360/1175/306 362/1176/306
f 370/1177/307 368/1178/307 367/1179/307 369/1180/307
f 373/1181/308 371/1182/308 372/1183/308 374/1184/308
f 367/1185/309 368/1186/309 372/1187/309 371/1188/309
f 370/1189/310 369/1190/310 373/1191/310 374/1192/310
f 369/1193/311 367/1194/311 371/1195/311 373/1196/311
f 374/1197/312 372/1198/312 368/1199/312 370/1200/312
f 378/1201/313 376/1202/313 375/1203/313 377/1204/313
f 381/1205/314 379/1206/314 380/1207/314 382/1208/314
f 375/1209/315 376/1210/315 380/1211/315 379/1212/315
f 378/1213/316 377/1214/316 381/1215/316 382/1216/316
f 377/1217/317 375/1218/317 379/1219/317 381/1220/317
f 382/1221/318 380/1222/318 376/1223/318 378/1224/318
f 386/1225/319 384/1226/319 383/1227/319 385/1228/319
f 389/1229/320 387/1230/320 388/1231/320 390/1232/320
f 383/1233/321 384/1234/321 388/1235/321 387/1236/321
f 386/1237/322 385/1238/322 389/1239/322 390/1240/322
f 385/1241/323 383/1242/323 387/1243/323 389/1244/323
f 390/1245/324 388/1246/324 384/1247/324 386/1248/324
f 394/1249/325 392/1250/325 391/1251/325 393/1252/325
f 397/1253/326 395/1254/326 396/1255/326 398/1256/326
f 391/1257/327 392/1258/327 396/1259/327 395/1260/327
f 394/1261/328 393/1262/328 397/1263/328 398/1264/328
f 393/1265/329 391/1266/329 395/1267/329 397/1268/329
f 398/1269/330 396/1270/330 392/1271/330 394/1272/330
f 402/1273/331 400/1274/331 399/1275/331 401/1276/331
f 405/1277/332 403/1278/332 404/1279/332 406/1280/332
f 399/1281/333 400/1282/333 404/1283/333 403/1284/333
f 402/1285/334 401/1286/334 405/1287/334 406/1288/334
f 401/1289/335 399/1290/335 403/1291/335 405/1292/335
f 406/1293/336 404/1294/336 400/1295/336 402/1296/336
f 410/1297/337 408/1298/337 407/1299/337 409/1300/337
f 413/1301/338 411/1302/338 412/1303/338 414/1304/338
f 407/1305/339 408/1306/339 412/1307/339 411/1308/339
f 410/1309/340 409/1310/340 413/1311/340 414/1312/340
f 409/1313/341 407/1314/341 411/1315/341 413/1316/341
f 414/1317/342 412/1318/342 408/1319/342 410/1320/342
f 418/1321/343 416/1322/343 415/1323/343 417/1324/343
f 421/1325/344 419/1326/344 420/1327/344 422/1328/344
f 415/1329/345 416/1330/345 420/1331/345 419/1332/345
f 418/1333/346 417/1334/346 421/1335/346 422/1336/346
f 417/1337/347 415/1338/347 419/1339/347 421/1340/347
f 422/1341/348 420/1342/348 416/1343/348 418/1344/348
f 426/1345/349 424/1346/349 423/1347/349 425/1348/349
f 429/1349/350 427/1350/350 428/1351/350 430/1352/350
f 423/1353/351 424/1354/351 428/1355/351 427/1356/351
f 426/1357/352 425/1358/352 429/1359/352 430/1360/352
f 425/1361/353 423/1362/353 427/1363/353 429/1364/353
f 430/1365/354 428/1366/354 424/1367/354 426/1368/354
f 434/1369/355 432/1370/355 431/1371/355 433/1372/355
f 437/1373/356 435/1374/356 436/1375/356 438/1376/356
f 431/1377/357 432/1378/357 436/1379/357 435/1380/357
f 434/1381/358 433/1382/358 437/1383/358 438/1384/358
f 433/1385/359 431/1386/359 435/1387/359 437/1388/359
f 438/1389/360 436/1390/360 432/1391/360 434/1392/360
f 442/1393/361 440/1394/361 439/1395/361 441/1396/361
f 445/1397/362 443/1398/362 444/1399/362 446/1400/362
f 439/1401/363 440/1402/363 444/1403/363 443/1404/363
f 442/1405/364 441/1406/364 445/1407/364 446/1408/364
f 441/1409/365 439/1410/365 443/1411/365 445/1412/365
f 446/1413/366 444/1414/366 440/1415/366 442/1416/366
f 450/1417/367 448/1418/367 447/1419/367 449/1420/367
f 453/1421/368 451/1422/368 452/1423/368 454/1424/368
f 447/1425/369 448/1426/369 452/1427/369 451/1428/369
f 450/1429/370 449/1430/370 453/1431/370 454/1432/370
f 449/1433/371 447/1434/371 451/1435/371 453/1436/371
f 454/1437/372 452/1438/372 448/1439/372 450/1440/372
f 458/1441/373 456/1442/373 455/1443/373 457/1444/373
f 461/1445/374 459/1446/374 460/1447/374 462/1448/374
f 455/1449/375 456/1450/375 460/1451/375 459/1452/375
f 458/1453/376 457/1454/376 461/1455/376 462/1456/376
f 457/1457/377 455/1458/377 459/1459/377 461/1460/377
f 462/1461/378 460/1462/378 456/1463/378 458/1464/378
f 466/1465/379 464/1466/379 463/1467/379 465/1468/379
f 469/1469/380 467/1470/380 468/1471/380 470/1472/380
f 463/1473/381 464/1474/381 468/1475/381 467/1476/381
f 466/1477/382 465/1478/382 469/1479/382 470/1480/382
f 465/1481/383 463/1482/383 467/1483/383 469/1484/383
f 470/1485/384 468/1486/384 464/1487/384 466/1488/384
f 474/1489/385 472/1490/385 471/1491/385 473/1492/385
f 477/1493/386 475/1494/386 476/1495/386 478/1496/386
f 471/1497/387 472/1498/387 476/1499/387 475/1500/387
f 474/1501/388 473/1502/388 477/1503/388 478/1504/388
f 473/1505/389 471/1506/389 475/1507/389 477/1508/389
f 478/1509/390 476/1510/390 472/1511/390 474/1512/390