# Blender 5.1.2
# www.blender.org
mtllib dwarf_main_signal_modern.mtl
o Dvarg_7l_ny
v -0.125000 0.218750 0.115625
v -0.125000 0.218750 -0.115625
v -0.125000 0.000000 0.115625
v -0.125000 -0.000000 -0.115625
v 0.125000 0.218750 -0.115625
v 0.125000 0.218750 0.115625
v 0.125000 -0.000000 -0.115625
v 0.125000 0.000000 0.115625
v -0.337500 0.962500 0.159375
v -0.337500 0.962500 -0.168813
v -0.337500 0.221930 0.159375
v -0.337500 0.221930 -0.168813
v 0.337500 0.221930 -0.168813
v 0.337500 0.221930 0.159375
v 0.269259 0.171930 -0.168813
v 0.269259 0.171930 0.159375
v -0.267796 0.171930 -0.168813
v -0.267796 0.962500 -0.168813
v -0.267796 0.171930 0.159375
v -0.267796 0.962500 0.159375
v -0.337500 1.380216 0.159375
v -0.337500 1.380216 -0.168813
v -0.267796 1.380216 -0.168813
v 0.134249 1.380216 -0.168813
v -0.267796 1.380216 0.159375
v 0.134249 1.380216 0.159375
v -0.337500 1.154225 -0.168813
v -0.337500 1.154225 0.159375
v -0.267796 1.154225 0.159375
v -0.267796 1.154225 -0.168813
v -0.337500 1.316349 -0.168813
v -0.267796 1.316349 0.159375
v -0.337500 1.316349 0.159375
v -0.267796 1.316349 -0.168813
v 0.264138 1.176824 0.159375
v 0.291456 1.125652 0.159375
v 0.253703 1.154225 0.159375
v 0.280114 1.152475 0.159375
v 0.291456 1.125652 -0.168813
v 0.264138 1.176824 -0.168813
v 0.253703 1.154225 -0.168813
v 0.280114 1.152475 -0.168813
v 0.140219 1.345606 0.159375
v 0.164521 1.293749 0.159375
v 0.115577 1.316349 0.159375
v 0.149428 1.318299 0.159375
v 0.164521 1.293749 -0.168813
v 0.140219 1.345606 -0.168813
v 0.115577 1.316349 -0.168813
v 0.149428 1.318299 -0.168813
v 0.115577 1.380216 -0.168813
v 0.115577 1.380216 0.159375
v 0.337500 0.928970 -0.168813
v 0.328393 0.994770 -0.168813
v 0.303970 0.962500 -0.168813
v 0.334833 0.962131 -0.168813
v 0.328393 0.994770 0.159375
v 0.337500 0.928970 0.159375
v 0.303970 0.962500 0.159375
v 0.334833 0.962131 0.159375
v -0.214965 1.100000 -0.178125
v -0.214965 1.100000 -0.164447
v -0.205753 1.122238 -0.178125
v -0.205753 1.122238 -0.164447
v -0.279035 1.164071 -0.178125
v -0.279035 1.164071 -0.164447
v -0.256797 1.173282 -0.178125
v -0.256797 1.173282 -0.164447
v -0.279035 1.254679 -0.178125
v -0.279035 1.254679 -0.164447
v -0.256797 1.245468 -0.178125
v -0.256797 1.245468 -0.164447
v -0.214965 1.318750 -0.178125
v -0.214965 1.318750 -0.164447
v -0.205753 1.296512 -0.178125
v -0.205753 1.296512 -0.164447
v -0.124356 1.318750 -0.178125
v -0.124356 1.318750 -0.164447
v -0.133567 1.296512 -0.178125
v -0.133567 1.296512 -0.164447
v -0.060285 1.254679 -0.178125
v -0.060285 1.254679 -0.164447
v -0.082523 1.245468 -0.178125
v -0.082523 1.245468 -0.164447
v -0.060285 1.164071 -0.178125
v -0.060285 1.164071 -0.164447
v -0.082523 1.173282 -0.178125
v -0.082523 1.173282 -0.164447
v -0.124356 1.100000 -0.178125
v -0.124356 1.100000 -0.164447
v -0.133567 1.122238 -0.178125
v -0.133567 1.122238 -0.164447
v -0.066535 1.215625 -0.200000
v -0.066535 1.215625 -0.164447
v -0.035285 1.215625 -0.200000
v -0.035285 1.215625 -0.164447
v -0.066535 1.234375 -0.200000
v -0.066535 1.234375 -0.164447
v -0.035285 1.234375 -0.200000
v -0.035285 1.234375 -0.164447
v -0.035285 1.271875 -0.228125
v -0.035285 1.271875 -0.164447
v -0.066535 1.271875 -0.228125
v -0.066535 1.271875 -0.164447
v -0.035285 1.234375 -0.228125
v -0.035285 1.234375 -0.164447
v -0.066535 1.234375 -0.228125
v -0.066535 1.234375 -0.164447
v -0.053223 1.315182 -0.259375
v -0.053223 1.315182 -0.164447
v -0.082095 1.303223 -0.259375
v -0.082095 1.303223 -0.164447
v -0.035285 1.271875 -0.259375
v -0.035285 1.271875 -0.164447
v -0.064157 1.259916 -0.259375
v -0.064157 1.259916 -0.164447
v -0.070103 1.332062 -0.278125
v -0.070103 1.332062 -0.164447
v -0.092201 1.309964 -0.278125
v -0.092201 1.309964 -0.164447
v -0.053223 1.315182 -0.278125
v -0.053223 1.315182 -0.164447
v -0.075321 1.293084 -0.278125
v -0.075321 1.293084 -0.164447
v -0.113410 1.350000 -0.300000
v -0.113410 1.350000 -0.164447
v -0.125369 1.321129 -0.300000
v -0.125369 1.321129 -0.164447
v -0.070103 1.332062 -0.300000
v -0.070103 1.332062 -0.164447
v -0.082062 1.303191 -0.300000
v -0.082062 1.303191 -0.164447
v -0.225910 1.350000 -0.321875
v -0.225910 1.350000 -0.164447
v -0.225910 1.318750 -0.321875
v -0.225910 1.318750 -0.164447
v -0.113410 1.350000 -0.321875
v -0.113410 1.350000 -0.164447
v -0.113410 1.318750 -0.321875
v -0.113410 1.318750 -0.164447
v -0.269217 1.332062 -0.300000
v -0.269217 1.332062 -0.164447
v -0.257258 1.303191 -0.300000
v -0.257258 1.303191 -0.164447
v -0.225910 1.350000 -0.300000
v -0.225910 1.350000 -0.164447
v -0.213952 1.321129 -0.300000
v -0.213952 1.321129 -0.164447
v -0.286097 1.315182 -0.278125
v -0.286097 1.315182 -0.164447
v -0.264000 1.293084 -0.278125
v -0.264000 1.293084 -0.164447
v -0.269217 1.332062 -0.278125
v -0.269217 1.332062 -0.164447
v -0.247120 1.309964 -0.278125
v -0.247120 1.309964 -0.164447
v -0.304035 1.271875 -0.259375
v -0.304035 1.271875 -0.164447
v -0.275164 1.259916 -0.259375
v -0.275164 1.259916 -0.164447
v -0.286097 1.315182 -0.259375
v -0.286097 1.315182 -0.164447
v -0.257226 1.303223 -0.259375
v -0.257226 1.303223 -0.164447
v -0.272785 1.271875 -0.228125
v -0.272785 1.271875 -0.164447
v -0.304035 1.271875 -0.228125
v -0.304035 1.271875 -0.164447
v -0.272785 1.234375 -0.228125
v -0.272785 1.234375 -0.164447
v -0.304035 1.234375 -0.228125
v -0.304035 1.234375 -0.164447
v -0.272785 1.234375 -0.200000
v -0.272785 1.234375 -0.164447
v -0.304035 1.234375 -0.200000
v -0.304035 1.234375 -0.164447
v -0.272785 1.215625 -0.200000
v -0.272785 1.215625 -0.164447
v -0.304035 1.215625 -0.200000
v -0.304035 1.215625 -0.164447
v 0.072878 0.970916 -0.178125
v 0.072878 0.970916 -0.164447
v 0.082089 0.993154 -0.178125
v 0.082089 0.993154 -0.164447
v 0.008807 1.034987 -0.178125
v 0.008807 1.034987 -0.164447
v 0.031045 1.044198 -0.178125
v 0.031045 1.044198 -0.164447
v 0.008807 1.125595 -0.178125
v 0.008807 1.125595 -0.164447
v 0.031045 1.116384 -0.178125
v 0.031045 1.116384 -0.164447
v 0.072878 1.189666 -0.178125
v 0.072878 1.189666 -0.164447
v 0.082089 1.167428 -0.178125
v 0.082089 1.167428 -0.164447
v 0.163486 1.189666 -0.178125
v 0.163486 1.189666 -0.164447
v 0.154275 1.167428 -0.178125
v 0.154275 1.167428 -0.164447
v 0.227557 1.125595 -0.178125
v 0.227557 1.125595 -0.164447
v 0.205319 1.116384 -0.178125
v 0.205319 1.116384 -0.164447
v 0.227557 1.034987 -0.178125
v 0.227557 1.034987 -0.164447
v 0.205319 1.044198 -0.178125
v 0.205319 1.044198 -0.164447
v 0.163486 0.970916 -0.178125
v 0.163486 0.970916 -0.164447
v 0.154275 0.993154 -0.178125
v 0.154275 0.993154 -0.164447
v 0.221307 1.086541 -0.200000
v 0.221307 1.086541 -0.164447
v 0.252557 1.086541 -0.200000
v 0.252557 1.086541 -0.164447
v 0.221307 1.105291 -0.200000
v 0.221307 1.105291 -0.164447
v 0.252557 1.105291 -0.200000
v 0.252557 1.105291 -0.164447
v 0.252557 1.142791 -0.228125
v 0.252557 1.142791 -0.164447
v 0.221307 1.142791 -0.228125
v 0.221307 1.142791 -0.164447
v 0.252557 1.105291 -0.228125
v 0.252557 1.105291 -0.164447
v 0.221307 1.105291 -0.228125
v 0.221307 1.105291 -0.164447
v 0.234619 1.186098 -0.259375
v 0.234619 1.186098 -0.164447
v 0.205748 1.174139 -0.259375
v 0.205748 1.174139 -0.164447
v 0.252557 1.142791 -0.259375
v 0.252557 1.142791 -0.164447
v 0.223686 1.130832 -0.259375
v 0.223686 1.130832 -0.164447
v 0.217739 1.202978 -0.278125
v 0.217739 1.202978 -0.164447
v 0.195641 1.180881 -0.278125
v 0.195641 1.180881 -0.164447
v 0.234619 1.186098 -0.278125
v 0.234619 1.186098 -0.164447
v 0.212521 1.164001 -0.278125
v 0.212521 1.164001 -0.164447
v 0.174432 1.220916 -0.300000
v 0.174432 1.220916 -0.164447
v 0.162473 1.192045 -0.300000
v 0.162473 1.192045 -0.164447
v 0.217739 1.202978 -0.300000
v 0.217739 1.202978 -0.164447
v 0.205780 1.174107 -0.300000
v 0.205780 1.174107 -0.164447
v 0.061932 1.220916 -0.321875
v 0.061932 1.220916 -0.164447
v 0.061932 1.189666 -0.321875
v 0.061932 1.189666 -0.164447
v 0.174432 1.220916 -0.321875
v 0.174432 1.220916 -0.164447
v 0.174432 1.189666 -0.321875
v 0.174432 1.189666 -0.164447
v 0.018625 1.202978 -0.300000
v 0.018625 1.202978 -0.164447
v 0.030584 1.174107 -0.300000
v 0.030584 1.174107 -0.164447
v 0.061932 1.220916 -0.300000
v 0.061932 1.220916 -0.164447
v 0.073891 1.192045 -0.300000
v 0.073891 1.192045 -0.164447
v 0.001745 1.186098 -0.278125
v 0.001745 1.186098 -0.164447
v 0.023843 1.164001 -0.278125
v 0.023843 1.164001 -0.164447
v 0.018625 1.202978 -0.278125
v 0.018625 1.202978 -0.164447
v 0.040723 1.180881 -0.278125
v 0.040723 1.180881 -0.164447
v -0.016193 1.142791 -0.259375
v -0.016193 1.142791 -0.164447
v 0.012678 1.130832 -0.259375
v 0.012678 1.130832 -0.164447
v 0.001745 1.186098 -0.259375
v 0.001745 1.186098 -0.164447
v 0.030616 1.174139 -0.259375
v 0.030616 1.174139 -0.164447
v 0.015057 1.142791 -0.228125
v 0.015057 1.142791 -0.164447
v -0.016193 1.142791 -0.228125
v -0.016193 1.142791 -0.164447
v 0.015057 1.105291 -0.228125
v 0.015057 1.105291 -0.164447
v -0.016193 1.105291 -0.228125
v -0.016193 1.105291 -0.164447
v 0.015057 1.105291 -0.200000
v 0.015057 1.105291 -0.164447
v -0.016193 1.105291 -0.200000
v -0.016193 1.105291 -0.164447
v 0.015057 1.086541 -0.200000
v 0.015057 1.086541 -0.164447
v -0.016193 1.086541 -0.200000
v -0.016193 1.086541 -0.164447
v -0.231414 0.663786 -0.178125
v -0.231414 0.663786 -0.164447
v -0.222203 0.686024 -0.178125
v -0.222203 0.686024 -0.164447
v -0.295485 0.727856 -0.178125
v -0.295485 0.727856 -0.164447
v -0.273247 0.737067 -0.178125
v -0.273247 0.737067 -0.164447
v -0.295485 0.818465 -0.178125
v -0.295485 0.818465 -0.164447
v -0.273247 0.809254 -0.178125
v -0.273247 0.809254 -0.164447
v -0.231414 0.882536 -0.178125
v -0.231414 0.882536 -0.164447
v -0.222203 0.860297 -0.178125
v -0.222203 0.860297 -0.164447
v -0.140805 0.882536 -0.178125
v -0.140805 0.882536 -0.164447
v -0.150017 0.860297 -0.178125
v -0.150017 0.860297 -0.164447
v -0.076735 0.818465 -0.178125
v -0.076735 0.818465 -0.164447
v -0.098973 0.809254 -0.178125
v -0.098973 0.809254 -0.164447
v -0.076735 0.727856 -0.178125
v -0.076735 0.727856 -0.164447
v -0.098973 0.737067 -0.178125
v -0.098973 0.737067 -0.164447
v -0.140805 0.663786 -0.178125
v -0.140805 0.663786 -0.164447
v -0.150017 0.686024 -0.178125
v -0.150017 0.686024 -0.164447
v -0.082985 0.779411 -0.200000
v -0.082985 0.779411 -0.164447
v -0.051735 0.779411 -0.200000
v -0.051735 0.779411 -0.164447
v -0.082985 0.798160 -0.200000
v -0.082985 0.798160 -0.164447
v -0.051735 0.798160 -0.200000
v -0.051735 0.798160 -0.164447
v -0.051735 0.835661 -0.228125
v -0.051735 0.835661 -0.164447
v -0.082985 0.835661 -0.228125
v -0.082985 0.835661 -0.164447
v -0.051735 0.798160 -0.228125
v -0.051735 0.798160 -0.164447
v -0.082985 0.798160 -0.228125
v -0.082985 0.798160 -0.164447
v -0.069673 0.878967 -0.259375
v -0.069673 0.878967 -0.164447
v -0.098544 0.867009 -0.259375
v -0.098544 0.867009 -0.164447
v -0.051735 0.835661 -0.259375
v -0.051735 0.835661 -0.164447
v -0.080606 0.823702 -0.259375
v -0.080606 0.823702 -0.164447
v -0.086553 0.895847 -0.278125
v -0.086553 0.895847 -0.164447
v -0.108650 0.873750 -0.278125
v -0.108650 0.873750 -0.164447
v -0.069673 0.878967 -0.278125
v -0.069673 0.878967 -0.164447
v -0.091770 0.856870 -0.278125
v -0.091770 0.856870 -0.164447
v -0.129860 0.913786 -0.300000
v -0.129860 0.913786 -0.164447
v -0.141819 0.884914 -0.300000
v -0.141819 0.884914 -0.164447
v -0.086553 0.895847 -0.300000
v -0.086553 0.895847 -0.164447
v -0.098512 0.866976 -0.300000
v -0.098512 0.866976 -0.164447
v -0.242360 0.913786 -0.321875
v -0.242360 0.913786 -0.164447
v -0.242360 0.882536 -0.321875
v -0.242360 0.882536 -0.164447
v -0.129860 0.913786 -0.321875
v -0.129860 0.913786 -0.164447
v -0.129860 0.882536 -0.321875
v -0.129860 0.882536 -0.164447
v -0.285667 0.895847 -0.300000
v -0.285667 0.895847 -0.164447
v -0.273708 0.866976 -0.300000
v -0.273708 0.866976 -0.164447
v -0.242360 0.913786 -0.300000
v -0.242360 0.913786 -0.164447
v -0.230401 0.884914 -0.300000
v -0.230401 0.884914 -0.164447
v -0.302547 0.878967 -0.278125
v -0.302547 0.878967 -0.164447
v -0.280449 0.856870 -0.278125
v -0.280449 0.856870 -0.164447
v -0.285667 0.895847 -0.278125
v -0.285667 0.895847 -0.164447
v -0.263569 0.873750 -0.278125
v -0.263569 0.873750 -0.164447
v -0.320485 0.835661 -0.259375
v -0.320485 0.835661 -0.164447
v -0.291614 0.823702 -0.259375
v -0.291614 0.823702 -0.164447
v -0.302547 0.878967 -0.259375
v -0.302547 0.878967 -0.164447
v -0.273675 0.867009 -0.259375
v -0.273675 0.867009 -0.164447
v -0.289235 0.835661 -0.228125
v -0.289235 0.835661 -0.164447
v -0.320485 0.835661 -0.228125
v -0.320485 0.835661 -0.164447
v -0.289235 0.798160 -0.228125
v -0.289235 0.798160 -0.164447
v -0.320485 0.798160 -0.228125
v -0.320485 0.798160 -0.164447
v -0.289235 0.798160 -0.200000
v -0.289235 0.798160 -0.164447
v -0.320485 0.798160 -0.200000
v -0.320485 0.798160 -0.164447
v -0.289235 0.779411 -0.200000
v -0.289235 0.779411 -0.164447
v -0.320485 0.779411 -0.200000
v -0.320485 0.779411 -0.164447
v 0.231501 0.663786 -0.178125
v 0.231501 0.663786 -0.164447
v 0.222290 0.686024 -0.178125
v 0.222290 0.686024 -0.164447
v 0.295572 0.727856 -0.178125
v 0.295572 0.727856 -0.164447
v 0.273334 0.737067 -0.178125
v 0.273334 0.737067 -0.164447
v 0.295572 0.818465 -0.178125
v 0.295572 0.818465 -0.164447
v 0.273334 0.809254 -0.178125
v 0.273334 0.809254 -0.164447
v 0.231501 0.882536 -0.178125
v 0.231501 0.882536 -0.164447
v 0.222290 0.860297 -0.178125
v 0.222290 0.860297 -0.164447
v 0.140892 0.882536 -0.178125
v 0.140892 0.882536 -0.164447
v 0.150104 0.860297 -0.178125
v 0.150104 0.860297 -0.164447
v 0.076822 0.818465 -0.178125
v 0.076822 0.818465 -0.164447
v 0.099060 0.809254 -0.178125
v 0.099060 0.809254 -0.164447
v 0.076822 0.727856 -0.178125
v 0.076822 0.727856 -0.164447
v 0.099060 0.737067 -0.178125
v 0.099060 0.737067 -0.164447
v 0.140892 0.663786 -0.178125
v 0.140892 0.663786 -0.164447
v 0.150104 0.686024 -0.178125
v 0.150104 0.686024 -0.164447
v 0.083072 0.779411 -0.200000
v 0.083072 0.779411 -0.164447
v 0.051822 0.779411 -0.200000
v 0.051822 0.779411 -0.164447
v 0.083072 0.798160 -0.200000
v 0.083072 0.798160 -0.164447
v 0.051822 0.798160 -0.200000
v 0.051822 0.798160 -0.164447
v 0.051822 0.835661 -0.228125
v 0.051822 0.835661 -0.164447
v 0.083072 0.835661 -0.228125
v 0.083072 0.835661 -0.164447
v 0.051822 0.798160 -0.228125
v 0.051822 0.798160 -0.164447
v 0.083072 0.798160 -0.228125
v 0.083072 0.798160 -0.164447
v 0.069760 0.878967 -0.259375
v 0.069760 0.878967 -0.164447
v 0.098631 0.867009 -0.259375
v 0.098631 0.867009 -0.164447
v 0.051822 0.835661 -0.259375
v 0.051822 0.835661 -0.164447
v 0.080693 0.823702 -0.259375
v 0.080693 0.823702 -0.164447
v 0.086640 0.895847 -0.278125
v 0.086640 0.895847 -0.164447
v 0.108737 0.873750 -0.278125
v 0.108737 0.873750 -0.164447
v 0.069760 0.878967 -0.278125
v 0.069760 0.878967 -0.164447
v 0.091857 0.856870 -0.278125
v 0.091857 0.856870 -0.164447
v 0.129947 0.913786 -0.300000
v 0.129947 0.913786 -0.164447
v 0.141906 0.884914 -0.300000
v 0.141906 0.884914 -0.164447
v 0.086640 0.895847 -0.300000
v 0.086640 0.895847 -0.164447
v 0.098599 0.866976 -0.300000
v 0.098599 0.866976 -0.164447
v 0.242447 0.913786 -0.321875
v 0.242447 0.913786 -0.164447
v 0.242447 0.882536 -0.321875
v 0.242447 0.882536 -0.164447
v 0.129947 0.913786 -0.321875
v 0.129947 0.913786 -0.164447
v 0.129947 0.882536 -0.321875
v 0.129947 0.882536 -0.164447
v 0.285754 0.895847 -0.300000
v 0.285754 0.895847 -0.164447
v 0.273795 0.866976 -0.300000
v 0.273795 0.866976 -0.164447
v 0.242447 0.913786 -0.300000
v 0.242447 0.913786 -0.164447
v 0.230488 0.884914 -0.300000
v 0.230488 0.884914 -0.164447
v 0.302634 0.878967 -0.278125
v 0.302634 0.878967 -0.164447
v 0.280536 0.856870 -0.278125
v 0.280536 0.856870 -0.164447
v 0.285754 0.895847 -0.278125
v 0.285754 0.895847 -0.164447
v 0.263656 0.873750 -0.278125
v 0.263656 0.873750 -0.164447
v 0.320572 0.835661 -0.259375
v 0.320572 0.835661 -0.164447
v 0.291701 0.823702 -0.259375
v 0.291701 0.823702 -0.164447
v 0.302634 0.878967 -0.259375
v 0.302634 0.878967 -0.164447
v 0.273762 0.867009 -0.259375
v 0.273762 0.867009 -0.164447
v 0.289322 0.835661 -0.228125
v 0.289322 0.835661 -0.164447
v 0.320572 0.835661 -0.228125
v 0.320572 0.835661 -0.164447
v 0.289322 0.798160 -0.228125
v 0.289322 0.798160 -0.164447
v 0.320572 0.798160 -0.228125
v 0.320572 0.798160 -0.164447
v 0.289322 0.798160 -0.200000
v 0.289322 0.798160 -0.164447
v 0.320572 0.798160 -0.200000
v 0.320572 0.798160 -0.164447
v 0.289322 0.779411 -0.200000
v 0.289322 0.779411 -0.164447
v 0.320572 0.779411 -0.200000
v 0.320572 0.779411 -0.164447
v -0.231414 0.357239 -0.178125
v -0.231414 0.357239 -0.164447
v -0.222203 0.379477 -0.178125
v -0.222203 0.379477 -0.164447
v -0.295485 0.421310 -0.178125
v -0.295485 0.421310 -0.164447
v -0.273247 0.430521 -0.178125
v -0.273247 0.430521 -0.164447
v -0.295485 0.511918 -0.178125
v -0.295485 0.511918 -0.164447
v -0.273247 0.502707 -0.178125
v -0.273247 0.502707 -0.164447
v -0.231414 0.575989 -0.178125
v -0.231414 0.575989 -0.164447
v -0.222203 0.553751 -0.178125
v -0.222203 0.553751 -0.164447
v -0.140805 0.575989 -0.178125
v -0.140805 0.575989 -0.164447
v -0.150017 0.553751 -0.178125
v -0.150017 0.553751 -0.164447
v -0.076735 0.511918 -0.178125
v -0.076735 0.511918 -0.164447
v -0.098973 0.502707 -0.178125
v -0.098973 0.502707 -0.164447
v -0.076735 0.421310 -0.178125
v -0.076735 0.421310 -0.164447
v -0.098973 0.430521 -0.178125
v -0.098973 0.430521 -0.164447
v -0.140805 0.357239 -0.178125
v -0.140805 0.357239 -0.164447
v -0.150017 0.379477 -0.178125
v -0.150017 0.379477 -0.164447
v -0.082985 0.472864 -0.200000
v -0.082985 0.472864 -0.164447
v -0.051735 0.472864 -0.200000
v -0.051735 0.472864 -0.164447
v -0.082985 0.491614 -0.200000
v -0.082985 0.491614 -0.164447
v -0.051735 0.491614 -0.200000
v -0.051735 0.491614 -0.164447
v -0.051735 0.529114 -0.228125
v -0.051735 0.529114 -0.164447
v -0.082985 0.529114 -0.228125
v -0.082985 0.529114 -0.164447
v -0.051735 0.491614 -0.228125
v -0.051735 0.491614 -0.164447
v -0.082985 0.491614 -0.228125
v -0.082985 0.491614 -0.164447
v -0.069673 0.572421 -0.259375
v -0.069673 0.572421 -0.164447
v -0.098544 0.560462 -0.259375
v -0.098544 0.560462 -0.164447
v -0.051735 0.529114 -0.259375
v -0.051735 0.529114 -0.164447
v -0.080606 0.517155 -0.259375
v -0.080606 0.517155 -0.164447
v -0.086553 0.589301 -0.278125
v -0.086553 0.589301 -0.164447
v -0.108650 0.567203 -0.278125
v -0.108650 0.567203 -0.164447
v -0.069673 0.572421 -0.278125
v -0.069673 0.572421 -0.164447
v -0.091770 0.550323 -0.278125
v -0.091770 0.550323 -0.164447
v -0.129860 0.607239 -0.300000
v -0.129860 0.607239 -0.164447
v -0.141819 0.578368 -0.300000
v -0.141819 0.578368 -0.164447
v -0.086553 0.589301 -0.300000
v -0.086553 0.589301 -0.164447
v -0.098512 0.560430 -0.300000
v -0.098512 0.560430 -0.164447
v -0.242360 0.607239 -0.321875
v -0.242360 0.607239 -0.164447
v -0.242360 0.575989 -0.321875
v -0.242360 0.575989 -0.164447
v -0.129860 0.607239 -0.321875
v -0.129860 0.607239 -0.164447
v -0.129860 0.575989 -0.321875
v -0.129860 0.575989 -0.164447
v -0.285667 0.589301 -0.300000
v -0.285667 0.589301 -0.164447
v -0.273708 0.560430 -0.300000
v -0.273708 0.560430 -0.164447
v -0.242360 0.607239 -0.300000
v -0.242360 0.607239 -0.164447
v -0.230401 0.578368 -0.300000
v -0.230401 0.578368 -0.164447
v -0.302547 0.572421 -0.278125
v -0.302547 0.572421 -0.164447
v -0.280449 0.550323 -0.278125
v -0.280449 0.550323 -0.164447
v -0.285667 0.589301 -0.278125
v -0.285667 0.589301 -0.164447
v -0.263569 0.567203 -0.278125
v -0.263569 0.567203 -0.164447
v -0.320485 0.529114 -0.259375
v -0.320485 0.529114 -0.164447
v -0.291614 0.517155 -0.259375
v -0.291614 0.517155 -0.164447
v -0.302547 0.572421 -0.259375
v -0.302547 0.572421 -0.164447
v -0.273675 0.560462 -0.259375
v -0.273675 0.560462 -0.164447
v -0.289235 0.529114 -0.228125
v -0.289235 0.529114 -0.164447
v -0.320485 0.529114 -0.228125
v -0.320485 0.529114 -0.164447
v -0.289235 0.491614 -0.228125
v -0.289235 0.491614 -0.164447
v -0.320485 0.491614 -0.228125
v -0.320485 0.491614 -0.164447
v -0.289235 0.491614 -0.200000
v -0.289235 0.491614 -0.164447
v -0.320485 0.491614 -0.200000
v -0.320485 0.491614 -0.164447
v -0.289235 0.472864 -0.200000
v -0.289235 0.472864 -0.164447
v -0.320485 0.472864 -0.200000
v -0.320485 0.472864 -0.164447
v 0.231501 0.357239 -0.178125
v 0.231501 0.357239 -0.164447
v 0.222290 0.379477 -0.178125
v 0.222290 0.379477 -0.164447
v 0.295572 0.421310 -0.178125
v 0.295572 0.421310 -0.164447
v 0.273334 0.430521 -0.178125
v 0.273334 0.430521 -0.164447
v 0.295572 0.511918 -0.178125
v 0.295572 0.511918 -0.164447
v 0.273334 0.502707 -0.178125
v 0.273334 0.502707 -0.164447
v 0.231501 0.575989 -0.178125
v 0.231501 0.575989 -0.164447
v 0.222290 0.553751 -0.178125
v 0.222290 0.553751 -0.164447
v 0.140892 0.575989 -0.178125
v 0.140892 0.575989 -0.164447
v 0.150104 0.553751 -0.178125
v 0.150104 0.553751 -0.164447
v 0.076822 0.511918 -0.178125
v 0.076822 0.511918 -0.164447
v 0.099060 0.502707 -0.178125
v 0.099060 0.502707 -0.164447
v 0.076822 0.421310 -0.178125
v 0.076822 0.421310 -0.164447
v 0.099060 0.430521 -0.178125
v 0.099060 0.430521 -0.164447
v 0.140892 0.357239 -0.178125
v 0.140892 0.357239 -0.164447
v 0.150104 0.379477 -0.178125
v 0.150104 0.379477 -0.164447
v 0.083072 0.472864 -0.200000
v 0.083072 0.472864 -0.164447
v 0.051822 0.472864 -0.200000
v 0.051822 0.472864 -0.164447
v 0.083072 0.491614 -0.200000
v 0.083072 0.491614 -0.164447
v 0.051822 0.491614 -0.200000
v 0.051822 0.491614 -0.164447
v 0.051822 0.529114 -0.228125
v 0.051822 0.529114 -0.164447
v 0.083072 0.529114 -0.228125
v 0.083072 0.529114 -0.164447
v 0.051822 0.491614 -0.228125
v 0.051822 0.491614 -0.164447
v 0.083072 0.491614 -0.228125
v 0.083072 0.491614 -0.164447
v 0.069760 0.572421 -0.259375
v 0.069760 0.572421 -0.164447
v 0.098631 0.560462 -0.259375
v 0.098631 0.560462 -0.164447
v 0.051822 0.529114 -0.259375
v 0.051822 0.529114 -0.164447
v 0.080693 0.517155 -0.259375
v 0.080693 0.517155 -0.164447
v 0.086640 0.589301 -0.278125
v 0.086640 0.589301 -0.164447
v 0.108737 0.567203 -0.278125
v 0.108737 0.567203 -0.164447
v 0.069760 0.572421 -0.278125
v 0.069760 0.572421 -0.164447
v 0.091857 0.550323 -0.278125
v 0.091857 0.550323 -0.164447
v 0.129947 0.607239 -0.300000
v 0.129947 0.607239 -0.164447
v 0.141906 0.578368 -0.300000
v 0.141906 0.578368 -0.164447
v 0.086640 0.589301 -0.300000
v 0.086640 0.589301 -0.164447
v 0.098599 0.560430 -0.300000
v 0.098599 0.560430 -0.164447
v 0.242447 0.607239 -0.321875
v 0.242447 0.607239 -0.164447
v 0.242447 0.575989 -0.321875
v 0.242447 0.575989 -0.164447
v 0.129947 0.607239 -0.321875
v 0.129947 0.607239 -0.164447
v 0.129947 0.575989 -0.321875
v 0.129947 0.575989 -0.164447
v 0.285754 0.589301 -0.300000
v 0.285754 0.589301 -0.164447
v 0.273795 0.560430 -0.300000
v 0.273795 0.560430 -0.164447
v 0.242447 0.607239 -0.300000
v 0.242447 0.607239 -0.164447
v 0.230488 0.578368 -0.300000
v 0.230488 0.578368 -0.164447
v 0.302634 0.572421 -0.278125
v 0.302634 0.572421 -0.164447
v 0.280536 0.550323 -0.278125
v 0.280536 0.550323 -0.164447
v 0.285754 0.589301 -0.278125
v 0.285754 0.589301 -0.164447
v 0.263656 0.567203 -0.278125
v 0.263656 0.567203 -0.164447
v 0.320572 0.529114 -0.259375
v 0.320572 0.529114 -0.164447
v 0.291701 0.517155 -0.259375
v 0.291701 0.517155 -0.164447
v 0.302634 0.572421 -0.259375
v 0.302634 0.572421 -0.164447
v 0.273762 0.560462 -0.259375
v 0.273762 0.560462 -0.164447
v 0.289322 0.529114 -0.228125
v 0.289322 0.529114 -0.164447
v 0.320572 0.529114 -0.228125
v 0.320572 0.529114 -0.164447
v 0.289322 0.491614 -0.228125
v 0.289322 0.491614 -0.164447
v 0.320572 0.491614 -0.228125
v 0.320572 0.491614 -0.164447
v 0.289322 0.491614 -0.200000
v 0.289322 0.491614 -0.164447
v 0.320572 0.491614 -0.200000
v 0.320572 0.491614 -0.164447
v 0.289322 0.472864 -0.200000
v 0.289322 0.472864 -0.164447
v 0.320572 0.472864 -0.200000
v 0.320572 0.472864 -0.164447
v -0.205519 0.343119 -0.184519
v -0.205519 0.343119 -0.190769
v -0.205519 0.093119 -0.184519
v -0.205519 0.093119 -0.190769
v 0.206981 0.343119 -0.190769
v 0.206981 0.343119 -0.184519
v 0.206981 0.093119 -0.190769
v 0.206981 0.093119 -0.184519
v 0.125731 0.249369 -0.153269
v 0.125731 0.249369 -0.215769
v 0.125731 0.186869 -0.153269
v 0.125731 0.186869 -0.215769
v 0.188231 0.249369 -0.215769
v 0.188231 0.249369 -0.153269
v 0.188231 0.186869 -0.215769
v 0.188231 0.186869 -0.153269
v -0.186769 0.249369 -0.153269
v -0.186769 0.249369 -0.215769
v -0.186769 0.186869 -0.153269
v -0.186769 0.186869 -0.215769
v -0.124269 0.249369 -0.215769
v -0.124269 0.249369 -0.153269
v -0.124269 0.186869 -0.215769
v -0.124269 0.186869 -0.153269
v 0.281922 1.327903 0.134375
v 0.281922 1.327903 -0.115625
v 0.171436 1.217417 0.134375
v 0.171436 1.217417 -0.115625
v 0.370310 1.239515 -0.115625
v 0.370310 1.239515 0.134375
v 0.259824 1.129029 -0.115625
v 0.259824 1.129029 0.134375
v 0.276782 1.428125 0.153125
v 0.276782 1.428125 -0.234375
v 0.305653 1.416166 0.153125
v 0.305653 1.416166 -0.234375
v 0.294720 1.471432 -0.234375
v 0.294720 1.471432 0.153125
v 0.323592 1.459473 -0.234375
v 0.323592 1.459473 0.153125
v 0.354907 1.506250 0.153125
v 0.354907 1.506250 -0.296875
v 0.354907 1.475000 0.153125
v 0.354907 1.475000 -0.296875
v 0.467407 1.506250 -0.296875
v 0.467407 1.506250 0.153125
v 0.467407 1.475000 -0.296875
v 0.467407 1.475000 0.153125
v 0.311600 1.488312 0.153125
v 0.311600 1.488312 -0.271875
v 0.323559 1.459441 0.153125
v 0.323559 1.459441 -0.271875
v 0.354907 1.506250 -0.271875
v 0.354907 1.506250 0.153125
v 0.366866 1.477379 -0.271875
v 0.366866 1.477379 0.153125
v 0.467407 1.506250 0.153125
v 0.467407 1.506250 -0.271875
v 0.455448 1.477379 0.153125
v 0.455448 1.477379 -0.271875
v 0.510714 1.488312 -0.271875
v 0.510714 1.488312 0.153125
v 0.498755 1.459441 -0.271875
v 0.498755 1.459441 0.153125
v 0.545532 1.428125 0.153125
v 0.545532 1.428125 -0.203125
v 0.514282 1.428125 0.153125
v 0.514282 1.428125 -0.203125
v 0.545532 1.390625 -0.203125
v 0.545532 1.390625 0.153125
v 0.514282 1.390625 -0.203125
v 0.514282 1.390625 0.153125
v 0.308032 1.428125 0.153125
v 0.308032 1.428125 -0.203125
v 0.276782 1.428125 0.153125
v 0.276782 1.428125 -0.203125
v 0.308032 1.390625 -0.203125
v 0.308032 1.390625 0.153125
v 0.276782 1.390625 -0.203125
v 0.276782 1.390625 0.153125
v 0.294720 1.471432 0.153125
v 0.294720 1.471432 -0.253125
v 0.316817 1.449335 0.153125
v 0.316817 1.449335 -0.253125
v 0.311600 1.488312 -0.253125
v 0.311600 1.488312 0.153125
v 0.333697 1.466215 -0.253125
v 0.333697 1.466215 0.153125
v 0.527594 1.471432 0.153125
v 0.527594 1.471432 -0.234375
v 0.498722 1.459473 0.153125
v 0.498722 1.459473 -0.234375
v 0.545532 1.428125 -0.234375
v 0.545532 1.428125 0.153125
v 0.516661 1.416166 -0.234375
v 0.516661 1.416166 0.153125
v 0.510714 1.488312 0.153125
v 0.510714 1.488312 -0.253125
v 0.488617 1.466215 0.153125
v 0.488617 1.466215 -0.253125
v 0.527594 1.471432 -0.253125
v 0.527594 1.471432 0.153125
v 0.505497 1.449335 -0.253125
v 0.505497 1.449335 0.153125
v 0.545532 1.390625 0.153025
v 0.545532 1.390625 -0.178230
v 0.514282 1.390625 0.153025
v 0.514282 1.390625 -0.178230
v 0.545532 1.303125 -0.178230
v 0.545532 1.303125 0.153025
v 0.514282 1.303125 -0.178230
v 0.514282 1.303125 0.153025
v 0.481400 1.278952 0.153131
v 0.481400 1.278952 -0.178125
v 0.527594 1.259818 0.153131
v 0.527594 1.259818 -0.178125
v 0.499338 1.322259 -0.178125
v 0.499338 1.322259 0.153131
v 0.545532 1.303125 -0.178125
v 0.545532 1.303125 0.153131
v 0.488617 1.265035 0.153025
v 0.488617 1.265035 -0.178230
v 0.510714 1.242938 0.153025
v 0.510714 1.242938 -0.178230
v 0.505497 1.281915 -0.178230
v 0.505497 1.281915 0.153025
v 0.527594 1.259818 -0.178230
v 0.527594 1.259818 0.153025
v 0.445881 1.276968 0.153137
v 0.445881 1.276968 -0.178025
v 0.467407 1.225000 0.153137
v 0.467407 1.225000 -0.178025
v 0.489188 1.294906 -0.178025
v 0.489188 1.294906 0.153137
v 0.510714 1.242938 -0.178025
v 0.510714 1.242938 0.153137
v 0.354907 1.256250 0.153025
v 0.354907 1.256250 -0.178230
v 0.354907 1.225000 0.153025
v 0.354907 1.225000 -0.178230
v 0.467407 1.256250 -0.178230
v 0.467407 1.256250 0.153025
v 0.467407 1.225000 -0.178230
v 0.467407 1.225000 0.153025
v 0.276782 1.303125 0.153025
v 0.276782 1.303125 -0.178230
v 0.308032 1.303125 0.153025
v 0.308032 1.303125 -0.178230
v 0.276782 1.390625 -0.178230
v 0.276782 1.390625 0.153025
v 0.308032 1.390625 -0.178230
v 0.308032 1.390625 0.153025
v 0.322976 1.322259 0.153131
v 0.322976 1.322259 -0.178125
v 0.276782 1.303125 0.153131
v 0.276782 1.303125 -0.178125
v 0.340914 1.278952 -0.178125
v 0.340914 1.278952 0.153131
v 0.294720 1.259818 -0.178125
v 0.294720 1.259818 0.153131
v 0.316817 1.281915 0.153025
v 0.316817 1.281915 -0.178230
v 0.294720 1.259818 0.153025
v 0.294720 1.259818 -0.178230
v 0.333697 1.265035 -0.178230
v 0.333697 1.265035 0.153025
v 0.311600 1.242938 -0.178230
v 0.311600 1.242938 0.153025
v 0.333126 1.294906 0.153137
v 0.333126 1.294906 -0.178025
v 0.311600 1.242938 0.153137
v 0.311600 1.242938 -0.178025
v 0.376433 1.276968 -0.178025
v 0.376433 1.276968 0.153137
v 0.354907 1.225000 -0.178025
v 0.354907 1.225000 0.153137
v 0.282556 1.425733 0.153187
v 0.282556 1.425733 -0.178069
v 0.322976 1.408991 0.153187
v 0.322976 1.408991 -0.178069
v 0.300495 1.469040 -0.178069
v 0.300495 1.469040 0.153187
v 0.340914 1.452298 -0.178069
v 0.340914 1.452298 0.153187
v 0.313992 1.482538 0.153250
v 0.313992 1.482538 -0.178006
v 0.333126 1.436344 0.153250
v 0.333126 1.436344 -0.178006
v 0.357299 1.500476 -0.178006
v 0.357299 1.500476 0.153250
v 0.376433 1.454282 -0.178006
v 0.376433 1.454282 0.153250
v 0.465015 1.500476 0.153250
v 0.465015 1.500476 -0.178006
v 0.445881 1.454282 0.153250
v 0.445881 1.454282 -0.178006
v 0.508322 1.482538 -0.178006
v 0.508322 1.482538 0.153250
v 0.489188 1.436344 -0.178006
v 0.489188 1.436344 0.153250
v 0.521819 1.469040 0.153187
v 0.521819 1.469040 -0.178069
v 0.481400 1.452298 0.153187
v 0.481400 1.452298 -0.178069
v 0.539758 1.425733 -0.178069
v 0.539758 1.425733 0.153187
v 0.499338 1.408991 -0.178069
v 0.499338 1.408991 0.153187
v 0.365853 1.256250 -0.184375
v 0.365853 1.256250 -0.153125
v 0.375064 1.278488 -0.184375
v 0.375064 1.278488 -0.153125
v 0.301782 1.320321 -0.184375
v 0.301782 1.320321 -0.153125
v 0.324020 1.329532 -0.184375
v 0.324020 1.329532 -0.153125
v 0.301782 1.410929 -0.184375
v 0.301782 1.410929 -0.153125
v 0.324020 1.401718 -0.184375
v 0.324020 1.401718 -0.153125
v 0.365853 1.475000 -0.184375
v 0.365853 1.475000 -0.153125
v 0.375064 1.452762 -0.184375
v 0.375064 1.452762 -0.153125
v 0.456461 1.475000 -0.184375
v 0.456461 1.475000 -0.153125
v 0.447250 1.452762 -0.184375
v 0.447250 1.452762 -0.153125
v 0.520532 1.410929 -0.184375
v 0.520532 1.410929 -0.153125
v 0.498294 1.401718 -0.184375
v 0.498294 1.401718 -0.153125
v 0.520532 1.320321 -0.184375
v 0.520532 1.320321 -0.153125
v 0.498294 1.329532 -0.184375
v 0.498294 1.329532 -0.153125
v 0.456461 1.256250 -0.184375
v 0.456461 1.256250 -0.153125
v 0.447250 1.278488 -0.184375
v 0.447250 1.278488 -0.153125
v 0.506021 1.460490 -0.153125
v 0.316292 1.460490 -0.153125
v 0.506021 1.270760 -0.153125
v 0.316292 1.270760 -0.153125
v 0.516050 1.477580 0.151948
v 0.306263 1.477580 0.151948
v 0.516050 1.254090 0.151948
v 0.306263 1.254090 0.151948
v 0.262286 0.821875 0.209375
v 0.262286 0.821875 0.146875
v 0.262286 0.759375 0.209375
v 0.262286 0.759375 0.146875
v 0.324786 0.821875 0.146875
v 0.324786 0.821875 0.209375
v 0.324786 0.759375 0.146875
v 0.324786 0.759375 0.209375
v 0.262286 0.475000 0.209375
v 0.262286 0.475000 0.146875
v 0.262286 0.412500 0.209375
v 0.262286 0.412500 0.146875
v 0.324786 0.475000 0.146875
v 0.324786 0.475000 0.209375
v 0.324786 0.412500 0.146875
v 0.324786 0.412500 0.209375
v -0.306618 0.625000 0.178125
v -0.306618 0.625000 0.034375
v -0.306618 0.262500 0.178125
v -0.306618 0.262500 0.034375
v 0.293536 0.625000 0.034375
v 0.293536 0.625000 0.178125
v 0.293536 0.262500 0.034375
v 0.293536 0.262500 0.178125
v -0.306618 1.337500 0.178125
v -0.306618 1.337500 0.034375
v -0.306618 0.975000 0.178125
v -0.306618 0.975000 0.034375
v 0.112132 1.337500 0.034375
v 0.112132 1.337500 0.178125
v 0.112132 0.975000 0.034375
v 0.112132 0.975000 0.178125
v 0.080882 1.187500 0.209375
v 0.080882 1.187500 0.146875
v 0.080882 1.125000 0.209375
v 0.080882 1.125000 0.146875
v 0.143382 1.187500 0.146875
v 0.143382 1.187500 0.209375
v 0.143382 1.125000 0.146875
v 0.143382 1.125000 0.209375
v -0.306618 0.931250 0.178125
v -0.306618 0.931250 0.034375
v -0.306618 0.650000 0.178125
v -0.306618 0.650000 0.034375
v 0.293536 0.931250 0.034375
v 0.293536 0.931250 0.178125
v 0.293536 0.650000 0.034375
v 0.293536 0.650000 0.178125
vn -0.0000 -0.0000 -1.0000
vn -1.0000 -0.0000 -0.0000
vn -0.0000 -0.0000 1.0000
vn 1.0000 -0.0000 -0.0000
vn -0.0000 1.0000 -0.0000
vn -0.0000 -1.0000 -0.0000
vn -0.3061 -0.9520 -0.0000
vn -0.5829 -0.8126 -0.0000
vn 0.5910 -0.8066 -0.0000
vn 0.3109 -0.9504 -0.0000
vn 0.8002 0.5997 -0.0000
vn 0.8822 0.4709 -0.0000
vn 0.9436 0.3312 -0.0000
vn 0.9694 0.2455 -0.0000
vn 0.9055 0.4243 -0.0000
vn 0.8090 0.5879 -0.0000
vn 0.9854 0.1700 -0.0000
vn 0.9992 0.0401 -0.0000
vn 0.9906 0.1371 -0.0000
vn 0.9725 0.2328 -0.0000
vn -0.7071 -0.7071 -0.0000
vn 0.7071 0.7071 -0.0000
vn -0.7071 0.7071 -0.0000
vn 0.7071 -0.7071 -0.0000
vn -0.3827 0.9239 -0.0000
vn 0.3827 -0.9239 -0.0000
vn 0.9239 0.3827 -0.0000
vn -0.9239 -0.3827 -0.0000
vn -0.9239 0.3827 -0.0000
vn 0.9239 -0.3827 -0.0000
vn 0.3827 0.9239 -0.0000
vn -0.3827 -0.9239 -0.0000
vt 0.250000 0.750000
vt 0.187500 0.750000
vt 0.187500 0.796875
vt 0.250000 0.796875
vt 0.250000 0.765625
vt 0.187500 0.765625
vt 0.187500 0.812500
vt 0.250000 0.812500
vt 0.310526 0.343634
vt 0.407620 0.343634
vt 0.407620 0.551346
vt 0.310526 0.551346
vt 0.641645 0.348712
vt 0.649213 0.354140
vt 0.649213 0.434541
vt 0.641645 0.434541
vt 0.407620 0.329610
vt 0.310526 0.329610
vt 0.310057 0.343557
vt 0.310057 0.329536
vt 0.408139 0.329536
vt 0.408139 0.343557
vt 0.266699 0.343155
vt 0.286305 0.329091
vt 0.286305 0.551461
vt 0.266699 0.551461
vt 0.966999 0.187500
vt 0.830249 0.187500
vt 0.830249 0.109375
vt 0.966999 0.109375
vt 0.310526 0.650592
vt 0.407620 0.650592
vt 0.407620 0.668505
vt 0.310526 0.668505
vt 0.283374 0.468750
vt 0.265625 0.468750
vt 0.265625 0.546875
vt 0.283374 0.546875
vt 0.414252 0.468750
vt 0.414252 0.546875
vt 0.641645 0.472957
vt 0.649213 0.472957
vt 0.649213 0.479891
vt 0.641645 0.479891
vt 0.266699 0.650991
vt 0.286305 0.650991
vt 0.286305 0.668955
vt 0.266699 0.668955
vt 0.286305 0.605389
vt 0.266699 0.605389
vt 0.649213 0.455356
vt 0.641645 0.455356
vt 0.407620 0.605120
vt 0.310526 0.605120
vt 0.583895 0.457809
vt 0.582161 0.455166
vt 0.585028 0.455356
vt 0.580929 0.452254
vt 0.443610 0.597352
vt 0.440420 0.604897
vt 0.432991 0.605389
vt 0.435926 0.611746
vt 0.597348 0.476133
vt 0.596349 0.473169
vt 0.600024 0.472957
vt 0.594710 0.470503
vt 0.407906 0.644634
vt 0.403661 0.651540
vt 0.394139 0.650991
vt 0.401070 0.659221
vt 0.408139 0.611334
vt 0.310057 0.611334
vt 0.310057 0.604506
vt 0.408139 0.604506
vt 0.310057 0.596984
vt 0.408139 0.596984
vt 0.408139 0.658664
vt 0.310057 0.658664
vt 0.310057 0.651007
vt 0.408139 0.651007
vt 0.310057 0.644123
vt 0.408139 0.644123
vt 0.579571 0.434541
vt 0.583339 0.348712
vt 0.600024 0.479891
vt 0.408139 0.668370
vt 0.310057 0.668370
vt 0.399391 0.668955
vt 0.394139 0.668955
vt 0.437367 0.329091
vt 0.447130 0.551461
vt 0.576919 0.436293
vt 0.420124 0.468750
vt 0.420124 0.546875
vt 0.597997 0.479891
vt 0.456561 0.542030
vt 0.455811 0.551461
vt 0.454000 0.551461
vt 0.576220 0.434541
vt 0.575930 0.430901
vt 0.310057 0.541829
vt 0.408139 0.541829
vt 0.408139 0.551232
vt 0.310057 0.551232
vt 0.408139 0.560281
vt 0.310057 0.560281
vt 0.456561 0.343155
vt 0.454000 0.560538
vt 0.575930 0.354140
vt 0.093750 0.343750
vt 0.116403 0.343750
vt 0.116403 0.359375
vt 0.093750 0.359375
vt 0.174297 0.375000
vt 0.156250 0.375000
vt 0.156250 0.359375
vt 0.174297 0.359375
vt 0.078125 0.341448
vt 0.078125 0.323401
vt 0.083685 0.321098
vt 0.083685 0.343750
vt 0.125000 0.375000
vt 0.147653 0.375000
vt 0.147653 0.390625
vt 0.125000 0.390625
vt 0.189922 0.406250
vt 0.171875 0.406250
vt 0.171875 0.390625
vt 0.189922 0.390625
vt 0.078125 0.341447
vt 0.078125 0.323400
vt 0.083684 0.321097
vt 0.083684 0.343750
vt 0.187500 0.375000
vt 0.210153 0.375000
vt 0.210153 0.390625
vt 0.187500 0.390625
vt 0.143047 0.390625
vt 0.143047 0.375000
vt 0.207849 0.359375
vt 0.189802 0.359375
vt 0.187500 0.353815
vt 0.210152 0.353815
vt 0.140625 0.390625
vt 0.163278 0.390625
vt 0.163278 0.406250
vt 0.140625 0.406250
vt 0.111797 0.375000
vt 0.093750 0.375000
vt 0.111797 0.359375
vt 0.207850 0.406250
vt 0.189803 0.406250
vt 0.187500 0.400691
vt 0.210153 0.400691
vt 0.109375 0.359375
vt 0.132028 0.359375
vt 0.132028 0.375000
vt 0.109375 0.375000
vt 0.096172 0.390625
vt 0.078125 0.390625
vt 0.078125 0.375000
vt 0.096172 0.375000
vt 0.161810 0.385901
vt 0.161810 0.403948
vt 0.156250 0.406250
vt 0.156250 0.383598
vt 0.140625 0.359375
vt 0.163278 0.359375
vt 0.163278 0.375000
vt 0.140625 0.375000
vt 0.127422 0.375000
vt 0.127422 0.359375
vt 0.161809 0.354650
vt 0.161809 0.372697
vt 0.156250 0.352347
vt 0.116403 0.375000
vt 0.080547 0.390625
vt 0.062500 0.390625
vt 0.062500 0.375000
vt 0.080547 0.375000
vt 0.158552 0.369440
vt 0.176599 0.369440
vt 0.178902 0.375000
vt 0.093750 0.328125
vt 0.116403 0.328125
vt 0.111797 0.406250
vt 0.093750 0.406250
vt 0.093750 0.390625
vt 0.111797 0.390625
vt 0.096053 0.369441
vt 0.114100 0.369441
vt 0.140625 0.398438
vt 0.093750 0.398438
vt 0.171875 0.382812
vt 0.125000 0.382812
vt 0.156250 0.343750
vt 0.148438 0.343750
vt 0.148438 0.390625
vt 0.156250 0.390625
vt 0.109375 0.328125
vt 0.101562 0.328125
vt 0.101562 0.375000
vt 0.195312 0.390625
vt 0.195312 0.382812
vt 0.187500 0.382812
vt 0.093750 0.367188
vt 0.156250 0.367188
vt 0.062500 0.382812
vt 0.046875 0.343750
vt 0.062500 0.343750
vt 0.062500 0.406250
vt 0.046875 0.406250
vt 0.062500 0.312500
vt 0.078125 0.312500
vt 0.156250 0.382812
vt 0.050781 0.406250
vt 0.125000 0.406250
vt 0.125000 0.398438
vt 0.050781 0.398438
vt 0.167969 0.390625
vt 0.167969 0.382812
vt 0.093750 0.382812
vt 0.078125 0.343750
vt 0.066406 0.343750
vt 0.066406 0.417969
vt 0.078125 0.417969
vt 0.062500 0.347656
vt 0.050781 0.347656
vt 0.050781 0.421875
vt 0.062500 0.421875
vt 0.109375 0.390625
vt 0.121094 0.390625
vt 0.121094 0.382812
vt 0.109375 0.382812
vt 0.144531 0.375000
vt 0.218750 0.375000
vt 0.218750 0.367188
vt 0.144531 0.367188
vt 0.199219 0.390625
vt 0.199219 0.382812
vt 0.103624 0.343750
vt 0.097656 0.343750
vt 0.097656 0.417969
vt 0.103624 0.417969
vt 0.119249 0.332031
vt 0.113281 0.332031
vt 0.113281 0.406250
vt 0.119249 0.406250
vt 0.078125 0.406250
vt 0.084093 0.406250
vt 0.084093 0.398438
vt 0.078125 0.398438
vt 0.074219 0.406250
vt 0.074219 0.398438
vt 0.113281 0.398438
vt 0.046875 0.398438
vt 0.050781 0.343750
vt 0.050781 0.410156
vt 0.062500 0.410156
vt 0.062500 0.355469
vt 0.050781 0.355469
vt 0.089844 0.406250
vt 0.089844 0.398438
vt 0.046875 0.375000
vt 0.046875 0.367188
vt 0.125000 0.367188
vt 0.109375 0.406250
vt 0.031250 0.406250
vt 0.031250 0.398438
vt 0.109375 0.398438
vt 0.031250 0.328125
vt 0.062500 0.328125
vt 0.031250 0.343750
vt 0.031250 0.421875
vt 0.390625 0.890625
vt 0.281250 0.890625
vt 0.281250 0.953125
vt 0.390625 0.953125
vt 0.375000 0.890625
vt 0.375000 0.953125
vt 0.296875 0.890625
vt 0.296875 0.953125
vt 0.390625 0.937500
vt 0.281250 0.937500
vt 0.390625 0.906250
vt 0.281250 0.906250
vt 0.890625 0.171875
vt 0.875000 0.171875
vt 0.875000 0.187500
vt 0.890625 0.187500
vt 0.875000 0.218750
vt 0.859375 0.218750
vt 0.859375 0.234375
vt 0.875000 0.234375
vt 0.796875 0.109375
vt 0.781250 0.109375
vt 0.781250 0.125000
vt 0.796875 0.125000
vt 0.843750 0.250000
vt 0.828125 0.250000
vt 0.828125 0.265625
vt 0.843750 0.265625
vt 0.859375 0.140625
vt 0.843750 0.140625
vt 0.843750 0.125000
vt 0.859375 0.125000
vt 0.828125 0.218750
vt 0.812500 0.218750
vt 0.812500 0.234375
vt 0.828125 0.234375
vt 0.890625 0.125000
vt 0.875000 0.125000
vt 0.875000 0.140625
vt 0.890625 0.140625
vt 0.890625 0.250000
vt 0.875000 0.250000
vt 0.875000 0.265625
vt 0.890625 0.265625
vt 0.921875 0.250000
vt 0.906250 0.250000
vt 0.906250 0.265625
vt 0.921875 0.265625
vt 0.828125 0.171875
vt 0.812500 0.171875
vt 0.812500 0.156250
vt 0.828125 0.156250
vt 0.406250 0.484375
vt 0.375000 0.484375
vt 0.375000 0.500000
vt 0.406250 0.500000
vt 0.359375 0.515625
vt 0.343750 0.515625
vt 0.343750 0.531250
vt 0.359375 0.531250
vt 0.312500 0.437500
vt 0.281250 0.437500
vt 0.281250 0.453125
vt 0.312500 0.453125
vt 0.453125 0.546875
vt 0.437500 0.546875
vt 0.437500 0.562500
vt 0.453125 0.562500
vt 0.359375 0.437500
vt 0.328125 0.437500
vt 0.328125 0.453125
vt 0.359375 0.453125
vt 0.406250 0.453125
vt 0.375000 0.453125
vt 0.375000 0.437500
vt 0.406250 0.437500
vt 0.062500 0.367188
vt 0.066406 0.398438
vt 0.066406 0.406250
vt 0.062500 0.414062
vt 0.078125 0.414062
vt 0.078125 0.421875
vt 0.082031 0.367188
vt 0.087999 0.367188
vt 0.087999 0.375000
vt 0.082031 0.375000
vt 0.179688 0.375000
vt 0.179688 0.367188
vt 0.187500 0.367188
vt 0.140625 0.400690
vt 0.163277 0.400690
vt 0.160974 0.406250
vt 0.142927 0.406250
vt 0.099309 0.352347
vt 0.099309 0.375000
vt 0.093750 0.372697
vt 0.093750 0.354650
vt 0.161810 0.352348
vt 0.161810 0.375000
vt 0.156250 0.372698
vt 0.156250 0.354651
vt 0.194528 0.390625
vt 0.174178 0.385066
vt 0.192225 0.385066
vt 0.147652 0.312500
vt 0.125000 0.312500
vt 0.127302 0.306940
vt 0.145349 0.306940
vt 0.218750 0.406250
vt 0.218750 0.383597
vt 0.224309 0.385900
vt 0.224309 0.403947
vt 0.078125 0.367973
vt 0.083685 0.370276
vt 0.083685 0.388323
vt 0.078125 0.369441
vt 0.100778 0.369441
vt 0.098475 0.375000
vt 0.080428 0.375000
vt 0.375000 0.609375
vt 0.359375 0.609375
vt 0.359375 0.625000
vt 0.375000 0.625000
vt 0.859375 0.265625
vt 0.843750 0.281250
vt 0.859375 0.281250
vt 0.937500 0.234375
vt 0.921875 0.234375
vt 0.937500 0.250000
vt 0.953125 0.218750
vt 0.937500 0.218750
vt 0.953125 0.234375
vt 0.953125 0.296875
vt 0.937500 0.296875
vt 0.937500 0.281250
vt 0.953125 0.281250
vt 0.734375 0.375000
vt 0.703125 0.375000
vt 0.703125 0.468750
vt 0.734375 0.468750
vt 0.687500 0.375000
vt 0.531250 0.375000
vt 0.531250 0.468750
vt 0.687500 0.468750
vt 0.500000 0.375000
vt 0.500000 0.468750
vt 0.703125 0.343750
vt 0.546875 0.343750
vt 0.546875 0.375000
vt 0.750000 0.484375
vt 0.593750 0.484375
vt 0.593750 0.453125
vt 0.750000 0.453125
vt 0.718750 0.359375
vt 0.687500 0.359375
vt 0.687500 0.453125
vt 0.718750 0.453125
vt 0.656250 0.359375
vt 0.546875 0.359375
vt 0.546875 0.453125
vt 0.656250 0.453125
vt 0.562500 0.359375
vt 0.531250 0.359375
vt 0.531250 0.453125
vt 0.562500 0.453125
vt 0.671875 0.437500
vt 0.562500 0.437500
vt 0.562500 0.468750
vt 0.671875 0.468750
vt 0.734375 0.484375
vt 0.625000 0.484375
vt 0.625000 0.453125
vt 0.734375 0.453125
vt 0.953125 0.187500
vt 0.937500 0.187500
vt 0.937500 0.203125
vt 0.953125 0.203125
vt 0.859375 0.171875
vt 0.843750 0.171875
vt 0.843750 0.156250
vt 0.859375 0.156250
vt 0.953125 0.125000
vt 0.937500 0.125000
vt 0.937500 0.140625
vt 0.953125 0.140625
vt 0.859375 0.250000
vt 0.937500 0.265625
vt 0.953125 0.265625
vt 0.515625 0.375000
vt 0.515625 0.468750
vt 0.546875 0.468750
vt 0.734375 0.359375
vt 0.703125 0.359375
vt 0.703125 0.453125
vt 0.531250 0.406250
vt 0.687500 0.406250
vt 0.671875 0.453125
vt 0.515625 0.453125
vt 0.515625 0.421875
vt 0.671875 0.421875
s 1
usemtl texture-signal
f 4/1/1 2/4/1 5/3/1 7/2/1
f 3/5/2 1/8/2 2/7/2 4/6/2
f 8/5/3 6/8/3 1/7/3 3/6/3
f 7/5/4 5/8/4 6/7/4 8/6/4
f 6/1/5 5/8/5 2/7/5 1/2/5
f 7/8/6 8/1/6 3/2/6 4/7/6
f 11/9/2 9/12/2 10/11/2 12/10/2
f 19/13/3 20/16/3 9/15/3 11/14/3
f 17/17/7 19/18/7 11/9/8 12/10/8
f 13/19/9 14/22/9 16/21/10 15/20/10
f 12/23/1 10/26/1 18/25/1 17/24/1
f 15/27/10 16/30/10 19/29/7 17/28/7
f 33/31/2 21/34/2 22/33/2 31/32/2
f 25/35/5 23/38/5 22/37/5 21/36/5
f 52/39/5 51/40/5 23/38/5 25/35/5
f 32/41/3 25/44/3 21/43/3 33/42/3
f 31/45/1 22/48/1 23/47/1 34/46/1
f 10/26/1 27/50/1 30/49/1 18/25/1
f 20/16/3 29/52/3 28/51/3 9/15/3
f 9/12/2 28/54/2 27/53/2 10/11/2
f 27/50/1 31/45/1 34/46/1 30/49/1
f 29/52/3 32/41/3 33/42/3 28/51/3
f 28/54/2 33/31/2 31/32/2 27/53/2
f 35/55/3 37/57/3 38/56/3
f 38/56/3 37/57/3 36/58/3
f 39/59/1 41/61/1 42/60/1
f 42/60/1 41/61/1 40/62/1
f 43/63/3 45/65/3 46/64/3
f 46/64/3 45/65/3 44/66/3
f 47/67/1 49/69/1 50/68/1
f 50/68/1 49/69/1 48/70/1
f 35/71/11 38/74/12 42/73/12 40/72/11
f 38/74/12 36/76/13 39/75/13 42/73/12
f 43/77/14 46/80/15 50/79/15 48/78/14
f 46/80/15 44/82/16 47/81/16 50/79/15
f 40/72/11 47/81/16 44/82/16 35/71/11
f 20/16/3 19/13/3 16/84/3 59/83/3
f 37/57/3 45/65/3 32/41/3 29/52/3
f 41/61/1 49/69/1 47/67/1 40/62/1
f 45/65/3 52/85/3 25/44/3 32/41/3
f 48/78/14 24/87/17 26/86/17 43/77/14
f 49/69/1 51/89/1 24/88/1 48/70/1
f 30/49/1 34/46/1 49/69/1 41/61/1
f 15/90/1 17/24/1 18/25/1 55/91/1
f 57/92/3 36/58/3 37/57/3 59/83/3
f 35/55/3 44/66/3 45/65/3 37/57/3
f 26/93/5 24/94/5 51/40/5 52/39/5
f 43/63/3 26/95/3 52/85/3 45/65/3
f 34/46/1 23/47/1 51/89/1 49/69/1
f 53/96/1 55/91/1 56/97/1
f 56/97/1 55/91/1 54/98/1
f 57/92/3 59/83/3 60/99/3
f 60/99/3 59/83/3 58/100/3
f 53/101/18 56/104/19 60/103/19 58/102/18
f 56/104/19 54/106/20 57/105/20 60/103/19
f 15/90/1 55/91/1 53/96/1 13/107/1
f 55/91/1 41/61/1 39/59/1 54/108/1
f 13/19/4 53/101/18 58/102/18 14/22/4
f 54/106/20 39/75/13 36/76/13 57/105/20
f 59/83/3 37/57/3 29/52/3 20/16/3
f 14/109/3 58/100/3 59/83/3 16/84/3
f 18/25/1 30/49/1 41/61/1 55/91/1
f 61/110/21 62/113/21 66/112/21 65/111/21
f 64/114/22 63/117/22 67/116/22 68/115/22
f 63/118/1 61/121/1 65/120/1 67/119/1
f 65/122/2 66/125/2 70/124/2 69/123/2
f 68/126/4 67/129/4 71/128/4 72/127/4
f 67/130/1 65/133/1 69/132/1 71/131/1
f 69/134/23 70/137/23 74/136/23 73/135/23
f 72/138/24 71/139/24 75/122/24 76/125/24
f 71/140/1 69/143/1 73/142/1 75/141/1
f 73/144/5 74/147/5 78/146/5 77/145/5
f 76/148/6 75/150/6 79/113/6 80/149/6
f 75/151/1 73/154/1 77/153/1 79/152/1
f 77/155/22 78/158/22 82/157/22 81/156/22
f 80/159/21 79/162/21 83/161/21 84/160/21
f 79/163/1 77/166/1 81/165/1 83/164/1
f 81/167/4 82/170/4 86/169/4 85/168/4
f 84/171/2 83/172/2 87/155/2 88/158/2
f 83/173/1 81/175/1 85/115/1 87/174/1
f 85/113/24 86/149/24 90/176/24 89/112/24
f 88/177/23 87/180/23 91/179/23 92/178/23
f 87/181/1 85/115/1 89/183/1 91/182/1
f 89/184/6 90/110/6 62/111/6 61/185/6
f 92/186/5 91/189/5 63/188/5 64/187/5
f 91/190/1 89/149/1 61/176/1 63/191/1
f 93/187/6 95/193/6 96/192/6 94/147/6
f 98/125/5 100/195/5 99/194/5 97/128/5
f 98/196/2 97/199/2 93/198/2 94/197/2
f 99/200/4 100/158/4 96/202/4 95/201/4
f 97/137/1 99/205/1 95/204/1 93/203/1
f 101/115/5 103/207/5 104/206/5 102/149/5
f 106/125/6 108/195/6 107/208/6 105/178/6
f 106/209/4 105/212/4 101/211/4 102/210/4
f 107/213/2 108/179/2 104/161/2 103/214/2
f 105/128/1 107/194/1 103/215/1 101/199/1
f 109/216/25 111/219/25 112/218/25 110/217/25
f 114/188/26 116/222/26 115/221/26 113/220/26
f 114/223/27 113/226/27 109/225/27 110/224/27
f 115/227/28 116/230/28 112/229/28 111/228/28
f 113/231/1 115/234/1 111/233/1 109/232/1
f 117/235/23 119/238/23 120/237/23 118/236/23
f 122/125/24 124/195/24 123/240/24 121/239/24
f 122/241/22 121/244/22 117/243/22 118/242/22
f 123/245/21 124/248/21 120/247/21 119/246/21
f 121/249/1 123/252/1 119/251/1 117/250/1
f 125/253/29 127/254/29 128/192/29 126/147/29
f 130/212/30 132/256/30 131/255/30 129/247/30
f 130/210/31 129/259/31 125/258/31 126/257/31
f 131/260/32 132/230/32 128/229/32 127/261/32
f 129/249/1 131/252/1 127/263/1 125/262/1
f 133/122/2 135/266/2 136/265/2 134/264/2
f 138/267/4 140/270/4 139/269/4 137/268/4
f 138/271/5 137/268/5 133/211/5 134/272/5
f 139/273/6 140/274/6 136/230/6 135/210/6
f 137/125/1 139/195/1 135/222/1 133/188/1
f 141/247/28 143/255/28 144/256/28 142/212/28
f 146/147/27 148/192/27 147/254/27 145/253/27
f 146/257/25 145/258/25 141/259/25 142/210/25
f 147/261/26 148/229/26 144/230/26 143/260/26
f 145/262/1 147/263/1 143/252/1 141/249/1
f 149/239/21 151/240/21 152/195/21 150/125/21
f 154/236/22 156/237/22 155/238/22 153/235/22
f 154/242/23 153/243/23 149/244/23 150/241/23
f 155/246/24 156/247/24 152/248/24 151/245/24
f 153/250/1 155/251/1 151/252/1 149/249/1
f 157/220/32 159/221/32 160/222/32 158/188/32
f 162/217/31 164/218/31 163/219/31 161/216/31
f 162/224/29 161/225/29 157/226/29 158/223/29
f 163/228/30 164/229/30 160/230/30 159/227/30
f 161/232/1 163/233/1 159/234/1 157/231/1
f 165/115/5 167/207/5 168/206/5 166/149/5
f 170/125/6 172/195/6 171/208/6 169/178/6
f 170/209/4 169/212/4 165/211/4 166/210/4
f 171/213/2 172/179/2 168/161/2 167/214/2
f 169/128/1 171/194/1 167/215/1 165/199/1
f 173/128/5 175/194/5 176/195/5 174/125/5
f 178/147/6 180/192/6 179/193/6 177/187/6
f 178/197/4 177/198/4 173/199/4 174/196/4
f 179/201/2 180/202/2 176/158/2 175/200/2
f 177/203/1 179/204/1 175/205/1 173/137/1
f 181/110/21 182/113/21 186/112/21 185/111/21
f 184/114/22 183/117/22 187/116/22 188/115/22
f 183/118/1 181/121/1 185/120/1 187/119/1
f 185/122/2 186/125/2 190/124/2 189/123/2
f 188/126/4 187/129/4 191/128/4 192/127/4
f 187/130/1 185/133/1 189/132/1 191/131/1
f 189/134/23 190/137/23 194/136/23 193/135/23
f 192/138/24 191/139/24 195/122/24 196/125/24
f 191/140/1 189/143/1 193/142/1 195/141/1
f 193/144/5 194/147/5 198/146/5 197/145/5
f 196/148/6 195/150/6 199/113/6 200/149/6
f 195/151/1 193/154/1 197/153/1 199/152/1
f 197/155/22 198/158/22 202/157/22 201/156/22
f 200/159/21 199/162/21 203/161/21 204/160/21
f 199/163/1 197/166/1 201/165/1 203/164/1
f 201/167/4 202/170/4 206/169/4 205/168/4
f 204/171/2 203/172/2 207/155/2 208/158/2
f 203/173/1 201/175/1 205/115/1 207/174/1
f 205/113/24 206/149/24 210/176/24 209/112/24
f 208/177/23 207/180/23 211/179/23 212/178/23
f 207/181/1 205/115/1 209/183/1 211/182/1
f 209/184/6 210/110/6 182/111/6 181/185/6
f 212/186/5 211/189/5 183/188/5 184/187/5
f 211/190/1 209/149/1 181/176/1 183/191/1
f 213/187/6 215/193/6 216/192/6 214/147/6
f 218/125/5 220/195/5 219/194/5 217/128/5
f 218/196/2 217/199/2 213/198/2 214/197/2
f 219/200/4 220/158/4 216/202/4 215/201/4
f 217/137/1 219/205/1 215/204/1 213/203/1
f 221/115/5 223/207/5 224/206/5 222/149/5
f 226/125/6 228/195/6 227/208/6 225/178/6
f 226/209/4 225/212/4 221/211/4 222/210/4
f 227/213/2 228/179/2 224/161/2 223/214/2
f 225/128/1 227/194/1 223/215/1 221/199/1
f 229/216/25 231/219/25 232/218/25 230/217/25
f 234/188/26 236/222/26 235/221/26 233/220/26
f 234/223/27 233/226/27 229/225/27 230/224/27
f 235/227/28 236/230/28 232/229/28 231/228/28
f 233/231/1 235/234/1 231/233/1 229/232/1
f 237/235/23 239/238/23 240/237/23 238/236/23
f 242/125/24 244/195/24 243/240/24 241/239/24
f 242/241/22 241/244/22 237/243/22 238/242/22
f 243/245/21 244/248/21 240/247/21 239/246/21
f 241/249/1 243/252/1 239/251/1 237/250/1
f 245/253/29 247/254/29 248/192/29 246/147/29
f 250/212/30 252/256/30 251/255/30 249/247/30
f 250/210/31 249/259/31 245/258/31 246/257/31
f 251/260/32 252/230/32 248/229/32 247/261/32
f 249/249/1 251/252/1 247/263/1 245/262/1
f 253/122/2 255/266/2 256/265/2 254/264/2
f 258/267/4 260/270/4 259/269/4 257/268/4
f 258/271/5 257/268/5 253/211/5 254/272/5
f 259/273/6 260/274/6 256/230/6 255/210/6
f 257/125/1 259/195/1 255/222/1 253/188/1
f 261/247/28 263/255/28 264/256/28 262/212/28
f 266/147/27 268/192/27 267/254/27 265/253/27
f 266/257/25 265/258/25 261/259/25 262/210/25
f 267/261/26 268/229/26 264/230/26 263/260/26
f 265/262/1 267/263/1 263/252/1 261/249/1
f 269/239/21 271/240/21 272/195/21 270/125/21
f 274/236/22 276/237/22 275/238/22 273/235/22
f 274/242/23 273/243/23 269/244/23 270/241/23
f 275/246/24 276/247/24 272/248/24 271/245/24
f 273/250/1 275/251/1 271/252/1 269/249/1
f 277/220/32 279/221/32 280/222/32 278/188/32
f 282/217/31 284/218/31 283/219/31 281/216/31
f 282/224/29 281/225/29 277/226/29 278/223/29
f 283/228/30 284/229/30 280/230/30 279/227/30
f 281/232/1 283/233/1 279/234/1 277/231/1
f 285/115/5 287/207/5 288/206/5 286/149/5
f 290/125/6 292/195/6 291/208/6 289/178/6
f 290/209/4 289/212/4 285/211/4 286/210/4
f 291/213/2 292/179/2 288/161/2 287/214/2
f 289/128/1 291/194/1 287/215/1 285/199/1
f 293/128/5 295/194/5 296/195/5 294/125/5
f 298/147/6 300/192/6 299/193/6 297/187/6
f 298/197/4 297/198/4 293/199/4 294/196/4
f 299/201/2 300/202/2 296/158/2 295/200/2
f 297/203/1 299/204/1 295/205/1 293/137/1
f 301/110/21 302/113/21 306/112/21 305/111/21
f 304/114/22 303/117/22 307/116/22 308/115/22
f 303/118/1 301/121/1 305/120/1 307/119/1
f 305/122/2 306/125/2 310/124/2 309/123/2
f 308/126/4 307/129/4 311/128/4 312/127/4
f 307/130/1 305/133/1 309/132/1 311/131/1
f 309/134/23 310/137/23 314/136/23 313/135/23
f 312/138/24 311/139/24 315/122/24 316/125/24
f 311/140/1 309/143/1 313/142/1 315/141/1
f 313/144/5 314/147/5 318/146/5 317/145/5
f 316/148/6 315/150/6 319/113/6 320/149/6
f 315/151/1 313/154/1 317/153/1 319/152/1
f 317/155/22 318/158/22 322/157/22 321/156/22
f 320/159/21 319/162/21 323/161/21 324/160/21
f 319/163/1 317/166/1 321/165/1 323/164/1
f 321/167/4 322/170/4 326/169/4 325/168/4
f 324/171/2 323/172/2 327/155/2 328/158/2
f 323/173/1 321/175/1 325/115/1 327/174/1
f 325/113/24 326/149/24 330/176/24 329/112/24
f 328/177/23 327/180/23 331/179/23 332/178/23
f 327/181/1 325/115/1 329/183/1 331/182/1
f 329/184/6 330/110/6 302/111/6 301/185/6
f 332/186/5 331/189/5 303/188/5 304/187/5
f 331/190/1 329/149/1 301/176/1 303/191/1
f 333/187/6 335/193/6 336/192/6 334/147/6
f 338/125/5 340/195/5 339/194/5 337/128/5
f 338/196/2 337/199/2 333/198/2 334/197/2
f 339/200/4 340/158/4 336/202/4 335/201/4
f 337/137/1 339/205/1 335/204/1 333/203/1
f 341/115/5 343/207/5 344/206/5 342/149/5
f 346/125/6 348/195/6 347/208/6 345/178/6
f 346/209/4 345/212/4 341/211/4 342/210/4
f 347/213/2 348/179/2 344/161/2 343/214/2
f 345/128/1 347/194/1 343/215/1 341/199/1
f 349/216/25 351/219/25 352/218/25 350/217/25
f 354/188/26 356/222/26 355/221/26 353/220/26
f 354/223/27 353/226/27 349/225/27 350/224/27
f 355/227/28 356/230/28 352/229/28 351/228/28
f 353/231/1 355/234/1 351/233/1 349/232/1
f 357/235/23 359/238/23 360/237/23 358/236/23
f 362/125/24 364/195/24 363/240/24 361/239/24
f 362/241/22 361/244/22 357/243/22 358/242/22
f 363/245/21 364/248/21 360/247/21 359/246/21
f 361/249/1 363/252/1 359/251/1 357/250/1
f 365/253/29 367/254/29 368/192/29 366/147/29
f 370/212/30 372/256/30 371/255/30 369/247/30
f 370/210/31 369/259/31 365/258/31 366/257/31
f 371/260/32 372/230/32 368/229/32 367/261/32
f 369/249/1 371/252/1 367/263/1 365/262/1
f 373/122/2 375/266/2 376/265/2 374/264/2
f 378/267/4 380/270/4 379/269/4 377/268/4
f 378/271/5 377/268/5 373/211/5 374/272/5
f 379/273/6 380/274/6 376/230/6 375/210/6
f 377/125/1 379/195/1 375/222/1 373/188/1
f 381/247/28 383/255/28 384/256/28 382/212/28
f 386/147/27 388/192/27 387/254/27 385/253/27
f 386/257/25 385/258/25 381/259/25 382/210/25
f 387/261/26 388/229/26 384/230/26 383/260/26
f 385/262/1 387/263/1 383/252/1 381/249/1
f 389/239/21 391/240/21 392/195/21 390/125/21
f 394/236/22 396/237/22 395/238/22 393/235/22
f 394/242/23 393/243/23 389/244/23 390/241/23
f 395/246/24 396/247/24 392/248/24 391/245/24
f 393/250/1 395/251/1 391/252/1 389/249/1
f 397/220/32 399/221/32 400/222/32 398/188/32
f 402/217/31 404/218/31 403/219/31 401/216/31
f 402/224/29 401/225/29 397/226/29 398/223/29
f 403/228/30 404/229/30 400/230/30 399/227/30
f 401/232/1 403/233/1 399/234/1 397/231/1
f 405/115/5 407/207/5 408/206/5 406/149/5
f 410/125/6 412/195/6 411/208/6 409/178/6
f 410/209/4 409/212/4 405/211/4 406/210/4
f 411/213/2 412/179/2 408/161/2 407/214/2
f 409/128/1 411/194/1 407/215/1 405/199/1
f 413/128/5 415/194/5 416/195/5 414/125/5
f 418/147/6 420/192/6 419/193/6 417/187/6
f 418/197/4 417/198/4 413/199/4 414/196/4
f 419/201/2 420/202/2 416/158/2 415/200/2
f 417/203/1 419/204/1 415/205/1 413/137/1
f 421/110/24 425/111/24 426/112/24 422/113/24
f 424/114/23 428/115/23 427/116/23 423/117/23
f 423/118/1 427/119/1 425/120/1 421/121/1
f 425/122/4 429/123/4 430/124/4 426/125/4
f 428/126/2 432/127/2 431/128/2 427/129/2
f 427/130/1 431/131/1 429/132/1 425/133/1
f 429/134/22 433/135/22 434/136/22 430/137/22
f 432/138/21 436/125/21 435/122/21 431/139/21
f 431/140/1 435/141/1 433/142/1 429/143/1
f 433/144/5 437/145/5 438/146/5 434/147/5
f 436/148/6 440/149/6 439/113/6 435/150/6
f 435/151/1 439/152/1 437/153/1 433/154/1
f 437/155/23 441/156/23 442/157/23 438/158/23
f 440/159/24 444/160/24 443/161/24 439/162/24
f 439/163/1 443/164/1 441/165/1 437/166/1
f 441/167/2 445/168/2 446/169/2 442/170/2
f 444/171/4 448/158/4 447/155/4 443/172/4
f 443/173/1 447/174/1 445/115/1 441/175/1
f 445/113/21 449/112/21 450/176/21 446/149/21
f 448/177/22 452/178/22 451/179/22 447/180/22
f 447/181/1 451/182/1 449/183/1 445/115/1
f 449/184/6 421/185/6 422/111/6 450/110/6
f 452/186/5 424/187/5 423/188/5 451/189/5
f 451/190/1 423/191/1 421/176/1 449/149/1
f 453/187/6 454/147/6 456/192/6 455/193/6
f 458/125/5 457/128/5 459/194/5 460/195/5
f 458/196/4 454/197/4 453/198/4 457/199/4
f 459/200/2 455/201/2 456/202/2 460/158/2
f 457/137/1 453/203/1 455/204/1 459/205/1
f 461/115/5 462/149/5 464/206/5 463/207/5
f 466/125/6 465/178/6 467/208/6 468/195/6
f 466/209/2 462/210/2 461/211/2 465/212/2
f 467/213/4 463/214/4 464/161/4 468/179/4
f 465/128/1 461/199/1 463/215/1 467/194/1
f 469/216/31 470/217/31 472/218/31 471/219/31
f 474/188/32 473/220/32 475/221/32 476/222/32
f 474/223/29 470/224/29 469/225/29 473/226/29
f 475/227/30 471/228/30 472/229/30 476/230/30
f 473/231/1 469/232/1 471/233/1 475/234/1
f 477/235/22 478/236/22 480/237/22 479/238/22
f 482/125/21 481/239/21 483/240/21 484/195/21
f 482/241/23 478/242/23 477/243/23 481/244/23
f 483/245/24 479/246/24 480/247/24 484/248/24
f 481/249/1 477/250/1 479/251/1 483/252/1
f 485/253/27 486/147/27 488/192/27 487/254/27
f 490/212/28 489/247/28 491/255/28 492/256/28
f 490/210/25 486/257/25 485/258/25 489/259/25
f 491/260/26 487/261/26 488/229/26 492/230/26
f 489/249/1 485/262/1 487/263/1 491/252/1
f 493/122/4 494/264/4 496/265/4 495/266/4
f 498/267/2 497/268/2 499/269/2 500/270/2
f 498/271/5 494/272/5 493/211/5 497/268/5
f 499/273/6 495/210/6 496/230/6 500/274/6
f 497/125/1 493/188/1 495/222/1 499/195/1
f 501/247/30 502/212/30 504/256/30 503/255/30
f 506/147/29 505/253/29 507/254/29 508/192/29
f 506/257/31 502/210/31 501/259/31 505/258/31
f 507/261/32 503/260/32 504/230/32 508/229/32
f 505/262/1 501/249/1 503/252/1 507/263/1
f 509/239/24 510/125/24 512/195/24 511/240/24
f 514/236/23 513/235/23 515/238/23 516/237/23
f 514/242/22 510/241/22 509/244/22 513/243/22
f 515/246/21 511/245/21 512/248/21 516/247/21
f 513/250/1 509/249/1 511/252/1 515/251/1
f 517/220/26 518/188/26 520/222/26 519/221/26
f 522/217/25 521/216/25 523/219/25 524/218/25
f 522/224/27 518/223/27 517/226/27 521/225/27
f 523/228/28 519/227/28 520/230/28 524/229/28
f 521/232/1 517/231/1 519/234/1 523/233/1
f 525/115/5 526/149/5 528/206/5 527/207/5
f 530/125/6 529/178/6 531/208/6 532/195/6
f 530/209/2 526/210/2 525/211/2 529/212/2
f 531/213/4 527/214/4 528/161/4 532/179/4
f 529/128/1 525/199/1 527/215/1 531/194/1
f 533/128/5 534/125/5 536/195/5 535/194/5
f 538/147/6 537/187/6 539/193/6 540/192/6
f 538/197/2 534/196/2 533/199/2 537/198/2
f 539/201/4 535/200/4 536/158/4 540/202/4
f 537/203/1 533/137/1 535/205/1 539/204/1
f 541/110/21 542/113/21 546/112/21 545/111/21
f 544/114/22 543/117/22 547/116/22 548/115/22
f 543/118/1 541/121/1 545/120/1 547/119/1
f 545/122/2 546/125/2 550/124/2 549/123/2
f 548/126/4 547/129/4 551/128/4 552/127/4
f 547/130/1 545/133/1 549/132/1 551/131/1
f 549/134/23 550/137/23 554/136/23 553/135/23
f 552/138/24 551/139/24 555/122/24 556/125/24
f 551/140/1 549/143/1 553/142/1 555/141/1
f 553/144/5 554/147/5 558/146/5 557/145/5
f 556/148/6 555/150/6 559/113/6 560/149/6
f 555/151/1 553/154/1 557/153/1 559/152/1
f 557/155/22 558/158/22 562/157/22 561/156/22
f 560/159/21 559/162/21 563/161/21 564/160/21
f 559/163/1 557/166/1 561/165/1 563/164/1
f 561/167/4 562/170/4 566/169/4 565/168/4
f 564/171/2 563/172/2 567/155/2 568/158/2
f 563/173/1 561/175/1 565/115/1 567/174/1
f 565/113/24 566/149/24 570/176/24 569/112/24
f 568/177/23 567/180/23 571/179/23 572/178/23
f 567/181/1 565/115/1 569/183/1 571/182/1
f 569/184/6 570/110/6 542/111/6 541/185/6
f 572/186/5 571/189/5 543/188/5 544/187/5
f 571/190/1 569/149/1 541/176/1 543/191/1
f 573/187/6 575/193/6 576/192/6 574/147/6
f 578/125/5 580/195/5 579/194/5 577/128/5
f 578/196/2 577/199/2 573/198/2 574/197/2
f 579/200/4 580/158/4 576/202/4 575/201/4
f 577/137/1 579/205/1 575/204/1 573/203/1
f 581/115/5 583/207/5 584/206/5 582/149/5
f 586/125/6 588/195/6 587/208/6 585/178/6
f 586/209/4 585/212/4 581/211/4 582/210/4
f 587/213/2 588/179/2 584/161/2 583/214/2
f 585/128/1 587/194/1 583/215/1 581/199/1
f 589/216/25 591/219/25 592/218/25 590/217/25
f 594/188/26 596/222/26 595/221/26 593/220/26
f 594/223/27 593/226/27 589/225/27 590/224/27
f 595/227/28 596/230/28 592/229/28 591/228/28
f 593/231/1 595/234/1 591/233/1 589/232/1
f 597/235/23 599/238/23 600/237/23 598/236/23
f 602/125/24 604/195/24 603/240/24 601/239/24
f 602/241/22 601/244/22 597/243/22 598/242/22
f 603/245/21 604/248/21 600/247/21 599/246/21
f 601/249/1 603/252/1 599/251/1 597/250/1
f 605/253/29 607/254/29 608/192/29 606/147/29
f 610/212/30 612/256/30 611/255/30 609/247/30
f 610/210/31 609/259/31 605/258/31 606/257/31
f 611/260/32 612/230/32 608/229/32 607/261/32
f 609/249/1 611/252/1 607/263/1 605/262/1
f 613/122/2 615/266/2 616/265/2 614/264/2
f 618/267/4 620/270/4 619/269/4 617/268/4
f 618/271/5 617/268/5 613/211/5 614/272/5
f 619/273/6 620/274/6 616/230/6 615/210/6
f 617/125/1 619/195/1 615/222/1 613/188/1
f 621/247/28 623/255/28 624/256/28 622/212/28
f 626/147/27 628/192/27 627/254/27 625/253/27
f 626/257/25 625/258/25 621/259/25 622/210/25
f 627/261/26 628/229/26 624/230/26 623/260/26
f 625/262/1 627/263/1 623/252/1 621/249/1
f 629/239/21 631/240/21 632/195/21 630/125/21
f 634/236/22 636/237/22 635/238/22 633/235/22
f 634/242/23 633/243/23 629/244/23 630/241/23
f 635/246/24 636/247/24 632/248/24 631/245/24
f 633/250/1 635/251/1 631/252/1 629/249/1
f 637/220/32 639/221/32 640/222/32 638/188/32
f 642/217/31 644/218/31 643/219/31 641/216/31
f 642/224/29 641/225/29 637/226/29 638/223/29
f 643/228/30 644/229/30 640/230/30 639/227/30
f 641/232/1 643/233/1 639/234/1 637/231/1
f 645/115/5 647/207/5 648/206/5 646/149/5
f 650/125/6 652/195/6 651/208/6 649/178/6
f 650/209/4 649/212/4 645/211/4 646/210/4
f 651/213/2 652/179/2 648/161/2 647/214/2
f 649/128/1 651/194/1 647/215/1 645/199/1
f 653/128/5 655/194/5 656/195/5 654/125/5
f 658/147/6 660/192/6 659/193/6 657/187/6
f 658/197/4 657/198/4 653/199/4 654/196/4
f 659/201/2 660/202/2 656/158/2 655/200/2
f 657/203/1 659/204/1 655/205/1 653/137/1
f 661/110/24 665/111/24 666/112/24 662/113/24
f 664/114/23 668/115/23 667/116/23 663/117/23
f 663/118/1 667/119/1 665/120/1 661/121/1
f 665/122/4 669/123/4 670/124/4 666/125/4
f 668/126/2 672/127/2 671/128/2 667/129/2
f 667/130/1 671/131/1 669/132/1 665/133/1
f 669/134/22 673/135/22 674/136/22 670/137/22
f 672/138/21 676/125/21 675/122/21 671/139/21
f 671/140/1 675/141/1 673/142/1 669/143/1
f 673/144/5 677/145/5 678/146/5 674/147/5
f 676/148/6 680/149/6 679/113/6 675/150/6
f 675/151/1 679/152/1 677/153/1 673/154/1
f 677/155/23 681/156/23 682/157/23 678/158/23
f 680/159/24 684/160/24 683/161/24 679/162/24
f 679/163/1 683/164/1 681/165/1 677/166/1
f 681/167/2 685/168/2 686/169/2 682/170/2
f 684/171/4 688/158/4 687/155/4 683/172/4
f 683/173/1 687/174/1 685/115/1 681/175/1
f 685/113/21 689/112/21 690/176/21 686/149/21
f 688/177/22 692/178/22 691/179/22 687/180/22
f 687/181/1 691/182/1 689/183/1 685/115/1
f 689/184/6 661/185/6 662/111/6 690/110/6
f 692/186/5 664/187/5 663/188/5 691/189/5
f 691/190/1 663/191/1 661/176/1 689/149/1
f 693/187/6 694/147/6 696/192/6 695/193/6
f 698/125/5 697/128/5 699/194/5 700/195/5
f 698/196/4 694/197/4 693/198/4 697/199/4
f 699/200/2 695/201/2 696/202/2 700/158/2
f 697/137/1 693/203/1 695/204/1 699/205/1
f 701/115/5 702/149/5 704/206/5 703/207/5
f 706/125/6 705/178/6 707/208/6 708/195/6
f 706/209/2 702/210/2 701/211/2 705/212/2
f 707/213/4 703/214/4 704/161/4 708/179/4
f 705/128/1 701/199/1 703/215/1 707/194/1
f 709/216/31 710/217/31 712/218/31 711/219/31
f 714/188/32 713/220/32 715/221/32 716/222/32
f 714/223/29 710/224/29 709/225/29 713/226/29
f 715/227/30 711/228/30 712/229/30 716/230/30
f 713/231/1 709/232/1 711/233/1 715/234/1
f 717/235/22 718/236/22 720/237/22 719/238/22
f 722/125/21 721/239/21 723/240/21 724/195/21
f 722/241/23 718/242/23 717/243/23 721/244/23
f 723/245/24 719/246/24 720/247/24 724/248/24
f 721/249/1 717/250/1 719/251/1 723/252/1
f 725/253/27 726/147/27 728/192/27 727/254/27
f 730/212/28 729/247/28 731/255/28 732/256/28
f 730/210/25 726/257/25 725/258/25 729/259/25
f 731/260/26 727/261/26 728/229/26 732/230/26
f 729/249/1 725/262/1 727/263/1 731/252/1
f 733/122/4 734/264/4 736/265/4 735/266/4
f 738/267/2 737/268/2 739/269/2 740/270/2
f 738/271/5 734/272/5 733/211/5 737/268/5
f 739/273/6 735/210/6 736/230/6 740/274/6
f 737/125/1 733/188/1 735/222/1 739/195/1
f 741/247/30 742/212/30 744/256/30 743/255/30
f 746/147/29 745/253/29 747/254/29 748/192/29
f 746/257/31 742/210/31 741/259/31 745/258/31
f 747/261/32 743/260/32 744/230/32 748/229/32
f 745/262/1 741/249/1 743/252/1 747/263/1
f 749/239/24 750/125/24 752/195/24 751/240/24
f 754/236/23 753/235/23 755/238/23 756/237/23
f 754/242/22 750/241/22 749/244/22 753/243/22
f 755/246/21 751/245/21 752/248/21 756/247/21
f 753/250/1 749/249/1 751/252/1 755/251/1
f 757/220/26 758/188/26 760/222/26 759/221/26
f 762/217/25 761/216/25 763/219/25 764/218/25
f 762/224/27 758/223/27 757/226/27 761/225/27
f 763/228/28 759/227/28 760/230/28 764/229/28
f 761/232/1 757/231/1 759/234/1 763/233/1
f 765/115/5 766/149/5 768/206/5 767/207/5
f 770/125/6 769/178/6 771/208/6 772/195/6
f 770/209/2 766/210/2 765/211/2 769/212/2
f 771/213/4 767/214/4 768/161/4 772/179/4
f 769/128/1 765/199/1 767/215/1 771/194/1
f 773/128/5 774/125/5 776/195/5 775/194/5
f 778/147/6 777/187/6 779/193/6 780/192/6
f 778/197/2 774/196/2 773/199/2 777/198/2
f 779/201/4 775/200/4 776/158/4 780/202/4
f 777/203/1 773/137/1 775/205/1 779/204/1
f 784/275/1 782/278/1 785/277/1 787/276/1
f 783/275/2 781/278/2 782/280/2 784/279/2
f 788/275/3 786/278/3 781/277/3 783/276/3
f 787/281/4 785/282/4 786/277/4 788/276/4
f 786/283/5 785/278/5 782/277/5 781/284/5
f 787/285/6 788/275/6 783/276/6 784/286/6
f 792/287/1 790/290/1 793/289/1 795/288/1
f 791/291/2 789/294/2 790/293/2 792/292/2
f 795/295/4 793/298/4 794/297/4 796/296/4
f 794/299/5 793/302/5 790/301/5 789/300/5
f 795/303/6 796/306/6 791/305/6 792/304/6
f 800/307/1 798/310/1 801/309/1 803/308/1
f 799/311/2 797/314/2 798/313/2 800/312/2
f 803/315/4 801/318/4 802/317/4 804/316/4
f 802/319/5 801/322/5 798/321/5 797/320/5
f 803/323/6 804/326/6 799/325/6 800/324/6
f 808/327/1 806/330/1 809/329/1 811/328/1
f 807/331/23 805/334/23 806/333/23 808/332/23
f 812/335/3 810/338/3 805/337/3 807/336/3
f 811/339/24 809/342/24 810/341/24 812/340/24
f 810/343/22 809/346/22 806/345/22 805/344/22
f 811/347/21 812/350/21 807/349/21 808/348/21
f 816/234/1 814/231/1 817/232/1 819/233/1
f 815/222/32 813/188/32 814/220/32 816/221/32
f 820/238/3 818/235/3 813/115/3 815/207/3
f 819/219/31 817/216/31 818/217/31 820/218/31
f 818/224/29 817/225/29 814/226/29 813/223/29
f 819/228/30 820/229/30 815/230/30 816/227/30
f 824/222/1 822/188/1 825/125/1 827/195/1
f 823/265/2 821/264/2 822/122/2 824/266/2
f 828/351/3 826/179/3 821/149/3 823/206/3
f 827/269/4 825/268/4 826/267/4 828/270/4
f 826/271/5 825/268/5 822/211/5 821/272/5
f 827/273/6 828/274/6 823/230/6 824/210/6
f 832/252/1 830/249/1 833/262/1 835/263/1
f 831/256/28 829/212/28 830/247/28 832/255/28
f 836/352/3 834/353/3 829/249/3 831/252/3
f 835/254/27 833/253/27 834/147/27 836/192/27
f 834/257/25 833/258/25 830/259/25 829/210/25
f 835/261/26 836/229/26 831/230/26 832/260/26
f 840/263/1 838/262/1 841/249/1 843/252/1
f 839/192/29 837/147/29 838/253/29 840/254/29
f 844/252/3 842/249/3 837/353/3 839/352/3
f 843/255/30 841/247/30 842/212/30 844/256/30
f 842/210/31 841/259/31 838/258/31 837/257/31
f 843/260/32 844/230/32 839/229/32 840/261/32
f 848/215/1 846/199/1 849/128/1 851/194/1
f 847/206/5 845/149/5 846/115/5 848/207/5
f 852/354/3 850/230/3 845/356/3 847/355/3
f 851/208/6 849/178/6 850/125/6 852/195/6
f 850/209/4 849/212/4 846/211/4 845/210/4
f 851/213/2 852/179/2 847/161/2 848/214/2
f 856/215/1 854/199/1 857/128/1 859/194/1
f 855/206/5 853/149/5 854/115/5 856/207/5
f 860/354/3 858/230/3 853/356/3 855/355/3
f 859/208/6 857/178/6 858/125/6 860/195/6
f 858/209/4 857/212/4 854/211/4 853/210/4
f 859/213/2 860/179/2 855/161/2 856/214/2
f 864/252/1 862/249/1 865/250/1 867/251/1
f 863/195/21 861/125/21 862/239/21 864/240/21
f 868/357/3 866/360/3 861/359/3 863/358/3
f 867/238/22 865/235/22 866/236/22 868/237/22
f 866/242/23 865/243/23 862/244/23 861/241/23
f 867/246/24 868/247/24 863/248/24 864/245/24
f 872/233/1 870/232/1 873/231/1 875/234/1
f 871/218/25 869/217/25 870/216/25 872/219/25
f 876/207/3 874/115/3 869/235/3 871/238/3
f 875/221/26 873/220/26 874/188/26 876/222/26
f 874/223/27 873/226/27 870/225/27 869/224/27
f 875/227/28 876/230/28 871/229/28 872/228/28
f 880/251/1 878/250/1 881/249/1 883/252/1
f 879/237/23 877/236/23 878/235/23 880/238/23
f 884/358/3 882/359/3 877/360/3 879/357/3
f 883/240/24 881/239/24 882/125/24 884/195/24
f 882/241/22 881/244/22 878/243/22 877/242/22
f 883/245/21 884/248/21 879/247/21 880/246/21
f 888/203/1 886/204/1 889/205/1 891/137/1
f 887/147/5 885/192/5 886/193/5 888/187/5
f 892/134/3 890/363/3 885/362/3 887/361/3
f 891/128/6 889/194/6 890/195/6 892/125/6
f 890/158/4 889/200/4 886/201/4 885/202/4
f 891/199/2 892/196/2 887/197/2 888/198/2
f 896/232/1 894/233/1 897/234/1 899/231/1
f 895/217/32 893/218/32 894/219/32 896/216/32
f 900/115/3 898/207/3 893/238/3 895/235/3
f 899/220/31 897/221/31 898/222/31 900/188/31
f 898/230/29 897/227/29 894/228/29 893/229/29
f 899/226/30 900/223/30 895/224/30 896/225/30
f 904/250/1 902/251/1 905/252/1 907/249/1
f 903/236/21 901/237/21 902/238/21 904/235/21
f 908/359/3 906/358/3 901/357/3 903/360/3
f 907/239/22 905/240/22 906/195/22 908/125/22
f 906/248/23 905/245/23 902/246/23 901/247/23
f 907/244/24 908/241/24 903/242/24 904/243/24
f 912/262/1 910/263/1 913/252/1 915/249/1
f 911/147/28 909/192/28 910/254/28 912/253/28
f 916/249/3 914/252/3 909/352/3 911/353/3
f 915/247/27 913/255/27 914/256/27 916/212/27
f 914/230/25 913/260/25 910/261/25 909/229/25
f 915/259/26 916/210/26 911/257/26 912/258/26
f 920/188/1 918/222/1 921/195/1 923/125/1
f 919/264/2 917/265/2 918/266/2 920/122/2
f 924/179/3 922/351/3 917/206/3 919/149/3
f 923/268/4 921/269/4 922/270/4 924/267/4
f 922/274/5 921/273/5 918/210/5 917/230/5
f 923/268/6 924/271/6 919/272/6 920/211/6
f 928/137/1 926/205/1 929/204/1 931/203/1
f 927/125/6 925/195/6 926/194/6 928/128/6
f 932/361/3 930/362/3 925/363/3 927/134/3
f 931/187/5 929/193/5 930/192/5 932/147/5
f 930/202/2 929/201/2 926/200/2 925/158/2
f 931/198/4 932/197/4 927/196/4 928/199/4
f 936/231/1 934/234/1 937/233/1 939/232/1
f 935/188/25 933/222/25 934/221/25 936/220/25
f 940/235/3 938/238/3 933/207/3 935/115/3
f 939/216/26 937/219/26 938/218/26 940/217/26
f 938/229/27 937/228/27 934/227/27 933/230/27
f 939/225/28 940/224/28 935/223/28 936/226/28
f 944/249/1 942/252/1 945/251/1 947/250/1
f 943/125/23 941/195/23 942/240/23 944/239/23
f 948/360/3 946/357/3 941/358/3 943/359/3
f 947/235/24 945/238/24 946/237/24 948/236/24
f 946/247/22 945/246/22 942/245/22 941/248/22
f 947/243/21 948/242/21 943/241/21 944/244/21
f 952/249/1 950/252/1 953/263/1 955/262/1
f 951/212/29 949/256/29 950/255/29 952/247/29
f 956/353/3 954/352/3 949/252/3 951/249/3
f 955/253/30 953/254/30 954/192/30 956/147/30
f 954/229/31 953/261/31 950/260/31 949/230/31
f 955/258/32 956/257/32 951/210/32 952/259/32
f 960/234/1 958/231/1 961/232/1 963/233/1
f 959/222/32 957/188/32 958/220/32 960/221/32
f 964/238/3 962/235/3 957/115/3 959/207/3
f 963/219/31 961/216/31 962/217/31 964/218/31
f 962/224/29 961/225/29 958/226/29 957/223/29
f 963/228/30 964/229/30 959/230/30 960/227/30
f 968/252/1 966/249/1 969/262/1 971/263/1
f 967/256/28 965/212/28 966/247/28 968/255/28
f 972/352/3 970/353/3 965/249/3 967/252/3
f 971/254/27 969/253/27 970/147/27 972/192/27
f 970/257/25 969/258/25 966/259/25 965/210/25
f 971/261/26 972/229/26 967/230/26 968/260/26
f 976/263/1 974/262/1 977/249/1 979/252/1
f 975/192/29 973/147/29 974/253/29 976/254/29
f 980/252/3 978/249/3 973/353/3 975/352/3
f 979/255/30 977/247/30 978/212/30 980/256/30
f 978/210/31 977/259/31 974/258/31 973/257/31
f 979/260/32 980/230/32 975/229/32 976/261/32
f 984/233/1 982/232/1 985/231/1 987/234/1
f 983/218/25 981/217/25 982/216/25 984/219/25
f 988/207/3 986/115/3 981/235/3 983/238/3
f 987/221/26 985/220/26 986/188/26 988/222/26
f 986/223/27 985/226/27 982/225/27 981/224/27
f 987/227/28 988/230/28 983/229/28 984/228/28
f 989/110/21 990/113/21 994/112/21 993/111/21
f 992/114/22 991/117/22 995/116/22 996/115/22
f 991/118/1 989/121/1 993/120/1 995/119/1
f 990/364/3 992/367/3 996/366/3 994/365/3
f 993/122/2 994/125/2 998/124/2 997/123/2
f 996/126/4 995/129/4 999/128/4 1000/127/4
f 995/130/1 993/133/1 997/132/1 999/131/1
f 994/368/3 996/371/3 1000/370/3 998/369/3
f 997/134/23 998/137/23 1002/136/23 1001/135/23
f 1000/138/24 999/139/24 1003/122/24 1004/125/24
f 999/140/1 997/143/1 1001/142/1 1003/141/1
f 998/372/3 1000/375/3 1004/374/3 1002/373/3
f 1001/144/5 1002/147/5 1006/146/5 1005/145/5
f 1004/148/6 1003/150/6 1007/113/6 1008/149/6
f 1003/151/1 1001/154/1 1005/153/1 1007/152/1
f 1002/376/3 1004/378/3 1008/377/3 1006/128/3
f 1005/155/22 1006/158/22 1010/157/22 1009/156/22
f 1008/159/21 1007/162/21 1011/161/21 1012/160/21
f 1007/163/1 1005/166/1 1009/165/1 1011/164/1
f 1006/379/3 1008/382/3 1012/381/3 1010/380/3
f 1009/167/4 1010/170/4 1014/169/4 1013/168/4
f 1012/171/2 1011/172/2 1015/155/2 1016/158/2
f 1011/173/1 1009/175/1 1013/115/1 1015/174/1
f 1010/383/3 1012/386/3 1016/385/3 1014/384/3
f 1013/113/24 1014/149/24 1018/176/24 1017/112/24
f 1016/177/23 1015/180/23 1019/179/23 1020/178/23
f 1015/181/1 1013/115/1 1017/183/1 1019/182/1
f 1014/160/3 1016/389/3 1020/388/3 1018/387/3
f 1017/184/6 1018/110/6 990/111/6 989/185/6
f 1020/186/5 1019/189/5 991/188/5 992/187/5
f 1019/190/1 1017/149/1 989/176/1 991/191/1
f 1018/390/3 1020/393/3 992/392/3 990/391/3
f 1021/394/1 1023/397/1 1024/396/1 1022/395/1
f 1025/394/3 1026/395/3 1028/396/3 1027/397/3
f 1031/398/2 1029/400/2 1030/399/2 1032/302/2
f 1036/320/3 1034/321/3 1029/318/3 1031/315/3
f 1035/401/4 1033/403/4 1034/319/4 1036/402/4
f 1034/404/5 1033/406/5 1030/401/5 1029/405/5
f 1035/407/6 1036/410/6 1031/409/6 1032/408/6
f 1039/398/2 1037/400/2 1038/399/2 1040/302/2
f 1044/320/3 1042/321/3 1037/318/3 1039/315/3
f 1043/401/4 1041/403/4 1042/319/4 1044/402/4
f 1042/404/5 1041/406/5 1038/401/5 1037/405/5
f 1043/407/6 1044/410/6 1039/409/6 1040/408/6
f 1047/411/2 1045/414/2 1046/413/2 1048/412/2
f 1052/415/3 1050/418/3 1045/417/3 1047/416/3
f 1051/416/4 1049/417/4 1050/420/4 1052/419/4
f 1050/421/5 1049/412/5 1046/423/5 1045/422/5
f 1051/424/6 1052/427/6 1047/426/6 1048/425/6
f 1055/428/2 1053/431/2 1054/430/2 1056/429/2
f 1060/432/3 1058/435/3 1053/434/3 1055/433/3
f 1059/436/4 1057/439/4 1058/438/4 1060/437/4
f 1058/440/5 1057/443/5 1054/442/5 1053/441/5
f 1059/444/6 1060/447/6 1055/446/6 1056/445/6
f 1063/448/2 1061/451/2 1062/450/2 1064/449/2
f 1068/452/3 1066/455/3 1061/454/3 1063/453/3
f 1067/456/4 1065/459/4 1066/458/4 1068/457/4
f 1066/460/5 1065/398/5 1062/302/5 1061/299/5
f 1067/410/6 1068/462/6 1063/461/6 1064/409/6
f 1071/423/2 1069/465/2 1070/464/2 1072/463/2
f 1076/415/3 1074/418/3 1069/417/3 1071/416/3
f 1075/466/4 1073/447/4 1074/468/4 1076/467/4
f 1074/415/5 1073/470/5 1070/469/5 1069/416/5
f 1075/471/6 1076/474/6 1071/473/6 1072/472/6
