# Blender 5.2.0 LTS
# www.blender.org
mtllib continued_driving_permission.mtl
o cube
v 0.250000 0.562500 -0.034375
v 0.250000 0.562500 -0.034375
v 0.250000 0.181250 -0.034375
v 0.250000 0.181250 -0.034375
v -0.250000 0.562500 -0.034375
v -0.250000 0.562500 -0.034375
v -0.250000 0.181250 -0.034375
v -0.250000 0.181250 -0.034375
v 0.125000 0.187500 -0.000000
v 0.125000 0.187500 0.062500
v 0.125000 0.156250 -0.000000
v 0.125000 0.156250 0.062500
v -0.125000 0.187500 -0.000000
v -0.125000 0.187500 0.062500
v -0.125000 0.156250 -0.000000
v -0.125000 0.156250 0.062500
v 0.068750 0.156250 -0.000000
v 0.068750 0.156250 0.137500
v 0.068750 0.125000 -0.000000
v 0.068750 0.125000 0.137500
v -0.068750 0.156250 -0.000000
v -0.068750 0.156250 0.137500
v -0.068750 0.125000 -0.000000
v -0.068750 0.125000 0.137500
v 0.125000 0.593750 -0.000000
v 0.125000 0.593750 0.062500
v 0.125000 0.562500 -0.000000
v 0.125000 0.562500 0.062500
v -0.125000 0.593750 -0.000000
v -0.125000 0.593750 0.062500
v -0.125000 0.562500 -0.000000
v -0.125000 0.562500 0.062500
v 0.068750 0.562500 -0.000000
v 0.068750 0.562500 0.137500
v 0.068750 0.531250 -0.000000
v 0.068750 0.531250 0.137500
v -0.068750 0.562500 -0.000000
v -0.068750 0.562500 0.137500
v -0.068750 0.531250 -0.000000
v -0.068750 0.531250 0.137500
v -0.000000 0.375000 -0.031250
v -0.000000 0.375000 -0.000000
v 0.092108 0.718750 -0.031250
v 0.092108 0.718750 -0.000000
v 0.251642 0.626642 -0.031250
v 0.251642 0.626642 -0.000000
v 0.343750 0.467108 -0.031250
v 0.343750 0.467108 -0.000000
v 0.343750 0.282892 -0.031250
v 0.343750 0.282892 -0.000000
v 0.251642 0.123358 -0.031250
v 0.251642 0.123358 -0.000000
v 0.092108 0.031250 -0.031250
v 0.092108 0.031250 -0.000000
v -0.092108 0.031250 -0.031250
v -0.092108 0.031250 -0.000000
v -0.251642 0.123358 -0.031250
v -0.251642 0.123358 -0.000000
v -0.343750 0.282892 -0.031250
v -0.343750 0.282892 -0.000000
v -0.343750 0.467108 -0.031250
v -0.343750 0.467108 -0.000000
v -0.251642 0.626642 -0.031250
v -0.251642 0.626642 -0.000000
v -0.092108 0.718750 -0.031250
v -0.092108 0.718750 -0.000000
v 0.092108 0.718750 -0.000000
v 0.092108 0.718750 0.018750
v 0.087681 0.702230 -0.000000
v 0.087681 0.702230 0.018750
v 0.251642 0.626642 -0.000000
v 0.251642 0.626642 0.018750
v 0.239549 0.614549 -0.000000
v 0.239549 0.614549 0.018750
v 0.343750 0.467108 -0.000000
v 0.343750 0.467108 0.018750
v 0.327230 0.462681 -0.000000
v 0.327230 0.462681 0.018750
v 0.343750 0.282892 -0.000000
v 0.343750 0.282892 0.018750
v 0.327230 0.287319 -0.000000
v 0.327230 0.287319 0.018750
v 0.251642 0.123358 -0.000000
v 0.251642 0.123358 0.018750
v 0.239549 0.135451 -0.000000
v 0.239549 0.135451 0.018750
v 0.092108 0.031250 -0.000000
v 0.092108 0.031250 0.018750
v 0.087681 0.047770 -0.000000
v 0.087681 0.047770 0.018750
v -0.092108 0.031250 -0.000000
v -0.092108 0.031250 0.018750
v -0.087681 0.047770 -0.000000
v -0.087681 0.047770 0.018750
v -0.251642 0.123358 -0.000000
v -0.251642 0.123358 0.018750
v -0.239549 0.135451 -0.000000
v -0.239549 0.135451 0.018750
v -0.343750 0.282892 -0.000000
v -0.343750 0.282892 0.018750
v -0.327230 0.287319 -0.000000
v -0.327230 0.287319 0.018750
v -0.343750 0.467108 -0.000000
v -0.343750 0.467108 0.018750
v -0.327230 0.462681 -0.000000
v -0.327230 0.462681 0.018750
v -0.251642 0.626642 -0.000000
v -0.251642 0.626642 0.018750
v -0.239549 0.614549 -0.000000
v -0.239549 0.614549 0.018750
v -0.092108 0.718750 -0.000000
v -0.092108 0.718750 0.018750
v -0.087681 0.702230 -0.000000
v -0.087681 0.702230 0.018750
vn -0.0000 -0.0000 -1.0000
vn -0.0000 -0.0000 1.0000
vn 1.0000 -0.0000 -0.0000
vn -1.0000 -0.0000 -0.0000
vn -0.0000 1.0000 -0.0000
vn -0.0000 -1.0000 -0.0000
vn 0.5000 0.8660 -0.0000
vn 0.8660 0.5000 -0.0000
vn 0.8660 -0.5000 -0.0000
vn 0.5000 -0.8660 -0.0000
vn -0.5000 -0.8660 -0.0000
vn -0.8660 -0.5000 -0.0000
vn -0.8660 0.5000 -0.0000
vn -0.5000 0.8660 -0.0000
vt 1.000000 0.236391
vt 1.000000 0.240625
vt 1.000000 0.000000
vt 1.000000 0.015625
vt 0.281250 0.812500
vt 0.281250 0.833333
vt 0.250000 0.833333
vt 0.250000 0.812500
vt 0.031250 0.583333
vt 0.031250 0.604167
vt 0.000000 0.604167
vt 0.000000 0.583333
vt 0.406250 0.875000
vt 0.406250 0.854167
vt 0.531250 0.854167
vt 0.531250 0.875000
vt 0.406250 0.812500
vt 0.406250 0.833333
vt 0.531250 0.833333
vt 0.531250 0.812500
vt 0.265625 0.921875
vt 0.265625 0.937500
vt 0.203125 0.937500
vt 0.203125 0.921875
vt 0.500000 0.937500
vt 0.500000 0.958333
vt 0.375000 0.958333
vt 0.375000 0.937500
vt 0.437500 0.416667
vt 0.437500 0.437500
vt 0.375000 0.437500
vt 0.375000 0.416667
vt 0.625000 0.416667
vt 0.625000 0.437500
vt 0.562500 0.437500
vt 0.562500 0.416667
vt 0.687500 0.708333
vt 0.687500 0.666667
vt 0.750000 0.666667
vt 0.750000 0.708333
vt 0.687500 0.583333
vt 0.687500 0.625000
vt 0.750000 0.625000
vt 0.750000 0.583333
vt 0.265625 0.562500
vt 0.265625 0.578125
vt 0.234375 0.578125
vt 0.234375 0.562500
vt 0.218750 0.437500
vt 0.218750 0.458333
vt 0.156250 0.458333
vt 0.156250 0.437500
vt 0.305098 0.805098
vt 0.265214 0.828125
vt 0.242188 0.742188
vt 0.093339 0.757812
vt 0.139392 0.757812
vt 0.139392 0.765625
vt 0.093339 0.765625
vt 0.780428 0.770833
vt 0.860197 0.801535
vt 0.734375 0.885417
vt 0.328125 0.765214
vt 0.001233 0.789062
vt 0.047286 0.789062
vt 0.047286 0.796875
vt 0.001233 0.796875
vt 0.906250 0.854715
vt 0.328125 0.719161
vt 0.093339 0.789062
vt 0.093339 0.796875
vt 0.906250 0.916119
vt 0.305098 0.679277
vt 0.139392 0.789062
vt 0.139392 0.796875
vt 0.860197 0.969298
vt 0.265214 0.656250
vt 0.329358 0.664062
vt 0.375411 0.664062
vt 0.375411 0.671875
vt 0.329358 0.671875
vt 0.780428 1.000000
vt 0.219161 0.656250
vt 0.421464 0.664062
vt 0.421464 0.671875
vt 0.688322 1.000000
vt 0.179277 0.679277
vt 0.467517 0.664062
vt 0.467517 0.671875
vt 0.608553 0.969298
vt 0.156250 0.719161
vt 0.001233 0.726562
vt 0.047286 0.726562
vt 0.047286 0.734375
vt 0.001233 0.734375
vt 0.562500 0.916119
vt 0.156250 0.765214
vt 0.093339 0.726562
vt 0.093339 0.734375
vt 0.562500 0.854715
vt 0.179277 0.805098
vt 0.139392 0.726562
vt 0.139392 0.734375
vt 0.608553 0.801535
vt 0.219161 0.828125
vt 0.001233 0.757812
vt 0.047286 0.757812
vt 0.047286 0.765625
vt 0.001233 0.765625
vt 0.688322 0.770833
vt 0.280839 0.604688
vt 0.326892 0.604688
vt 0.326892 0.609375
vt 0.280839 0.609375
vt 0.878034 0.625000
vt 0.790353 0.625000
vt 0.790353 0.618750
vt 0.878034 0.618750
vt 0.115670 0.980245
vt 0.153637 0.958325
vt 0.156661 0.961348
vt 0.116777 0.984375
vt 0.108964 0.515625
vt 0.148848 0.538652
vt 0.145825 0.541675
vt 0.107858 0.519755
vt 0.188733 0.635938
vt 0.234786 0.635938
vt 0.234786 0.640625
vt 0.188733 0.640625
vt 0.937500 0.712500
vt 0.849819 0.712500
vt 0.849819 0.706250
vt 0.937500 0.706250
vt 0.175558 0.920358
vt 0.179688 0.921464
vt 0.171875 0.578536
vt 0.167745 0.579642
vt 0.280839 0.635938
vt 0.280839 0.640625
vt 0.965716 0.708333
vt 0.878034 0.708333
vt 0.878034 0.702083
vt 0.965716 0.702083
vt 0.175558 0.876517
vt 0.179688 0.875411
vt 0.171875 0.624589
vt 0.167745 0.623483
vt 0.326892 0.635938
vt 0.326892 0.640625
vt 0.790353 0.708333
vt 0.790353 0.702083
vt 0.153637 0.838550
vt 0.156661 0.835527
vt 0.148848 0.664473
vt 0.145825 0.661450
vt 0.391858 0.807813
vt 0.437911 0.807813
vt 0.437911 0.812500
vt 0.391858 0.812500
vt 0.959647 0.479167
vt 0.871966 0.479167
vt 0.871966 0.472917
vt 0.959647 0.472917
vt 0.115670 0.816630
vt 0.116777 0.812500
vt 0.108964 0.687500
vt 0.107858 0.683370
vt 0.483964 0.807813
vt 0.483964 0.812500
vt 0.784284 0.479167
vt 0.784284 0.472917
vt 0.071830 0.816630
vt 0.070723 0.812500
vt 0.062911 0.687500
vt 0.064017 0.683370
vt 0.530017 0.807813
vt 0.530017 0.812500
vt 0.696603 0.479167
vt 0.696603 0.472917
vt 0.033863 0.838550
vt 0.030839 0.835527
vt 0.023027 0.664473
vt 0.026050 0.661450
vt 0.344983 0.635938
vt 0.391036 0.635938
vt 0.391036 0.640625
vt 0.344983 0.640625
vt 0.928397 0.666667
vt 0.840716 0.666667
vt 0.840716 0.660417
vt 0.928397 0.660417
vt 0.011942 0.876517
vt 0.007812 0.875411
vt 0.000000 0.624589
vt 0.004130 0.623483
vt 0.437089 0.635938
vt 0.437089 0.640625
vt 0.903216 0.645833
vt 0.815534 0.645833
vt 0.815534 0.639583
vt 0.903216 0.639583
vt 0.011942 0.920358
vt 0.007812 0.921464
vt 0.000000 0.578536
vt 0.004130 0.579642
vt 0.483142 0.635938
vt 0.483142 0.640625
vt 0.824637 0.670833
vt 0.736956 0.670833
vt 0.736956 0.664583
vt 0.824637 0.664583
vt 0.033863 0.958325
vt 0.030839 0.961348
vt 0.023027 0.538652
vt 0.026050 0.541675
vt 0.188733 0.604688
vt 0.234786 0.604688
vt 0.234786 0.609375
vt 0.188733 0.609375
vt 0.928397 0.583333
vt 0.840716 0.583333
vt 0.840716 0.577083
vt 0.928397 0.577083
vt 0.071830 0.980245
vt 0.070723 0.984375
vt 0.062911 0.515625
vt 0.064017 0.519755
vt 0.965716 0.625000
vt 0.965716 0.618750
s 0
usemtl m_0ac5c793-748d-37e2-16e6-2a68a8c778dc
f 2/1/1 3/2/1 4/2/1 1/1/1
f 5/3/1 8/3/1 7/3/1 6/3/1
f 2/3/1 5/3/1 1/3/1 6/3/1
f 3/3/1 8/3/1 4/3/1 7/3/1
s 1
f 3/4/1 7/4/1 5/3/1 1/3/1
f 8/3/2 4/3/2 2/3/2 6/3/2
f 11/21/1 15/24/1 13/23/1 9/22/1
f 19/45/1 23/48/1 21/47/1 17/46/1
f 27/21/1 31/24/1 29/23/1 25/22/1
f 35/45/1 39/48/1 37/47/1 33/46/1
f 45/53/1 41/55/1 43/54/1
f 43/56/7 44/59/7 46/58/7 45/57/7
f 47/63/1 41/55/1 45/53/1
f 45/64/8 46/67/8 48/66/8 47/65/8
f 49/69/1 41/55/1 47/63/1
f 47/65/3 48/66/3 50/71/3 49/70/3
f 51/73/1 41/55/1 49/69/1
f 49/70/9 50/71/9 52/75/9 51/74/9
f 53/77/1 41/55/1 51/73/1
f 51/78/10 52/81/10 54/80/10 53/79/10
f 55/83/1 41/55/1 53/77/1
f 53/79/6 54/80/6 56/85/6 55/84/6
f 57/87/1 41/55/1 55/83/1
f 55/84/11 56/85/11 58/89/11 57/88/11
f 59/91/1 41/55/1 57/87/1
f 57/92/12 58/95/12 60/94/12 59/93/12
f 61/97/1 41/55/1 59/91/1
f 59/93/4 60/94/4 62/99/4 61/98/4
f 63/101/1 41/55/1 61/97/1
f 61/98/13 62/99/13 64/103/13 63/102/13
f 65/105/1 41/55/1 63/101/1
f 63/106/14 64/109/14 66/108/14 65/107/14
f 43/54/1 41/55/1 65/105/1
f 65/107/5 66/108/5 44/59/5 43/56/5
f 67/111/7 68/114/7 72/113/7 71/112/7
f 69/119/1 67/122/1 71/121/1 73/120/1
f 68/123/2 70/126/2 74/125/2 72/124/2
f 71/127/8 72/130/8 76/129/8 75/128/8
f 73/120/1 71/121/1 75/136/1 77/135/1
f 72/124/2 74/125/2 78/138/2 76/137/2
f 75/128/3 76/129/3 80/140/3 79/139/3
f 77/135/1 75/136/1 79/146/1 81/145/1
f 76/137/2 78/138/2 82/148/2 80/147/2
f 79/139/9 80/140/9 84/150/9 83/149/9
f 81/145/1 79/146/1 83/154/1 85/153/1
f 80/147/2 82/148/2 86/156/2 84/155/2
f 83/157/10 84/160/10 88/159/10 87/158/10
f 85/153/1 83/154/1 87/166/1 89/165/1
f 84/155/2 86/156/2 90/168/2 88/167/2
f 87/158/6 88/159/6 92/170/6 91/169/6
f 89/165/1 87/166/1 91/174/1 93/173/1
f 88/167/2 90/168/2 94/176/2 92/175/2
f 91/169/11 92/170/11 96/178/11 95/177/11
f 93/173/1 91/174/1 95/182/1 97/181/1
f 92/175/2 94/176/2 98/184/2 96/183/2
f 95/185/12 96/188/12 100/187/12 99/186/12
f 97/181/1 95/182/1 99/194/1 101/193/1
f 96/183/2 98/184/2 102/196/2 100/195/2
f 99/186/4 100/187/4 104/198/4 103/197/4
f 101/193/1 99/194/1 103/204/1 105/203/1
f 100/195/2 102/196/2 106/206/2 104/205/2
f 103/197/13 104/198/13 108/208/13 107/207/13
f 105/203/1 103/204/1 107/214/1 109/213/1
f 104/205/2 106/206/2 110/216/2 108/215/2
f 107/217/14 108/220/14 112/219/14 111/218/14
f 109/213/1 107/214/1 111/226/1 113/225/1
f 108/215/2 110/216/2 114/228/2 112/227/2
f 111/218/5 112/219/5 68/114/5 67/111/5
f 113/225/1 111/226/1 67/122/1 69/119/1
f 112/227/2 114/228/2 70/126/2 68/123/2
usemtl m_6ab9c7e5-83f1-6119-e1ae-bd6bc9c2555b
f 12/5/3 11/8/3 9/7/3 10/6/3
f 15/9/4 16/12/4 14/11/4 13/10/4
f 9/13/5 13/16/5 14/15/5 10/14/5
f 12/17/6 16/20/6 15/19/6 11/18/6
f 16/25/2 12/28/2 10/27/2 14/26/2
f 20/29/3 19/32/3 17/31/3 18/30/3
f 23/33/4 24/36/4 22/35/4 21/34/4
f 17/37/5 21/40/5 22/39/5 18/38/5
f 20/41/6 24/44/6 23/43/6 19/42/6
f 24/49/2 20/52/2 18/51/2 22/50/2
f 28/5/3 27/8/3 25/7/3 26/6/3
f 31/9/4 32/12/4 30/11/4 29/10/4
f 25/13/5 29/16/5 30/15/5 26/14/5
f 28/17/6 32/20/6 31/19/6 27/18/6
f 32/25/2 28/28/2 26/27/2 30/26/2
f 36/29/3 35/32/3 33/31/3 34/30/3
f 39/33/4 40/36/4 38/35/4 37/34/4
f 33/37/5 37/40/5 38/39/5 34/38/5
f 36/41/6 40/44/6 39/43/6 35/42/6
f 40/49/2 36/52/2 34/51/2 38/50/2
f 44/60/2 42/62/2 46/61/2
f 46/61/2 42/62/2 48/68/2
f 48/68/2 42/62/2 50/72/2
f 50/72/2 42/62/2 52/76/2
f 52/76/2 42/62/2 54/82/2
f 54/82/2 42/62/2 56/86/2
f 56/86/2 42/62/2 58/90/2
f 58/90/2 42/62/2 60/96/2
f 60/96/2 42/62/2 62/100/2
f 62/100/2 42/62/2 64/104/2
f 64/104/2 42/62/2 66/110/2
f 66/110/2 42/62/2 44/60/2
f 70/115/11 69/118/11 73/117/11 74/116/11
f 74/131/12 73/134/12 77/133/12 78/132/12
f 78/141/4 77/144/4 81/143/4 82/142/4
f 82/142/13 81/143/13 85/152/13 86/151/13
f 86/161/14 85/164/14 89/163/14 90/162/14
f 90/162/5 89/163/5 93/172/5 94/171/5
f 94/171/7 93/172/7 97/180/7 98/179/7
f 98/189/8 97/192/8 101/191/8 102/190/8
f 102/199/3 101/202/3 105/201/3 106/200/3
f 106/209/9 105/212/9 109/211/9 110/210/9
f 110/221/10 109/224/10 113/223/10 114/222/10
f 114/229/6 113/230/6 69/118/6 70/115/6
