# Blender 5.2.0 LTS
# www.blender.org
mtllib speed_sign.mtl
o cube
v 0.250000 0.562500 -0.034375
v 0.250000 0.562500 -0.034375
v 0.250000 0.181250 -0.034375
v 0.250000 0.181250 -0.034375
v -0.250000 0.562500 -0.034375
v -0.250000 0.562500 -0.034375
v -0.250000 0.181250 -0.034375
v -0.250000 0.181250 -0.034375
v 0.125000 0.187500 -0.000000
v 0.125000 0.187500 0.062500
v 0.125000 0.156250 -0.000000
v 0.125000 0.156250 0.062500
v -0.125000 0.187500 -0.000000
v -0.125000 0.187500 0.062500
v -0.125000 0.156250 -0.000000
v -0.125000 0.156250 0.062500
v 0.068750 0.156250 -0.000000
v 0.068750 0.156250 0.137500
v 0.068750 0.125000 -0.000000
v 0.068750 0.125000 0.137500
v -0.068750 0.156250 -0.000000
v -0.068750 0.156250 0.137500
v -0.068750 0.125000 -0.000000
v -0.068750 0.125000 0.137500
v 0.125000 0.593750 -0.000000
v 0.125000 0.593750 0.062500
v 0.125000 0.562500 -0.000000
v 0.125000 0.562500 0.062500
v -0.125000 0.593750 -0.000000
v -0.125000 0.593750 0.062500
v -0.125000 0.562500 -0.000000
v -0.125000 0.562500 0.062500
v 0.068750 0.562500 -0.000000
v 0.068750 0.562500 0.137500
v 0.068750 0.531250 -0.000000
v 0.068750 0.531250 0.137500
v -0.068750 0.562500 -0.000000
v -0.068750 0.562500 0.137500
v -0.068750 0.531250 -0.000000
v -0.068750 0.531250 0.137500
v -0.000000 0.375000 -0.031250
v -0.000000 0.375000 -0.000000
v 0.092108 0.718750 -0.031250
v 0.092108 0.718750 -0.000000
v 0.251642 0.626642 -0.031250
v 0.251642 0.626642 -0.000000
v 0.343750 0.467108 -0.031250
v 0.343750 0.467108 -0.000000
v 0.343750 0.282892 -0.031250
v 0.343750 0.282892 -0.000000
v 0.251642 0.123358 -0.031250
v 0.251642 0.123358 -0.000000
v 0.092108 0.031250 -0.031250
v 0.092108 0.031250 -0.000000
v -0.092108 0.031250 -0.031250
v -0.092108 0.031250 -0.000000
v -0.251642 0.123358 -0.031250
v -0.251642 0.123358 -0.000000
v -0.343750 0.282892 -0.031250
v -0.343750 0.282892 -0.000000
v -0.343750 0.467108 -0.031250
v -0.343750 0.467108 -0.000000
v -0.251642 0.626642 -0.031250
v -0.251642 0.626642 -0.000000
v -0.092108 0.718750 -0.031250
v -0.092108 0.718750 -0.000000
v 0.092108 0.718750 -0.000000
v 0.092108 0.718750 0.018750
v 0.087681 0.702230 -0.000000
v 0.087681 0.702230 0.018750
v 0.251642 0.626642 -0.000000
v 0.251642 0.626642 0.018750
v 0.239549 0.614549 -0.000000
v 0.239549 0.614549 0.018750
v 0.343750 0.467108 -0.000000
v 0.343750 0.467108 0.018750
v 0.327230 0.462681 -0.000000
v 0.327230 0.462681 0.018750
v 0.343750 0.282892 -0.000000
v 0.343750 0.282892 0.018750
v 0.327230 0.287319 -0.000000
v 0.327230 0.287319 0.018750
v 0.251642 0.123358 -0.000000
v 0.251642 0.123358 0.018750
v 0.239549 0.135451 -0.000000
v 0.239549 0.135451 0.018750
v 0.092108 0.031250 -0.000000
v 0.092108 0.031250 0.018750
v 0.087681 0.047770 -0.000000
v 0.087681 0.047770 0.018750
v -0.092108 0.031250 -0.000000
v -0.092108 0.031250 0.018750
v -0.087681 0.047770 -0.000000
v -0.087681 0.047770 0.018750
v -0.251642 0.123358 -0.000000
v -0.251642 0.123358 0.018750
v -0.239549 0.135451 -0.000000
v -0.239549 0.135451 0.018750
v -0.343750 0.282892 -0.000000
v -0.343750 0.282892 0.018750
v -0.327230 0.287319 -0.000000
v -0.327230 0.287319 0.018750
v -0.343750 0.467108 -0.000000
v -0.343750 0.467108 0.018750
v -0.327230 0.462681 -0.000000
v -0.327230 0.462681 0.018750
v -0.251642 0.626642 -0.000000
v -0.251642 0.626642 0.018750
v -0.239549 0.614549 -0.000000
v -0.239549 0.614549 0.018750
v -0.092108 0.718750 -0.000000
v -0.092108 0.718750 0.018750
v -0.087681 0.702230 -0.000000
v -0.087681 0.702230 0.018750
vn -0.0000 -0.0000 -0.0000
vn -0.0000 1.0000 -0.0000
vn -0.0000 -0.0000 -1.0000
vn -0.0000 -0.0000 1.0000
vn 1.0000 -0.0000 -0.0000
vn -1.0000 -0.0000 -0.0000
vn -0.0000 -1.0000 -0.0000
vn 0.5000 0.8660 -0.0000
vn 0.8660 0.5000 -0.0000
vn 0.8660 -0.5000 -0.0000
vn 0.5000 -0.8660 -0.0000
vn -0.5000 -0.8660 -0.0000
vn -0.8660 -0.5000 -0.0000
vn -0.8660 0.5000 -0.0000
vn -0.5000 0.8660 -0.0000
vt 0.006250 0.992188
vt 0.006250 0.896875
vt 1.000000 0.000000
vt 0.140625 0.993750
vt 0.015625 0.993750
vt 1.000000 0.015625
vt 0.281250 0.812500
vt 0.250000 0.812500
vt 0.250000 0.833333
vt 0.281250 0.833333
vt 0.031250 0.583333
vt 0.000000 0.583333
vt 0.000000 0.604167
vt 0.031250 0.604167
vt 0.406250 0.875000
vt 0.531250 0.875000
vt 0.531250 0.854167
vt 0.406250 0.854167
vt 0.406250 0.812500
vt 0.531250 0.812500
vt 0.531250 0.833333
vt 0.406250 0.833333
vt 0.265625 0.921875
vt 0.203125 0.921875
vt 0.203125 0.937500
vt 0.265625 0.937500
vt 0.500000 0.937500
vt 0.375000 0.937500
vt 0.375000 0.958333
vt 0.500000 0.958333
vt 0.437500 0.416667
vt 0.375000 0.416667
vt 0.375000 0.437500
vt 0.437500 0.437500
vt 0.625000 0.416667
vt 0.562500 0.416667
vt 0.562500 0.437500
vt 0.625000 0.437500
vt 0.687500 0.708333
vt 0.750000 0.708333
vt 0.750000 0.666667
vt 0.687500 0.666667
vt 0.687500 0.583333
vt 0.750000 0.583333
vt 0.750000 0.625000
vt 0.687500 0.625000
vt 0.265625 0.562500
vt 0.234375 0.562500
vt 0.234375 0.578125
vt 0.265625 0.578125
vt 0.218750 0.437500
vt 0.156250 0.437500
vt 0.156250 0.458333
vt 0.218750 0.458333
vt 0.305098 0.805098
vt 0.242188 0.742188
vt 0.265214 0.828125
vt 0.093339 0.757812
vt 0.093339 0.765625
vt 0.139392 0.765625
vt 0.139392 0.757812
vt 0.780428 0.770833
vt 0.734375 0.885417
vt 0.860197 0.801535
vt 0.328125 0.765214
vt 0.001233 0.789062
vt 0.001233 0.796875
vt 0.047286 0.796875
vt 0.047286 0.789062
vt 0.906250 0.854715
vt 0.328125 0.719161
vt 0.093339 0.796875
vt 0.093339 0.789062
vt 0.906250 0.916119
vt 0.305098 0.679277
vt 0.139392 0.796875
vt 0.139392 0.789062
vt 0.860197 0.969298
vt 0.265214 0.656250
vt 0.329358 0.664062
vt 0.329358 0.671875
vt 0.375411 0.671875
vt 0.375411 0.664062
vt 0.780428 1.000000
vt 0.219161 0.656250
vt 0.421464 0.671875
vt 0.421464 0.664062
vt 0.688322 1.000000
vt 0.179277 0.679277
vt 0.467517 0.671875
vt 0.467517 0.664062
vt 0.608553 0.969298
vt 0.156250 0.719161
vt 0.001233 0.726562
vt 0.001233 0.734375
vt 0.047286 0.734375
vt 0.047286 0.726562
vt 0.562500 0.916119
vt 0.156250 0.765214
vt 0.093339 0.734375
vt 0.093339 0.726562
vt 0.562500 0.854715
vt 0.179277 0.805098
vt 0.139392 0.734375
vt 0.139392 0.726562
vt 0.608553 0.801535
vt 0.219161 0.828125
vt 0.001233 0.757812
vt 0.001233 0.765625
vt 0.047286 0.765625
vt 0.047286 0.757812
vt 0.688322 0.770833
vt 0.280839 0.604688
vt 0.280839 0.609375
vt 0.326892 0.609375
vt 0.326892 0.604688
vt 0.878034 0.625000
vt 0.878034 0.618750
vt 0.790353 0.618750
vt 0.790353 0.625000
vt 0.115670 0.980245
vt 0.116777 0.984375
vt 0.156661 0.961348
vt 0.153637 0.958325
vt 0.108964 0.515625
vt 0.107858 0.519755
vt 0.145825 0.541675
vt 0.148848 0.538652
vt 0.188733 0.635938
vt 0.188733 0.640625
vt 0.234786 0.640625
vt 0.234786 0.635938
vt 0.937500 0.712500
vt 0.937500 0.706250
vt 0.849819 0.706250
vt 0.849819 0.712500
vt 0.179688 0.921464
vt 0.175558 0.920358
vt 0.167745 0.579642
vt 0.171875 0.578536
vt 0.280839 0.640625
vt 0.280839 0.635938
vt 0.965716 0.708333
vt 0.965716 0.702083
vt 0.878034 0.702083
vt 0.878034 0.708333
vt 0.179688 0.875411
vt 0.175558 0.876517
vt 0.167745 0.623483
vt 0.171875 0.624589
vt 0.326892 0.640625
vt 0.326892 0.635938
vt 0.790353 0.702083
vt 0.790353 0.708333
vt 0.156661 0.835527
vt 0.153637 0.838550
vt 0.145825 0.661450
vt 0.148848 0.664473
vt 0.391858 0.807813
vt 0.391858 0.812500
vt 0.437911 0.812500
vt 0.437911 0.807813
vt 0.959647 0.479167
vt 0.959647 0.472917
vt 0.871966 0.472917
vt 0.871966 0.479167
vt 0.116777 0.812500
vt 0.115670 0.816630
vt 0.107858 0.683370
vt 0.108964 0.687500
vt 0.483964 0.812500
vt 0.483964 0.807813
vt 0.784284 0.472917
vt 0.784284 0.479167
vt 0.070723 0.812500
vt 0.071830 0.816630
vt 0.064017 0.683370
vt 0.062911 0.687500
vt 0.530017 0.812500
vt 0.530017 0.807813
vt 0.696603 0.472917
vt 0.696603 0.479167
vt 0.030839 0.835527
vt 0.033863 0.838550
vt 0.026050 0.661450
vt 0.023027 0.664473
vt 0.344983 0.635938
vt 0.344983 0.640625
vt 0.391036 0.640625
vt 0.391036 0.635938
vt 0.928397 0.666667
vt 0.928397 0.660417
vt 0.840716 0.660417
vt 0.840716 0.666667
vt 0.007812 0.875411
vt 0.011942 0.876517
vt 0.004130 0.623483
vt 0.000000 0.624589
vt 0.437089 0.640625
vt 0.437089 0.635938
vt 0.903216 0.645833
vt 0.903216 0.639583
vt 0.815534 0.639583
vt 0.815534 0.645833
vt 0.007812 0.921464
vt 0.011942 0.920358
vt 0.004130 0.579642
vt 0.000000 0.578536
vt 0.483142 0.640625
vt 0.483142 0.635938
vt 0.824637 0.670833
vt 0.824637 0.664583
vt 0.736956 0.664583
vt 0.736956 0.670833
vt 0.030839 0.961348
vt 0.033863 0.958325
vt 0.026050 0.541675
vt 0.023027 0.538652
vt 0.188733 0.604688
vt 0.188733 0.609375
vt 0.234786 0.609375
vt 0.234786 0.604688
vt 0.928397 0.583333
vt 0.928397 0.577083
vt 0.840716 0.577083
vt 0.840716 0.583333
vt 0.070723 0.984375
vt 0.071830 0.980245
vt 0.064017 0.519755
vt 0.062911 0.515625
vt 0.965716 0.625000
vt 0.965716 0.618750
s 0
usemtl m_0ac5c793-748d-37e2-16e6-2a68a8c778dc.002
f 2/1/1 3/2/1 4/2/1 1/1/1
f 5/3/1 8/3/1 7/3/1 6/3/1
f 2/3/2 5/3/2 1/3/2 6/3/2
f 3/4/2 8/5/2 4/4/2 7/5/2
s 1
f 3/6/3 7/6/3 5/3/3 1/3/3
f 8/3/4 4/3/4 2/3/4 6/3/4
f 11/23/3 15/24/3 13/25/3 9/26/3
f 19/47/3 23/48/3 21/49/3 17/50/3
f 27/23/3 31/24/3 29/25/3 25/26/3
f 35/47/3 39/48/3 37/49/3 33/50/3
f 45/55/3 41/56/3 43/57/3
f 43/58/8 44/59/8 46/60/8 45/61/8
f 47/65/3 41/56/3 45/55/3
f 45/66/9 46/67/9 48/68/9 47/69/9
f 49/71/3 41/56/3 47/65/3
f 47/69/5 48/68/5 50/72/5 49/73/5
f 51/75/3 41/56/3 49/71/3
f 49/73/10 50/72/10 52/76/10 51/77/10
f 53/79/3 41/56/3 51/75/3
f 51/80/11 52/81/11 54/82/11 53/83/11
f 55/85/3 41/56/3 53/79/3
f 53/83/7 54/82/7 56/86/7 55/87/7
f 57/89/3 41/56/3 55/85/3
f 55/87/12 56/86/12 58/90/12 57/91/12
f 59/93/3 41/56/3 57/89/3
f 57/94/13 58/95/13 60/96/13 59/97/13
f 61/99/3 41/56/3 59/93/3
f 59/97/6 60/96/6 62/100/6 61/101/6
f 63/103/3 41/56/3 61/99/3
f 61/101/14 62/100/14 64/104/14 63/105/14
f 65/107/3 41/56/3 63/103/3
f 63/108/15 64/109/15 66/110/15 65/111/15
f 43/57/3 41/56/3 65/107/3
f 65/111/2 66/110/2 44/59/2 43/58/2
f 67/113/8 68/114/8 72/115/8 71/116/8
f 69/121/3 67/122/3 71/123/3 73/124/3
f 68/125/4 70/126/4 74/127/4 72/128/4
f 71/129/9 72/130/9 76/131/9 75/132/9
f 73/124/3 71/123/3 75/137/3 77/138/3
f 72/128/4 74/127/4 78/139/4 76/140/4
f 75/132/5 76/131/5 80/141/5 79/142/5
f 77/138/3 75/137/3 79/147/3 81/148/3
f 76/140/4 78/139/4 82/149/4 80/150/4
f 79/142/10 80/141/10 84/151/10 83/152/10
f 81/148/3 79/147/3 83/155/3 85/156/3
f 80/150/4 82/149/4 86/157/4 84/158/4
f 83/159/11 84/160/11 88/161/11 87/162/11
f 85/156/3 83/155/3 87/167/3 89/168/3
f 84/158/4 86/157/4 90/169/4 88/170/4
f 87/162/7 88/161/7 92/171/7 91/172/7
f 89/168/3 87/167/3 91/175/3 93/176/3
f 88/170/4 90/169/4 94/177/4 92/178/4
f 91/172/12 92/171/12 96/179/12 95/180/12
f 93/176/3 91/175/3 95/183/3 97/184/3
f 92/178/4 94/177/4 98/185/4 96/186/4
f 95/187/13 96/188/13 100/189/13 99/190/13
f 97/184/3 95/183/3 99/195/3 101/196/3
f 96/186/4 98/185/4 102/197/4 100/198/4
f 99/190/6 100/189/6 104/199/6 103/200/6
f 101/196/3 99/195/3 103/205/3 105/206/3
f 100/198/4 102/197/4 106/207/4 104/208/4
f 103/200/14 104/199/14 108/209/14 107/210/14
f 105/206/3 103/205/3 107/215/3 109/216/3
f 104/208/4 106/207/4 110/217/4 108/218/4
f 107/219/15 108/220/15 112/221/15 111/222/15
f 109/216/3 107/215/3 111/227/3 113/228/3
f 108/218/4 110/217/4 114/229/4 112/230/4
f 111/222/2 112/221/2 68/114/2 67/113/2
f 113/228/3 111/227/3 67/122/3 69/121/3
f 112/230/4 114/229/4 70/126/4 68/125/4
usemtl m_6ab9c7e5-83f1-6119-e1ae-bd6bc9c2555b.002
f 12/7/5 11/8/5 9/9/5 10/10/5
f 15/11/6 16/12/6 14/13/6 13/14/6
f 9/15/2 13/16/2 14/17/2 10/18/2
f 12/19/7 16/20/7 15/21/7 11/22/7
f 16/27/4 12/28/4 10/29/4 14/30/4
f 20/31/5 19/32/5 17/33/5 18/34/5
f 23/35/6 24/36/6 22/37/6 21/38/6
f 17/39/2 21/40/2 22/41/2 18/42/2
f 20/43/7 24/44/7 23/45/7 19/46/7
f 24/51/4 20/52/4 18/53/4 22/54/4
f 28/7/5 27/8/5 25/9/5 26/10/5
f 31/11/6 32/12/6 30/13/6 29/14/6
f 25/15/2 29/16/2 30/17/2 26/18/2
f 28/19/7 32/20/7 31/21/7 27/22/7
f 32/27/4 28/28/4 26/29/4 30/30/4
f 36/31/5 35/32/5 33/33/5 34/34/5
f 39/35/6 40/36/6 38/37/6 37/38/6
f 33/39/2 37/40/2 38/41/2 34/42/2
f 36/43/7 40/44/7 39/45/7 35/46/7
f 40/51/4 36/52/4 34/53/4 38/54/4
f 44/62/4 42/63/4 46/64/4
f 46/64/4 42/63/4 48/70/4
f 48/70/4 42/63/4 50/74/4
f 50/74/4 42/63/4 52/78/4
f 52/78/4 42/63/4 54/84/4
f 54/84/4 42/63/4 56/88/4
f 56/88/4 42/63/4 58/92/4
f 58/92/4 42/63/4 60/98/4
f 60/98/4 42/63/4 62/102/4
f 62/102/4 42/63/4 64/106/4
f 64/106/4 42/63/4 66/112/4
f 66/112/4 42/63/4 44/62/4
f 70/117/12 69/118/12 73/119/12 74/120/12
f 74/133/13 73/134/13 77/135/13 78/136/13
f 78/143/6 77/144/6 81/145/6 82/146/6
f 82/146/14 81/145/14 85/153/14 86/154/14
f 86/163/15 85/164/15 89/165/15 90/166/15
f 90/166/2 89/165/2 93/173/2 94/174/2
f 94/174/8 93/173/8 97/181/8 98/182/8
f 98/191/9 97/192/9 101/193/9 102/194/9
f 102/201/5 101/202/5 105/203/5 106/204/5
f 106/211/10 105/212/10 109/213/10 110/214/10
f 110/223/11 109/224/11 113/225/11 114/226/11
f 114/231/7 113/232/7 69/118/7 70/117/7
