# Made in Blockbench 5.1.6
mtllib sign.mtl

o cube
v 0.28125 2.421875 -0.21250000000000002
v 0.28125 2.421875 -0.275
v 0.28125 1.609375 -0.21250000000000002
v 0.28125 1.609375 -0.275
v -0.28125 2.421875 -0.275
v -0.28125 2.421875 -0.21250000000000002
v -0.28125 1.609375 -0.275
v -0.28125 1.609375 -0.21250000000000002
vt 0.53125 1
vt 0.671875 1
vt 0.671875 0.796875
vt 0.53125 0.796875
vt 0.53125 1
vt 0.546875 1
vt 0.546875 0.796875
vt 0.53125 0.796875
vt 0 1
vt 0.140625 1
vt 0.140625 0.796875
vt 0 0.796875
vt 0.53125 1
vt 0.546875 1
vt 0.546875 0.796875
vt 0.53125 0.796875
vt 0.53125 1
vt 0.671875 1
vt 0.671875 0.984375
vt 0.53125 0.984375
vt 0.53125 1
vt 0.671875 1
vt 0.671875 0.984375
vt 0.53125 0.984375
vn 0 0 -1
vn 1 0 0
vn 0 0 1
vn -1 0 0
vn 0 1 0
vn 0 -1 0
usemtl m_3d215661-f591-00a8-53e2-d8d611c756be
f 4/4/1 7/3/1 5/2/1 2/1/1
f 3/8/2 4/7/2 2/6/2 1/5/2
f 8/12/3 3/11/3 1/10/3 6/9/3
f 7/16/4 8/15/4 6/14/4 5/13/4
f 6/20/5 1/19/5 2/18/5 5/17/5
f 7/24/6 4/23/6 3/22/6 8/21/6
o cube
v 0.234375 2.365625 -0.275
v 0.234375 2.365625 -0.28125
v 0 2.015625 -0.275
v 0 2.015625 -0.28125
v 0.15625 2.365625 -0.275
v 0.15625 2.365625 -0.28125
v 0 2.125 -0.275
v 0 2.125 -0.28125
vt 0.6734375 0.8828125
vt 0.6734375 0.96875
vt 0.671875 0.96875
vt 0.671875 0.8828125
vt 0.671875 0.8828125
vt 0.671875 0.96875
vt 0.6703125 0.96875
vt 0.6703125 0.8828125
vt 0.6875 0.953125
vt 0.6875 0.9546875
vt 0.671875 0.9546875
vt 0.671875 0.953125
vt 0.6875 0.9515625
vt 0.6875 0.953125
vt 0.671875 0.953125
vt 0.671875 0.9515625
vt 0.6875 0.8828125
vt 0.6875 0.96875
vt 0.671875 0.96875
vt 0.671875 0.8828125
vt 0.671875 0.8828125
vt 0.671875 0.96875
vt 0.65625 0.96875
vt 0.65625 0.8828125
vn 0.8309071769755081 -0.556411056010385 0
vn -0.8386923819939369 0.5446054428532058 0
vn 0 1 0
vn -1 0 0
vn 0 0 1
vn 0 0 -1
usemtl m_3d215661-f591-00a8-53e2-d8d611c756be
f 12/25/7 10/26/7 9/27/7 11/28/7
f 15/29/8 13/30/8 14/31/8 16/32/8
f 9/33/9 10/34/9 14/35/9 13/36/9
f 12/37/10 11/38/10 15/39/10 16/40/10
f 11/41/11 9/42/11 13/43/11 15/44/11
f 16/45/12 14/46/12 10/47/12 12/48/12
o cube
v -0.234375 1.665625 -0.275
v -0.234375 1.665625 -0.28125
v -2.7755575615628914e-17 2.015625 -0.275
v -2.7755575615628914e-17 2.015625 -0.28125
v -0.15624999999999997 1.665625 -0.275
v -0.15624999999999997 1.665625 -0.28125
v 0 1.90625 -0.275
v 0 1.90625 -0.28125
vt 0.6734375 0.8828125
vt 0.6734375 0.96875
vt 0.671875 0.96875
vt 0.671875 0.8828125
vt 0.671875 0.8828125
vt 0.671875 0.96875
vt 0.6703125 0.96875
vt 0.6703125 0.8828125
vt 0.6875 0.953125
vt 0.6875 0.9546875
vt 0.671875 0.9546875
vt 0.671875 0.953125
vt 0.6875 0.9515625
vt 0.6875 0.953125
vt 0.671875 0.953125
vt 0.671875 0.9515625
vt 0.6875 0.8828125
vt 0.6875 0.96875
vt 0.671875 0.96875
vt 0.671875 0.8828125
vt 0.671875 0.8828125
vt 0.671875 0.96875
vt 0.65625 0.96875
vt 0.65625 0.8828125
vn -0.8309071769755082 0.5564110560103849 0
vn 0.838692381993937 -0.5446054428532057 0
vn 1.2246467991473532e-16 -1 0
vn 1 1.2246467991473532e-16 0
vn 0 0 1
vn 0 0 -1
usemtl m_3d215661-f591-00a8-53e2-d8d611c756be
f 20/49/13 18/50/13 17/51/13 19/52/13
f 23/53/14 21/54/14 22/55/14 24/56/14
f 17/57/15 18/58/15 22/59/15 21/60/15
f 20/61/16 19/62/16 23/63/16 24/64/16
f 19/65/17 17/66/17 21/67/17 23/68/17
f 24/69/18 22/70/18 18/71/18 20/72/18
o cube
v -0.15625 2.375 -0.275
v -0.15625 2.375 -0.28125
v 0 2.125 -0.275
v 0 2.125 -0.28125
v -0.234375 2.375 -0.275
v -0.234375 2.375 -0.28125
v 0 2.015625 -0.275
v 0 2.015625 -0.28125
vt 0.65703125 0.80078125
vt 0.65703125 0.859375
vt 0.65625 0.859375
vt 0.65625 0.80078125
vt 0.671875 0.80078125
vt 0.671875 0.859375
vt 0.67109375 0.859375
vt 0.67109375 0.80078125
vt 0.6875 0.83899453125
vt 0.6875 0.84001359375
vt 0.658203125 0.84001359375
vt 0.658203125 0.83899453125
vt 0.6875 0.8583559375
vt 0.6875 0.859375
vt 0.658203125 0.859375
vt 0.658203125 0.8583559375
vt 0.6875 0.80078125
vt 0.6875 0.859375
vt 0.658203125 0.859375
vt 0.658203125 0.80078125
vt 0.685546875 0.80078125
vt 0.685546875 0.859375
vt 0.65625 0.859375
vt 0.65625 0.80078125
vn 0.847998304005088 0.52999894000318 0
vn -0.8376105968386144 -0.5462677805469224 0
vn 0 1 0
vn 1 0 0
vn 0 0 1
vn 0 0 -1
usemtl m_3d215661-f591-00a8-53e2-d8d611c756be
f 28/73/19 26/74/19 25/75/19 27/76/19
f 31/77/20 29/78/20 30/79/20 32/80/20
f 25/81/21 26/82/21 30/83/21 29/84/21
f 28/85/22 27/86/22 31/87/22 32/88/22
f 27/89/23 25/90/23 29/91/23 31/92/23
f 32/93/24 30/94/24 26/95/24 28/96/24
o cube
v 0.15625000000000006 1.65625 -0.275
v 0.15625000000000006 1.65625 -0.28125
v 1.3877787807814457e-17 1.90625 -0.275
v 1.3877787807814457e-17 1.90625 -0.28125
v 0.23437500000000006 1.65625 -0.275
v 0.23437500000000006 1.65625 -0.28125
v 0 2.015625 -0.275
v 0 2.015625 -0.28125
vt 0.65703125 0.80078125
vt 0.65703125 0.859375
vt 0.65625 0.859375
vt 0.65625 0.80078125
vt 0.671875 0.80078125
vt 0.671875 0.859375
vt 0.67109375 0.859375
vt 0.67109375 0.80078125
vt 0.6875 0.83899453125
vt 0.6875 0.84001359375
vt 0.658203125 0.84001359375
vt 0.658203125 0.83899453125
vt 0.6875 0.8583559375
vt 0.6875 0.859375
vt 0.658203125 0.859375
vt 0.658203125 0.8583559375
vt 0.6875 0.80078125
vt 0.6875 0.859375
vt 0.658203125 0.859375
vt 0.658203125 0.80078125
vt 0.685546875 0.80078125
vt 0.685546875 0.859375
vt 0.65625 0.859375
vt 0.65625 0.80078125
vn -0.8479983040050879 -0.5299989400031802 0
vn 0.8376105968386143 0.5462677805469225 0
vn 1.2246467991473532e-16 -1 0
vn -1 -1.2246467991473532e-16 0
vn 0 0 1
vn 0 0 -1
usemtl m_3d215661-f591-00a8-53e2-d8d611c756be
f 36/97/25 34/98/25 33/99/25 35/100/25
f 39/101/26 37/102/26 38/103/26 40/104/26
f 33/105/27 34/106/27 38/107/27 37/108/27
f 36/109/28 35/110/28 39/111/28 40/112/28
f 35/113/29 33/114/29 37/115/29 39/116/29
f 40/117/30 38/118/30 34/119/30 36/120/30