# Blender 5.2.2 LTS
# www.blender.org
mtllib zs3_metal.mtl
o cube
v 0.000000 7.140625 -0.406251
v 0.000000 7.140625 -0.468751
v 0.437500 6.375000 -0.406250
v 0.437500 6.375000 -0.468750
v 0.000000 6.375000 -0.406250
v 0.000000 6.375000 -0.468750
v -0.437500 6.375000 -0.468750
v -0.437500 6.375000 -0.406250
vn 0.7196 -0.4176 -0.5548
vn -0.2158 0.8127 -0.5413
vn -0.2158 0.8126 0.5414
vn 0.7196 -0.4176 0.5548
vn -0.5774 -0.5773 0.5774
vn -0.2158 0.8127 0.5413
vn -0.2158 0.8126 -0.5414
vn -0.5774 -0.5774 -0.5773
vn -0.5774 -0.5773 0.5773
vn -0.5774 -0.5773 -0.5773
vn -0.7196 -0.4176 0.5548
vn 0.2158 0.8127 0.5413
vn 0.2158 0.8126 -0.5414
vn -0.7196 -0.4176 -0.5548
vn 0.5774 -0.5773 -0.5773
vn 0.5774 -0.5773 0.5773
vt 0.406250 0.511719
vt 0.406250 0.703125
vt 0.390625 0.703125
vt 0.390625 0.511719
vt 0.421875 0.511719
vt 0.421875 0.703125
vt 0.421875 0.671875
vt 0.421875 0.687500
vt 0.312500 0.687500
vt 0.312500 0.671875
vt 0.328125 0.703125
vt 0.328125 0.511719
vt 0.437500 0.511719
vt 0.875000 0.972656
vt 0.875000 0.781250
vt 0.984375 0.781250
vt 0.296875 0.703125
vt 0.296875 0.511719
s 1
usemtl m_3d215661-f591-00a8-53e2-d8d611c756be.002
f 4/1/1 2/2/2 1/3/3 3/4/4
f 5/5/5 1/6/6 2/2/7 6/1/8
f 4/7/1 3/8/4 5/9/9 6/10/10
f 1/11/3 5/12/9 3/13/4
f 2/14/2 4/15/1 6/16/10
f 8/1/11 1/2/12 2/3/13 7/4/14
f 8/7/11 7/8/14 6/9/15 5/10/16
f 2/14/13 6/16/15 7/15/14
f 1/17/12 8/1/11 5/18/16
o cube.001
v -0.164610 6.520014 -0.350001
v -0.164610 6.520014 -0.437501
v -0.296678 6.236793 -0.350000
v -0.296678 6.236793 -0.437500
v -0.192932 6.533221 -0.437501
v -0.192932 6.533221 -0.350001
v -0.325000 6.250000 -0.437500
v -0.325000 6.250000 -0.350000
vn -0.0000 -0.0000 -1.0000
vn 0.9063 -0.4226 -0.0000
vn -0.0000 -0.0000 1.0000
vn -0.9063 0.4226 -0.0000
vn 0.4226 0.9063 -0.0000
vn -0.4226 -0.9063 -0.0000
vt 0.562500 0.625000
vt 0.625000 0.625000
vt 0.625000 0.937500
vt 0.562500 0.937500
vt 0.468750 0.625000
vt 0.531250 0.625000
vt 0.531250 0.937500
vt 0.468750 0.937500
vt 0.343750 0.625000
vt 0.406250 0.625000
vt 0.406250 0.937500
vt 0.343750 0.937500
vt 0.093750 0.906250
vt 0.156250 0.906250
vt 0.156250 0.968750
vt 0.093750 0.968750
s 1
usemtl m_b2af6bd8-ffc8-ff72-7f7b-7b18782af15d.002
f 12/19/17 15/20/17 13/21/17 10/22/17
f 11/23/18 12/24/18 10/25/18 9/26/18
f 16/27/19 11/28/19 9/29/19 14/30/19
f 15/28/20 16/23/20 14/26/20 13/29/20
f 14/31/21 9/32/21 10/33/21 13/34/21
f 15/31/22 12/32/22 11/33/22 16/34/22
o cube.002
v 0.192932 6.533221 -0.350001
v 0.192932 6.533221 -0.437501
v 0.325000 6.250000 -0.350000
v 0.325000 6.250000 -0.437500
v 0.164610 6.520014 -0.437501
v 0.164610 6.520014 -0.350001
v 0.296678 6.236793 -0.437500
v 0.296678 6.236793 -0.350000
vn -0.0000 -0.0000 -1.0000
vn 0.9063 0.4226 -0.0000
vn -0.0000 -0.0000 1.0000
vn -0.9063 -0.4226 -0.0000
vn -0.4226 0.9063 -0.0000
vn 0.4226 -0.9063 -0.0000
vt 0.562500 0.625000
vt 0.625000 0.625000
vt 0.625000 0.937500
vt 0.562500 0.937500
vt 0.468750 0.625000
vt 0.531250 0.625000
vt 0.531250 0.937500
vt 0.468750 0.937500
vt 0.343750 0.625000
vt 0.406250 0.625000
vt 0.406250 0.937500
vt 0.343750 0.937500
vt 0.093750 0.906250
vt 0.156250 0.906250
vt 0.156250 0.968750
vt 0.093750 0.968750
s 1
usemtl m_b2af6bd8-ffc8-ff72-7f7b-7b18782af15d.002
f 20/35/23 23/36/23 21/37/23 18/38/23
f 19/39/24 20/40/24 18/41/24 17/42/24
f 24/43/25 19/44/25 17/45/25 22/46/25
f 23/44/26 24/39/26 22/42/26 21/45/26
f 22/47/27 17/48/27 18/49/27 21/50/27
f 23/47/28 20/48/28 19/49/28 24/50/28
o cube.003
v 0.328125 6.250000 -0.343750
v 0.328125 6.250000 -0.437500
v 0.328125 6.000000 -0.343750
v 0.328125 6.000000 -0.437500
v 0.296875 6.250000 -0.437500
v 0.296875 6.250000 -0.343750
v 0.296875 6.000000 -0.437500
v 0.296875 6.000000 -0.343750
vn -0.0000 -0.0000 -1.0000
vn 1.0000 -0.0000 -0.0000
vn -0.0000 -0.0000 1.0000
vn -1.0000 -0.0000 -0.0000
vn -0.0000 1.0000 -0.0000
vn -0.0000 -1.0000 -0.0000
vt 0.000000 0.750000
vt 0.031250 0.750000
vt 0.031250 1.000000
vt 0.000000 1.000000
vt 0.125000 0.750000
vt 0.125000 1.000000
vt 0.093750 0.750000
vt 0.093750 1.000000
vt 0.093750 0.906250
vt 0.125000 0.906250
vt 0.093750 0.875000
vt 0.125000 0.875000
vt 0.125000 0.968750
vt 0.093750 0.968750
s 1
usemtl m_b2af6bd8-ffc8-ff72-7f7b-7b18782af15d.002
f 28/51/29 31/52/29 29/53/29 26/54/29
f 27/52/30 28/55/30 26/56/30 25/53/30
f 32/57/31 27/55/31 25/56/31 30/58/31
f 31/51/32 32/57/32 30/58/32 29/54/32
f 30/59/33 25/60/33 26/56/33 29/58/33
f 31/61/34 28/62/34 27/63/34 32/64/34
o cube.004
v -0.296875 6.250000 -0.343750
v -0.296875 6.250000 -0.437500
v -0.296875 6.000000 -0.343750
v -0.296875 6.000000 -0.437500
v -0.328125 6.250000 -0.437500
v -0.328125 6.250000 -0.343750
v -0.328125 6.000000 -0.437500
v -0.328125 6.000000 -0.343750
vn -0.0000 -0.0000 -1.0000
vn 1.0000 -0.0000 -0.0000
vn -0.0000 -0.0000 1.0000
vn -1.0000 -0.0000 -0.0000
vn -0.0000 1.0000 -0.0000
vn -0.0000 -1.0000 -0.0000
vt 0.031250 0.750000
vt 0.062500 0.750000
vt 0.062500 1.000000
vt 0.031250 1.000000
vt 0.125000 0.750000
vt 0.125000 1.000000
vt 0.093750 0.750000
vt 0.093750 1.000000
vt 0.000000 0.750000
vt 0.000000 1.000000
vt 0.062500 0.906250
vt 0.093750 0.906250
vt 0.062500 0.875000
vt 0.093750 0.875000
vt 0.093750 0.968750
vt 0.062500 0.968750
s 1
usemtl m_b2af6bd8-ffc8-ff72-7f7b-7b18782af15d.002
f 36/65/35 39/66/35 37/67/35 34/68/35
f 35/65/36 36/69/36 34/70/36 33/68/36
f 40/66/37 35/71/37 33/72/37 38/67/37
f 39/73/38 40/71/38 38/72/38 37/74/38
f 38/75/39 33/76/39 34/72/39 37/67/39
f 39/77/40 36/78/40 35/79/40 40/80/40
