# Blender 5.2.2 LTS
# www.blender.org
mtllib zs3v_metal.mtl
o cube
v -0.000000 3.921875 -0.812500
v 0.000000 3.921875 -0.875000
v -0.437500 4.687500 -0.812500
v -0.437500 4.687500 -0.875000
v -0.000000 4.687500 -0.812500
v 0.000000 4.687500 -0.875000
v 0.437500 4.687500 -0.875000
v 0.437500 4.687500 -0.812500
v 0.062500 4.312500 -0.225000
v 0.062500 4.312500 -0.850000
v 0.062500 4.187500 -0.225000
v 0.062500 4.187500 -0.850000
v -0.062500 4.312500 -0.225000
v -0.062500 4.312500 -0.850000
v -0.062500 4.187500 -0.225000
v -0.062500 4.187500 -0.850000
v 0.059375 4.188172 -0.174553
v 0.059375 4.302129 -0.820833
v 0.059375 4.049684 -0.198973
v 0.059375 4.163640 -0.845253
v -0.059375 4.188172 -0.174553
v -0.059375 4.302129 -0.820833
v -0.059375 4.049684 -0.198973
v -0.059375 4.163640 -0.845253
vn -0.7196 0.4176 -0.5548
vn -0.8244 -0.4711 -0.3138
vn -0.8244 -0.4711 0.3138
vn -0.7196 0.4176 0.5548
vn 1.0000 -0.0000 -0.0000
vn -0.0000 0.7071 0.7071
vn -0.0000 0.7071 -0.7071
vn 0.7196 0.4176 0.5548
vn 0.8244 -0.4711 0.3138
vn 0.8244 -0.4711 -0.3138
vn 0.7196 0.4176 -0.5548
vn -1.0000 -0.0000 -0.0000
vn -0.0000 1.0000 -0.0000
vn -0.0000 -1.0000 -0.0000
vn -0.0000 -0.0000 1.0000
vn -0.0000 -0.0000 -1.0000
vn -0.0000 0.9848 0.1736
vn -0.0000 -0.9848 -0.1736
vn -0.0000 -0.1736 0.9848
vn -0.0000 0.1736 -0.9848
vt 0.406250 0.511719
vt 0.406250 0.703125
vt 0.390625 0.703125
vt 0.390625 0.511719
vt 0.421875 0.511719
vt 0.421875 0.703125
vt 0.421875 0.671875
vt 0.421875 0.687500
vt 0.312500 0.687500
vt 0.312500 0.671875
vt 0.328125 0.703125
vt 0.328125 0.511719
vt 0.437500 0.511719
vt 0.875000 0.972656
vt 0.875000 0.781250
vt 0.984375 0.781250
vt 0.296875 0.703125
vt 0.296875 0.511719
vt 0.625000 0.875000
vt 0.625000 1.000000
vt 0.000000 1.000000
vt 0.000000 0.875000
vt 0.125000 0.375000
vt 0.125000 1.000000
vt 0.000000 0.375000
vt 0.125000 0.875000
vt 0.703125 0.531250
vt 0.703125 0.562500
vt 0.562500 0.562500
vt 0.562500 0.531250
vt 0.592188 0.562500
vt 0.592188 0.703125
vt 0.562500 0.703125
vt 0.623438 0.671875
vt 0.623438 0.703125
vt 0.593750 0.703125
vt 0.593750 0.671875
s 1
usemtl m_3d215661-f591-00a8-53e2-d8d611c756be
f 4/1/1 2/2/2 1/3/3 3/4/4
f 5/5/5 1/6/5 2/2/5 6/1/5
f 4/7/1 3/8/4 5/9/6 6/10/7
f 1/11/3 5/12/6 3/13/4
f 2/14/2 4/15/1 6/16/7
f 8/1/8 1/2/9 2/3/10 7/4/11
f 8/7/8 7/8/11 6/9/7 5/10/6
f 2/14/10 6/16/7 7/15/11
f 1/17/9 8/1/8 5/18/6
f 20/27/5 18/28/5 17/29/5 19/30/5
f 23/27/12 21/28/12 22/29/12 24/30/12
f 17/31/17 18/32/17 22/33/17 21/29/17
f 20/31/18 19/32/18 23/33/18 24/29/18
f 19/34/19 17/35/19 21/36/19 23/37/19
f 24/34/20 22/35/20 18/36/20 20/37/20
usemtl m_b2af6bd8-ffc8-ff72-7f7b-7b18782af15d
f 12/19/5 10/20/5 9/21/5 11/22/5
f 15/19/12 13/20/12 14/21/12 16/22/12
f 9/23/13 10/24/13 14/21/13 13/25/13
f 12/23/14 11/24/14 15/21/14 16/25/14
f 11/26/15 9/24/15 13/21/15 15/22/15
f 16/26/16 14/24/16 10/21/16 12/22/16
