# Made in Blockbench 5.1.6
mtllib zs3v_matrix.mtl

o cube
v -0.1875 4.6875 -1.1
v -0.1875 4.6875 -1.225
v -0.1875 4.25 -1.1
v -0.25 4.6875 -1.1
v -0.25 4.6875 -1.225
v -0.25 4.25 -1.1
v 0.25 4.6875 -1.1
v 0.25 4.6875 -1.225
v 0.25 4.25 -1.1
v 0.1875 4.6875 -1.1
v 0.1875 4.6875 -1.225
v 0.1875 4.25 -1.1
v -0.1875 4.6875 -1.0375
v -0.1875 4.6875 -1.1
v -0.1875 4.25 -1.0375
v -0.1875 4.25 -1.1
v -0.25 4.6875 -1.0375
v -0.25 4.6875 -1.1
v -0.25 4.25 -1.0375
v -0.25 4.25 -1.1
v 0.171875 4.21875 -1.0375
v 0.171875 4.21875 -1.06875
v 0.171875 3.84375 -1.0375
v 0.171875 3.84375 -1.06875
v -0.17187499999999997 4.21875 -1.0375
v -0.17187499999999997 4.21875 -1.06875
v -0.17187499999999997 3.84375 -1.0375
v -0.17187499999999997 3.84375 -1.06875
v 0.28125 4.78125 -0.9750000000000001
v 0.28125 4.78125 -1.0375
v 0.28125 4.203125 -0.9750000000000001
v 0.28125 4.203125 -1.0375
v -0.28125 4.78125 -0.9750000000000001
v -0.28125 4.78125 -1.0375
v -0.28125 4.203125 -0.9750000000000001
v -0.28125 4.203125 -1.0375
v 0.25 4.75 -0.7875
v 0.25 4.75 -0.975
v 0.25 4.21875 -0.7875
v 0.25 4.21875 -0.975
v -0.25 4.75 -0.7875
v -0.25 4.75 -0.975
v -0.25 4.21875 -0.7875
v -0.25 4.21875 -0.975
v 0.25 4.75 -1.0375
v 0.25 4.75 -1.225
v 0.25 4.6875 -1.0375
v 0.25 4.6875 -1.225
v -0.25 4.75 -1.0375
v -0.25 4.75 -1.225
v -0.25 4.6875 -1.0375
v -0.25 4.6875 -1.225
v 0.25 4.6875 -1.0375
v 0.25 4.6875 -1.1
v 0.25 4.25 -1.0375
v 0.25 4.25 -1.1
v 0.1875 4.6875 -1.0375
v 0.1875 4.6875 -1.1
v 0.1875 4.25 -1.0375
v 0.1875 4.25 -1.1
v 0.1875 4.6875 -1.04375
v 0.1875 4.6875 -1.05
v 0.1875 4.25 -1.04375
v 0.1875 4.25 -1.05
v -0.1875 4.6875 -1.04375
v -0.1875 4.6875 -1.05
v -0.1875 4.25 -1.04375
v -0.1875 4.25 -1.05
v 0.05937500000000001 4.188172029194335 -0.17455305991764147
v 0.05937500000000001 4.334687679100807 -1.005484601521692
v 0.05937500000000001 4.0496834389269925 -0.19897233490205357
v 0.05937500000000001 4.196199088833465 -1.0299038765061042
v -0.05937500000000001 4.188172029194335 -0.17455305991764147
v -0.05937500000000001 4.334687679100807 -1.005484601521692
v -0.05937500000000001 4.0496834389269925 -0.19897233490205357
v -0.05937500000000001 4.196199088833465 -1.0299038765061042
v 0.0625 4.3125 -0.2250000000000001
v 0.0625 4.3125 -0.85
v 0.0625 4.1875 -0.2250000000000001
v 0.0625 4.1875 -0.85
v -0.0625 4.3125 -0.2250000000000001
v -0.0625 4.3125 -0.85
v -0.0625 4.1875 -0.2250000000000001
v -0.0625 4.1875 -0.85
vt 0.375 0.453125
vt 0.34375 0.453125
vt 0.375 0.3359375
vt 0.375 0.453125
vt 0.34375 0.453125
vt 0.34375 0.3359375
vt 0.421875 0.421875
vt 0.421875 0.4375
vt 0.40625 0.4375
vt 0.40625 0.421875
vt 0.3125 0.3359375
vt 0.3125 0.453125
vt 0.296875 0.453125
vt 0.296875 0.3359375
vt 0.3125 0.3359375
vt 0.3125 0.453125
vt 0.296875 0.453125
vt 0.296875 0.3359375
vt 0.375 0.453125
vt 0.34375 0.453125
vt 0.375 0.3359375
vt 0.375 0.453125
vt 0.34375 0.453125
vt 0.34375 0.3359375
vt 0.421875 0.421875
vt 0.421875 0.4375
vt 0.40625 0.4375
vt 0.40625 0.421875
vt 0.3125 0.3359375
vt 0.3125 0.453125
vt 0.296875 0.453125
vt 0.296875 0.3359375
vt 0.3125 0.3359375
vt 0.3125 0.453125
vt 0.296875 0.453125
vt 0.296875 0.3359375
vt 0.40625 0.3359375
vt 0.40625 0.453125
vt 0.390625 0.453125
vt 0.390625 0.3359375
vt 0.421875 0.3359375
vt 0.421875 0.453125
vt 0.40625 0.453125
vt 0.40625 0.3359375
vt 0.421875 0.421875
vt 0.421875 0.4375
vt 0.40625 0.4375
vt 0.40625 0.421875
vt 0.421875 0.4375
vt 0.421875 0.453125
vt 0.40625 0.453125
vt 0.40625 0.4375
vt 0.421875 0.3359375
vt 0.421875 0.453125
vt 0.40625 0.453125
vt 0.40625 0.3359375
vt 0.40625 0.3359375
vt 0.40625 0.453125
vt 0.390625 0.453125
vt 0.390625 0.3359375
vt 0.7734375 0.921875
vt 0.7734375 0.984375
vt 0.765625 0.984375
vt 0.765625 0.921875
vt 0.71875 0.921875
vt 0.71875 0.984375
vt 0.7265625 0.984375
vt 0.7265625 0.921875
vt 0.77734375 0.984375
vt 0.77734375 0.9921875
vt 0.72265625 0.9921875
vt 0.72265625 0.984375
vt 0.77734375 0.8984375
vt 0.77734375 0.90625
vt 0.72265625 0.90625
vt 0.72265625 0.8984375
vt 0.77734375 0.84375
vt 0.77734375 0.90625
vt 0.72265625 0.90625
vt 0.72265625 0.84375
vt 0.77734375 0.921875
vt 0.77734375 0.984375
vt 0.72265625 0.984375
vt 0.72265625 0.921875
vt 0.296875 0.5625
vt 0.296875 0.71875
vt 0.28125 0.71875
vt 0.28125 0.5625
vt 0.46875 0.5625
vt 0.46875 0.71875
vt 0.453125 0.71875
vt 0.453125 0.5625
vt 0.453125 0.5625
vt 0.453125 0.578125
vt 0.296875 0.578125
vt 0.296875 0.5625
vt 0.453125 0.703125
vt 0.453125 0.71875
vt 0.296875 0.71875
vt 0.296875 0.703125
vt 0.484375 0.328125
vt 0.484375 0.484375
vt 0.265625 0.484375
vt 0.265625 0.328125
vt 0.453125 0.5625
vt 0.453125 0.71875
vt 0.296875 0.71875
vt 0.296875 0.5625
vt 0.34375 0.484375
vt 0.34375 0.609375
vt 0.296875 0.609375
vt 0.296875 0.484375
vt 0.453125 0.484375
vt 0.453125 0.609375
vt 0.40625 0.609375
vt 0.40625 0.484375
vt 0.4375 0.515625
vt 0.4375 0.5625
vt 0.3125 0.5625
vt 0.3125 0.515625
vt 0.4375 0.515625
vt 0.4375 0.5625
vt 0.3125 0.5625
vt 0.3125 0.515625
vt 0.484375 0.328125
vt 0.484375 0.484375
vt 0.265625 0.484375
vt 0.265625 0.328125
vt 0.15625 0
vt 0.15625 0.15625
vt 0 0.15625
vt 0 0
vt 0.4375 0.59375
vt 0.4375 0.609375
vt 0.375 0.609375
vt 0.375 0.59375
vt 0.375 0.59375
vt 0.375 0.609375
vt 0.3125 0.609375
vt 0.3125 0.59375
vt 0.453125 0.625
vt 0.453125 0.6875
vt 0.3125 0.6875
vt 0.3125 0.625
vt 0.453125 0.625
vt 0.453125 0.6875
vt 0.3125 0.6875
vt 0.3125 0.625
vt 0.453125 0.609375
vt 0.453125 0.625
vt 0.3125 0.625
vt 0.3125 0.609375
vt 0.453125 0.609375
vt 0.453125 0.625
vt 0.3125 0.625
vt 0.3125 0.609375
vt 0.40625 0.3359375
vt 0.40625 0.453125
vt 0.390625 0.453125
vt 0.390625 0.3359375
vt 0.421875 0.3359375
vt 0.421875 0.453125
vt 0.40625 0.453125
vt 0.40625 0.3359375
vt 0.421875 0.421875
vt 0.421875 0.4375
vt 0.40625 0.4375
vt 0.40625 0.421875
vt 0.421875 0.4375
vt 0.421875 0.453125
vt 0.40625 0.453125
vt 0.40625 0.4375
vt 0.421875 0.3359375
vt 0.421875 0.453125
vt 0.40625 0.453125
vt 0.40625 0.3359375
vt 0.40625 0.3359375
vt 0.40625 0.453125
vt 0.390625 0.453125
vt 0.390625 0.3359375
vt 0.03125 0.0625
vt 0.03125 0.171875
vt 0.015625 0.171875
vt 0.015625 0.0625
vt 0.015625 0.0625
vt 0.015625 0.171875
vt 0 0.171875
vt 0 0.0625
vt 0.015625 0.140625
vt 0.015625 0.125
vt 0.109375 0.125
vt 0.109375 0.140625
vt 0.015625 0.09375
vt 0.015625 0.109375
vt 0.078125 0.109375
vt 0.078125 0.09375
vt 0.0625 0.109375
vt 0.0625 0.1875
vt 0 0.1875
vt 0 0.109375
vt 0.1875 0.203125
vt 0.1875 0.421875
vt 0 0.421875
vt 0 0.203125
vt 0.703125 0.53125
vt 0.703125 0.5625
vt 0.5625 0.5625
vt 0.5625 0.53125
vt 0.703125 0.53125
vt 0.703125 0.5625
vt 0.5625 0.5625
vt 0.5625 0.53125
vt 0.5921875 0.5625
vt 0.5921875 0.703125
vt 0.5625 0.703125
vt 0.5625 0.5625
vt 0.5921875 0.5625
vt 0.5921875 0.703125
vt 0.5625 0.703125
vt 0.5625 0.5625
vt 0.6234375 0.671875
vt 0.6234375 0.703125
vt 0.59375 0.703125
vt 0.59375 0.671875
vt 0.6234375 0.671875
vt 0.6234375 0.703125
vt 0.59375 0.703125
vt 0.59375 0.671875
vt 0.625 0.875
vt 0.625 1
vt 0 1
vt 0 0.875
vt 0.625 0.875
vt 0.625 1
vt 0 1
vt 0 0.875
vt 0.125 0.375
vt 0.125 1
vt 0 1
vt 0 0.375
vt 0.125 0.375
vt 0.125 1
vt 0 1
vt 0 0.375
vt 0.125 0.875
vt 0.125 1
vt 0 1
vt 0 0.875
vt 0.125 0.875
vt 0.125 1
vt 0 1
vt 0 0.875
vn 1 0 0
vn -1 0 0
vn 0 1 0
vn 0 0 1
vn 0 -0.27472112789737807 -0.9615239476408232
vn 1 0 0
vn -1 0 0
vn 0 1 0
vn 0 0 1
vn 0 -0.27472112789737807 -0.9615239476408232
vn 1 0 0
vn -1 0 0
vn 0 1 0
vn 0 -1 0
vn 0 0 1
vn 0 0 -1
vn 1 0 0
vn -1 0 0
vn 0 1 0
vn 0 -1 0
vn 0 0 1
vn 0 0 -1
vn 1 0 0
vn -1 0 0
vn 0 1 0
vn 0 -1 0
vn 0 0 1
vn 0 0 -1
vn 1 0 0
vn -1 0 0
vn 0 1 0
vn 0 -1 0
vn 0 0 1
vn 0 0 -1
vn 1 0 0
vn -1 0 0
vn 0 1 0
vn 0 -1 0
vn 0 0 1
vn 0 0 -1
vn 1 0 0
vn -1 0 0
vn 0 1 0
vn 0 -1 0
vn 0 0 1
vn 0 0 -1
vn 1 0 0
vn -1 0 0
vn 0 1 0
vn 0 -1 0
vn 0 0 1
vn 0 0 -1
vn 1 0 0
vn -1 0 0
vn 0 0.984807753012208 0.1736481776669305
vn 0 -0.984807753012208 -0.1736481776669305
vn 0 -0.17364817766692983 0.9848077530122082
vn 0 0.17364817766692983 -0.9848077530122082
vn 1 0 0
vn -1 0 0
vn 0 1 0
vn 0 -1 0
vn 0 0 1
vn 0 0 -1
usemtl m_3d215661-f591-00a8-53e2-d8d611c756be
f 2/1/1 1/2/1 3/3/1
f 4/4/2 5/5/2 6/6/2
f 1/7/3 2/8/3 5/9/3 4/10/3
f 3/11/4 1/12/4 4/13/4 6/14/4
f 6/15/5 5/16/5 2/17/5 3/18/5
f 8/19/6 7/20/6 9/21/6
f 10/22/7 11/23/7 12/24/7
f 7/25/8 8/26/8 11/27/8 10/28/8
f 9/29/9 7/30/9 10/31/9 12/32/9
f 12/33/10 11/34/10 8/35/10 9/36/10
f 16/37/11 14/38/11 13/39/11 15/40/11
f 19/41/12 17/42/12 18/43/12 20/44/12
f 13/45/13 14/46/13 18/47/13 17/48/13
f 16/49/14 15/50/14 19/51/14 20/52/14
f 15/53/15 13/54/15 17/55/15 19/56/15
f 20/57/16 18/58/16 14/59/16 16/60/16
f 24/61/17 22/62/17 21/63/17 23/64/17
f 27/65/18 25/66/18 26/67/18 28/68/18
f 21/69/19 22/70/19 26/71/19 25/72/19
f 24/73/20 23/74/20 27/75/20 28/76/20
f 23/77/21 21/78/21 25/79/21 27/80/21
f 28/81/22 26/82/22 22/83/22 24/84/22
f 32/85/23 30/86/23 29/87/23 31/88/23
f 35/89/24 33/90/24 34/91/24 36/92/24
f 29/93/25 30/94/25 34/95/25 33/96/25
f 32/97/26 31/98/26 35/99/26 36/100/26
f 31/101/27 29/102/27 33/103/27 35/104/27
f 36/105/28 34/106/28 30/107/28 32/108/28
f 40/109/29 38/110/29 37/111/29 39/112/29
f 43/113/30 41/114/30 42/115/30 44/116/30
f 37/117/31 38/118/31 42/119/31 41/120/31
f 40/121/32 39/122/32 43/123/32 44/124/32
f 39/125/33 37/126/33 41/127/33 43/128/33
f 44/129/34 42/130/34 38/131/34 40/132/34
f 48/133/35 46/134/35 45/135/35 47/136/35
f 51/137/36 49/138/36 50/139/36 52/140/36
f 45/141/37 46/142/37 50/143/37 49/144/37
f 48/145/38 47/146/38 51/147/38 52/148/38
f 47/149/39 45/150/39 49/151/39 51/152/39
f 52/153/40 50/154/40 46/155/40 48/156/40
f 56/157/41 54/158/41 53/159/41 55/160/41
f 59/161/42 57/162/42 58/163/42 60/164/42
f 53/165/43 54/166/43 58/167/43 57/168/43
f 56/169/44 55/170/44 59/171/44 60/172/44
f 55/173/45 53/174/45 57/175/45 59/176/45
f 60/177/46 58/178/46 54/179/46 56/180/46
f 64/181/47 62/182/47 61/183/47 63/184/47
f 67/185/48 65/186/48 66/187/48 68/188/48
f 61/189/49 62/190/49 66/191/49 65/192/49
f 64/193/50 63/194/50 67/195/50 68/196/50
f 63/197/51 61/198/51 65/199/51 67/200/51
f 68/201/52 66/202/52 62/203/52 64/204/52
f 72/205/53 70/206/53 69/207/53 71/208/53
f 75/209/54 73/210/54 74/211/54 76/212/54
f 69/213/55 70/214/55 74/215/55 73/216/55
f 72/217/56 71/218/56 75/219/56 76/220/56
f 71/221/57 69/222/57 73/223/57 75/224/57
f 76/225/58 74/226/58 70/227/58 72/228/58
usemtl m_b2af6bd8-ffc8-ff72-7f7b-7b18782af15d
f 80/229/59 78/230/59 77/231/59 79/232/59
f 83/233/60 81/234/60 82/235/60 84/236/60
f 77/237/61 78/238/61 82/239/61 81/240/61
f 80/241/62 79/242/62 83/243/62 84/244/62
f 79/245/63 77/246/63 81/247/63 83/248/63
f 84/249/64 82/250/64 78/251/64 80/252/64