# Made in Blockbench 5.2.0
mtllib lf_6.mtl

o cube
v 0.5 2.5625 -0.0625
v 0.5 2.5625 -0.125
v 0 1.75 -0.0625
v 0 1.75 -0.125
v 0 2.5625 -0.0625
v 0 2.5625 -0.125
vt 0.0078125 0.890625
vt 0.0078125 1
vt 0 1
vt 0 0.890625
vt 0.265625 0.84375
vt 0.265625 0.953125
vt 0.2578125 0.953125
vt 0.2578125 0.84375
vt 0.0625 0.984375
vt 0.0625 0.9921875
vt 0 0.9921875
vt 0 0.984375
vt 1 1
vt 0.875 1
vt 0.875 0.78125
vt 1 0.75
vt 0.75 0.75
vt 0.75 0.3125
vn 0.851658316704544 -0.5240974256643347 0
vn -1 0 0
vn 0 1 0
vn 0 0 1
vn 0 0 -1
usemtl m_057dd141-44a2-0c03-6f69-6165d6f9e1a2
f 4/1/1 2/2/1 1/3/1 3/4/1
f 3/5/2 5/6/2 6/7/2 4/8/2
f 1/9/3 2/10/3 6/11/3 5/12/3
f 1/13/4 5/14/4 3/15/4
f 6/16/5 2/17/5 4/18/5
o cube
v -0.5 2.5625 -0.12499999999999994
v -0.5 2.5625 -0.062499999999999944
v -6.938893903907228e-18 1.75 -0.125
v 0 1.75 -0.06250000000000001
v -6.938893903907228e-18 2.5625 -0.125
v 0 2.5625 -0.06250000000000001
vt 0.0078125 0.890625
vt 0.0078125 1
vt 0 1
vt 0 0.890625
vt 0.265625 0.78125
vt 0.265625 0.890625
vt 0.2578125 0.890625
vt 0.2578125 0.78125
vt 0.0625 0.984375
vt 0.0625 0.9921875
vt 0 0.9921875
vt 0 0.984375
vt 0.75 0.75
vt 1 0.75
vt 0.75 0.3125
vt 1 1
vt 0.875 1
vt 1 0.78125
vn -0.851658316704544 -0.5240974256643347 1.0429806315194425e-16
vn 1 0 -1.2246467991473532e-16
vn 0 1 0
vn -1.2246467991473532e-16 0 -1
vn 1.2246467991473532e-16 0 1
usemtl m_057dd141-44a2-0c03-6f69-6165d6f9e1a2
f 10/19/6 8/20/6 7/21/6 9/22/6
f 9/23/7 11/24/7 12/25/7 10/26/7
f 7/27/8 8/28/8 12/29/8 11/30/8
f 7/31/9 11/32/9 9/33/9
f 12/34/10 8/35/10 10/36/10
o cube
v 0.1875 2.49375 0
v 0.1875 2.49375 -0.0625
v 0.1875 2.43125 0
v 0.1875 2.43125 -0.0625
v -0.1875 2.49375 -0.0625
v -0.1875 2.49375 0
v -0.1875 2.43125 -0.0625
v -0.1875 2.43125 0
vt 0.375 0.8125
vt 0.75 0.8125
vt 0.75 0.75
vt 0.375 0.75
vt 0.4375 0.8125
vt 0.5 0.8125
vt 0.5 0.75
vt 0.4375 0.75
vt 0.375 0.8125
vt 0.75 0.8125
vt 0.75 0.75
vt 0.375 0.75
vt 0.375 0.8125
vt 0.4375 0.8125
vt 0.4375 0.75
vt 0.375 0.75
vt 0.375 0.8125
vt 0.75 0.8125
vt 0.75 0.75
vt 0.375 0.75
vt 0.375 0.75
vt 0.75 0.75
vt 0.75 0.6875
vt 0.375 0.6875
vn 0 0 -1
vn 1 0 0
vn 0 0 1
vn -1 0 0
vn 0 1 0
vn 0 -1 0
usemtl m_16830594-a67c-fbd7-af60-7f51c1d503f8
f 16/40/11 19/39/11 17/38/11 14/37/11
f 15/44/12 16/43/12 14/42/12 13/41/12
f 20/48/13 15/47/13 13/46/13 18/45/13
f 19/52/14 20/51/14 18/50/14 17/49/14
f 18/56/15 13/55/15 14/54/15 17/53/15
f 19/60/16 16/59/16 15/58/16 20/57/16
o cube
v 0.1875 2.1875 0
v 0.1875 2.1875 -0.0625
v 0.1875 2.125 0
v 0.1875 2.125 -0.0625
v -0.1875 2.1875 -0.0625
v -0.1875 2.1875 0
v -0.1875 2.125 -0.0625
v -0.1875 2.125 0
vt 0.375 0.8125
vt 0.75 0.8125
vt 0.75 0.75
vt 0.375 0.75
vt 0.4375 0.8125
vt 0.5 0.8125
vt 0.5 0.75
vt 0.4375 0.75
vt 0.375 0.8125
vt 0.75 0.8125
vt 0.75 0.75
vt 0.375 0.75
vt 0.375 0.8125
vt 0.4375 0.8125
vt 0.4375 0.75
vt 0.375 0.75
vt 0.375 0.8125
vt 0.75 0.8125
vt 0.75 0.75
vt 0.375 0.75
vt 0.375 0.75
vt 0.75 0.75
vt 0.75 0.6875
vt 0.375 0.6875
vn 0 0 -1
vn 1 0 0
vn 0 0 1
vn -1 0 0
vn 0 1 0
vn 0 -1 0
usemtl m_16830594-a67c-fbd7-af60-7f51c1d503f8
f 24/64/17 27/63/17 25/62/17 22/61/17
f 23/68/18 24/67/18 22/66/18 21/65/18
f 28/72/19 23/71/19 21/70/19 26/69/19
f 27/76/20 28/75/20 26/74/20 25/73/20
f 26/80/21 21/79/21 22/78/21 25/77/21
f 27/84/22 24/83/22 23/82/22 28/81/22
o cylinder
v 0 0 0
v 0 1 0
v 0.025888125 0 0.0625
v 0.025888125 1 0.0625
v 0.0625 0 0.025888125
v 0.0625 1 0.025888125
v 0.0625 0 -0.025888125
v 0.0625 1 -0.025888125
v 0.025888125 0 -0.0625
v 0.025888125 1 -0.0625
v -0.025888125 0 -0.0625
v -0.025888125 1 -0.0625
v -0.0625 0 -0.025888125
v -0.0625 1 -0.025888125
v -0.0625 0 0.025888125
v -0.0625 1 0.025888125
v -0.025888125 0 0.0625
v -0.025888125 1 0.0625
vt 0.317649375 0.95216375
vt 0.297834375 1
vt 0.25 0.95216375
vt 0.25 0
vt 0.301775 0
vt 0.301775 1
vt 0.25 1
vt 0.25 0.932350625
vt 0.29783625 0.952165625
vt 0.25 1
vt 0.3125 0.948225
vt 0.3125 1
vt 0.25 0.9741125
vt 0.25 0
vt 0.301775 0
vt 0.301775 1
vt 0.25 1
vt 0.3125 0.948225
vt 0.3125 1
vt 0.25 0.9741125
vt 0.25 0.932350625
vt 0.29783625 0.952165625
vt 0.25 1
vt 0.25 0
vt 0.301775 0
vt 0.301775 1
vt 0.25 1
vt 0.317649375 0.95216375
vt 0.297834375 1
vt 0.25 0.95216375
vt 0.25 0.9375
vt 0.301775 0.9375
vt 0.2758875 1
vt 0.25 0
vt 0.301775 0
vt 0.301775 1
vt 0.25 1
vt 0.301775 1
vt 0.25 1
vt 0.2758875 0.9375
vt 0.25 1
vt 0.269815 0.95216375
vt 0.317649375 1
vt 0.25 0
vt 0.301775 0
vt 0.301775 1
vt 0.25 1
vt 0.29783625 1
vt 0.25 0.980185
vt 0.29783625 0.932350625
vt 0.25 1
vt 0.25 0.948225
vt 0.3125 0.9741125
vt 0.25 0
vt 0.301775 0
vt 0.301775 1
vt 0.25 1
vt 0.25 1
vt 0.25 0.948225
vt 0.3125 0.9741125
vt 0.29783625 1
vt 0.25 0.980185
vt 0.29783625 0.932350625
vt 0.25 0
vt 0.301775 0
vt 0.301775 1
vt 0.25 1
vt 0.25 1
vt 0.269815 0.95216375
vt 0.317649375 1
vt 0.301775 1
vt 0.25 1
vt 0.2758875 0.9375
vt 0.25 0
vt 0.301775 0
vt 0.301775 1
vt 0.25 1
vt 0.25 0.9375
vt 0.301775 0.9375
vt 0.2758875 1
vn 0 -1 0
vn 0.7071067811865476 0 0.7071067811865476
vn 0 1 0
vn 0 -1 0
vn 1 0 0
vn 0 1 0
vn 0 -1 0
vn 0.7071067811865476 0 -0.7071067811865476
vn 0 1 0
vn 0 -1 0
vn 0 0 -1
vn 0 1 0
vn 0 -1 0
vn -0.7071067811865476 0 -0.7071067811865476
vn 0 1 0
vn 0 -1 0
vn -1 0 0
vn 0 1 0
vn 0 -1 0
vn -0.7071067811865476 0 0.7071067811865476
vn 0 1 0
vn 0 -1 0
vn 0 0 1
vn 0 1 0
usemtl m_16830594-a67c-fbd7-af60-7f51c1d503f8
f 33/85/23 31/86/23 29/87/23
f 31/88/24 33/89/24 34/90/24 32/91/24
f 32/92/25 34/93/25 30/94/25
f 35/95/26 33/96/26 29/97/26
f 33/98/27 35/99/27 36/100/27 34/101/27
f 34/102/28 36/103/28 30/104/28
f 37/105/29 35/106/29 29/107/29
f 35/108/30 37/109/30 38/110/30 36/111/30
f 36/112/31 38/113/31 30/114/31
f 39/115/32 37/116/32 29/117/32
f 37/118/33 39/119/33 40/120/33 38/121/33
f 38/122/34 40/123/34 30/124/34
f 41/125/35 39/126/35 29/127/35
f 39/128/36 41/129/36 42/130/36 40/131/36
f 40/132/37 42/133/37 30/134/37
f 43/135/38 41/136/38 29/137/38
f 41/138/39 43/139/39 44/140/39 42/141/39
f 42/142/40 44/143/40 30/144/40
f 45/145/41 43/146/41 29/147/41
f 43/148/42 45/149/42 46/150/42 44/151/42
f 44/152/43 46/153/43 30/154/43
f 31/155/44 45/156/44 29/157/44
f 45/158/45 31/159/45 32/160/45 46/161/45
f 46/162/46 32/163/46 30/164/46
o cylinder
v 0 1 0
v 0 2 0
v 0.025888125 1 0.0625
v 0.025888125 2 0.0625
v 0.0625 1 0.025888125
v 0.0625 2 0.025888125
v 0.0625 1 -0.025888125
v 0.0625 2 -0.025888125
v 0.025888125 1 -0.0625
v 0.025888125 2 -0.0625
v -0.025888125 1 -0.0625
v -0.025888125 2 -0.0625
v -0.0625 1 -0.025888125
v -0.0625 2 -0.025888125
v -0.0625 1 0.025888125
v -0.0625 2 0.025888125
v -0.025888125 1 0.0625
v -0.025888125 2 0.0625
vt 0.317649375 0.95216375
vt 0.297834375 1
vt 0.25 0.95216375
vt 0.25 0
vt 0.301775 0
vt 0.301775 1
vt 0.25 1
vt 0.25 0.932350625
vt 0.29783625 0.952165625
vt 0.25 1
vt 0.3125 0.948225
vt 0.3125 1
vt 0.25 0.9741125
vt 0.25 0
vt 0.301775 0
vt 0.301775 1
vt 0.25 1
vt 0.3125 0.948225
vt 0.3125 1
vt 0.25 0.9741125
vt 0.25 0.932350625
vt 0.29783625 0.952165625
vt 0.25 1
vt 0.25 0
vt 0.301775 0
vt 0.301775 1
vt 0.25 1
vt 0.317649375 0.95216375
vt 0.297834375 1
vt 0.25 0.95216375
vt 0.25 0.9375
vt 0.301775 0.9375
vt 0.2758875 1
vt 0.25 0
vt 0.301775 0
vt 0.301775 1
vt 0.25 1
vt 0.301775 1
vt 0.25 1
vt 0.2758875 0.9375
vt 0.25 1
vt 0.269815 0.95216375
vt 0.317649375 1
vt 0.25 0
vt 0.301775 0
vt 0.301775 1
vt 0.25 1
vt 0.29783625 1
vt 0.25 0.980185
vt 0.29783625 0.932350625
vt 0.25 1
vt 0.25 0.948225
vt 0.3125 0.9741125
vt 0.25 0
vt 0.301775 0
vt 0.301775 1
vt 0.25 1
vt 0.25 1
vt 0.25 0.948225
vt 0.3125 0.9741125
vt 0.29783625 1
vt 0.25 0.980185
vt 0.29783625 0.932350625
vt 0.25 0
vt 0.301775 0
vt 0.301775 1
vt 0.25 1
vt 0.25 1
vt 0.269815 0.95216375
vt 0.317649375 1
vt 0.301775 1
vt 0.25 1
vt 0.2758875 0.9375
vt 0.25 0
vt 0.301775 0
vt 0.301775 1
vt 0.25 1
vt 0.25 0.9375
vt 0.301775 0.9375
vt 0.2758875 1
vn 0 -1 0
vn 0.7071067811865476 0 0.7071067811865476
vn 0 1 0
vn 0 -1 0
vn 1 0 0
vn 0 1 0
vn 0 -1 0
vn 0.7071067811865476 0 -0.7071067811865476
vn 0 1 0
vn 0 -1 0
vn 0 0 -1
vn 0 1 0
vn 0 -1 0
vn -0.7071067811865476 0 -0.7071067811865476
vn 0 1 0
vn 0 -1 0
vn -1 0 0
vn 0 1 0
vn 0 -1 0
vn -0.7071067811865476 0 0.7071067811865476
vn 0 1 0
vn 0 -1 0
vn 0 0 1
vn 0 1 0
usemtl m_16830594-a67c-fbd7-af60-7f51c1d503f8
f 51/165/47 49/166/47 47/167/47
f 49/168/48 51/169/48 52/170/48 50/171/48
f 50/172/49 52/173/49 48/174/49
f 53/175/50 51/176/50 47/177/50
f 51/178/51 53/179/51 54/180/51 52/181/51
f 52/182/52 54/183/52 48/184/52
f 55/185/53 53/186/53 47/187/53
f 53/188/54 55/189/54 56/190/54 54/191/54
f 54/192/55 56/193/55 48/194/55
f 57/195/56 55/196/56 47/197/56
f 55/198/57 57/199/57 58/200/57 56/201/57
f 56/202/58 58/203/58 48/204/58
f 59/205/59 57/206/59 47/207/59
f 57/208/60 59/209/60 60/210/60 58/211/60
f 58/212/61 60/213/61 48/214/61
f 61/215/62 59/216/62 47/217/62
f 59/218/63 61/219/63 62/220/63 60/221/63
f 60/222/64 62/223/64 48/224/64
f 63/225/65 61/226/65 47/227/65
f 61/228/66 63/229/66 64/230/66 62/231/66
f 62/232/67 64/233/67 48/234/67
f 49/235/68 63/236/68 47/237/68
f 63/238/69 49/239/69 50/240/69 64/241/69
f 64/242/70 50/243/70 48/244/70
o cylinder
v 0 2 0
v 0 2.5 0
v 0.025888125 2 0.0625
v 0.025888125 2.5 0.0625
v 0.0625 2 0.025888125
v 0.0625 2.5 0.025888125
v 0.0625 2 -0.025888125
v 0.0625 2.5 -0.025888125
v 0.025888125 2 -0.0625
v 0.025888125 2.5 -0.0625
v -0.025888125 2 -0.0625
v -0.025888125 2.5 -0.0625
v -0.0625 2 -0.025888125
v -0.0625 2.5 -0.025888125
v -0.0625 2 0.025888125
v -0.0625 2.5 0.025888125
v -0.025888125 2 0.0625
v -0.025888125 2.5 0.0625
vt 0.630149375 0.976081875
vt 0.610334375 1
vt 0.5625 0.976081875
vt 0.5625 0.5
vt 0.614275 0.5
vt 0.614275 1
vt 0.5625 1
vt 0.5625 0.966175625
vt 0.61033625 0.976083125
vt 0.5625 1
vt 0.625 0.9741125
vt 0.625 1
vt 0.5625 0.98705625
vt 0.5625 0.5
vt 0.614275 0.5
vt 0.614275 1
vt 0.5625 1
vt 0.625 0.9741125
vt 0.625 1
vt 0.5625 0.98705625
vt 0.5625 0.966175625
vt 0.61033625 0.976083125
vt 0.5625 1
vt 0.5625 0.5
vt 0.614275 0.5
vt 0.614275 1
vt 0.5625 1
vt 0.630149375 0.976081875
vt 0.610334375 1
vt 0.5625 0.976081875
vt 0.5625 0.96875
vt 0.614275 0.96875
vt 0.5883875 1
vt 0.5625 0.5
vt 0.614275 0.5
vt 0.614275 1
vt 0.5625 1
vt 0.614275 1
vt 0.5625 1
vt 0.5883875 0.96875
vt 0.5625 1
vt 0.582315 0.976081875
vt 0.630149375 1
vt 0.5625 0.5
vt 0.614275 0.5
vt 0.614275 1
vt 0.5625 1
vt 0.61033625 1
vt 0.5625 0.9900925
vt 0.61033625 0.966175625
vt 0.5625 1
vt 0.5625 0.9741125
vt 0.625 0.98705625
vt 0.5625 0.5
vt 0.614275 0.5
vt 0.614275 1
vt 0.5625 1
vt 0.5625 1
vt 0.5625 0.9741125
vt 0.625 0.98705625
vt 0.61033625 1
vt 0.5625 0.9900925
vt 0.61033625 0.966175625
vt 0.5625 0.5
vt 0.614275 0.5
vt 0.614275 1
vt 0.5625 1
vt 0.5625 1
vt 0.582315 0.976081875
vt 0.630149375 1
vt 0.614275 1
vt 0.5625 1
vt 0.5883875 0.96875
vt 0.5625 0.5
vt 0.614275 0.5
vt 0.614275 1
vt 0.5625 1
vt 0.5625 0.96875
vt 0.614275 0.96875
vt 0.5883875 1
vn 0 -1 0
vn 0.7071067811865476 0 0.7071067811865476
vn 0 1 0
vn 0 -1 0
vn 1 0 0
vn 0 1 0
vn 0 -1 0
vn 0.7071067811865476 0 -0.7071067811865476
vn 0 1 0
vn 0 -1 0
vn 0 0 -1
vn 0 1 0
vn 0 -1 0
vn -0.7071067811865476 0 -0.7071067811865476
vn 0 1 0
vn 0 -1 0
vn -1 0 0
vn 0 1 0
vn 0 -1 0
vn -0.7071067811865476 0 0.7071067811865476
vn 0 1 0
vn 0 -1 0
vn 0 0 1
vn 0 1 0
usemtl m_16830594-a67c-fbd7-af60-7f51c1d503f8
f 69/245/71 67/246/71 65/247/71
f 67/248/72 69/249/72 70/250/72 68/251/72
f 68/252/73 70/253/73 66/254/73
f 71/255/74 69/256/74 65/257/74
f 69/258/75 71/259/75 72/260/75 70/261/75
f 70/262/76 72/263/76 66/264/76
f 73/265/77 71/266/77 65/267/77
f 71/268/78 73/269/78 74/270/78 72/271/78
f 72/272/79 74/273/79 66/274/79
f 75/275/80 73/276/80 65/277/80
f 73/278/81 75/279/81 76/280/81 74/281/81
f 74/282/82 76/283/82 66/284/82
f 77/285/83 75/286/83 65/287/83
f 75/288/84 77/289/84 78/290/84 76/291/84
f 76/292/85 78/293/85 66/294/85
f 79/295/86 77/296/86 65/297/86
f 77/298/87 79/299/87 80/300/87 78/301/87
f 78/302/88 80/303/88 66/304/88
f 81/305/89 79/306/89 65/307/89
f 79/308/90 81/309/90 82/310/90 80/311/90
f 80/312/91 82/313/91 66/314/91
f 67/315/92 81/316/92 65/317/92
f 81/318/93 67/319/93 68/320/93 82/321/93
f 82/322/94 68/323/94 66/324/94