# Made in Blockbench 5.2.0
mtllib lf_7.mtl

o cube
v 0.21875 2.625 -0.0625
v 0.21875 2.625 -0.125
v 0.21875 2 -0.0625
v 0.21875 2 -0.125
v -0.21875 2.625 -0.125
v -0.21875 2.625 -0.0625
v -0.21875 2 -0.125
v -0.21875 2 -0.0625
vt 0 1
vt 0.21875 1
vt 0.21875 0.6875
vt 0 0.6875
vt 0.890625 1
vt 0.90625 1
vt 0.90625 0.84375
vt 0.890625 0.84375
vt 0.890625 1
vt 1 1
vt 1 0.84375
vt 0.890625 0.84375
vt 0.984375 1
vt 1 1
vt 1 0.84375
vt 0.984375 0.84375
vt 0.890625 1
vt 1 1
vt 1 0.984375
vt 0.890625 0.984375
vt 0.890625 0.859375
vt 1 0.859375
vt 1 0.84375
vt 0.890625 0.84375
vn 0 0 -1
vn 1 0 0
vn 0 0 1
vn -1 0 0
vn 0 1 0
vn 0 -1 0
usemtl m_057dd141-44a2-0c03-6f69-6165d6f9e1a2
f 4/4/1 7/3/1 5/2/1 2/1/1
f 3/8/2 4/7/2 2/6/2 1/5/2
f 8/12/3 3/11/3 1/10/3 6/9/3
f 7/16/4 8/15/4 6/14/4 5/13/4
f 6/20/5 1/19/5 2/18/5 5/17/5
f 7/24/6 4/23/6 3/22/6 8/21/6
o cylinder
v 0 0 0
v 0 1 0
v 0.025888125 0 0.0625
v 0.025888125 1 0.0625
v 0.0625 0 0.025888125
v 0.0625 1 0.025888125
v 0.0625 0 -0.025888125
v 0.0625 1 -0.025888125
v 0.025888125 0 -0.0625
v 0.025888125 1 -0.0625
v -0.025888125 0 -0.0625
v -0.025888125 1 -0.0625
v -0.0625 0 -0.025888125
v -0.0625 1 -0.025888125
v -0.0625 0 0.025888125
v -0.0625 1 0.025888125
v -0.025888125 0 0.0625
v -0.025888125 1 0.0625
vt 0.317649375 0.95216375
vt 0.297834375 1
vt 0.25 0.95216375
vt 0.25 0
vt 0.301775 0
vt 0.301775 1
vt 0.25 1
vt 0.25 0.932350625
vt 0.29783625 0.952165625
vt 0.25 1
vt 0.3125 0.948225
vt 0.3125 1
vt 0.25 0.9741125
vt 0.25 0
vt 0.301775 0
vt 0.301775 1
vt 0.25 1
vt 0.3125 0.948225
vt 0.3125 1
vt 0.25 0.9741125
vt 0.25 0.932350625
vt 0.29783625 0.952165625
vt 0.25 1
vt 0.25 0
vt 0.301775 0
vt 0.301775 1
vt 0.25 1
vt 0.317649375 0.95216375
vt 0.297834375 1
vt 0.25 0.95216375
vt 0.25 0.9375
vt 0.301775 0.9375
vt 0.2758875 1
vt 0.25 0
vt 0.301775 0
vt 0.301775 1
vt 0.25 1
vt 0.301775 1
vt 0.25 1
vt 0.2758875 0.9375
vt 0.25 1
vt 0.269815 0.95216375
vt 0.317649375 1
vt 0.25 0
vt 0.301775 0
vt 0.301775 1
vt 0.25 1
vt 0.29783625 1
vt 0.25 0.980185
vt 0.29783625 0.932350625
vt 0.25 1
vt 0.25 0.948225
vt 0.3125 0.9741125
vt 0.25 0
vt 0.301775 0
vt 0.301775 1
vt 0.25 1
vt 0.25 1
vt 0.25 0.948225
vt 0.3125 0.9741125
vt 0.29783625 1
vt 0.25 0.980185
vt 0.29783625 0.932350625
vt 0.25 0
vt 0.301775 0
vt 0.301775 1
vt 0.25 1
vt 0.25 1
vt 0.269815 0.95216375
vt 0.317649375 1
vt 0.301775 1
vt 0.25 1
vt 0.2758875 0.9375
vt 0.25 0
vt 0.301775 0
vt 0.301775 1
vt 0.25 1
vt 0.25 0.9375
vt 0.301775 0.9375
vt 0.2758875 1
vn 0 -1 0
vn 0.7071067811865476 0 0.7071067811865476
vn 0 1 0
vn 0 -1 0
vn 1 0 0
vn 0 1 0
vn 0 -1 0
vn 0.7071067811865476 0 -0.7071067811865476
vn 0 1 0
vn 0 -1 0
vn 0 0 -1
vn 0 1 0
vn 0 -1 0
vn -0.7071067811865476 0 -0.7071067811865476
vn 0 1 0
vn 0 -1 0
vn -1 0 0
vn 0 1 0
vn 0 -1 0
vn -0.7071067811865476 0 0.7071067811865476
vn 0 1 0
vn 0 -1 0
vn 0 0 1
vn 0 1 0
usemtl m_16830594-a67c-fbd7-af60-7f51c1d503f8
f 13/25/7 11/26/7 9/27/7
f 11/28/8 13/29/8 14/30/8 12/31/8
f 12/32/9 14/33/9 10/34/9
f 15/35/10 13/36/10 9/37/10
f 13/38/11 15/39/11 16/40/11 14/41/11
f 14/42/12 16/43/12 10/44/12
f 17/45/13 15/46/13 9/47/13
f 15/48/14 17/49/14 18/50/14 16/51/14
f 16/52/15 18/53/15 10/54/15
f 19/55/16 17/56/16 9/57/16
f 17/58/17 19/59/17 20/60/17 18/61/17
f 18/62/18 20/63/18 10/64/18
f 21/65/19 19/66/19 9/67/19
f 19/68/20 21/69/20 22/70/20 20/71/20
f 20/72/21 22/73/21 10/74/21
f 23/75/22 21/76/22 9/77/22
f 21/78/23 23/79/23 24/80/23 22/81/23
f 22/82/24 24/83/24 10/84/24
f 25/85/25 23/86/25 9/87/25
f 23/88/26 25/89/26 26/90/26 24/91/26
f 24/92/27 26/93/27 10/94/27
f 11/95/28 25/96/28 9/97/28
f 25/98/29 11/99/29 12/100/29 26/101/29
f 26/102/30 12/103/30 10/104/30
o cylinder
v 0 1 0
v 0 2 0
v 0.025888125 1 0.0625
v 0.025888125 2 0.0625
v 0.0625 1 0.025888125
v 0.0625 2 0.025888125
v 0.0625 1 -0.025888125
v 0.0625 2 -0.025888125
v 0.025888125 1 -0.0625
v 0.025888125 2 -0.0625
v -0.025888125 1 -0.0625
v -0.025888125 2 -0.0625
v -0.0625 1 -0.025888125
v -0.0625 2 -0.025888125
v -0.0625 1 0.025888125
v -0.0625 2 0.025888125
v -0.025888125 1 0.0625
v -0.025888125 2 0.0625
vt 0.317649375 0.95216375
vt 0.297834375 1
vt 0.25 0.95216375
vt 0.25 0
vt 0.301775 0
vt 0.301775 1
vt 0.25 1
vt 0.25 0.932350625
vt 0.29783625 0.952165625
vt 0.25 1
vt 0.3125 0.948225
vt 0.3125 1
vt 0.25 0.9741125
vt 0.25 0
vt 0.301775 0
vt 0.301775 1
vt 0.25 1
vt 0.3125 0.948225
vt 0.3125 1
vt 0.25 0.9741125
vt 0.25 0.932350625
vt 0.29783625 0.952165625
vt 0.25 1
vt 0.25 0
vt 0.301775 0
vt 0.301775 1
vt 0.25 1
vt 0.317649375 0.95216375
vt 0.297834375 1
vt 0.25 0.95216375
vt 0.25 0.9375
vt 0.301775 0.9375
vt 0.2758875 1
vt 0.25 0
vt 0.301775 0
vt 0.301775 1
vt 0.25 1
vt 0.301775 1
vt 0.25 1
vt 0.2758875 0.9375
vt 0.25 1
vt 0.269815 0.95216375
vt 0.317649375 1
vt 0.25 0
vt 0.301775 0
vt 0.301775 1
vt 0.25 1
vt 0.29783625 1
vt 0.25 0.980185
vt 0.29783625 0.932350625
vt 0.25 1
vt 0.25 0.948225
vt 0.3125 0.9741125
vt 0.25 0
vt 0.301775 0
vt 0.301775 1
vt 0.25 1
vt 0.25 1
vt 0.25 0.948225
vt 0.3125 0.9741125
vt 0.29783625 1
vt 0.25 0.980185
vt 0.29783625 0.932350625
vt 0.25 0
vt 0.301775 0
vt 0.301775 1
vt 0.25 1
vt 0.25 1
vt 0.269815 0.95216375
vt 0.317649375 1
vt 0.301775 1
vt 0.25 1
vt 0.2758875 0.9375
vt 0.25 0
vt 0.301775 0
vt 0.301775 1
vt 0.25 1
vt 0.25 0.9375
vt 0.301775 0.9375
vt 0.2758875 1
vn 0 -1 0
vn 0.7071067811865476 0 0.7071067811865476
vn 0 1 0
vn 0 -1 0
vn 1 0 0
vn 0 1 0
vn 0 -1 0
vn 0.7071067811865476 0 -0.7071067811865476
vn 0 1 0
vn 0 -1 0
vn 0 0 -1
vn 0 1 0
vn 0 -1 0
vn -0.7071067811865476 0 -0.7071067811865476
vn 0 1 0
vn 0 -1 0
vn -1 0 0
vn 0 1 0
vn 0 -1 0
vn -0.7071067811865476 0 0.7071067811865476
vn 0 1 0
vn 0 -1 0
vn 0 0 1
vn 0 1 0
usemtl m_16830594-a67c-fbd7-af60-7f51c1d503f8
f 31/105/31 29/106/31 27/107/31
f 29/108/32 31/109/32 32/110/32 30/111/32
f 30/112/33 32/113/33 28/114/33
f 33/115/34 31/116/34 27/117/34
f 31/118/35 33/119/35 34/120/35 32/121/35
f 32/122/36 34/123/36 28/124/36
f 35/125/37 33/126/37 27/127/37
f 33/128/38 35/129/38 36/130/38 34/131/38
f 34/132/39 36/133/39 28/134/39
f 37/135/40 35/136/40 27/137/40
f 35/138/41 37/139/41 38/140/41 36/141/41
f 36/142/42 38/143/42 28/144/42
f 39/145/43 37/146/43 27/147/43
f 37/148/44 39/149/44 40/150/44 38/151/44
f 38/152/45 40/153/45 28/154/45
f 41/155/46 39/156/46 27/157/46
f 39/158/47 41/159/47 42/160/47 40/161/47
f 40/162/48 42/163/48 28/164/48
f 43/165/49 41/166/49 27/167/49
f 41/168/50 43/169/50 44/170/50 42/171/50
f 42/172/51 44/173/51 28/174/51
f 29/175/52 43/176/52 27/177/52
f 43/178/53 29/179/53 30/180/53 44/181/53
f 44/182/54 30/183/54 28/184/54
o cylinder
v 0 2 0
v 0 2.5 0
v 0.025888125 2 0.0625
v 0.025888125 2.5 0.0625
v 0.0625 2 0.025888125
v 0.0625 2.5 0.025888125
v 0.0625 2 -0.025888125
v 0.0625 2.5 -0.025888125
v 0.025888125 2 -0.0625
v 0.025888125 2.5 -0.0625
v -0.025888125 2 -0.0625
v -0.025888125 2.5 -0.0625
v -0.0625 2 -0.025888125
v -0.0625 2.5 -0.025888125
v -0.0625 2 0.025888125
v -0.0625 2.5 0.025888125
v -0.025888125 2 0.0625
v -0.025888125 2.5 0.0625
vt 0.630149375 0.976081875
vt 0.610334375 1
vt 0.5625 0.976081875
vt 0.5625 0.5
vt 0.614275 0.5
vt 0.614275 1
vt 0.5625 1
vt 0.5625 0.966175625
vt 0.61033625 0.976083125
vt 0.5625 1
vt 0.625 0.9741125
vt 0.625 1
vt 0.5625 0.98705625
vt 0.5625 0.5
vt 0.614275 0.5
vt 0.614275 1
vt 0.5625 1
vt 0.625 0.9741125
vt 0.625 1
vt 0.5625 0.98705625
vt 0.5625 0.966175625
vt 0.61033625 0.976083125
vt 0.5625 1
vt 0.5625 0.5
vt 0.614275 0.5
vt 0.614275 1
vt 0.5625 1
vt 0.630149375 0.976081875
vt 0.610334375 1
vt 0.5625 0.976081875
vt 0.5625 0.96875
vt 0.614275 0.96875
vt 0.5883875 1
vt 0.5625 0.5
vt 0.614275 0.5
vt 0.614275 1
vt 0.5625 1
vt 0.614275 1
vt 0.5625 1
vt 0.5883875 0.96875
vt 0.5625 1
vt 0.582315 0.976081875
vt 0.630149375 1
vt 0.5625 0.5
vt 0.614275 0.5
vt 0.614275 1
vt 0.5625 1
vt 0.61033625 1
vt 0.5625 0.9900925
vt 0.61033625 0.966175625
vt 0.5625 1
vt 0.5625 0.9741125
vt 0.625 0.98705625
vt 0.5625 0.5
vt 0.614275 0.5
vt 0.614275 1
vt 0.5625 1
vt 0.5625 1
vt 0.5625 0.9741125
vt 0.625 0.98705625
vt 0.61033625 1
vt 0.5625 0.9900925
vt 0.61033625 0.966175625
vt 0.5625 0.5
vt 0.614275 0.5
vt 0.614275 1
vt 0.5625 1
vt 0.5625 1
vt 0.582315 0.976081875
vt 0.630149375 1
vt 0.614275 1
vt 0.5625 1
vt 0.5883875 0.96875
vt 0.5625 0.5
vt 0.614275 0.5
vt 0.614275 1
vt 0.5625 1
vt 0.5625 0.96875
vt 0.614275 0.96875
vt 0.5883875 1
vn 0 -1 0
vn 0.7071067811865476 0 0.7071067811865476
vn 0 1 0
vn 0 -1 0
vn 1 0 0
vn 0 1 0
vn 0 -1 0
vn 0.7071067811865476 0 -0.7071067811865476
vn 0 1 0
vn 0 -1 0
vn 0 0 -1
vn 0 1 0
vn 0 -1 0
vn -0.7071067811865476 0 -0.7071067811865476
vn 0 1 0
vn 0 -1 0
vn -1 0 0
vn 0 1 0
vn 0 -1 0
vn -0.7071067811865476 0 0.7071067811865476
vn 0 1 0
vn 0 -1 0
vn 0 0 1
vn 0 1 0
usemtl m_16830594-a67c-fbd7-af60-7f51c1d503f8
f 49/185/55 47/186/55 45/187/55
f 47/188/56 49/189/56 50/190/56 48/191/56
f 48/192/57 50/193/57 46/194/57
f 51/195/58 49/196/58 45/197/58
f 49/198/59 51/199/59 52/200/59 50/201/59
f 50/202/60 52/203/60 46/204/60
f 53/205/61 51/206/61 45/207/61
f 51/208/62 53/209/62 54/210/62 52/211/62
f 52/212/63 54/213/63 46/214/63
f 55/215/64 53/216/64 45/217/64
f 53/218/65 55/219/65 56/220/65 54/221/65
f 54/222/66 56/223/66 46/224/66
f 57/225/67 55/226/67 45/227/67
f 55/228/68 57/229/68 58/230/68 56/231/68
f 56/232/69 58/233/69 46/234/69
f 59/235/70 57/236/70 45/237/70
f 57/238/71 59/239/71 60/240/71 58/241/71
f 58/242/72 60/243/72 46/244/72
f 61/245/73 59/246/73 45/247/73
f 59/248/74 61/249/74 62/250/74 60/251/74
f 60/252/75 62/253/75 46/254/75
f 47/255/76 61/256/76 45/257/76
f 61/258/77 47/259/77 48/260/77 62/261/77
f 62/262/78 48/263/78 46/264/78
o cube
v 0.1875 2.49375 0
v 0.1875 2.49375 -0.0625
v 0.1875 2.43125 0
v 0.1875 2.43125 -0.0625
v -0.1875 2.49375 -0.0625
v -0.1875 2.49375 0
v -0.1875 2.43125 -0.0625
v -0.1875 2.43125 0
vt 0.375 0.8125
vt 0.75 0.8125
vt 0.75 0.75
vt 0.375 0.75
vt 0.4375 0.8125
vt 0.5 0.8125
vt 0.5 0.75
vt 0.4375 0.75
vt 0.375 0.8125
vt 0.75 0.8125
vt 0.75 0.75
vt 0.375 0.75
vt 0.375 0.8125
vt 0.4375 0.8125
vt 0.4375 0.75
vt 0.375 0.75
vt 0.375 0.8125
vt 0.75 0.8125
vt 0.75 0.75
vt 0.375 0.75
vt 0.375 0.75
vt 0.75 0.75
vt 0.75 0.6875
vt 0.375 0.6875
vn 0 0 -1
vn 1 0 0
vn 0 0 1
vn -1 0 0
vn 0 1 0
vn 0 -1 0
usemtl m_16830594-a67c-fbd7-af60-7f51c1d503f8
f 66/268/79 69/267/79 67/266/79 64/265/79
f 65/272/80 66/271/80 64/270/80 63/269/80
f 70/276/81 65/275/81 63/274/81 68/273/81
f 69/280/82 70/279/82 68/278/82 67/277/82
f 68/284/83 63/283/83 64/282/83 67/281/83
f 69/288/84 66/287/84 65/286/84 70/285/84
o cube
v 0.1875 2.1875 0
v 0.1875 2.1875 -0.0625
v 0.1875 2.125 0
v 0.1875 2.125 -0.0625
v -0.1875 2.1875 -0.0625
v -0.1875 2.1875 0
v -0.1875 2.125 -0.0625
v -0.1875 2.125 0
vt 0.375 0.8125
vt 0.75 0.8125
vt 0.75 0.75
vt 0.375 0.75
vt 0.4375 0.8125
vt 0.5 0.8125
vt 0.5 0.75
vt 0.4375 0.75
vt 0.375 0.8125
vt 0.75 0.8125
vt 0.75 0.75
vt 0.375 0.75
vt 0.375 0.8125
vt 0.4375 0.8125
vt 0.4375 0.75
vt 0.375 0.75
vt 0.375 0.8125
vt 0.75 0.8125
vt 0.75 0.75
vt 0.375 0.75
vt 0.375 0.75
vt 0.75 0.75
vt 0.75 0.6875
vt 0.375 0.6875
vn 0 0 -1
vn 1 0 0
vn 0 0 1
vn -1 0 0
vn 0 1 0
vn 0 -1 0
usemtl m_16830594-a67c-fbd7-af60-7f51c1d503f8
f 74/292/85 77/291/85 75/290/85 72/289/85
f 73/296/86 74/295/86 72/294/86 71/293/86
f 78/300/87 73/299/87 71/298/87 76/297/87
f 77/304/88 78/303/88 76/302/88 75/301/88
f 76/308/89 71/307/89 72/306/89 75/305/89
f 77/312/90 74/311/90 73/310/90 78/309/90