# Made in Blockbench 5.1.6
mtllib ne_2_west.mtl

o cylinder
v 0 0 0
v 0 1 0
v 0.025888125 0 0.0625
v 0.025888125 1 0.0625
v 0.0625 0 0.025888125
v 0.0625 1 0.025888125
v 0.0625 0 -0.025888125
v 0.0625 1 -0.025888125
v 0.025888125 0 -0.0625
v 0.025888125 1 -0.0625
v -0.025888125 0 -0.0625
v -0.025888125 1 -0.0625
v -0.0625 0 -0.025888125
v -0.0625 1 -0.025888125
v -0.0625 0 0.025888125
v -0.0625 1 0.025888125
v -0.025888125 0 0.0625
v -0.025888125 1 0.0625
v 0 1 0
v 0 2 0
v 0.025888125 1 0.0625
v 0.025888125 2 0.0625
v 0.0625 1 0.025888125
v 0.0625 2 0.025888125
v 0.0625 1 -0.025888125
v 0.0625 2 -0.025888125
v 0.025888125 1 -0.0625
v 0.025888125 2 -0.0625
v -0.025888125 1 -0.0625
v -0.025888125 2 -0.0625
v -0.0625 1 -0.025888125
v -0.0625 2 -0.025888125
v -0.0625 1 0.025888125
v -0.0625 2 0.025888125
v -0.025888125 1 0.0625
v -0.025888125 2 0.0625
v 0 2 0
v 0 2.5 0
v 0.025888125 2 0.0625
v 0.025888125 2.5 0.0625
v 0.0625 2 0.025888125
v 0.0625 2.5 0.025888125
v 0.0625 2 -0.025888125
v 0.0625 2.5 -0.025888125
v 0.025888125 2 -0.0625
v 0.025888125 2.5 -0.0625
v -0.025888125 2 -0.0625
v -0.025888125 2.5 -0.0625
v -0.0625 2 -0.025888125
v -0.0625 2.5 -0.025888125
v -0.0625 2 0.025888125
v -0.0625 2.5 0.025888125
v -0.025888125 2 0.0625
v -0.025888125 2.5 0.0625
v 0.234375 2.615625 -0.11249999999999999
v 0.234375 2.615625 -0.13125
v 0 2.265625 -0.11249999999999999
v 0 2.265625 -0.13125
v 0.15625 2.615625 -0.11249999999999999
v 0.15625 2.615625 -0.13125
v 0 2.375 -0.11249999999999999
v 0 2.375 -0.13125
v -0.15625 2.625 -0.11249999999999999
v -0.15625 2.625 -0.13124999999999998
v 0 2.375 -0.11249999999999999
v 0 2.375 -0.13124999999999998
v -0.234375 2.625 -0.11249999999999999
v -0.234375 2.625 -0.13124999999999998
v 0 2.265625 -0.11249999999999999
v 0 2.265625 -0.13124999999999998
v -0.234375 1.915625 -0.11249999999999999
v -0.234375 1.915625 -0.13125
v -2.7755575615628914e-17 2.265625 -0.11249999999999999
v -2.7755575615628914e-17 2.265625 -0.13125
v -0.15624999999999997 1.915625 -0.11249999999999999
v -0.15624999999999997 1.915625 -0.13125
v 0 2.15625 -0.11249999999999999
v 0 2.15625 -0.13125
v 0.15625000000000006 1.90625 -0.11249999999999999
v 0.15625000000000006 1.90625 -0.13124999999999998
v 1.3877787807814457e-17 2.15625 -0.11249999999999999
v 1.3877787807814457e-17 2.15625 -0.13124999999999998
v 0.23437500000000006 1.90625 -0.11249999999999999
v 0.23437500000000006 1.90625 -0.13124999999999998
v 0 2.265625 -0.11249999999999999
v 0 2.265625 -0.13124999999999998
vt 0.317649375 0.95216375
vt 0.297834375 1
vt 0.25 0.95216375
vt 0.25 0
vt 0.301775 0
vt 0.301775 1
vt 0.25 1
vt 0.25 0.932350625
vt 0.29783625 0.952165625
vt 0.25 1
vt 0.3125 0.948225
vt 0.3125 1
vt 0.25 0.9741125
vt 0.25 0
vt 0.301775 0
vt 0.301775 1
vt 0.25 1
vt 0.3125 0.948225
vt 0.3125 1
vt 0.25 0.9741125
vt 0.25 0.932350625
vt 0.29783625 0.952165625
vt 0.25 1
vt 0.25 0
vt 0.301775 0
vt 0.301775 1
vt 0.25 1
vt 0.317649375 0.95216375
vt 0.297834375 1
vt 0.25 0.95216375
vt 0.25 0.9375
vt 0.301775 0.9375
vt 0.2758875 1
vt 0.25 0
vt 0.301775 0
vt 0.301775 1
vt 0.25 1
vt 0.301775 1
vt 0.25 1
vt 0.2758875 0.9375
vt 0.25 1
vt 0.269815 0.95216375
vt 0.317649375 1
vt 0.25 0
vt 0.301775 0
vt 0.301775 1
vt 0.25 1
vt 0.29783625 1
vt 0.25 0.980185
vt 0.29783625 0.932350625
vt 0.25 1
vt 0.25 0.948225
vt 0.3125 0.9741125
vt 0.25 0
vt 0.301775 0
vt 0.301775 1
vt 0.25 1
vt 0.25 1
vt 0.25 0.948225
vt 0.3125 0.9741125
vt 0.29783625 1
vt 0.25 0.980185
vt 0.29783625 0.932350625
vt 0.25 0
vt 0.301775 0
vt 0.301775 1
vt 0.25 1
vt 0.25 1
vt 0.269815 0.95216375
vt 0.317649375 1
vt 0.301775 1
vt 0.25 1
vt 0.2758875 0.9375
vt 0.25 0
vt 0.301775 0
vt 0.301775 1
vt 0.25 1
vt 0.25 0.9375
vt 0.301775 0.9375
vt 0.2758875 1
vt 0.317649375 0.95216375
vt 0.297834375 1
vt 0.25 0.95216375
vt 0.25 0
vt 0.301775 0
vt 0.301775 1
vt 0.25 1
vt 0.25 0.932350625
vt 0.29783625 0.952165625
vt 0.25 1
vt 0.3125 0.948225
vt 0.3125 1
vt 0.25 0.9741125
vt 0.25 0
vt 0.301775 0
vt 0.301775 1
vt 0.25 1
vt 0.3125 0.948225
vt 0.3125 1
vt 0.25 0.9741125
vt 0.25 0.932350625
vt 0.29783625 0.952165625
vt 0.25 1
vt 0.25 0
vt 0.301775 0
vt 0.301775 1
vt 0.25 1
vt 0.317649375 0.95216375
vt 0.297834375 1
vt 0.25 0.95216375
vt 0.25 0.9375
vt 0.301775 0.9375
vt 0.2758875 1
vt 0.25 0
vt 0.301775 0
vt 0.301775 1
vt 0.25 1
vt 0.301775 1
vt 0.25 1
vt 0.2758875 0.9375
vt 0.25 1
vt 0.269815 0.95216375
vt 0.317649375 1
vt 0.25 0
vt 0.301775 0
vt 0.301775 1
vt 0.25 1
vt 0.29783625 1
vt 0.25 0.980185
vt 0.29783625 0.932350625
vt 0.25 1
vt 0.25 0.948225
vt 0.3125 0.9741125
vt 0.25 0
vt 0.301775 0
vt 0.301775 1
vt 0.25 1
vt 0.25 1
vt 0.25 0.948225
vt 0.3125 0.9741125
vt 0.29783625 1
vt 0.25 0.980185
vt 0.29783625 0.932350625
vt 0.25 0
vt 0.301775 0
vt 0.301775 1
vt 0.25 1
vt 0.25 1
vt 0.269815 0.95216375
vt 0.317649375 1
vt 0.301775 1
vt 0.25 1
vt 0.2758875 0.9375
vt 0.25 0
vt 0.301775 0
vt 0.301775 1
vt 0.25 1
vt 0.25 0.9375
vt 0.301775 0.9375
vt 0.2758875 1
vt 0.630149375 0.976081875
vt 0.610334375 1
vt 0.5625 0.976081875
vt 0.5625 0.5
vt 0.614275 0.5
vt 0.614275 1
vt 0.5625 1
vt 0.5625 0.966175625
vt 0.61033625 0.976083125
vt 0.5625 1
vt 0.625 0.9741125
vt 0.625 1
vt 0.5625 0.98705625
vt 0.5625 0.5
vt 0.614275 0.5
vt 0.614275 1
vt 0.5625 1
vt 0.625 0.9741125
vt 0.625 1
vt 0.5625 0.98705625
vt 0.5625 0.966175625
vt 0.61033625 0.976083125
vt 0.5625 1
vt 0.5625 0.5
vt 0.614275 0.5
vt 0.614275 1
vt 0.5625 1
vt 0.630149375 0.976081875
vt 0.610334375 1
vt 0.5625 0.976081875
vt 0.5625 0.96875
vt 0.614275 0.96875
vt 0.5883875 1
vt 0.5625 0.5
vt 0.614275 0.5
vt 0.614275 1
vt 0.5625 1
vt 0.614275 1
vt 0.5625 1
vt 0.5883875 0.96875
vt 0.5625 1
vt 0.582315 0.976081875
vt 0.630149375 1
vt 0.5625 0.5
vt 0.614275 0.5
vt 0.614275 1
vt 0.5625 1
vt 0.61033625 1
vt 0.5625 0.9900925
vt 0.61033625 0.966175625
vt 0.5625 1
vt 0.5625 0.9741125
vt 0.625 0.98705625
vt 0.5625 0.5
vt 0.614275 0.5
vt 0.614275 1
vt 0.5625 1
vt 0.5625 1
vt 0.5625 0.9741125
vt 0.625 0.98705625
vt 0.61033625 1
vt 0.5625 0.9900925
vt 0.61033625 0.966175625
vt 0.5625 0.5
vt 0.614275 0.5
vt 0.614275 1
vt 0.5625 1
vt 0.5625 1
vt 0.582315 0.976081875
vt 0.630149375 1
vt 0.614275 1
vt 0.5625 1
vt 0.5883875 0.96875
vt 0.5625 0.5
vt 0.614275 0.5
vt 0.614275 1
vt 0.5625 1
vt 0.5625 0.96875
vt 0.614275 0.96875
vt 0.5883875 1
vt 0.6734375 0.8828125
vt 0.6734375 0.96875
vt 0.671875 0.96875
vt 0.671875 0.8828125
vt 0.671875 0.8828125
vt 0.671875 0.96875
vt 0.6703125 0.96875
vt 0.6703125 0.8828125
vt 0.6875 0.953125
vt 0.6875 0.9546875
vt 0.671875 0.9546875
vt 0.671875 0.953125
vt 0.6875 0.9515625
vt 0.6875 0.953125
vt 0.671875 0.953125
vt 0.671875 0.9515625
vt 0.6875 0.8828125
vt 0.6875 0.96875
vt 0.671875 0.96875
vt 0.671875 0.8828125
vt 0.671875 0.8828125
vt 0.671875 0.96875
vt 0.65625 0.96875
vt 0.65625 0.8828125
vt 0.65703125 0.80078125
vt 0.65703125 0.859375
vt 0.65625 0.859375
vt 0.65625 0.80078125
vt 0.671875 0.80078125
vt 0.671875 0.859375
vt 0.67109375 0.859375
vt 0.67109375 0.80078125
vt 0.6875 0.83899453125
vt 0.6875 0.84001359375
vt 0.658203125 0.84001359375
vt 0.658203125 0.83899453125
vt 0.6875 0.8583559375
vt 0.6875 0.859375
vt 0.658203125 0.859375
vt 0.658203125 0.8583559375
vt 0.6875 0.80078125
vt 0.6875 0.859375
vt 0.658203125 0.859375
vt 0.658203125 0.80078125
vt 0.685546875 0.80078125
vt 0.685546875 0.859375
vt 0.65625 0.859375
vt 0.65625 0.80078125
vt 0.6734375 0.8828125
vt 0.6734375 0.96875
vt 0.671875 0.96875
vt 0.671875 0.8828125
vt 0.671875 0.8828125
vt 0.671875 0.96875
vt 0.6703125 0.96875
vt 0.6703125 0.8828125
vt 0.6875 0.953125
vt 0.6875 0.9546875
vt 0.671875 0.9546875
vt 0.671875 0.953125
vt 0.6875 0.9515625
vt 0.6875 0.953125
vt 0.671875 0.953125
vt 0.671875 0.9515625
vt 0.6875 0.8828125
vt 0.6875 0.96875
vt 0.671875 0.96875
vt 0.671875 0.8828125
vt 0.671875 0.8828125
vt 0.671875 0.96875
vt 0.65625 0.96875
vt 0.65625 0.8828125
vt 0.65703125 0.80078125
vt 0.65703125 0.859375
vt 0.65625 0.859375
vt 0.65625 0.80078125
vt 0.671875 0.80078125
vt 0.671875 0.859375
vt 0.67109375 0.859375
vt 0.67109375 0.80078125
vt 0.6875 0.83899453125
vt 0.6875 0.84001359375
vt 0.658203125 0.84001359375
vt 0.658203125 0.83899453125
vt 0.6875 0.8583559375
vt 0.6875 0.859375
vt 0.658203125 0.859375
vt 0.658203125 0.8583559375
vt 0.6875 0.80078125
vt 0.6875 0.859375
vt 0.658203125 0.859375
vt 0.658203125 0.80078125
vt 0.685546875 0.80078125
vt 0.685546875 0.859375
vt 0.65625 0.859375
vt 0.65625 0.80078125
vn 0 -1 0
vn 0.7071067811865476 0 0.7071067811865476
vn 0 1 0
vn 0 -1 0
vn 1 0 0
vn 0 1 0
vn 0 -1 0
vn 0.7071067811865476 0 -0.7071067811865476
vn 0 1 0
vn 0 -1 0
vn 0 0 -1
vn 0 1 0
vn 0 -1 0
vn -0.7071067811865476 0 -0.7071067811865476
vn 0 1 0
vn 0 -1 0
vn -1 0 0
vn 0 1 0
vn 0 -1 0
vn -0.7071067811865476 0 0.7071067811865476
vn 0 1 0
vn 0 -1 0
vn 0 0 1
vn 0 1 0
vn 0 -1 0
vn 0.7071067811865476 0 0.7071067811865476
vn 0 1 0
vn 0 -1 0
vn 1 0 0
vn 0 1 0
vn 0 -1 0
vn 0.7071067811865476 0 -0.7071067811865476
vn 0 1 0
vn 0 -1 0
vn 0 0 -1
vn 0 1 0
vn 0 -1 0
vn -0.7071067811865476 0 -0.7071067811865476
vn 0 1 0
vn 0 -1 0
vn -1 0 0
vn 0 1 0
vn 0 -1 0
vn -0.7071067811865476 0 0.7071067811865476
vn 0 1 0
vn 0 -1 0
vn 0 0 1
vn 0 1 0
vn 0 -1 0
vn 0.7071067811865476 0 0.7071067811865476
vn 0 1 0
vn 0 -1 0
vn 1 0 0
vn 0 1 0
vn 0 -1 0
vn 0.7071067811865476 0 -0.7071067811865476
vn 0 1 0
vn 0 -1 0
vn 0 0 -1
vn 0 1 0
vn 0 -1 0
vn -0.7071067811865476 0 -0.7071067811865476
vn 0 1 0
vn 0 -1 0
vn -1 0 0
vn 0 1 0
vn 0 -1 0
vn -0.7071067811865476 0 0.7071067811865476
vn 0 1 0
vn 0 -1 0
vn 0 0 1
vn 0 1 0
vn 0.8309071769755082 -0.5564110560103848 0
vn -0.8386923819939369 0.5446054428532057 0
vn 0 1 0
vn -1 0 0
vn 0 0 1
vn 0 0 -1
vn 0.8479983040050881 0.52999894000318 0
vn -0.8376105968386143 -0.5462677805469224 0
vn 0 1 0
vn 1 0 0
vn 0 0 1
vn 0 0 -1
vn -0.8309071769755082 0.5564110560103848 0
vn 0.8386923819939369 -0.5446054428532056 0
vn 0 -1 0
vn 1 2.5376526277146434e-16 0
vn 0 0 1
vn 0 0 -1
vn -0.847998304005088 -0.5299989400031802 0
vn 0.8376105968386142 0.5462677805469224 0
vn 0 -1 0
vn -1 -1.2688263138573217e-16 0
vn 0 0 1
vn 0 0 -1
usemtl m_16830594-a67c-fbd7-af60-7f51c1d503f8
f 5/1/1 3/2/1 1/3/1
f 3/4/2 5/5/2 6/6/2 4/7/2
f 4/8/3 6/9/3 2/10/3
f 7/11/4 5/12/4 1/13/4
f 5/14/5 7/15/5 8/16/5 6/17/5
f 6/18/6 8/19/6 2/20/6
f 9/21/7 7/22/7 1/23/7
f 7/24/8 9/25/8 10/26/8 8/27/8
f 8/28/9 10/29/9 2/30/9
f 11/31/10 9/32/10 1/33/10
f 9/34/11 11/35/11 12/36/11 10/37/11
f 10/38/12 12/39/12 2/40/12
f 13/41/13 11/42/13 1/43/13
f 11/44/14 13/45/14 14/46/14 12/47/14
f 12/48/15 14/49/15 2/50/15
f 15/51/16 13/52/16 1/53/16
f 13/54/17 15/55/17 16/56/17 14/57/17
f 14/58/18 16/59/18 2/60/18
f 17/61/19 15/62/19 1/63/19
f 15/64/20 17/65/20 18/66/20 16/67/20
f 16/68/21 18/69/21 2/70/21
f 3/71/22 17/72/22 1/73/22
f 17/74/23 3/75/23 4/76/23 18/77/23
f 18/78/24 4/79/24 2/80/24
f 23/81/25 21/82/25 19/83/25
f 21/84/26 23/85/26 24/86/26 22/87/26
f 22/88/27 24/89/27 20/90/27
f 25/91/28 23/92/28 19/93/28
f 23/94/29 25/95/29 26/96/29 24/97/29
f 24/98/30 26/99/30 20/100/30
f 27/101/31 25/102/31 19/103/31
f 25/104/32 27/105/32 28/106/32 26/107/32
f 26/108/33 28/109/33 20/110/33
f 29/111/34 27/112/34 19/113/34
f 27/114/35 29/115/35 30/116/35 28/117/35
f 28/118/36 30/119/36 20/120/36
f 31/121/37 29/122/37 19/123/37
f 29/124/38 31/125/38 32/126/38 30/127/38
f 30/128/39 32/129/39 20/130/39
f 33/131/40 31/132/40 19/133/40
f 31/134/41 33/135/41 34/136/41 32/137/41
f 32/138/42 34/139/42 20/140/42
f 35/141/43 33/142/43 19/143/43
f 33/144/44 35/145/44 36/146/44 34/147/44
f 34/148/45 36/149/45 20/150/45
f 21/151/46 35/152/46 19/153/46
f 35/154/47 21/155/47 22/156/47 36/157/47
f 36/158/48 22/159/48 20/160/48
f 41/161/49 39/162/49 37/163/49
f 39/164/50 41/165/50 42/166/50 40/167/50
f 40/168/51 42/169/51 38/170/51
f 43/171/52 41/172/52 37/173/52
f 41/174/53 43/175/53 44/176/53 42/177/53
f 42/178/54 44/179/54 38/180/54
f 45/181/55 43/182/55 37/183/55
f 43/184/56 45/185/56 46/186/56 44/187/56
f 44/188/57 46/189/57 38/190/57
f 47/191/58 45/192/58 37/193/58
f 45/194/59 47/195/59 48/196/59 46/197/59
f 46/198/60 48/199/60 38/200/60
f 49/201/61 47/202/61 37/203/61
f 47/204/62 49/205/62 50/206/62 48/207/62
f 48/208/63 50/209/63 38/210/63
f 51/211/64 49/212/64 37/213/64
f 49/214/65 51/215/65 52/216/65 50/217/65
f 50/218/66 52/219/66 38/220/66
f 53/221/67 51/222/67 37/223/67
f 51/224/68 53/225/68 54/226/68 52/227/68
f 52/228/69 54/229/69 38/230/69
f 39/231/70 53/232/70 37/233/70
f 53/234/71 39/235/71 40/236/71 54/237/71
f 54/238/72 40/239/72 38/240/72
usemtl m_f012d24c-1ca2-de5e-0225-b7257b9c7c6d
f 58/241/73 56/242/73 55/243/73 57/244/73
f 61/245/74 59/246/74 60/247/74 62/248/74
f 55/249/75 56/250/75 60/251/75 59/252/75
f 58/253/76 57/254/76 61/255/76 62/256/76
f 57/257/77 55/258/77 59/259/77 61/260/77
f 62/261/78 60/262/78 56/263/78 58/264/78
f 66/265/79 64/266/79 63/267/79 65/268/79
f 69/269/80 67/270/80 68/271/80 70/272/80
f 63/273/81 64/274/81 68/275/81 67/276/81
f 66/277/82 65/278/82 69/279/82 70/280/82
f 65/281/83 63/282/83 67/283/83 69/284/83
f 70/285/84 68/286/84 64/287/84 66/288/84
f 74/289/85 72/290/85 71/291/85 73/292/85
f 77/293/86 75/294/86 76/295/86 78/296/86
f 71/297/87 72/298/87 76/299/87 75/300/87
f 74/301/88 73/302/88 77/303/88 78/304/88
f 73/305/89 71/306/89 75/307/89 77/308/89
f 78/309/90 76/310/90 72/311/90 74/312/90
f 82/313/91 80/314/91 79/315/91 81/316/91
f 85/317/92 83/318/92 84/319/92 86/320/92
f 79/321/93 80/322/93 84/323/93 83/324/93
f 82/325/94 81/326/94 85/327/94 86/328/94
f 81/329/95 79/330/95 83/331/95 85/332/95
f 86/333/96 84/334/96 80/335/96 82/336/96
o cube
v 0.1875 2.1875 0
v 0.1875 2.1875 -0.0625
v 0.1875 2.125 0
v 0.1875 2.125 -0.0625
v -0.1875 2.1875 -0.0625
v -0.1875 2.1875 0
v -0.1875 2.125 -0.0625
v -0.1875 2.125 0
vt 0.375 0.8125
vt 0.75 0.8125
vt 0.75 0.75
vt 0.375 0.75
vt 0.4375 0.8125
vt 0.5 0.8125
vt 0.5 0.75
vt 0.4375 0.75
vt 0.375 0.8125
vt 0.75 0.8125
vt 0.75 0.75
vt 0.375 0.75
vt 0.375 0.8125
vt 0.4375 0.8125
vt 0.4375 0.75
vt 0.375 0.75
vt 0.375 0.8125
vt 0.75 0.8125
vt 0.75 0.75
vt 0.375 0.75
vt 0.375 0.75
vt 0.75 0.75
vt 0.75 0.6875
vt 0.375 0.6875
vn 0 0 -1
vn 1 0 0
vn 0 0 1
vn -1 0 0
vn 0 1 0
vn 0 -1 0
usemtl m_16830594-a67c-fbd7-af60-7f51c1d503f8
f 90/340/97 93/339/97 91/338/97 88/337/97
f 89/344/98 90/343/98 88/342/98 87/341/98
f 94/348/99 89/347/99 87/346/99 92/345/99
f 93/352/100 94/351/100 92/350/100 91/349/100
f 92/356/101 87/355/101 88/354/101 91/353/101
f 93/360/102 90/359/102 89/358/102 94/357/102
o cube
v 0.1875 2.49375 0
v 0.1875 2.49375 -0.0625
v 0.1875 2.43125 0
v 0.1875 2.43125 -0.0625
v -0.1875 2.49375 -0.0625
v -0.1875 2.49375 0
v -0.1875 2.43125 -0.0625
v -0.1875 2.43125 0
vt 0.375 0.8125
vt 0.75 0.8125
vt 0.75 0.75
vt 0.375 0.75
vt 0.4375 0.8125
vt 0.5 0.8125
vt 0.5 0.75
vt 0.4375 0.75
vt 0.375 0.8125
vt 0.75 0.8125
vt 0.75 0.75
vt 0.375 0.75
vt 0.375 0.8125
vt 0.4375 0.8125
vt 0.4375 0.75
vt 0.375 0.75
vt 0.375 0.8125
vt 0.75 0.8125
vt 0.75 0.75
vt 0.375 0.75
vt 0.375 0.75
vt 0.75 0.75
vt 0.75 0.6875
vt 0.375 0.6875
vn 0 0 -1
vn 1 0 0
vn 0 0 1
vn -1 0 0
vn 0 1 0
vn 0 -1 0
usemtl m_16830594-a67c-fbd7-af60-7f51c1d503f8
f 98/364/103 101/363/103 99/362/103 96/361/103
f 97/368/104 98/367/104 96/366/104 95/365/104
f 102/372/105 97/371/105 95/370/105 100/369/105
f 101/376/106 102/375/106 100/374/106 99/373/106
f 100/380/107 95/379/107 96/378/107 99/377/107
f 101/384/108 98/383/108 97/382/108 102/381/108
o cube
v 0.28125 2.671875 -0.056249999999999994
v 0.28125 2.671875 -0.11875
v 0.28125 1.859375 -0.056249999999999994
v 0.28125 1.859375 -0.11875
v -0.28125 2.671875 -0.11875
v -0.28125 2.671875 -0.056249999999999994
v -0.28125 1.859375 -0.11875
v -0.28125 1.859375 -0.056249999999999994
vt 0.53125 1
vt 0.671875 1
vt 0.671875 0.796875
vt 0.53125 0.796875
vt 0.53125 1
vt 0.546875 1
vt 0.546875 0.796875
vt 0.53125 0.796875
vt 0.3125 0.703125
vt 0.453125 0.703125
vt 0.453125 0.5
vt 0.3125 0.5
vt 0.53125 1
vt 0.546875 1
vt 0.546875 0.796875
vt 0.53125 0.796875
vt 0.53125 1
vt 0.671875 1
vt 0.671875 0.984375
vt 0.53125 0.984375
vt 0.53125 1
vt 0.671875 1
vt 0.671875 0.984375
vt 0.53125 0.984375
vn 0 0 -1
vn 1 0 0
vn 0 0 1
vn -1 0 0
vn 0 1 0
vn 0 -1 0
usemtl m_f012d24c-1ca2-de5e-0225-b7257b9c7c6d
f 106/388/109 109/387/109 107/386/109 104/385/109
f 105/392/110 106/391/110 104/390/110 103/389/110
f 110/396/111 105/395/111 103/394/111 108/393/111
f 109/400/112 110/399/112 108/398/112 107/397/112
f 108/404/113 103/403/113 104/402/113 107/401/113
f 109/408/114 106/407/114 105/406/114 110/405/114