# Made in Blockbench 5.1.6
mtllib ne_2_west_reduced_brake_distance.mtl

o cylinder
v 0 0 0
v 0 1 0
v 0.025888125 0 0.0625
v 0.025888125 1 0.0625
v 0.0625 0 0.025888125
v 0.0625 1 0.025888125
v 0.0625 0 -0.025888125
v 0.0625 1 -0.025888125
v 0.025888125 0 -0.0625
v 0.025888125 1 -0.0625
v -0.025888125 0 -0.0625
v -0.025888125 1 -0.0625
v -0.0625 0 -0.025888125
v -0.0625 1 -0.025888125
v -0.0625 0 0.025888125
v -0.0625 1 0.025888125
v -0.025888125 0 0.0625
v -0.025888125 1 0.0625
v 0 1 0
v 0 2 0
v 0.025888125 1 0.0625
v 0.025888125 2 0.0625
v 0.0625 1 0.025888125
v 0.0625 2 0.025888125
v 0.0625 1 -0.025888125
v 0.0625 2 -0.025888125
v 0.025888125 1 -0.0625
v 0.025888125 2 -0.0625
v -0.025888125 1 -0.0625
v -0.025888125 2 -0.0625
v -0.0625 1 -0.025888125
v -0.0625 2 -0.025888125
v -0.0625 1 0.025888125
v -0.0625 2 0.025888125
v -0.025888125 1 0.0625
v -0.025888125 2 0.0625
v -0.21875 2.953125 -0.12499999999999997
v -0.21875 2.953125 -0.06249999999999997
v -7.654042494670958e-18 2.671875 -0.125
v 0 2.671875 -0.0625
v -7.654042494670958e-18 2.953125 -0.125
v 0 2.953125 -0.0625
v 0.21875 2.953125 -0.06250000000000003
v 0.21875 2.953125 -0.12500000000000003
v 0 2.671875 -0.0625
v -7.654042494670958e-18 2.671875 -0.125
v 0 2.953125 -0.0625
v -7.654042494670958e-18 2.953125 -0.125
v 0 2 0
v 0 2.9375 0
v 0.025888125 2 0.0625
v 0.025888125 2.9375 0.0625
v 0.0625 2 0.025888125
v 0.0625 2.9375 0.025888125
v 0.0625 2 -0.025888125
v 0.0625 2.9375 -0.025888125
v 0.025888125 2 -0.0625
v 0.025888125 2.9375 -0.0625
v -0.025888125 2 -0.0625
v -0.025888125 2.9375 -0.0625
v -0.0625 2 -0.025888125
v -0.0625 2.9375 -0.025888125
v -0.0625 2 0.025888125
v -0.0625 2.9375 0.025888125
v -0.025888125 2 0.0625
v -0.025888125 2.9375 0.0625
v 0.234375 2.615625 -0.11249999999999999
v 0.234375 2.615625 -0.13125
v 0 2.265625 -0.11249999999999999
v 0 2.265625 -0.13125
v 0.15625 2.615625 -0.11249999999999999
v 0.15625 2.615625 -0.13125
v 0 2.375 -0.11249999999999999
v 0 2.375 -0.13125
v -0.15625 2.625 -0.11249999999999999
v -0.15625 2.625 -0.13124999999999998
v 0 2.375 -0.11249999999999999
v 0 2.375 -0.13124999999999998
v -0.234375 2.625 -0.11249999999999999
v -0.234375 2.625 -0.13124999999999998
v 0 2.265625 -0.11249999999999999
v 0 2.265625 -0.13124999999999998
v -0.234375 1.915625 -0.11249999999999999
v -0.234375 1.915625 -0.13125
v -2.7755575615628914e-17 2.265625 -0.11249999999999999
v -2.7755575615628914e-17 2.265625 -0.13125
v -0.15624999999999997 1.915625 -0.11249999999999999
v -0.15624999999999997 1.915625 -0.13125
v 0 2.15625 -0.11249999999999999
v 0 2.15625 -0.13125
v 0.15625000000000006 1.90625 -0.11249999999999999
v 0.15625000000000006 1.90625 -0.13124999999999998
v 1.3877787807814457e-17 2.15625 -0.11249999999999999
v 1.3877787807814457e-17 2.15625 -0.13124999999999998
v 0.23437500000000006 1.90625 -0.11249999999999999
v 0.23437500000000006 1.90625 -0.13124999999999998
v 0 2.265625 -0.11249999999999999
v 0 2.265625 -0.13124999999999998
vt 0.317649375 0.95216375
vt 0.297834375 1
vt 0.25 0.95216375
vt 0.25 0
vt 0.301775 0
vt 0.301775 1
vt 0.25 1
vt 0.25 0.932350625
vt 0.29783625 0.952165625
vt 0.25 1
vt 0.3125 0.948225
vt 0.3125 1
vt 0.25 0.9741125
vt 0.25 0
vt 0.301775 0
vt 0.301775 1
vt 0.25 1
vt 0.3125 0.948225
vt 0.3125 1
vt 0.25 0.9741125
vt 0.25 0.932350625
vt 0.29783625 0.952165625
vt 0.25 1
vt 0.25 0
vt 0.301775 0
vt 0.301775 1
vt 0.25 1
vt 0.317649375 0.95216375
vt 0.297834375 1
vt 0.25 0.95216375
vt 0.25 0.9375
vt 0.301775 0.9375
vt 0.2758875 1
vt 0.25 0
vt 0.301775 0
vt 0.301775 1
vt 0.25 1
vt 0.301775 1
vt 0.25 1
vt 0.2758875 0.9375
vt 0.25 1
vt 0.269815 0.95216375
vt 0.317649375 1
vt 0.25 0
vt 0.301775 0
vt 0.301775 1
vt 0.25 1
vt 0.29783625 1
vt 0.25 0.980185
vt 0.29783625 0.932350625
vt 0.25 1
vt 0.25 0.948225
vt 0.3125 0.9741125
vt 0.25 0
vt 0.301775 0
vt 0.301775 1
vt 0.25 1
vt 0.25 1
vt 0.25 0.948225
vt 0.3125 0.9741125
vt 0.29783625 1
vt 0.25 0.980185
vt 0.29783625 0.932350625
vt 0.25 0
vt 0.301775 0
vt 0.301775 1
vt 0.25 1
vt 0.25 1
vt 0.269815 0.95216375
vt 0.317649375 1
vt 0.301775 1
vt 0.25 1
vt 0.2758875 0.9375
vt 0.25 0
vt 0.301775 0
vt 0.301775 1
vt 0.25 1
vt 0.25 0.9375
vt 0.301775 0.9375
vt 0.2758875 1
vt 0.317649375 0.95216375
vt 0.297834375 1
vt 0.25 0.95216375
vt 0.25 0
vt 0.301775 0
vt 0.301775 1
vt 0.25 1
vt 0.25 0.932350625
vt 0.29783625 0.952165625
vt 0.25 1
vt 0.3125 0.948225
vt 0.3125 1
vt 0.25 0.9741125
vt 0.25 0
vt 0.301775 0
vt 0.301775 1
vt 0.25 1
vt 0.3125 0.948225
vt 0.3125 1
vt 0.25 0.9741125
vt 0.25 0.932350625
vt 0.29783625 0.952165625
vt 0.25 1
vt 0.25 0
vt 0.301775 0
vt 0.301775 1
vt 0.25 1
vt 0.317649375 0.95216375
vt 0.297834375 1
vt 0.25 0.95216375
vt 0.25 0.9375
vt 0.301775 0.9375
vt 0.2758875 1
vt 0.25 0
vt 0.301775 0
vt 0.301775 1
vt 0.25 1
vt 0.301775 1
vt 0.25 1
vt 0.2758875 0.9375
vt 0.25 1
vt 0.269815 0.95216375
vt 0.317649375 1
vt 0.25 0
vt 0.301775 0
vt 0.301775 1
vt 0.25 1
vt 0.29783625 1
vt 0.25 0.980185
vt 0.29783625 0.932350625
vt 0.25 1
vt 0.25 0.948225
vt 0.3125 0.9741125
vt 0.25 0
vt 0.301775 0
vt 0.301775 1
vt 0.25 1
vt 0.25 1
vt 0.25 0.948225
vt 0.3125 0.9741125
vt 0.29783625 1
vt 0.25 0.980185
vt 0.29783625 0.932350625
vt 0.25 0
vt 0.301775 0
vt 0.301775 1
vt 0.25 1
vt 0.25 1
vt 0.269815 0.95216375
vt 0.317649375 1
vt 0.301775 1
vt 0.25 1
vt 0.2758875 0.9375
vt 0.25 0
vt 0.301775 0
vt 0.301775 1
vt 0.25 1
vt 0.25 0.9375
vt 0.301775 0.9375
vt 0.2758875 1
vt 0.28125 0.6328125
vt 0.28125 0.6875
vt 0.265625 0.6875
vt 0.265625 0.6328125
vt 0.296875 0.6328125
vt 0.296875 0.6875
vt 0.28125 0.6875
vt 0.28125 0.6328125
vt 0.3984375 0.703125
vt 0.3984375 0.71875
vt 0.34375 0.71875
vt 0.34375 0.703125
vt 0.6640625 0.9921875
vt 0.609375 0.9921875
vt 0.6640625 0.9375
vt 0.3359375 0.59375
vt 0.390625 0.59375
vt 0.390625 0.6484375
vt 0.28125 0.6328125
vt 0.28125 0.6875
vt 0.265625 0.6875
vt 0.265625 0.6328125
vt 0.296875 0.6328125
vt 0.296875 0.6875
vt 0.28125 0.6875
vt 0.28125 0.6328125
vt 0.3984375 0.703125
vt 0.3984375 0.71875
vt 0.34375 0.71875
vt 0.34375 0.703125
vt 0.3828125 0.671875
vt 0.328125 0.671875
vt 0.3828125 0.6171875
vt 0.59375 0.9921875
vt 0.5390625 0.9921875
vt 0.5390625 0.9375
vt 0.317649375 0.95216375
vt 0.297834375 1
vt 0.25 0.95216375
vt 0.25 0
vt 0.301775 0
vt 0.301775 1
vt 0.25 1
vt 0.25 0.932350625
vt 0.29783625 0.952165625
vt 0.25 1
vt 0.3125 0.948225
vt 0.3125 1
vt 0.25 0.9741125
vt 0.25 0
vt 0.301775 0
vt 0.301775 1
vt 0.25 1
vt 0.3125 0.948225
vt 0.3125 1
vt 0.25 0.9741125
vt 0.25 0.932350625
vt 0.29783625 0.952165625
vt 0.25 1
vt 0.25 0
vt 0.301775 0
vt 0.301775 1
vt 0.25 1
vt 0.317649375 0.95216375
vt 0.297834375 1
vt 0.25 0.95216375
vt 0.25 0.9375
vt 0.301775 0.9375
vt 0.2758875 1
vt 0.25 0
vt 0.301775 0
vt 0.301775 1
vt 0.25 1
vt 0.301775 1
vt 0.25 1
vt 0.2758875 0.9375
vt 0.25 1
vt 0.269815 0.95216375
vt 0.317649375 1
vt 0.25 0
vt 0.301775 0
vt 0.301775 1
vt 0.25 1
vt 0.29783625 1
vt 0.25 0.980185
vt 0.29783625 0.932350625
vt 0.25 1
vt 0.25 0.948225
vt 0.3125 0.9741125
vt 0.25 0
vt 0.301775 0
vt 0.301775 1
vt 0.25 1
vt 0.25 1
vt 0.25 0.948225
vt 0.3125 0.9741125
vt 0.29783625 1
vt 0.25 0.980185
vt 0.29783625 0.932350625
vt 0.25 0
vt 0.301775 0
vt 0.301775 1
vt 0.25 1
vt 0.25 1
vt 0.269815 0.95216375
vt 0.317649375 1
vt 0.301775 1
vt 0.25 1
vt 0.2758875 0.9375
vt 0.25 0
vt 0.301775 0
vt 0.301775 1
vt 0.25 1
vt 0.25 0.9375
vt 0.301775 0.9375
vt 0.2758875 1
vt 0.6734375 0.8828125
vt 0.6734375 0.96875
vt 0.671875 0.96875
vt 0.671875 0.8828125
vt 0.671875 0.8828125
vt 0.671875 0.96875
vt 0.6703125 0.96875
vt 0.6703125 0.8828125
vt 0.6875 0.953125
vt 0.6875 0.9546875
vt 0.671875 0.9546875
vt 0.671875 0.953125
vt 0.6875 0.9515625
vt 0.6875 0.953125
vt 0.671875 0.953125
vt 0.671875 0.9515625
vt 0.6875 0.8828125
vt 0.6875 0.96875
vt 0.671875 0.96875
vt 0.671875 0.8828125
vt 0.671875 0.8828125
vt 0.671875 0.96875
vt 0.65625 0.96875
vt 0.65625 0.8828125
vt 0.65703125 0.80078125
vt 0.65703125 0.859375
vt 0.65625 0.859375
vt 0.65625 0.80078125
vt 0.671875 0.80078125
vt 0.671875 0.859375
vt 0.67109375 0.859375
vt 0.67109375 0.80078125
vt 0.6875 0.83899453125
vt 0.6875 0.84001359375
vt 0.658203125 0.84001359375
vt 0.658203125 0.83899453125
vt 0.6875 0.8583559375
vt 0.6875 0.859375
vt 0.658203125 0.859375
vt 0.658203125 0.8583559375
vt 0.6875 0.80078125
vt 0.6875 0.859375
vt 0.658203125 0.859375
vt 0.658203125 0.80078125
vt 0.685546875 0.80078125
vt 0.685546875 0.859375
vt 0.65625 0.859375
vt 0.65625 0.80078125
vt 0.6734375 0.8828125
vt 0.6734375 0.96875
vt 0.671875 0.96875
vt 0.671875 0.8828125
vt 0.671875 0.8828125
vt 0.671875 0.96875
vt 0.6703125 0.96875
vt 0.6703125 0.8828125
vt 0.6875 0.953125
vt 0.6875 0.9546875
vt 0.671875 0.9546875
vt 0.671875 0.953125
vt 0.6875 0.9515625
vt 0.6875 0.953125
vt 0.671875 0.953125
vt 0.671875 0.9515625
vt 0.6875 0.8828125
vt 0.6875 0.96875
vt 0.671875 0.96875
vt 0.671875 0.8828125
vt 0.671875 0.8828125
vt 0.671875 0.96875
vt 0.65625 0.96875
vt 0.65625 0.8828125
vt 0.65703125 0.80078125
vt 0.65703125 0.859375
vt 0.65625 0.859375
vt 0.65625 0.80078125
vt 0.671875 0.80078125
vt 0.671875 0.859375
vt 0.67109375 0.859375
vt 0.67109375 0.80078125
vt 0.6875 0.83899453125
vt 0.6875 0.84001359375
vt 0.658203125 0.84001359375
vt 0.658203125 0.83899453125
vt 0.6875 0.8583559375
vt 0.6875 0.859375
vt 0.658203125 0.859375
vt 0.658203125 0.8583559375
vt 0.6875 0.80078125
vt 0.6875 0.859375
vt 0.658203125 0.859375
vt 0.658203125 0.80078125
vt 0.685546875 0.80078125
vt 0.685546875 0.859375
vt 0.65625 0.859375
vt 0.65625 0.80078125
vn 0 -1 0
vn 0.7071067811865476 0 0.7071067811865476
vn 0 1 0
vn 0 -1 0
vn 1 0 0
vn 0 1 0
vn 0 -1 0
vn 0.7071067811865476 0 -0.7071067811865476
vn 0 1 0
vn 0 -1 0
vn 0 0 -1
vn 0 1 0
vn 0 -1 0
vn -0.7071067811865476 0 -0.7071067811865476
vn 0 1 0
vn 0 -1 0
vn -1 0 0
vn 0 1 0
vn 0 -1 0
vn -0.7071067811865476 0 0.7071067811865476
vn 0 1 0
vn 0 -1 0
vn 0 0 1
vn 0 1 0
vn 0 -1 0
vn 0.7071067811865476 0 0.7071067811865476
vn 0 1 0
vn 0 -1 0
vn 1 0 0
vn 0 1 0
vn 0 -1 0
vn 0.7071067811865476 0 -0.7071067811865476
vn 0 1 0
vn 0 -1 0
vn 0 0 -1
vn 0 1 0
vn 0 -1 0
vn -0.7071067811865476 0 -0.7071067811865476
vn 0 1 0
vn 0 -1 0
vn -1 0 0
vn 0 1 0
vn 0 -1 0
vn -0.7071067811865476 0 0.7071067811865476
vn 0 1 0
vn 0 -1 0
vn 0 0 1
vn 0 1 0
vn -0.7893522173763263 -0.6139406135149205 0
vn 1 0 -1.2246467991473532e-16
vn 0 1 0
vn -1.2688263138573217e-16 0 -1
vn 1.2688263138573217e-16 0 1
vn 0.7893522173763263 -0.6139406135149205 0
vn -1 0 1.2246467991473532e-16
vn 0 1 0
vn 1.2688263138573217e-16 0 1
vn -1.2688263138573217e-16 0 -1
vn 0 -1 0
vn 0.7071067811865476 0 0.7071067811865476
vn 0 1 0
vn 0 -1 0
vn 1 0 0
vn 0 1 0
vn 0 -1 0
vn 0.7071067811865476 0 -0.7071067811865476
vn 0 1 0
vn 0 -1 0
vn 0 0 -1
vn 0 1 0
vn 0 -1 0
vn -0.7071067811865476 0 -0.7071067811865476
vn 0 1 0
vn 0 -1 0
vn -1 0 0
vn 0 1 0
vn 0 -1 0
vn -0.7071067811865476 0 0.7071067811865476
vn 0 1 0
vn 0 -1 0
vn 0 0 1
vn 0 1 0
vn 0.8309071769755082 -0.5564110560103848 0
vn -0.8386923819939369 0.5446054428532057 0
vn 0 1 0
vn -1 0 0
vn 0 0 1
vn 0 0 -1
vn 0.8479983040050881 0.52999894000318 0
vn -0.8376105968386143 -0.5462677805469224 0
vn 0 1 0
vn 1 0 0
vn 0 0 1
vn 0 0 -1
vn -0.8309071769755082 0.5564110560103848 0
vn 0.8386923819939369 -0.5446054428532056 0
vn 0 -1 0
vn 1 2.5376526277146434e-16 0
vn 0 0 1
vn 0 0 -1
vn -0.847998304005088 -0.5299989400031802 0
vn 0.8376105968386142 0.5462677805469224 0
vn 0 -1 0
vn -1 -1.2688263138573217e-16 0
vn 0 0 1
vn 0 0 -1
usemtl m_16830594-a67c-fbd7-af60-7f51c1d503f8
f 5/1/1 3/2/1 1/3/1
f 3/4/2 5/5/2 6/6/2 4/7/2
f 4/8/3 6/9/3 2/10/3
f 7/11/4 5/12/4 1/13/4
f 5/14/5 7/15/5 8/16/5 6/17/5
f 6/18/6 8/19/6 2/20/6
f 9/21/7 7/22/7 1/23/7
f 7/24/8 9/25/8 10/26/8 8/27/8
f 8/28/9 10/29/9 2/30/9
f 11/31/10 9/32/10 1/33/10
f 9/34/11 11/35/11 12/36/11 10/37/11
f 10/38/12 12/39/12 2/40/12
f 13/41/13 11/42/13 1/43/13
f 11/44/14 13/45/14 14/46/14 12/47/14
f 12/48/15 14/49/15 2/50/15
f 15/51/16 13/52/16 1/53/16
f 13/54/17 15/55/17 16/56/17 14/57/17
f 14/58/18 16/59/18 2/60/18
f 17/61/19 15/62/19 1/63/19
f 15/64/20 17/65/20 18/66/20 16/67/20
f 16/68/21 18/69/21 2/70/21
f 3/71/22 17/72/22 1/73/22
f 17/74/23 3/75/23 4/76/23 18/77/23
f 18/78/24 4/79/24 2/80/24
f 23/81/25 21/82/25 19/83/25
f 21/84/26 23/85/26 24/86/26 22/87/26
f 22/88/27 24/89/27 20/90/27
f 25/91/28 23/92/28 19/93/28
f 23/94/29 25/95/29 26/96/29 24/97/29
f 24/98/30 26/99/30 20/100/30
f 27/101/31 25/102/31 19/103/31
f 25/104/32 27/105/32 28/106/32 26/107/32
f 26/108/33 28/109/33 20/110/33
f 29/111/34 27/112/34 19/113/34
f 27/114/35 29/115/35 30/116/35 28/117/35
f 28/118/36 30/119/36 20/120/36
f 31/121/37 29/122/37 19/123/37
f 29/124/38 31/125/38 32/126/38 30/127/38
f 30/128/39 32/129/39 20/130/39
f 33/131/40 31/132/40 19/133/40
f 31/134/41 33/135/41 34/136/41 32/137/41
f 32/138/42 34/139/42 20/140/42
f 35/141/43 33/142/43 19/143/43
f 33/144/44 35/145/44 36/146/44 34/147/44
f 34/148/45 36/149/45 20/150/45
f 21/151/46 35/152/46 19/153/46
f 35/154/47 21/155/47 22/156/47 36/157/47
f 36/158/48 22/159/48 20/160/48
usemtl m_f012d24c-1ca2-de5e-0225-b7257b9c7c6d
f 40/161/49 38/162/49 37/163/49 39/164/49
f 39/165/50 41/166/50 42/167/50 40/168/50
f 37/169/51 38/170/51 42/171/51 41/172/51
f 37/173/52 41/174/52 39/175/52
f 42/176/53 38/177/53 40/178/53
f 46/179/54 44/180/54 43/181/54 45/182/54
f 45/183/55 47/184/55 48/185/55 46/186/55
f 43/187/56 44/188/56 48/189/56 47/190/56
f 43/191/57 47/192/57 45/193/57
f 48/194/58 44/195/58 46/196/58
usemtl m_16830594-a67c-fbd7-af60-7f51c1d503f8
f 53/197/59 51/198/59 49/199/59
f 51/200/60 53/201/60 54/202/60 52/203/60
f 52/204/61 54/205/61 50/206/61
f 55/207/62 53/208/62 49/209/62
f 53/210/63 55/211/63 56/212/63 54/213/63
f 54/214/64 56/215/64 50/216/64
f 57/217/65 55/218/65 49/219/65
f 55/220/66 57/221/66 58/222/66 56/223/66
f 56/224/67 58/225/67 50/226/67
f 59/227/68 57/228/68 49/229/68
f 57/230/69 59/231/69 60/232/69 58/233/69
f 58/234/70 60/235/70 50/236/70
f 61/237/71 59/238/71 49/239/71
f 59/240/72 61/241/72 62/242/72 60/243/72
f 60/244/73 62/245/73 50/246/73
f 63/247/74 61/248/74 49/249/74
f 61/250/75 63/251/75 64/252/75 62/253/75
f 62/254/76 64/255/76 50/256/76
f 65/257/77 63/258/77 49/259/77
f 63/260/78 65/261/78 66/262/78 64/263/78
f 64/264/79 66/265/79 50/266/79
f 51/267/80 65/268/80 49/269/80
f 65/270/81 51/271/81 52/272/81 66/273/81
f 66/274/82 52/275/82 50/276/82
usemtl m_f012d24c-1ca2-de5e-0225-b7257b9c7c6d
f 70/277/83 68/278/83 67/279/83 69/280/83
f 73/281/84 71/282/84 72/283/84 74/284/84
f 67/285/85 68/286/85 72/287/85 71/288/85
f 70/289/86 69/290/86 73/291/86 74/292/86
f 69/293/87 67/294/87 71/295/87 73/296/87
f 74/297/88 72/298/88 68/299/88 70/300/88
f 78/301/89 76/302/89 75/303/89 77/304/89
f 81/305/90 79/306/90 80/307/90 82/308/90
f 75/309/91 76/310/91 80/311/91 79/312/91
f 78/313/92 77/314/92 81/315/92 82/316/92
f 77/317/93 75/318/93 79/319/93 81/320/93
f 82/321/94 80/322/94 76/323/94 78/324/94
f 86/325/95 84/326/95 83/327/95 85/328/95
f 89/329/96 87/330/96 88/331/96 90/332/96
f 83/333/97 84/334/97 88/335/97 87/336/97
f 86/337/98 85/338/98 89/339/98 90/340/98
f 85/341/99 83/342/99 87/343/99 89/344/99
f 90/345/100 88/346/100 84/347/100 86/348/100
f 94/349/101 92/350/101 91/351/101 93/352/101
f 97/353/102 95/354/102 96/355/102 98/356/102
f 91/357/103 92/358/103 96/359/103 95/360/103
f 94/361/104 93/362/104 97/363/104 98/364/104
f 93/365/105 91/366/105 95/367/105 97/368/105
f 98/369/106 96/370/106 92/371/106 94/372/106
o cube
v 0.1875 2.1875 0
v 0.1875 2.1875 -0.0625
v 0.1875 2.125 0
v 0.1875 2.125 -0.0625
v -0.1875 2.1875 -0.0625
v -0.1875 2.1875 0
v -0.1875 2.125 -0.0625
v -0.1875 2.125 0
vt 0.375 0.8125
vt 0.75 0.8125
vt 0.75 0.75
vt 0.375 0.75
vt 0.4375 0.8125
vt 0.5 0.8125
vt 0.5 0.75
vt 0.4375 0.75
vt 0.375 0.8125
vt 0.75 0.8125
vt 0.75 0.75
vt 0.375 0.75
vt 0.375 0.8125
vt 0.4375 0.8125
vt 0.4375 0.75
vt 0.375 0.75
vt 0.375 0.8125
vt 0.75 0.8125
vt 0.75 0.75
vt 0.375 0.75
vt 0.375 0.75
vt 0.75 0.75
vt 0.75 0.6875
vt 0.375 0.6875
vn 0 0 -1
vn 1 0 0
vn 0 0 1
vn -1 0 0
vn 0 1 0
vn 0 -1 0
usemtl m_16830594-a67c-fbd7-af60-7f51c1d503f8
f 102/376/107 105/375/107 103/374/107 100/373/107
f 101/380/108 102/379/108 100/378/108 99/377/108
f 106/384/109 101/383/109 99/382/109 104/381/109
f 105/388/110 106/387/110 104/386/110 103/385/110
f 104/392/111 99/391/111 100/390/111 103/389/111
f 105/396/112 102/395/112 101/394/112 106/393/112
o cube
v 0.1875 2.49375 0
v 0.1875 2.49375 -0.0625
v 0.1875 2.43125 0
v 0.1875 2.43125 -0.0625
v -0.1875 2.49375 -0.0625
v -0.1875 2.49375 0
v -0.1875 2.43125 -0.0625
v -0.1875 2.43125 0
vt 0.375 0.8125
vt 0.75 0.8125
vt 0.75 0.75
vt 0.375 0.75
vt 0.4375 0.8125
vt 0.5 0.8125
vt 0.5 0.75
vt 0.4375 0.75
vt 0.375 0.8125
vt 0.75 0.8125
vt 0.75 0.75
vt 0.375 0.75
vt 0.375 0.8125
vt 0.4375 0.8125
vt 0.4375 0.75
vt 0.375 0.75
vt 0.375 0.8125
vt 0.75 0.8125
vt 0.75 0.75
vt 0.375 0.75
vt 0.375 0.75
vt 0.75 0.75
vt 0.75 0.6875
vt 0.375 0.6875
vn 0 0 -1
vn 1 0 0
vn 0 0 1
vn -1 0 0
vn 0 1 0
vn 0 -1 0
usemtl m_16830594-a67c-fbd7-af60-7f51c1d503f8
f 110/400/113 113/399/113 111/398/113 108/397/113
f 109/404/114 110/403/114 108/402/114 107/401/114
f 114/408/115 109/407/115 107/406/115 112/405/115
f 113/412/116 114/411/116 112/410/116 111/409/116
f 112/416/117 107/415/117 108/414/117 111/413/117
f 113/420/118 110/419/118 109/418/118 114/417/118
o cube
v 0.125 2.93125 0
v 0.125 2.93125 -0.0625
v 0.125 2.86875 0
v 0.125 2.86875 -0.0625
v -0.125 2.93125 -0.0625
v -0.125 2.93125 0
v -0.125 2.86875 -0.0625
v -0.125 2.86875 0
vt 0.375 0.8125
vt 0.75 0.8125
vt 0.75 0.75
vt 0.375 0.75
vt 0.4375 0.8125
vt 0.5 0.8125
vt 0.5 0.75
vt 0.4375 0.75
vt 0.375 0.8125
vt 0.75 0.8125
vt 0.75 0.75
vt 0.375 0.75
vt 0.375 0.8125
vt 0.4375 0.8125
vt 0.4375 0.75
vt 0.375 0.75
vt 0.375 0.8125
vt 0.75 0.8125
vt 0.75 0.75
vt 0.375 0.75
vt 0.375 0.75
vt 0.75 0.75
vt 0.75 0.6875
vt 0.375 0.6875
vn 0 0 -1
vn 1 0 0
vn 0 0 1
vn -1 0 0
vn 0 1 0
vn 0 -1 0
usemtl m_16830594-a67c-fbd7-af60-7f51c1d503f8
f 118/424/119 121/423/119 119/422/119 116/421/119
f 117/428/120 118/427/120 116/426/120 115/425/120
f 122/432/121 117/431/121 115/430/121 120/429/121
f 121/436/122 122/435/122 120/434/122 119/433/122
f 120/440/123 115/439/123 116/438/123 119/437/123
f 121/444/124 118/443/124 117/442/124 122/441/124
o cube
v 0.28125 2.671875 -0.056249999999999994
v 0.28125 2.671875 -0.11875
v 0.28125 1.859375 -0.056249999999999994
v 0.28125 1.859375 -0.11875
v -0.28125 2.671875 -0.11875
v -0.28125 2.671875 -0.056249999999999994
v -0.28125 1.859375 -0.11875
v -0.28125 1.859375 -0.056249999999999994
vt 0.53125 1
vt 0.671875 1
vt 0.671875 0.796875
vt 0.53125 0.796875
vt 0.53125 1
vt 0.546875 1
vt 0.546875 0.796875
vt 0.53125 0.796875
vt 0.3125 0.703125
vt 0.453125 0.703125
vt 0.453125 0.5
vt 0.3125 0.5
vt 0.53125 1
vt 0.546875 1
vt 0.546875 0.796875
vt 0.53125 0.796875
vt 0.53125 1
vt 0.671875 1
vt 0.671875 0.984375
vt 0.53125 0.984375
vt 0.53125 1
vt 0.671875 1
vt 0.671875 0.984375
vt 0.53125 0.984375
vn 0 0 -1
vn 1 0 0
vn 0 0 1
vn -1 0 0
vn 0 1 0
vn 0 -1 0
usemtl m_f012d24c-1ca2-de5e-0225-b7257b9c7c6d
f 126/448/125 129/447/125 127/446/125 124/445/125
f 125/452/126 126/451/126 124/450/126 123/449/126
f 130/456/127 125/455/127 123/454/127 128/453/127
f 129/460/128 130/459/128 128/458/128 127/457/128
f 128/464/129 123/463/129 124/462/129 127/461/129
f 129/468/130 126/467/130 125/466/130 130/465/130