# Made in Blockbench 5.1.6
mtllib ne_2_small_west_reduced_brake_distance.mtl

o cube
v 0.1875 0.6875 0
v 0.1875 0.6875 -0.0625
v 0.1875 0.625 0
v 0.1875 0.625 -0.0625
v -0.1875 0.6875 -0.0625
v -0.1875 0.6875 0
v -0.1875 0.625 -0.0625
v -0.1875 0.625 0
vt 0.375 0.8125
vt 0.75 0.8125
vt 0.75 0.75
vt 0.375 0.75
vt 0.4375 0.8125
vt 0.5 0.8125
vt 0.5 0.75
vt 0.4375 0.75
vt 0.375 0.8125
vt 0.75 0.8125
vt 0.75 0.75
vt 0.375 0.75
vt 0.375 0.8125
vt 0.4375 0.8125
vt 0.4375 0.75
vt 0.375 0.75
vt 0.375 0.8125
vt 0.75 0.8125
vt 0.75 0.75
vt 0.375 0.75
vt 0.375 0.75
vt 0.75 0.75
vt 0.75 0.6875
vt 0.375 0.6875
vn 0 0 -1
vn 1 0 0
vn 0 0 1
vn -1 0 0
vn 0 1 0
vn 0 -1 0
usemtl m_16830594-a67c-fbd7-af60-7f51c1d503f8
f 4/4/1 7/3/1 5/2/1 2/1/1
f 3/8/2 4/7/2 2/6/2 1/5/2
f 8/12/3 3/11/3 1/10/3 6/9/3
f 7/16/4 8/15/4 6/14/4 5/13/4
f 6/20/5 1/19/5 2/18/5 5/17/5
f 7/24/6 4/23/6 3/22/6 8/21/6
o cube
v 0.1875 0.99375 0
v 0.1875 0.99375 -0.0625
v 0.1875 0.93125 0
v 0.1875 0.93125 -0.0625
v -0.1875 0.99375 -0.0625
v -0.1875 0.99375 0
v -0.1875 0.93125 -0.0625
v -0.1875 0.93125 0
vt 0.375 0.8125
vt 0.75 0.8125
vt 0.75 0.75
vt 0.375 0.75
vt 0.4375 0.8125
vt 0.5 0.8125
vt 0.5 0.75
vt 0.4375 0.75
vt 0.375 0.8125
vt 0.75 0.8125
vt 0.75 0.75
vt 0.375 0.75
vt 0.375 0.8125
vt 0.4375 0.8125
vt 0.4375 0.75
vt 0.375 0.75
vt 0.375 0.8125
vt 0.75 0.8125
vt 0.75 0.75
vt 0.375 0.75
vt 0.375 0.75
vt 0.75 0.75
vt 0.75 0.6875
vt 0.375 0.6875
vn 0 0 -1
vn 1 0 0
vn 0 0 1
vn -1 0 0
vn 0 1 0
vn 0 -1 0
usemtl m_16830594-a67c-fbd7-af60-7f51c1d503f8
f 12/28/7 15/27/7 13/26/7 10/25/7
f 11/32/8 12/31/8 10/30/8 9/29/8
f 16/36/9 11/35/9 9/34/9 14/33/9
f 15/40/10 16/39/10 14/38/10 13/37/10
f 14/44/11 9/43/11 10/42/11 13/41/11
f 15/48/12 12/47/12 11/46/12 16/45/12
o cube
v -0.21875 1.453125 -0.12499999999999997
v -0.21875 1.453125 -0.06249999999999997
v -7.654042494670958e-18 1.171875 -0.125
v 0 1.171875 -0.0625
v -7.654042494670958e-18 1.453125 -0.125
v 0 1.453125 -0.0625
v 0.21875 1.453125 -0.06250000000000003
v 0.21875 1.453125 -0.12500000000000003
v 0 1.171875 -0.0625
v -7.654042494670958e-18 1.171875 -0.125
v 0 1.453125 -0.0625
v -7.654042494670958e-18 1.453125 -0.125
v 0 0.5 0
v 0 1.4375 0
v 0.025888125 0.5 0.0625
v 0.025888125 1.4375 0.0625
v 0.0625 0.5 0.025888125000000012
v 0.0625 1.4375 0.025888125000000012
v 0.06249999999999999 0.5 -0.025888125000000012
v 0.06249999999999999 1.4375 -0.025888125000000012
v 0.025888125 0.5 -0.0625
v 0.025888125 1.4375 -0.0625
v -0.025888125 0.5 -0.0625
v -0.025888125 1.4375 -0.0625
v -0.06250000000000001 0.5 -0.025888124999999998
v -0.06250000000000001 1.4375 -0.025888124999999998
v -0.06250000000000001 0.5 0.025888124999999998
v -0.06250000000000001 1.4375 0.025888124999999998
v -0.025888125 0.5 0.0625
v -0.025888125 1.4375 0.0625
v 0 0 0
v 0 0.5 0
v 0.025888125 0 0.0625
v 0.025888125 0.5 0.0625
v 0.0625 0 0.025888125000000012
v 0.0625 0.5 0.025888125000000012
v 0.06249999999999999 0 -0.025888125000000012
v 0.06249999999999999 0.5 -0.025888125000000012
v 0.025888125 0 -0.0625
v 0.025888125 0.5 -0.0625
v -0.025888125 0 -0.0625
v -0.025888125 0.5 -0.0625
v -0.06250000000000001 0 -0.025888124999999998
v -0.06250000000000001 0.5 -0.025888124999999998
v -0.06250000000000001 0 0.025888124999999998
v -0.06250000000000001 0.5 0.025888124999999998
v -0.025888125 0 0.0625
v -0.025888125 0.5 0.0625
v 0.234375 1.115625 -0.11249999999999999
v 0.23437500000000003 1.115625 -0.13125
v 0 0.765625 -0.11249999999999999
v 0 0.765625 -0.13125
v 0.15625 1.115625 -0.11249999999999999
v 0.15625000000000003 1.115625 -0.13125
v 0 0.875 -0.11249999999999999
v 0 0.875 -0.13125
v -0.15625 1.125 -0.11249999999999999
v -0.15624999999999997 1.125 -0.13124999999999998
v 0 0.875 -0.11249999999999999
v 1.5407439555097887e-33 0.875 -0.13124999999999998
v -0.234375 1.125 -0.11249999999999999
v -0.23437499999999997 1.125 -0.13124999999999998
v 0 0.765625 -0.11249999999999999
v 1.5407439555097887e-33 0.765625 -0.13124999999999998
v -0.234375 0.415625 -0.11249999999999999
v -0.23437499999999997 0.415625 -0.13125
v -2.7755575615628914e-17 0.765625 -0.11249999999999999
v -2.7755575615628914e-17 0.765625 -0.13125
v -0.15624999999999997 0.415625 -0.11249999999999999
v -0.15624999999999994 0.415625 -0.13125
v 0 0.65625 -0.11249999999999999
v 0 0.65625 -0.13125
v 0.15625000000000006 0.40625 -0.11249999999999999
v 0.15625000000000008 0.40625 -0.13124999999999998
v 1.3877787807814457e-17 0.65625 -0.11249999999999999
v 1.3877787807814457e-17 0.65625 -0.13124999999999998
v 0.23437500000000006 0.40625 -0.11249999999999999
v 0.23437500000000008 0.40625 -0.13124999999999998
v 0 0.765625 -0.11249999999999999
v 1.5407439555097887e-33 0.765625 -0.13124999999999998
vt 0.28125 0.6328125
vt 0.28125 0.6875
vt 0.265625 0.6875
vt 0.265625 0.6328125
vt 0.296875 0.6328125
vt 0.296875 0.6875
vt 0.28125 0.6875
vt 0.28125 0.6328125
vt 0.3984375 0.703125
vt 0.3984375 0.71875
vt 0.34375 0.71875
vt 0.34375 0.703125
vt 0.6640625 0.9921875
vt 0.609375 0.9921875
vt 0.6640625 0.9375
vt 0.3359375 0.59375
vt 0.390625 0.59375
vt 0.390625 0.6484375
vt 0.28125 0.6328125
vt 0.28125 0.6875
vt 0.265625 0.6875
vt 0.265625 0.6328125
vt 0.296875 0.6328125
vt 0.296875 0.6875
vt 0.28125 0.6875
vt 0.28125 0.6328125
vt 0.3984375 0.703125
vt 0.3984375 0.71875
vt 0.34375 0.71875
vt 0.34375 0.703125
vt 0.3828125 0.671875
vt 0.328125 0.671875
vt 0.3828125 0.6171875
vt 0.59375 0.9921875
vt 0.5390625 0.9921875
vt 0.5390625 0.9375
vt 0.317649375 0.95216375
vt 0.297834375 1
vt 0.25 0.95216375
vt 0.25 0
vt 0.301775 0
vt 0.301775 1
vt 0.25 1
vt 0.25 0.932350625
vt 0.29783625 0.952165625
vt 0.25 1
vt 0.3125 0.948225
vt 0.3125 1
vt 0.25 0.9741125
vt 0.25 0
vt 0.301775 0
vt 0.301775 1
vt 0.25 1
vt 0.3125 0.948225
vt 0.3125 1
vt 0.25 0.9741125
vt 0.25 0.932350625
vt 0.29783625 0.952165625
vt 0.25 1
vt 0.25 0
vt 0.301775 0
vt 0.301775 1
vt 0.25 1
vt 0.317649375 0.95216375
vt 0.297834375 1
vt 0.25 0.95216375
vt 0.25 0.9375
vt 0.301775 0.9375
vt 0.2758875 1
vt 0.25 0
vt 0.301775 0
vt 0.301775 1
vt 0.25 1
vt 0.301775 1
vt 0.25 1
vt 0.2758875 0.9375
vt 0.25 1
vt 0.269815 0.95216375
vt 0.317649375 1
vt 0.25 0
vt 0.301775 0
vt 0.301775 1
vt 0.25 1
vt 0.29783625 1
vt 0.25 0.980185
vt 0.29783625 0.932350625
vt 0.25 1
vt 0.25 0.948225
vt 0.3125 0.9741125
vt 0.25 0
vt 0.301775 0
vt 0.301775 1
vt 0.25 1
vt 0.25 1
vt 0.25 0.948225
vt 0.3125 0.9741125
vt 0.29783625 1
vt 0.25 0.980185
vt 0.29783625 0.932350625
vt 0.25 0
vt 0.301775 0
vt 0.301775 1
vt 0.25 1
vt 0.25 1
vt 0.269815 0.95216375
vt 0.317649375 1
vt 0.301775 1
vt 0.25 1
vt 0.2758875 0.9375
vt 0.25 0
vt 0.301775 0
vt 0.301775 1
vt 0.25 1
vt 0.25 0.9375
vt 0.301775 0.9375
vt 0.2758875 1
vt 0.630149375 0.976081875
vt 0.610334375 1
vt 0.5625 0.976081875
vt 0.5625 0.5
vt 0.614275 0.5
vt 0.614275 1
vt 0.5625 1
vt 0.5625 0.966175625
vt 0.61033625 0.976083125
vt 0.5625 1
vt 0.625 0.9741125
vt 0.625 1
vt 0.5625 0.98705625
vt 0.5625 0.5
vt 0.614275 0.5
vt 0.614275 1
vt 0.5625 1
vt 0.625 0.9741125
vt 0.625 1
vt 0.5625 0.98705625
vt 0.5625 0.966175625
vt 0.61033625 0.976083125
vt 0.5625 1
vt 0.5625 0.5
vt 0.614275 0.5
vt 0.614275 1
vt 0.5625 1
vt 0.630149375 0.976081875
vt 0.610334375 1
vt 0.5625 0.976081875
vt 0.5625 0.96875
vt 0.614275 0.96875
vt 0.5883875 1
vt 0.5625 0.5
vt 0.614275 0.5
vt 0.614275 1
vt 0.5625 1
vt 0.614275 1
vt 0.5625 1
vt 0.5883875 0.96875
vt 0.5625 1
vt 0.582315 0.976081875
vt 0.630149375 1
vt 0.5625 0.5
vt 0.614275 0.5
vt 0.614275 1
vt 0.5625 1
vt 0.61033625 1
vt 0.5625 0.9900925
vt 0.61033625 0.966175625
vt 0.5625 1
vt 0.5625 0.9741125
vt 0.625 0.98705625
vt 0.5625 0.5
vt 0.614275 0.5
vt 0.614275 1
vt 0.5625 1
vt 0.5625 1
vt 0.5625 0.9741125
vt 0.625 0.98705625
vt 0.61033625 1
vt 0.5625 0.9900925
vt 0.61033625 0.966175625
vt 0.5625 0.5
vt 0.614275 0.5
vt 0.614275 1
vt 0.5625 1
vt 0.5625 1
vt 0.582315 0.976081875
vt 0.630149375 1
vt 0.614275 1
vt 0.5625 1
vt 0.5883875 0.96875
vt 0.5625 0.5
vt 0.614275 0.5
vt 0.614275 1
vt 0.5625 1
vt 0.5625 0.96875
vt 0.614275 0.96875
vt 0.5883875 1
vt 0.6734375 0.8828125
vt 0.6734375 0.96875
vt 0.671875 0.96875
vt 0.671875 0.8828125
vt 0.671875 0.8828125
vt 0.671875 0.96875
vt 0.6703125 0.96875
vt 0.6703125 0.8828125
vt 0.6875 0.953125
vt 0.6875 0.9546875
vt 0.671875 0.9546875
vt 0.671875 0.953125
vt 0.6875 0.9515625
vt 0.6875 0.953125
vt 0.671875 0.953125
vt 0.671875 0.9515625
vt 0.6875 0.8828125
vt 0.6875 0.96875
vt 0.671875 0.96875
vt 0.671875 0.8828125
vt 0.671875 0.8828125
vt 0.671875 0.96875
vt 0.65625 0.96875
vt 0.65625 0.8828125
vt 0.65703125 0.80078125
vt 0.65703125 0.859375
vt 0.65625 0.859375
vt 0.65625 0.80078125
vt 0.671875 0.80078125
vt 0.671875 0.859375
vt 0.67109375 0.859375
vt 0.67109375 0.80078125
vt 0.6875 0.83899453125
vt 0.6875 0.84001359375
vt 0.658203125 0.84001359375
vt 0.658203125 0.83899453125
vt 0.6875 0.8583559375
vt 0.6875 0.859375
vt 0.658203125 0.859375
vt 0.658203125 0.8583559375
vt 0.6875 0.80078125
vt 0.6875 0.859375
vt 0.658203125 0.859375
vt 0.658203125 0.80078125
vt 0.685546875 0.80078125
vt 0.685546875 0.859375
vt 0.65625 0.859375
vt 0.65625 0.80078125
vt 0.6734375 0.8828125
vt 0.6734375 0.96875
vt 0.671875 0.96875
vt 0.671875 0.8828125
vt 0.671875 0.8828125
vt 0.671875 0.96875
vt 0.6703125 0.96875
vt 0.6703125 0.8828125
vt 0.6875 0.953125
vt 0.6875 0.9546875
vt 0.671875 0.9546875
vt 0.671875 0.953125
vt 0.6875 0.9515625
vt 0.6875 0.953125
vt 0.671875 0.953125
vt 0.671875 0.9515625
vt 0.6875 0.8828125
vt 0.6875 0.96875
vt 0.671875 0.96875
vt 0.671875 0.8828125
vt 0.671875 0.8828125
vt 0.671875 0.96875
vt 0.65625 0.96875
vt 0.65625 0.8828125
vt 0.65703125 0.80078125
vt 0.65703125 0.859375
vt 0.65625 0.859375
vt 0.65625 0.80078125
vt 0.671875 0.80078125
vt 0.671875 0.859375
vt 0.67109375 0.859375
vt 0.67109375 0.80078125
vt 0.6875 0.83899453125
vt 0.6875 0.84001359375
vt 0.658203125 0.84001359375
vt 0.658203125 0.83899453125
vt 0.6875 0.8583559375
vt 0.6875 0.859375
vt 0.658203125 0.859375
vt 0.658203125 0.8583559375
vt 0.6875 0.80078125
vt 0.6875 0.859375
vt 0.658203125 0.859375
vt 0.658203125 0.80078125
vt 0.685546875 0.80078125
vt 0.685546875 0.859375
vt 0.65625 0.859375
vt 0.65625 0.80078125
vn -0.7893522173763265 -0.6139406135149205 0
vn 1 0 -1.2246467991473532e-16
vn 0 1 0
vn -1.2688263138573217e-16 0 -1
vn 1.2246467991473532e-16 0 1
vn 0.7893522173763263 -0.6139406135149205 0
vn -1 0 1.2246467991473532e-16
vn 0 1 0
vn 1.2246467991473532e-16 0 1
vn -1.2688263138573217e-16 0 -1
vn 0 -1 0
vn 0.7071067811865474 0 0.7071067811865477
vn 0 1 0
vn 0 -1 0
vn 1 0 -1.340169267551672e-16
vn 0 1 0
vn 0 -1 0
vn 0.7071067811865476 0 -0.7071067811865476
vn 0 1 0
vn 0 -1 0
vn -1.2246467991473532e-16 0 -1
vn 0 1 0
vn 0 -1 0
vn -0.7071067811865474 0 -0.7071067811865477
vn 0 1 0
vn 0 -1 0
vn -1 0 0
vn 0 1 0
vn 0 -1 0
vn -0.7071067811865474 0 0.7071067811865477
vn 0 1 0
vn 0 -1 0
vn 0 0 1
vn 0 1 0
vn 0 -1 0
vn 0.7071067811865475 0 0.7071067811865477
vn 0 1 0
vn 0 -1 0
vn 1 0 -1.340169267551672e-16
vn 0 1 0
vn 0 -1 0
vn 0.7071067811865476 0 -0.7071067811865476
vn 0 1 0
vn 0 -1 0
vn -1.2246467991473532e-16 0 -1
vn 0 1 0
vn 0 -1 0
vn -0.7071067811865475 0 -0.7071067811865477
vn 0 1 0
vn 0 -1 0
vn -1 0 0
vn 0 1 0
vn 0 -1 0
vn -0.7071067811865475 0 0.7071067811865477
vn 0 1 0
vn 0 -1 0
vn 0 0 1
vn 0 1 0
vn 0.8309071769755082 -0.5564110560103849 0
vn -0.8386923819939369 0.5446054428532057 -1.289884804249191e-15
vn 0 1 0
vn -1 0 0
vn 0 0 1
vn 0 0 -1
vn 0.8479983040050881 0.52999894000318 1.2552896559327099e-15
vn -0.8376105968386143 -0.5462677805469224 -1.7250960144329266e-15
vn 0 1 0
vn 1 0 8.217301096052211e-32
vn 0 0 1
vn 0 0 -1
vn -0.8309071769755082 0.5564110560103848 -1.7571281508657107e-15
vn 0.8386923819939369 -0.5446054428532058 1.2898848042491915e-15
vn 0 -1 0
vn 1 2.5376526277146434e-16 0
vn 0 0 1
vn 0 0 -1
vn -0.847998304005088 -0.5299989400031802 0
vn 0.8376105968386142 0.5462677805469224 1.7250960144329262e-15
vn 0 -1 0
vn -1 -1.2688263138573217e-16 0
vn 0 0 1
vn 0 0 -1
usemtl m_f012d24c-1ca2-de5e-0225-b7257b9c7c6d
f 20/49/13 18/50/13 17/51/13 19/52/13
f 19/53/14 21/54/14 22/55/14 20/56/14
f 17/57/15 18/58/15 22/59/15 21/60/15
f 17/61/16 21/62/16 19/63/16
f 22/64/17 18/65/17 20/66/17
f 26/67/18 24/68/18 23/69/18 25/70/18
f 25/71/19 27/72/19 28/73/19 26/74/19
f 23/75/20 24/76/20 28/77/20 27/78/20
f 23/79/21 27/80/21 25/81/21
f 28/82/22 24/83/22 26/84/22
usemtl m_16830594-a67c-fbd7-af60-7f51c1d503f8
f 33/85/23 31/86/23 29/87/23
f 31/88/24 33/89/24 34/90/24 32/91/24
f 32/92/25 34/93/25 30/94/25
f 35/95/26 33/96/26 29/97/26
f 33/98/27 35/99/27 36/100/27 34/101/27
f 34/102/28 36/103/28 30/104/28
f 37/105/29 35/106/29 29/107/29
f 35/108/30 37/109/30 38/110/30 36/111/30
f 36/112/31 38/113/31 30/114/31
f 39/115/32 37/116/32 29/117/32
f 37/118/33 39/119/33 40/120/33 38/121/33
f 38/122/34 40/123/34 30/124/34
f 41/125/35 39/126/35 29/127/35
f 39/128/36 41/129/36 42/130/36 40/131/36
f 40/132/37 42/133/37 30/134/37
f 43/135/38 41/136/38 29/137/38
f 41/138/39 43/139/39 44/140/39 42/141/39
f 42/142/40 44/143/40 30/144/40
f 45/145/41 43/146/41 29/147/41
f 43/148/42 45/149/42 46/150/42 44/151/42
f 44/152/43 46/153/43 30/154/43
f 31/155/44 45/156/44 29/157/44
f 45/158/45 31/159/45 32/160/45 46/161/45
f 46/162/46 32/163/46 30/164/46
f 51/165/47 49/166/47 47/167/47
f 49/168/48 51/169/48 52/170/48 50/171/48
f 50/172/49 52/173/49 48/174/49
f 53/175/50 51/176/50 47/177/50
f 51/178/51 53/179/51 54/180/51 52/181/51
f 52/182/52 54/183/52 48/184/52
f 55/185/53 53/186/53 47/187/53
f 53/188/54 55/189/54 56/190/54 54/191/54
f 54/192/55 56/193/55 48/194/55
f 57/195/56 55/196/56 47/197/56
f 55/198/57 57/199/57 58/200/57 56/201/57
f 56/202/58 58/203/58 48/204/58
f 59/205/59 57/206/59 47/207/59
f 57/208/60 59/209/60 60/210/60 58/211/60
f 58/212/61 60/213/61 48/214/61
f 61/215/62 59/216/62 47/217/62
f 59/218/63 61/219/63 62/220/63 60/221/63
f 60/222/64 62/223/64 48/224/64
f 63/225/65 61/226/65 47/227/65
f 61/228/66 63/229/66 64/230/66 62/231/66
f 62/232/67 64/233/67 48/234/67
f 49/235/68 63/236/68 47/237/68
f 63/238/69 49/239/69 50/240/69 64/241/69
f 64/242/70 50/243/70 48/244/70
usemtl m_f012d24c-1ca2-de5e-0225-b7257b9c7c6d
f 68/245/71 66/246/71 65/247/71 67/248/71
f 71/249/72 69/250/72 70/251/72 72/252/72
f 65/253/73 66/254/73 70/255/73 69/256/73
f 68/257/74 67/258/74 71/259/74 72/260/74
f 67/261/75 65/262/75 69/263/75 71/264/75
f 72/265/76 70/266/76 66/267/76 68/268/76
f 76/269/77 74/270/77 73/271/77 75/272/77
f 79/273/78 77/274/78 78/275/78 80/276/78
f 73/277/79 74/278/79 78/279/79 77/280/79
f 76/281/80 75/282/80 79/283/80 80/284/80
f 75/285/81 73/286/81 77/287/81 79/288/81
f 80/289/82 78/290/82 74/291/82 76/292/82
f 84/293/83 82/294/83 81/295/83 83/296/83
f 87/297/84 85/298/84 86/299/84 88/300/84
f 81/301/85 82/302/85 86/303/85 85/304/85
f 84/305/86 83/306/86 87/307/86 88/308/86
f 83/309/87 81/310/87 85/311/87 87/312/87
f 88/313/88 86/314/88 82/315/88 84/316/88
f 92/317/89 90/318/89 89/319/89 91/320/89
f 95/321/90 93/322/90 94/323/90 96/324/90
f 89/325/91 90/326/91 94/327/91 93/328/91
f 92/329/92 91/330/92 95/331/92 96/332/92
f 91/333/93 89/334/93 93/335/93 95/336/93
f 96/337/94 94/338/94 90/339/94 92/340/94
o cube
v 0.125 1.43125 0
v 0.125 1.43125 -0.0625
v 0.125 1.36875 0
v 0.125 1.36875 -0.0625
v -0.125 1.43125 -0.0625
v -0.125 1.43125 0
v -0.125 1.36875 -0.0625
v -0.125 1.36875 0
vt 0.375 0.8125
vt 0.75 0.8125
vt 0.75 0.75
vt 0.375 0.75
vt 0.4375 0.8125
vt 0.5 0.8125
vt 0.5 0.75
vt 0.4375 0.75
vt 0.375 0.8125
vt 0.75 0.8125
vt 0.75 0.75
vt 0.375 0.75
vt 0.375 0.8125
vt 0.4375 0.8125
vt 0.4375 0.75
vt 0.375 0.75
vt 0.375 0.8125
vt 0.75 0.8125
vt 0.75 0.75
vt 0.375 0.75
vt 0.375 0.75
vt 0.75 0.75
vt 0.75 0.6875
vt 0.375 0.6875
vn 0 0 -1
vn 1 0 0
vn 0 0 1
vn -1 0 0
vn 0 1 0
vn 0 -1 0
usemtl m_16830594-a67c-fbd7-af60-7f51c1d503f8
f 100/344/95 103/343/95 101/342/95 98/341/95
f 99/348/96 100/347/96 98/346/96 97/345/96
f 104/352/97 99/351/97 97/350/97 102/349/97
f 103/356/98 104/355/98 102/354/98 101/353/98
f 102/360/99 97/359/99 98/358/99 101/357/99
f 103/364/100 100/363/100 99/362/100 104/361/100
o cube
v 0.28125 1.171875 -0.056249999999999994
v 0.28125 1.171875 -0.11875
v 0.28125 0.359375 -0.056249999999999994
v 0.28125 0.359375 -0.11875
v -0.28125 1.171875 -0.11875
v -0.28125 1.171875 -0.056249999999999994
v -0.28125 0.359375 -0.11875
v -0.28125 0.359375 -0.056249999999999994
vt 0.53125 1
vt 0.671875 1
vt 0.671875 0.796875
vt 0.53125 0.796875
vt 0.53125 1
vt 0.546875 1
vt 0.546875 0.796875
vt 0.53125 0.796875
vt 0.3125 0.703125
vt 0.453125 0.703125
vt 0.453125 0.5
vt 0.3125 0.5
vt 0.53125 1
vt 0.546875 1
vt 0.546875 0.796875
vt 0.53125 0.796875
vt 0.53125 1
vt 0.671875 1
vt 0.671875 0.984375
vt 0.53125 0.984375
vt 0.53125 1
vt 0.671875 1
vt 0.671875 0.984375
vt 0.53125 0.984375
vn 0 0 -1
vn 1 0 0
vn 0 0 1
vn -1 0 0
vn 0 1 0
vn 0 -1 0
usemtl m_f012d24c-1ca2-de5e-0225-b7257b9c7c6d
f 108/368/101 111/367/101 109/366/101 106/365/101
f 107/372/102 108/371/102 106/370/102 105/369/102
f 112/376/103 107/375/103 105/374/103 110/373/103
f 111/380/104 112/379/104 110/378/104 109/377/104
f 110/384/105 105/383/105 106/382/105 109/381/105
f 111/388/106 108/387/106 107/386/106 112/385/106