# Blender 5.2.0 LTS
# www.blender.org
mtllib ne_2_small_east_reduced_brake_distance.mtl
o cube
v 0.234375 1.115625 -0.112500
v 0.234375 1.115625 -0.131250
v -0.000000 0.765625 -0.112500
v -0.000000 0.765625 -0.131250
v 0.156250 1.115625 -0.112500
v 0.156250 1.115625 -0.131250
v 0.000000 0.875000 -0.112500
v 0.000000 0.875000 -0.131250
v -0.234375 0.415625 -0.112500
v -0.234375 0.415625 -0.131250
v -0.156250 0.415625 -0.112500
v -0.156250 0.415625 -0.131250
v 0.000000 0.656250 -0.112500
v 0.000000 0.656250 -0.131250
v -0.156250 1.125000 -0.112500
v -0.156250 1.125000 -0.131250
v -0.234375 1.125000 -0.112500
v -0.234375 1.125000 -0.131250
v 0.156250 0.406250 -0.112500
v 0.156250 0.406250 -0.131250
v 0.234375 0.406250 -0.112500
v 0.234375 0.406250 -0.131250
v 0.000000 0.000000 0.000000
v 0.000000 0.500000 -0.000000
v 0.025888 0.000000 0.062500
v 0.025888 0.500000 0.062500
v 0.062500 0.000000 0.025888
v 0.062500 0.500000 0.025888
v 0.062500 -0.000000 -0.025888
v 0.062500 0.500000 -0.025888
v 0.025888 -0.000000 -0.062500
v 0.025888 0.500000 -0.062500
v -0.025888 -0.000000 -0.062500
v -0.025888 0.500000 -0.062500
v -0.062500 -0.000000 -0.025888
v -0.062500 0.500000 -0.025888
v -0.062500 0.000000 0.025888
v -0.062500 0.500000 0.025888
v -0.025888 0.000000 0.062500
v -0.025888 0.500000 0.062500
v 0.000000 1.000000 -0.000000
v 0.025888 1.000000 0.062500
v 0.062500 1.000000 0.025888
v 0.062500 1.000000 -0.025888
v 0.025888 1.000000 -0.062500
v -0.025888 1.000000 -0.062500
v -0.062500 1.000000 -0.025888
v -0.062500 1.000000 0.025888
v -0.025888 1.000000 0.062500
v 0.000000 1.515625 -0.118750
v 0.000000 1.515625 -0.056250
v -0.281250 1.171875 -0.118750
v -0.281250 1.171875 -0.056250
v 0.000000 1.171875 -0.118750
v 0.000000 1.171875 -0.056250
v 0.281250 1.171875 -0.056250
v 0.281250 1.171875 -0.118750
v 0.032361 1.203125 -0.131250
v 0.032361 1.203125 -0.118750
v -0.016750 1.321688 -0.131250
v -0.016750 1.321688 -0.118750
v 0.078125 1.248889 -0.131250
v 0.078125 1.248889 -0.118750
v -0.040438 1.298000 -0.131250
v -0.040438 1.298000 -0.118750
v 0.078125 1.313611 -0.131250
v 0.078125 1.313611 -0.118750
v -0.040438 1.264500 -0.131250
v -0.040438 1.264500 -0.118750
v 0.032361 1.359375 -0.131250
v 0.032361 1.359375 -0.118750
v -0.016750 1.240812 -0.131250
v -0.016750 1.240812 -0.118750
v -0.032361 1.359375 -0.131250
v -0.032361 1.359375 -0.118750
v 0.016750 1.240812 -0.131250
v 0.016750 1.240812 -0.118750
v -0.078125 1.313611 -0.131250
v -0.078125 1.313611 -0.118750
v 0.040438 1.264500 -0.131250
v 0.040438 1.264500 -0.118750
v -0.078125 1.248889 -0.131250
v -0.078125 1.248889 -0.118750
v 0.040438 1.298000 -0.131250
v 0.040438 1.298000 -0.118750
v -0.032361 1.203125 -0.131250
v -0.032361 1.203125 -0.118750
v 0.016750 1.321688 -0.131250
v 0.016750 1.321688 -0.118750
v 0.281250 0.359375 -0.056250
v 0.281250 0.359375 -0.118750
v -0.281250 0.359375 -0.056250
v -0.281250 0.359375 -0.118750
v 0.187500 0.687500 -0.000000
v 0.187500 0.687500 -0.062500
v 0.187500 0.625000 -0.000000
v 0.187500 0.625000 -0.062500
v -0.187500 0.687500 -0.000000
v -0.187500 0.687500 -0.062500
v -0.187500 0.625000 -0.000000
v -0.187500 0.625000 -0.062500
v 0.187500 0.993750 -0.000000
v 0.187500 0.993750 -0.062500
v 0.187500 0.931250 -0.000000
v 0.187500 0.931250 -0.062500
v -0.187500 0.993750 -0.000000
v -0.187500 0.993750 -0.062500
v -0.187500 0.931250 -0.000000
v -0.187500 0.931250 -0.062500
vn 0.8309 -0.5564 -0.0000
vn -0.8387 0.5446 -0.0000
vn -0.0000 1.0000 -0.0000
vn -1.0000 -0.0000 -0.0000
vn -0.0000 -0.0000 1.0000
vn -0.0000 -0.0000 -1.0000
vn -0.8309 0.5564 -0.0000
vn 0.8387 -0.5446 -0.0000
vn -0.0000 -1.0000 -0.0000
vn 1.0000 -0.0000 -0.0000
vn 0.8480 0.5300 -0.0000
vn -0.8376 -0.5463 -0.0000
vn -0.8480 -0.5300 -0.0000
vn 0.8376 0.5463 -0.0000
vn 0.7071 -0.0000 0.7071
vn 0.7071 -0.0000 -0.7071
vn -0.7071 -0.0000 -0.7071
vn -0.7071 -0.0000 0.7071
vn -0.7740 0.6332 -0.0000
vn 0.7740 0.6332 -0.0000
vn 0.7071 -0.7071 -0.0000
vn -0.7071 0.7071 -0.0000
vn 0.7071 0.7071 -0.0000
vn -0.7071 -0.7071 -0.0000
vt 0.673437 0.882812
vt 0.673437 0.968750
vt 0.671875 0.968750
vt 0.671875 0.882812
vt 0.670313 0.968750
vt 0.670313 0.882812
vt 0.687500 0.953125
vt 0.687500 0.954687
vt 0.671875 0.954687
vt 0.671875 0.953125
vt 0.687500 0.951563
vt 0.671875 0.951563
vt 0.687500 0.882812
vt 0.687500 0.968750
vt 0.656250 0.968750
vt 0.656250 0.882812
vt 0.657031 0.800781
vt 0.657031 0.859375
vt 0.656250 0.859375
vt 0.656250 0.800781
vt 0.671875 0.800781
vt 0.671875 0.859375
vt 0.671094 0.859375
vt 0.671094 0.800781
vt 0.687500 0.838995
vt 0.687500 0.840014
vt 0.658203 0.840014
vt 0.658203 0.838995
vt 0.687500 0.800781
vt 0.687500 0.859375
vt 0.658203 0.859375
vt 0.658203 0.800781
vt 0.685547 0.800781
vt 0.685547 0.859375
vt 0.630149 0.976082
vt 0.610334 1.000000
vt 0.562500 0.976082
vt 0.562500 0.500000
vt 0.614275 0.500000
vt 0.614275 1.000000
vt 0.562500 1.000000
vt 0.562500 0.966176
vt 0.610336 0.976083
vt 0.625000 0.974113
vt 0.625000 1.000000
vt 0.562500 0.987056
vt 0.562500 0.968750
vt 0.614275 0.968750
vt 0.588387 1.000000
vt 0.588387 0.968750
vt 0.582315 0.976082
vt 0.630149 1.000000
vt 0.610336 1.000000
vt 0.562500 0.990093
vt 0.610336 0.966176
vt 0.562500 0.974113
vt 0.625000 0.987056
vt 0.328125 0.601562
vt 0.328125 0.671875
vt 0.312500 0.671875
vt 0.312500 0.601562
vt 0.015625 0.054688
vt 0.015625 0.125000
vt 0.000000 0.125000
vt 0.000000 0.054688
vt 0.421875 0.640625
vt 0.421875 0.656250
vt 0.351562 0.656250
vt 0.351562 0.640625
vt 0.671875 0.914062
vt 0.601562 0.984375
vt 0.671875 0.984375
vt 0.343750 0.601562
vt 0.343750 0.531250
vt 0.414062 0.531250
vt 0.351562 0.625000
vt 0.351562 0.554688
vt 0.421875 0.554688
vt 0.531250 0.882812
vt 0.531250 0.812500
vt 0.601562 0.812500
vt 0.328681 0.671875
vt 0.328681 0.687500
vt 0.312500 0.687500
vt 0.320875 0.687500
vt 0.320875 0.671875
vt 0.328680 0.657859
vt 0.312500 0.657859
vt 0.316402 0.687500
vt 0.324777 0.687500
vt 0.342141 0.687500
vt 0.342141 0.671319
vt 0.312500 0.675222
vt 0.312500 0.683597
vt 0.342141 0.687500
vt 0.342141 0.671320
vt 0.312500 0.675223
vt 0.312500 0.683598
vt 0.324778 0.657859
vt 0.316403 0.657859
vt 0.328680 0.687500
vt 0.324777 0.657859
vt 0.316402 0.657859
vt 0.312500 0.671319
vt 0.342141 0.683597
vt 0.342141 0.675222
vt 0.312500 0.671320
vt 0.342141 0.683598
vt 0.342141 0.675223
vt 0.328681 0.657859
vt 0.312500 0.657859
vt 0.316403 0.687500
vt 0.324778 0.687500
vt 0.546875 0.796875
vt 0.546875 1.000000
vt 0.531250 1.000000
vt 0.531250 0.796875
vt 0.671875 1.000000
vt 0.531250 0.984375
vt 0.453125 0.500000
vt 0.453125 0.703125
vt 0.312500 0.703125
vt 0.312500 0.500000
vt 0.671875 0.796875
vt 0.500000 0.750000
vt 0.500000 0.812500
vt 0.437500 0.812500
vt 0.437500 0.750000
vt 0.375000 0.812500
vt 0.375000 0.750000
vt 0.750000 0.750000
vt 0.750000 0.812500
vt 0.750000 0.687500
vt 0.375000 0.687500
s 0
usemtl m_f012d24c-1ca2-de5e-0225-b7257b9c7c6d.002
f 4/1/1 2/2/1 1/3/1 3/4/1
f 7/4/2 5/3/2 6/5/2 8/6/2
f 1/7/3 2/8/3 6/9/3 5/10/3
f 4/11/4 3/7/4 7/10/4 8/12/4
f 3/13/5 1/14/5 5/3/5 7/4/5
f 8/4/6 6/3/6 2/15/6 4/16/6
f 4/1/7 10/2/7 9/3/7 3/4/7
f 13/4/8 11/3/8 12/5/8 14/6/8
f 9/7/9 10/8/9 12/9/9 11/10/9
f 4/11/10 3/7/10 13/10/10 14/12/10
f 3/13/5 9/14/5 11/3/5 13/4/5
f 14/4/6 12/3/6 10/15/6 4/16/6
f 8/17/11 16/18/11 15/19/11 7/20/11
f 3/21/12 17/22/12 18/23/12 4/24/12
f 15/25/3 16/26/3 18/27/3 17/28/3
f 7/29/5 15/30/5 17/31/5 3/32/5
f 4/33/6 18/34/6 16/19/6 8/20/6
f 14/17/13 20/18/13 19/19/13 13/20/13
f 3/21/14 21/22/14 22/23/14 4/24/14
f 19/25/9 20/26/9 22/27/9 21/28/9
f 13/29/5 19/30/5 21/31/5 3/32/5
f 4/33/6 22/34/6 20/19/6 14/20/6
f 53/58/19 51/59/19 50/60/19 52/61/19
f 54/62/10 50/63/10 51/64/10 55/65/10
f 53/66/9 52/67/9 54/68/9 55/69/9
f 50/70/6 54/71/6 52/72/6
f 51/73/5 53/74/5 55/75/5
f 57/58/20 50/59/20 51/60/20 56/61/20
f 57/66/9 56/67/9 55/68/9 54/69/9
f 51/76/5 55/77/5 56/78/5
f 50/79/6 57/80/6 54/81/6
f 58/60/21 62/82/21 63/83/21 59/84/21
f 61/85/22 60/86/22 64/60/22 65/84/22
f 62/87/6 58/88/6 64/89/6 60/90/6
f 65/89/5 59/88/5 63/87/5 61/90/5
f 62/60/10 66/82/10 67/83/10 63/84/10
f 65/85/4 64/86/4 68/60/4 69/84/4
f 66/91/6 62/92/6 68/93/6 64/94/6
f 69/93/5 63/92/5 67/91/5 65/94/5
f 66/60/23 70/82/23 71/83/23 67/84/23
f 69/85/24 68/86/24 72/60/24 73/84/24
f 70/95/6 66/96/6 72/97/6 68/98/6
f 73/97/5 67/96/5 71/95/5 69/98/5
f 70/60/3 74/82/3 75/83/3 71/84/3
f 73/85/9 72/86/9 76/60/9 77/84/9
f 74/84/6 70/83/6 76/99/6 72/100/6
f 77/99/5 71/83/5 75/84/5 73/100/5
f 74/60/22 78/82/22 79/83/22 75/84/22
f 77/85/21 76/86/21 80/60/21 81/84/21
f 78/84/6 74/101/6 80/102/6 76/103/6
f 81/102/5 75/101/5 79/84/5 77/103/5
f 78/60/4 82/82/4 83/83/4 79/84/4
f 81/85/10 80/86/10 84/60/10 85/84/10
f 82/104/6 78/84/6 84/105/6 80/106/6
f 85/105/5 79/84/5 83/104/5 81/106/5
f 82/60/24 86/82/24 87/83/24 83/84/24
f 85/85/23 84/86/23 88/60/23 89/84/23
f 86/107/6 82/84/6 88/108/6 84/109/6
f 89/108/5 83/84/5 87/107/5 85/109/5
f 86/60/9 58/82/9 59/83/9 87/84/9
f 89/85/3 88/86/3 60/60/3 61/84/3
f 58/110/6 86/111/6 60/112/6 88/113/6
f 61/112/5 87/111/5 59/110/5 89/113/5
f 91/114/10 57/115/10 56/116/10 90/117/10
f 92/114/4 53/115/4 52/116/4 93/117/4
f 56/72/3 57/118/3 52/116/3 53/119/3
f 91/72/9 90/118/9 92/116/9 93/119/9
f 90/120/5 56/121/5 53/122/5 92/123/5
f 93/124/6 52/118/6 57/116/6 91/117/6
usemtl m_16830594-a67c-fbd7-af60-7f51c1d503f8.005
f 27/35/9 25/36/9 23/37/9
f 25/38/15 27/39/15 28/40/15 26/41/15
f 26/42/3 28/43/3 24/41/3
f 29/44/9 27/45/9 23/46/9
f 27/38/10 29/39/10 30/40/10 28/41/10
f 28/44/3 30/45/3 24/46/3
f 31/42/9 29/43/9 23/41/9
f 29/38/16 31/39/16 32/40/16 30/41/16
f 30/35/3 32/36/3 24/37/3
f 33/47/9 31/48/9 23/49/9
f 31/38/6 33/39/6 34/40/6 32/41/6
f 32/40/3 34/41/3 24/50/3
f 35/41/9 33/51/9 23/52/9
f 33/38/17 35/39/17 36/40/17 34/41/17
f 34/53/3 36/54/3 24/55/3
f 37/41/9 35/56/9 23/57/9
f 35/38/4 37/39/4 38/40/4 36/41/4
f 36/41/3 38/56/3 24/57/3
f 39/53/9 37/54/9 23/55/9
f 37/38/18 39/39/18 40/40/18 38/41/18
f 38/41/3 40/51/3 24/52/3
f 25/40/9 39/41/9 23/50/9
f 39/38/5 25/39/5 26/40/5 40/41/5
f 40/47/3 26/48/3 24/49/3
f 26/38/15 28/39/15 43/40/15 42/41/15
f 42/42/3 43/43/3 41/41/3
f 28/38/10 30/39/10 44/40/10 43/41/10
f 43/44/3 44/45/3 41/46/3
f 30/38/16 32/39/16 45/40/16 44/41/16
f 44/35/3 45/36/3 41/37/3
f 32/38/6 34/39/6 46/40/6 45/41/6
f 45/40/3 46/41/3 41/50/3
f 34/38/17 36/39/17 47/40/17 46/41/17
f 46/53/3 47/54/3 41/55/3
f 36/38/4 38/39/4 48/40/4 47/41/4
f 47/41/3 48/56/3 41/57/3
f 38/38/18 40/39/18 49/40/18 48/41/18
f 48/41/3 49/51/3 41/52/3
f 40/38/5 26/39/5 42/40/5 49/41/5
f 49/47/3 42/48/3 41/49/3
f 97/125/10 95/126/10 94/127/10 96/128/10
f 100/128/4 98/127/4 99/129/4 101/130/4
f 94/131/3 95/132/3 99/129/3 98/130/3
f 97/133/9 96/131/9 100/130/9 101/134/9
f 96/131/5 94/132/5 98/129/5 100/130/5
f 101/131/6 99/132/6 95/129/6 97/130/6
f 105/125/10 103/126/10 102/127/10 104/128/10
f 108/128/4 106/127/4 107/129/4 109/130/4
f 102/131/3 103/132/3 107/129/3 106/130/3
f 105/133/9 104/131/9 108/130/9 109/134/9
f 104/131/5 102/132/5 106/129/5 108/130/5
f 109/131/6 107/132/6 103/129/6 105/130/6
