# Made in Blockbench 5.1.6
mtllib ne_2_small_west.mtl

o cube
v 0.234375 1.115625 -0.11249999999999999
v 0.234375 1.115625 -0.13125
v 0 0.765625 -0.11249999999999999
v 0 0.765625 -0.13125
v 0.15625 1.115625 -0.11249999999999999
v 0.15625 1.115625 -0.13125
v 0 0.875 -0.11249999999999999
v 0 0.875 -0.13125
v -0.234375 0.415625 -0.11249999999999999
v -0.234375 0.415625 -0.13125
v -2.7755575615628914e-17 0.765625 -0.11249999999999999
v -2.7755575615628914e-17 0.765625 -0.13125
v -0.15625 0.415625 -0.11249999999999999
v -0.15625 0.415625 -0.13125
v 0 0.65625 -0.11249999999999999
v 0 0.65625 -0.13125
v -0.15625 1.125 -0.11249999999999999
v -0.15625 1.125 -0.13124999999999998
v 0 0.875 -0.11249999999999999
v 0 0.875 -0.13124999999999998
v -0.234375 1.125 -0.11249999999999999
v -0.234375 1.125 -0.13124999999999998
v 0 0.765625 -0.11249999999999999
v 0 0.765625 -0.13124999999999998
v 0.15625000000000006 0.40625 -0.11249999999999999
v 0.15625000000000006 0.40625 -0.13124999999999998
v 0 0.65625 -0.11249999999999999
v 0 0.65625 -0.13124999999999998
v 0.23437500000000006 0.40625 -0.11249999999999999
v 0.23437500000000006 0.40625 -0.13124999999999998
v 0 0.765625 -0.11249999999999999
v 0 0.765625 -0.13124999999999998
v 0 0 0
v 0 0.5 0
v 0.025888125000000012 0 0.0625
v 0.025888125000000012 0.5 0.0625
v 0.0625 0 0.025888125000000012
v 0.0625 0.5 0.025888125000000012
v 0.0625 0 -0.025888124999999998
v 0.0625 0.5 -0.025888124999999998
v 0.025888125000000012 0 -0.0625
v 0.025888125000000012 0.5 -0.0625
v -0.025888125000000012 0 -0.0625
v -0.025888125000000012 0.5 -0.0625
v -0.0625 0 -0.025888124999999998
v -0.0625 0.5 -0.025888124999999998
v -0.0625 0 0.025888125000000012
v -0.0625 0.5 0.025888125000000012
v -0.025888125000000012 0 0.0625
v -0.025888125000000012 0.5 0.0625
v 0 0.5 0
v 0 1 0
v 0.025888125000000012 0.5 0.0625
v 0.025888125000000012 1 0.0625
v 0.0625 0.5 0.025888125000000012
v 0.0625 1 0.025888125000000012
v 0.0625 0.5 -0.025888124999999998
v 0.0625 1 -0.025888124999999998
v 0.025888125000000012 0.5 -0.0625
v 0.025888125000000012 1 -0.0625
v -0.025888125000000012 0.5 -0.0625
v -0.025888125000000012 1 -0.0625
v -0.0625 0.5 -0.025888124999999998
v -0.0625 1 -0.025888124999999998
v -0.0625 0.5 0.025888125000000012
v -0.0625 1 0.025888125000000012
v -0.025888125000000012 0.5 0.0625
v -0.025888125000000012 1 0.0625
v 0.28125 1.171875 -0.056249999999999994
v 0.28125 1.171875 -0.11875
v 0.28125 0.359375 -0.056249999999999994
v 0.28125 0.359375 -0.11875
v -0.28125 1.171875 -0.056249999999999994
v -0.28125 1.171875 -0.11875
v -0.28125 0.359375 -0.056249999999999994
v -0.28125 0.359375 -0.11875
v 0.1875 0.6875 0
v 0.1875 0.6875 -0.0625
v 0.1875 0.625 0
v 0.1875 0.625 -0.0625
v -0.1875 0.6875 0
v -0.1875 0.6875 -0.0625
v -0.1875 0.625 0
v -0.1875 0.625 -0.0625
v 0.1875 0.99375 0
v 0.1875 0.99375 -0.0625
v 0.1875 0.93125 0
v 0.1875 0.93125 -0.0625
v -0.1875 0.99375 0
v -0.1875 0.99375 -0.0625
v -0.1875 0.93125 0
v -0.1875 0.93125 -0.0625
vt 0.6734375 0.8828125
vt 0.6734375 0.96875
vt 0.671875 0.96875
vt 0.671875 0.8828125
vt 0.671875 0.8828125
vt 0.671875 0.96875
vt 0.6703125 0.96875
vt 0.6703125 0.8828125
vt 0.6875 0.953125
vt 0.6875 0.9546875
vt 0.671875 0.9546875
vt 0.671875 0.953125
vt 0.6875 0.9515625
vt 0.6875 0.953125
vt 0.671875 0.953125
vt 0.671875 0.9515625
vt 0.6875 0.8828125
vt 0.6875 0.96875
vt 0.671875 0.96875
vt 0.671875 0.8828125
vt 0.671875 0.8828125
vt 0.671875 0.96875
vt 0.65625 0.96875
vt 0.65625 0.8828125
vt 0.6734375 0.8828125
vt 0.6734375 0.96875
vt 0.671875 0.96875
vt 0.671875 0.8828125
vt 0.671875 0.8828125
vt 0.671875 0.96875
vt 0.6703125 0.96875
vt 0.6703125 0.8828125
vt 0.6875 0.953125
vt 0.6875 0.9546875
vt 0.671875 0.9546875
vt 0.671875 0.953125
vt 0.6875 0.9515625
vt 0.6875 0.953125
vt 0.671875 0.953125
vt 0.671875 0.9515625
vt 0.6875 0.8828125
vt 0.6875 0.96875
vt 0.671875 0.96875
vt 0.671875 0.8828125
vt 0.671875 0.8828125
vt 0.671875 0.96875
vt 0.65625 0.96875
vt 0.65625 0.8828125
vt 0.65703125 0.80078125
vt 0.65703125 0.859375
vt 0.65625 0.859375
vt 0.65625 0.80078125
vt 0.671875 0.80078125
vt 0.671875 0.859375
vt 0.67109375 0.859375
vt 0.67109375 0.80078125
vt 0.6875 0.83899453125
vt 0.6875 0.84001359375
vt 0.658203125 0.84001359375
vt 0.658203125 0.83899453125
vt 0.6875 0.8583559375
vt 0.6875 0.859375
vt 0.658203125 0.859375
vt 0.658203125 0.8583559375
vt 0.6875 0.80078125
vt 0.6875 0.859375
vt 0.658203125 0.859375
vt 0.658203125 0.80078125
vt 0.685546875 0.80078125
vt 0.685546875 0.859375
vt 0.65625 0.859375
vt 0.65625 0.80078125
vt 0.65703125 0.80078125
vt 0.65703125 0.859375
vt 0.65625 0.859375
vt 0.65625 0.80078125
vt 0.671875 0.80078125
vt 0.671875 0.859375
vt 0.67109375 0.859375
vt 0.67109375 0.80078125
vt 0.6875 0.83899453125
vt 0.6875 0.84001359375
vt 0.658203125 0.84001359375
vt 0.658203125 0.83899453125
vt 0.6875 0.8583559375
vt 0.6875 0.859375
vt 0.658203125 0.859375
vt 0.658203125 0.8583559375
vt 0.6875 0.80078125
vt 0.6875 0.859375
vt 0.658203125 0.859375
vt 0.658203125 0.80078125
vt 0.685546875 0.80078125
vt 0.685546875 0.859375
vt 0.65625 0.859375
vt 0.65625 0.80078125
vt 0.630149375 0.976081875
vt 0.610334375 1
vt 0.5625 0.976081875
vt 0.5625 0.5
vt 0.614275 0.5
vt 0.614275 1
vt 0.5625 1
vt 0.5625 0.966175625
vt 0.61033625 0.976083125
vt 0.5625 1
vt 0.625 0.9741125
vt 0.625 1
vt 0.5625 0.98705625
vt 0.5625 0.5
vt 0.614275 0.5
vt 0.614275 1
vt 0.5625 1
vt 0.625 0.9741125
vt 0.625 1
vt 0.5625 0.98705625
vt 0.5625 0.966175625
vt 0.61033625 0.976083125
vt 0.5625 1
vt 0.5625 0.5
vt 0.614275 0.5
vt 0.614275 1
vt 0.5625 1
vt 0.630149375 0.976081875
vt 0.610334375 1
vt 0.5625 0.976081875
vt 0.5625 0.96875
vt 0.614275 0.96875
vt 0.5883875 1
vt 0.5625 0.5
vt 0.614275 0.5
vt 0.614275 1
vt 0.5625 1
vt 0.614275 1
vt 0.5625 1
vt 0.5883875 0.96875
vt 0.5625 1
vt 0.582315 0.976081875
vt 0.630149375 1
vt 0.5625 0.5
vt 0.614275 0.5
vt 0.614275 1
vt 0.5625 1
vt 0.61033625 1
vt 0.5625 0.9900925
vt 0.61033625 0.966175625
vt 0.5625 1
vt 0.5625 0.9741125
vt 0.625 0.98705625
vt 0.5625 0.5
vt 0.614275 0.5
vt 0.614275 1
vt 0.5625 1
vt 0.5625 1
vt 0.5625 0.9741125
vt 0.625 0.98705625
vt 0.61033625 1
vt 0.5625 0.9900925
vt 0.61033625 0.966175625
vt 0.5625 0.5
vt 0.614275 0.5
vt 0.614275 1
vt 0.5625 1
vt 0.5625 1
vt 0.582315 0.976081875
vt 0.630149375 1
vt 0.614275 1
vt 0.5625 1
vt 0.5883875 0.96875
vt 0.5625 0.5
vt 0.614275 0.5
vt 0.614275 1
vt 0.5625 1
vt 0.5625 0.96875
vt 0.614275 0.96875
vt 0.5883875 1
vt 0.630149375 0.976081875
vt 0.610334375 1
vt 0.5625 0.976081875
vt 0.5625 0.5
vt 0.614275 0.5
vt 0.614275 1
vt 0.5625 1
vt 0.5625 0.966175625
vt 0.61033625 0.976083125
vt 0.5625 1
vt 0.625 0.9741125
vt 0.625 1
vt 0.5625 0.98705625
vt 0.5625 0.5
vt 0.614275 0.5
vt 0.614275 1
vt 0.5625 1
vt 0.625 0.9741125
vt 0.625 1
vt 0.5625 0.98705625
vt 0.5625 0.966175625
vt 0.61033625 0.976083125
vt 0.5625 1
vt 0.5625 0.5
vt 0.614275 0.5
vt 0.614275 1
vt 0.5625 1
vt 0.630149375 0.976081875
vt 0.610334375 1
vt 0.5625 0.976081875
vt 0.5625 0.96875
vt 0.614275 0.96875
vt 0.5883875 1
vt 0.5625 0.5
vt 0.614275 0.5
vt 0.614275 1
vt 0.5625 1
vt 0.614275 1
vt 0.5625 1
vt 0.5883875 0.96875
vt 0.5625 1
vt 0.582315 0.976081875
vt 0.630149375 1
vt 0.5625 0.5
vt 0.614275 0.5
vt 0.614275 1
vt 0.5625 1
vt 0.61033625 1
vt 0.5625 0.9900925
vt 0.61033625 0.966175625
vt 0.5625 1
vt 0.5625 0.9741125
vt 0.625 0.98705625
vt 0.5625 0.5
vt 0.614275 0.5
vt 0.614275 1
vt 0.5625 1
vt 0.5625 1
vt 0.5625 0.9741125
vt 0.625 0.98705625
vt 0.61033625 1
vt 0.5625 0.9900925
vt 0.61033625 0.966175625
vt 0.5625 0.5
vt 0.614275 0.5
vt 0.614275 1
vt 0.5625 1
vt 0.5625 1
vt 0.582315 0.976081875
vt 0.630149375 1
vt 0.614275 1
vt 0.5625 1
vt 0.5883875 0.96875
vt 0.5625 0.5
vt 0.614275 0.5
vt 0.614275 1
vt 0.5625 1
vt 0.5625 0.96875
vt 0.614275 0.96875
vt 0.5883875 1
vt 0.546875 0.796875
vt 0.546875 1
vt 0.53125 1
vt 0.53125 0.796875
vt 0.546875 0.796875
vt 0.546875 1
vt 0.53125 1
vt 0.53125 0.796875
vt 0.671875 0.984375
vt 0.671875 1
vt 0.53125 1
vt 0.53125 0.984375
vt 0.671875 0.984375
vt 0.671875 1
vt 0.53125 1
vt 0.53125 0.984375
vt 0.453125 0.5
vt 0.453125 0.703125
vt 0.3125 0.703125
vt 0.3125 0.5
vt 0.671875 0.796875
vt 0.671875 1
vt 0.53125 1
vt 0.53125 0.796875
vt 0.5 0.75
vt 0.5 0.8125
vt 0.4375 0.8125
vt 0.4375 0.75
vt 0.4375 0.75
vt 0.4375 0.8125
vt 0.375 0.8125
vt 0.375 0.75
vt 0.75 0.75
vt 0.75 0.8125
vt 0.375 0.8125
vt 0.375 0.75
vt 0.75 0.6875
vt 0.75 0.75
vt 0.375 0.75
vt 0.375 0.6875
vt 0.75 0.75
vt 0.75 0.8125
vt 0.375 0.8125
vt 0.375 0.75
vt 0.75 0.75
vt 0.75 0.8125
vt 0.375 0.8125
vt 0.375 0.75
vt 0.5 0.75
vt 0.5 0.8125
vt 0.4375 0.8125
vt 0.4375 0.75
vt 0.4375 0.75
vt 0.4375 0.8125
vt 0.375 0.8125
vt 0.375 0.75
vt 0.75 0.75
vt 0.75 0.8125
vt 0.375 0.8125
vt 0.375 0.75
vt 0.75 0.6875
vt 0.75 0.75
vt 0.375 0.75
vt 0.375 0.6875
vt 0.75 0.75
vt 0.75 0.8125
vt 0.375 0.8125
vt 0.375 0.75
vt 0.75 0.75
vt 0.75 0.8125
vt 0.375 0.8125
vt 0.375 0.75
vn 0.8309071769755081 -0.5564110560103849 0
vn -0.838692381993937 0.5446054428532058 0
vn 0 1 0
vn -1 0 0
vn 0 0 1
vn 0 0 -1
vn -0.8309071769755082 0.5564110560103849 0
vn 0.8386923819939368 -0.5446054428532058 0
vn 0 -1 0
vn 1 2.5376526277146434e-16 0
vn 0 0 1
vn 0 0 -1
vn 0.8479983040050881 0.52999894000318 0
vn -0.8376105968386143 -0.5462677805469224 0
vn 0 1 0
vn 1 0 0
vn 0 0 1
vn 0 0 -1
vn -0.847998304005088 -0.5299989400031802 0
vn 0.8376105968386142 0.5462677805469224 0
vn 0 -1 0
vn -1 0 0
vn 0 0 1
vn 0 0 -1
vn 0 -1 0
vn 0.7071067811865476 0 0.7071067811865476
vn 0 1 0
vn 0 -1 0
vn 1 0 0
vn 0 1 0
vn 0 -1 0
vn 0.7071067811865477 0 -0.7071067811865475
vn 0 1 0
vn 0 -1 0
vn 0 0 -1
vn 0 1 0
vn 0 -1 0
vn -0.7071067811865477 0 -0.7071067811865475
vn 0 1 0
vn 0 -1 0
vn -1 0 0
vn 0 1 0
vn 0 -1 0
vn -0.7071067811865476 0 0.7071067811865476
vn 0 1 0
vn 0 -1 0
vn 0 0 1
vn 0 1 0
vn 0 -1 0
vn 0.7071067811865476 0 0.7071067811865476
vn 0 1 0
vn 0 -1 0
vn 1 0 0
vn 0 1 0
vn 0 -1 0
vn 0.7071067811865477 0 -0.7071067811865475
vn 0 1 0
vn 0 -1 0
vn 0 0 -1
vn 0 1 0
vn 0 -1 0
vn -0.7071067811865477 0 -0.7071067811865475
vn 0 1 0
vn 0 -1 0
vn -1 0 0
vn 0 1 0
vn 0 -1 0
vn -0.7071067811865476 0 0.7071067811865476
vn 0 1 0
vn 0 -1 0
vn 0 0 1
vn 0 1 0
vn 1 0 0
vn -1 0 0
vn 0 1 0
vn 0 -1 0
vn 0 0 1
vn 0 0 -1
vn 1 0 0
vn -1 0 0
vn 0 1 0
vn 0 -1 0
vn 0 0 1
vn 0 0 -1
vn 1 0 0
vn -1 0 0
vn 0 1 0
vn 0 -1 0
vn 0 0 1
vn 0 0 -1
usemtl m_f012d24c-1ca2-de5e-0225-b7257b9c7c6d
f 4/1/1 2/2/1 1/3/1 3/4/1
f 7/5/2 5/6/2 6/7/2 8/8/2
f 1/9/3 2/10/3 6/11/3 5/12/3
f 4/13/4 3/14/4 7/15/4 8/16/4
f 3/17/5 1/18/5 5/19/5 7/20/5
f 8/21/6 6/22/6 2/23/6 4/24/6
f 12/25/7 10/26/7 9/27/7 11/28/7
f 15/29/8 13/30/8 14/31/8 16/32/8
f 9/33/9 10/34/9 14/35/9 13/36/9
f 12/37/10 11/38/10 15/39/10 16/40/10
f 11/41/11 9/42/11 13/43/11 15/44/11
f 16/45/12 14/46/12 10/47/12 12/48/12
f 20/49/13 18/50/13 17/51/13 19/52/13
f 23/53/14 21/54/14 22/55/14 24/56/14
f 17/57/15 18/58/15 22/59/15 21/60/15
f 20/61/16 19/62/16 23/63/16 24/64/16
f 19/65/17 17/66/17 21/67/17 23/68/17
f 24/69/18 22/70/18 18/71/18 20/72/18
f 28/73/19 26/74/19 25/75/19 27/76/19
f 31/77/20 29/78/20 30/79/20 32/80/20
f 25/81/21 26/82/21 30/83/21 29/84/21
f 28/85/22 27/86/22 31/87/22 32/88/22
f 27/89/23 25/90/23 29/91/23 31/92/23
f 32/93/24 30/94/24 26/95/24 28/96/24
usemtl m_16830594-a67c-fbd7-af60-7f51c1d503f8
f 37/97/25 35/98/25 33/99/25
f 35/100/26 37/101/26 38/102/26 36/103/26
f 36/104/27 38/105/27 34/106/27
f 39/107/28 37/108/28 33/109/28
f 37/110/29 39/111/29 40/112/29 38/113/29
f 38/114/30 40/115/30 34/116/30
f 41/117/31 39/118/31 33/119/31
f 39/120/32 41/121/32 42/122/32 40/123/32
f 40/124/33 42/125/33 34/126/33
f 43/127/34 41/128/34 33/129/34
f 41/130/35 43/131/35 44/132/35 42/133/35
f 42/134/36 44/135/36 34/136/36
f 45/137/37 43/138/37 33/139/37
f 43/140/38 45/141/38 46/142/38 44/143/38
f 44/144/39 46/145/39 34/146/39
f 47/147/40 45/148/40 33/149/40
f 45/150/41 47/151/41 48/152/41 46/153/41
f 46/154/42 48/155/42 34/156/42
f 49/157/43 47/158/43 33/159/43
f 47/160/44 49/161/44 50/162/44 48/163/44
f 48/164/45 50/165/45 34/166/45
f 35/167/46 49/168/46 33/169/46
f 49/170/47 35/171/47 36/172/47 50/173/47
f 50/174/48 36/175/48 34/176/48
f 55/177/49 53/178/49 51/179/49
f 53/180/50 55/181/50 56/182/50 54/183/50
f 54/184/51 56/185/51 52/186/51
f 57/187/52 55/188/52 51/189/52
f 55/190/53 57/191/53 58/192/53 56/193/53
f 56/194/54 58/195/54 52/196/54
f 59/197/55 57/198/55 51/199/55
f 57/200/56 59/201/56 60/202/56 58/203/56
f 58/204/57 60/205/57 52/206/57
f 61/207/58 59/208/58 51/209/58
f 59/210/59 61/211/59 62/212/59 60/213/59
f 60/214/60 62/215/60 52/216/60
f 63/217/61 61/218/61 51/219/61
f 61/220/62 63/221/62 64/222/62 62/223/62
f 62/224/63 64/225/63 52/226/63
f 65/227/64 63/228/64 51/229/64
f 63/230/65 65/231/65 66/232/65 64/233/65
f 64/234/66 66/235/66 52/236/66
f 67/237/67 65/238/67 51/239/67
f 65/240/68 67/241/68 68/242/68 66/243/68
f 66/244/69 68/245/69 52/246/69
f 53/247/70 67/248/70 51/249/70
f 67/250/71 53/251/71 54/252/71 68/253/71
f 68/254/72 54/255/72 52/256/72
usemtl m_f012d24c-1ca2-de5e-0225-b7257b9c7c6d
f 72/257/73 70/258/73 69/259/73 71/260/73
f 75/261/74 73/262/74 74/263/74 76/264/74
f 69/265/75 70/266/75 74/267/75 73/268/75
f 72/269/76 71/270/76 75/271/76 76/272/76
f 71/273/77 69/274/77 73/275/77 75/276/77
f 76/277/78 74/278/78 70/279/78 72/280/78
usemtl m_16830594-a67c-fbd7-af60-7f51c1d503f8
f 80/281/79 78/282/79 77/283/79 79/284/79
f 83/285/80 81/286/80 82/287/80 84/288/80
f 77/289/81 78/290/81 82/291/81 81/292/81
f 80/293/82 79/294/82 83/295/82 84/296/82
f 79/297/83 77/298/83 81/299/83 83/300/83
f 84/301/84 82/302/84 78/303/84 80/304/84
f 88/305/85 86/306/85 85/307/85 87/308/85
f 91/309/86 89/310/86 90/311/86 92/312/86
f 85/313/87 86/314/87 90/315/87 89/316/87
f 88/317/88 87/318/88 91/319/88 92/320/88
f 87/321/89 85/322/89 89/323/89 91/324/89
f 92/325/90 90/326/90 86/327/90 88/328/90