# Blender 5.2.0 LTS
# www.blender.org
mtllib ne_2_east_reduced_brake_distance.mtl
o cylinder
v 0.000000 0.000000 0.000000
v 0.000000 1.000000 -0.000000
v 0.025888 0.000000 0.062500
v 0.025888 1.000000 0.062500
v 0.062500 0.000000 0.025888
v 0.062500 1.000000 0.025888
v 0.062500 -0.000000 -0.025888
v 0.062500 1.000000 -0.025888
v 0.025888 -0.000000 -0.062500
v 0.025888 1.000000 -0.062500
v -0.025888 -0.000000 -0.062500
v -0.025888 1.000000 -0.062500
v -0.062500 -0.000000 -0.025888
v -0.062500 1.000000 -0.025888
v -0.062500 0.000000 0.025888
v -0.062500 1.000000 0.025888
v -0.025888 0.000000 0.062500
v -0.025888 1.000000 0.062500
v 0.000000 2.000000 -0.000000
v 0.025888 2.000000 0.062500
v 0.062500 2.000000 0.025888
v 0.062500 2.000000 -0.025888
v 0.025888 2.000000 -0.062500
v -0.025888 2.000000 -0.062500
v -0.062500 2.000000 -0.025888
v -0.062500 2.000000 0.025888
v -0.025888 2.000000 0.062500
v 0.000000 2.500000 -0.000000
v 0.025888 2.500000 0.062500
v 0.062500 2.500000 0.025888
v 0.062500 2.500000 -0.025888
v 0.025888 2.500000 -0.062500
v -0.025888 2.500000 -0.062500
v -0.062500 2.500000 -0.025888
v -0.062500 2.500000 0.025888
v -0.025888 2.500000 0.062500
v 0.234375 2.615625 -0.112500
v 0.234375 2.615625 -0.131250
v -0.000000 2.265625 -0.112500
v -0.000000 2.265625 -0.131250
v 0.156250 2.615625 -0.112500
v 0.156250 2.615625 -0.131250
v 0.000000 2.375000 -0.112500
v 0.000000 2.375000 -0.131250
v -0.156250 2.625000 -0.112500
v -0.156250 2.625000 -0.131250
v -0.234375 2.625000 -0.112500
v -0.234375 2.625000 -0.131250
v -0.234375 1.915625 -0.112500
v -0.234375 1.915625 -0.131250
v -0.156250 1.915625 -0.112500
v -0.156250 1.915625 -0.131250
v 0.000000 2.156250 -0.112500
v 0.000000 2.156250 -0.131250
v 0.156250 1.906250 -0.112500
v 0.156250 1.906250 -0.131250
v 0.234375 1.906250 -0.112500
v 0.234375 1.906250 -0.131250
v 0.000000 3.015625 -0.056250
v -0.000000 3.015625 -0.118750
v 0.281250 2.671875 -0.056250
v 0.281250 2.671875 -0.118750
v 0.000000 2.671875 -0.056250
v -0.000000 2.671875 -0.118750
v -0.281250 2.671875 -0.118750
v -0.281250 2.671875 -0.056250
v 0.032361 2.703125 -0.131250
v 0.032361 2.703125 -0.118750
v -0.016750 2.821688 -0.131250
v -0.016750 2.821688 -0.118750
v 0.078125 2.748889 -0.131250
v 0.078125 2.748889 -0.118750
v -0.040438 2.798000 -0.131250
v -0.040438 2.798000 -0.118750
v 0.078125 2.813611 -0.131250
v 0.078125 2.813611 -0.118750
v -0.040438 2.764500 -0.131250
v -0.040438 2.764500 -0.118750
v 0.032361 2.859375 -0.131250
v 0.032361 2.859375 -0.118750
v -0.016750 2.740812 -0.131250
v -0.016750 2.740812 -0.118750
v -0.032361 2.859375 -0.131250
v -0.032361 2.859375 -0.118750
v 0.016750 2.740812 -0.131250
v 0.016750 2.740812 -0.118750
v -0.078125 2.813611 -0.131250
v -0.078125 2.813611 -0.118750
v 0.040438 2.764500 -0.131250
v 0.040438 2.764500 -0.118750
v -0.078125 2.748889 -0.131250
v -0.078125 2.748889 -0.118750
v 0.040438 2.798000 -0.131250
v 0.040438 2.798000 -0.118750
v -0.032361 2.703125 -0.131250
v -0.032361 2.703125 -0.118750
v 0.016750 2.821688 -0.131250
v 0.016750 2.821688 -0.118750
v 0.281250 1.859375 -0.056250
v 0.281250 1.859375 -0.118750
v -0.281250 1.859375 -0.056250
v -0.281250 1.859375 -0.118750
v 0.187500 2.187500 -0.000000
v 0.187500 2.187500 -0.062500
v 0.187500 2.125000 -0.000000
v 0.187500 2.125000 -0.062500
v -0.187500 2.187500 -0.000000
v -0.187500 2.187500 -0.062500
v -0.187500 2.125000 -0.000000
v -0.187500 2.125000 -0.062500
v 0.187500 2.493750 -0.000000
v 0.187500 2.493750 -0.062500
v 0.187500 2.431250 -0.000000
v 0.187500 2.431250 -0.062500
v -0.187500 2.493750 -0.000000
v -0.187500 2.493750 -0.062500
v -0.187500 2.431250 -0.000000
v -0.187500 2.431250 -0.062500
vn -0.0000 -1.0000 -0.0000
vn 0.7071 -0.0000 0.7071
vn -0.0000 1.0000 -0.0000
vn 1.0000 -0.0000 -0.0000
vn 0.7071 -0.0000 -0.7071
vn -0.0000 -0.0000 -1.0000
vn -0.7071 -0.0000 -0.7071
vn -1.0000 -0.0000 -0.0000
vn -0.7071 -0.0000 0.7071
vn -0.0000 -0.0000 1.0000
vn 0.8309 -0.5564 -0.0000
vn -0.8387 0.5446 -0.0000
vn 0.8480 0.5300 -0.0000
vn -0.8376 -0.5463 -0.0000
vn -0.8309 0.5564 -0.0000
vn 0.8387 -0.5446 -0.0000
vn -0.8480 -0.5300 -0.0000
vn 0.8376 0.5463 -0.0000
vn 0.7740 0.6332 -0.0000
vn 0.0891 0.8954 -0.4362
vn 0.0891 0.8954 0.4362
vn -0.5774 -0.5773 0.5774
vn -0.2820 0.7899 0.5445
vn -0.2820 0.7898 -0.5446
vn -0.5774 -0.5774 -0.5773
vn -0.3149 -0.8953 0.3150
vn -0.3149 -0.8953 -0.3150
vn -0.0950 0.7658 0.6360
vn -0.3150 -0.3149 0.8953
vn -0.0950 0.7658 -0.6360
vn -0.3150 -0.3149 -0.8953
vn -0.7740 0.6332 -0.0000
vn -0.0891 0.8954 0.4362
vn -0.0891 0.8954 -0.4362
vn 0.3149 -0.8953 -0.3150
vn 0.3149 -0.8953 0.3150
vn 0.0950 0.7658 -0.6360
vn 0.3150 -0.3149 -0.8953
vn 0.0950 0.7658 0.6360
vn 0.3150 -0.3149 0.8953
vn 0.7071 -0.7071 -0.0000
vn -0.7071 0.7071 -0.0000
vn 0.7071 0.7071 -0.0000
vn -0.7071 -0.7071 -0.0000
vt 0.317649 0.952164
vt 0.297834 1.000000
vt 0.250000 0.952164
vt 0.250000 0.000000
vt 0.301775 0.000000
vt 0.301775 1.000000
vt 0.250000 1.000000
vt 0.250000 0.932351
vt 0.297836 0.952166
vt 0.312500 0.948225
vt 0.312500 1.000000
vt 0.250000 0.974113
vt 0.250000 0.937500
vt 0.301775 0.937500
vt 0.275887 1.000000
vt 0.275887 0.937500
vt 0.269815 0.952164
vt 0.317649 1.000000
vt 0.297836 1.000000
vt 0.250000 0.980185
vt 0.297836 0.932351
vt 0.250000 0.948225
vt 0.312500 0.974113
vt 0.562500 0.500000
vt 0.614275 0.500000
vt 0.614275 1.000000
vt 0.562500 1.000000
vt 0.562500 0.966176
vt 0.610336 0.976083
vt 0.625000 0.974113
vt 0.625000 1.000000
vt 0.562500 0.987056
vt 0.630149 0.976082
vt 0.610334 1.000000
vt 0.562500 0.976082
vt 0.588387 0.968750
vt 0.610336 1.000000
vt 0.562500 0.990093
vt 0.610336 0.966176
vt 0.562500 0.974113
vt 0.625000 0.987056
vt 0.582315 0.976082
vt 0.630149 1.000000
vt 0.562500 0.968750
vt 0.614275 0.968750
vt 0.588387 1.000000
vt 0.673437 0.882812
vt 0.673437 0.968750
vt 0.671875 0.968750
vt 0.671875 0.882812
vt 0.670313 0.968750
vt 0.670313 0.882812
vt 0.687500 0.953125
vt 0.687500 0.954687
vt 0.671875 0.954687
vt 0.671875 0.953125
vt 0.687500 0.951563
vt 0.671875 0.951563
vt 0.687500 0.882812
vt 0.687500 0.968750
vt 0.656250 0.968750
vt 0.656250 0.882812
vt 0.657031 0.800781
vt 0.657031 0.859375
vt 0.656250 0.859375
vt 0.656250 0.800781
vt 0.671875 0.800781
vt 0.671875 0.859375
vt 0.671094 0.859375
vt 0.671094 0.800781
vt 0.687500 0.838995
vt 0.687500 0.840014
vt 0.658203 0.840014
vt 0.658203 0.838995
vt 0.687500 0.800781
vt 0.687500 0.859375
vt 0.658203 0.859375
vt 0.658203 0.800781
vt 0.685547 0.800781
vt 0.685547 0.859375
vt 0.328125 0.601562
vt 0.328125 0.671875
vt 0.312500 0.671875
vt 0.312500 0.601562
vt 0.015625 0.054688
vt 0.015625 0.125000
vt 0.000000 0.125000
vt 0.000000 0.054688
vt 0.421875 0.640625
vt 0.421875 0.656250
vt 0.351562 0.656250
vt 0.351562 0.640625
vt 0.351562 0.625000
vt 0.351562 0.554688
vt 0.421875 0.554688
vt 0.531250 0.882812
vt 0.531250 0.812500
vt 0.601562 0.812500
vt 0.671875 0.914062
vt 0.601562 0.984375
vt 0.671875 0.984375
vt 0.343750 0.601562
vt 0.343750 0.531250
vt 0.414062 0.531250
vt 0.328681 0.671875
vt 0.328681 0.687500
vt 0.312500 0.687500
vt 0.320875 0.687500
vt 0.320875 0.671875
vt 0.328680 0.657859
vt 0.312500 0.657859
vt 0.316402 0.687500
vt 0.324777 0.687500
vt 0.342141 0.687500
vt 0.342141 0.671319
vt 0.312500 0.675222
vt 0.312500 0.683597
vt 0.342141 0.687500
vt 0.342141 0.671320
vt 0.312500 0.675223
vt 0.312500 0.683598
vt 0.324778 0.657859
vt 0.316403 0.657859
vt 0.328680 0.687500
vt 0.324777 0.657859
vt 0.316402 0.657859
vt 0.312500 0.671319
vt 0.342141 0.683597
vt 0.342141 0.675222
vt 0.312500 0.671320
vt 0.342141 0.683598
vt 0.342141 0.675223
vt 0.328681 0.657859
vt 0.312500 0.657859
vt 0.316403 0.687500
vt 0.324778 0.687500
vt 0.546875 0.796875
vt 0.546875 1.000000
vt 0.531250 1.000000
vt 0.531250 0.796875
vt 0.671875 1.000000
vt 0.531250 0.984375
vt 0.453125 0.500000
vt 0.453125 0.703125
vt 0.312500 0.703125
vt 0.312500 0.500000
vt 0.671875 0.796875
vt 0.500000 0.750000
vt 0.500000 0.812500
vt 0.437500 0.812500
vt 0.437500 0.750000
vt 0.375000 0.812500
vt 0.375000 0.750000
vt 0.750000 0.750000
vt 0.750000 0.812500
vt 0.750000 0.687500
vt 0.375000 0.687500
s 0
usemtl m_16830594-a67c-fbd7-af60-7f51c1d503f8.007
f 5/1/1 3/2/1 1/3/1
f 3/4/2 5/5/2 6/6/2 4/7/2
f 4/8/3 6/9/3 2/7/3
f 7/10/1 5/11/1 1/12/1
f 5/4/4 7/5/4 8/6/4 6/7/4
f 6/10/3 8/11/3 2/12/3
f 9/8/1 7/9/1 1/7/1
f 7/4/5 9/5/5 10/6/5 8/7/5
f 8/1/3 10/2/3 2/3/3
f 11/13/1 9/14/1 1/15/1
f 9/4/6 11/5/6 12/6/6 10/7/6
f 10/6/3 12/7/3 2/16/3
f 13/7/1 11/17/1 1/18/1
f 11/4/7 13/5/7 14/6/7 12/7/7
f 12/19/3 14/20/3 2/21/3
f 15/7/1 13/22/1 1/23/1
f 13/4/8 15/5/8 16/6/8 14/7/8
f 14/7/3 16/22/3 2/23/3
f 17/19/1 15/20/1 1/21/1
f 15/4/9 17/5/9 18/6/9 16/7/9
f 16/7/3 18/17/3 2/18/3
f 3/6/1 17/7/1 1/16/1
f 17/4/10 3/5/10 4/6/10 18/7/10
f 18/13/3 4/14/3 2/15/3
f 4/4/2 6/5/2 21/6/2 20/7/2
f 20/8/3 21/9/3 19/7/3
f 6/4/4 8/5/4 22/6/4 21/7/4
f 21/10/3 22/11/3 19/12/3
f 8/4/5 10/5/5 23/6/5 22/7/5
f 22/1/3 23/2/3 19/3/3
f 10/4/6 12/5/6 24/6/6 23/7/6
f 23/6/3 24/7/3 19/16/3
f 12/4/7 14/5/7 25/6/7 24/7/7
f 24/19/3 25/20/3 19/21/3
f 14/4/8 16/5/8 26/6/8 25/7/8
f 25/7/3 26/22/3 19/23/3
f 16/4/9 18/5/9 27/6/9 26/7/9
f 26/7/3 27/17/3 19/18/3
f 18/4/10 4/5/10 20/6/10 27/7/10
f 27/13/3 20/14/3 19/15/3
f 20/24/2 21/25/2 30/26/2 29/27/2
f 29/28/3 30/29/3 28/27/3
f 21/24/4 22/25/4 31/26/4 30/27/4
f 30/30/3 31/31/3 28/32/3
f 22/24/5 23/25/5 32/26/5 31/27/5
f 31/33/3 32/34/3 28/35/3
f 23/24/6 24/25/6 33/26/6 32/27/6
f 32/26/3 33/27/3 28/36/3
f 24/24/7 25/25/7 34/26/7 33/27/7
f 33/37/3 34/38/3 28/39/3
f 25/24/8 26/25/8 35/26/8 34/27/8
f 34/27/3 35/40/3 28/41/3
f 26/24/9 27/25/9 36/26/9 35/27/9
f 35/27/3 36/42/3 28/43/3
f 27/24/10 20/25/10 29/26/10 36/27/10
f 36/44/3 29/45/3 28/46/3
f 106/148/4 104/149/4 103/150/4 105/151/4
f 109/151/8 107/150/8 108/152/8 110/153/8
f 103/154/3 104/155/3 108/152/3 107/153/3
f 106/156/1 105/154/1 109/153/1 110/157/1
f 105/154/10 103/155/10 107/152/10 109/153/10
f 110/154/6 108/155/6 104/152/6 106/153/6
f 114/148/4 112/149/4 111/150/4 113/151/4
f 117/151/8 115/150/8 116/152/8 118/153/8
f 111/154/3 112/155/3 116/152/3 115/153/3
f 114/156/1 113/154/1 117/153/1 118/157/1
f 113/154/10 111/155/10 115/152/10 117/153/10
f 118/154/6 116/155/6 112/152/6 114/153/6
usemtl m_f012d24c-1ca2-de5e-0225-b7257b9c7c6d.004
f 40/47/11 38/48/11 37/49/11 39/50/11
f 43/50/12 41/49/12 42/51/12 44/52/12
f 37/53/3 38/54/3 42/55/3 41/56/3
f 40/57/4 44/58/4 43/56/4 39/53/4
f 39/59/10 37/60/10 41/49/10 43/50/10
f 44/50/6 42/49/6 38/61/6 40/62/6
f 44/63/13 46/64/13 45/65/13 43/66/13
f 39/67/14 47/68/14 48/69/14 40/70/14
f 45/71/3 46/72/3 48/73/3 47/74/3
f 43/75/10 45/76/10 47/77/10 39/78/10
f 40/79/6 48/80/6 46/65/6 44/66/6
f 40/47/15 50/48/15 49/49/15 39/50/15
f 53/50/16 51/49/16 52/51/16 54/52/16
f 49/53/1 50/54/1 52/55/1 51/56/1
f 40/57/8 54/58/8 53/56/8 39/53/8
f 39/59/10 49/60/10 51/49/10 53/50/10
f 54/50/6 52/49/6 50/61/6 40/62/6
f 54/63/17 56/64/17 55/65/17 53/66/17
f 39/67/18 57/68/18 58/69/18 40/70/18
f 55/71/1 56/72/1 58/73/1 57/74/1
f 53/75/10 55/76/10 57/77/10 39/78/10
f 40/79/6 58/80/6 56/65/6 54/66/6
f 62/81/19 60/82/20 59/83/21 61/84/19
f 63/85/22 59/86/23 60/87/24 64/88/25
f 62/89/1 61/90/1 63/91/26 64/92/27
f 59/93/28 63/94/29 61/95/10
f 60/96/30 62/97/6 64/98/31
f 66/81/32 59/82/33 60/83/34 65/84/32
f 66/89/1 65/90/1 64/91/35 63/92/36
f 60/99/37 64/100/38 65/101/6
f 59/102/39 66/103/10 63/104/40
f 67/83/41 71/105/41 72/106/41 68/107/41
f 70/108/42 69/109/42 73/83/42 74/107/42
f 71/110/6 67/111/6 73/112/6 69/113/6
f 74/112/10 68/111/10 72/110/10 70/113/10
f 71/83/4 75/105/4 76/106/4 72/107/4
f 74/108/8 73/109/8 77/83/8 78/107/8
f 75/114/6 71/115/6 77/116/6 73/117/6
f 78/116/10 72/115/10 76/114/10 74/117/10
f 75/83/43 79/105/43 80/106/43 76/107/43
f 78/108/44 77/109/44 81/83/44 82/107/44
f 79/118/6 75/119/6 81/120/6 77/121/6
f 82/120/10 76/119/10 80/118/10 78/121/10
f 79/83/3 83/105/3 84/106/3 80/107/3
f 82/108/1 81/109/1 85/83/1 86/107/1
f 83/107/6 79/106/6 85/122/6 81/123/6
f 86/122/10 80/106/10 84/107/10 82/123/10
f 83/83/42 87/105/42 88/106/42 84/107/42
f 86/108/41 85/109/41 89/83/41 90/107/41
f 87/107/6 83/124/6 89/125/6 85/126/6
f 90/125/10 84/124/10 88/107/10 86/126/10
f 87/83/8 91/105/8 92/106/8 88/107/8
f 90/108/4 89/109/4 93/83/4 94/107/4
f 91/127/6 87/107/6 93/128/6 89/129/6
f 94/128/10 88/107/10 92/127/10 90/129/10
f 91/83/44 95/105/44 96/106/44 92/107/44
f 94/108/43 93/109/43 97/83/43 98/107/43
f 95/130/6 91/107/6 97/131/6 93/132/6
f 98/131/10 92/107/10 96/130/10 94/132/10
f 95/83/1 67/105/1 68/106/1 96/107/1
f 98/108/3 97/109/3 69/83/3 70/107/3
f 67/133/6 95/134/6 69/135/6 97/136/6
f 70/135/10 96/134/10 68/133/10 98/136/10
f 100/137/4 62/138/4 61/139/4 99/140/4
f 101/137/8 66/138/8 65/139/8 102/140/8
f 61/101/3 62/141/3 65/139/3 66/142/3
f 100/101/1 99/141/1 101/139/1 102/142/1
f 99/143/10 61/144/10 66/145/10 101/146/10
f 102/147/6 65/141/6 62/139/6 100/140/6
