# Made in Blockbench 5.1.6
mtllib ne_3_2.mtl

o cube
v 0.203125 1.40625 -0.125
v 0.203125 1.40625 -0.1375
v 0.203125 1.28125 -0.125
v 0.203125 1.28125 -0.1375
v -0.203125 1.59375 -0.125
v -0.203125 1.59375 -0.1375
v -0.203125 1.46875 -0.125
v -0.203125 1.46875 -0.1375
v 0 0 0
v 0 1 0
v 0.025888125 0 0.0625
v 0.025888125 1 0.0625
v 0.0625 0 0.025888125000000012
v 0.0625 1 0.025888125000000012
v 0.0625 0 -0.025888125000000012
v 0.0625 1 -0.025888125000000012
v 0.025888125 0 -0.0625
v 0.025888125 1 -0.0625
v -0.025888125 0 -0.0625
v -0.025888125 1 -0.0625
v -0.0625 0 -0.025888125000000012
v -0.0625 1 -0.025888125000000012
v -0.0625 0 0.025888125000000012
v -0.0625 1 0.025888125000000012
v -0.025888125 0 0.0625
v -0.025888125 1 0.0625
v 0 1 0
v 0 2 0
v 0.025888125 1 0.0625
v 0.025888125 2 0.0625
v 0.0625 1 0.025888125000000012
v 0.0625 2 0.025888125000000012
v 0.0625 1 -0.025888125000000012
v 0.0625 2 -0.025888125000000012
v 0.025888125 1 -0.0625
v 0.025888125 2 -0.0625
v -0.025888125 1 -0.0625
v -0.025888125 2 -0.0625
v -0.0625 1 -0.025888125000000012
v -0.0625 2 -0.025888125000000012
v -0.0625 1 0.025888125000000012
v -0.0625 2 0.025888125000000012
v -0.025888125 1 0.0625
v -0.025888125 2 0.0625
v 0.203125 1.65625 -0.125
v 0.203125 1.65625 -0.1375
v 0.203125 1.53125 -0.125
v 0.203125 1.53125 -0.1375
v -0.203125 1.84375 -0.125
v -0.203125 1.84375 -0.1375
v -0.203125 1.71875 -0.125
v -0.203125 1.71875 -0.1375
v 0.1875 1.99375 0
v 0.1875 1.99375 -0.0625
v 0.1875 1.93125 0
v 0.1875 1.93125 -0.0625
v -0.1875 1.99375 0
v -0.1875 1.99375 -0.0625
v -0.1875 1.93125 0
v -0.1875 1.93125 -0.0625
v 0.1875 1.1875 0
v 0.1875 1.1875 -0.0625
v 0.1875 1.125 0
v 0.1875 1.125 -0.0625
v -0.1875 1.1875 0
v -0.1875 1.1875 -0.0625
v -0.1875 1.125 0
v -0.1875 1.125 -0.0625
v 0.203125 2.1875 -0.0625
v 0.203125 2.1875 -0.125
v 0.203125 0.9375 -0.0625
v 0.203125 0.9375 -0.125
v -0.203125 2.1875 -0.0625
v -0.203125 2.1875 -0.125
v -0.203125 0.9375 -0.0625
v -0.203125 0.9375 -0.125
vt 0.0015625 0.984375
vt 0.0015625 1
vt 0 1
vt 0 0.984375
vt 0.015625 0.984375
vt 0.015625 1
vt 0.0140625 1
vt 0.0140625 0.984375
vt 0.056640625 0.984375
vt 0.056640625 0.9859375
vt 0.005859375 0.9859375
vt 0.005859375 0.984375
vt 0.056640625 0.9984375
vt 0.056640625 1
vt 0.005859375 1
vt 0.005859375 0.9984375
vt 0.056640625 0.984375
vt 0.056640625 1
vt 0.005859375 1
vt 0.005859375 0.984375
vt 0.05078125 0.984375
vt 0.05078125 1
vt 0 1
vt 0 0.984375
vt 0.317649375 0.95216375
vt 0.297834375 1
vt 0.25 0.95216375
vt 0.25 0
vt 0.301775 0
vt 0.301775 1
vt 0.25 1
vt 0.25 0.932350625
vt 0.29783625 0.952165625
vt 0.25 1
vt 0.3125 0.948225
vt 0.3125 1
vt 0.25 0.9741125
vt 0.25 0
vt 0.301775 0
vt 0.301775 1
vt 0.25 1
vt 0.3125 0.948225
vt 0.3125 1
vt 0.25 0.9741125
vt 0.25 0.932350625
vt 0.29783625 0.952165625
vt 0.25 1
vt 0.25 0
vt 0.301775 0
vt 0.301775 1
vt 0.25 1
vt 0.317649375 0.95216375
vt 0.297834375 1
vt 0.25 0.95216375
vt 0.25 0.9375
vt 0.301775 0.9375
vt 0.2758875 1
vt 0.25 0
vt 0.301775 0
vt 0.301775 1
vt 0.25 1
vt 0.301775 1
vt 0.25 1
vt 0.2758875 0.9375
vt 0.25 1
vt 0.269815 0.95216375
vt 0.317649375 1
vt 0.25 0
vt 0.301775 0
vt 0.301775 1
vt 0.25 1
vt 0.29783625 1
vt 0.25 0.980185
vt 0.29783625 0.932350625
vt 0.25 1
vt 0.25 0.948225
vt 0.3125 0.9741125
vt 0.25 0
vt 0.301775 0
vt 0.301775 1
vt 0.25 1
vt 0.25 1
vt 0.25 0.948225
vt 0.3125 0.9741125
vt 0.29783625 1
vt 0.25 0.980185
vt 0.29783625 0.932350625
vt 0.25 0
vt 0.301775 0
vt 0.301775 1
vt 0.25 1
vt 0.25 1
vt 0.269815 0.95216375
vt 0.317649375 1
vt 0.301775 1
vt 0.25 1
vt 0.2758875 0.9375
vt 0.25 0
vt 0.301775 0
vt 0.301775 1
vt 0.25 1
vt 0.25 0.9375
vt 0.301775 0.9375
vt 0.2758875 1
vt 0.317649375 0.95216375
vt 0.297834375 1
vt 0.25 0.95216375
vt 0.25 0
vt 0.301775 0
vt 0.301775 1
vt 0.25 1
vt 0.25 0.932350625
vt 0.29783625 0.952165625
vt 0.25 1
vt 0.3125 0.948225
vt 0.3125 1
vt 0.25 0.9741125
vt 0.25 0
vt 0.301775 0
vt 0.301775 1
vt 0.25 1
vt 0.3125 0.948225
vt 0.3125 1
vt 0.25 0.9741125
vt 0.25 0.932350625
vt 0.29783625 0.952165625
vt 0.25 1
vt 0.25 0
vt 0.301775 0
vt 0.301775 1
vt 0.25 1
vt 0.317649375 0.95216375
vt 0.297834375 1
vt 0.25 0.95216375
vt 0.25 0.9375
vt 0.301775 0.9375
vt 0.2758875 1
vt 0.25 0
vt 0.301775 0
vt 0.301775 1
vt 0.25 1
vt 0.301775 1
vt 0.25 1
vt 0.2758875 0.9375
vt 0.25 1
vt 0.269815 0.95216375
vt 0.317649375 1
vt 0.25 0
vt 0.301775 0
vt 0.301775 1
vt 0.25 1
vt 0.29783625 1
vt 0.25 0.980185
vt 0.29783625 0.932350625
vt 0.25 1
vt 0.25 0.948225
vt 0.3125 0.9741125
vt 0.25 0
vt 0.301775 0
vt 0.301775 1
vt 0.25 1
vt 0.25 1
vt 0.25 0.948225
vt 0.3125 0.9741125
vt 0.29783625 1
vt 0.25 0.980185
vt 0.29783625 0.932350625
vt 0.25 0
vt 0.301775 0
vt 0.301775 1
vt 0.25 1
vt 0.25 1
vt 0.269815 0.95216375
vt 0.317649375 1
vt 0.301775 1
vt 0.25 1
vt 0.2758875 0.9375
vt 0.25 0
vt 0.301775 0
vt 0.301775 1
vt 0.25 1
vt 0.25 0.9375
vt 0.301775 0.9375
vt 0.2758875 1
vt 0.0015625 0.984375
vt 0.0015625 1
vt 0 1
vt 0 0.984375
vt 0.015625 0.984375
vt 0.015625 1
vt 0.0140625 1
vt 0.0140625 0.984375
vt 0.056640625 0.984375
vt 0.056640625 0.9859375
vt 0.005859375 0.9859375
vt 0.005859375 0.984375
vt 0.056640625 0.9984375
vt 0.056640625 1
vt 0.005859375 1
vt 0.005859375 0.9984375
vt 0.056640625 0.984375
vt 0.056640625 1
vt 0.005859375 1
vt 0.005859375 0.984375
vt 0.05078125 0.984375
vt 0.05078125 1
vt 0 1
vt 0 0.984375
vt 0.5 0.75
vt 0.5 0.8125
vt 0.4375 0.8125
vt 0.4375 0.75
vt 0.4375 0.75
vt 0.4375 0.8125
vt 0.375 0.8125
vt 0.375 0.75
vt 0.75 0.75
vt 0.75 0.8125
vt 0.375 0.8125
vt 0.375 0.75
vt 0.75 0.6875
vt 0.75 0.75
vt 0.375 0.75
vt 0.375 0.6875
vt 0.75 0.75
vt 0.75 0.8125
vt 0.375 0.8125
vt 0.375 0.75
vt 0.75 0.75
vt 0.75 0.8125
vt 0.375 0.8125
vt 0.375 0.75
vt 0.5 0.75
vt 0.5 0.8125
vt 0.4375 0.8125
vt 0.4375 0.75
vt 0.4375 0.75
vt 0.4375 0.8125
vt 0.375 0.8125
vt 0.375 0.75
vt 0.75 0.75
vt 0.75 0.8125
vt 0.375 0.8125
vt 0.375 0.75
vt 0.75 0.6875
vt 0.75 0.75
vt 0.375 0.75
vt 0.375 0.6875
vt 0.75 0.75
vt 0.75 0.8125
vt 0.375 0.8125
vt 0.375 0.75
vt 0.75 0.75
vt 0.75 0.8125
vt 0.375 0.8125
vt 0.375 0.75
vt 0.0078125 0.875
vt 0.0078125 1
vt 0 1
vt 0 0.875
vt 0.015625 0.875
vt 0.015625 1
vt 0.0078125 1
vt 0.0078125 0.875
vt 0.05078125 0.984375
vt 0.05078125 0.9921875
vt 0 0.9921875
vt 0 0.984375
vt 0.05078125 0.9921875
vt 0.05078125 1
vt 0 1
vt 0 0.9921875
vt 0.98046875 0.84375
vt 0.98046875 1
vt 0.9296875 1
vt 0.9296875 0.84375
vt 0.206640625 0.6875
vt 0.206640625 1
vt 0.105078125 1
vt 0.105078125 0.6875
vn 1 0 0
vn -1 0 0
vn 0.4190581774617469 0.9079593845004518 0
vn -0.4190581774617469 -0.9079593845004518 0
vn 0 0 1
vn 0 0 -1
vn 0 -1 0
vn 0.7071067811865475 0 0.7071067811865477
vn 0 1 0
vn 0 -1 0
vn 1 0 0
vn 0 1 0
vn 0 -1 0
vn 0.7071067811865475 0 -0.7071067811865477
vn 0 1 0
vn 0 -1 0
vn 0 0 -1
vn 0 1 0
vn 0 -1 0
vn -0.7071067811865475 0 -0.7071067811865477
vn 0 1 0
vn 0 -1 0
vn -1 0 0
vn 0 1 0
vn 0 -1 0
vn -0.7071067811865475 0 0.7071067811865477
vn 0 1 0
vn 0 -1 0
vn 0 0 1
vn 0 1 0
vn 0 -1 0
vn 0.7071067811865475 0 0.7071067811865477
vn 0 1 0
vn 0 -1 0
vn 1 0 0
vn 0 1 0
vn 0 -1 0
vn 0.7071067811865475 0 -0.7071067811865477
vn 0 1 0
vn 0 -1 0
vn 0 0 -1
vn 0 1 0
vn 0 -1 0
vn -0.7071067811865475 0 -0.7071067811865477
vn 0 1 0
vn 0 -1 0
vn -1 0 0
vn 0 1 0
vn 0 -1 0
vn -0.7071067811865475 0 0.7071067811865477
vn 0 1 0
vn 0 -1 0
vn 0 0 1
vn 0 1 0
vn 1 0 0
vn -1 0 0
vn 0.41905817746174695 0.9079593845004517 0
vn -0.41905817746174695 -0.9079593845004517 0
vn 0 0 1
vn 0 0 -1
vn 1 0 0
vn -1 0 0
vn 0 1 0
vn 0 -1 0
vn 0 0 1
vn 0 0 -1
vn 1 0 0
vn -1 0 0
vn 0 1 0
vn 0 -1 0
vn 0 0 1
vn 0 0 -1
vn 1 0 0
vn -1 0 0
vn 0 1 0
vn 0 -1 0
vn 0 0 1
vn 0 0 -1
usemtl m_057dd141-44a2-0c03-6f69-6165d6f9e1a2
f 4/1/1 2/2/1 1/3/1 3/4/1
f 7/5/2 5/6/2 6/7/2 8/8/2
f 1/9/3 2/10/3 6/11/3 5/12/3
f 4/13/4 3/14/4 7/15/4 8/16/4
f 3/17/5 1/18/5 5/19/5 7/20/5
f 8/21/6 6/22/6 2/23/6 4/24/6
usemtl m_16830594-a67c-fbd7-af60-7f51c1d503f8
f 13/25/7 11/26/7 9/27/7
f 11/28/8 13/29/8 14/30/8 12/31/8
f 12/32/9 14/33/9 10/34/9
f 15/35/10 13/36/10 9/37/10
f 13/38/11 15/39/11 16/40/11 14/41/11
f 14/42/12 16/43/12 10/44/12
f 17/45/13 15/46/13 9/47/13
f 15/48/14 17/49/14 18/50/14 16/51/14
f 16/52/15 18/53/15 10/54/15
f 19/55/16 17/56/16 9/57/16
f 17/58/17 19/59/17 20/60/17 18/61/17
f 18/62/18 20/63/18 10/64/18
f 21/65/19 19/66/19 9/67/19
f 19/68/20 21/69/20 22/70/20 20/71/20
f 20/72/21 22/73/21 10/74/21
f 23/75/22 21/76/22 9/77/22
f 21/78/23 23/79/23 24/80/23 22/81/23
f 22/82/24 24/83/24 10/84/24
f 25/85/25 23/86/25 9/87/25
f 23/88/26 25/89/26 26/90/26 24/91/26
f 24/92/27 26/93/27 10/94/27
f 11/95/28 25/96/28 9/97/28
f 25/98/29 11/99/29 12/100/29 26/101/29
f 26/102/30 12/103/30 10/104/30
f 31/105/31 29/106/31 27/107/31
f 29/108/32 31/109/32 32/110/32 30/111/32
f 30/112/33 32/113/33 28/114/33
f 33/115/34 31/116/34 27/117/34
f 31/118/35 33/119/35 34/120/35 32/121/35
f 32/122/36 34/123/36 28/124/36
f 35/125/37 33/126/37 27/127/37
f 33/128/38 35/129/38 36/130/38 34/131/38
f 34/132/39 36/133/39 28/134/39
f 37/135/40 35/136/40 27/137/40
f 35/138/41 37/139/41 38/140/41 36/141/41
f 36/142/42 38/143/42 28/144/42
f 39/145/43 37/146/43 27/147/43
f 37/148/44 39/149/44 40/150/44 38/151/44
f 38/152/45 40/153/45 28/154/45
f 41/155/46 39/156/46 27/157/46
f 39/158/47 41/159/47 42/160/47 40/161/47
f 40/162/48 42/163/48 28/164/48
f 43/165/49 41/166/49 27/167/49
f 41/168/50 43/169/50 44/170/50 42/171/50
f 42/172/51 44/173/51 28/174/51
f 29/175/52 43/176/52 27/177/52
f 43/178/53 29/179/53 30/180/53 44/181/53
f 44/182/54 30/183/54 28/184/54
usemtl m_057dd141-44a2-0c03-6f69-6165d6f9e1a2
f 48/185/55 46/186/55 45/187/55 47/188/55
f 51/189/56 49/190/56 50/191/56 52/192/56
f 45/193/57 46/194/57 50/195/57 49/196/57
f 48/197/58 47/198/58 51/199/58 52/200/58
f 47/201/59 45/202/59 49/203/59 51/204/59
f 52/205/60 50/206/60 46/207/60 48/208/60
usemtl m_16830594-a67c-fbd7-af60-7f51c1d503f8
f 56/209/61 54/210/61 53/211/61 55/212/61
f 59/213/62 57/214/62 58/215/62 60/216/62
f 53/217/63 54/218/63 58/219/63 57/220/63
f 56/221/64 55/222/64 59/223/64 60/224/64
f 55/225/65 53/226/65 57/227/65 59/228/65
f 60/229/66 58/230/66 54/231/66 56/232/66
f 64/233/67 62/234/67 61/235/67 63/236/67
f 67/237/68 65/238/68 66/239/68 68/240/68
f 61/241/69 62/242/69 66/243/69 65/244/69
f 64/245/70 63/246/70 67/247/70 68/248/70
f 63/249/71 61/250/71 65/251/71 67/252/71
f 68/253/72 66/254/72 62/255/72 64/256/72
usemtl m_057dd141-44a2-0c03-6f69-6165d6f9e1a2
f 72/257/73 70/258/73 69/259/73 71/260/73
f 75/261/74 73/262/74 74/263/74 76/264/74
f 69/265/75 70/266/75 74/267/75 73/268/75
f 72/269/76 71/270/76 75/271/76 76/272/76
f 71/273/77 69/274/77 73/275/77 75/276/77
f 76/277/78 74/278/78 70/279/78 72/280/78