# Made in Blockbench 5.1.6
mtllib ne_5_west.mtl

o cylinder
v 0 0 0
v 0 1 0
v 0.025888125 0 0.0625
v 0.025888125 1 0.0625
v 0.0625 0 0.025888125
v 0.0625 1 0.025888125
v 0.0625 0 -0.025888125
v 0.0625 1 -0.025888125
v 0.025888125 0 -0.0625
v 0.025888125 1 -0.0625
v -0.025888125 0 -0.0625
v -0.025888125 1 -0.0625
v -0.0625 0 -0.025888125
v -0.0625 1 -0.025888125
v -0.0625 0 0.025888125
v -0.0625 1 0.025888125
v -0.025888125 0 0.0625
v -0.025888125 1 0.0625
vt 0.317649375 0.95216375
vt 0.297834375 1
vt 0.25 0.95216375
vt 0.25 0
vt 0.301775 0
vt 0.301775 1
vt 0.25 1
vt 0.25 0.932350625
vt 0.29783625 0.952165625
vt 0.25 1
vt 0.3125 0.948225
vt 0.3125 1
vt 0.25 0.9741125
vt 0.25 0
vt 0.301775 0
vt 0.301775 1
vt 0.25 1
vt 0.3125 0.948225
vt 0.3125 1
vt 0.25 0.9741125
vt 0.25 0.932350625
vt 0.29783625 0.952165625
vt 0.25 1
vt 0.25 0
vt 0.301775 0
vt 0.301775 1
vt 0.25 1
vt 0.317649375 0.95216375
vt 0.297834375 1
vt 0.25 0.95216375
vt 0.25 0.9375
vt 0.301775 0.9375
vt 0.2758875 1
vt 0.25 0
vt 0.301775 0
vt 0.301775 1
vt 0.25 1
vt 0.301775 1
vt 0.25 1
vt 0.2758875 0.9375
vt 0.25 1
vt 0.269815 0.95216375
vt 0.317649375 1
vt 0.25 0
vt 0.301775 0
vt 0.301775 1
vt 0.25 1
vt 0.29783625 1
vt 0.25 0.980185
vt 0.29783625 0.932350625
vt 0.25 1
vt 0.25 0.948225
vt 0.3125 0.9741125
vt 0.25 0
vt 0.301775 0
vt 0.301775 1
vt 0.25 1
vt 0.25 1
vt 0.25 0.948225
vt 0.3125 0.9741125
vt 0.29783625 1
vt 0.25 0.980185
vt 0.29783625 0.932350625
vt 0.25 0
vt 0.301775 0
vt 0.301775 1
vt 0.25 1
vt 0.25 1
vt 0.269815 0.95216375
vt 0.317649375 1
vt 0.301775 1
vt 0.25 1
vt 0.2758875 0.9375
vt 0.25 0
vt 0.301775 0
vt 0.301775 1
vt 0.25 1
vt 0.25 0.9375
vt 0.301775 0.9375
vt 0.2758875 1
vn 0 -1 0
vn 0.7071067811865476 0 0.7071067811865476
vn 0 1 0
vn 0 -1 0
vn 1 0 0
vn 0 1 0
vn 0 -1 0
vn 0.7071067811865476 0 -0.7071067811865476
vn 0 1 0
vn 0 -1 0
vn 0 0 -1
vn 0 1 0
vn 0 -1 0
vn -0.7071067811865476 0 -0.7071067811865476
vn 0 1 0
vn 0 -1 0
vn -1 0 0
vn 0 1 0
vn 0 -1 0
vn -0.7071067811865476 0 0.7071067811865476
vn 0 1 0
vn 0 -1 0
vn 0 0 1
vn 0 1 0
usemtl m_16830594-a67c-fbd7-af60-7f51c1d503f8
f 5/1/1 3/2/1 1/3/1
f 3/4/2 5/5/2 6/6/2 4/7/2
f 4/8/3 6/9/3 2/10/3
f 7/11/4 5/12/4 1/13/4
f 5/14/5 7/15/5 8/16/5 6/17/5
f 6/18/6 8/19/6 2/20/6
f 9/21/7 7/22/7 1/23/7
f 7/24/8 9/25/8 10/26/8 8/27/8
f 8/28/9 10/29/9 2/30/9
f 11/31/10 9/32/10 1/33/10
f 9/34/11 11/35/11 12/36/11 10/37/11
f 10/38/12 12/39/12 2/40/12
f 13/41/13 11/42/13 1/43/13
f 11/44/14 13/45/14 14/46/14 12/47/14
f 12/48/15 14/49/15 2/50/15
f 15/51/16 13/52/16 1/53/16
f 13/54/17 15/55/17 16/56/17 14/57/17
f 14/58/18 16/59/18 2/60/18
f 17/61/19 15/62/19 1/63/19
f 15/64/20 17/65/20 18/66/20 16/67/20
f 16/68/21 18/69/21 2/70/21
f 3/71/22 17/72/22 1/73/22
f 17/74/23 3/75/23 4/76/23 18/77/23
f 18/78/24 4/79/24 2/80/24
o cylinder
v 0 1 0
v 0 2 0
v 0.025888125 1 0.0625
v 0.025888125 2 0.0625
v 0.0625 1 0.025888125
v 0.0625 2 0.025888125
v 0.0625 1 -0.025888125
v 0.0625 2 -0.025888125
v 0.025888125 1 -0.0625
v 0.025888125 2 -0.0625
v -0.025888125 1 -0.0625
v -0.025888125 2 -0.0625
v -0.0625 1 -0.025888125
v -0.0625 2 -0.025888125
v -0.0625 1 0.025888125
v -0.0625 2 0.025888125
v -0.025888125 1 0.0625
v -0.025888125 2 0.0625
vt 0.317649375 0.95216375
vt 0.297834375 1
vt 0.25 0.95216375
vt 0.25 0
vt 0.301775 0
vt 0.301775 1
vt 0.25 1
vt 0.25 0.932350625
vt 0.29783625 0.952165625
vt 0.25 1
vt 0.3125 0.948225
vt 0.3125 1
vt 0.25 0.9741125
vt 0.25 0
vt 0.301775 0
vt 0.301775 1
vt 0.25 1
vt 0.3125 0.948225
vt 0.3125 1
vt 0.25 0.9741125
vt 0.25 0.932350625
vt 0.29783625 0.952165625
vt 0.25 1
vt 0.25 0
vt 0.301775 0
vt 0.301775 1
vt 0.25 1
vt 0.317649375 0.95216375
vt 0.297834375 1
vt 0.25 0.95216375
vt 0.25 0.9375
vt 0.301775 0.9375
vt 0.2758875 1
vt 0.25 0
vt 0.301775 0
vt 0.301775 1
vt 0.25 1
vt 0.301775 1
vt 0.25 1
vt 0.2758875 0.9375
vt 0.25 1
vt 0.269815 0.95216375
vt 0.317649375 1
vt 0.25 0
vt 0.301775 0
vt 0.301775 1
vt 0.25 1
vt 0.29783625 1
vt 0.25 0.980185
vt 0.29783625 0.932350625
vt 0.25 1
vt 0.25 0.948225
vt 0.3125 0.9741125
vt 0.25 0
vt 0.301775 0
vt 0.301775 1
vt 0.25 1
vt 0.25 1
vt 0.25 0.948225
vt 0.3125 0.9741125
vt 0.29783625 1
vt 0.25 0.980185
vt 0.29783625 0.932350625
vt 0.25 0
vt 0.301775 0
vt 0.301775 1
vt 0.25 1
vt 0.25 1
vt 0.269815 0.95216375
vt 0.317649375 1
vt 0.301775 1
vt 0.25 1
vt 0.2758875 0.9375
vt 0.25 0
vt 0.301775 0
vt 0.301775 1
vt 0.25 1
vt 0.25 0.9375
vt 0.301775 0.9375
vt 0.2758875 1
vn 0 -1 0
vn 0.7071067811865476 0 0.7071067811865476
vn 0 1 0
vn 0 -1 0
vn 1 0 0
vn 0 1 0
vn 0 -1 0
vn 0.7071067811865476 0 -0.7071067811865476
vn 0 1 0
vn 0 -1 0
vn 0 0 -1
vn 0 1 0
vn 0 -1 0
vn -0.7071067811865476 0 -0.7071067811865476
vn 0 1 0
vn 0 -1 0
vn -1 0 0
vn 0 1 0
vn 0 -1 0
vn -0.7071067811865476 0 0.7071067811865476
vn 0 1 0
vn 0 -1 0
vn 0 0 1
vn 0 1 0
usemtl m_16830594-a67c-fbd7-af60-7f51c1d503f8
f 23/81/25 21/82/25 19/83/25
f 21/84/26 23/85/26 24/86/26 22/87/26
f 22/88/27 24/89/27 20/90/27
f 25/91/28 23/92/28 19/93/28
f 23/94/29 25/95/29 26/96/29 24/97/29
f 24/98/30 26/99/30 20/100/30
f 27/101/31 25/102/31 19/103/31
f 25/104/32 27/105/32 28/106/32 26/107/32
f 26/108/33 28/109/33 20/110/33
f 29/111/34 27/112/34 19/113/34
f 27/114/35 29/115/35 30/116/35 28/117/35
f 28/118/36 30/119/36 20/120/36
f 31/121/37 29/122/37 19/123/37
f 29/124/38 31/125/38 32/126/38 30/127/38
f 30/128/39 32/129/39 20/130/39
f 33/131/40 31/132/40 19/133/40
f 31/134/41 33/135/41 34/136/41 32/137/41
f 32/138/42 34/139/42 20/140/42
f 35/141/43 33/142/43 19/143/43
f 33/144/44 35/145/44 36/146/44 34/147/44
f 34/148/45 36/149/45 20/150/45
f 21/151/46 35/152/46 19/153/46
f 35/154/47 21/155/47 22/156/47 36/157/47
f 36/158/48 22/159/48 20/160/48
o cube
v 0.171875 1.99375 0
v 0.171875 1.99375 -0.0625
v 0.171875 1.93125 0
v 0.171875 1.93125 -0.0625
v -0.171875 1.99375 -0.0625
v -0.171875 1.99375 0
v -0.171875 1.93125 -0.0625
v -0.171875 1.93125 0
vt 0.375 0.8125
vt 0.75 0.8125
vt 0.75 0.75
vt 0.375 0.75
vt 0.4375 0.8125
vt 0.5 0.8125
vt 0.5 0.75
vt 0.4375 0.75
vt 0.375 0.8125
vt 0.75 0.8125
vt 0.75 0.75
vt 0.375 0.75
vt 0.375 0.8125
vt 0.4375 0.8125
vt 0.4375 0.75
vt 0.375 0.75
vt 0.375 0.8125
vt 0.75 0.8125
vt 0.75 0.75
vt 0.375 0.75
vt 0.375 0.75
vt 0.75 0.75
vt 0.75 0.6875
vt 0.375 0.6875
vn 0 0 -1
vn 1 0 0
vn 0 0 1
vn -1 0 0
vn 0 1 0
vn 0 -1 0
usemtl m_16830594-a67c-fbd7-af60-7f51c1d503f8
f 40/164/49 43/163/49 41/162/49 38/161/49
f 39/168/50 40/167/50 38/166/50 37/165/50
f 44/172/51 39/171/51 37/170/51 42/169/51
f 43/176/52 44/175/52 42/174/52 41/173/52
f 42/180/53 37/179/53 38/178/53 41/177/53
f 43/184/54 40/183/54 39/182/54 44/181/54
o cube
v 0.171875 1.6875 0
v 0.171875 1.6875 -0.0625
v 0.171875 1.625 0
v 0.171875 1.625 -0.0625
v -0.171875 1.6875 -0.0625
v -0.171875 1.6875 0
v -0.171875 1.625 -0.0625
v -0.171875 1.625 0
vt 0.375 0.8125
vt 0.75 0.8125
vt 0.75 0.75
vt 0.375 0.75
vt 0.4375 0.8125
vt 0.5 0.8125
vt 0.5 0.75
vt 0.4375 0.75
vt 0.375 0.8125
vt 0.75 0.8125
vt 0.75 0.75
vt 0.375 0.75
vt 0.375 0.8125
vt 0.4375 0.8125
vt 0.4375 0.75
vt 0.375 0.75
vt 0.375 0.8125
vt 0.75 0.8125
vt 0.75 0.75
vt 0.375 0.75
vt 0.375 0.75
vt 0.75 0.75
vt 0.75 0.6875
vt 0.375 0.6875
vn 0 0 -1
vn 1 0 0
vn 0 0 1
vn -1 0 0
vn 0 1 0
vn 0 -1 0
usemtl m_16830594-a67c-fbd7-af60-7f51c1d503f8
f 48/188/55 51/187/55 49/186/55 46/185/55
f 47/192/56 48/191/56 46/190/56 45/189/56
f 52/196/57 47/195/57 45/194/57 50/193/57
f 51/200/58 52/199/58 50/198/58 49/197/58
f 50/204/59 45/203/59 46/202/59 49/201/59
f 51/208/60 48/207/60 47/206/60 52/205/60
o cube
v 0.175 2.0625 -0.0625
v 0.175 2.0625 -0.125
v 0.175 1.5625 -0.0625
v 0.175 1.5625 -0.125
v -0.175 2.0625 -0.125
v -0.175 2.0625 -0.0625
v -0.175 1.5625 -0.125
v -0.175 1.5625 -0.0625
vt 0.115625 0.99296875
vt 0.290625 0.99296875
vt 0.290625 0.74296875
vt 0.115625 0.74296875
vt 0 1
vt 0.0078125 1
vt 0.0078125 0.9375
vt 0 0.9375
vt 0.90625 0.984375
vt 0.99375 0.984375
vt 0.99375 0.859375
vt 0.90625 0.859375
vt 0.0078125 1
vt 0.015625 1
vt 0.015625 0.9375
vt 0.0078125 0.9375
vt 0 0.9921875
vt 0.04375 0.9921875
vt 0.04375 0.984375
vt 0 0.984375
vt 0 1
vt 0.04375 1
vt 0.04375 0.9921875
vt 0 0.9921875
vn 0 0 -1
vn 1 0 0
vn 0 0 1
vn -1 0 0
vn 0 1 0
vn 0 -1 0
usemtl m_057dd141-44a2-0c03-6f69-6165d6f9e1a2
f 56/212/61 59/211/61 57/210/61 54/209/61
f 55/216/62 56/215/62 54/214/62 53/213/62
f 60/220/63 55/219/63 53/218/63 58/217/63
f 59/224/64 60/223/64 58/222/64 57/221/64
f 58/228/65 53/227/65 54/226/65 57/225/65
f 59/232/66 56/231/66 55/230/66 60/229/66