# Made in Blockbench 5.1.6
mtllib ne_5_east_both.mtl

o cylinder
v 0 2.25 0
v 0 2.4375 0
v 0.025888125 2.25 0.0625
v 0.025888125 2.4375 0.0625
v 0.0625 2.25 0.025888125
v 0.0625 2.4375 0.025888125
v 0.0625 2.25 -0.025888125
v 0.0625 2.4375 -0.025888125
v 0.025888125 2.25 -0.0625
v 0.025888125 2.4375 -0.0625
v -0.025888125 2.25 -0.0625
v -0.025888125 2.4375 -0.0625
v -0.0625 2.25 -0.025888125
v -0.0625 2.4375 -0.025888125
v -0.0625 2.25 0.025888125
v -0.0625 2.4375 0.025888125
v -0.025888125 2.25 0.0625
v -0.025888125 2.4375 0.0625
v -0.175 2.171875 -0.125
v -0.175 2.171875 -0.1375
v 0.17500000000000002 2.09375 -0.125
v 0.17500000000000002 2.09375 -0.1375
v 0.175 2.25 -0.125
v 0.175 2.25 -0.1375
v 0 2 0
v 0 2.25 0
v 0.025888125 2 0.0625
v 0.025888125 2.25 0.0625
v 0.0625 2 0.025888125
v 0.0625 2.25 0.025888125
v 0.0625 2 -0.025888125
v 0.0625 2.25 -0.025888125
v 0.025888125 2 -0.0625
v 0.025888125 2.25 -0.0625
v -0.025888125 2 -0.0625
v -0.025888125 2.25 -0.0625
v -0.0625 2 -0.025888125
v -0.0625 2.25 -0.025888125
v -0.0625 2 0.025888125
v -0.0625 2.25 0.025888125
v -0.025888125 2 0.0625
v -0.025888125 2.25 0.0625
v 0.175 2.375 -0.125
v 0.175 2.375 -0.1375
v -0.175 2.453125 -0.125
v -0.175 2.453125 -0.1375
v -0.175 2.296875 -0.125
v -0.175 2.296875 -0.1375
v 0 0 0
v 0 1 0
v 0.025888125 0 0.0625
v 0.025888125 1 0.0625
v 0.0625 0 0.025888125
v 0.0625 1 0.025888125
v 0.0625 0 -0.025888125
v 0.0625 1 -0.025888125
v 0.025888125 0 -0.0625
v 0.025888125 1 -0.0625
v -0.025888125 0 -0.0625
v -0.025888125 1 -0.0625
v -0.0625 0 -0.025888125
v -0.0625 1 -0.025888125
v -0.0625 0 0.025888125
v -0.0625 1 0.025888125
v -0.025888125 0 0.0625
v -0.025888125 1 0.0625
v 0 1 0
v 0 2 0
v 0.025888125 1 0.0625
v 0.025888125 2 0.0625
v 0.0625 1 0.025888125
v 0.0625 2 0.025888125
v 0.0625 1 -0.025888125
v 0.0625 2 -0.025888125
v 0.025888125 1 -0.0625
v 0.025888125 2 -0.0625
v -0.025888125 1 -0.0625
v -0.025888125 2 -0.0625
v -0.0625 1 -0.025888125
v -0.0625 2 -0.025888125
v -0.0625 1 0.025888125
v -0.0625 2 0.025888125
v -0.025888125 1 0.0625
v -0.025888125 2 0.0625
v 0.125 2.4 0
v 0.125 2.4 -0.0625
v 0.125 2.3375 0
v 0.125 2.3375 -0.0625
v -0.125 2.4 0
v -0.125 2.4 -0.0625
v -0.125 2.3375 0
v -0.125 2.3375 -0.0625
v 0.175 2.265625 -0.0625
v 0.175 2.265625 -0.125
v 0.175 2.078125 -0.0625
v 0.175 2.078125 -0.125
v -0.175 2.265625 -0.0625
v -0.175 2.265625 -0.125
v -0.175 2.078125 -0.0625
v -0.175 2.078125 -0.125
v 0.125 2.196875 0
v 0.125 2.196875 -0.0625
v 0.125 2.134375 0
v 0.125 2.134375 -0.0625
v -0.125 2.196875 0
v -0.125 2.196875 -0.0625
v -0.125 2.134375 0
v -0.125 2.134375 -0.0625
v 0.175 2.46875 -0.0625
v 0.175 2.46875 -0.125
v 0.175 2.28125 -0.0625
v 0.175 2.28125 -0.125
v -0.175 2.46875 -0.0625
v -0.175 2.46875 -0.125
v -0.175 2.28125 -0.0625
v -0.175 2.28125 -0.125
v 0.171875 1.99375 0
v 0.171875 1.99375 -0.0625
v 0.171875 1.93125 0
v 0.171875 1.93125 -0.0625
v -0.171875 1.99375 0
v -0.171875 1.99375 -0.0625
v -0.171875 1.93125 0
v -0.171875 1.93125 -0.0625
v 0.171875 1.6875 0
v 0.171875 1.6875 -0.0625
v 0.171875 1.625 0
v 0.171875 1.625 -0.0625
v -0.171875 1.6875 0
v -0.171875 1.6875 -0.0625
v -0.171875 1.625 0
v -0.171875 1.625 -0.0625
v 0.175 2.0625 -0.0625
v 0.175 2.0625 -0.125
v 0.175 1.5625 -0.0625
v 0.175 1.5625 -0.125
v -0.175 2.0625 -0.0625
v -0.175 2.0625 -0.125
v -0.175 1.5625 -0.0625
v -0.175 1.5625 -0.125
vt 0.317649375 0.95216375
vt 0.297834375 1
vt 0.25 0.95216375
vt 0.25 0.78125
vt 0.301775 0.78125
vt 0.301775 1
vt 0.25 1
vt 0.25 0.932350625
vt 0.29783625 0.952165625
vt 0.25 1
vt 0.3125 0.948225
vt 0.3125 1
vt 0.25 0.9741125
vt 0.25 0.78125
vt 0.301775 0.78125
vt 0.301775 1
vt 0.25 1
vt 0.3125 0.948225
vt 0.3125 1
vt 0.25 0.9741125
vt 0.25 0.932350625
vt 0.29783625 0.952165625
vt 0.25 1
vt 0.25 0.78125
vt 0.301775 0.78125
vt 0.301775 1
vt 0.25 1
vt 0.317649375 0.95216375
vt 0.297834375 1
vt 0.25 0.95216375
vt 0.25 0.9375
vt 0.301775 0.9375
vt 0.2758875 1
vt 0.25 0.78125
vt 0.301775 0.78125
vt 0.301775 1
vt 0.25 1
vt 0.301775 1
vt 0.25 1
vt 0.2758875 0.9375
vt 0.25 1
vt 0.269815 0.95216375
vt 0.317649375 1
vt 0.25 0.78125
vt 0.301775 0.78125
vt 0.301775 1
vt 0.25 1
vt 0.29783625 1
vt 0.25 0.980185
vt 0.29783625 0.932350625
vt 0.25 1
vt 0.25 0.948225
vt 0.3125 0.9741125
vt 0.25 0.78125
vt 0.301775 0.78125
vt 0.301775 1
vt 0.25 1
vt 0.25 1
vt 0.25 0.948225
vt 0.3125 0.9741125
vt 0.29783625 1
vt 0.25 0.980185
vt 0.29783625 0.932350625
vt 0.25 0.78125
vt 0.301775 0.78125
vt 0.301775 1
vt 0.25 1
vt 0.25 1
vt 0.269815 0.95216375
vt 0.317649375 1
vt 0.301775 1
vt 0.25 1
vt 0.2758875 0.9375
vt 0.25 0.78125
vt 0.301775 0.78125
vt 0.301775 1
vt 0.25 1
vt 0.25 0.9375
vt 0.301775 0.9375
vt 0.2758875 1
vt 0.0234375 0.8671875
vt 0.0234375 0.890625
vt 0.021875 0.890625
vt 0.021875 0.8671875
vt 0.062890625 0.8828125
vt 0.062890625 0.884375
vt 0.019140625 0.884375
vt 0.019140625 0.8828125
vt 0.062890625 0.88125
vt 0.062890625 0.8828125
vt 0.019140625 0.8828125
vt 0.019140625 0.88125
vt 0.062890625 0.890625
vt 0.019140625 0.890625
vt 0.019140625 0.8671875
vt 0.066796875 0.890625
vt 0.023046875 0.890625
vt 0.066796875 0.8671875
vt 0.317649375 0.95216375
vt 0.297834375 1
vt 0.25 0.95216375
vt 0.25 0.75
vt 0.301775 0.75
vt 0.301775 1
vt 0.25 1
vt 0.25 0.932350625
vt 0.29783625 0.952165625
vt 0.25 1
vt 0.3125 0.948225
vt 0.3125 1
vt 0.25 0.9741125
vt 0.25 0.75
vt 0.301775 0.75
vt 0.301775 1
vt 0.25 1
vt 0.3125 0.948225
vt 0.3125 1
vt 0.25 0.9741125
vt 0.25 0.932350625
vt 0.29783625 0.952165625
vt 0.25 1
vt 0.25 0.75
vt 0.301775 0.75
vt 0.301775 1
vt 0.25 1
vt 0.317649375 0.95216375
vt 0.297834375 1
vt 0.25 0.95216375
vt 0.25 0.9375
vt 0.301775 0.9375
vt 0.2758875 1
vt 0.25 0.75
vt 0.301775 0.75
vt 0.301775 1
vt 0.25 1
vt 0.301775 1
vt 0.25 1
vt 0.2758875 0.9375
vt 0.25 1
vt 0.269815 0.95216375
vt 0.317649375 1
vt 0.25 0.75
vt 0.301775 0.75
vt 0.301775 1
vt 0.25 1
vt 0.29783625 1
vt 0.25 0.980185
vt 0.29783625 0.932350625
vt 0.25 1
vt 0.25 0.948225
vt 0.3125 0.9741125
vt 0.25 0.75
vt 0.301775 0.75
vt 0.301775 1
vt 0.25 1
vt 0.25 1
vt 0.25 0.948225
vt 0.3125 0.9741125
vt 0.29783625 1
vt 0.25 0.980185
vt 0.29783625 0.932350625
vt 0.25 0.75
vt 0.301775 0.75
vt 0.301775 1
vt 0.25 1
vt 0.25 1
vt 0.269815 0.95216375
vt 0.317649375 1
vt 0.301775 1
vt 0.25 1
vt 0.2758875 0.9375
vt 0.25 0.75
vt 0.301775 0.75
vt 0.301775 1
vt 0.25 1
vt 0.25 0.9375
vt 0.301775 0.9375
vt 0.2758875 1
vt 0.0234375 0.8671875
vt 0.0234375 0.890625
vt 0.021875 0.890625
vt 0.021875 0.8671875
vt 0.062890625 0.8828125
vt 0.062890625 0.884375
vt 0.019140625 0.884375
vt 0.019140625 0.8828125
vt 0.062890625 0.88125
vt 0.062890625 0.8828125
vt 0.019140625 0.8828125
vt 0.019140625 0.88125
vt 0.062890625 0.890625
vt 0.019140625 0.890625
vt 0.019140625 0.8671875
vt 0.066796875 0.890625
vt 0.023046875 0.890625
vt 0.066796875 0.8671875
vt 0.317649375 0.95216375
vt 0.297834375 1
vt 0.25 0.95216375
vt 0.25 0
vt 0.301775 0
vt 0.301775 1
vt 0.25 1
vt 0.25 0.932350625
vt 0.29783625 0.952165625
vt 0.25 1
vt 0.3125 0.948225
vt 0.3125 1
vt 0.25 0.9741125
vt 0.25 0
vt 0.301775 0
vt 0.301775 1
vt 0.25 1
vt 0.3125 0.948225
vt 0.3125 1
vt 0.25 0.9741125
vt 0.25 0.932350625
vt 0.29783625 0.952165625
vt 0.25 1
vt 0.25 0
vt 0.301775 0
vt 0.301775 1
vt 0.25 1
vt 0.317649375 0.95216375
vt 0.297834375 1
vt 0.25 0.95216375
vt 0.25 0.9375
vt 0.301775 0.9375
vt 0.2758875 1
vt 0.25 0
vt 0.301775 0
vt 0.301775 1
vt 0.25 1
vt 0.301775 1
vt 0.25 1
vt 0.2758875 0.9375
vt 0.25 1
vt 0.269815 0.95216375
vt 0.317649375 1
vt 0.25 0
vt 0.301775 0
vt 0.301775 1
vt 0.25 1
vt 0.29783625 1
vt 0.25 0.980185
vt 0.29783625 0.932350625
vt 0.25 1
vt 0.25 0.948225
vt 0.3125 0.9741125
vt 0.25 0
vt 0.301775 0
vt 0.301775 1
vt 0.25 1
vt 0.25 1
vt 0.25 0.948225
vt 0.3125 0.9741125
vt 0.29783625 1
vt 0.25 0.980185
vt 0.29783625 0.932350625
vt 0.25 0
vt 0.301775 0
vt 0.301775 1
vt 0.25 1
vt 0.25 1
vt 0.269815 0.95216375
vt 0.317649375 1
vt 0.301775 1
vt 0.25 1
vt 0.2758875 0.9375
vt 0.25 0
vt 0.301775 0
vt 0.301775 1
vt 0.25 1
vt 0.25 0.9375
vt 0.301775 0.9375
vt 0.2758875 1
vt 0.317649375 0.95216375
vt 0.297834375 1
vt 0.25 0.95216375
vt 0.25 0
vt 0.301775 0
vt 0.301775 1
vt 0.25 1
vt 0.25 0.932350625
vt 0.29783625 0.952165625
vt 0.25 1
vt 0.3125 0.948225
vt 0.3125 1
vt 0.25 0.9741125
vt 0.25 0
vt 0.301775 0
vt 0.301775 1
vt 0.25 1
vt 0.3125 0.948225
vt 0.3125 1
vt 0.25 0.9741125
vt 0.25 0.932350625
vt 0.29783625 0.952165625
vt 0.25 1
vt 0.25 0
vt 0.301775 0
vt 0.301775 1
vt 0.25 1
vt 0.317649375 0.95216375
vt 0.297834375 1
vt 0.25 0.95216375
vt 0.25 0.9375
vt 0.301775 0.9375
vt 0.2758875 1
vt 0.25 0
vt 0.301775 0
vt 0.301775 1
vt 0.25 1
vt 0.301775 1
vt 0.25 1
vt 0.2758875 0.9375
vt 0.25 1
vt 0.269815 0.95216375
vt 0.317649375 1
vt 0.25 0
vt 0.301775 0
vt 0.301775 1
vt 0.25 1
vt 0.29783625 1
vt 0.25 0.980185
vt 0.29783625 0.932350625
vt 0.25 1
vt 0.25 0.948225
vt 0.3125 0.9741125
vt 0.25 0
vt 0.301775 0
vt 0.301775 1
vt 0.25 1
vt 0.25 1
vt 0.25 0.948225
vt 0.3125 0.9741125
vt 0.29783625 1
vt 0.25 0.980185
vt 0.29783625 0.932350625
vt 0.25 0
vt 0.301775 0
vt 0.301775 1
vt 0.25 1
vt 0.25 1
vt 0.269815 0.95216375
vt 0.317649375 1
vt 0.301775 1
vt 0.25 1
vt 0.2758875 0.9375
vt 0.25 0
vt 0.301775 0
vt 0.301775 1
vt 0.25 1
vt 0.25 0.9375
vt 0.301775 0.9375
vt 0.2758875 1
vt 0.5 0.75
vt 0.5 0.8125
vt 0.4375 0.8125
vt 0.4375 0.75
vt 0.4375 0.75
vt 0.4375 0.8125
vt 0.375 0.8125
vt 0.375 0.75
vt 0.75 0.75
vt 0.75 0.8125
vt 0.375 0.8125
vt 0.375 0.75
vt 0.75 0.6875
vt 0.75 0.75
vt 0.375 0.75
vt 0.375 0.6875
vt 0.75 0.75
vt 0.75 0.8125
vt 0.375 0.8125
vt 0.375 0.75
vt 0.75 0.75
vt 0.75 0.8125
vt 0.375 0.8125
vt 0.375 0.75
vt 0.015625 0.953125
vt 0.015625 1
vt 0 1
vt 0 0.953125
vt 0.0234375 0.953125
vt 0.0234375 1
vt 0.0078125 1
vt 0.0078125 0.953125
vt 0.0890625 0.9765625
vt 0.0890625 0.9921875
vt 0.0015625 0.9921875
vt 0.0015625 0.9765625
vt 0.0890625 0.984375
vt 0.0890625 1
vt 0.0015625 1
vt 0.0015625 0.984375
vt 0.0890625 0.953125
vt 0.0890625 1
vt 0.0015625 1
vt 0.0015625 0.953125
vt 0.0890625 0.953125
vt 0.0890625 1
vt 0.0015625 1
vt 0.0015625 0.953125
vt 0.5 0.75
vt 0.5 0.8125
vt 0.4375 0.8125
vt 0.4375 0.75
vt 0.4375 0.75
vt 0.4375 0.8125
vt 0.375 0.8125
vt 0.375 0.75
vt 0.75 0.75
vt 0.75 0.8125
vt 0.375 0.8125
vt 0.375 0.75
vt 0.75 0.6875
vt 0.75 0.75
vt 0.375 0.75
vt 0.375 0.6875
vt 0.75 0.75
vt 0.75 0.8125
vt 0.375 0.8125
vt 0.375 0.75
vt 0.75 0.75
vt 0.75 0.8125
vt 0.375 0.8125
vt 0.375 0.75
vt 0.015625 0.953125
vt 0.015625 1
vt 0 1
vt 0 0.953125
vt 0.0234375 0.953125
vt 0.0234375 1
vt 0.0078125 1
vt 0.0078125 0.953125
vt 0.0890625 0.9765625
vt 0.0890625 0.9921875
vt 0.0015625 0.9921875
vt 0.0015625 0.9765625
vt 0.0890625 0.984375
vt 0.0890625 1
vt 0.0015625 1
vt 0.0015625 0.984375
vt 0.0890625 0.953125
vt 0.0890625 1
vt 0.0015625 1
vt 0.0015625 0.953125
vt 0.0890625 0.953125
vt 0.0890625 1
vt 0.0015625 1
vt 0.0015625 0.953125
vt 0.5 0.75
vt 0.5 0.8125
vt 0.4375 0.8125
vt 0.4375 0.75
vt 0.4375 0.75
vt 0.4375 0.8125
vt 0.375 0.8125
vt 0.375 0.75
vt 0.75 0.75
vt 0.75 0.8125
vt 0.375 0.8125
vt 0.375 0.75
vt 0.75 0.6875
vt 0.75 0.75
vt 0.375 0.75
vt 0.375 0.6875
vt 0.75 0.75
vt 0.75 0.8125
vt 0.375 0.8125
vt 0.375 0.75
vt 0.75 0.75
vt 0.75 0.8125
vt 0.375 0.8125
vt 0.375 0.75
vt 0.5 0.75
vt 0.5 0.8125
vt 0.4375 0.8125
vt 0.4375 0.75
vt 0.4375 0.75
vt 0.4375 0.8125
vt 0.375 0.8125
vt 0.375 0.75
vt 0.75 0.75
vt 0.75 0.8125
vt 0.375 0.8125
vt 0.375 0.75
vt 0.75 0.6875
vt 0.75 0.75
vt 0.375 0.75
vt 0.375 0.6875
vt 0.75 0.75
vt 0.75 0.8125
vt 0.375 0.8125
vt 0.375 0.75
vt 0.75 0.75
vt 0.75 0.8125
vt 0.375 0.8125
vt 0.375 0.75
vt 0.0078125 0.9375
vt 0.0078125 1
vt 0 1
vt 0 0.9375
vt 0.015625 0.9375
vt 0.015625 1
vt 0.0078125 1
vt 0.0078125 0.9375
vt 0.04375 0.984375
vt 0.04375 0.9921875
vt 0 0.9921875
vt 0 0.984375
vt 0.04375 0.9921875
vt 0.04375 1
vt 0 1
vt 0 0.9921875
vt 0.99375 0.859375
vt 0.99375 0.984375
vt 0.90625 0.984375
vt 0.90625 0.859375
vt 0.290625 0.74296875
vt 0.290625 0.99296875
vt 0.115625 0.99296875
vt 0.115625 0.74296875
vn 0 -1 0
vn 0.7071067811865476 0 0.7071067811865476
vn 0 1 0
vn 0 -1 0
vn 1 0 0
vn 0 1 0
vn 0 -1 0
vn 0.7071067811865476 0 -0.7071067811865476
vn 0 1 0
vn 0 -1 0
vn 0 0 -1
vn 0 1 0
vn 0 -1 0
vn -0.7071067811865476 0 -0.7071067811865476
vn 0 1 0
vn 0 -1 0
vn -1 0 0
vn 0 1 0
vn 0 -1 0
vn -0.7071067811865476 0 0.7071067811865476
vn 0 1 0
vn 0 -1 0
vn 0 0 1
vn 0 1 0
vn 1 1.7763568394002506e-16 0
vn -0.21785303258716998 -0.9759815859905214 0
vn -0.21785303258716998 0.9759815859905214 0
vn 0 0 1
vn 0 0 -1
vn 0 -1 0
vn 0.7071067811865476 0 0.7071067811865476
vn 0 1 0
vn 0 -1 0
vn 1 0 0
vn 0 1 0
vn 0 -1 0
vn 0.7071067811865476 0 -0.7071067811865476
vn 0 1 0
vn 0 -1 0
vn 0 0 -1
vn 0 1 0
vn 0 -1 0
vn -0.7071067811865476 0 -0.7071067811865476
vn 0 1 0
vn 0 -1 0
vn -1 0 0
vn 0 1 0
vn 0 -1 0
vn -0.7071067811865476 0 0.7071067811865476
vn 0 1 0
vn 0 -1 0
vn 0 0 1
vn 0 1 0
vn -1 0 0
vn 0.21785303258716998 0.9759815859905214 0
vn 0.21785303258716998 -0.9759815859905214 0
vn 0 0 1
vn 0 0 -1
vn 0 -1 0
vn 0.7071067811865476 0 0.7071067811865476
vn 0 1 0
vn 0 -1 0
vn 1 0 0
vn 0 1 0
vn 0 -1 0
vn 0.7071067811865476 0 -0.7071067811865476
vn 0 1 0
vn 0 -1 0
vn 0 0 -1
vn 0 1 0
vn 0 -1 0
vn -0.7071067811865476 0 -0.7071067811865476
vn 0 1 0
vn 0 -1 0
vn -1 0 0
vn 0 1 0
vn 0 -1 0
vn -0.7071067811865476 0 0.7071067811865476
vn 0 1 0
vn 0 -1 0
vn 0 0 1
vn 0 1 0
vn 0 -1 0
vn 0.7071067811865476 0 0.7071067811865476
vn 0 1 0
vn 0 -1 0
vn 1 0 0
vn 0 1 0
vn 0 -1 0
vn 0.7071067811865476 0 -0.7071067811865476
vn 0 1 0
vn 0 -1 0
vn 0 0 -1
vn 0 1 0
vn 0 -1 0
vn -0.7071067811865476 0 -0.7071067811865476
vn 0 1 0
vn 0 -1 0
vn -1 0 0
vn 0 1 0
vn 0 -1 0
vn -0.7071067811865476 0 0.7071067811865476
vn 0 1 0
vn 0 -1 0
vn 0 0 1
vn 0 1 0
vn 1 0 0
vn -1 0 0
vn 0 1 0
vn 0 -1 0
vn 0 0 1
vn 0 0 -1
vn 1 0 0
vn -1 0 0
vn 0 1 0
vn 0 -1 0
vn 0 0 1
vn 0 0 -1
vn 1 0 0
vn -1 0 0
vn 0 1 0
vn 0 -1 0
vn 0 0 1
vn 0 0 -1
vn 1 0 0
vn -1 0 0
vn 0 1 0
vn 0 -1 0
vn 0 0 1
vn 0 0 -1
vn 1 0 0
vn -1 0 0
vn 0 1 0
vn 0 -1 0
vn 0 0 1
vn 0 0 -1
vn 1 0 0
vn -1 0 0
vn 0 1 0
vn 0 -1 0
vn 0 0 1
vn 0 0 -1
vn 1 0 0
vn -1 0 0
vn 0 1 0
vn 0 -1 0
vn 0 0 1
vn 0 0 -1
usemtl m_16830594-a67c-fbd7-af60-7f51c1d503f8
f 5/1/1 3/2/1 1/3/1
f 3/4/2 5/5/2 6/6/2 4/7/2
f 4/8/3 6/9/3 2/10/3
f 7/11/4 5/12/4 1/13/4
f 5/14/5 7/15/5 8/16/5 6/17/5
f 6/18/6 8/19/6 2/20/6
f 9/21/7 7/22/7 1/23/7
f 7/24/8 9/25/8 10/26/8 8/27/8
f 8/28/9 10/29/9 2/30/9
f 11/31/10 9/32/10 1/33/10
f 9/34/11 11/35/11 12/36/11 10/37/11
f 10/38/12 12/39/12 2/40/12
f 13/41/13 11/42/13 1/43/13
f 11/44/14 13/45/14 14/46/14 12/47/14
f 12/48/15 14/49/15 2/50/15
f 15/51/16 13/52/16 1/53/16
f 13/54/17 15/55/17 16/56/17 14/57/17
f 14/58/18 16/59/18 2/60/18
f 17/61/19 15/62/19 1/63/19
f 15/64/20 17/65/20 18/66/20 16/67/20
f 16/68/21 18/69/21 2/70/21
f 3/71/22 17/72/22 1/73/22
f 17/74/23 3/75/23 4/76/23 18/77/23
f 18/78/24 4/79/24 2/80/24
usemtl m_057dd141-44a2-0c03-6f69-6165d6f9e1a2
f 23/81/25 21/82/25 22/83/25 24/84/25
f 19/85/26 20/86/26 22/87/26 21/88/26
f 20/89/27 19/90/27 23/91/27 24/92/27
f 19/93/28 21/94/28 23/95/28
f 22/96/29 20/97/29 24/98/29
usemtl m_16830594-a67c-fbd7-af60-7f51c1d503f8
f 29/99/30 27/100/30 25/101/30
f 27/102/31 29/103/31 30/104/31 28/105/31
f 28/106/32 30/107/32 26/108/32
f 31/109/33 29/110/33 25/111/33
f 29/112/34 31/113/34 32/114/34 30/115/34
f 30/116/35 32/117/35 26/118/35
f 33/119/36 31/120/36 25/121/36
f 31/122/37 33/123/37 34/124/37 32/125/37
f 32/126/38 34/127/38 26/128/38
f 35/129/39 33/130/39 25/131/39
f 33/132/40 35/133/40 36/134/40 34/135/40
f 34/136/41 36/137/41 26/138/41
f 37/139/42 35/140/42 25/141/42
f 35/142/43 37/143/43 38/144/43 36/145/43
f 36/146/44 38/147/44 26/148/44
f 39/149/45 37/150/45 25/151/45
f 37/152/46 39/153/46 40/154/46 38/155/46
f 38/156/47 40/157/47 26/158/47
f 41/159/48 39/160/48 25/161/48
f 39/162/49 41/163/49 42/164/49 40/165/49
f 40/166/50 42/167/50 26/168/50
f 27/169/51 41/170/51 25/171/51
f 41/172/52 27/173/52 28/174/52 42/175/52
f 42/176/53 28/177/53 26/178/53
usemtl m_057dd141-44a2-0c03-6f69-6165d6f9e1a2
f 47/179/54 45/180/54 46/181/54 48/182/54
f 43/183/55 44/184/55 46/185/55 45/186/55
f 44/187/56 43/188/56 47/189/56 48/190/56
f 43/191/57 45/192/57 47/193/57
f 46/194/58 44/195/58 48/196/58
usemtl m_16830594-a67c-fbd7-af60-7f51c1d503f8
f 53/197/59 51/198/59 49/199/59
f 51/200/60 53/201/60 54/202/60 52/203/60
f 52/204/61 54/205/61 50/206/61
f 55/207/62 53/208/62 49/209/62
f 53/210/63 55/211/63 56/212/63 54/213/63
f 54/214/64 56/215/64 50/216/64
f 57/217/65 55/218/65 49/219/65
f 55/220/66 57/221/66 58/222/66 56/223/66
f 56/224/67 58/225/67 50/226/67
f 59/227/68 57/228/68 49/229/68
f 57/230/69 59/231/69 60/232/69 58/233/69
f 58/234/70 60/235/70 50/236/70
f 61/237/71 59/238/71 49/239/71
f 59/240/72 61/241/72 62/242/72 60/243/72
f 60/244/73 62/245/73 50/246/73
f 63/247/74 61/248/74 49/249/74
f 61/250/75 63/251/75 64/252/75 62/253/75
f 62/254/76 64/255/76 50/256/76
f 65/257/77 63/258/77 49/259/77
f 63/260/78 65/261/78 66/262/78 64/263/78
f 64/264/79 66/265/79 50/266/79
f 51/267/80 65/268/80 49/269/80
f 65/270/81 51/271/81 52/272/81 66/273/81
f 66/274/82 52/275/82 50/276/82
f 71/277/83 69/278/83 67/279/83
f 69/280/84 71/281/84 72/282/84 70/283/84
f 70/284/85 72/285/85 68/286/85
f 73/287/86 71/288/86 67/289/86
f 71/290/87 73/291/87 74/292/87 72/293/87
f 72/294/88 74/295/88 68/296/88
f 75/297/89 73/298/89 67/299/89
f 73/300/90 75/301/90 76/302/90 74/303/90
f 74/304/91 76/305/91 68/306/91
f 77/307/92 75/308/92 67/309/92
f 75/310/93 77/311/93 78/312/93 76/313/93
f 76/314/94 78/315/94 68/316/94
f 79/317/95 77/318/95 67/319/95
f 77/320/96 79/321/96 80/322/96 78/323/96
f 78/324/97 80/325/97 68/326/97
f 81/327/98 79/328/98 67/329/98
f 79/330/99 81/331/99 82/332/99 80/333/99
f 80/334/100 82/335/100 68/336/100
f 83/337/101 81/338/101 67/339/101
f 81/340/102 83/341/102 84/342/102 82/343/102
f 82/344/103 84/345/103 68/346/103
f 69/347/104 83/348/104 67/349/104
f 83/350/105 69/351/105 70/352/105 84/353/105
f 84/354/106 70/355/106 68/356/106
f 88/357/107 86/358/107 85/359/107 87/360/107
f 91/361/108 89/362/108 90/363/108 92/364/108
f 85/365/109 86/366/109 90/367/109 89/368/109
f 88/369/110 87/370/110 91/371/110 92/372/110
f 87/373/111 85/374/111 89/375/111 91/376/111
f 92/377/112 90/378/112 86/379/112 88/380/112
usemtl m_057dd141-44a2-0c03-6f69-6165d6f9e1a2
f 96/381/113 94/382/113 93/383/113 95/384/113
f 99/385/114 97/386/114 98/387/114 100/388/114
f 93/389/115 94/390/115 98/391/115 97/392/115
f 96/393/116 95/394/116 99/395/116 100/396/116
f 95/397/117 93/398/117 97/399/117 99/400/117
f 100/401/118 98/402/118 94/403/118 96/404/118
usemtl m_16830594-a67c-fbd7-af60-7f51c1d503f8
f 104/405/119 102/406/119 101/407/119 103/408/119
f 107/409/120 105/410/120 106/411/120 108/412/120
f 101/413/121 102/414/121 106/415/121 105/416/121
f 104/417/122 103/418/122 107/419/122 108/420/122
f 103/421/123 101/422/123 105/423/123 107/424/123
f 108/425/124 106/426/124 102/427/124 104/428/124
usemtl m_057dd141-44a2-0c03-6f69-6165d6f9e1a2
f 112/429/125 110/430/125 109/431/125 111/432/125
f 115/433/126 113/434/126 114/435/126 116/436/126
f 109/437/127 110/438/127 114/439/127 113/440/127
f 112/441/128 111/442/128 115/443/128 116/444/128
f 111/445/129 109/446/129 113/447/129 115/448/129
f 116/449/130 114/450/130 110/451/130 112/452/130
usemtl m_16830594-a67c-fbd7-af60-7f51c1d503f8
f 120/453/131 118/454/131 117/455/131 119/456/131
f 123/457/132 121/458/132 122/459/132 124/460/132
f 117/461/133 118/462/133 122/463/133 121/464/133
f 120/465/134 119/466/134 123/467/134 124/468/134
f 119/469/135 117/470/135 121/471/135 123/472/135
f 124/473/136 122/474/136 118/475/136 120/476/136
f 128/477/137 126/478/137 125/479/137 127/480/137
f 131/481/138 129/482/138 130/483/138 132/484/138
f 125/485/139 126/486/139 130/487/139 129/488/139
f 128/489/140 127/490/140 131/491/140 132/492/140
f 127/493/141 125/494/141 129/495/141 131/496/141
f 132/497/142 130/498/142 126/499/142 128/500/142
usemtl m_057dd141-44a2-0c03-6f69-6165d6f9e1a2
f 136/501/143 134/502/143 133/503/143 135/504/143
f 139/505/144 137/506/144 138/507/144 140/508/144
f 133/509/145 134/510/145 138/511/145 137/512/145
f 136/513/146 135/514/146 139/515/146 140/516/146
f 135/517/147 133/518/147 137/519/147 139/520/147
f 140/521/148 138/522/148 134/523/148 136/524/148