# Made in Blockbench 5.1.6
mtllib ne_5_small_east_left.mtl

o cylinder
v 0 1 0
v 0 1.25 0
v 0.025888125 1 0.0625
v 0.025888125 1.25 0.0625
v 0.0625 1 0.025888125
v 0.0625 1.25 0.025888125
v 0.0625 1 -0.025888125
v 0.0625 1.25 -0.025888125
v 0.025888125 1 -0.0625
v 0.025888125 1.25 -0.0625
v -0.025888125 1 -0.0625
v -0.025888125 1.25 -0.0625
v -0.0625 1 -0.025888125
v -0.0625 1.25 -0.025888125
v -0.0625 1 0.025888125
v -0.0625 1.25 0.025888125
v -0.025888125 1 0.0625
v -0.025888125 1.25 0.0625
v 0.175 1.171875 -0.125
v 0.175 1.171875 -0.1375
v -0.175 1.25 -0.125
v -0.175 1.25 -0.1375
v -0.175 1.09375 -0.125
v -0.175 1.09375 -0.1375
v 0 0 0
v 0 1 0
v 0.025888125 0 0.0625
v 0.025888125 1 0.0625
v 0.0625 0 0.025888125
v 0.0625 1 0.025888125
v 0.0625 0 -0.025888125
v 0.0625 1 -0.025888125
v 0.025888125 0 -0.0625
v 0.025888125 1 -0.0625
v -0.025888125 0 -0.0625
v -0.025888125 1 -0.0625
v -0.0625 0 -0.025888125
v -0.0625 1 -0.025888125
v -0.0625 0 0.025888125
v -0.0625 1 0.025888125
v -0.025888125 0 0.0625
v -0.025888125 1 0.0625
v 0.125 1.196875 0
v 0.125 1.196875 -0.0625
v 0.125 1.134375 0
v 0.125 1.134375 -0.0625
v -0.125 1.196875 0
v -0.125 1.196875 -0.0625
v -0.125 1.134375 0
v -0.125 1.134375 -0.0625
v 0.175 1.265625 -0.0625
v 0.175 1.265625 -0.125
v 0.175 1.078125 -0.0625
v 0.175 1.078125 -0.125
v -0.175 1.265625 -0.0625
v -0.175 1.265625 -0.125
v -0.175 1.078125 -0.0625
v -0.175 1.078125 -0.125
v 0.171875 0.99375 0
v 0.171875 0.99375 -0.0625
v 0.171875 0.93125 0
v 0.171875 0.93125 -0.0625
v -0.171875 0.99375 0
v -0.171875 0.99375 -0.0625
v -0.171875 0.93125 0
v -0.171875 0.93125 -0.0625
v 0.171875 0.6875 0
v 0.171875 0.6875 -0.0625
v 0.171875 0.625 0
v 0.171875 0.625 -0.0625
v -0.171875 0.6875 0
v -0.171875 0.6875 -0.0625
v -0.171875 0.625 0
v -0.171875 0.625 -0.0625
v 0.175 1.0625 -0.0625
v 0.175 1.0625 -0.125
v 0.175 0.5625 -0.0625
v 0.175 0.5625 -0.125
v -0.175 1.0625 -0.0625
v -0.175 1.0625 -0.125
v -0.175 0.5625 -0.0625
v -0.175 0.5625 -0.125
vt 0.317649375 0.95216375
vt 0.297834375 1
vt 0.25 0.95216375
vt 0.25 0.75
vt 0.301775 0.75
vt 0.301775 1
vt 0.25 1
vt 0.25 0.932350625
vt 0.29783625 0.952165625
vt 0.25 1
vt 0.3125 0.948225
vt 0.3125 1
vt 0.25 0.9741125
vt 0.25 0.75
vt 0.301775 0.75
vt 0.301775 1
vt 0.25 1
vt 0.3125 0.948225
vt 0.3125 1
vt 0.25 0.9741125
vt 0.25 0.932350625
vt 0.29783625 0.952165625
vt 0.25 1
vt 0.25 0.75
vt 0.301775 0.75
vt 0.301775 1
vt 0.25 1
vt 0.317649375 0.95216375
vt 0.297834375 1
vt 0.25 0.95216375
vt 0.25 0.9375
vt 0.301775 0.9375
vt 0.2758875 1
vt 0.25 0.75
vt 0.301775 0.75
vt 0.301775 1
vt 0.25 1
vt 0.301775 1
vt 0.25 1
vt 0.2758875 0.9375
vt 0.25 1
vt 0.269815 0.95216375
vt 0.317649375 1
vt 0.25 0.75
vt 0.301775 0.75
vt 0.301775 1
vt 0.25 1
vt 0.29783625 1
vt 0.25 0.980185
vt 0.29783625 0.932350625
vt 0.25 1
vt 0.25 0.948225
vt 0.3125 0.9741125
vt 0.25 0.75
vt 0.301775 0.75
vt 0.301775 1
vt 0.25 1
vt 0.25 1
vt 0.25 0.948225
vt 0.3125 0.9741125
vt 0.29783625 1
vt 0.25 0.980185
vt 0.29783625 0.932350625
vt 0.25 0.75
vt 0.301775 0.75
vt 0.301775 1
vt 0.25 1
vt 0.25 1
vt 0.269815 0.95216375
vt 0.317649375 1
vt 0.301775 1
vt 0.25 1
vt 0.2758875 0.9375
vt 0.25 0.75
vt 0.301775 0.75
vt 0.301775 1
vt 0.25 1
vt 0.25 0.9375
vt 0.301775 0.9375
vt 0.2758875 1
vt 0.0234375 0.8671875
vt 0.0234375 0.890625
vt 0.021875 0.890625
vt 0.021875 0.8671875
vt 0.062890625 0.8828125
vt 0.062890625 0.884375
vt 0.019140625 0.884375
vt 0.019140625 0.8828125
vt 0.062890625 0.88125
vt 0.062890625 0.8828125
vt 0.019140625 0.8828125
vt 0.019140625 0.88125
vt 0.062890625 0.890625
vt 0.019140625 0.890625
vt 0.019140625 0.8671875
vt 0.066796875 0.890625
vt 0.023046875 0.890625
vt 0.066796875 0.8671875
vt 0.317649375 0.95216375
vt 0.297834375 1
vt 0.25 0.95216375
vt 0.25 0
vt 0.301775 0
vt 0.301775 1
vt 0.25 1
vt 0.25 0.932350625
vt 0.29783625 0.952165625
vt 0.25 1
vt 0.3125 0.948225
vt 0.3125 1
vt 0.25 0.9741125
vt 0.25 0
vt 0.301775 0
vt 0.301775 1
vt 0.25 1
vt 0.3125 0.948225
vt 0.3125 1
vt 0.25 0.9741125
vt 0.25 0.932350625
vt 0.29783625 0.952165625
vt 0.25 1
vt 0.25 0
vt 0.301775 0
vt 0.301775 1
vt 0.25 1
vt 0.317649375 0.95216375
vt 0.297834375 1
vt 0.25 0.95216375
vt 0.25 0.9375
vt 0.301775 0.9375
vt 0.2758875 1
vt 0.25 0
vt 0.301775 0
vt 0.301775 1
vt 0.25 1
vt 0.301775 1
vt 0.25 1
vt 0.2758875 0.9375
vt 0.25 1
vt 0.269815 0.95216375
vt 0.317649375 1
vt 0.25 0
vt 0.301775 0
vt 0.301775 1
vt 0.25 1
vt 0.29783625 1
vt 0.25 0.980185
vt 0.29783625 0.932350625
vt 0.25 1
vt 0.25 0.948225
vt 0.3125 0.9741125
vt 0.25 0
vt 0.301775 0
vt 0.301775 1
vt 0.25 1
vt 0.25 1
vt 0.25 0.948225
vt 0.3125 0.9741125
vt 0.29783625 1
vt 0.25 0.980185
vt 0.29783625 0.932350625
vt 0.25 0
vt 0.301775 0
vt 0.301775 1
vt 0.25 1
vt 0.25 1
vt 0.269815 0.95216375
vt 0.317649375 1
vt 0.301775 1
vt 0.25 1
vt 0.2758875 0.9375
vt 0.25 0
vt 0.301775 0
vt 0.301775 1
vt 0.25 1
vt 0.25 0.9375
vt 0.301775 0.9375
vt 0.2758875 1
vt 0.5 0.75
vt 0.5 0.8125
vt 0.4375 0.8125
vt 0.4375 0.75
vt 0.4375 0.75
vt 0.4375 0.8125
vt 0.375 0.8125
vt 0.375 0.75
vt 0.75 0.75
vt 0.75 0.8125
vt 0.375 0.8125
vt 0.375 0.75
vt 0.75 0.6875
vt 0.75 0.75
vt 0.375 0.75
vt 0.375 0.6875
vt 0.75 0.75
vt 0.75 0.8125
vt 0.375 0.8125
vt 0.375 0.75
vt 0.75 0.75
vt 0.75 0.8125
vt 0.375 0.8125
vt 0.375 0.75
vt 0.015625 0.953125
vt 0.015625 1
vt 0 1
vt 0 0.953125
vt 0.0234375 0.953125
vt 0.0234375 1
vt 0.0078125 1
vt 0.0078125 0.953125
vt 0.0890625 0.9765625
vt 0.0890625 0.9921875
vt 0.0015625 0.9921875
vt 0.0015625 0.9765625
vt 0.0890625 0.984375
vt 0.0890625 1
vt 0.0015625 1
vt 0.0015625 0.984375
vt 0.0890625 0.953125
vt 0.0890625 1
vt 0.0015625 1
vt 0.0015625 0.953125
vt 0.0890625 0.953125
vt 0.0890625 1
vt 0.0015625 1
vt 0.0015625 0.953125
vt 0.5 0.75
vt 0.5 0.8125
vt 0.4375 0.8125
vt 0.4375 0.75
vt 0.4375 0.75
vt 0.4375 0.8125
vt 0.375 0.8125
vt 0.375 0.75
vt 0.75 0.75
vt 0.75 0.8125
vt 0.375 0.8125
vt 0.375 0.75
vt 0.75 0.6875
vt 0.75 0.75
vt 0.375 0.75
vt 0.375 0.6875
vt 0.75 0.75
vt 0.75 0.8125
vt 0.375 0.8125
vt 0.375 0.75
vt 0.75 0.75
vt 0.75 0.8125
vt 0.375 0.8125
vt 0.375 0.75
vt 0.5 0.75
vt 0.5 0.8125
vt 0.4375 0.8125
vt 0.4375 0.75
vt 0.4375 0.75
vt 0.4375 0.8125
vt 0.375 0.8125
vt 0.375 0.75
vt 0.75 0.75
vt 0.75 0.8125
vt 0.375 0.8125
vt 0.375 0.75
vt 0.75 0.6875
vt 0.75 0.75
vt 0.375 0.75
vt 0.375 0.6875
vt 0.75 0.75
vt 0.75 0.8125
vt 0.375 0.8125
vt 0.375 0.75
vt 0.75 0.75
vt 0.75 0.8125
vt 0.375 0.8125
vt 0.375 0.75
vt 0.0078125 0.9375
vt 0.0078125 1
vt 0 1
vt 0 0.9375
vt 0.015625 0.9375
vt 0.015625 1
vt 0.0078125 1
vt 0.0078125 0.9375
vt 0.04375 0.984375
vt 0.04375 0.9921875
vt 0 0.9921875
vt 0 0.984375
vt 0.04375 0.9921875
vt 0.04375 1
vt 0 1
vt 0 0.9921875
vt 0.99375 0.859375
vt 0.99375 0.984375
vt 0.90625 0.984375
vt 0.90625 0.859375
vt 0.290625 0.74296875
vt 0.290625 0.99296875
vt 0.115625 0.99296875
vt 0.115625 0.74296875
vn 0 -1 0
vn 0.7071067811865476 0 0.7071067811865476
vn 0 1 0
vn 0 -1 0
vn 1 0 0
vn 0 1 0
vn 0 -1 0
vn 0.7071067811865476 0 -0.7071067811865476
vn 0 1 0
vn 0 -1 0
vn 0 0 -1
vn 0 1 0
vn 0 -1 0
vn -0.7071067811865476 0 -0.7071067811865476
vn 0 1 0
vn 0 -1 0
vn -1 0 0
vn 0 1 0
vn 0 -1 0
vn -0.7071067811865476 0 0.7071067811865476
vn 0 1 0
vn 0 -1 0
vn 0 0 1
vn 0 1 0
vn -1 0 0
vn 0.21785303258716998 0.9759815859905214 0
vn 0.21785303258716998 -0.9759815859905214 0
vn 0 0 1
vn 0 0 -1
vn 0 -1 0
vn 0.7071067811865476 0 0.7071067811865476
vn 0 1 0
vn 0 -1 0
vn 1 0 0
vn 0 1 0
vn 0 -1 0
vn 0.7071067811865476 0 -0.7071067811865476
vn 0 1 0
vn 0 -1 0
vn 0 0 -1
vn 0 1 0
vn 0 -1 0
vn -0.7071067811865476 0 -0.7071067811865476
vn 0 1 0
vn 0 -1 0
vn -1 0 0
vn 0 1 0
vn 0 -1 0
vn -0.7071067811865476 0 0.7071067811865476
vn 0 1 0
vn 0 -1 0
vn 0 0 1
vn 0 1 0
vn 1 0 0
vn -1 0 0
vn 0 1 0
vn 0 -1 0
vn 0 0 1
vn 0 0 -1
vn 1 0 0
vn -1 0 0
vn 0 1 0
vn 0 -1 0
vn 0 0 1
vn 0 0 -1
vn 1 0 0
vn -1 0 0
vn 0 1 0
vn 0 -1 0
vn 0 0 1
vn 0 0 -1
vn 1 0 0
vn -1 0 0
vn 0 1 0
vn 0 -1 0
vn 0 0 1
vn 0 0 -1
vn 1 0 0
vn -1 0 0
vn 0 1 0
vn 0 -1 0
vn 0 0 1
vn 0 0 -1
usemtl m_16830594-a67c-fbd7-af60-7f51c1d503f8
f 5/1/1 3/2/1 1/3/1
f 3/4/2 5/5/2 6/6/2 4/7/2
f 4/8/3 6/9/3 2/10/3
f 7/11/4 5/12/4 1/13/4
f 5/14/5 7/15/5 8/16/5 6/17/5
f 6/18/6 8/19/6 2/20/6
f 9/21/7 7/22/7 1/23/7
f 7/24/8 9/25/8 10/26/8 8/27/8
f 8/28/9 10/29/9 2/30/9
f 11/31/10 9/32/10 1/33/10
f 9/34/11 11/35/11 12/36/11 10/37/11
f 10/38/12 12/39/12 2/40/12
f 13/41/13 11/42/13 1/43/13
f 11/44/14 13/45/14 14/46/14 12/47/14
f 12/48/15 14/49/15 2/50/15
f 15/51/16 13/52/16 1/53/16
f 13/54/17 15/55/17 16/56/17 14/57/17
f 14/58/18 16/59/18 2/60/18
f 17/61/19 15/62/19 1/63/19
f 15/64/20 17/65/20 18/66/20 16/67/20
f 16/68/21 18/69/21 2/70/21
f 3/71/22 17/72/22 1/73/22
f 17/74/23 3/75/23 4/76/23 18/77/23
f 18/78/24 4/79/24 2/80/24
usemtl m_057dd141-44a2-0c03-6f69-6165d6f9e1a2
f 23/81/25 21/82/25 22/83/25 24/84/25
f 19/85/26 20/86/26 22/87/26 21/88/26
f 20/89/27 19/90/27 23/91/27 24/92/27
f 19/93/28 21/94/28 23/95/28
f 22/96/29 20/97/29 24/98/29
usemtl m_16830594-a67c-fbd7-af60-7f51c1d503f8
f 29/99/30 27/100/30 25/101/30
f 27/102/31 29/103/31 30/104/31 28/105/31
f 28/106/32 30/107/32 26/108/32
f 31/109/33 29/110/33 25/111/33
f 29/112/34 31/113/34 32/114/34 30/115/34
f 30/116/35 32/117/35 26/118/35
f 33/119/36 31/120/36 25/121/36
f 31/122/37 33/123/37 34/124/37 32/125/37
f 32/126/38 34/127/38 26/128/38
f 35/129/39 33/130/39 25/131/39
f 33/132/40 35/133/40 36/134/40 34/135/40
f 34/136/41 36/137/41 26/138/41
f 37/139/42 35/140/42 25/141/42
f 35/142/43 37/143/43 38/144/43 36/145/43
f 36/146/44 38/147/44 26/148/44
f 39/149/45 37/150/45 25/151/45
f 37/152/46 39/153/46 40/154/46 38/155/46
f 38/156/47 40/157/47 26/158/47
f 41/159/48 39/160/48 25/161/48
f 39/162/49 41/163/49 42/164/49 40/165/49
f 40/166/50 42/167/50 26/168/50
f 27/169/51 41/170/51 25/171/51
f 41/172/52 27/173/52 28/174/52 42/175/52
f 42/176/53 28/177/53 26/178/53
f 46/179/54 44/180/54 43/181/54 45/182/54
f 49/183/55 47/184/55 48/185/55 50/186/55
f 43/187/56 44/188/56 48/189/56 47/190/56
f 46/191/57 45/192/57 49/193/57 50/194/57
f 45/195/58 43/196/58 47/197/58 49/198/58
f 50/199/59 48/200/59 44/201/59 46/202/59
usemtl m_057dd141-44a2-0c03-6f69-6165d6f9e1a2
f 54/203/60 52/204/60 51/205/60 53/206/60
f 57/207/61 55/208/61 56/209/61 58/210/61
f 51/211/62 52/212/62 56/213/62 55/214/62
f 54/215/63 53/216/63 57/217/63 58/218/63
f 53/219/64 51/220/64 55/221/64 57/222/64
f 58/223/65 56/224/65 52/225/65 54/226/65
usemtl m_16830594-a67c-fbd7-af60-7f51c1d503f8
f 62/227/66 60/228/66 59/229/66 61/230/66
f 65/231/67 63/232/67 64/233/67 66/234/67
f 59/235/68 60/236/68 64/237/68 63/238/68
f 62/239/69 61/240/69 65/241/69 66/242/69
f 61/243/70 59/244/70 63/245/70 65/246/70
f 66/247/71 64/248/71 60/249/71 62/250/71
f 70/251/72 68/252/72 67/253/72 69/254/72
f 73/255/73 71/256/73 72/257/73 74/258/73
f 67/259/74 68/260/74 72/261/74 71/262/74
f 70/263/75 69/264/75 73/265/75 74/266/75
f 69/267/76 67/268/76 71/269/76 73/270/76
f 74/271/77 72/272/77 68/273/77 70/274/77
usemtl m_057dd141-44a2-0c03-6f69-6165d6f9e1a2
f 78/275/78 76/276/78 75/277/78 77/278/78
f 81/279/79 79/280/79 80/281/79 82/282/79
f 75/283/80 76/284/80 80/285/80 79/286/80
f 78/287/81 77/288/81 81/289/81 82/290/81
f 77/291/82 75/292/82 79/293/82 81/294/82
f 82/295/83 80/296/83 76/297/83 78/298/83