# Made in Blockbench 5.1.6
mtllib ne_5_small_east_both.mtl

o cylinder
v 0 1.25 0
v 0 1.4375 0
v 0.025888125 1.25 0.0625
v 0.025888125 1.4375 0.0625
v 0.0625 1.25 0.025888125
v 0.0625 1.4375 0.025888125
v 0.0625 1.25 -0.025888125
v 0.0625 1.4375 -0.025888125
v 0.025888125 1.25 -0.0625
v 0.025888125 1.4375 -0.0625
v -0.025888125 1.25 -0.0625
v -0.025888125 1.4375 -0.0625
v -0.0625 1.25 -0.025888125
v -0.0625 1.4375 -0.025888125
v -0.0625 1.25 0.025888125
v -0.0625 1.4375 0.025888125
v -0.025888125 1.25 0.0625
v -0.025888125 1.4375 0.0625
v -0.175 1.171875 -0.125
v -0.175 1.171875 -0.1375
v 0.17500000000000002 1.09375 -0.125
v 0.17500000000000002 1.09375 -0.1375
v 0.175 1.25 -0.125
v 0.175 1.25 -0.1375
v 0 1 0
v 0 1.25 0
v 0.025888125 1 0.0625
v 0.025888125 1.25 0.0625
v 0.0625 1 0.025888125
v 0.0625 1.25 0.025888125
v 0.0625 1 -0.025888125
v 0.0625 1.25 -0.025888125
v 0.025888125 1 -0.0625
v 0.025888125 1.25 -0.0625
v -0.025888125 1 -0.0625
v -0.025888125 1.25 -0.0625
v -0.0625 1 -0.025888125
v -0.0625 1.25 -0.025888125
v -0.0625 1 0.025888125
v -0.0625 1.25 0.025888125
v -0.025888125 1 0.0625
v -0.025888125 1.25 0.0625
v 0.175 1.375 -0.125
v 0.175 1.375 -0.1375
v -0.175 1.453125 -0.125
v -0.175 1.453125 -0.1375
v -0.175 1.296875 -0.125
v -0.175 1.296875 -0.1375
v 0 0 0
v 0 1 0
v 0.025888125 0 0.0625
v 0.025888125 1 0.0625
v 0.0625 0 0.025888125
v 0.0625 1 0.025888125
v 0.0625 0 -0.025888125
v 0.0625 1 -0.025888125
v 0.025888125 0 -0.0625
v 0.025888125 1 -0.0625
v -0.025888125 0 -0.0625
v -0.025888125 1 -0.0625
v -0.0625 0 -0.025888125
v -0.0625 1 -0.025888125
v -0.0625 0 0.025888125
v -0.0625 1 0.025888125
v -0.025888125 0 0.0625
v -0.025888125 1 0.0625
v 0.125 1.4 0
v 0.125 1.4 -0.0625
v 0.125 1.3375 0
v 0.125 1.3375 -0.0625
v -0.125 1.4 0
v -0.125 1.4 -0.0625
v -0.125 1.3375 0
v -0.125 1.3375 -0.0625
v 0.175 1.265625 -0.0625
v 0.175 1.265625 -0.125
v 0.175 1.078125 -0.0625
v 0.175 1.078125 -0.125
v -0.175 1.265625 -0.0625
v -0.175 1.265625 -0.125
v -0.175 1.078125 -0.0625
v -0.175 1.078125 -0.125
v 0.125 1.196875 0
v 0.125 1.196875 -0.0625
v 0.125 1.134375 0
v 0.125 1.134375 -0.0625
v -0.125 1.196875 0
v -0.125 1.196875 -0.0625
v -0.125 1.134375 0
v -0.125 1.134375 -0.0625
v 0.175 1.46875 -0.0625
v 0.175 1.46875 -0.125
v 0.175 1.28125 -0.0625
v 0.175 1.28125 -0.125
v -0.175 1.46875 -0.0625
v -0.175 1.46875 -0.125
v -0.175 1.28125 -0.0625
v -0.175 1.28125 -0.125
v 0.171875 0.99375 0
v 0.171875 0.99375 -0.0625
v 0.171875 0.93125 0
v 0.171875 0.93125 -0.0625
v -0.171875 0.99375 0
v -0.171875 0.99375 -0.0625
v -0.171875 0.93125 0
v -0.171875 0.93125 -0.0625
v 0.171875 0.6875 0
v 0.171875 0.6875 -0.0625
v 0.171875 0.625 0
v 0.171875 0.625 -0.0625
v -0.171875 0.6875 0
v -0.171875 0.6875 -0.0625
v -0.171875 0.625 0
v -0.171875 0.625 -0.0625
v 0.175 1.0625 -0.0625
v 0.175 1.0625 -0.125
v 0.175 0.5625 -0.0625
v 0.175 0.5625 -0.125
v -0.175 1.0625 -0.0625
v -0.175 1.0625 -0.125
v -0.175 0.5625 -0.0625
v -0.175 0.5625 -0.125
vt 0.317649375 0.95216375
vt 0.297834375 1
vt 0.25 0.95216375
vt 0.25 0.78125
vt 0.301775 0.78125
vt 0.301775 1
vt 0.25 1
vt 0.25 0.932350625
vt 0.29783625 0.952165625
vt 0.25 1
vt 0.3125 0.948225
vt 0.3125 1
vt 0.25 0.9741125
vt 0.25 0.78125
vt 0.301775 0.78125
vt 0.301775 1
vt 0.25 1
vt 0.3125 0.948225
vt 0.3125 1
vt 0.25 0.9741125
vt 0.25 0.932350625
vt 0.29783625 0.952165625
vt 0.25 1
vt 0.25 0.78125
vt 0.301775 0.78125
vt 0.301775 1
vt 0.25 1
vt 0.317649375 0.95216375
vt 0.297834375 1
vt 0.25 0.95216375
vt 0.25 0.9375
vt 0.301775 0.9375
vt 0.2758875 1
vt 0.25 0.78125
vt 0.301775 0.78125
vt 0.301775 1
vt 0.25 1
vt 0.301775 1
vt 0.25 1
vt 0.2758875 0.9375
vt 0.25 1
vt 0.269815 0.95216375
vt 0.317649375 1
vt 0.25 0.78125
vt 0.301775 0.78125
vt 0.301775 1
vt 0.25 1
vt 0.29783625 1
vt 0.25 0.980185
vt 0.29783625 0.932350625
vt 0.25 1
vt 0.25 0.948225
vt 0.3125 0.9741125
vt 0.25 0.78125
vt 0.301775 0.78125
vt 0.301775 1
vt 0.25 1
vt 0.25 1
vt 0.25 0.948225
vt 0.3125 0.9741125
vt 0.29783625 1
vt 0.25 0.980185
vt 0.29783625 0.932350625
vt 0.25 0.78125
vt 0.301775 0.78125
vt 0.301775 1
vt 0.25 1
vt 0.25 1
vt 0.269815 0.95216375
vt 0.317649375 1
vt 0.301775 1
vt 0.25 1
vt 0.2758875 0.9375
vt 0.25 0.78125
vt 0.301775 0.78125
vt 0.301775 1
vt 0.25 1
vt 0.25 0.9375
vt 0.301775 0.9375
vt 0.2758875 1
vt 0.0234375 0.8671875
vt 0.0234375 0.890625
vt 0.021875 0.890625
vt 0.021875 0.8671875
vt 0.062890625 0.8828125
vt 0.062890625 0.884375
vt 0.019140625 0.884375
vt 0.019140625 0.8828125
vt 0.062890625 0.88125
vt 0.062890625 0.8828125
vt 0.019140625 0.8828125
vt 0.019140625 0.88125
vt 0.062890625 0.890625
vt 0.019140625 0.890625
vt 0.019140625 0.8671875
vt 0.066796875 0.890625
vt 0.023046875 0.890625
vt 0.066796875 0.8671875
vt 0.317649375 0.95216375
vt 0.297834375 1
vt 0.25 0.95216375
vt 0.25 0.75
vt 0.301775 0.75
vt 0.301775 1
vt 0.25 1
vt 0.25 0.932350625
vt 0.29783625 0.952165625
vt 0.25 1
vt 0.3125 0.948225
vt 0.3125 1
vt 0.25 0.9741125
vt 0.25 0.75
vt 0.301775 0.75
vt 0.301775 1
vt 0.25 1
vt 0.3125 0.948225
vt 0.3125 1
vt 0.25 0.9741125
vt 0.25 0.932350625
vt 0.29783625 0.952165625
vt 0.25 1
vt 0.25 0.75
vt 0.301775 0.75
vt 0.301775 1
vt 0.25 1
vt 0.317649375 0.95216375
vt 0.297834375 1
vt 0.25 0.95216375
vt 0.25 0.9375
vt 0.301775 0.9375
vt 0.2758875 1
vt 0.25 0.75
vt 0.301775 0.75
vt 0.301775 1
vt 0.25 1
vt 0.301775 1
vt 0.25 1
vt 0.2758875 0.9375
vt 0.25 1
vt 0.269815 0.95216375
vt 0.317649375 1
vt 0.25 0.75
vt 0.301775 0.75
vt 0.301775 1
vt 0.25 1
vt 0.29783625 1
vt 0.25 0.980185
vt 0.29783625 0.932350625
vt 0.25 1
vt 0.25 0.948225
vt 0.3125 0.9741125
vt 0.25 0.75
vt 0.301775 0.75
vt 0.301775 1
vt 0.25 1
vt 0.25 1
vt 0.25 0.948225
vt 0.3125 0.9741125
vt 0.29783625 1
vt 0.25 0.980185
vt 0.29783625 0.932350625
vt 0.25 0.75
vt 0.301775 0.75
vt 0.301775 1
vt 0.25 1
vt 0.25 1
vt 0.269815 0.95216375
vt 0.317649375 1
vt 0.301775 1
vt 0.25 1
vt 0.2758875 0.9375
vt 0.25 0.75
vt 0.301775 0.75
vt 0.301775 1
vt 0.25 1
vt 0.25 0.9375
vt 0.301775 0.9375
vt 0.2758875 1
vt 0.0234375 0.8671875
vt 0.0234375 0.890625
vt 0.021875 0.890625
vt 0.021875 0.8671875
vt 0.062890625 0.8828125
vt 0.062890625 0.884375
vt 0.019140625 0.884375
vt 0.019140625 0.8828125
vt 0.062890625 0.88125
vt 0.062890625 0.8828125
vt 0.019140625 0.8828125
vt 0.019140625 0.88125
vt 0.062890625 0.890625
vt 0.019140625 0.890625
vt 0.019140625 0.8671875
vt 0.066796875 0.890625
vt 0.023046875 0.890625
vt 0.066796875 0.8671875
vt 0.317649375 0.95216375
vt 0.297834375 1
vt 0.25 0.95216375
vt 0.25 0
vt 0.301775 0
vt 0.301775 1
vt 0.25 1
vt 0.25 0.932350625
vt 0.29783625 0.952165625
vt 0.25 1
vt 0.3125 0.948225
vt 0.3125 1
vt 0.25 0.9741125
vt 0.25 0
vt 0.301775 0
vt 0.301775 1
vt 0.25 1
vt 0.3125 0.948225
vt 0.3125 1
vt 0.25 0.9741125
vt 0.25 0.932350625
vt 0.29783625 0.952165625
vt 0.25 1
vt 0.25 0
vt 0.301775 0
vt 0.301775 1
vt 0.25 1
vt 0.317649375 0.95216375
vt 0.297834375 1
vt 0.25 0.95216375
vt 0.25 0.9375
vt 0.301775 0.9375
vt 0.2758875 1
vt 0.25 0
vt 0.301775 0
vt 0.301775 1
vt 0.25 1
vt 0.301775 1
vt 0.25 1
vt 0.2758875 0.9375
vt 0.25 1
vt 0.269815 0.95216375
vt 0.317649375 1
vt 0.25 0
vt 0.301775 0
vt 0.301775 1
vt 0.25 1
vt 0.29783625 1
vt 0.25 0.980185
vt 0.29783625 0.932350625
vt 0.25 1
vt 0.25 0.948225
vt 0.3125 0.9741125
vt 0.25 0
vt 0.301775 0
vt 0.301775 1
vt 0.25 1
vt 0.25 1
vt 0.25 0.948225
vt 0.3125 0.9741125
vt 0.29783625 1
vt 0.25 0.980185
vt 0.29783625 0.932350625
vt 0.25 0
vt 0.301775 0
vt 0.301775 1
vt 0.25 1
vt 0.25 1
vt 0.269815 0.95216375
vt 0.317649375 1
vt 0.301775 1
vt 0.25 1
vt 0.2758875 0.9375
vt 0.25 0
vt 0.301775 0
vt 0.301775 1
vt 0.25 1
vt 0.25 0.9375
vt 0.301775 0.9375
vt 0.2758875 1
vt 0.5 0.75
vt 0.5 0.8125
vt 0.4375 0.8125
vt 0.4375 0.75
vt 0.4375 0.75
vt 0.4375 0.8125
vt 0.375 0.8125
vt 0.375 0.75
vt 0.75 0.75
vt 0.75 0.8125
vt 0.375 0.8125
vt 0.375 0.75
vt 0.75 0.6875
vt 0.75 0.75
vt 0.375 0.75
vt 0.375 0.6875
vt 0.75 0.75
vt 0.75 0.8125
vt 0.375 0.8125
vt 0.375 0.75
vt 0.75 0.75
vt 0.75 0.8125
vt 0.375 0.8125
vt 0.375 0.75
vt 0.015625 0.953125
vt 0.015625 1
vt 0 1
vt 0 0.953125
vt 0.0234375 0.953125
vt 0.0234375 1
vt 0.0078125 1
vt 0.0078125 0.953125
vt 0.0890625 0.9765625
vt 0.0890625 0.9921875
vt 0.0015625 0.9921875
vt 0.0015625 0.9765625
vt 0.0890625 0.984375
vt 0.0890625 1
vt 0.0015625 1
vt 0.0015625 0.984375
vt 0.0890625 0.953125
vt 0.0890625 1
vt 0.0015625 1
vt 0.0015625 0.953125
vt 0.0890625 0.953125
vt 0.0890625 1
vt 0.0015625 1
vt 0.0015625 0.953125
vt 0.5 0.75
vt 0.5 0.8125
vt 0.4375 0.8125
vt 0.4375 0.75
vt 0.4375 0.75
vt 0.4375 0.8125
vt 0.375 0.8125
vt 0.375 0.75
vt 0.75 0.75
vt 0.75 0.8125
vt 0.375 0.8125
vt 0.375 0.75
vt 0.75 0.6875
vt 0.75 0.75
vt 0.375 0.75
vt 0.375 0.6875
vt 0.75 0.75
vt 0.75 0.8125
vt 0.375 0.8125
vt 0.375 0.75
vt 0.75 0.75
vt 0.75 0.8125
vt 0.375 0.8125
vt 0.375 0.75
vt 0.015625 0.953125
vt 0.015625 1
vt 0 1
vt 0 0.953125
vt 0.0234375 0.953125
vt 0.0234375 1
vt 0.0078125 1
vt 0.0078125 0.953125
vt 0.0890625 0.9765625
vt 0.0890625 0.9921875
vt 0.0015625 0.9921875
vt 0.0015625 0.9765625
vt 0.0890625 0.984375
vt 0.0890625 1
vt 0.0015625 1
vt 0.0015625 0.984375
vt 0.0890625 0.953125
vt 0.0890625 1
vt 0.0015625 1
vt 0.0015625 0.953125
vt 0.0890625 0.953125
vt 0.0890625 1
vt 0.0015625 1
vt 0.0015625 0.953125
vt 0.5 0.75
vt 0.5 0.8125
vt 0.4375 0.8125
vt 0.4375 0.75
vt 0.4375 0.75
vt 0.4375 0.8125
vt 0.375 0.8125
vt 0.375 0.75
vt 0.75 0.75
vt 0.75 0.8125
vt 0.375 0.8125
vt 0.375 0.75
vt 0.75 0.6875
vt 0.75 0.75
vt 0.375 0.75
vt 0.375 0.6875
vt 0.75 0.75
vt 0.75 0.8125
vt 0.375 0.8125
vt 0.375 0.75
vt 0.75 0.75
vt 0.75 0.8125
vt 0.375 0.8125
vt 0.375 0.75
vt 0.5 0.75
vt 0.5 0.8125
vt 0.4375 0.8125
vt 0.4375 0.75
vt 0.4375 0.75
vt 0.4375 0.8125
vt 0.375 0.8125
vt 0.375 0.75
vt 0.75 0.75
vt 0.75 0.8125
vt 0.375 0.8125
vt 0.375 0.75
vt 0.75 0.6875
vt 0.75 0.75
vt 0.375 0.75
vt 0.375 0.6875
vt 0.75 0.75
vt 0.75 0.8125
vt 0.375 0.8125
vt 0.375 0.75
vt 0.75 0.75
vt 0.75 0.8125
vt 0.375 0.8125
vt 0.375 0.75
vt 0.0078125 0.9375
vt 0.0078125 1
vt 0 1
vt 0 0.9375
vt 0.015625 0.9375
vt 0.015625 1
vt 0.0078125 1
vt 0.0078125 0.9375
vt 0.04375 0.984375
vt 0.04375 0.9921875
vt 0 0.9921875
vt 0 0.984375
vt 0.04375 0.9921875
vt 0.04375 1
vt 0 1
vt 0 0.9921875
vt 0.99375 0.859375
vt 0.99375 0.984375
vt 0.90625 0.984375
vt 0.90625 0.859375
vt 0.290625 0.74296875
vt 0.290625 0.99296875
vt 0.115625 0.99296875
vt 0.115625 0.74296875
vn 0 -1 0
vn 0.7071067811865476 0 0.7071067811865476
vn 0 1 0
vn 0 -1 0
vn 1 0 0
vn 0 1 0
vn 0 -1 0
vn 0.7071067811865476 0 -0.7071067811865476
vn 0 1 0
vn 0 -1 0
vn 0 0 -1
vn 0 1 0
vn 0 -1 0
vn -0.7071067811865476 0 -0.7071067811865476
vn 0 1 0
vn 0 -1 0
vn -1 0 0
vn 0 1 0
vn 0 -1 0
vn -0.7071067811865476 0 0.7071067811865476
vn 0 1 0
vn 0 -1 0
vn 0 0 1
vn 0 1 0
vn 1 1.7763568394002506e-16 0
vn -0.21785303258716998 -0.9759815859905214 0
vn -0.21785303258716998 0.9759815859905214 0
vn 0 0 1
vn 0 0 -1
vn 0 -1 0
vn 0.7071067811865476 0 0.7071067811865476
vn 0 1 0
vn 0 -1 0
vn 1 0 0
vn 0 1 0
vn 0 -1 0
vn 0.7071067811865476 0 -0.7071067811865476
vn 0 1 0
vn 0 -1 0
vn 0 0 -1
vn 0 1 0
vn 0 -1 0
vn -0.7071067811865476 0 -0.7071067811865476
vn 0 1 0
vn 0 -1 0
vn -1 0 0
vn 0 1 0
vn 0 -1 0
vn -0.7071067811865476 0 0.7071067811865476
vn 0 1 0
vn 0 -1 0
vn 0 0 1
vn 0 1 0
vn -1 0 0
vn 0.21785303258716998 0.9759815859905214 0
vn 0.21785303258716998 -0.9759815859905214 0
vn 0 0 1
vn 0 0 -1
vn 0 -1 0
vn 0.7071067811865476 0 0.7071067811865476
vn 0 1 0
vn 0 -1 0
vn 1 0 0
vn 0 1 0
vn 0 -1 0
vn 0.7071067811865476 0 -0.7071067811865476
vn 0 1 0
vn 0 -1 0
vn 0 0 -1
vn 0 1 0
vn 0 -1 0
vn -0.7071067811865476 0 -0.7071067811865476
vn 0 1 0
vn 0 -1 0
vn -1 0 0
vn 0 1 0
vn 0 -1 0
vn -0.7071067811865476 0 0.7071067811865476
vn 0 1 0
vn 0 -1 0
vn 0 0 1
vn 0 1 0
vn 1 0 0
vn -1 0 0
vn 0 1 0
vn 0 -1 0
vn 0 0 1
vn 0 0 -1
vn 1 0 0
vn -1 0 0
vn 0 1 0
vn 0 -1 0
vn 0 0 1
vn 0 0 -1
vn 1 0 0
vn -1 0 0
vn 0 1 0
vn 0 -1 0
vn 0 0 1
vn 0 0 -1
vn 1 0 0
vn -1 0 0
vn 0 1 0
vn 0 -1 0
vn 0 0 1
vn 0 0 -1
vn 1 0 0
vn -1 0 0
vn 0 1 0
vn 0 -1 0
vn 0 0 1
vn 0 0 -1
vn 1 0 0
vn -1 0 0
vn 0 1 0
vn 0 -1 0
vn 0 0 1
vn 0 0 -1
vn 1 0 0
vn -1 0 0
vn 0 1 0
vn 0 -1 0
vn 0 0 1
vn 0 0 -1
usemtl m_16830594-a67c-fbd7-af60-7f51c1d503f8
f 5/1/1 3/2/1 1/3/1
f 3/4/2 5/5/2 6/6/2 4/7/2
f 4/8/3 6/9/3 2/10/3
f 7/11/4 5/12/4 1/13/4
f 5/14/5 7/15/5 8/16/5 6/17/5
f 6/18/6 8/19/6 2/20/6
f 9/21/7 7/22/7 1/23/7
f 7/24/8 9/25/8 10/26/8 8/27/8
f 8/28/9 10/29/9 2/30/9
f 11/31/10 9/32/10 1/33/10
f 9/34/11 11/35/11 12/36/11 10/37/11
f 10/38/12 12/39/12 2/40/12
f 13/41/13 11/42/13 1/43/13
f 11/44/14 13/45/14 14/46/14 12/47/14
f 12/48/15 14/49/15 2/50/15
f 15/51/16 13/52/16 1/53/16
f 13/54/17 15/55/17 16/56/17 14/57/17
f 14/58/18 16/59/18 2/60/18
f 17/61/19 15/62/19 1/63/19
f 15/64/20 17/65/20 18/66/20 16/67/20
f 16/68/21 18/69/21 2/70/21
f 3/71/22 17/72/22 1/73/22
f 17/74/23 3/75/23 4/76/23 18/77/23
f 18/78/24 4/79/24 2/80/24
usemtl m_057dd141-44a2-0c03-6f69-6165d6f9e1a2
f 23/81/25 21/82/25 22/83/25 24/84/25
f 19/85/26 20/86/26 22/87/26 21/88/26
f 20/89/27 19/90/27 23/91/27 24/92/27
f 19/93/28 21/94/28 23/95/28
f 22/96/29 20/97/29 24/98/29
usemtl m_16830594-a67c-fbd7-af60-7f51c1d503f8
f 29/99/30 27/100/30 25/101/30
f 27/102/31 29/103/31 30/104/31 28/105/31
f 28/106/32 30/107/32 26/108/32
f 31/109/33 29/110/33 25/111/33
f 29/112/34 31/113/34 32/114/34 30/115/34
f 30/116/35 32/117/35 26/118/35
f 33/119/36 31/120/36 25/121/36
f 31/122/37 33/123/37 34/124/37 32/125/37
f 32/126/38 34/127/38 26/128/38
f 35/129/39 33/130/39 25/131/39
f 33/132/40 35/133/40 36/134/40 34/135/40
f 34/136/41 36/137/41 26/138/41
f 37/139/42 35/140/42 25/141/42
f 35/142/43 37/143/43 38/144/43 36/145/43
f 36/146/44 38/147/44 26/148/44
f 39/149/45 37/150/45 25/151/45
f 37/152/46 39/153/46 40/154/46 38/155/46
f 38/156/47 40/157/47 26/158/47
f 41/159/48 39/160/48 25/161/48
f 39/162/49 41/163/49 42/164/49 40/165/49
f 40/166/50 42/167/50 26/168/50
f 27/169/51 41/170/51 25/171/51
f 41/172/52 27/173/52 28/174/52 42/175/52
f 42/176/53 28/177/53 26/178/53
usemtl m_057dd141-44a2-0c03-6f69-6165d6f9e1a2
f 47/179/54 45/180/54 46/181/54 48/182/54
f 43/183/55 44/184/55 46/185/55 45/186/55
f 44/187/56 43/188/56 47/189/56 48/190/56
f 43/191/57 45/192/57 47/193/57
f 46/194/58 44/195/58 48/196/58
usemtl m_16830594-a67c-fbd7-af60-7f51c1d503f8
f 53/197/59 51/198/59 49/199/59
f 51/200/60 53/201/60 54/202/60 52/203/60
f 52/204/61 54/205/61 50/206/61
f 55/207/62 53/208/62 49/209/62
f 53/210/63 55/211/63 56/212/63 54/213/63
f 54/214/64 56/215/64 50/216/64
f 57/217/65 55/218/65 49/219/65
f 55/220/66 57/221/66 58/222/66 56/223/66
f 56/224/67 58/225/67 50/226/67
f 59/227/68 57/228/68 49/229/68
f 57/230/69 59/231/69 60/232/69 58/233/69
f 58/234/70 60/235/70 50/236/70
f 61/237/71 59/238/71 49/239/71
f 59/240/72 61/241/72 62/242/72 60/243/72
f 60/244/73 62/245/73 50/246/73
f 63/247/74 61/248/74 49/249/74
f 61/250/75 63/251/75 64/252/75 62/253/75
f 62/254/76 64/255/76 50/256/76
f 65/257/77 63/258/77 49/259/77
f 63/260/78 65/261/78 66/262/78 64/263/78
f 64/264/79 66/265/79 50/266/79
f 51/267/80 65/268/80 49/269/80
f 65/270/81 51/271/81 52/272/81 66/273/81
f 66/274/82 52/275/82 50/276/82
f 70/277/83 68/278/83 67/279/83 69/280/83
f 73/281/84 71/282/84 72/283/84 74/284/84
f 67/285/85 68/286/85 72/287/85 71/288/85
f 70/289/86 69/290/86 73/291/86 74/292/86
f 69/293/87 67/294/87 71/295/87 73/296/87
f 74/297/88 72/298/88 68/299/88 70/300/88
usemtl m_057dd141-44a2-0c03-6f69-6165d6f9e1a2
f 78/301/89 76/302/89 75/303/89 77/304/89
f 81/305/90 79/306/90 80/307/90 82/308/90
f 75/309/91 76/310/91 80/311/91 79/312/91
f 78/313/92 77/314/92 81/315/92 82/316/92
f 77/317/93 75/318/93 79/319/93 81/320/93
f 82/321/94 80/322/94 76/323/94 78/324/94
usemtl m_16830594-a67c-fbd7-af60-7f51c1d503f8
f 86/325/95 84/326/95 83/327/95 85/328/95
f 89/329/96 87/330/96 88/331/96 90/332/96
f 83/333/97 84/334/97 88/335/97 87/336/97
f 86/337/98 85/338/98 89/339/98 90/340/98
f 85/341/99 83/342/99 87/343/99 89/344/99
f 90/345/100 88/346/100 84/347/100 86/348/100
usemtl m_057dd141-44a2-0c03-6f69-6165d6f9e1a2
f 94/349/101 92/350/101 91/351/101 93/352/101
f 97/353/102 95/354/102 96/355/102 98/356/102
f 91/357/103 92/358/103 96/359/103 95/360/103
f 94/361/104 93/362/104 97/363/104 98/364/104
f 93/365/105 91/366/105 95/367/105 97/368/105
f 98/369/106 96/370/106 92/371/106 94/372/106
usemtl m_16830594-a67c-fbd7-af60-7f51c1d503f8
f 102/373/107 100/374/107 99/375/107 101/376/107
f 105/377/108 103/378/108 104/379/108 106/380/108
f 99/381/109 100/382/109 104/383/109 103/384/109
f 102/385/110 101/386/110 105/387/110 106/388/110
f 101/389/111 99/390/111 103/391/111 105/392/111
f 106/393/112 104/394/112 100/395/112 102/396/112
f 110/397/113 108/398/113 107/399/113 109/400/113
f 113/401/114 111/402/114 112/403/114 114/404/114
f 107/405/115 108/406/115 112/407/115 111/408/115
f 110/409/116 109/410/116 113/411/116 114/412/116
f 109/413/117 107/414/117 111/415/117 113/416/117
f 114/417/118 112/418/118 108/419/118 110/420/118
usemtl m_057dd141-44a2-0c03-6f69-6165d6f9e1a2
f 118/421/119 116/422/119 115/423/119 117/424/119
f 121/425/120 119/426/120 120/427/120 122/428/120
f 115/429/121 116/430/121 120/431/121 119/432/121
f 118/433/122 117/434/122 121/435/122 122/436/122
f 117/437/123 115/438/123 119/439/123 121/440/123
f 122/441/124 120/442/124 116/443/124 118/444/124