# Made in Blockbench 5.1.6
mtllib ne_5_west_both.mtl

o cylinder
v 0 0 0
v 0 1 0
v 0.025888125 0 0.0625
v 0.025888125 1 0.0625
v 0.0625 0 0.025888125
v 0.0625 1 0.025888125
v 0.0625 0 -0.025888125
v 0.0625 1 -0.025888125
v 0.025888125 0 -0.0625
v 0.025888125 1 -0.0625
v -0.025888125 0 -0.0625
v -0.025888125 1 -0.0625
v -0.0625 0 -0.025888125
v -0.0625 1 -0.025888125
v -0.0625 0 0.025888125
v -0.0625 1 0.025888125
v -0.025888125 0 0.0625
v -0.025888125 1 0.0625
vt 0.317649375 0.95216375
vt 0.297834375 1
vt 0.25 0.95216375
vt 0.25 0
vt 0.301775 0
vt 0.301775 1
vt 0.25 1
vt 0.25 0.932350625
vt 0.29783625 0.952165625
vt 0.25 1
vt 0.3125 0.948225
vt 0.3125 1
vt 0.25 0.9741125
vt 0.25 0
vt 0.301775 0
vt 0.301775 1
vt 0.25 1
vt 0.3125 0.948225
vt 0.3125 1
vt 0.25 0.9741125
vt 0.25 0.932350625
vt 0.29783625 0.952165625
vt 0.25 1
vt 0.25 0
vt 0.301775 0
vt 0.301775 1
vt 0.25 1
vt 0.317649375 0.95216375
vt 0.297834375 1
vt 0.25 0.95216375
vt 0.25 0.9375
vt 0.301775 0.9375
vt 0.2758875 1
vt 0.25 0
vt 0.301775 0
vt 0.301775 1
vt 0.25 1
vt 0.301775 1
vt 0.25 1
vt 0.2758875 0.9375
vt 0.25 1
vt 0.269815 0.95216375
vt 0.317649375 1
vt 0.25 0
vt 0.301775 0
vt 0.301775 1
vt 0.25 1
vt 0.29783625 1
vt 0.25 0.980185
vt 0.29783625 0.932350625
vt 0.25 1
vt 0.25 0.948225
vt 0.3125 0.9741125
vt 0.25 0
vt 0.301775 0
vt 0.301775 1
vt 0.25 1
vt 0.25 1
vt 0.25 0.948225
vt 0.3125 0.9741125
vt 0.29783625 1
vt 0.25 0.980185
vt 0.29783625 0.932350625
vt 0.25 0
vt 0.301775 0
vt 0.301775 1
vt 0.25 1
vt 0.25 1
vt 0.269815 0.95216375
vt 0.317649375 1
vt 0.301775 1
vt 0.25 1
vt 0.2758875 0.9375
vt 0.25 0
vt 0.301775 0
vt 0.301775 1
vt 0.25 1
vt 0.25 0.9375
vt 0.301775 0.9375
vt 0.2758875 1
vn 0 -1 0
vn 0.7071067811865476 0 0.7071067811865476
vn 0 1 0
vn 0 -1 0
vn 1 0 0
vn 0 1 0
vn 0 -1 0
vn 0.7071067811865476 0 -0.7071067811865476
vn 0 1 0
vn 0 -1 0
vn 0 0 -1
vn 0 1 0
vn 0 -1 0
vn -0.7071067811865476 0 -0.7071067811865476
vn 0 1 0
vn 0 -1 0
vn -1 0 0
vn 0 1 0
vn 0 -1 0
vn -0.7071067811865476 0 0.7071067811865476
vn 0 1 0
vn 0 -1 0
vn 0 0 1
vn 0 1 0
usemtl m_16830594-a67c-fbd7-af60-7f51c1d503f8
f 5/1/1 3/2/1 1/3/1
f 3/4/2 5/5/2 6/6/2 4/7/2
f 4/8/3 6/9/3 2/10/3
f 7/11/4 5/12/4 1/13/4
f 5/14/5 7/15/5 8/16/5 6/17/5
f 6/18/6 8/19/6 2/20/6
f 9/21/7 7/22/7 1/23/7
f 7/24/8 9/25/8 10/26/8 8/27/8
f 8/28/9 10/29/9 2/30/9
f 11/31/10 9/32/10 1/33/10
f 9/34/11 11/35/11 12/36/11 10/37/11
f 10/38/12 12/39/12 2/40/12
f 13/41/13 11/42/13 1/43/13
f 11/44/14 13/45/14 14/46/14 12/47/14
f 12/48/15 14/49/15 2/50/15
f 15/51/16 13/52/16 1/53/16
f 13/54/17 15/55/17 16/56/17 14/57/17
f 14/58/18 16/59/18 2/60/18
f 17/61/19 15/62/19 1/63/19
f 15/64/20 17/65/20 18/66/20 16/67/20
f 16/68/21 18/69/21 2/70/21
f 3/71/22 17/72/22 1/73/22
f 17/74/23 3/75/23 4/76/23 18/77/23
f 18/78/24 4/79/24 2/80/24
o cylinder
v 0 1 0
v 0 2 0
v 0.025888125 1 0.0625
v 0.025888125 2 0.0625
v 0.0625 1 0.025888125
v 0.0625 2 0.025888125
v 0.0625 1 -0.025888125
v 0.0625 2 -0.025888125
v 0.025888125 1 -0.0625
v 0.025888125 2 -0.0625
v -0.025888125 1 -0.0625
v -0.025888125 2 -0.0625
v -0.0625 1 -0.025888125
v -0.0625 2 -0.025888125
v -0.0625 1 0.025888125
v -0.0625 2 0.025888125
v -0.025888125 1 0.0625
v -0.025888125 2 0.0625
vt 0.317649375 0.95216375
vt 0.297834375 1
vt 0.25 0.95216375
vt 0.25 0
vt 0.301775 0
vt 0.301775 1
vt 0.25 1
vt 0.25 0.932350625
vt 0.29783625 0.952165625
vt 0.25 1
vt 0.3125 0.948225
vt 0.3125 1
vt 0.25 0.9741125
vt 0.25 0
vt 0.301775 0
vt 0.301775 1
vt 0.25 1
vt 0.3125 0.948225
vt 0.3125 1
vt 0.25 0.9741125
vt 0.25 0.932350625
vt 0.29783625 0.952165625
vt 0.25 1
vt 0.25 0
vt 0.301775 0
vt 0.301775 1
vt 0.25 1
vt 0.317649375 0.95216375
vt 0.297834375 1
vt 0.25 0.95216375
vt 0.25 0.9375
vt 0.301775 0.9375
vt 0.2758875 1
vt 0.25 0
vt 0.301775 0
vt 0.301775 1
vt 0.25 1
vt 0.301775 1
vt 0.25 1
vt 0.2758875 0.9375
vt 0.25 1
vt 0.269815 0.95216375
vt 0.317649375 1
vt 0.25 0
vt 0.301775 0
vt 0.301775 1
vt 0.25 1
vt 0.29783625 1
vt 0.25 0.980185
vt 0.29783625 0.932350625
vt 0.25 1
vt 0.25 0.948225
vt 0.3125 0.9741125
vt 0.25 0
vt 0.301775 0
vt 0.301775 1
vt 0.25 1
vt 0.25 1
vt 0.25 0.948225
vt 0.3125 0.9741125
vt 0.29783625 1
vt 0.25 0.980185
vt 0.29783625 0.932350625
vt 0.25 0
vt 0.301775 0
vt 0.301775 1
vt 0.25 1
vt 0.25 1
vt 0.269815 0.95216375
vt 0.317649375 1
vt 0.301775 1
vt 0.25 1
vt 0.2758875 0.9375
vt 0.25 0
vt 0.301775 0
vt 0.301775 1
vt 0.25 1
vt 0.25 0.9375
vt 0.301775 0.9375
vt 0.2758875 1
vn 0 -1 0
vn 0.7071067811865476 0 0.7071067811865476
vn 0 1 0
vn 0 -1 0
vn 1 0 0
vn 0 1 0
vn 0 -1 0
vn 0.7071067811865476 0 -0.7071067811865476
vn 0 1 0
vn 0 -1 0
vn 0 0 -1
vn 0 1 0
vn 0 -1 0
vn -0.7071067811865476 0 -0.7071067811865476
vn 0 1 0
vn 0 -1 0
vn -1 0 0
vn 0 1 0
vn 0 -1 0
vn -0.7071067811865476 0 0.7071067811865476
vn 0 1 0
vn 0 -1 0
vn 0 0 1
vn 0 1 0
usemtl m_16830594-a67c-fbd7-af60-7f51c1d503f8
f 23/81/25 21/82/25 19/83/25
f 21/84/26 23/85/26 24/86/26 22/87/26
f 22/88/27 24/89/27 20/90/27
f 25/91/28 23/92/28 19/93/28
f 23/94/29 25/95/29 26/96/29 24/97/29
f 24/98/30 26/99/30 20/100/30
f 27/101/31 25/102/31 19/103/31
f 25/104/32 27/105/32 28/106/32 26/107/32
f 26/108/33 28/109/33 20/110/33
f 29/111/34 27/112/34 19/113/34
f 27/114/35 29/115/35 30/116/35 28/117/35
f 28/118/36 30/119/36 20/120/36
f 31/121/37 29/122/37 19/123/37
f 29/124/38 31/125/38 32/126/38 30/127/38
f 30/128/39 32/129/39 20/130/39
f 33/131/40 31/132/40 19/133/40
f 31/134/41 33/135/41 34/136/41 32/137/41
f 32/138/42 34/139/42 20/140/42
f 35/141/43 33/142/43 19/143/43
f 33/144/44 35/145/44 36/146/44 34/147/44
f 34/148/45 36/149/45 20/150/45
f 21/151/46 35/152/46 19/153/46
f 35/154/47 21/155/47 22/156/47 36/157/47
f 36/158/48 22/159/48 20/160/48
o cube
v 0.171875 1.99375 0
v 0.171875 1.99375 -0.0625
v 0.171875 1.93125 0
v 0.171875 1.93125 -0.0625
v -0.171875 1.99375 -0.0625
v -0.171875 1.99375 0
v -0.171875 1.93125 -0.0625
v -0.171875 1.93125 0
vt 0.375 0.8125
vt 0.75 0.8125
vt 0.75 0.75
vt 0.375 0.75
vt 0.4375 0.8125
vt 0.5 0.8125
vt 0.5 0.75
vt 0.4375 0.75
vt 0.375 0.8125
vt 0.75 0.8125
vt 0.75 0.75
vt 0.375 0.75
vt 0.375 0.8125
vt 0.4375 0.8125
vt 0.4375 0.75
vt 0.375 0.75
vt 0.375 0.8125
vt 0.75 0.8125
vt 0.75 0.75
vt 0.375 0.75
vt 0.375 0.75
vt 0.75 0.75
vt 0.75 0.6875
vt 0.375 0.6875
vn 0 0 -1
vn 1 0 0
vn 0 0 1
vn -1 0 0
vn 0 1 0
vn 0 -1 0
usemtl m_16830594-a67c-fbd7-af60-7f51c1d503f8
f 40/164/49 43/163/49 41/162/49 38/161/49
f 39/168/50 40/167/50 38/166/50 37/165/50
f 44/172/51 39/171/51 37/170/51 42/169/51
f 43/176/52 44/175/52 42/174/52 41/173/52
f 42/180/53 37/179/53 38/178/53 41/177/53
f 43/184/54 40/183/54 39/182/54 44/181/54
o cube
v 0.171875 1.6875 0
v 0.171875 1.6875 -0.0625
v 0.171875 1.625 0
v 0.171875 1.625 -0.0625
v -0.171875 1.6875 -0.0625
v -0.171875 1.6875 0
v -0.171875 1.625 -0.0625
v -0.171875 1.625 0
vt 0.375 0.8125
vt 0.75 0.8125
vt 0.75 0.75
vt 0.375 0.75
vt 0.4375 0.8125
vt 0.5 0.8125
vt 0.5 0.75
vt 0.4375 0.75
vt 0.375 0.8125
vt 0.75 0.8125
vt 0.75 0.75
vt 0.375 0.75
vt 0.375 0.8125
vt 0.4375 0.8125
vt 0.4375 0.75
vt 0.375 0.75
vt 0.375 0.8125
vt 0.75 0.8125
vt 0.75 0.75
vt 0.375 0.75
vt 0.375 0.75
vt 0.75 0.75
vt 0.75 0.6875
vt 0.375 0.6875
vn 0 0 -1
vn 1 0 0
vn 0 0 1
vn -1 0 0
vn 0 1 0
vn 0 -1 0
usemtl m_16830594-a67c-fbd7-af60-7f51c1d503f8
f 48/188/55 51/187/55 49/186/55 46/185/55
f 47/192/56 48/191/56 46/190/56 45/189/56
f 52/196/57 47/195/57 45/194/57 50/193/57
f 51/200/58 52/199/58 50/198/58 49/197/58
f 50/204/59 45/203/59 46/202/59 49/201/59
f 51/208/60 48/207/60 47/206/60 52/205/60
o cube
v 0.175 2.0625 -0.0625
v 0.175 2.0625 -0.125
v 0.175 1.5625 -0.0625
v 0.175 1.5625 -0.125
v -0.175 2.0625 -0.125
v -0.175 2.0625 -0.0625
v -0.175 1.5625 -0.125
v -0.175 1.5625 -0.0625
vt 0.115625 0.99296875
vt 0.290625 0.99296875
vt 0.290625 0.74296875
vt 0.115625 0.74296875
vt 0 1
vt 0.0078125 1
vt 0.0078125 0.9375
vt 0 0.9375
vt 0.90625 0.984375
vt 0.99375 0.984375
vt 0.99375 0.859375
vt 0.90625 0.859375
vt 0.0078125 1
vt 0.015625 1
vt 0.015625 0.9375
vt 0.0078125 0.9375
vt 0 0.9921875
vt 0.04375 0.9921875
vt 0.04375 0.984375
vt 0 0.984375
vt 0 1
vt 0.04375 1
vt 0.04375 0.9921875
vt 0 0.9921875
vn 0 0 -1
vn 1 0 0
vn 0 0 1
vn -1 0 0
vn 0 1 0
vn 0 -1 0
usemtl m_057dd141-44a2-0c03-6f69-6165d6f9e1a2
f 56/212/61 59/211/61 57/210/61 54/209/61
f 55/216/62 56/215/62 54/214/62 53/213/62
f 60/220/63 55/219/63 53/218/63 58/217/63
f 59/224/64 60/223/64 58/222/64 57/221/64
f 58/228/65 53/227/65 54/226/65 57/225/65
f 59/232/66 56/231/66 55/230/66 60/229/66
o cylinder
v 0 2.25 0
v 0 2.4375 0
v 0.025888125 2.25 0.0625
v 0.025888125 2.4375 0.0625
v 0.0625 2.25 0.025888125
v 0.0625 2.4375 0.025888125
v 0.0625 2.25 -0.025888125
v 0.0625 2.4375 -0.025888125
v 0.025888125 2.25 -0.0625
v 0.025888125 2.4375 -0.0625
v -0.025888125 2.25 -0.0625
v -0.025888125 2.4375 -0.0625
v -0.0625 2.25 -0.025888125
v -0.0625 2.4375 -0.025888125
v -0.0625 2.25 0.025888125
v -0.0625 2.4375 0.025888125
v -0.025888125 2.25 0.0625
v -0.025888125 2.4375 0.0625
vt 0.317649375 0.95216375
vt 0.297834375 1
vt 0.25 0.95216375
vt 0.25 0.78125
vt 0.301775 0.78125
vt 0.301775 1
vt 0.25 1
vt 0.25 0.932350625
vt 0.29783625 0.952165625
vt 0.25 1
vt 0.3125 0.948225
vt 0.3125 1
vt 0.25 0.9741125
vt 0.25 0.78125
vt 0.301775 0.78125
vt 0.301775 1
vt 0.25 1
vt 0.3125 0.948225
vt 0.3125 1
vt 0.25 0.9741125
vt 0.25 0.932350625
vt 0.29783625 0.952165625
vt 0.25 1
vt 0.25 0.78125
vt 0.301775 0.78125
vt 0.301775 1
vt 0.25 1
vt 0.317649375 0.95216375
vt 0.297834375 1
vt 0.25 0.95216375
vt 0.25 0.9375
vt 0.301775 0.9375
vt 0.2758875 1
vt 0.25 0.78125
vt 0.301775 0.78125
vt 0.301775 1
vt 0.25 1
vt 0.301775 1
vt 0.25 1
vt 0.2758875 0.9375
vt 0.25 1
vt 0.269815 0.95216375
vt 0.317649375 1
vt 0.25 0.78125
vt 0.301775 0.78125
vt 0.301775 1
vt 0.25 1
vt 0.29783625 1
vt 0.25 0.980185
vt 0.29783625 0.932350625
vt 0.25 1
vt 0.25 0.948225
vt 0.3125 0.9741125
vt 0.25 0.78125
vt 0.301775 0.78125
vt 0.301775 1
vt 0.25 1
vt 0.25 1
vt 0.25 0.948225
vt 0.3125 0.9741125
vt 0.29783625 1
vt 0.25 0.980185
vt 0.29783625 0.932350625
vt 0.25 0.78125
vt 0.301775 0.78125
vt 0.301775 1
vt 0.25 1
vt 0.25 1
vt 0.269815 0.95216375
vt 0.317649375 1
vt 0.301775 1
vt 0.25 1
vt 0.2758875 0.9375
vt 0.25 0.78125
vt 0.301775 0.78125
vt 0.301775 1
vt 0.25 1
vt 0.25 0.9375
vt 0.301775 0.9375
vt 0.2758875 1
vn 0 -1 0
vn 0.7071067811865476 0 0.7071067811865476
vn 0 1 0
vn 0 -1 0
vn 1 0 0
vn 0 1 0
vn 0 -1 0
vn 0.7071067811865476 0 -0.7071067811865476
vn 0 1 0
vn 0 -1 0
vn 0 0 -1
vn 0 1 0
vn 0 -1 0
vn -0.7071067811865476 0 -0.7071067811865476
vn 0 1 0
vn 0 -1 0
vn -1 0 0
vn 0 1 0
vn 0 -1 0
vn -0.7071067811865476 0 0.7071067811865476
vn 0 1 0
vn 0 -1 0
vn 0 0 1
vn 0 1 0
usemtl m_16830594-a67c-fbd7-af60-7f51c1d503f8
f 65/233/67 63/234/67 61/235/67
f 63/236/68 65/237/68 66/238/68 64/239/68
f 64/240/69 66/241/69 62/242/69
f 67/243/70 65/244/70 61/245/70
f 65/246/71 67/247/71 68/248/71 66/249/71
f 66/250/72 68/251/72 62/252/72
f 69/253/73 67/254/73 61/255/73
f 67/256/74 69/257/74 70/258/74 68/259/74
f 68/260/75 70/261/75 62/262/75
f 71/263/76 69/264/76 61/265/76
f 69/266/77 71/267/77 72/268/77 70/269/77
f 70/270/78 72/271/78 62/272/78
f 73/273/79 71/274/79 61/275/79
f 71/276/80 73/277/80 74/278/80 72/279/80
f 72/280/81 74/281/81 62/282/81
f 75/283/82 73/284/82 61/285/82
f 73/286/83 75/287/83 76/288/83 74/289/83
f 74/290/84 76/291/84 62/292/84
f 77/293/85 75/294/85 61/295/85
f 75/296/86 77/297/86 78/298/86 76/299/86
f 76/300/87 78/301/87 62/302/87
f 63/303/88 77/304/88 61/305/88
f 77/306/89 63/307/89 64/308/89 78/309/89
f 78/310/90 64/311/90 62/312/90
o cube
v 0.125 2.4 0
v 0.125 2.4 -0.0625
v 0.125 2.3375 0
v 0.125 2.3375 -0.0625
v -0.125 2.4 -0.0625
v -0.125 2.4 0
v -0.125 2.3375 -0.0625
v -0.125 2.3375 0
vt 0.375 0.8125
vt 0.75 0.8125
vt 0.75 0.75
vt 0.375 0.75
vt 0.4375 0.8125
vt 0.5 0.8125
vt 0.5 0.75
vt 0.4375 0.75
vt 0.375 0.8125
vt 0.75 0.8125
vt 0.75 0.75
vt 0.375 0.75
vt 0.375 0.8125
vt 0.4375 0.8125
vt 0.4375 0.75
vt 0.375 0.75
vt 0.375 0.8125
vt 0.75 0.8125
vt 0.75 0.75
vt 0.375 0.75
vt 0.375 0.75
vt 0.75 0.75
vt 0.75 0.6875
vt 0.375 0.6875
vn 0 0 -1
vn 1 0 0
vn 0 0 1
vn -1 0 0
vn 0 1 0
vn 0 -1 0
usemtl m_16830594-a67c-fbd7-af60-7f51c1d503f8
f 82/316/91 85/315/91 83/314/91 80/313/91
f 81/320/92 82/319/92 80/318/92 79/317/92
f 86/324/93 81/323/93 79/322/93 84/321/93
f 85/328/94 86/327/94 84/326/94 83/325/94
f 84/332/95 79/331/95 80/330/95 83/329/95
f 85/336/96 82/335/96 81/334/96 86/333/96
o cube
v 0.175 2.265625 -0.0625
v 0.175 2.265625 -0.125
v 0.175 2.078125 -0.0625
v 0.175 2.078125 -0.125
v -0.175 2.265625 -0.125
v -0.175 2.265625 -0.0625
v -0.175 2.078125 -0.125
v -0.175 2.078125 -0.0625
vt 0.0015625 1
vt 0.0890625 1
vt 0.0890625 0.953125
vt 0.0015625 0.953125
vt 0 1
vt 0.015625 1
vt 0.015625 0.953125
vt 0 0.953125
vt 0.0015625 1
vt 0.0890625 1
vt 0.0890625 0.953125
vt 0.0015625 0.953125
vt 0.0078125 1
vt 0.0234375 1
vt 0.0234375 0.953125
vt 0.0078125 0.953125
vt 0.0015625 0.9921875
vt 0.0890625 0.9921875
vt 0.0890625 0.9765625
vt 0.0015625 0.9765625
vt 0.0015625 1
vt 0.0890625 1
vt 0.0890625 0.984375
vt 0.0015625 0.984375
vn 0 0 -1
vn 1 0 0
vn 0 0 1
vn -1 0 0
vn 0 1 0
vn 0 -1 0
usemtl m_057dd141-44a2-0c03-6f69-6165d6f9e1a2
f 90/340/97 93/339/97 91/338/97 88/337/97
f 89/344/98 90/343/98 88/342/98 87/341/98
f 94/348/99 89/347/99 87/346/99 92/345/99
f 93/352/100 94/351/100 92/350/100 91/349/100
f 92/356/101 87/355/101 88/354/101 91/353/101
f 93/360/102 90/359/102 89/358/102 94/357/102
o cube
v -0.175 2.171875 -0.125
v -0.175 2.171875 -0.1375
v 0.17500000000000002 2.09375 -0.125
v 0.17500000000000002 2.09375 -0.1375
v 0.175 2.25 -0.125
v 0.175 2.25 -0.1375
vt 0.1796875 0.9453125
vt 0.1796875 0.96875
vt 0.178125 0.96875
vt 0.178125 0.9453125
vt 0.219140625 0.9609375
vt 0.219140625 0.9625
vt 0.175390625 0.9625
vt 0.175390625 0.9609375
vt 0.219140625 0.959375
vt 0.219140625 0.9609375
vt 0.175390625 0.9609375
vt 0.175390625 0.959375
vt 0.219140625 0.96875
vt 0.175390625 0.96875
vt 0.175390625 0.9453125
vt 0.223046875 0.96875
vt 0.179296875 0.96875
vt 0.223046875 0.9453125
vn 1 1.2246467991473532e-16 0
vn -0.21785303258716987 -0.9759815859905214 0
vn -0.2178530325871701 0.9759815859905214 0
vn 0 0 1
vn 0 0 -1
usemtl m_057dd141-44a2-0c03-6f69-6165d6f9e1a2
f 99/361/103 97/362/103 98/363/103 100/364/103
f 95/365/104 96/366/104 98/367/104 97/368/104
f 96/369/105 95/370/105 99/371/105 100/372/105
f 95/373/106 97/374/106 99/375/106
f 98/376/107 96/377/107 100/378/107
o cylinder
v 0 2 0
v 0 2.25 0
v 0.025888125 2 0.0625
v 0.025888125 2.25 0.0625
v 0.0625 2 0.025888125
v 0.0625 2.25 0.025888125
v 0.0625 2 -0.025888125
v 0.0625 2.25 -0.025888125
v 0.025888125 2 -0.0625
v 0.025888125 2.25 -0.0625
v -0.025888125 2 -0.0625
v -0.025888125 2.25 -0.0625
v -0.0625 2 -0.025888125
v -0.0625 2.25 -0.025888125
v -0.0625 2 0.025888125
v -0.0625 2.25 0.025888125
v -0.025888125 2 0.0625
v -0.025888125 2.25 0.0625
vt 0.317649375 0.95216375
vt 0.297834375 1
vt 0.25 0.95216375
vt 0.25 0.75
vt 0.301775 0.75
vt 0.301775 1
vt 0.25 1
vt 0.25 0.932350625
vt 0.29783625 0.952165625
vt 0.25 1
vt 0.3125 0.948225
vt 0.3125 1
vt 0.25 0.9741125
vt 0.25 0.75
vt 0.301775 0.75
vt 0.301775 1
vt 0.25 1
vt 0.3125 0.948225
vt 0.3125 1
vt 0.25 0.9741125
vt 0.25 0.932350625
vt 0.29783625 0.952165625
vt 0.25 1
vt 0.25 0.75
vt 0.301775 0.75
vt 0.301775 1
vt 0.25 1
vt 0.317649375 0.95216375
vt 0.297834375 1
vt 0.25 0.95216375
vt 0.25 0.9375
vt 0.301775 0.9375
vt 0.2758875 1
vt 0.25 0.75
vt 0.301775 0.75
vt 0.301775 1
vt 0.25 1
vt 0.301775 1
vt 0.25 1
vt 0.2758875 0.9375
vt 0.25 1
vt 0.269815 0.95216375
vt 0.317649375 1
vt 0.25 0.75
vt 0.301775 0.75
vt 0.301775 1
vt 0.25 1
vt 0.29783625 1
vt 0.25 0.980185
vt 0.29783625 0.932350625
vt 0.25 1
vt 0.25 0.948225
vt 0.3125 0.9741125
vt 0.25 0.75
vt 0.301775 0.75
vt 0.301775 1
vt 0.25 1
vt 0.25 1
vt 0.25 0.948225
vt 0.3125 0.9741125
vt 0.29783625 1
vt 0.25 0.980185
vt 0.29783625 0.932350625
vt 0.25 0.75
vt 0.301775 0.75
vt 0.301775 1
vt 0.25 1
vt 0.25 1
vt 0.269815 0.95216375
vt 0.317649375 1
vt 0.301775 1
vt 0.25 1
vt 0.2758875 0.9375
vt 0.25 0.75
vt 0.301775 0.75
vt 0.301775 1
vt 0.25 1
vt 0.25 0.9375
vt 0.301775 0.9375
vt 0.2758875 1
vn 0 -1 0
vn 0.7071067811865476 0 0.7071067811865476
vn 0 1 0
vn 0 -1 0
vn 1 0 0
vn 0 1 0
vn 0 -1 0
vn 0.7071067811865476 0 -0.7071067811865476
vn 0 1 0
vn 0 -1 0
vn 0 0 -1
vn 0 1 0
vn 0 -1 0
vn -0.7071067811865476 0 -0.7071067811865476
vn 0 1 0
vn 0 -1 0
vn -1 0 0
vn 0 1 0
vn 0 -1 0
vn -0.7071067811865476 0 0.7071067811865476
vn 0 1 0
vn 0 -1 0
vn 0 0 1
vn 0 1 0
usemtl m_16830594-a67c-fbd7-af60-7f51c1d503f8
f 105/379/108 103/380/108 101/381/108
f 103/382/109 105/383/109 106/384/109 104/385/109
f 104/386/110 106/387/110 102/388/110
f 107/389/111 105/390/111 101/391/111
f 105/392/112 107/393/112 108/394/112 106/395/112
f 106/396/113 108/397/113 102/398/113
f 109/399/114 107/400/114 101/401/114
f 107/402/115 109/403/115 110/404/115 108/405/115
f 108/406/116 110/407/116 102/408/116
f 111/409/117 109/410/117 101/411/117
f 109/412/118 111/413/118 112/414/118 110/415/118
f 110/416/119 112/417/119 102/418/119
f 113/419/120 111/420/120 101/421/120
f 111/422/121 113/423/121 114/424/121 112/425/121
f 112/426/122 114/427/122 102/428/122
f 115/429/123 113/430/123 101/431/123
f 113/432/124 115/433/124 116/434/124 114/435/124
f 114/436/125 116/437/125 102/438/125
f 117/439/126 115/440/126 101/441/126
f 115/442/127 117/443/127 118/444/127 116/445/127
f 116/446/128 118/447/128 102/448/128
f 103/449/129 117/450/129 101/451/129
f 117/452/130 103/453/130 104/454/130 118/455/130
f 118/456/131 104/457/131 102/458/131
o cube
v 0.125 2.196875 0
v 0.125 2.196875 -0.0625
v 0.125 2.134375 0
v 0.125 2.134375 -0.0625
v -0.125 2.196875 -0.0625
v -0.125 2.196875 0
v -0.125 2.134375 -0.0625
v -0.125 2.134375 0
vt 0.375 0.8125
vt 0.75 0.8125
vt 0.75 0.75
vt 0.375 0.75
vt 0.4375 0.8125
vt 0.5 0.8125
vt 0.5 0.75
vt 0.4375 0.75
vt 0.375 0.8125
vt 0.75 0.8125
vt 0.75 0.75
vt 0.375 0.75
vt 0.375 0.8125
vt 0.4375 0.8125
vt 0.4375 0.75
vt 0.375 0.75
vt 0.375 0.8125
vt 0.75 0.8125
vt 0.75 0.75
vt 0.375 0.75
vt 0.375 0.75
vt 0.75 0.75
vt 0.75 0.6875
vt 0.375 0.6875
vn 0 0 -1
vn 1 0 0
vn 0 0 1
vn -1 0 0
vn 0 1 0
vn 0 -1 0
usemtl m_16830594-a67c-fbd7-af60-7f51c1d503f8
f 122/462/132 125/461/132 123/460/132 120/459/132
f 121/466/133 122/465/133 120/464/133 119/463/133
f 126/470/134 121/469/134 119/468/134 124/467/134
f 125/474/135 126/473/135 124/472/135 123/471/135
f 124/478/136 119/477/136 120/476/136 123/475/136
f 125/482/137 122/481/137 121/480/137 126/479/137
o cube
v 0.175 2.46875 -0.0625
v 0.175 2.46875 -0.125
v 0.175 2.28125 -0.0625
v 0.175 2.28125 -0.125
v -0.175 2.46875 -0.125
v -0.175 2.46875 -0.0625
v -0.175 2.28125 -0.125
v -0.175 2.28125 -0.0625
vt 0.0015625 1
vt 0.0890625 1
vt 0.0890625 0.953125
vt 0.0015625 0.953125
vt 0 1
vt 0.015625 1
vt 0.015625 0.953125
vt 0 0.953125
vt 0.0015625 1
vt 0.0890625 1
vt 0.0890625 0.953125
vt 0.0015625 0.953125
vt 0.0078125 1
vt 0.0234375 1
vt 0.0234375 0.953125
vt 0.0078125 0.953125
vt 0.0015625 0.9921875
vt 0.0890625 0.9921875
vt 0.0890625 0.9765625
vt 0.0015625 0.9765625
vt 0.0015625 1
vt 0.0890625 1
vt 0.0890625 0.984375
vt 0.0015625 0.984375
vn 0 0 -1
vn 1 0 0
vn 0 0 1
vn -1 0 0
vn 0 1 0
vn 0 -1 0
usemtl m_057dd141-44a2-0c03-6f69-6165d6f9e1a2
f 130/486/138 133/485/138 131/484/138 128/483/138
f 129/490/139 130/489/139 128/488/139 127/487/139
f 134/494/140 129/493/140 127/492/140 132/491/140
f 133/498/141 134/497/141 132/496/141 131/495/141
f 132/502/142 127/501/142 128/500/142 131/499/142
f 133/506/143 130/505/143 129/504/143 134/503/143
o cube
v 0.175 2.375 -0.125
v 0.175 2.375 -0.1375
v -0.175 2.453125 -0.125
v -0.175 2.453125 -0.1375
v -0.175 2.296875 -0.125
v -0.175 2.296875 -0.1375
vt 0.1796875 0.9453125
vt 0.1796875 0.96875
vt 0.178125 0.96875
vt 0.178125 0.9453125
vt 0.219140625 0.9609375
vt 0.219140625 0.9625
vt 0.175390625 0.9625
vt 0.175390625 0.9609375
vt 0.219140625 0.959375
vt 0.219140625 0.9609375
vt 0.175390625 0.9609375
vt 0.175390625 0.959375
vt 0.219140625 0.96875
vt 0.175390625 0.96875
vt 0.175390625 0.9453125
vt 0.223046875 0.96875
vt 0.179296875 0.96875
vt 0.223046875 0.9453125
vn -1 0 0
vn 0.21785303258716998 0.9759815859905214 0
vn 0.21785303258716998 -0.9759815859905214 0
vn 0 0 1
vn 0 0 -1
usemtl m_057dd141-44a2-0c03-6f69-6165d6f9e1a2
f 139/507/144 137/508/144 138/509/144 140/510/144
f 135/511/145 136/512/145 138/513/145 137/514/145
f 136/515/146 135/516/146 139/517/146 140/518/146
f 135/519/147 137/520/147 139/521/147
f 138/522/148 136/523/148 140/524/148