# Made in Blockbench 5.1.6
mtllib ne_5_east_right.mtl

o cube
v -0.175 2.171875 -0.125
v -0.175 2.171875 -0.1375
v 0.17500000000000002 2.09375 -0.125
v 0.17500000000000002 2.09375 -0.1375
v 0.175 2.25 -0.125
v 0.175 2.25 -0.1375
v 1.3877787807814457e-17 2 0
v 1.3877787807814457e-17 2.25 0
v 0.025888125000000012 2 0.0625
v 0.025888125000000012 2.25 0.0625
v 0.06250000000000001 2 0.025888125000000012
v 0.0625 2.25 0.025888125000000012
v 0.06250000000000001 2 -0.025888124999999998
v 0.0625 2.25 -0.025888124999999998
v 0.025888125000000012 2 -0.0625
v 0.025888125000000012 2.25 -0.0625
v -0.025888124999999984 2 -0.0625
v -0.025888124999999984 2.25 -0.0625
v -0.0625 2 -0.025888124999999998
v -0.0625 2.25 -0.025888124999999998
v -0.0625 2 0.025888125000000012
v -0.0625 2.25 0.025888125000000012
v -0.025888124999999984 2 0.0625
v -0.025888124999999984 2.25 0.0625
v 0 0 0
v 1.3877787807814457e-17 1 0
v 0.025888124999999998 0 0.0625
v 0.025888125000000012 1 0.0625
v 0.0625 0 0.025888125000000012
v 0.0625 1 0.025888125000000012
v 0.0625 0 -0.025888124999999998
v 0.0625 1 -0.025888124999999998
v 0.025888124999999998 0 -0.0625
v 0.025888125000000012 1 -0.0625
v -0.025888124999999984 0 -0.0625
v -0.025888125000000012 1 -0.0625
v -0.0625 0 -0.025888124999999998
v -0.0625 1 -0.025888124999999998
v -0.0625 0 0.025888125000000012
v -0.0625 1 0.025888125000000012
v -0.025888124999999984 0 0.0625
v -0.025888125000000012 1 0.0625
v 1.3877787807814457e-17 1 0
v 1.3877787807814457e-17 2 0
v 0.025888125000000012 1 0.0625
v 0.025888125000000012 2 0.0625
v 0.0625 1 0.025888125000000012
v 0.06250000000000001 2 0.025888125000000012
v 0.0625 1 -0.025888124999999998
v 0.06250000000000001 2 -0.025888124999999998
v 0.025888125000000012 1 -0.0625
v 0.025888125000000012 2 -0.0625
v -0.025888125000000012 1 -0.0625
v -0.025888124999999984 2 -0.0625
v -0.0625 1 -0.025888124999999998
v -0.0625 2 -0.025888124999999998
v -0.0625 1 0.025888125000000012
v -0.0625 2 0.025888125000000012
v -0.025888125000000012 1 0.0625
v -0.025888124999999984 2 0.0625
v 0.175 2.265625 -0.0625
v 0.175 2.265625 -0.125
v 0.175 2.078125 -0.0625
v 0.175 2.078125 -0.125
v -0.175 2.265625 -0.0625
v -0.175 2.265625 -0.125
v -0.175 2.078125 -0.0625
v -0.175 2.078125 -0.125
v 0.125 2.196875 0
v 0.125 2.196875 -0.0625
v 0.125 2.134375 0
v 0.125 2.134375 -0.0625
v -0.125 2.196875 0
v -0.125 2.196875 -0.0625
v -0.125 2.134375 0
v -0.125 2.134375 -0.0625
v 0.171875 1.99375 0
v 0.171875 1.99375 -0.0625
v 0.171875 1.93125 0
v 0.171875 1.93125 -0.0625
v -0.171875 1.99375 0
v -0.171875 1.99375 -0.0625
v -0.17187499999999994 1.93125 0
v -0.17187499999999994 1.93125 -0.0625
v 0.171875 1.6875 0
v 0.171875 1.6875 -0.0625
v 0.171875 1.625 0
v 0.171875 1.625 -0.0625
v -0.171875 1.6875 0
v -0.171875 1.6875 -0.0625
v -0.171875 1.625 0
v -0.171875 1.625 -0.0625
v 0.175 2.0625 -0.0625
v 0.175 2.0625 -0.125
v 0.175 1.5625 -0.0625
v 0.175 1.5625 -0.125
v -0.175 2.0625 -0.0625
v -0.175 2.0625 -0.125
v -0.175 1.5625 -0.0625
v -0.175 1.5625 -0.125
vt 0.0234375 0.8671875
vt 0.0234375 0.890625
vt 0.021875 0.890625
vt 0.021875 0.8671875
vt 0.062890625 0.8828125
vt 0.062890625 0.884375
vt 0.019140625 0.884375
vt 0.019140625 0.8828125
vt 0.062890625 0.88125
vt 0.062890625 0.8828125
vt 0.019140625 0.8828125
vt 0.019140625 0.88125
vt 0.062890625 0.890625
vt 0.019140625 0.890625
vt 0.019140625 0.8671875
vt 0.066796875 0.890625
vt 0.023046875 0.890625
vt 0.066796875 0.8671875
vt 0.317649375 0.95216375
vt 0.297834375 1
vt 0.25 0.95216375
vt 0.25 0.75
vt 0.301775 0.75
vt 0.301775 1
vt 0.25 1
vt 0.25 0.932350625
vt 0.29783625 0.952165625
vt 0.25 1
vt 0.3125 0.948225
vt 0.3125 1
vt 0.25 0.9741125
vt 0.25 0.75
vt 0.301775 0.75
vt 0.301775 1
vt 0.25 1
vt 0.3125 0.948225
vt 0.3125 1
vt 0.25 0.9741125
vt 0.25 0.932350625
vt 0.29783625 0.952165625
vt 0.25 1
vt 0.25 0.75
vt 0.301775 0.75
vt 0.301775 1
vt 0.25 1
vt 0.317649375 0.95216375
vt 0.297834375 1
vt 0.25 0.95216375
vt 0.25 0.9375
vt 0.301775 0.9375
vt 0.2758875 1
vt 0.25 0.75
vt 0.301775 0.75
vt 0.301775 1
vt 0.25 1
vt 0.301775 1
vt 0.25 1
vt 0.2758875 0.9375
vt 0.25 1
vt 0.269815 0.95216375
vt 0.317649375 1
vt 0.25 0.75
vt 0.301775 0.75
vt 0.301775 1
vt 0.25 1
vt 0.29783625 1
vt 0.25 0.980185
vt 0.29783625 0.932350625
vt 0.25 1
vt 0.25 0.948225
vt 0.3125 0.9741125
vt 0.25 0.75
vt 0.301775 0.75
vt 0.301775 1
vt 0.25 1
vt 0.25 1
vt 0.25 0.948225
vt 0.3125 0.9741125
vt 0.29783625 1
vt 0.25 0.980185
vt 0.29783625 0.932350625
vt 0.25 0.75
vt 0.301775 0.75
vt 0.301775 1
vt 0.25 1
vt 0.25 1
vt 0.269815 0.95216375
vt 0.317649375 1
vt 0.301775 1
vt 0.25 1
vt 0.2758875 0.9375
vt 0.25 0.75
vt 0.301775 0.75
vt 0.301775 1
vt 0.25 1
vt 0.25 0.9375
vt 0.301775 0.9375
vt 0.2758875 1
vt 0.317649375 0.95216375
vt 0.297834375 1
vt 0.25 0.95216375
vt 0.25 0
vt 0.301775 0
vt 0.301775 1
vt 0.25 1
vt 0.25 0.932350625
vt 0.29783625 0.952165625
vt 0.25 1
vt 0.3125 0.948225
vt 0.3125 1
vt 0.25 0.9741125
vt 0.25 0
vt 0.301775 0
vt 0.301775 1
vt 0.25 1
vt 0.3125 0.948225
vt 0.3125 1
vt 0.25 0.9741125
vt 0.25 0.932350625
vt 0.29783625 0.952165625
vt 0.25 1
vt 0.25 0
vt 0.301775 0
vt 0.301775 1
vt 0.25 1
vt 0.317649375 0.95216375
vt 0.297834375 1
vt 0.25 0.95216375
vt 0.25 0.9375
vt 0.301775 0.9375
vt 0.2758875 1
vt 0.25 0
vt 0.301775 0
vt 0.301775 1
vt 0.25 1
vt 0.301775 1
vt 0.25 1
vt 0.2758875 0.9375
vt 0.25 1
vt 0.269815 0.95216375
vt 0.317649375 1
vt 0.25 0
vt 0.301775 0
vt 0.301775 1
vt 0.25 1
vt 0.29783625 1
vt 0.25 0.980185
vt 0.29783625 0.932350625
vt 0.25 1
vt 0.25 0.948225
vt 0.3125 0.9741125
vt 0.25 0
vt 0.301775 0
vt 0.301775 1
vt 0.25 1
vt 0.25 1
vt 0.25 0.948225
vt 0.3125 0.9741125
vt 0.29783625 1
vt 0.25 0.980185
vt 0.29783625 0.932350625
vt 0.25 0
vt 0.301775 0
vt 0.301775 1
vt 0.25 1
vt 0.25 1
vt 0.269815 0.95216375
vt 0.317649375 1
vt 0.301775 1
vt 0.25 1
vt 0.2758875 0.9375
vt 0.25 0
vt 0.301775 0
vt 0.301775 1
vt 0.25 1
vt 0.25 0.9375
vt 0.301775 0.9375
vt 0.2758875 1
vt 0.317649375 0.95216375
vt 0.297834375 1
vt 0.25 0.95216375
vt 0.25 0
vt 0.301775 0
vt 0.301775 1
vt 0.25 1
vt 0.25 0.932350625
vt 0.29783625 0.952165625
vt 0.25 1
vt 0.3125 0.948225
vt 0.3125 1
vt 0.25 0.9741125
vt 0.25 0
vt 0.301775 0
vt 0.301775 1
vt 0.25 1
vt 0.3125 0.948225
vt 0.3125 1
vt 0.25 0.9741125
vt 0.25 0.932350625
vt 0.29783625 0.952165625
vt 0.25 1
vt 0.25 0
vt 0.301775 0
vt 0.301775 1
vt 0.25 1
vt 0.317649375 0.95216375
vt 0.297834375 1
vt 0.25 0.95216375
vt 0.25 0.9375
vt 0.301775 0.9375
vt 0.2758875 1
vt 0.25 0
vt 0.301775 0
vt 0.301775 1
vt 0.25 1
vt 0.301775 1
vt 0.25 1
vt 0.2758875 0.9375
vt 0.25 1
vt 0.269815 0.95216375
vt 0.317649375 1
vt 0.25 0
vt 0.301775 0
vt 0.301775 1
vt 0.25 1
vt 0.29783625 1
vt 0.25 0.980185
vt 0.29783625 0.932350625
vt 0.25 1
vt 0.25 0.948225
vt 0.3125 0.9741125
vt 0.25 0
vt 0.301775 0
vt 0.301775 1
vt 0.25 1
vt 0.25 1
vt 0.25 0.948225
vt 0.3125 0.9741125
vt 0.29783625 1
vt 0.25 0.980185
vt 0.29783625 0.932350625
vt 0.25 0
vt 0.301775 0
vt 0.301775 1
vt 0.25 1
vt 0.25 1
vt 0.269815 0.95216375
vt 0.317649375 1
vt 0.301775 1
vt 0.25 1
vt 0.2758875 0.9375
vt 0.25 0
vt 0.301775 0
vt 0.301775 1
vt 0.25 1
vt 0.25 0.9375
vt 0.301775 0.9375
vt 0.2758875 1
vt 0.015625 0.953125
vt 0.015625 1
vt 0 1
vt 0 0.953125
vt 0.0234375 0.953125
vt 0.0234375 1
vt 0.0078125 1
vt 0.0078125 0.953125
vt 0.0890625 0.9765625
vt 0.0890625 0.9921875
vt 0.0015625 0.9921875
vt 0.0015625 0.9765625
vt 0.0890625 0.984375
vt 0.0890625 1
vt 0.0015625 1
vt 0.0015625 0.984375
vt 0.0890625 0.953125
vt 0.0890625 1
vt 0.0015625 1
vt 0.0015625 0.953125
vt 0.0890625 0.953125
vt 0.0890625 1
vt 0.0015625 1
vt 0.0015625 0.953125
vt 0.5 0.75
vt 0.5 0.8125
vt 0.4375 0.8125
vt 0.4375 0.75
vt 0.4375 0.75
vt 0.4375 0.8125
vt 0.375 0.8125
vt 0.375 0.75
vt 0.75 0.75
vt 0.75 0.8125
vt 0.375 0.8125
vt 0.375 0.75
vt 0.75 0.6875
vt 0.75 0.75
vt 0.375 0.75
vt 0.375 0.6875
vt 0.75 0.75
vt 0.75 0.8125
vt 0.375 0.8125
vt 0.375 0.75
vt 0.75 0.75
vt 0.75 0.8125
vt 0.375 0.8125
vt 0.375 0.75
vt 0.5 0.75
vt 0.5 0.8125
vt 0.4375 0.8125
vt 0.4375 0.75
vt 0.4375 0.75
vt 0.4375 0.8125
vt 0.375 0.8125
vt 0.375 0.75
vt 0.75 0.75
vt 0.75 0.8125
vt 0.375 0.8125
vt 0.375 0.75
vt 0.75 0.6875
vt 0.75 0.75
vt 0.375 0.75
vt 0.375 0.6875
vt 0.75 0.75
vt 0.75 0.8125
vt 0.375 0.8125
vt 0.375 0.75
vt 0.75 0.75
vt 0.75 0.8125
vt 0.375 0.8125
vt 0.375 0.75
vt 0.5 0.75
vt 0.5 0.8125
vt 0.4375 0.8125
vt 0.4375 0.75
vt 0.4375 0.75
vt 0.4375 0.8125
vt 0.375 0.8125
vt 0.375 0.75
vt 0.75 0.75
vt 0.75 0.8125
vt 0.375 0.8125
vt 0.375 0.75
vt 0.75 0.6875
vt 0.75 0.75
vt 0.375 0.75
vt 0.375 0.6875
vt 0.75 0.75
vt 0.75 0.8125
vt 0.375 0.8125
vt 0.375 0.75
vt 0.75 0.75
vt 0.75 0.8125
vt 0.375 0.8125
vt 0.375 0.75
vt 0.0078125 0.9375
vt 0.0078125 1
vt 0 1
vt 0 0.9375
vt 0.015625 0.9375
vt 0.015625 1
vt 0.0078125 1
vt 0.0078125 0.9375
vt 0.04375 0.984375
vt 0.04375 0.9921875
vt 0 0.9921875
vt 0 0.984375
vt 0.04375 0.9921875
vt 0.04375 1
vt 0 1
vt 0 0.9921875
vt 0.99375 0.859375
vt 0.99375 0.984375
vt 0.90625 0.984375
vt 0.90625 0.859375
vt 0.290625 0.74296875
vt 0.290625 0.99296875
vt 0.115625 0.99296875
vt 0.115625 0.74296875
vn 1 1.2246467991473532e-16 0
vn -0.21785303258716987 -0.9759815859905214 0
vn -0.2178530325871701 0.9759815859905214 0
vn 0 0 1
vn 0 0 -1
vn 1.2246467991473532e-16 -1 0
vn 0.7071067811865475 2.8362561401713422e-18 0.7071067811865477
vn -1.2246467991473532e-16 1 0
vn 1.2246467991473532e-16 -1 0
vn 1 1.1442377452219667e-17 0
vn -1.2246467991473532e-16 1 0
vn 1.2246467991473532e-16 -1 0
vn 0.7071067811865476 2.8362561401713915e-18 -0.7071067811865476
vn -1.2246467991473532e-16 1 0
vn 1.2246467991473532e-16 -1 0
vn 0 0 -1
vn -1.2246467991473532e-16 1 0
vn 1.2246467991473532e-16 -1 0
vn -0.7071067811865475 -2.8362561401713792e-18 -0.7071067811865477
vn -1.2246467991473532e-16 1 0
vn 1.2246467991473532e-16 -1 0
vn -1 -1.1442377452219667e-17 0
vn -1.2246467991473532e-16 1 0
vn 1.2246467991473532e-16 -1 0
vn -0.7071067811865472 -1.958812603684693e-17 0.7071067811865478
vn -1.2246467991473532e-16 1 0
vn 1.2246467991473532e-16 -1 0
vn 0 0 1
vn -1.2246467991473532e-16 1 0
vn 1.2246467991473532e-16 -1 0
vn 0.7071067811865475 -1.3517113339975515e-18 0.7071067811865477
vn -1.2246467991473532e-16 1 0
vn 1.2246467991473532e-16 -1 0
vn 1 -2.43541035559479e-18 0
vn -1.2246467991473532e-16 1 0
vn 1.2246467991473532e-16 -1 0
vn 0.7071067811865476 -1.3517113339975022e-18 -0.7071067811865476
vn -1.2246467991473532e-16 1 0
vn 1.2246467991473532e-16 -1 0
vn 0 0 -1
vn -1.2246467991473532e-16 1 0
vn 1.2246467991473532e-16 -1 0
vn -0.7071067811865475 9.727646282335314e-18 -0.7071067811865477
vn -1.2246467991473532e-16 1 0
vn 1.2246467991473532e-16 -1 0
vn -1 1.6313198163409247e-17 0
vn -1.2246467991473532e-16 1 0
vn 1.2246467991473532e-16 -1 0
vn -0.7071067811865472 -1.1212191088509142e-17 0.7071067811865478
vn -1.2246467991473532e-16 1 0
vn 1.2246467991473532e-16 -1 0
vn 0 0 1
vn -1.2246467991473532e-16 1 0
vn 1.2246467991473532e-16 -1 0
vn 0.7071067811865475 -1.3517113339975515e-18 0.7071067811865477
vn -1.2246467991473532e-16 1 0
vn 1.2246467991473532e-16 -1 0
vn 1 -2.43541035559479e-18 0
vn -1.2246467991473532e-16 1 0
vn 1.2246467991473532e-16 -1 0
vn 0.7071067811865476 -1.3517113339975022e-18 -0.7071067811865476
vn -1.2246467991473532e-16 1 0
vn 1.2246467991473532e-16 -1 0
vn 0 0 -1
vn -1.2246467991473532e-16 1 0
vn 1.2246467991473532e-16 -1 0
vn -0.7071067811865477 -1.1212191088509179e-17 -0.7071067811865475
vn -1.2246467991473532e-16 1 0
vn 1.2246467991473532e-16 -1 0
vn -1 -1.1442377452219667e-17 0
vn -1.2246467991473532e-16 1 0
vn 1.2246467991473532e-16 -1 0
vn -0.7071067811865476 9.727646282335339e-18 0.7071067811865476
vn -1.2246467991473532e-16 1 0
vn 1.2246467991473532e-16 -1 0
vn 0 0 1
vn -1.2246467991473532e-16 1 0
vn 1 -2.556505670195221e-17 0
vn -1 -1.2246467991473532e-16 0
vn -1.2246467991473532e-16 1 0
vn 1.2246467991473532e-16 -1 0
vn 0 0 1
vn 0 0 -1
vn 1 -3.2162452993532727e-16 0
vn -1 -1.2246467991473532e-16 0
vn -1.2246467991473532e-16 1 0
vn 1.2246467991473532e-16 -1 0
vn 0 0 1
vn 0 0 -1
vn 1 1.2246467991473532e-16 0
vn -1 -1.2246467991473532e-16 0
vn -1.2246467991473532e-16 1 0
vn 1.2246467991473532e-16 -1 0
vn 0 0 1
vn 0 0 -1
vn 1 1.2246467991473532e-16 0
vn -1 -1.2246467991473532e-16 0
vn -1.2246467991473532e-16 1 0
vn 1.2246467991473532e-16 -1 0
vn 0 0 1
vn 0 0 -1
vn 1 1.1442377452219667e-17 0
vn -1 -1.1442377452219667e-17 0
vn -1.2246467991473532e-16 1 0
vn 1.2246467991473532e-16 -1 0
vn 0 0 1
vn 0 0 -1
usemtl m_057dd141-44a2-0c03-6f69-6165d6f9e1a2
f 5/1/1 3/2/1 4/3/1 6/4/1
f 1/5/2 2/6/2 4/7/2 3/8/2
f 2/9/3 1/10/3 5/11/3 6/12/3
f 1/13/4 3/14/4 5/15/4
f 4/16/5 2/17/5 6/18/5
usemtl m_16830594-a67c-fbd7-af60-7f51c1d503f8
f 11/19/6 9/20/6 7/21/6
f 9/22/7 11/23/7 12/24/7 10/25/7
f 10/26/8 12/27/8 8/28/8
f 13/29/9 11/30/9 7/31/9
f 11/32/10 13/33/10 14/34/10 12/35/10
f 12/36/11 14/37/11 8/38/11
f 15/39/12 13/40/12 7/41/12
f 13/42/13 15/43/13 16/44/13 14/45/13
f 14/46/14 16/47/14 8/48/14
f 17/49/15 15/50/15 7/51/15
f 15/52/16 17/53/16 18/54/16 16/55/16
f 16/56/17 18/57/17 8/58/17
f 19/59/18 17/60/18 7/61/18
f 17/62/19 19/63/19 20/64/19 18/65/19
f 18/66/20 20/67/20 8/68/20
f 21/69/21 19/70/21 7/71/21
f 19/72/22 21/73/22 22/74/22 20/75/22
f 20/76/23 22/77/23 8/78/23
f 23/79/24 21/80/24 7/81/24
f 21/82/25 23/83/25 24/84/25 22/85/25
f 22/86/26 24/87/26 8/88/26
f 9/89/27 23/90/27 7/91/27
f 23/92/28 9/93/28 10/94/28 24/95/28
f 24/96/29 10/97/29 8/98/29
f 29/99/30 27/100/30 25/101/30
f 27/102/31 29/103/31 30/104/31 28/105/31
f 28/106/32 30/107/32 26/108/32
f 31/109/33 29/110/33 25/111/33
f 29/112/34 31/113/34 32/114/34 30/115/34
f 30/116/35 32/117/35 26/118/35
f 33/119/36 31/120/36 25/121/36
f 31/122/37 33/123/37 34/124/37 32/125/37
f 32/126/38 34/127/38 26/128/38
f 35/129/39 33/130/39 25/131/39
f 33/132/40 35/133/40 36/134/40 34/135/40
f 34/136/41 36/137/41 26/138/41
f 37/139/42 35/140/42 25/141/42
f 35/142/43 37/143/43 38/144/43 36/145/43
f 36/146/44 38/147/44 26/148/44
f 39/149/45 37/150/45 25/151/45
f 37/152/46 39/153/46 40/154/46 38/155/46
f 38/156/47 40/157/47 26/158/47
f 41/159/48 39/160/48 25/161/48
f 39/162/49 41/163/49 42/164/49 40/165/49
f 40/166/50 42/167/50 26/168/50
f 27/169/51 41/170/51 25/171/51
f 41/172/52 27/173/52 28/174/52 42/175/52
f 42/176/53 28/177/53 26/178/53
f 47/179/54 45/180/54 43/181/54
f 45/182/55 47/183/55 48/184/55 46/185/55
f 46/186/56 48/187/56 44/188/56
f 49/189/57 47/190/57 43/191/57
f 47/192/58 49/193/58 50/194/58 48/195/58
f 48/196/59 50/197/59 44/198/59
f 51/199/60 49/200/60 43/201/60
f 49/202/61 51/203/61 52/204/61 50/205/61
f 50/206/62 52/207/62 44/208/62
f 53/209/63 51/210/63 43/211/63
f 51/212/64 53/213/64 54/214/64 52/215/64
f 52/216/65 54/217/65 44/218/65
f 55/219/66 53/220/66 43/221/66
f 53/222/67 55/223/67 56/224/67 54/225/67
f 54/226/68 56/227/68 44/228/68
f 57/229/69 55/230/69 43/231/69
f 55/232/70 57/233/70 58/234/70 56/235/70
f 56/236/71 58/237/71 44/238/71
f 59/239/72 57/240/72 43/241/72
f 57/242/73 59/243/73 60/244/73 58/245/73
f 58/246/74 60/247/74 44/248/74
f 45/249/75 59/250/75 43/251/75
f 59/252/76 45/253/76 46/254/76 60/255/76
f 60/256/77 46/257/77 44/258/77
usemtl m_057dd141-44a2-0c03-6f69-6165d6f9e1a2
f 64/259/78 62/260/78 61/261/78 63/262/78
f 67/263/79 65/264/79 66/265/79 68/266/79
f 61/267/80 62/268/80 66/269/80 65/270/80
f 64/271/81 63/272/81 67/273/81 68/274/81
f 63/275/82 61/276/82 65/277/82 67/278/82
f 68/279/83 66/280/83 62/281/83 64/282/83
usemtl m_16830594-a67c-fbd7-af60-7f51c1d503f8
f 72/283/84 70/284/84 69/285/84 71/286/84
f 75/287/85 73/288/85 74/289/85 76/290/85
f 69/291/86 70/292/86 74/293/86 73/294/86
f 72/295/87 71/296/87 75/297/87 76/298/87
f 71/299/88 69/300/88 73/301/88 75/302/88
f 76/303/89 74/304/89 70/305/89 72/306/89
f 80/307/90 78/308/90 77/309/90 79/310/90
f 83/311/91 81/312/91 82/313/91 84/314/91
f 77/315/92 78/316/92 82/317/92 81/318/92
f 80/319/93 79/320/93 83/321/93 84/322/93
f 79/323/94 77/324/94 81/325/94 83/326/94
f 84/327/95 82/328/95 78/329/95 80/330/95
f 88/331/96 86/332/96 85/333/96 87/334/96
f 91/335/97 89/336/97 90/337/97 92/338/97
f 85/339/98 86/340/98 90/341/98 89/342/98
f 88/343/99 87/344/99 91/345/99 92/346/99
f 87/347/100 85/348/100 89/349/100 91/350/100
f 92/351/101 90/352/101 86/353/101 88/354/101
usemtl m_057dd141-44a2-0c03-6f69-6165d6f9e1a2
f 96/355/102 94/356/102 93/357/102 95/358/102
f 99/359/103 97/360/103 98/361/103 100/362/103
f 93/363/104 94/364/104 98/365/104 97/366/104
f 96/367/105 95/368/105 99/369/105 100/370/105
f 95/371/106 93/372/106 97/373/106 99/374/106
f 100/375/107 98/376/107 94/377/107 96/378/107