# Made in Blockbench 5.1.6
mtllib ne_5_west_left.mtl

o cube
v 0.171875 1.99375 0
v 0.171875 1.99375 -0.0625
v 0.171875 1.93125 0
v 0.171875 1.93125 -0.0625
v -0.171875 1.99375 -0.0625
v -0.171875 1.99375 0
v -0.171875 1.93125 -0.0625
v -0.171875 1.93125 0
vt 0.375 0.8125
vt 0.75 0.8125
vt 0.75 0.75
vt 0.375 0.75
vt 0.4375 0.8125
vt 0.5 0.8125
vt 0.5 0.75
vt 0.4375 0.75
vt 0.375 0.8125
vt 0.75 0.8125
vt 0.75 0.75
vt 0.375 0.75
vt 0.375 0.8125
vt 0.4375 0.8125
vt 0.4375 0.75
vt 0.375 0.75
vt 0.375 0.8125
vt 0.75 0.8125
vt 0.75 0.75
vt 0.375 0.75
vt 0.375 0.75
vt 0.75 0.75
vt 0.75 0.6875
vt 0.375 0.6875
vn 0 0 -1
vn 1 0 0
vn 0 0 1
vn -1 0 0
vn 0 1 0
vn 0 -1 0
usemtl m_16830594-a67c-fbd7-af60-7f51c1d503f8
f 4/4/1 7/3/1 5/2/1 2/1/1
f 3/8/2 4/7/2 2/6/2 1/5/2
f 8/12/3 3/11/3 1/10/3 6/9/3
f 7/16/4 8/15/4 6/14/4 5/13/4
f 6/20/5 1/19/5 2/18/5 5/17/5
f 7/24/6 4/23/6 3/22/6 8/21/6
o cube
v 0.171875 1.6875 0
v 0.171875 1.6875 -0.0625
v 0.171875 1.625 0
v 0.171875 1.625 -0.0625
v -0.171875 1.6875 -0.0625
v -0.171875 1.6875 0
v -0.171875 1.625 -0.0625
v -0.171875 1.625 0
vt 0.375 0.8125
vt 0.75 0.8125
vt 0.75 0.75
vt 0.375 0.75
vt 0.4375 0.8125
vt 0.5 0.8125
vt 0.5 0.75
vt 0.4375 0.75
vt 0.375 0.8125
vt 0.75 0.8125
vt 0.75 0.75
vt 0.375 0.75
vt 0.375 0.8125
vt 0.4375 0.8125
vt 0.4375 0.75
vt 0.375 0.75
vt 0.375 0.8125
vt 0.75 0.8125
vt 0.75 0.75
vt 0.375 0.75
vt 0.375 0.75
vt 0.75 0.75
vt 0.75 0.6875
vt 0.375 0.6875
vn 0 0 -1
vn 1 0 0
vn 0 0 1
vn -1 0 0
vn 0 1 0
vn 0 -1 0
usemtl m_16830594-a67c-fbd7-af60-7f51c1d503f8
f 12/28/7 15/27/7 13/26/7 10/25/7
f 11/32/8 12/31/8 10/30/8 9/29/8
f 16/36/9 11/35/9 9/34/9 14/33/9
f 15/40/10 16/39/10 14/38/10 13/37/10
f 14/44/11 9/43/11 10/42/11 13/41/11
f 15/48/12 12/47/12 11/46/12 16/45/12
o cube
v 0.175 2.0625 -0.0625
v 0.175 2.0625 -0.125
v 0.175 1.5625 -0.0625
v 0.175 1.5625 -0.125
v -0.175 2.0625 -0.125
v -0.175 2.0625 -0.0625
v -0.175 1.5625 -0.125
v -0.175 1.5625 -0.0625
vt 0.115625 0.99296875
vt 0.290625 0.99296875
vt 0.290625 0.74296875
vt 0.115625 0.74296875
vt 0 1
vt 0.0078125 1
vt 0.0078125 0.9375
vt 0 0.9375
vt 0.90625 0.984375
vt 0.99375 0.984375
vt 0.99375 0.859375
vt 0.90625 0.859375
vt 0.0078125 1
vt 0.015625 1
vt 0.015625 0.9375
vt 0.0078125 0.9375
vt 0 0.9921875
vt 0.04375 0.9921875
vt 0.04375 0.984375
vt 0 0.984375
vt 0 1
vt 0.04375 1
vt 0.04375 0.9921875
vt 0 0.9921875
vn 0 0 -1
vn 1 0 0
vn 0 0 1
vn -1 0 0
vn 0 1 0
vn 0 -1 0
usemtl m_057dd141-44a2-0c03-6f69-6165d6f9e1a2
f 20/52/13 23/51/13 21/50/13 18/49/13
f 19/56/14 20/55/14 18/54/14 17/53/14
f 24/60/15 19/59/15 17/58/15 22/57/15
f 23/64/16 24/63/16 22/62/16 21/61/16
f 22/68/17 17/67/17 18/66/17 21/65/17
f 23/72/18 20/71/18 19/70/18 24/69/18
o cube
v 0.175 2.265625 -0.0625
v 0.175 2.265625 -0.125
v 0.175 2.078125 -0.0625
v 0.175 2.078125 -0.125
v -0.175 2.265625 -0.125
v -0.175 2.265625 -0.0625
v -0.175 2.078125 -0.125
v -0.175 2.078125 -0.0625
vt 0.0015625 1
vt 0.0890625 1
vt 0.0890625 0.953125
vt 0.0015625 0.953125
vt 0 1
vt 0.015625 1
vt 0.015625 0.953125
vt 0 0.953125
vt 0.0015625 1
vt 0.0890625 1
vt 0.0890625 0.953125
vt 0.0015625 0.953125
vt 0.0078125 1
vt 0.0234375 1
vt 0.0234375 0.953125
vt 0.0078125 0.953125
vt 0.0015625 0.9921875
vt 0.0890625 0.9921875
vt 0.0890625 0.9765625
vt 0.0015625 0.9765625
vt 0.0015625 1
vt 0.0890625 1
vt 0.0890625 0.984375
vt 0.0015625 0.984375
vn 0 0 -1
vn 1 0 0
vn 0 0 1
vn -1 0 0
vn 0 1 0
vn 0 -1 0
usemtl m_057dd141-44a2-0c03-6f69-6165d6f9e1a2
f 28/76/19 31/75/19 29/74/19 26/73/19
f 27/80/20 28/79/20 26/78/20 25/77/20
f 32/84/21 27/83/21 25/82/21 30/81/21
f 31/88/22 32/87/22 30/86/22 29/85/22
f 30/92/23 25/91/23 26/90/23 29/89/23
f 31/96/24 28/95/24 27/94/24 32/93/24
o cube
v 0.175 2.171875 -0.125
v 0.175 2.171875 -0.1375
v -0.175 2.25 -0.125
v -0.175 2.25 -0.1375
v -0.175 2.09375 -0.125
v -0.175 2.09375 -0.1375
v 0 2 0
v 0 2.25 0
v 0.025888125000000012 2 0.0625
v 0.025888125000000012 2.25 0.0625
v 0.0625 2 0.025888125000000012
v 0.0625 2.25 0.025888125000000012
v 0.0625 2 -0.025888124999999998
v 0.0625 2.25 -0.025888124999999998
v 0.025888125000000012 2 -0.0625
v 0.025888125000000012 2.25 -0.0625
v -0.025888124999999998 2 -0.0625
v -0.025888124999999998 2.25 -0.0625
v -0.0625 2 -0.025888124999999998
v -0.0625 2.25 -0.025888124999999998
v -0.0625 2 0.025888125000000012
v -0.0625 2.25 0.025888125000000012
v -0.025888124999999998 2 0.0625
v -0.025888124999999998 2.25 0.0625
v 0 0 0
v 0 1 0
v 0.025888125000000012 0 0.0625
v 0.025888125000000012 1 0.0625
v 0.0625 0 0.025888125000000012
v 0.0625 1 0.025888125000000012
v 0.0625 0 -0.025888124999999998
v 0.0625 1 -0.025888124999999998
v 0.025888125000000012 0 -0.0625
v 0.025888125000000012 1 -0.0625
v -0.025888124999999998 0 -0.0625
v -0.025888124999999998 1 -0.0625
v -0.0625 0 -0.025888124999999998
v -0.0625 1 -0.025888124999999998
v -0.0625 0 0.025888125000000012
v -0.0625 1 0.025888125000000012
v -0.025888124999999998 0 0.0625
v -0.025888124999999998 1 0.0625
v 0 1 0
v 0 2 0
v 0.025888125000000012 1 0.0625
v 0.025888125000000012 2 0.0625
v 0.0625 1 0.025888125000000012
v 0.0625 2 0.025888125000000012
v 0.0625 1 -0.025888124999999998
v 0.0625 2 -0.025888124999999998
v 0.025888125000000012 1 -0.0625
v 0.025888125000000012 2 -0.0625
v -0.025888124999999998 1 -0.0625
v -0.025888124999999998 2 -0.0625
v -0.0625 1 -0.025888124999999998
v -0.0625 2 -0.025888124999999998
v -0.0625 1 0.025888125000000012
v -0.0625 2 0.025888125000000012
v -0.025888124999999998 1 0.0625
v -0.025888124999999998 2 0.0625
vt 0.1796875 0.9453125
vt 0.1796875 0.96875
vt 0.178125 0.96875
vt 0.178125 0.9453125
vt 0.219140625 0.9609375
vt 0.219140625 0.9625
vt 0.175390625 0.9625
vt 0.175390625 0.9609375
vt 0.219140625 0.959375
vt 0.219140625 0.9609375
vt 0.175390625 0.9609375
vt 0.175390625 0.959375
vt 0.219140625 0.96875
vt 0.175390625 0.96875
vt 0.175390625 0.9453125
vt 0.223046875 0.96875
vt 0.179296875 0.96875
vt 0.223046875 0.9453125
vt 0.317649375 0.95216375
vt 0.297834375 1
vt 0.25 0.95216375
vt 0.25 0.75
vt 0.301775 0.75
vt 0.301775 1
vt 0.25 1
vt 0.25 0.932350625
vt 0.29783625 0.952165625
vt 0.25 1
vt 0.3125 0.948225
vt 0.3125 1
vt 0.25 0.9741125
vt 0.25 0.75
vt 0.301775 0.75
vt 0.301775 1
vt 0.25 1
vt 0.3125 0.948225
vt 0.3125 1
vt 0.25 0.9741125
vt 0.25 0.932350625
vt 0.29783625 0.952165625
vt 0.25 1
vt 0.25 0.75
vt 0.301775 0.75
vt 0.301775 1
vt 0.25 1
vt 0.317649375 0.95216375
vt 0.297834375 1
vt 0.25 0.95216375
vt 0.25 0.9375
vt 0.301775 0.9375
vt 0.2758875 1
vt 0.25 0.75
vt 0.301775 0.75
vt 0.301775 1
vt 0.25 1
vt 0.301775 1
vt 0.25 1
vt 0.2758875 0.9375
vt 0.25 1
vt 0.269815 0.95216375
vt 0.317649375 1
vt 0.25 0.75
vt 0.301775 0.75
vt 0.301775 1
vt 0.25 1
vt 0.29783625 1
vt 0.25 0.980185
vt 0.29783625 0.932350625
vt 0.25 1
vt 0.25 0.948225
vt 0.3125 0.9741125
vt 0.25 0.75
vt 0.301775 0.75
vt 0.301775 1
vt 0.25 1
vt 0.25 1
vt 0.25 0.948225
vt 0.3125 0.9741125
vt 0.29783625 1
vt 0.25 0.980185
vt 0.29783625 0.932350625
vt 0.25 0.75
vt 0.301775 0.75
vt 0.301775 1
vt 0.25 1
vt 0.25 1
vt 0.269815 0.95216375
vt 0.317649375 1
vt 0.301775 1
vt 0.25 1
vt 0.2758875 0.9375
vt 0.25 0.75
vt 0.301775 0.75
vt 0.301775 1
vt 0.25 1
vt 0.25 0.9375
vt 0.301775 0.9375
vt 0.2758875 1
vt 0.317649375 0.95216375
vt 0.297834375 1
vt 0.25 0.95216375
vt 0.25 0
vt 0.301775 0
vt 0.301775 1
vt 0.25 1
vt 0.25 0.932350625
vt 0.29783625 0.952165625
vt 0.25 1
vt 0.3125 0.948225
vt 0.3125 1
vt 0.25 0.9741125
vt 0.25 0
vt 0.301775 0
vt 0.301775 1
vt 0.25 1
vt 0.3125 0.948225
vt 0.3125 1
vt 0.25 0.9741125
vt 0.25 0.932350625
vt 0.29783625 0.952165625
vt 0.25 1
vt 0.25 0
vt 0.301775 0
vt 0.301775 1
vt 0.25 1
vt 0.317649375 0.95216375
vt 0.297834375 1
vt 0.25 0.95216375
vt 0.25 0.9375
vt 0.301775 0.9375
vt 0.2758875 1
vt 0.25 0
vt 0.301775 0
vt 0.301775 1
vt 0.25 1
vt 0.301775 1
vt 0.25 1
vt 0.2758875 0.9375
vt 0.25 1
vt 0.269815 0.95216375
vt 0.317649375 1
vt 0.25 0
vt 0.301775 0
vt 0.301775 1
vt 0.25 1
vt 0.29783625 1
vt 0.25 0.980185
vt 0.29783625 0.932350625
vt 0.25 1
vt 0.25 0.948225
vt 0.3125 0.9741125
vt 0.25 0
vt 0.301775 0
vt 0.301775 1
vt 0.25 1
vt 0.25 1
vt 0.25 0.948225
vt 0.3125 0.9741125
vt 0.29783625 1
vt 0.25 0.980185
vt 0.29783625 0.932350625
vt 0.25 0
vt 0.301775 0
vt 0.301775 1
vt 0.25 1
vt 0.25 1
vt 0.269815 0.95216375
vt 0.317649375 1
vt 0.301775 1
vt 0.25 1
vt 0.2758875 0.9375
vt 0.25 0
vt 0.301775 0
vt 0.301775 1
vt 0.25 1
vt 0.25 0.9375
vt 0.301775 0.9375
vt 0.2758875 1
vt 0.317649375 0.95216375
vt 0.297834375 1
vt 0.25 0.95216375
vt 0.25 0
vt 0.301775 0
vt 0.301775 1
vt 0.25 1
vt 0.25 0.932350625
vt 0.29783625 0.952165625
vt 0.25 1
vt 0.3125 0.948225
vt 0.3125 1
vt 0.25 0.9741125
vt 0.25 0
vt 0.301775 0
vt 0.301775 1
vt 0.25 1
vt 0.3125 0.948225
vt 0.3125 1
vt 0.25 0.9741125
vt 0.25 0.932350625
vt 0.29783625 0.952165625
vt 0.25 1
vt 0.25 0
vt 0.301775 0
vt 0.301775 1
vt 0.25 1
vt 0.317649375 0.95216375
vt 0.297834375 1
vt 0.25 0.95216375
vt 0.25 0.9375
vt 0.301775 0.9375
vt 0.2758875 1
vt 0.25 0
vt 0.301775 0
vt 0.301775 1
vt 0.25 1
vt 0.301775 1
vt 0.25 1
vt 0.2758875 0.9375
vt 0.25 1
vt 0.269815 0.95216375
vt 0.317649375 1
vt 0.25 0
vt 0.301775 0
vt 0.301775 1
vt 0.25 1
vt 0.29783625 1
vt 0.25 0.980185
vt 0.29783625 0.932350625
vt 0.25 1
vt 0.25 0.948225
vt 0.3125 0.9741125
vt 0.25 0
vt 0.301775 0
vt 0.301775 1
vt 0.25 1
vt 0.25 1
vt 0.25 0.948225
vt 0.3125 0.9741125
vt 0.29783625 1
vt 0.25 0.980185
vt 0.29783625 0.932350625
vt 0.25 0
vt 0.301775 0
vt 0.301775 1
vt 0.25 1
vt 0.25 1
vt 0.269815 0.95216375
vt 0.317649375 1
vt 0.301775 1
vt 0.25 1
vt 0.2758875 0.9375
vt 0.25 0
vt 0.301775 0
vt 0.301775 1
vt 0.25 1
vt 0.25 0.9375
vt 0.301775 0.9375
vt 0.2758875 1
vn -1 0 0
vn 0.21785303258716998 0.9759815859905214 0
vn 0.21785303258716998 -0.9759815859905214 0
vn 0 0 1
vn 0 0 -1
vn 0 -1 0
vn 0.7071067811865476 0 0.7071067811865476
vn 0 1 0
vn 0 -1 0
vn 1 0 0
vn 0 1 0
vn 0 -1 0
vn 0.7071067811865477 0 -0.7071067811865475
vn 0 1 0
vn 0 -1 0
vn 0 0 -1
vn 0 1 0
vn 0 -1 0
vn -0.7071067811865476 0 -0.7071067811865476
vn 0 1 0
vn 0 -1 0
vn -1 0 0
vn 0 1 0
vn 0 -1 0
vn -0.7071067811865475 0 0.7071067811865477
vn 0 1 0
vn 0 -1 0
vn 0 0 1
vn 0 1 0
vn 0 -1 0
vn 0.7071067811865476 0 0.7071067811865476
vn 0 1 0
vn 0 -1 0
vn 1 0 0
vn 0 1 0
vn 0 -1 0
vn 0.7071067811865477 0 -0.7071067811865475
vn 0 1 0
vn 0 -1 0
vn 0 0 -1
vn 0 1 0
vn 0 -1 0
vn -0.7071067811865476 0 -0.7071067811865476
vn 0 1 0
vn 0 -1 0
vn -1 0 0
vn 0 1 0
vn 0 -1 0
vn -0.7071067811865475 0 0.7071067811865477
vn 0 1 0
vn 0 -1 0
vn 0 0 1
vn 0 1 0
vn 0 -1 0
vn 0.7071067811865476 0 0.7071067811865476
vn 0 1 0
vn 0 -1 0
vn 1 0 0
vn 0 1 0
vn 0 -1 0
vn 0.7071067811865477 0 -0.7071067811865475
vn 0 1 0
vn 0 -1 0
vn 0 0 -1
vn 0 1 0
vn 0 -1 0
vn -0.7071067811865476 0 -0.7071067811865476
vn 0 1 0
vn 0 -1 0
vn -1 0 0
vn 0 1 0
vn 0 -1 0
vn -0.7071067811865475 0 0.7071067811865477
vn 0 1 0
vn 0 -1 0
vn 0 0 1
vn 0 1 0
usemtl m_057dd141-44a2-0c03-6f69-6165d6f9e1a2
f 37/97/25 35/98/25 36/99/25 38/100/25
f 33/101/26 34/102/26 36/103/26 35/104/26
f 34/105/27 33/106/27 37/107/27 38/108/27
f 33/109/28 35/110/28 37/111/28
f 36/112/29 34/113/29 38/114/29
usemtl m_16830594-a67c-fbd7-af60-7f51c1d503f8
f 43/115/30 41/116/30 39/117/30
f 41/118/31 43/119/31 44/120/31 42/121/31
f 42/122/32 44/123/32 40/124/32
f 45/125/33 43/126/33 39/127/33
f 43/128/34 45/129/34 46/130/34 44/131/34
f 44/132/35 46/133/35 40/134/35
f 47/135/36 45/136/36 39/137/36
f 45/138/37 47/139/37 48/140/37 46/141/37
f 46/142/38 48/143/38 40/144/38
f 49/145/39 47/146/39 39/147/39
f 47/148/40 49/149/40 50/150/40 48/151/40
f 48/152/41 50/153/41 40/154/41
f 51/155/42 49/156/42 39/157/42
f 49/158/43 51/159/43 52/160/43 50/161/43
f 50/162/44 52/163/44 40/164/44
f 53/165/45 51/166/45 39/167/45
f 51/168/46 53/169/46 54/170/46 52/171/46
f 52/172/47 54/173/47 40/174/47
f 55/175/48 53/176/48 39/177/48
f 53/178/49 55/179/49 56/180/49 54/181/49
f 54/182/50 56/183/50 40/184/50
f 41/185/51 55/186/51 39/187/51
f 55/188/52 41/189/52 42/190/52 56/191/52
f 56/192/53 42/193/53 40/194/53
f 61/195/54 59/196/54 57/197/54
f 59/198/55 61/199/55 62/200/55 60/201/55
f 60/202/56 62/203/56 58/204/56
f 63/205/57 61/206/57 57/207/57
f 61/208/58 63/209/58 64/210/58 62/211/58
f 62/212/59 64/213/59 58/214/59
f 65/215/60 63/216/60 57/217/60
f 63/218/61 65/219/61 66/220/61 64/221/61
f 64/222/62 66/223/62 58/224/62
f 67/225/63 65/226/63 57/227/63
f 65/228/64 67/229/64 68/230/64 66/231/64
f 66/232/65 68/233/65 58/234/65
f 69/235/66 67/236/66 57/237/66
f 67/238/67 69/239/67 70/240/67 68/241/67
f 68/242/68 70/243/68 58/244/68
f 71/245/69 69/246/69 57/247/69
f 69/248/70 71/249/70 72/250/70 70/251/70
f 70/252/71 72/253/71 58/254/71
f 73/255/72 71/256/72 57/257/72
f 71/258/73 73/259/73 74/260/73 72/261/73
f 72/262/74 74/263/74 58/264/74
f 59/265/75 73/266/75 57/267/75
f 73/268/76 59/269/76 60/270/76 74/271/76
f 74/272/77 60/273/77 58/274/77
f 79/275/78 77/276/78 75/277/78
f 77/278/79 79/279/79 80/280/79 78/281/79
f 78/282/80 80/283/80 76/284/80
f 81/285/81 79/286/81 75/287/81
f 79/288/82 81/289/82 82/290/82 80/291/82
f 80/292/83 82/293/83 76/294/83
f 83/295/84 81/296/84 75/297/84
f 81/298/85 83/299/85 84/300/85 82/301/85
f 82/302/86 84/303/86 76/304/86
f 85/305/87 83/306/87 75/307/87
f 83/308/88 85/309/88 86/310/88 84/311/88
f 84/312/89 86/313/89 76/314/89
f 87/315/90 85/316/90 75/317/90
f 85/318/91 87/319/91 88/320/91 86/321/91
f 86/322/92 88/323/92 76/324/92
f 89/325/93 87/326/93 75/327/93
f 87/328/94 89/329/94 90/330/94 88/331/94
f 88/332/95 90/333/95 76/334/95
f 91/335/96 89/336/96 75/337/96
f 89/338/97 91/339/97 92/340/97 90/341/97
f 90/342/98 92/343/98 76/344/98
f 77/345/99 91/346/99 75/347/99
f 91/348/100 77/349/100 78/350/100 92/351/100
f 92/352/101 78/353/101 76/354/101
o cube
v 0.125 2.196875 0
v 0.125 2.196875 -0.0625
v 0.125 2.134375 0
v 0.125 2.134375 -0.0625
v -0.125 2.196875 -0.0625
v -0.125 2.196875 0
v -0.125 2.134375 -0.0625
v -0.125 2.134375 0
vt 0.375 0.8125
vt 0.75 0.8125
vt 0.75 0.75
vt 0.375 0.75
vt 0.4375 0.8125
vt 0.5 0.8125
vt 0.5 0.75
vt 0.4375 0.75
vt 0.375 0.8125
vt 0.75 0.8125
vt 0.75 0.75
vt 0.375 0.75
vt 0.375 0.8125
vt 0.4375 0.8125
vt 0.4375 0.75
vt 0.375 0.75
vt 0.375 0.8125
vt 0.75 0.8125
vt 0.75 0.75
vt 0.375 0.75
vt 0.375 0.75
vt 0.75 0.75
vt 0.75 0.6875
vt 0.375 0.6875
vn 0 0 -1
vn 1 0 0
vn 0 0 1
vn -1 0 0
vn 0 1 0
vn 0 -1 0
usemtl m_16830594-a67c-fbd7-af60-7f51c1d503f8
f 96/358/102 99/357/102 97/356/102 94/355/102
f 95/362/103 96/361/103 94/360/103 93/359/103
f 100/366/104 95/365/104 93/364/104 98/363/104
f 99/370/105 100/369/105 98/368/105 97/367/105
f 98/374/106 93/373/106 94/372/106 97/371/106
f 99/378/107 96/377/107 95/376/107 100/375/107