# Blender 5.2.0 LTS
# www.blender.org
mtllib ks_hp_default.mtl
o cube
v 0.062500 5.000000 -0.156250
v 0.062500 5.000000 -0.218750
v 0.062500 3.875000 -0.156250
v 0.062500 3.875000 -0.218750
v -0.062500 5.000000 -0.156250
v -0.062500 5.000000 -0.218750
v -0.062500 3.875000 -0.156250
v -0.062500 3.875000 -0.218750
v 0.062500 5.000000 0.218750
v 0.062500 5.000000 0.093750
v 0.062500 3.875000 0.218750
v 0.062500 3.875000 0.093750
v -0.062500 5.000000 0.218750
v -0.062500 5.000000 0.093750
v -0.062500 3.875000 0.218750
v -0.062500 3.875000 0.093750
v 0.062500 4.937500 0.093750
v 0.062500 4.937500 -0.156250
v -0.062500 4.937500 0.093750
v -0.062500 4.937500 -0.156250
v 0.062500 4.562500 0.093750
v 0.062500 4.562500 -0.156250
v 0.062500 4.500000 0.093750
v 0.062500 4.500000 -0.156250
v -0.062500 4.562500 0.093750
v -0.062500 4.562500 -0.156250
v -0.062500 4.500000 0.093750
v -0.062500 4.500000 -0.156250
v 0.062500 4.062500 0.093750
v 0.062500 4.062500 -0.156250
v 0.062500 4.000000 0.093750
v 0.062500 4.000000 -0.156250
v -0.062500 4.062500 0.093750
v -0.062500 4.062500 -0.156250
v -0.062500 4.000000 0.093750
v -0.062500 4.000000 -0.156250
v 0.062500 2.875000 0.218750
v 0.062500 2.875000 0.093750
v -0.062500 2.875000 0.218750
v -0.062500 2.875000 0.093750
v 0.062500 2.875000 -0.156250
v 0.062500 2.875000 -0.218750
v -0.062500 2.875000 -0.156250
v -0.062500 2.875000 -0.218750
v 0.062500 3.562500 0.093750
v 0.062500 3.562500 -0.156250
v 0.062500 3.500000 0.093750
v 0.062500 3.500000 -0.156250
v -0.062500 3.562500 0.093750
v -0.062500 3.562500 -0.156250
v -0.062500 3.500000 0.093750
v -0.062500 3.500000 -0.156250
v 0.062500 3.062500 0.093750
v 0.062500 3.062500 -0.156250
v 0.062500 3.000000 0.093750
v 0.062500 3.000000 -0.156250
v -0.062500 3.062500 0.093750
v -0.062500 3.062500 -0.156250
v -0.062500 3.000000 0.093750
v -0.062500 3.000000 -0.156250
v 0.062500 1.875000 0.218750
v 0.062500 1.875000 0.093750
v -0.062500 1.875000 0.218750
v -0.062500 1.875000 0.093750
v 0.062500 1.875000 -0.156250
v 0.062500 1.875000 -0.218750
v -0.062500 1.875000 -0.156250
v -0.062500 1.875000 -0.218750
v 0.062500 2.562500 0.093750
v 0.062500 2.562500 -0.156250
v 0.062500 2.500000 0.093750
v 0.062500 2.500000 -0.156250
v -0.062500 2.562500 0.093750
v -0.062500 2.562500 -0.156250
v -0.062500 2.500000 0.093750
v -0.062500 2.500000 -0.156250
v 0.062500 2.062500 0.093750
v 0.062500 2.062500 -0.156250
v 0.062500 2.000000 0.093750
v 0.062500 2.000000 -0.156250
v -0.062500 2.062500 0.093750
v -0.062500 2.062500 -0.156250
v -0.062500 2.000000 0.093750
v -0.062500 2.000000 -0.156250
v 0.062500 0.875000 0.218750
v 0.062500 0.875000 0.093750
v -0.062500 0.875000 0.218750
v -0.062500 0.875000 0.093750
v 0.062500 0.875000 -0.156250
v 0.062500 0.875000 -0.218750
v -0.062500 0.875000 -0.156250
v -0.062500 0.875000 -0.218750
v 0.062500 1.562500 0.093750
v 0.062500 1.562500 -0.156250
v 0.062500 1.500000 0.093750
v 0.062500 1.500000 -0.156250
v -0.062500 1.562500 0.093750
v -0.062500 1.562500 -0.156250
v -0.062500 1.500000 0.093750
v -0.062500 1.500000 -0.156250
v 0.062500 1.062500 0.093750
v 0.062500 1.062500 -0.156250
v 0.062500 1.000000 0.093750
v 0.062500 1.000000 -0.156250
v -0.062500 1.062500 0.093750
v -0.062500 1.062500 -0.156250
v -0.062500 1.000000 0.093750
v -0.062500 1.000000 -0.156250
v 0.062500 -0.125000 0.218750
v 0.062500 -0.125000 0.093750
v -0.062500 -0.125000 0.218750
v -0.062500 -0.125000 0.093750
v 0.062500 -0.125000 -0.156250
v 0.062500 -0.125000 -0.218750
v -0.062500 -0.125000 -0.156250
v -0.062500 -0.125000 -0.218750
v 0.062500 0.562500 0.093750
v 0.062500 0.562500 -0.156250
v 0.062500 0.500000 0.093750
v 0.062500 0.500000 -0.156250
v -0.062500 0.562500 0.093750
v -0.062500 0.562500 -0.156250
v -0.062500 0.500000 0.093750
v -0.062500 0.500000 -0.156250
v 0.093750 0.062500 0.093750
v 0.093750 0.062500 -0.156250
v 0.093750 0.000000 0.093750
v 0.093750 -0.000000 -0.156250
v -0.093750 0.062500 0.093750
v -0.093750 0.062500 -0.156250
v -0.093750 0.000000 0.093750
v -0.093750 -0.000000 -0.156250
v 0.375000 0.250000 0.375000
v 0.375000 0.250000 -0.375000
v 0.375000 -0.187500 0.375000
v 0.375000 -0.187500 -0.375000
v -0.375000 0.250000 0.375000
v -0.375000 0.250000 -0.375000
v -0.375000 -0.187500 0.375000
v -0.375000 -0.187500 -0.375000
v 0.312500 0.312500 0.250000
v 0.312500 0.312500 -0.250000
v 0.312500 0.250000 0.250000
v 0.312500 0.250000 -0.250000
v -0.312500 0.312500 0.250000
v -0.312500 0.312500 -0.250000
v -0.312500 0.250000 0.250000
v -0.312500 0.250000 -0.250000
v -0.057455 0.711406 -0.162500
v -0.057455 0.711406 -0.212500
v 0.065879 0.666516 -0.162500
v 0.065879 0.666516 -0.212500
v -0.249842 0.182829 -0.162500
v -0.249842 0.182829 -0.212500
v -0.126507 0.137939 -0.162500
v -0.126507 0.137939 -0.212500
v -0.057455 0.711406 0.212500
v -0.057455 0.711406 0.100000
v 0.065879 0.666516 0.212500
v 0.065879 0.666516 0.100000
v -0.249842 0.182829 0.212500
v -0.249842 0.182829 0.100000
v -0.126507 0.137939 0.212500
v -0.126507 0.137939 0.100000
v 0.249842 0.182829 -0.162500
v 0.249842 0.182829 -0.212500
v 0.126507 0.137939 -0.162500
v 0.126507 0.137939 -0.212500
v 0.057455 0.711406 -0.162500
v 0.057455 0.711406 -0.212500
v -0.065879 0.666516 -0.162500
v -0.065879 0.666516 -0.212500
v 0.249842 0.182829 0.212500
v 0.249842 0.182829 0.100000
v 0.126507 0.137939 0.212500
v 0.126507 0.137939 0.100000
v 0.057455 0.711406 0.212500
v 0.057455 0.711406 0.100000
v -0.065879 0.666516 0.212500
v -0.065879 0.666516 0.100000
v 0.296875 1.312500 0.500000
v 0.296875 1.312500 0.125000
v 0.296875 0.500000 0.500000
v 0.296875 0.500000 0.125000
v -0.328125 1.312500 0.500000
v -0.328125 1.312500 0.125000
v -0.328125 0.500000 0.500000
v -0.328125 0.500000 0.125000
v 0.078125 5.906250 -0.500000
v 0.078125 5.906250 -0.531250
v 0.078125 5.750000 -0.500000
v 0.078125 5.750000 -0.531250
v -0.078125 5.906250 -0.500000
v -0.078125 5.906250 -0.531250
v -0.078125 5.750000 -0.500000
v -0.078125 5.750000 -0.531250
v 0.375000 6.250000 -0.437500
v 0.375000 6.250000 -0.500000
v 0.375000 5.000000 -0.437500
v 0.375000 5.000000 -0.500000
v -0.375000 6.250000 -0.437500
v -0.375000 6.250000 -0.500000
v -0.375000 5.000000 -0.437500
v -0.375000 5.000000 -0.500000
v 0.312500 6.250000 -0.312500
v 0.312500 6.250000 -0.437500
v 0.312500 5.000000 -0.312500
v 0.312500 5.000000 -0.437500
v -0.312500 6.250000 -0.312500
v -0.312500 6.250000 -0.437500
v -0.312500 5.000000 -0.312500
v -0.312500 5.000000 -0.437500
v 0.000000 5.828125 -0.534375
v 0.025120 5.921875 -0.534375
v 0.068630 5.896755 -0.534375
v 0.093750 5.853245 -0.534375
v 0.093750 5.803005 -0.534375
v 0.068630 5.759495 -0.534375
v 0.025120 5.734375 -0.534375
v -0.025120 5.734375 -0.534375
v -0.068630 5.759495 -0.534375
v -0.093750 5.803005 -0.534375
v -0.093750 5.853245 -0.534375
v -0.068630 5.896755 -0.534375
v -0.025120 5.921875 -0.534375
v 0.027214 5.929688 -0.500000
v 0.027214 5.929688 -0.562500
v 0.019800 5.902020 -0.500000
v 0.019800 5.902020 -0.562500
v 0.074349 5.902474 -0.500000
v 0.074349 5.902474 -0.562500
v 0.054095 5.882220 -0.500000
v 0.054095 5.882220 -0.562500
v 0.101562 5.855339 -0.500000
v 0.101562 5.855339 -0.562500
v 0.073895 5.847925 -0.500000
v 0.073895 5.847925 -0.562500
v 0.101562 5.800911 -0.500000
v 0.101562 5.800911 -0.562500
v 0.073895 5.808325 -0.500000
v 0.073895 5.808325 -0.562500
v 0.074349 5.753776 -0.500000
v 0.074349 5.753776 -0.562500
v 0.054095 5.774030 -0.500000
v 0.054095 5.774030 -0.562500
v 0.027214 5.726562 -0.500000
v 0.027214 5.726562 -0.562500
v 0.019800 5.754230 -0.500000
v 0.019800 5.754230 -0.562500
v -0.027214 5.726562 -0.500000
v -0.027214 5.726562 -0.562500
v -0.019800 5.754230 -0.500000
v -0.019800 5.754230 -0.562500
v -0.074349 5.753776 -0.500000
v -0.074349 5.753776 -0.562500
v -0.054095 5.774030 -0.500000
v -0.054095 5.774030 -0.562500
v -0.101562 5.800911 -0.500000
v -0.101562 5.800911 -0.562500
v -0.073895 5.808325 -0.500000
v -0.073895 5.808325 -0.562500
v -0.101562 5.855339 -0.500000
v -0.101562 5.855339 -0.562500
v -0.073895 5.847925 -0.500000
v -0.073895 5.847925 -0.562500
v -0.074349 5.902474 -0.500000
v -0.074349 5.902474 -0.562500
v -0.054095 5.882220 -0.500000
v -0.054095 5.882220 -0.562500
v -0.027214 5.929688 -0.500000
v -0.027214 5.929688 -0.562500
v -0.019800 5.902020 -0.500000
v -0.019800 5.902020 -0.562500
v 0.062500 5.965625 -0.500000
v 0.062500 5.965625 -0.937500
v 0.062500 5.934375 -0.500000
v 0.062500 5.934375 -0.937500
v -0.062500 5.965625 -0.500000
v -0.062500 5.965625 -0.937500
v -0.062500 5.934375 -0.500000
v -0.062500 5.934375 -0.937500
v -0.128791 5.856250 -0.500000
v -0.128791 5.856250 -0.562500
v -0.128791 5.792639 -0.500000
v -0.128791 5.792639 -0.562500
v -0.160041 5.856250 -0.500000
v -0.160041 5.856250 -0.562500
v -0.160041 5.792639 -0.500000
v -0.160041 5.792639 -0.562500
v 0.159375 5.856250 -0.500000
v 0.159375 5.856250 -0.562500
v 0.159375 5.792639 -0.500000
v 0.159375 5.792639 -0.562500
v 0.128125 5.856250 -0.500000
v 0.128125 5.856250 -0.562500
v 0.128125 5.792639 -0.500000
v 0.128125 5.792639 -0.562500
v 0.000000 5.578125 -0.534375
v 0.025120 5.671875 -0.534375
v 0.068630 5.646755 -0.534375
v 0.093750 5.603245 -0.534375
v 0.093750 5.553005 -0.534375
v 0.068630 5.509495 -0.534375
v 0.025120 5.484375 -0.534375
v -0.025120 5.484375 -0.534375
v -0.068630 5.509495 -0.534375
v -0.093750 5.553005 -0.534375
v -0.093750 5.603245 -0.534375
v -0.068630 5.646755 -0.534375
v -0.025120 5.671875 -0.534375
v 0.027214 5.679688 -0.500000
v 0.027214 5.679688 -0.562500
v 0.019800 5.652020 -0.500000
v 0.019800 5.652020 -0.562500
v 0.074349 5.652474 -0.500000
v 0.074349 5.652474 -0.562500
v 0.054095 5.632220 -0.500000
v 0.054095 5.632220 -0.562500
v 0.101562 5.605339 -0.500000
v 0.101562 5.605339 -0.562500
v 0.073895 5.597925 -0.500000
v 0.073895 5.597925 -0.562500
v 0.101562 5.550911 -0.500000
v 0.101562 5.550911 -0.562500
v 0.073895 5.558325 -0.500000
v 0.073895 5.558325 -0.562500
v 0.074349 5.503776 -0.500000
v 0.074349 5.503776 -0.562500
v 0.054095 5.524030 -0.500000
v 0.054095 5.524030 -0.562500
v 0.027214 5.476562 -0.500000
v 0.027214 5.476562 -0.562500
v 0.019800 5.504230 -0.500000
v 0.019800 5.504230 -0.562500
v -0.027214 5.476562 -0.500000
v -0.027214 5.476562 -0.562500
v -0.019800 5.504230 -0.500000
v -0.019800 5.504230 -0.562500
v -0.074349 5.503776 -0.500000
v -0.074349 5.503776 -0.562500
v -0.054095 5.524030 -0.500000
v -0.054095 5.524030 -0.562500
v -0.101562 5.550911 -0.500000
v -0.101562 5.550911 -0.562500
v -0.073895 5.558325 -0.500000
v -0.073895 5.558325 -0.562500
v -0.101562 5.605339 -0.500000
v -0.101562 5.605339 -0.562500
v -0.073895 5.597925 -0.500000
v -0.073895 5.597925 -0.562500
v -0.074349 5.652474 -0.500000
v -0.074349 5.652474 -0.562500
v -0.054095 5.632220 -0.500000
v -0.054095 5.632220 -0.562500
v -0.027214 5.679688 -0.500000
v -0.027214 5.679688 -0.562500
v -0.019800 5.652020 -0.500000
v -0.019800 5.652020 -0.562500
v 0.062500 5.715625 -0.500000
v 0.062500 5.715625 -0.937500
v 0.062500 5.684375 -0.500000
v 0.062500 5.684375 -0.937500
v -0.062500 5.715625 -0.500000
v -0.062500 5.715625 -0.937500
v -0.062500 5.684375 -0.500000
v -0.062500 5.684375 -0.937500
v -0.128791 5.606250 -0.500000
v -0.128791 5.606250 -0.562500
v -0.128791 5.542639 -0.500000
v -0.128791 5.542639 -0.562500
v -0.160041 5.606250 -0.500000
v -0.160041 5.606250 -0.562500
v -0.160041 5.542639 -0.500000
v -0.160041 5.542639 -0.562500
v 0.159375 5.606250 -0.500000
v 0.159375 5.606250 -0.562500
v 0.159375 5.542639 -0.500000
v 0.159375 5.542639 -0.562500
v 0.128125 5.606250 -0.500000
v 0.128125 5.606250 -0.562500
v 0.128125 5.542639 -0.500000
v 0.128125 5.542639 -0.562500
v 0.265625 5.250000 -0.500000
v 0.265625 5.250000 -0.687500
v 0.265625 5.218750 -0.500000
v 0.265625 5.218750 -0.687500
v 0.171875 5.250000 -0.500000
v 0.171875 5.250000 -0.687500
v 0.171875 5.218750 -0.500000
v 0.171875 5.218750 -0.687500
v 0.218750 5.156250 -0.525000
v 0.233404 5.101562 -0.525000
v 0.258784 5.116216 -0.525000
v 0.273438 5.141596 -0.525000
v 0.273438 5.170904 -0.525000
v 0.258784 5.196284 -0.525000
v 0.233404 5.210938 -0.525000
v 0.204096 5.210938 -0.525000
v 0.178716 5.196284 -0.525000
v 0.164062 5.170904 -0.525000
v 0.164062 5.141596 -0.525000
v 0.178716 5.116216 -0.525000
v 0.204096 5.101562 -0.525000
v 0.235497 5.093750 -0.546875
v 0.235497 5.093750 -0.484375
v 0.227714 5.122795 -0.546875
v 0.227714 5.122795 -0.484375
v 0.264503 5.110497 -0.546875
v 0.264503 5.110497 -0.484375
v 0.243241 5.131759 -0.546875
v 0.243241 5.131759 -0.484375
v 0.281250 5.139503 -0.546875
v 0.281250 5.139503 -0.484375
v 0.252205 5.147285 -0.546875
v 0.252205 5.147285 -0.484375
v 0.281250 5.172997 -0.546875
v 0.281250 5.172997 -0.484375
v 0.252205 5.165215 -0.546875
v 0.252205 5.165215 -0.484375
v 0.264503 5.202003 -0.546875
v 0.264503 5.202003 -0.484375
v 0.243241 5.180741 -0.546875
v 0.243241 5.180741 -0.484375
v 0.235497 5.218750 -0.546875
v 0.235497 5.218750 -0.484375
v 0.227714 5.189705 -0.546875
v 0.227714 5.189705 -0.484375
v 0.202003 5.218750 -0.546875
v 0.202003 5.218750 -0.484375
v 0.209786 5.189705 -0.546875
v 0.209786 5.189705 -0.484375
v 0.172997 5.202003 -0.546875
v 0.172997 5.202003 -0.484375
v 0.194259 5.180741 -0.546875
v 0.194259 5.180741 -0.484375
v 0.156250 5.172997 -0.546875
v 0.156250 5.172997 -0.484375
v 0.185295 5.165215 -0.546875
v 0.185295 5.165215 -0.484375
v 0.156250 5.139503 -0.546875
v 0.156250 5.139503 -0.484375
v 0.185295 5.147285 -0.546875
v 0.185295 5.147285 -0.484375
v 0.172997 5.110497 -0.546875
v 0.172997 5.110497 -0.484375
v 0.194259 5.131759 -0.546875
v 0.194259 5.131759 -0.484375
v 0.202003 5.093750 -0.546875
v 0.202003 5.093750 -0.484375
v 0.209786 5.122795 -0.546875
v 0.209786 5.122795 -0.484375
v 0.156629 5.187311 -0.490625
v 0.156629 5.187311 -0.568750
v 0.156629 5.124811 -0.490625
v 0.156629 5.124811 -0.568750
v 0.125379 5.187311 -0.490625
v 0.125379 5.187311 -0.568750
v 0.125379 5.124811 -0.490625
v 0.125379 5.124811 -0.568750
v 0.312879 5.187311 -0.490625
v 0.312879 5.187311 -0.568750
v 0.312879 5.124811 -0.490625
v 0.312879 5.124811 -0.568750
v 0.281629 5.187311 -0.490625
v 0.281629 5.187311 -0.568750
v 0.281629 5.124811 -0.490625
v 0.281629 5.124811 -0.568750
v 0.125000 5.187500 -0.500000
v 0.125000 5.187500 -0.568750
v 0.156250 5.187500 -0.500000
v 0.156250 5.187500 -0.568750
v 0.312500 5.187500 -0.500000
v 0.312500 5.187500 -0.571875
v 0.281250 5.187500 -0.500000
v 0.281250 5.187500 -0.571875
v 0.265625 6.125000 -0.500000
v 0.265625 6.125000 -0.687500
v 0.265625 6.093750 -0.500000
v 0.265625 6.093750 -0.687500
v 0.171875 6.125000 -0.500000
v 0.171875 6.125000 -0.687500
v 0.171875 6.093750 -0.500000
v 0.171875 6.093750 -0.687500
v 0.218750 6.031250 -0.525000
v 0.233404 5.976562 -0.525000
v 0.258784 5.991216 -0.525000
v 0.273438 6.016596 -0.525000
v 0.273438 6.045904 -0.525000
v 0.258784 6.071284 -0.525000
v 0.233404 6.085938 -0.525000
v 0.204096 6.085938 -0.525000
v 0.178716 6.071284 -0.525000
v 0.164062 6.045904 -0.525000
v 0.164062 6.016596 -0.525000
v 0.178716 5.991216 -0.525000
v 0.204096 5.976562 -0.525000
v 0.235497 5.968750 -0.546875
v 0.235497 5.968750 -0.484375
v 0.227714 5.997795 -0.546875
v 0.227714 5.997795 -0.484375
v 0.264503 5.985497 -0.546875
v 0.264503 5.985497 -0.484375
v 0.243241 6.006759 -0.546875
v 0.243241 6.006759 -0.484375
v 0.281250 6.014503 -0.546875
v 0.281250 6.014503 -0.484375
v 0.252205 6.022285 -0.546875
v 0.252205 6.022285 -0.484375
v 0.281250 6.047997 -0.546875
v 0.281250 6.047997 -0.484375
v 0.252205 6.040215 -0.546875
v 0.252205 6.040215 -0.484375
v 0.264503 6.077003 -0.546875
v 0.264503 6.077003 -0.484375
v 0.243241 6.055741 -0.546875
v 0.243241 6.055741 -0.484375
v 0.235497 6.093750 -0.546875
v 0.235497 6.093750 -0.484375
v 0.227714 6.064705 -0.546875
v 0.227714 6.064705 -0.484375
v 0.202003 6.093750 -0.546875
v 0.202003 6.093750 -0.484375
v 0.209786 6.064705 -0.546875
v 0.209786 6.064705 -0.484375
v 0.172997 6.077003 -0.546875
v 0.172997 6.077003 -0.484375
v 0.194259 6.055741 -0.546875
v 0.194259 6.055741 -0.484375
v 0.156250 6.047997 -0.546875
v 0.156250 6.047997 -0.484375
v 0.185295 6.040215 -0.546875
v 0.185295 6.040215 -0.484375
v 0.156250 6.014503 -0.546875
v 0.156250 6.014503 -0.484375
v 0.185295 6.022285 -0.546875
v 0.185295 6.022285 -0.484375
v 0.172997 5.985497 -0.546875
v 0.172997 5.985497 -0.484375
v 0.194259 6.006759 -0.546875
v 0.194259 6.006759 -0.484375
v 0.202003 5.968750 -0.546875
v 0.202003 5.968750 -0.484375
v 0.209786 5.997795 -0.546875
v 0.209786 5.997795 -0.484375
v 0.156629 6.062311 -0.490625
v 0.156629 6.062311 -0.568751
v 0.156629 5.999811 -0.490625
v 0.156629 5.999811 -0.568751
v 0.125379 6.062311 -0.490625
v 0.125379 6.062311 -0.568751
v 0.125379 5.999811 -0.490625
v 0.125379 5.999811 -0.568751
v 0.312879 6.062311 -0.490625
v 0.312879 6.062311 -0.568751
v 0.312879 5.999811 -0.490625
v 0.312879 5.999811 -0.568751
v 0.281629 6.062311 -0.490625
v 0.281629 6.062311 -0.568751
v 0.281629 5.999811 -0.490625
v 0.281629 5.999811 -0.568751
v 0.125000 6.062500 -0.500000
v 0.125000 6.062500 -0.568751
v 0.156250 6.062500 -0.500000
v 0.156250 6.062500 -0.568751
v 0.312500 6.062500 -0.500000
v 0.312500 6.062500 -0.571875
v 0.281250 6.062500 -0.500000
v 0.281250 6.062500 -0.571875
v 0.015625 5.250000 -0.500000
v 0.015625 5.250000 -0.687500
v 0.015625 5.218750 -0.500000
v 0.015625 5.218750 -0.687500
v -0.078125 5.250000 -0.500000
v -0.078125 5.250000 -0.687500
v -0.078125 5.218750 -0.500000
v -0.078125 5.218750 -0.687500
v -0.031250 5.156250 -0.525000
v -0.016596 5.101562 -0.525000
v 0.008784 5.116216 -0.525000
v 0.023438 5.141596 -0.525000
v 0.023438 5.170904 -0.525000
v 0.008784 5.196284 -0.525000
v -0.016596 5.210938 -0.525000
v -0.045904 5.210938 -0.525000
v -0.071284 5.196284 -0.525000
v -0.085938 5.170904 -0.525000
v -0.085938 5.141596 -0.525000
v -0.071284 5.116216 -0.525000
v -0.045904 5.101562 -0.525000
v -0.014503 5.093750 -0.546875
v -0.014503 5.093750 -0.484375
v -0.022286 5.122795 -0.546875
v -0.022286 5.122795 -0.484375
v 0.014503 5.110497 -0.546875
v 0.014503 5.110497 -0.484375
v -0.006759 5.131759 -0.546875
v -0.006759 5.131759 -0.484375
v 0.031250 5.139503 -0.546875
v 0.031250 5.139503 -0.484375
v 0.002205 5.147285 -0.546875
v 0.002205 5.147285 -0.484375
v 0.031250 5.172997 -0.546875
v 0.031250 5.172997 -0.484375
v 0.002205 5.165215 -0.546875
v 0.002205 5.165215 -0.484375
v 0.014503 5.202003 -0.546875
v 0.014503 5.202003 -0.484375
v -0.006759 5.180741 -0.546875
v -0.006759 5.180741 -0.484375
v -0.014503 5.218750 -0.546875
v -0.014503 5.218750 -0.484375
v -0.022286 5.189705 -0.546875
v -0.022286 5.189705 -0.484375
v -0.047997 5.218750 -0.546875
v -0.047997 5.218750 -0.484375
v -0.040214 5.189705 -0.546875
v -0.040214 5.189705 -0.484375
v -0.077003 5.202003 -0.546875
v -0.077003 5.202003 -0.484375
v -0.055741 5.180741 -0.546875
v -0.055741 5.180741 -0.484375
v -0.093750 5.172997 -0.546875
v -0.093750 5.172997 -0.484375
v -0.064705 5.165215 -0.546875
v -0.064705 5.165215 -0.484375
v -0.093750 5.139503 -0.546875
v -0.093750 5.139503 -0.484375
v -0.064705 5.147285 -0.546875
v -0.064705 5.147285 -0.484375
v -0.077003 5.110497 -0.546875
v -0.077003 5.110497 -0.484375
v -0.055741 5.131759 -0.546875
v -0.055741 5.131759 -0.484375
v -0.047997 5.093750 -0.546875
v -0.047997 5.093750 -0.484375
v -0.040214 5.122795 -0.546875
v -0.040214 5.122795 -0.484375
v -0.093371 5.187311 -0.490625
v -0.093371 5.187311 -0.568750
v -0.093371 5.124811 -0.490625
v -0.093371 5.124811 -0.568750
v -0.124621 5.187311 -0.490625
v -0.124621 5.187311 -0.568750
v -0.124621 5.124811 -0.490625
v -0.124621 5.124811 -0.568750
v 0.062879 5.187311 -0.490625
v 0.062879 5.187311 -0.568750
v 0.062879 5.124811 -0.490625
v 0.062879 5.124811 -0.568750
v 0.031629 5.187311 -0.490625
v 0.031629 5.187311 -0.568750
v 0.031629 5.124811 -0.490625
v 0.031629 5.124811 -0.568750
v -0.125000 5.187500 -0.500000
v -0.125000 5.187500 -0.568750
v -0.093750 5.187500 -0.500000
v -0.093750 5.187500 -0.568750
v 0.062500 5.187500 -0.500000
v 0.062500 5.187500 -0.571875
v 0.031250 5.187500 -0.500000
v 0.031250 5.187500 -0.571875
v 0.015625 5.437500 -0.500000
v 0.015625 5.437500 -0.687500
v 0.015625 5.406250 -0.500000
v 0.015625 5.406250 -0.687500
v -0.078125 5.437500 -0.500000
v -0.078125 5.437500 -0.687500
v -0.078125 5.406250 -0.500000
v -0.078125 5.406250 -0.687500
v -0.031250 5.343750 -0.525000
v -0.016596 5.289062 -0.525000
v 0.008784 5.303716 -0.525000
v 0.023438 5.329096 -0.525000
v 0.023438 5.358404 -0.525000
v 0.008784 5.383784 -0.525000
v -0.016596 5.398438 -0.525000
v -0.045904 5.398438 -0.525000
v -0.071284 5.383784 -0.525000
v -0.085938 5.358404 -0.525000
v -0.085938 5.329096 -0.525000
v -0.071284 5.303716 -0.525000
v -0.045904 5.289062 -0.525000
v -0.014503 5.281250 -0.546875
v -0.014503 5.281250 -0.484375
v -0.022286 5.310295 -0.546875
v -0.022286 5.310295 -0.484375
v 0.014503 5.297997 -0.546875
v 0.014503 5.297997 -0.484375
v -0.006759 5.319259 -0.546875
v -0.006759 5.319259 -0.484375
v 0.031250 5.327003 -0.546875
v 0.031250 5.327003 -0.484375
v 0.002205 5.334785 -0.546875
v 0.002205 5.334785 -0.484375
v 0.031250 5.360497 -0.546875
v 0.031250 5.360497 -0.484375
v 0.002205 5.352715 -0.546875
v 0.002205 5.352715 -0.484375
v 0.014503 5.389503 -0.546875
v 0.014503 5.389503 -0.484375
v -0.006759 5.368241 -0.546875
v -0.006759 5.368241 -0.484375
v -0.014503 5.406250 -0.546875
v -0.014503 5.406250 -0.484375
v -0.022286 5.377205 -0.546875
v -0.022286 5.377205 -0.484375
v -0.047997 5.406250 -0.546875
v -0.047997 5.406250 -0.484375
v -0.040214 5.377205 -0.546875
v -0.040214 5.377205 -0.484375
v -0.077003 5.389503 -0.546875
v -0.077003 5.389503 -0.484375
v -0.055741 5.368241 -0.546875
v -0.055741 5.368241 -0.484375
v -0.093750 5.360497 -0.546875
v -0.093750 5.360497 -0.484375
v -0.064705 5.352715 -0.546875
v -0.064705 5.352715 -0.484375
v -0.093750 5.327003 -0.546875
v -0.093750 5.327003 -0.484375
v -0.064705 5.334785 -0.546875
v -0.064705 5.334785 -0.484375
v -0.077003 5.297997 -0.546875
v -0.077003 5.297997 -0.484375
v -0.055741 5.319259 -0.546875
v -0.055741 5.319259 -0.484375
v -0.047997 5.281250 -0.546875
v -0.047997 5.281250 -0.484375
v -0.040214 5.310295 -0.546875
v -0.040214 5.310295 -0.484375
v -0.093371 5.374811 -0.490625
v -0.093371 5.374811 -0.568750
v -0.093371 5.312311 -0.490625
v -0.093371 5.312311 -0.568750
v -0.124621 5.374811 -0.490625
v -0.124621 5.374811 -0.568750
v -0.124621 5.312311 -0.490625
v -0.124621 5.312311 -0.568750
v 0.062879 5.374811 -0.490625
v 0.062879 5.374811 -0.568750
v 0.062879 5.312311 -0.490625
v 0.062879 5.312311 -0.568750
v 0.031629 5.374811 -0.490625
v 0.031629 5.374811 -0.568750
v 0.031629 5.312311 -0.490625
v 0.031629 5.312311 -0.568750
v -0.125000 5.375000 -0.500000
v -0.125000 5.375000 -0.568750
v -0.093750 5.375000 -0.500000
v -0.093750 5.375000 -0.568750
v 0.062500 5.375000 -0.500000
v 0.062500 5.375000 -0.571875
v 0.031250 5.375000 -0.500000
v 0.031250 5.375000 -0.571875
v 0.203125 5.437500 -0.500000
v 0.203125 5.437500 -0.687500
v 0.203125 5.406250 -0.500000
v 0.203125 5.406250 -0.687500
v 0.109375 5.437500 -0.500000
v 0.109375 5.437500 -0.687500
v 0.109375 5.406250 -0.500000
v 0.109375 5.406250 -0.687500
v 0.156250 5.343750 -0.525000
v 0.170904 5.289062 -0.525000
v 0.196284 5.303716 -0.525000
v 0.210938 5.329096 -0.525000
v 0.210938 5.358404 -0.525000
v 0.196284 5.383784 -0.525000
v 0.170904 5.398438 -0.525000
v 0.141596 5.398438 -0.525000
v 0.116216 5.383784 -0.525000
v 0.101562 5.358404 -0.525000
v 0.101562 5.329096 -0.525000
v 0.116216 5.303716 -0.525000
v 0.141596 5.289062 -0.525000
v 0.172997 5.281250 -0.546875
v 0.172997 5.281250 -0.484375
v 0.165214 5.310295 -0.546875
v 0.165214 5.310295 -0.484375
v 0.202003 5.297997 -0.546875
v 0.202003 5.297997 -0.484375
v 0.180741 5.319259 -0.546875
v 0.180741 5.319259 -0.484375
v 0.218750 5.327003 -0.546875
v 0.218750 5.327003 -0.484375
v 0.189705 5.334785 -0.546875
v 0.189705 5.334785 -0.484375
v 0.218750 5.360497 -0.546875
v 0.218750 5.360497 -0.484375
v 0.189705 5.352715 -0.546875
v 0.189705 5.352715 -0.484375
v 0.202003 5.389503 -0.546875
v 0.202003 5.389503 -0.484375
v 0.180741 5.368241 -0.546875
v 0.180741 5.368241 -0.484375
v 0.172997 5.406250 -0.546875
v 0.172997 5.406250 -0.484375
v 0.165214 5.377205 -0.546875
v 0.165214 5.377205 -0.484375
v 0.139503 5.406250 -0.546875
v 0.139503 5.406250 -0.484375
v 0.147286 5.377205 -0.546875
v 0.147286 5.377205 -0.484375
v 0.110497 5.389503 -0.546875
v 0.110497 5.389503 -0.484375
v 0.131759 5.368241 -0.546875
v 0.131759 5.368241 -0.484375
v 0.093750 5.360497 -0.546875
v 0.093750 5.360497 -0.484375
v 0.122795 5.352715 -0.546875
v 0.122795 5.352715 -0.484375
v 0.093750 5.327003 -0.546875
v 0.093750 5.327003 -0.484375
v 0.122795 5.334785 -0.546875
v 0.122795 5.334785 -0.484375
v 0.110497 5.297997 -0.546875
v 0.110497 5.297997 -0.484375
v 0.131759 5.319259 -0.546875
v 0.131759 5.319259 -0.484375
v 0.139503 5.281250 -0.546875
v 0.139503 5.281250 -0.484375
v 0.147286 5.310295 -0.546875
v 0.147286 5.310295 -0.484375
v 0.094129 5.374811 -0.490625
v 0.094129 5.374811 -0.568750
v 0.094129 5.312311 -0.490625
v 0.094129 5.312311 -0.568750
v 0.250379 5.374811 -0.490625
v 0.250379 5.374811 -0.568750
v 0.250379 5.312311 -0.490625
v 0.250379 5.312311 -0.568750
v 0.219129 5.374811 -0.490625
v 0.219129 5.374811 -0.568750
v 0.219129 5.312311 -0.490625
v 0.219129 5.312311 -0.568750
v 0.062500 5.375000 -0.568750
v 0.093750 5.375000 -0.500000
v 0.093750 5.375000 -0.568750
v 0.250000 5.375000 -0.500000
v 0.250000 5.375000 -0.571875
v 0.218750 5.375000 -0.500000
v 0.218750 5.375000 -0.571875
v -0.171875 5.437500 -0.500000
v -0.171875 5.437500 -0.687500
v -0.171875 5.406250 -0.500000
v -0.171875 5.406250 -0.687500
v -0.265625 5.437500 -0.500000
v -0.265625 5.437500 -0.687500
v -0.265625 5.406250 -0.500000
v -0.265625 5.406250 -0.687500
v -0.218750 5.343750 -0.525000
v -0.204096 5.289062 -0.525000
v -0.178716 5.303716 -0.525000
v -0.164062 5.329096 -0.525000
v -0.164062 5.358404 -0.525000
v -0.178716 5.383784 -0.525000
v -0.204096 5.398438 -0.525000
v -0.233404 5.398438 -0.525000
v -0.258784 5.383784 -0.525000
v -0.273438 5.358404 -0.525000
v -0.273438 5.329096 -0.525000
v -0.258784 5.303716 -0.525000
v -0.233404 5.289062 -0.525000
v -0.202003 5.281250 -0.546875
v -0.202003 5.281250 -0.484375
v -0.209786 5.310295 -0.546875
v -0.209786 5.310295 -0.484375
v -0.172997 5.297997 -0.546875
v -0.172997 5.297997 -0.484375
v -0.194259 5.319259 -0.546875
v -0.194259 5.319259 -0.484375
v -0.156250 5.327003 -0.546875
v -0.156250 5.327003 -0.484375
v -0.185295 5.334785 -0.546875
v -0.185295 5.334785 -0.484375
v -0.156250 5.360497 -0.546875
v -0.156250 5.360497 -0.484375
v -0.185295 5.352715 -0.546875
v -0.185295 5.352715 -0.484375
v -0.172997 5.389503 -0.546875
v -0.172997 5.389503 -0.484375
v -0.194259 5.368241 -0.546875
v -0.194259 5.368241 -0.484375
v -0.202003 5.406250 -0.546875
v -0.202003 5.406250 -0.484375
v -0.209786 5.377205 -0.546875
v -0.209786 5.377205 -0.484375
v -0.235497 5.406250 -0.546875
v -0.235497 5.406250 -0.484375
v -0.227714 5.377205 -0.546875
v -0.227714 5.377205 -0.484375
v -0.264503 5.389503 -0.546875
v -0.264503 5.389503 -0.484375
v -0.243241 5.368241 -0.546875
v -0.243241 5.368241 -0.484375
v -0.281250 5.360497 -0.546875
v -0.281250 5.360497 -0.484375
v -0.252205 5.352715 -0.546875
v -0.252205 5.352715 -0.484375
v -0.281250 5.327003 -0.546875
v -0.281250 5.327003 -0.484375
v -0.252205 5.334785 -0.546875
v -0.252205 5.334785 -0.484375
v -0.264503 5.297997 -0.546875
v -0.264503 5.297997 -0.484375
v -0.243241 5.319259 -0.546875
v -0.243241 5.319259 -0.484375
v -0.235497 5.281250 -0.546875
v -0.235497 5.281250 -0.484375
v -0.227714 5.310295 -0.546875
v -0.227714 5.310295 -0.484375
v -0.280871 5.374811 -0.490625
v -0.280871 5.374811 -0.568750
v -0.280871 5.312311 -0.490625
v -0.280871 5.312311 -0.568750
v -0.312121 5.374811 -0.490625
v -0.312121 5.374811 -0.568750
v -0.312121 5.312311 -0.490625
v -0.312121 5.312311 -0.568750
v -0.155871 5.374811 -0.490625
v -0.155871 5.374811 -0.568750
v -0.155871 5.312311 -0.490625
v -0.155871 5.312311 -0.568750
v -0.312500 5.375000 -0.500000
v -0.312500 5.375000 -0.568750
v -0.281250 5.375000 -0.500000
v -0.281250 5.375000 -0.568750
v -0.125000 5.375000 -0.571875
v -0.156250 5.375000 -0.500000
v -0.156250 5.375000 -0.571875
v 0.059375 4.000672 -0.174553
v 0.059375 4.114629 -0.820833
v 0.059375 3.862183 -0.198973
v 0.059375 3.976140 -0.845253
v -0.059375 4.000672 -0.174553
v -0.059375 4.114629 -0.820833
v -0.059375 3.862183 -0.198973
v -0.059375 3.976140 -0.845253
v 0.062500 4.125000 -0.225000
v 0.062500 4.125000 -0.850000
v 0.062500 4.000000 -0.225000
v 0.062500 4.000000 -0.850000
v -0.062500 4.125000 -0.225000
v -0.062500 4.125000 -0.850000
v -0.062500 4.000000 -0.225000
v -0.062500 4.000000 -0.850000
v 0.171875 4.218750 -0.850000
v 0.171875 4.218750 -0.881250
v 0.171875 3.843750 -0.850000
v 0.171875 3.843750 -0.881250
v -0.171875 4.218750 -0.850000
v -0.171875 4.218750 -0.881250
v -0.171875 3.843750 -0.850000
v -0.171875 3.843750 -0.881250
v 0.062500 3.125000 -0.250000
v 0.062500 3.125000 -0.312500
v 0.062500 1.437500 -0.250000
v 0.062500 1.437500 -0.312500
v -0.062500 3.125000 -0.250000
v -0.062500 3.125000 -0.312500
v -0.062500 1.437500 -0.250000
v -0.062500 1.437500 -0.312500
v 0.062500 3.062500 -0.218750
v 0.062500 3.062500 -0.250000
v 0.062500 2.937500 -0.218750
v 0.062500 2.937500 -0.250000
v -0.062500 3.062500 -0.218750
v -0.062500 3.062500 -0.250000
v -0.062500 2.937500 -0.218750
v -0.062500 2.937500 -0.250000
v 0.062500 1.625000 -0.218750
v 0.062500 1.625000 -0.250000
v 0.062500 1.500000 -0.218750
v 0.062500 1.500000 -0.250000
v -0.062500 1.625000 -0.218750
v -0.062500 1.625000 -0.250000
v -0.062500 1.500000 -0.218750
v -0.062500 1.500000 -0.250000
v 0.250000 5.875000 0.671875
v 0.250000 5.875000 0.640625
v 0.250000 5.000000 0.671875
v 0.250000 5.000000 0.640625
v 0.218750 5.875000 0.671875
v 0.218750 5.875000 0.640625
v 0.218750 5.000000 0.671875
v 0.218750 5.000000 0.640625
v -0.218750 5.875000 0.671875
v -0.218750 5.875000 0.640625
v -0.218750 5.000000 0.671875
v -0.218750 5.000000 0.640625
v -0.250000 5.875000 0.671875
v -0.250000 5.875000 0.640625
v -0.250000 5.000000 0.671875
v -0.250000 5.000000 0.640625
v 0.368750 5.884903 0.300697
v 0.368750 5.879477 0.269922
v 0.368750 5.084747 0.441786
v 0.368750 5.079321 0.411011
v 0.337500 5.884903 0.300697
v 0.337500 5.879477 0.269922
v 0.337500 5.084747 0.441786
v 0.337500 5.079321 0.411011
v 0.368750 5.090997 0.441786
v 0.368750 5.080144 0.411486
v 0.243750 4.961646 0.463492
v 0.243750 4.950793 0.433191
v 0.337500 5.090997 0.441786
v 0.337500 5.080144 0.411486
v 0.212500 4.961646 0.463492
v 0.212500 4.950793 0.433191
v -0.350000 5.090997 0.441786
v -0.350000 5.080144 0.411486
v -0.225000 4.961646 0.463492
v -0.225000 4.950793 0.433191
v -0.381250 5.090997 0.441786
v -0.381250 5.080144 0.411486
v -0.256250 4.961646 0.463492
v -0.256250 4.950793 0.433191
v -0.350000 5.884903 0.300697
v -0.350000 5.879477 0.269922
v -0.350000 5.084747 0.441786
v -0.350000 5.079321 0.411011
v -0.381250 5.884903 0.300697
v -0.381250 5.879477 0.269922
v -0.381250 5.084747 0.441786
v -0.381250 5.079321 0.411011
v 0.312500 5.906250 0.671875
v 0.312500 5.906250 0.640625
v 0.312500 5.875000 0.671875
v 0.312500 5.875000 0.640625
v -0.312500 5.906250 0.671875
v -0.312500 5.906250 0.640625
v -0.312500 5.875000 0.671875
v -0.312500 5.875000 0.640625
v 0.375000 5.818750 -0.343750
v 0.375000 5.818750 -0.437500
v 0.375000 5.000000 -0.343750
v 0.312500 5.818750 -0.343750
v 0.312500 5.818750 -0.437500
v 0.312500 5.000000 -0.343750
v -0.312500 5.818750 -0.343750
v -0.312500 5.818750 -0.437500
v -0.312500 5.000000 -0.343750
v -0.375000 5.818750 -0.343750
v -0.375000 5.818750 -0.437500
v -0.375000 5.000000 -0.343750
v -0.343750 5.906250 0.562500
v -0.343750 5.906250 -0.000000
v -0.343750 5.875000 0.562500
v -0.343750 5.875000 -0.000000
v -0.375000 5.906250 0.562500
v -0.375000 5.906250 -0.000000
v -0.375000 5.875000 0.562500
v -0.375000 5.875000 -0.000000
v 0.250000 5.000000 0.687500
v 0.250000 5.000000 0.218750
v 0.250000 4.937500 0.687500
v 0.250000 4.937500 0.218750
v -0.250000 5.000000 0.687500
v -0.250000 5.000000 0.218750
v -0.250000 4.937500 0.687500
v -0.250000 4.937500 0.218750
v -0.312500 5.906250 0.656250
v -0.312500 5.906250 0.562500
v -0.312500 5.875000 0.656250
v -0.312500 5.875000 0.562500
v -0.375000 5.906250 0.656250
v -0.375000 5.875000 0.656250
v 0.375000 5.906250 0.562500
v 0.375000 5.906250 -0.000000
v 0.375000 5.875000 0.562500
v 0.375000 5.875000 -0.000000
v 0.343750 5.906250 0.562500
v 0.343750 5.906250 -0.000000
v 0.343750 5.875000 0.562500
v 0.343750 5.875000 -0.000000
v 0.375000 5.906250 0.656250
v 0.375000 5.875000 0.656250
v 0.312500 5.906250 0.656250
v 0.312500 5.906250 0.562500
v 0.312500 5.875000 0.656250
v 0.312500 5.875000 0.562500
v 0.375000 4.937500 -0.343750
v 0.375000 4.937500 -0.437500
v -0.375000 4.937500 -0.343750
v -0.375000 4.937500 -0.437500
v 0.125000 4.718750 -0.343750
v 0.125000 4.718750 -0.437500
v 0.125000 4.687500 -0.343750
v 0.125000 4.687500 -0.437500
v -0.125000 4.718750 -0.343750
v -0.125000 4.718750 -0.437500
v -0.125000 4.687500 -0.343750
v -0.125000 4.687500 -0.437500
v 0.062500 4.718750 -0.218750
v 0.062500 4.718750 -0.343750
v 0.062500 4.687500 -0.218750
v 0.062500 4.687500 -0.343750
v -0.062500 4.718750 -0.218750
v -0.062500 4.718750 -0.343750
v -0.062500 4.687500 -0.218750
v -0.062500 4.687500 -0.343750
v -0.102903 4.709597 -0.337500
v -0.102903 4.709597 -0.431250
v -0.125000 4.687500 -0.337500
v -0.125000 4.687500 -0.431250
v -0.352903 4.959597 -0.337500
v -0.352903 4.959597 -0.431250
v -0.375000 4.937500 -0.337500
v -0.375000 4.937500 -0.431250
v 0.352903 4.959597 -0.337500
v 0.352903 4.959597 -0.431250
v 0.375000 4.937500 -0.337500
v 0.375000 4.937500 -0.431250
v 0.102903 4.709597 -0.337500
v 0.102903 4.709597 -0.431250
v 0.125000 4.687500 -0.337500
v 0.125000 4.687500 -0.431250
v 0.068750 5.062500 -0.187500
v 0.068750 5.062500 -0.312500
v 0.068750 4.937500 -0.187500
v 0.068750 4.937500 -0.312500
v -0.068750 5.062500 -0.187500
v -0.068750 5.062500 -0.312500
v -0.068750 4.937500 -0.187500
v -0.068750 4.937500 -0.312500
v -0.343750 5.812500 -0.218750
v -0.343750 5.812500 -0.406250
v -0.343750 5.781250 -0.218750
v -0.343750 5.781250 -0.406250
v -0.406250 5.812500 -0.218750
v -0.406250 5.812500 -0.406250
v -0.406250 5.781250 -0.218750
v -0.406250 5.781250 -0.406250
v -0.343750 5.156250 -0.218750
v -0.343750 5.156250 -0.406250
v -0.343750 5.125000 -0.218750
v -0.343750 5.125000 -0.406250
v -0.406250 5.156250 -0.218750
v -0.406250 5.156250 -0.406250
v -0.406250 5.125000 -0.218750
v -0.406250 5.125000 -0.406250
v 0.406250 5.781250 -0.187500
v 0.406250 5.781250 -0.218750
v 0.406250 5.156250 -0.187500
v 0.406250 5.156250 -0.218750
v 0.343750 5.781250 -0.187500
v 0.343750 5.781250 -0.218750
v 0.343750 5.156250 -0.187500
v 0.343750 5.156250 -0.218750
v 0.406250 5.125000 -0.218750
v 0.343750 5.125000 -0.218750
v 0.406250 5.812500 -0.218750
v 0.406250 5.812500 -0.406250
v 0.406250 5.781250 -0.406250
v 0.343750 5.812500 -0.218750
v 0.343750 5.812500 -0.406250
v 0.343750 5.781250 -0.406250
v -0.343750 5.781250 -0.187500
v -0.406250 5.781250 -0.187500
v 0.406250 5.156250 -0.406250
v 0.406250 5.125000 -0.406250
v 0.343750 5.156250 -0.406250
v 0.343750 5.125000 -0.406250
v -0.343750 5.156250 -0.187500
v -0.406250 5.156250 -0.187500
v 0.250000 5.000000 0.681250
v 0.062500 4.937500 0.218750
v 0.250000 4.937500 0.681250
v 0.062500 4.875000 0.218750
v 0.187500 5.000000 0.681250
v 0.000000 4.937500 0.218750
v 0.187500 4.937500 0.681250
v 0.000000 4.875000 0.218750
v -0.187500 5.000000 0.681250
v -0.187500 4.937500 0.681250
v -0.250000 5.000000 0.681250
v -0.062500 4.937500 0.218750
v -0.250000 4.937500 0.681250
v -0.062500 4.875000 0.218750
vn 1.0000 -0.0000 -0.0000
vn -1.0000 -0.0000 -0.0000
vn -0.0000 1.0000 -0.0000
vn -0.0000 -1.0000 -0.0000
vn -0.0000 -0.0000 1.0000
vn -0.0000 -0.0000 -1.0000
vn 0.3420 0.9397 -0.0000
vn -0.3420 -0.9397 -0.0000
vn -0.9397 0.3420 -0.0000
vn 0.9397 -0.3420 -0.0000
vn 0.3420 -0.9397 -0.0000
vn -0.3420 0.9397 -0.0000
vn 0.9397 0.3420 -0.0000
vn -0.9397 -0.3420 -0.0000
vn 0.5000 0.8660 -0.0000
vn -0.5000 -0.8660 -0.0000
vn 0.8660 0.5000 -0.0000
vn -0.8660 -0.5000 -0.0000
vn 0.8660 -0.5000 -0.0000
vn -0.8660 0.5000 -0.0000
vn 0.5000 -0.8660 -0.0000
vn -0.5000 0.8660 -0.0000
vn 0.7486 0.6630 -0.0000
vn -0.7657 -0.6432 -0.0000
vn -0.0001 -0.9600 -0.2799
vn -0.0002 -0.9600 -0.2800
vn -0.0001 -0.9600 -0.2800
vn 0.7625 -0.6470 -0.0000
vn -0.7463 0.6656 -0.0000
vn 0.0002 -0.9790 -0.2039
vn 0.0001 -0.9790 -0.2039
vn 0.0001 -0.9790 -0.2040
vn -0.8000 0.6000 -0.0000
vn 0.8944 -0.4472 -0.0000
vn -0.9302 0.0002 -0.3671
vn -0.9302 0.0001 -0.3672
vn -0.9302 0.0001 -0.3671
vn 0.8000 0.6000 -0.0000
vn -0.8944 -0.4472 -0.0000
vn 0.9267 0.0002 -0.3758
vn 0.9267 0.0001 -0.3757
vn 0.9268 0.0001 -0.3757
vn -0.0000 0.9848 0.1736
vn -0.0000 -0.9848 -0.1736
vn -0.0000 -0.1736 0.9848
vn -0.0000 0.1736 -0.9848
vn -0.0000 0.9848 -0.1736
vn -0.0000 -0.9848 0.1736
vn -0.0000 0.1736 0.9848
vn -0.0000 -0.1736 -0.9848
vn 0.7184 -0.6549 0.2346
vn -0.7184 0.6549 -0.2346
vn -0.0000 0.9414 -0.3372
vn -0.0000 -0.9414 0.3372
vn -0.0000 0.1655 0.9862
vn -0.0000 -0.1655 -0.9862
vn 0.7184 0.6549 -0.2346
vn -0.7184 -0.6549 0.2346
vn 0.7071 -0.7071 -0.0000
vn -0.7071 0.7071 -0.0000
vn 0.7071 0.7071 -0.0000
vn -0.7071 -0.7071 -0.0000
vn -0.0000 -0.7071 0.7071
vn 0.5470 0.7734 -0.3204
vn 0.5470 -0.3204 0.7734
vn 0.5774 -0.5773 -0.5774
vn -0.5470 0.7734 -0.3204
vn -0.5774 -0.5774 -0.5773
vn -0.5470 -0.3204 0.7734
vn 0.5774 -0.5774 -0.5773
vn 0.5469 -0.3205 0.7734
vn -0.5469 -0.3205 0.7734
vn -0.5773 -0.5774 -0.5774
vn 0.9267 -0.0000 -0.3757
vn -0.9267 -0.0000 0.3757
vn -0.0000 0.9910 -0.1339
vn -0.0000 -0.9910 0.1339
vn 0.9267 -0.0000 0.3757
vn -0.9267 -0.0000 -0.3757
vt 0.031250 0.750000
vt 0.031250 1.000000
vt 0.000000 1.000000
vt 0.000000 0.750000
vt 0.046875 0.968750
vt 0.046875 1.000000
vt 0.000000 0.968750
vt 0.046875 0.750000
vt 0.171875 0.937500
vt 0.171875 0.953125
vt 0.109375 0.953125
vt 0.109375 0.937500
vt 0.028125 0.937500
vt 0.028125 1.000000
vt 0.000000 0.937500
vt 0.028125 0.984375
vt 0.000000 0.984375
vt 0.156250 0.906250
vt 0.156250 0.921875
vt 0.093750 0.921875
vt 0.093750 0.906250
vt 0.046875 0.937500
vt 0.140625 0.906250
vt 0.140625 0.921875
vt 0.039062 0.968750
vt 0.039062 1.000000
vt 0.007812 1.000000
vt 0.007812 0.968750
vt 0.039062 0.750000
vt 0.007812 0.750000
vt 0.015625 1.000000
vt 0.015625 0.750000
vt 0.039062 0.984375
vt 0.007812 0.984375
vt 0.187500 0.578125
vt 0.187500 0.687500
vt 0.000000 0.687500
vt 0.000000 0.578125
vt 0.187500 0.500000
vt 0.000000 0.500000
vt 0.140625 0.984375
vt 0.140625 1.000000
vt 0.015625 0.984375
vt 0.156250 0.859375
vt 0.156250 0.984375
vt 0.000000 0.859375
vt 0.156250 1.000000
vt 0.020312 0.967188
vt 0.020312 1.000000
vt 0.007812 0.967188
vt 0.140625 0.979688
vt 0.140625 0.992188
vt 0.000000 0.992188
vt 0.000000 0.979688
vt 0.140625 0.967188
vt 0.000000 0.967188
vt 0.028125 0.967188
vt 0.035937 0.967188
vt 0.035937 1.000000
vt 0.140625 0.964063
vt 0.000000 0.964063
vt 0.140625 0.971875
vt 0.000000 0.971875
vt 0.515625 0.843750
vt 0.515625 1.000000
vt 0.437500 1.000000
vt 0.437500 0.843750
vt 0.390625 0.750000
vt 0.390625 0.828125
vt 0.265625 0.828125
vt 0.265625 0.750000
vt 0.390625 0.843750
vt 0.390625 1.000000
vt 0.265625 1.000000
vt 0.265625 0.843750
vt 0.000000 0.148438
vt 0.000000 0.187500
vt 0.015625 0.148438
vt 0.015625 0.187500
vt 0.039062 0.187500
vt 0.039062 0.148438
vt 0.890625 0.265625
vt 0.890625 0.343750
vt 0.812500 0.343750
vt 0.812500 0.265625
vt 0.703125 0.078125
vt 0.703125 0.390625
vt 0.687500 0.390625
vt 0.687500 0.078125
vt 0.531250 0.078125
vt 0.531250 0.390625
vt 0.515625 0.390625
vt 0.515625 0.078125
vt 0.703125 0.375000
vt 0.515625 0.375000
vt 0.703125 0.093750
vt 0.515625 0.093750
vt 0.468750 0.468750
vt 0.468750 0.734375
vt 0.437500 0.734375
vt 0.437500 0.468750
vt 0.312500 0.468750
vt 0.312500 0.734375
vt 0.281250 0.734375
vt 0.281250 0.468750
vt 0.468750 0.703125
vt 0.281250 0.703125
vt 0.468750 0.500000
vt 0.281250 0.500000
vt 0.031250 0.109375
vt 0.031250 0.125000
vt 0.000000 0.125000
vt 0.000000 0.109375
vt 0.324762 0.675237
vt 0.375000 0.762263
vt 0.187500 0.812500
vt 0.375000 0.862737
vt 0.324762 0.949763
vt 0.237738 1.000000
vt 0.137262 1.000000
vt 0.050237 0.949763
vt 0.000000 0.862737
vt 0.000000 0.762263
vt 0.050237 0.675237
vt 0.137262 0.625000
vt 0.237738 0.625000
vt 0.296875 0.343750
vt 0.310481 0.343750
vt 0.310481 0.359375
vt 0.296875 0.359375
vt 0.306775 0.359375
vt 0.306775 0.343750
vt 0.296875 0.357521
vt 0.296875 0.347621
vt 0.303793 0.345768
vt 0.303792 0.359375
vt 0.296875 0.352457
vt 0.310482 0.352457
vt 0.308628 0.359375
vt 0.298728 0.359375
vt 0.296875 0.357522
vt 0.296875 0.347622
vt 0.303792 0.345768
vt 0.303793 0.359375
vt 0.308629 0.359375
vt 0.298729 0.359375
vt 0.296875 0.357522
vt 0.296875 0.347622
vt 0.303792 0.345769
vt 0.303792 0.359375
vt 0.298728 0.359375
vt 0.296875 0.352457
vt 0.310482 0.352458
vt 0.303793 0.345768
vt 0.303793 0.359375
vt 0.296875 0.357521
vt 0.296875 0.347621
vt 0.308629 0.359375
vt 0.298729 0.359375
vt 0.296875 0.352458
vt 0.310482 0.352457
vt 0.296875 0.357522
vt 0.308628 0.359375
vt 0.298728 0.359375
vt 0.296875 0.352458
vt 0.310481 0.352458
vt 0.298728 0.352458
vt 0.308628 0.352458
vt 0.303793 0.347622
vt 0.303793 0.357522
vt 0.296876 0.345768
vt 0.310482 0.359375
vt 0.298729 0.352457
vt 0.308629 0.352458
vt 0.303793 0.347621
vt 0.303793 0.357521
vt 0.296876 0.359375
vt 0.296875 0.345768
vt 0.298728 0.352458
vt 0.308628 0.352457
vt 0.303792 0.347622
vt 0.303792 0.357522
vt 0.296875 0.345769
vt 0.298729 0.352457
vt 0.308629 0.352457
vt 0.296875 0.359374
vt 0.303793 0.347622
vt 0.303792 0.357522
vt 0.298728 0.352457
vt 0.308628 0.352457
vt 0.310482 0.359374
vt 0.303792 0.347621
vt 0.303793 0.357521
vt 0.343750 0.351562
vt 0.343750 0.359375
vt 0.312500 0.359375
vt 0.312500 0.351562
vt 0.312500 0.375000
vt 0.281250 0.375000
vt 0.359375 0.367188
vt 0.359375 0.375000
vt 0.328125 0.375000
vt 0.328125 0.367188
vt 0.296875 0.375000
vt 0.296875 0.367188
vt 0.406250 0.452847
vt 0.406250 0.468750
vt 0.390625 0.468750
vt 0.390625 0.452847
vt 0.437500 0.452847
vt 0.421875 0.468750
vt 0.421875 0.452847
vt 0.367802 0.406250
vt 0.367802 0.421875
vt 0.359990 0.421875
vt 0.359990 0.406250
vt 0.367802 0.359375
vt 0.367802 0.375000
vt 0.359990 0.375000
vt 0.359990 0.359375
vt 0.399052 0.390347
vt 0.399052 0.406250
vt 0.391240 0.406250
vt 0.391240 0.390347
vt 0.359375 0.390347
vt 0.359375 0.406250
vt 0.351562 0.406250
vt 0.351562 0.390347
vt 0.375000 0.343472
vt 0.375000 0.359375
vt 0.359375 0.359375
vt 0.359375 0.343472
vt 0.367802 0.453125
vt 0.367802 0.468750
vt 0.359990 0.468750
vt 0.359990 0.453125
vt 0.399052 0.421875
vt 0.399052 0.437500
vt 0.391240 0.437500
vt 0.391240 0.421875
vt 0.414677 0.452847
vt 0.414677 0.468750
vt 0.406865 0.468750
vt 0.406865 0.452847
vt 0.343750 0.343472
vt 0.335938 0.359375
vt 0.335938 0.343472
vt 0.375000 0.421875
vt 0.421875 0.421875
vt 0.375000 0.468750
vt 0.343750 0.343750
vt 0.343750 0.390625
vt 0.296875 0.390625
vt 0.375000 0.375000
vt 0.328125 0.359375
vt 0.390625 0.453125
vt 0.343750 0.453125
vt 0.343750 0.437500
vt 0.390625 0.437500
vt 0.312500 0.406250
vt 0.359375 0.453125
vt 0.312500 0.453125
vt 0.390625 0.390625
vt 0.375000 0.328125
vt 0.375000 0.343750
vt 0.328125 0.343750
vt 0.328125 0.328125
vt 0.312500 0.437500
vt 0.359375 0.437500
vt 0.265625 0.453125
vt 0.265625 0.437500
vt 0.296875 0.406250
vt 0.296875 0.453125
vt 0.265625 0.406250
vt 0.296875 0.437500
vt 0.210781 0.797031
vt 0.125000 0.882812
vt 0.242188 0.851406
vt 0.242188 0.914219
vt 0.210781 0.968594
vt 0.156406 1.000000
vt 0.093594 1.000000
vt 0.039219 0.968594
vt 0.007812 0.914219
vt 0.007812 0.851406
vt 0.039219 0.797031
vt 0.093594 0.765625
vt 0.156406 0.765625
vt 0.281250 0.343750
vt 0.289622 0.343750
vt 0.289622 0.359375
vt 0.281250 0.359375
vt 0.285731 0.359375
vt 0.285731 0.343750
vt 0.281250 0.357427
vt 0.281250 0.352945
vt 0.288514 0.351001
vt 0.288510 0.359375
vt 0.281250 0.352112
vt 0.289624 0.352112
vt 0.287677 0.359375
vt 0.283195 0.359373
vt 0.281250 0.357431
vt 0.281250 0.352948
vt 0.288510 0.351001
vt 0.288514 0.359375
vt 0.287680 0.359373
vt 0.283197 0.359375
vt 0.281250 0.357430
vt 0.281250 0.352948
vt 0.288511 0.351003
vt 0.288511 0.359375
vt 0.287677 0.359375
vt 0.283194 0.359375
vt 0.281250 0.352111
vt 0.289624 0.352115
vt 0.288513 0.351001
vt 0.288513 0.359375
vt 0.281250 0.357428
vt 0.281252 0.352945
vt 0.287680 0.359375
vt 0.283198 0.359375
vt 0.281250 0.352115
vt 0.289624 0.352111
vt 0.281252 0.357430
vt 0.281250 0.352948
vt 0.287677 0.359375
vt 0.283195 0.359375
vt 0.281250 0.352114
vt 0.289622 0.352114
vt 0.283195 0.352114
vt 0.287677 0.352114
vt 0.288514 0.352948
vt 0.288514 0.357431
vt 0.281254 0.351001
vt 0.289624 0.359375
vt 0.283197 0.352112
vt 0.287680 0.352114
vt 0.288514 0.352945
vt 0.288514 0.357427
vt 0.281254 0.359375
vt 0.281250 0.351001
vt 0.283195 0.352114
vt 0.287677 0.352112
vt 0.288511 0.352948
vt 0.288511 0.357430
vt 0.281250 0.351003
vt 0.283198 0.352111
vt 0.287680 0.352111
vt 0.281250 0.359371
vt 0.288513 0.352948
vt 0.288511 0.357430
vt 0.283194 0.352111
vt 0.287677 0.352111
vt 0.289624 0.359371
vt 0.288511 0.352945
vt 0.288513 0.357428
vt 0.324219 0.421875
vt 0.324219 0.437500
vt 0.312500 0.421875
vt 0.343750 0.421875
vt 0.332031 0.437500
vt 0.332031 0.421875
vt 0.328125 0.406250
vt 0.328125 0.417969
vt 0.320312 0.417969
vt 0.320312 0.406250
vt 0.328125 0.347656
vt 0.320312 0.359375
vt 0.320312 0.347656
vt 0.312500 0.390625
vt 0.304688 0.390625
vt 0.304688 0.375000
vt 0.335938 0.515625
vt 0.335938 0.531250
vt 0.328125 0.531250
vt 0.328125 0.515625
vt 0.292969 0.406250
vt 0.292969 0.421875
vt 0.281250 0.421875
vt 0.281250 0.406250
vt 0.300781 0.421875
vt 0.300781 0.406250
vt 0.296875 0.402344
vt 0.289062 0.402344
vt 0.289062 0.390625
vt 0.296875 0.410156
vt 0.296875 0.421875
vt 0.289062 0.421875
vt 0.289062 0.410156
vt 0.328125 0.421875
vt 0.328125 0.437500
vt 0.320312 0.437500
vt 0.320312 0.421875
vt 0.390625 0.359375
vt 0.390625 0.421875
vt 0.390625 0.343750
vt 0.390625 0.406250
vt 0.359375 0.343750
vt 0.375000 0.406250
vt 0.312500 0.343750
vt 0.375000 0.390625
vt 0.312500 0.328125
vt 0.703125 0.531250
vt 0.703125 0.562500
vt 0.562500 0.562500
vt 0.562500 0.531250
vt 0.592188 0.562500
vt 0.592188 0.703125
vt 0.562500 0.703125
vt 0.623438 0.671875
vt 0.623438 0.703125
vt 0.593750 0.703125
vt 0.593750 0.671875
vt 0.625000 0.875000
vt 0.625000 1.000000
vt 0.000000 0.875000
vt 0.125000 0.375000
vt 0.125000 1.000000
vt 0.000000 0.375000
vt 0.125000 0.875000
vt 0.773438 0.921875
vt 0.773438 0.984375
vt 0.765625 0.984375
vt 0.765625 0.921875
vt 0.718750 0.921875
vt 0.718750 0.984375
vt 0.726562 0.984375
vt 0.726562 0.921875
vt 0.777344 0.984375
vt 0.777344 0.992188
vt 0.722656 0.992188
vt 0.722656 0.984375
vt 0.777344 0.898438
vt 0.777344 0.906250
vt 0.722656 0.906250
vt 0.722656 0.898438
vt 0.777344 0.843750
vt 0.722656 0.843750
vt 0.777344 0.921875
vt 0.722656 0.921875
vt 0.843750 0.484375
vt 0.843750 0.734375
vt 0.828125 0.734375
vt 0.828125 0.484375
vt 0.828125 0.750000
vt 0.765625 0.750000
vt 0.765625 0.734375
vt 0.250000 0.750000
vt 0.250000 1.000000
vt 0.187500 1.000000
vt 0.187500 0.750000
vt 0.796875 0.562500
vt 0.796875 0.734375
vt 0.765625 0.562500
vt 0.031250 0.875000
vt 0.093750 1.000000
vt 0.093750 0.875000
vt 0.125000 0.906250
vt 0.000000 0.906250
vt 0.125000 0.968750
vt 0.515625 0.515625
vt 0.515625 0.718750
vt 0.500000 0.718750
vt 0.500000 0.515625
vt 0.515625 0.734375
vt 0.500000 0.734375
vt 1.000000 0.000000
vt 1.000000 0.812500
vt 0.937500 0.812500
vt 0.937500 0.000000
vt 1.000000 0.062500
vt 0.937500 0.062500
vt 0.062500 0.812500
vt 0.062500 1.000000
vt 0.000000 0.812500
vt 0.750000 0.718750
vt 0.750000 0.734375
vt 0.734375 0.734375
vt 0.734375 0.718750
vt 0.703125 0.718750
vt 0.703125 0.734375
vt 0.546875 0.734375
vt 0.546875 0.718750
vt 0.125000 0.171875
vt 0.125000 0.990625
vt 0.031250 0.990625
vt 0.031250 0.171875
vt 0.093750 0.171875
vt 0.093750 0.990625
vt 0.000000 0.990625
vt 0.000000 0.171875
vt 0.062500 0.906250
vt 0.062500 0.968750
vt 0.062500 0.875000
vt 0.062500 0.990625
vt 0.062500 0.171875
vt 0.125000 0.181250
vt 0.031250 0.181250
vt 0.093750 0.181250
vt 0.000000 0.181250
vt 0.062500 0.181250
vt 1.000000 0.937500
vt 1.000000 1.000000
vt 0.062500 0.000000
vt 0.000000 0.000000
vt 0.125000 0.937500
vt 0.062500 0.937500
vt 1.000000 0.625000
vt 1.000000 0.687500
vt 0.468750 0.687500
vt 0.468750 0.625000
vt 0.843750 0.562500
vt 0.843750 0.625000
vt 0.312500 0.625000
vt 0.312500 0.562500
vt 0.656250 0.218750
vt 0.656250 0.750000
vt 0.156250 0.750000
vt 0.156250 0.218750
vt 0.500000 0.375000
vt 0.500000 0.906250
vt 0.718750 0.750000
vt 0.718750 0.812500
vt 0.218750 0.812500
vt 0.218750 0.750000
vt 0.843750 0.500000
vt 0.343750 0.562500
vt 0.343750 0.500000
vt 0.937500 0.937500
vt 0.937500 0.968750
vt 0.843750 0.968750
vt 0.843750 0.937500
vt 0.156250 0.937500
vt 0.156250 0.968750
vt 0.125000 0.843750
vt 0.062500 0.843750
vt 0.125000 0.062500
vt 0.125000 0.156250
vt 0.062500 0.156250
vt 0.062500 0.062500
vt 0.562500 0.937500
vt 0.562500 0.968750
vt 1.000000 0.968750
vt 0.437500 0.968750
vt 0.437500 0.937500
vt 0.125000 0.000000
vt 0.125000 0.562500
vt 0.093750 0.562500
vt 0.093750 0.000000
vt 0.125000 0.437500
vt 0.093750 0.437500
vt 0.093750 0.968750
vt 0.093750 0.937500
vt 0.031250 0.937500
vt 0.031250 0.968750
vt 0.750000 0.906250
vt 0.750000 1.000000
vt 0.750000 0.875000
vt 0.750000 0.968750
vt 0.750000 0.937500
vt 0.500000 1.000000
vt 0.250000 0.906250
vt 0.500000 0.875000
vt 0.500000 0.968750
vt 0.250000 0.968750
vt 0.250000 0.875000
vt 0.500000 0.937500
vt 0.250000 0.937500
vt 0.312500 0.968750
vt 0.312500 0.843750
vt 0.312500 0.937500
vt 0.603553 0.906250
vt 0.603553 1.000000
vt 0.603553 0.875000
vt 0.603553 0.968750
vt 0.603553 0.937500
vt 0.137500 0.875000
vt 0.137500 1.000000
vt 0.150000 0.875000
vt 0.150000 1.000000
vt 0.012500 1.000000
vt 0.012500 0.875000
vt 0.187500 0.968750
vt 0.125000 0.812500
vt 0.125000 0.343750
vt 0.093750 0.343750
vt 0.031250 0.343750
vt 0.000000 0.343750
vt 0.062500 0.343750
vt 0.031250 0.906250
vt 0.468750 0.937500
vt 0.468750 1.000000
vt 0.125000 0.531250
vt 0.062500 0.531250
vt 0.125000 0.500000
vt 0.062500 0.500000
s 1
usemtl m_3d215661-f591-00a8-53e2-d8d611c756be.005
f 4/1/1 2/2/1 1/3/1 3/4/1
f 7/1/2 5/2/2 6/3/2 8/4/2
f 1/5/3 2/6/3 6/3/3 5/7/3
f 4/5/4 3/6/4 7/3/4 8/7/4
f 3/8/5 1/6/5 5/3/5 7/4/5
f 8/8/6 6/6/6 2/3/6 4/4/6
f 12/1/1 10/2/1 9/3/1 11/4/1
f 15/1/2 13/2/2 14/3/2 16/4/2
f 9/5/3 10/6/3 14/3/3 13/7/3
f 12/5/4 11/6/4 15/3/4 16/7/4
f 11/8/5 9/6/5 13/3/5 15/4/5
f 16/8/6 14/6/6 10/3/6 12/4/6
f 18/9/1 1/10/1 10/11/1 17/12/1
f 19/9/2 14/10/2 5/11/2 20/12/2
f 10/13/3 1/14/3 5/3/3 14/15/3
f 18/13/4 17/14/4 19/3/4 20/15/4
f 17/16/5 10/14/5 14/3/5 19/17/5
f 20/16/6 5/14/6 1/3/6 18/17/6
f 24/18/1 22/19/1 21/20/1 23/21/1
f 27/18/2 25/19/2 26/20/2 28/21/2
f 21/22/3 22/6/3 26/3/3 25/15/3
f 24/22/4 23/6/4 27/3/4 28/15/4
f 23/23/5 21/24/5 25/20/5 27/21/5
f 28/23/6 26/24/6 22/20/6 24/21/6
f 32/18/1 30/19/1 29/20/1 31/21/1
f 35/18/2 33/19/2 34/20/2 36/21/2
f 29/22/3 30/6/3 34/3/3 33/15/3
f 32/22/4 31/6/4 35/3/4 36/15/4
f 31/23/5 29/24/5 33/20/5 35/21/5
f 36/23/6 34/24/6 30/20/6 32/21/6
f 38/1/1 12/2/1 11/3/1 37/4/1
f 39/1/2 15/2/2 16/3/2 40/4/2
f 38/25/4 37/26/4 39/27/4 40/28/4
f 37/29/5 11/26/5 15/27/5 39/30/5
f 40/29/6 16/26/6 12/27/6 38/30/6
f 42/1/1 4/2/1 3/31/1 41/32/1
f 43/32/2 7/31/2 8/3/2 44/4/2
f 42/25/4 41/33/4 43/34/4 44/28/4
f 41/29/5 3/26/5 7/27/5 43/30/5
f 44/29/6 8/26/6 4/27/6 42/30/6
f 48/18/1 46/19/1 45/20/1 47/21/1
f 51/18/2 49/19/2 50/20/2 52/21/2
f 45/22/3 46/6/3 50/3/3 49/15/3
f 48/22/4 47/6/4 51/3/4 52/15/4
f 47/23/5 45/24/5 49/20/5 51/21/5
f 52/23/6 50/24/6 46/20/6 48/21/6
f 56/18/1 54/19/1 53/20/1 55/21/1
f 59/18/2 57/19/2 58/20/2 60/21/2
f 53/22/3 54/6/3 58/3/3 57/15/3
f 56/22/4 55/6/4 59/3/4 60/15/4
f 55/23/5 53/24/5 57/20/5 59/21/5
f 60/23/6 58/24/6 54/20/6 56/21/6
f 62/1/1 38/2/1 37/3/1 61/4/1
f 63/1/2 39/2/2 40/3/2 64/4/2
f 62/25/4 61/26/4 63/27/4 64/28/4
f 61/29/5 37/26/5 39/27/5 63/30/5
f 64/29/6 40/26/6 38/27/6 62/30/6
f 66/1/1 42/2/1 41/31/1 65/32/1
f 67/32/2 43/31/2 44/3/2 68/4/2
f 66/25/4 65/33/4 67/34/4 68/28/4
f 65/29/5 41/26/5 43/27/5 67/30/5
f 68/29/6 44/26/6 42/27/6 66/30/6
f 72/18/1 70/19/1 69/20/1 71/21/1
f 75/18/2 73/19/2 74/20/2 76/21/2
f 69/22/3 70/6/3 74/3/3 73/15/3
f 72/22/4 71/6/4 75/3/4 76/15/4
f 71/23/5 69/24/5 73/20/5 75/21/5
f 76/23/6 74/24/6 70/20/6 72/21/6
f 80/18/1 78/19/1 77/20/1 79/21/1
f 83/18/2 81/19/2 82/20/2 84/21/2
f 77/22/3 78/6/3 82/3/3 81/15/3
f 80/22/4 79/6/4 83/3/4 84/15/4
f 79/23/5 77/24/5 81/20/5 83/21/5
f 84/23/6 82/24/6 78/20/6 80/21/6
f 86/1/1 62/2/1 61/3/1 85/4/1
f 87/1/2 63/2/2 64/3/2 88/4/2
f 86/25/4 85/26/4 87/27/4 88/28/4
f 85/29/5 61/26/5 63/27/5 87/30/5
f 88/29/6 64/26/6 62/27/6 86/30/6
f 90/1/1 66/2/1 65/31/1 89/32/1
f 91/32/2 67/31/2 68/3/2 92/4/2
f 90/25/4 89/33/4 91/34/4 92/28/4
f 89/29/5 65/26/5 67/27/5 91/30/5
f 92/29/6 68/26/6 66/27/6 90/30/6
f 96/18/1 94/19/1 93/20/1 95/21/1
f 99/18/2 97/19/2 98/20/2 100/21/2
f 93/22/3 94/6/3 98/3/3 97/15/3
f 96/22/4 95/6/4 99/3/4 100/15/4
f 95/23/5 93/24/5 97/20/5 99/21/5
f 100/23/6 98/24/6 94/20/6 96/21/6
f 104/18/1 102/19/1 101/20/1 103/21/1
f 107/18/2 105/19/2 106/20/2 108/21/2
f 101/22/3 102/6/3 106/3/3 105/15/3
f 104/22/4 103/6/4 107/3/4 108/15/4
f 103/23/5 101/24/5 105/20/5 107/21/5
f 108/23/6 106/24/6 102/20/6 104/21/6
f 110/1/1 86/2/1 85/3/1 109/4/1
f 111/1/2 87/2/2 88/3/2 112/4/2
f 110/25/4 109/26/4 111/27/4 112/28/4
f 109/29/5 85/26/5 87/27/5 111/30/5
f 112/29/6 88/26/6 86/27/6 110/30/6
f 114/1/1 90/2/1 89/31/1 113/32/1
f 115/32/2 91/31/2 92/3/2 116/4/2
f 114/25/4 113/33/4 115/34/4 116/28/4
f 113/29/5 89/26/5 91/27/5 115/30/5
f 116/29/6 92/26/6 90/27/6 114/30/6
f 120/18/1 118/19/1 117/20/1 119/21/1
f 123/18/2 121/19/2 122/20/2 124/21/2
f 117/22/3 118/6/3 122/3/3 121/15/3
f 120/22/4 119/6/4 123/3/4 124/15/4
f 119/23/5 117/24/5 121/20/5 123/21/5
f 124/23/6 122/24/6 118/20/6 120/21/6
f 128/18/1 126/19/1 125/20/1 127/21/1
f 131/18/2 129/19/2 130/20/2 132/21/2
f 125/22/3 126/6/3 130/3/3 129/15/3
f 128/22/4 127/6/4 131/3/4 132/15/4
f 127/23/5 125/24/5 129/20/5 131/21/5
f 132/23/6 130/24/6 126/20/6 128/21/6
f 136/35/1 134/36/1 133/37/1 135/38/1
f 139/35/2 137/36/2 138/37/2 140/38/2
f 133/39/3 134/36/3 138/37/3 137/40/3
f 136/39/4 135/36/4 139/37/4 140/40/4
f 135/35/5 133/36/5 137/37/5 139/38/5
f 140/35/6 138/36/6 134/37/6 136/38/6
f 144/41/1 142/42/1 141/31/1 143/43/1
f 147/41/2 145/42/2 146/31/2 148/43/2
f 141/44/3 142/45/3 146/17/3 145/46/3
f 144/44/4 143/45/4 147/17/4 148/46/4
f 143/45/5 141/47/5 145/3/5 147/17/5
f 148/45/6 146/47/6 142/3/6 144/17/6
f 152/48/7 150/49/7 149/27/7 151/50/7
f 155/48/8 153/49/8 154/27/8 156/50/8
f 149/51/9 150/52/9 154/53/9 153/54/9
f 152/51/10 151/52/10 155/53/10 156/54/10
f 151/55/5 149/42/5 153/3/5 155/56/5
f 156/55/6 154/42/6 150/3/6 152/56/6
f 160/57/7 158/14/7 157/3/7 159/56/7
f 163/58/8 161/59/8 162/27/8 164/50/8
f 157/60/9 158/52/9 162/53/9 161/61/9
f 160/62/10 159/42/10 163/3/10 164/63/10
f 159/55/5 157/42/5 161/3/5 163/56/5
f 164/55/6 162/42/6 158/3/6 160/56/6
f 168/50/11 166/27/11 165/49/11 167/48/11
f 171/50/12 169/27/12 170/49/12 172/48/12
f 165/54/13 166/53/13 170/52/13 169/51/13
f 168/54/14 167/53/14 171/52/14 172/51/14
f 167/56/5 165/3/5 169/42/5 171/55/5
f 172/56/6 170/3/6 166/42/6 168/55/6
f 176/50/11 174/27/11 173/59/11 175/58/11
f 179/56/12 177/3/12 178/14/12 180/57/12
f 173/61/13 174/53/13 178/52/13 177/60/13
f 176/63/14 175/3/14 179/42/14 180/62/14
f 175/56/5 173/3/5 177/42/5 179/55/5
f 180/56/6 178/3/6 174/42/6 176/55/6
f 184/64/1 182/65/1 181/66/1 183/67/1
f 187/64/2 185/65/2 186/66/2 188/67/2
f 181/68/3 182/69/3 186/70/3 185/71/3
f 184/68/4 183/69/4 187/70/4 188/71/4
f 183/72/5 181/73/5 185/74/5 187/75/5
f 188/72/6 186/73/6 182/74/6 184/75/6
f 192/76/1 190/77/1 189/77/1 191/76/1
f 195/78/2 193/79/2 194/79/2 196/78/2
f 189/80/3 190/80/3 194/77/3 193/77/3
f 192/80/4 191/80/4 195/77/4 196/77/4
f 191/81/5 189/80/5 193/77/5 195/76/5
f 196/82/6 194/83/6 190/84/6 192/85/6
f 200/86/1 198/87/1 197/88/1 199/89/1
f 203/90/2 201/91/2 202/92/2 204/93/2
f 197/94/3 198/87/3 202/92/3 201/95/3
f 200/86/4 199/96/4 203/97/4 204/93/4
f 199/86/5 197/87/5 201/92/5 203/93/5
f 204/86/6 202/87/6 198/92/6 200/93/6
f 208/98/1 206/99/1 205/100/1 207/101/1
f 211/102/2 209/103/2 210/104/2 212/105/2
f 205/106/3 206/99/3 210/104/3 209/107/3
f 208/98/4 207/108/4 211/109/4 212/105/4
f 207/98/5 205/99/5 209/104/5 211/105/5
f 212/110/6 210/111/6 206/112/6 208/113/6
f 226/127/15 230/128/15 231/129/15 227/130/15
f 229/131/16 233/130/16 232/127/16 228/132/16
f 228/133/5 232/134/5 230/135/5 226/136/5
f 227/137/6 231/138/6 233/139/6 229/140/6
f 230/127/17 234/128/17 235/129/17 231/130/17
f 233/131/18 237/130/18 236/127/18 232/132/18
f 232/141/5 236/142/5 234/143/5 230/144/5
f 231/137/6 235/138/6 237/145/6 233/146/6
f 234/127/1 238/128/1 239/129/1 235/130/1
f 237/131/2 241/130/2 240/127/2 236/132/2
f 236/147/5 240/148/5 238/149/5 234/150/5
f 235/149/6 239/150/6 241/147/6 237/148/6
f 238/127/19 242/128/19 243/129/19 239/130/19
f 241/131/20 245/130/20 244/127/20 240/132/20
f 240/139/5 244/151/5 242/152/5 238/153/5
f 239/154/6 243/155/6 245/156/6 241/157/6
f 242/127/21 246/128/21 247/129/21 243/130/21
f 245/131/22 249/130/22 248/127/22 244/132/22
f 244/158/5 248/159/5 246/160/5 242/161/5
f 243/154/6 247/155/6 249/162/6 245/142/6
f 246/127/4 250/128/4 251/129/4 247/130/4
f 249/131/3 253/130/3 252/127/3 248/132/3
f 248/163/5 252/164/5 250/165/5 246/166/5
f 247/129/6 251/130/6 253/167/6 249/168/6
f 250/127/16 254/128/16 255/129/16 251/130/16
f 253/131/15 257/130/15 256/127/15 252/132/15
f 252/169/5 256/170/5 254/130/5 250/171/5
f 251/172/6 255/130/6 257/173/6 253/174/6
f 254/127/18 258/128/18 259/129/18 255/130/18
f 257/131/17 261/130/17 260/127/17 256/132/17
f 256/175/5 260/176/5 258/177/5 254/178/5
f 255/172/6 259/130/6 261/179/6 257/180/6
f 258/127/2 262/128/2 263/129/2 259/130/2
f 261/131/1 265/130/1 264/127/1 260/132/1
f 260/181/5 264/182/5 262/130/5 258/183/5
f 259/130/6 263/183/6 265/181/6 261/182/6
f 262/127/20 266/128/20 267/129/20 263/130/20
f 265/131/19 269/130/19 268/127/19 264/132/19
f 264/184/5 268/185/5 266/172/5 262/186/5
f 263/130/6 267/178/6 269/187/6 265/188/6
f 266/127/22 270/128/22 271/129/22 267/130/22
f 269/131/21 273/130/21 272/127/21 268/132/21
f 268/189/5 272/190/5 270/191/5 266/130/5
f 267/130/6 271/178/6 273/192/6 269/193/6
f 270/127/3 226/128/3 227/129/3 271/130/3
f 273/131/4 229/130/4 228/127/4 272/132/4
f 272/167/5 228/168/5 226/129/5 270/130/5
f 271/165/6 227/166/6 229/163/6 273/164/6
f 277/194/1 275/195/1 274/196/1 276/197/1
f 280/194/2 278/195/2 279/196/2 281/197/2
f 274/198/3 275/102/3 279/105/3 278/199/3
f 277/198/4 276/102/4 280/105/4 281/199/4
f 276/200/5 274/201/5 278/202/5 280/203/5
f 281/203/6 279/202/6 275/204/6 277/205/6
f 285/206/1 283/207/1 282/208/1 284/209/1
f 288/210/2 286/101/2 287/211/2 289/212/2
f 282/213/3 283/214/3 287/215/3 286/216/3
f 285/217/4 284/218/4 288/219/4 289/220/4
f 284/221/5 282/222/5 286/223/5 288/224/5
f 289/225/6 287/226/6 283/227/6 285/228/6
f 293/229/1 291/230/1 290/231/1 292/232/1
f 296/206/2 294/207/2 295/208/2 297/209/2
f 290/233/3 291/234/3 295/235/3 294/236/3
f 293/237/4 292/238/4 296/239/4 297/240/4
f 292/241/5 290/242/5 294/243/5 296/244/5
f 297/245/6 295/195/6 291/246/6 293/247/6
f 274/248/23 290/249/23 291/211/23 275/250/23
f 295/251/24 294/252/24 276/253/24 277/127/24
f 294/230/5 290/254/5 274/202/5 276/255/5
f 275/256/25 291/257/26 295/258/27 277/259/26
f 280/260/28 282/226/28 283/261/28 281/262/28
f 287/263/29 286/259/29 278/258/29 279/252/29
f 286/264/5 282/265/5 280/266/5 278/267/5
f 281/261/30 283/262/31 287/268/30 279/269/31
f 311/127/15 315/128/15 316/129/15 312/130/15
f 314/131/16 318/130/16 317/127/16 313/132/16
f 313/133/5 317/134/5 315/135/5 311/136/5
f 312/137/6 316/138/6 318/139/6 314/140/6
f 315/127/17 319/128/17 320/129/17 316/130/17
f 318/131/18 322/130/18 321/127/18 317/132/18
f 317/141/5 321/142/5 319/143/5 315/144/5
f 316/137/6 320/138/6 322/145/6 318/146/6
f 319/127/1 323/128/1 324/129/1 320/130/1
f 322/131/2 326/130/2 325/127/2 321/132/2
f 321/147/5 325/148/5 323/149/5 319/150/5
f 320/149/6 324/150/6 326/147/6 322/148/6
f 323/127/19 327/128/19 328/129/19 324/130/19
f 326/131/20 330/130/20 329/127/20 325/132/20
f 325/139/5 329/151/5 327/152/5 323/153/5
f 324/154/6 328/155/6 330/156/6 326/157/6
f 327/127/21 331/128/21 332/129/21 328/130/21
f 330/131/22 334/130/22 333/127/22 329/132/22
f 329/158/5 333/159/5 331/160/5 327/161/5
f 328/154/6 332/155/6 334/162/6 330/142/6
f 331/127/4 335/128/4 336/129/4 332/130/4
f 334/131/3 338/130/3 337/127/3 333/132/3
f 333/163/5 337/164/5 335/165/5 331/166/5
f 332/129/6 336/130/6 338/167/6 334/168/6
f 335/127/16 339/128/16 340/129/16 336/130/16
f 338/131/15 342/130/15 341/127/15 337/132/15
f 337/169/5 341/170/5 339/130/5 335/171/5
f 336/172/6 340/130/6 342/173/6 338/174/6
f 339/127/18 343/128/18 344/129/18 340/130/18
f 342/131/17 346/130/17 345/127/17 341/132/17
f 341/175/5 345/176/5 343/177/5 339/178/5
f 340/172/6 344/130/6 346/179/6 342/180/6
f 343/127/2 347/128/2 348/129/2 344/130/2
f 346/131/1 350/130/1 349/127/1 345/132/1
f 345/181/5 349/182/5 347/130/5 343/183/5
f 344/130/6 348/183/6 350/181/6 346/182/6
f 347/127/20 351/128/20 352/129/20 348/130/20
f 350/131/19 354/130/19 353/127/19 349/132/19
f 349/184/5 353/185/5 351/172/5 347/186/5
f 348/130/6 352/178/6 354/187/6 350/188/6
f 351/127/22 355/128/22 356/129/22 352/130/22
f 354/131/21 358/130/21 357/127/21 353/132/21
f 353/189/5 357/190/5 355/191/5 351/130/5
f 352/130/6 356/178/6 358/192/6 354/193/6
f 355/127/3 311/128/3 312/129/3 356/130/3
f 358/131/4 314/130/4 313/127/4 357/132/4
f 357/167/5 313/168/5 311/129/5 355/130/5
f 356/165/6 312/166/6 314/163/6 358/164/6
f 362/194/1 360/195/1 359/196/1 361/197/1
f 365/194/2 363/195/2 364/196/2 366/197/2
f 359/198/3 360/102/3 364/105/3 363/199/3
f 362/198/4 361/102/4 365/105/4 366/199/4
f 361/200/5 359/201/5 363/202/5 365/203/5
f 366/203/6 364/202/6 360/204/6 362/205/6
f 370/206/1 368/207/1 367/208/1 369/209/1
f 373/210/2 371/101/2 372/211/2 374/212/2
f 367/213/3 368/214/3 372/215/3 371/216/3
f 370/217/4 369/218/4 373/219/4 374/220/4
f 369/221/5 367/222/5 371/223/5 373/224/5
f 374/225/6 372/226/6 368/227/6 370/228/6
f 378/229/1 376/230/1 375/231/1 377/232/1
f 381/206/2 379/207/2 380/208/2 382/209/2
f 375/233/3 376/234/3 380/235/3 379/236/3
f 378/237/4 377/238/4 381/239/4 382/240/4
f 377/241/5 375/242/5 379/243/5 381/244/5
f 382/245/6 380/195/6 376/246/6 378/247/6
f 359/248/23 375/249/23 376/211/23 360/250/23
f 380/251/24 379/252/24 361/253/24 362/127/24
f 379/230/5 375/254/5 359/202/5 361/255/5
f 360/256/27 376/257/26 380/258/27 362/259/26
f 365/260/28 367/226/28 368/261/28 366/262/28
f 372/263/29 371/259/29 363/258/29 364/252/29
f 371/264/5 367/265/5 365/266/5 363/267/5
f 366/261/30 368/262/32 372/268/30 364/269/31
f 386/269/1 384/261/1 383/270/1 385/271/1
f 389/269/2 387/261/2 388/270/2 390/271/2
f 383/272/3 384/273/3 388/270/3 387/274/3
f 386/272/4 385/273/4 389/270/4 390/274/4
f 385/275/5 383/273/5 387/270/5 389/271/5
f 390/275/6 388/273/6 384/270/6 386/271/6
f 404/289/21 408/290/21 409/291/21 405/292/21
f 407/293/22 411/292/22 410/289/22 406/294/22
f 406/295/6 410/296/6 408/297/6 404/298/6
f 405/299/5 409/300/5 411/301/5 407/302/5
f 408/289/19 412/290/19 413/291/19 409/292/19
f 411/293/20 415/292/20 414/289/20 410/294/20
f 410/303/6 414/304/6 412/305/6 408/306/6
f 409/299/5 413/300/5 415/307/5 411/308/5
f 412/289/1 416/290/1 417/291/1 413/292/1
f 415/293/2 419/292/2 418/289/2 414/294/2
f 414/309/6 418/310/6 416/311/6 412/312/6
f 413/311/5 417/312/5 419/309/5 415/310/5
f 416/289/17 420/290/17 421/291/17 417/292/17
f 419/293/18 423/292/18 422/289/18 418/294/18
f 418/313/6 422/314/6 420/315/6 416/316/6
f 417/317/5 421/318/5 423/319/5 419/320/5
f 420/289/15 424/290/15 425/291/15 421/292/15
f 423/293/16 427/292/16 426/289/16 422/294/16
f 422/321/6 426/322/6 424/323/6 420/324/6
f 421/317/5 425/318/5 427/325/5 423/326/5
f 424/289/3 428/290/3 429/291/3 425/292/3
f 427/293/4 431/292/4 430/289/4 426/294/4
f 426/327/6 430/328/6 428/329/6 424/330/6
f 425/291/5 429/292/5 431/331/5 427/332/5
f 428/289/22 432/290/22 433/291/22 429/292/22
f 431/293/21 435/292/21 434/289/21 430/294/21
f 430/333/6 434/334/6 432/292/6 428/335/6
f 429/336/5 433/292/5 435/337/5 431/338/5
f 432/289/20 436/290/20 437/291/20 433/292/20
f 435/293/19 439/292/19 438/289/19 434/294/19
f 434/339/6 438/340/6 436/341/6 432/342/6
f 433/336/5 437/292/5 439/343/5 435/344/5
f 436/289/2 440/290/2 441/291/2 437/292/2
f 439/293/1 443/292/1 442/289/1 438/294/1
f 438/345/6 442/346/6 440/292/6 436/347/6
f 437/292/5 441/347/5 443/345/5 439/346/5
f 440/289/18 444/290/18 445/291/18 441/292/18
f 443/293/17 447/292/17 446/289/17 442/294/17
f 442/348/6 446/349/6 444/336/6 440/350/6
f 441/292/5 445/342/5 447/351/5 443/352/5
f 444/289/16 448/290/16 449/291/16 445/292/16
f 447/293/15 451/292/15 450/289/15 446/294/15
f 446/353/6 450/354/6 448/355/6 444/292/6
f 445/292/5 449/342/5 451/356/5 447/357/5
f 448/289/4 404/290/4 405/291/4 449/292/4
f 451/293/3 407/292/3 406/289/3 450/294/3
f 450/331/6 406/332/6 404/291/6 448/292/6
f 449/329/5 405/330/5 407/327/5 451/328/5
f 455/358/1 453/359/1 452/268/1 454/360/1
f 458/361/2 456/258/2 457/362/2 459/363/2
f 452/364/3 453/365/3 457/366/3 456/367/3
f 455/368/4 454/255/4 458/369/4 459/370/4
f 454/198/5 452/371/5 456/372/5 458/373/5
f 459/374/6 457/375/6 453/376/6 455/377/6
f 463/378/1 461/379/1 460/380/1 462/381/1
f 466/260/2 464/360/2 465/382/2 467/383/2
f 460/253/3 461/384/3 465/385/3 464/386/3
f 463/387/4 462/388/4 466/389/4 467/390/4
f 462/391/5 460/392/5 464/393/5 466/394/5
f 467/367/6 465/394/6 461/360/6 463/260/6
f 470/395/4 468/396/4 469/391/4 471/255/4
f 468/266/33 387/397/33 388/398/33 469/364/33
f 390/399/34 389/226/34 470/272/34 471/127/34
f 389/265/5 387/400/5 468/260/5 470/401/5
f 469/398/35 388/364/36 390/266/37 471/397/37
f 384/396/38 383/391/38 472/255/38 473/395/38
f 474/264/39 385/402/39 386/371/39 475/403/39
f 473/230/4 472/248/4 474/360/4 475/196/4
f 472/265/5 383/400/5 385/260/5 474/401/5
f 386/400/40 384/260/41 473/401/42 475/265/42
f 479/269/1 477/261/1 476/270/1 478/271/1
f 482/269/2 480/261/2 481/270/2 483/271/2
f 476/272/3 477/273/3 481/270/3 480/274/3
f 479/272/4 478/273/4 482/270/4 483/274/4
f 478/275/5 476/273/5 480/270/5 482/271/5
f 483/275/6 481/273/6 477/270/6 479/271/6
f 497/289/21 501/290/21 502/291/21 498/292/21
f 500/293/22 504/292/22 503/289/22 499/294/22
f 499/295/6 503/296/6 501/297/6 497/298/6
f 498/299/5 502/300/5 504/301/5 500/302/5
f 501/289/19 505/290/19 506/291/19 502/292/19
f 504/293/20 508/292/20 507/289/20 503/294/20
f 503/303/6 507/304/6 505/305/6 501/306/6
f 502/299/5 506/300/5 508/307/5 504/308/5
f 505/289/1 509/290/1 510/291/1 506/292/1
f 508/293/2 512/292/2 511/289/2 507/294/2
f 507/309/6 511/310/6 509/311/6 505/312/6
f 506/311/5 510/312/5 512/309/5 508/310/5
f 509/289/17 513/290/17 514/291/17 510/292/17
f 512/293/18 516/292/18 515/289/18 511/294/18
f 511/313/6 515/314/6 513/315/6 509/316/6
f 510/317/5 514/318/5 516/319/5 512/320/5
f 513/289/15 517/290/15 518/291/15 514/292/15
f 516/293/16 520/292/16 519/289/16 515/294/16
f 515/321/6 519/322/6 517/323/6 513/324/6
f 514/317/5 518/318/5 520/325/5 516/326/5
f 517/289/3 521/290/3 522/291/3 518/292/3
f 520/293/4 524/292/4 523/289/4 519/294/4
f 519/327/6 523/328/6 521/329/6 517/330/6
f 518/291/5 522/292/5 524/331/5 520/332/5
f 521/289/22 525/290/22 526/291/22 522/292/22
f 524/293/21 528/292/21 527/289/21 523/294/21
f 523/333/6 527/334/6 525/292/6 521/335/6
f 522/336/5 526/292/5 528/337/5 524/338/5
f 525/289/20 529/290/20 530/291/20 526/292/20
f 528/293/19 532/292/19 531/289/19 527/294/19
f 527/339/6 531/340/6 529/341/6 525/342/6
f 526/336/5 530/292/5 532/343/5 528/344/5
f 529/289/2 533/290/2 534/291/2 530/292/2
f 532/293/1 536/292/1 535/289/1 531/294/1
f 531/345/6 535/346/6 533/292/6 529/347/6
f 530/292/5 534/347/5 536/345/5 532/346/5
f 533/289/18 537/290/18 538/291/18 534/292/18
f 536/293/17 540/292/17 539/289/17 535/294/17
f 535/348/6 539/349/6 537/336/6 533/350/6
f 534/292/5 538/342/5 540/351/5 536/352/5
f 537/289/16 541/290/16 542/291/16 538/292/16
f 540/293/15 544/292/15 543/289/15 539/294/15
f 539/353/6 543/354/6 541/355/6 537/292/6
f 538/292/5 542/342/5 544/356/5 540/357/5
f 541/289/4 497/290/4 498/291/4 542/292/4
f 544/293/3 500/292/3 499/289/3 543/294/3
f 543/331/6 499/332/6 497/291/6 541/292/6
f 542/329/5 498/330/5 500/327/5 544/328/5
f 548/358/1 546/359/1 545/268/1 547/360/1
f 551/361/2 549/258/2 550/362/2 552/363/2
f 545/364/3 546/365/3 550/366/3 549/367/3
f 548/368/4 547/255/4 551/369/4 552/370/4
f 547/198/5 545/371/5 549/372/5 551/373/5
f 552/374/6 550/375/6 546/376/6 548/377/6
f 556/378/1 554/379/1 553/380/1 555/381/1
f 559/260/2 557/360/2 558/382/2 560/383/2
f 553/253/3 554/384/3 558/385/3 557/386/3
f 556/387/4 555/388/4 559/389/4 560/390/4
f 555/391/5 553/392/5 557/393/5 559/394/5
f 560/367/6 558/394/6 554/360/6 556/260/6
f 563/395/4 561/396/4 562/391/4 564/255/4
f 561/266/33 480/397/33 481/398/33 562/364/33
f 483/399/34 482/226/34 563/272/34 564/127/34
f 482/265/5 480/400/5 561/260/5 563/401/5
f 562/398/35 481/364/36 483/266/37 564/397/37
f 477/396/38 476/391/38 565/255/38 566/395/38
f 567/264/39 478/402/39 479/371/39 568/403/39
f 566/230/4 565/248/4 567/360/4 568/196/4
f 565/265/5 476/400/5 478/260/5 567/401/5
f 479/400/40 477/260/41 566/401/42 568/265/42
f 572/269/1 570/261/1 569/270/1 571/271/1
f 575/269/2 573/261/2 574/270/2 576/271/2
f 569/272/3 570/273/3 574/270/3 573/274/3
f 572/272/4 571/273/4 575/270/4 576/274/4
f 571/275/5 569/273/5 573/270/5 575/271/5
f 576/275/6 574/273/6 570/270/6 572/271/6
f 590/289/21 594/290/21 595/291/21 591/292/21
f 593/293/22 597/292/22 596/289/22 592/294/22
f 592/295/6 596/296/6 594/297/6 590/298/6
f 591/299/5 595/300/5 597/301/5 593/302/5
f 594/289/19 598/290/19 599/291/19 595/292/19
f 597/293/20 601/292/20 600/289/20 596/294/20
f 596/303/6 600/304/6 598/305/6 594/306/6
f 595/299/5 599/300/5 601/307/5 597/308/5
f 598/289/1 602/290/1 603/291/1 599/292/1
f 601/293/2 605/292/2 604/289/2 600/294/2
f 600/309/6 604/310/6 602/311/6 598/312/6
f 599/311/5 603/312/5 605/309/5 601/310/5
f 602/289/17 606/290/17 607/291/17 603/292/17
f 605/293/18 609/292/18 608/289/18 604/294/18
f 604/313/6 608/314/6 606/315/6 602/316/6
f 603/317/5 607/318/5 609/319/5 605/320/5
f 606/289/15 610/290/15 611/291/15 607/292/15
f 609/293/16 613/292/16 612/289/16 608/294/16
f 608/321/6 612/322/6 610/323/6 606/324/6
f 607/317/5 611/318/5 613/325/5 609/326/5
f 610/289/3 614/290/3 615/291/3 611/292/3
f 613/293/4 617/292/4 616/289/4 612/294/4
f 612/327/6 616/328/6 614/329/6 610/330/6
f 611/291/5 615/292/5 617/331/5 613/332/5
f 614/289/22 618/290/22 619/291/22 615/292/22
f 617/293/21 621/292/21 620/289/21 616/294/21
f 616/333/6 620/334/6 618/292/6 614/335/6
f 615/336/5 619/292/5 621/337/5 617/338/5
f 618/289/20 622/290/20 623/291/20 619/292/20
f 621/293/19 625/292/19 624/289/19 620/294/19
f 620/339/6 624/340/6 622/341/6 618/342/6
f 619/336/5 623/292/5 625/343/5 621/344/5
f 622/289/2 626/290/2 627/291/2 623/292/2
f 625/293/1 629/292/1 628/289/1 624/294/1
f 624/345/6 628/346/6 626/292/6 622/347/6
f 623/292/5 627/347/5 629/345/5 625/346/5
f 626/289/18 630/290/18 631/291/18 627/292/18
f 629/293/17 633/292/17 632/289/17 628/294/17
f 628/348/6 632/349/6 630/336/6 626/350/6
f 627/292/5 631/342/5 633/351/5 629/352/5
f 630/289/16 634/290/16 635/291/16 631/292/16
f 633/293/15 637/292/15 636/289/15 632/294/15
f 632/353/6 636/354/6 634/355/6 630/292/6
f 631/292/5 635/342/5 637/356/5 633/357/5
f 634/289/4 590/290/4 591/291/4 635/292/4
f 637/293/3 593/292/3 592/289/3 636/294/3
f 636/331/6 592/332/6 590/291/6 634/292/6
f 635/329/5 591/330/5 593/327/5 637/328/5
f 641/358/1 639/359/1 638/268/1 640/360/1
f 644/361/2 642/258/2 643/362/2 645/363/2
f 638/364/3 639/365/3 643/366/3 642/367/3
f 641/368/4 640/255/4 644/369/4 645/370/4
f 640/198/5 638/371/5 642/372/5 644/373/5
f 645/374/6 643/375/6 639/376/6 641/377/6
f 649/378/1 647/379/1 646/380/1 648/381/1
f 652/260/2 650/360/2 651/382/2 653/383/2
f 646/253/3 647/384/3 651/385/3 650/386/3
f 649/387/4 648/388/4 652/389/4 653/390/4
f 648/391/5 646/392/5 650/393/5 652/394/5
f 653/367/6 651/394/6 647/360/6 649/260/6
f 656/395/4 654/396/4 655/391/4 657/255/4
f 654/266/33 573/397/33 574/398/33 655/364/33
f 576/399/34 575/226/34 656/272/34 657/127/34
f 575/265/5 573/400/5 654/260/5 656/401/5
f 655/398/35 574/364/36 576/266/37 657/397/37
f 570/396/38 569/391/38 658/255/38 659/395/38
f 660/264/39 571/402/39 572/371/39 661/403/39
f 659/230/4 658/248/4 660/360/4 661/196/4
f 658/265/5 569/400/5 571/260/5 660/401/5
f 572/400/40 570/260/41 659/401/42 661/265/42
f 665/269/1 663/261/1 662/270/1 664/271/1
f 668/269/2 666/261/2 667/270/2 669/271/2
f 662/272/3 663/273/3 667/270/3 666/274/3
f 665/272/4 664/273/4 668/270/4 669/274/4
f 664/275/5 662/273/5 666/270/5 668/271/5
f 669/275/6 667/273/6 663/270/6 665/271/6
f 683/289/21 687/290/21 688/291/21 684/292/21
f 686/293/22 690/292/22 689/289/22 685/294/22
f 685/295/6 689/296/6 687/297/6 683/298/6
f 684/299/5 688/300/5 690/301/5 686/302/5
f 687/289/19 691/290/19 692/291/19 688/292/19
f 690/293/20 694/292/20 693/289/20 689/294/20
f 689/303/6 693/304/6 691/305/6 687/306/6
f 688/299/5 692/300/5 694/307/5 690/308/5
f 691/289/1 695/290/1 696/291/1 692/292/1
f 694/293/2 698/292/2 697/289/2 693/294/2
f 693/309/6 697/310/6 695/311/6 691/312/6
f 692/311/5 696/312/5 698/309/5 694/310/5
f 695/289/17 699/290/17 700/291/17 696/292/17
f 698/293/18 702/292/18 701/289/18 697/294/18
f 697/313/6 701/314/6 699/315/6 695/316/6
f 696/317/5 700/318/5 702/319/5 698/320/5
f 699/289/15 703/290/15 704/291/15 700/292/15
f 702/293/16 706/292/16 705/289/16 701/294/16
f 701/321/6 705/322/6 703/323/6 699/324/6
f 700/317/5 704/318/5 706/325/5 702/326/5
f 703/289/3 707/290/3 708/291/3 704/292/3
f 706/293/4 710/292/4 709/289/4 705/294/4
f 705/327/6 709/328/6 707/329/6 703/330/6
f 704/291/5 708/292/5 710/331/5 706/332/5
f 707/289/22 711/290/22 712/291/22 708/292/22
f 710/293/21 714/292/21 713/289/21 709/294/21
f 709/333/6 713/334/6 711/292/6 707/335/6
f 708/336/5 712/292/5 714/337/5 710/338/5
f 711/289/20 715/290/20 716/291/20 712/292/20
f 714/293/19 718/292/19 717/289/19 713/294/19
f 713/339/6 717/340/6 715/341/6 711/342/6
f 712/336/5 716/292/5 718/343/5 714/344/5
f 715/289/2 719/290/2 720/291/2 716/292/2
f 718/293/1 722/292/1 721/289/1 717/294/1
f 717/345/6 721/346/6 719/292/6 715/347/6
f 716/292/5 720/347/5 722/345/5 718/346/5
f 719/289/18 723/290/18 724/291/18 720/292/18
f 722/293/17 726/292/17 725/289/17 721/294/17
f 721/348/6 725/349/6 723/336/6 719/350/6
f 720/292/5 724/342/5 726/351/5 722/352/5
f 723/289/16 727/290/16 728/291/16 724/292/16
f 726/293/15 730/292/15 729/289/15 725/294/15
f 725/353/6 729/354/6 727/355/6 723/292/6
f 724/292/5 728/342/5 730/356/5 726/357/5
f 727/289/4 683/290/4 684/291/4 728/292/4
f 730/293/3 686/292/3 685/289/3 729/294/3
f 729/331/6 685/332/6 683/291/6 727/292/6
f 728/329/5 684/330/5 686/327/5 730/328/5
f 734/358/1 732/359/1 731/268/1 733/360/1
f 737/361/2 735/258/2 736/362/2 738/363/2
f 731/364/3 732/365/3 736/366/3 735/367/3
f 734/368/4 733/255/4 737/369/4 738/370/4
f 733/198/5 731/371/5 735/372/5 737/373/5
f 738/374/6 736/375/6 732/376/6 734/377/6
f 742/378/1 740/379/1 739/380/1 741/381/1
f 745/260/2 743/360/2 744/382/2 746/383/2
f 739/253/3 740/384/3 744/385/3 743/386/3
f 742/387/4 741/388/4 745/389/4 746/390/4
f 741/391/5 739/392/5 743/393/5 745/394/5
f 746/367/6 744/394/6 740/360/6 742/260/6
f 749/395/4 747/396/4 748/391/4 750/255/4
f 747/266/33 666/397/33 667/398/33 748/364/33
f 669/399/34 668/226/34 749/272/34 750/127/34
f 668/265/5 666/400/5 747/260/5 749/401/5
f 748/398/35 667/364/36 669/266/37 750/397/37
f 663/396/38 662/391/38 751/255/38 752/395/38
f 753/264/39 664/402/39 665/371/39 754/403/39
f 752/230/4 751/248/4 753/360/4 754/196/4
f 751/265/5 662/400/5 664/260/5 753/401/5
f 665/400/40 663/260/41 752/401/42 754/265/42
f 758/269/1 756/261/1 755/270/1 757/271/1
f 761/269/2 759/261/2 760/270/2 762/271/2
f 755/272/3 756/273/3 760/270/3 759/274/3
f 758/272/4 757/273/4 761/270/4 762/274/4
f 757/275/5 755/273/5 759/270/5 761/271/5
f 762/275/6 760/273/6 756/270/6 758/271/6
f 776/289/21 780/290/21 781/291/21 777/292/21
f 779/293/22 783/292/22 782/289/22 778/294/22
f 778/295/6 782/296/6 780/297/6 776/298/6
f 777/299/5 781/300/5 783/301/5 779/302/5
f 780/289/19 784/290/19 785/291/19 781/292/19
f 783/293/20 787/292/20 786/289/20 782/294/20
f 782/303/6 786/304/6 784/305/6 780/306/6
f 781/299/5 785/300/5 787/307/5 783/308/5
f 784/289/1 788/290/1 789/291/1 785/292/1
f 787/293/2 791/292/2 790/289/2 786/294/2
f 786/309/6 790/310/6 788/311/6 784/312/6
f 785/311/5 789/312/5 791/309/5 787/310/5
f 788/289/17 792/290/17 793/291/17 789/292/17
f 791/293/18 795/292/18 794/289/18 790/294/18
f 790/313/6 794/314/6 792/315/6 788/316/6
f 789/317/5 793/318/5 795/319/5 791/320/5
f 792/289/15 796/290/15 797/291/15 793/292/15
f 795/293/16 799/292/16 798/289/16 794/294/16
f 794/321/6 798/322/6 796/323/6 792/324/6
f 793/317/5 797/318/5 799/325/5 795/326/5
f 796/289/3 800/290/3 801/291/3 797/292/3
f 799/293/4 803/292/4 802/289/4 798/294/4
f 798/327/6 802/328/6 800/329/6 796/330/6
f 797/291/5 801/292/5 803/331/5 799/332/5
f 800/289/22 804/290/22 805/291/22 801/292/22
f 803/293/21 807/292/21 806/289/21 802/294/21
f 802/333/6 806/334/6 804/292/6 800/335/6
f 801/336/5 805/292/5 807/337/5 803/338/5
f 804/289/20 808/290/20 809/291/20 805/292/20
f 807/293/19 811/292/19 810/289/19 806/294/19
f 806/339/6 810/340/6 808/341/6 804/342/6
f 805/336/5 809/292/5 811/343/5 807/344/5
f 808/289/2 812/290/2 813/291/2 809/292/2
f 811/293/1 815/292/1 814/289/1 810/294/1
f 810/345/6 814/346/6 812/292/6 808/347/6
f 809/292/5 813/347/5 815/345/5 811/346/5
f 812/289/18 816/290/18 817/291/18 813/292/18
f 815/293/17 819/292/17 818/289/17 814/294/17
f 814/348/6 818/349/6 816/336/6 812/350/6
f 813/292/5 817/342/5 819/351/5 815/352/5
f 816/289/16 820/290/16 821/291/16 817/292/16
f 819/293/15 823/292/15 822/289/15 818/294/15
f 818/353/6 822/354/6 820/355/6 816/292/6
f 817/292/5 821/342/5 823/356/5 819/357/5
f 820/289/4 776/290/4 777/291/4 821/292/4
f 823/293/3 779/292/3 778/289/3 822/294/3
f 822/331/6 778/332/6 776/291/6 820/292/6
f 821/329/5 777/330/5 779/327/5 823/328/5
f 827/358/1 825/359/1 824/268/1 826/360/1
f 824/364/3 825/365/3 740/366/3 739/367/3
f 827/368/4 826/255/4 741/369/4 742/370/4
f 826/198/5 824/371/5 739/372/5 741/373/5
f 742/374/6 740/375/6 825/376/6 827/377/6
f 831/378/1 829/379/1 828/380/1 830/381/1
f 834/260/2 832/360/2 833/382/2 835/383/2
f 828/253/3 829/384/3 833/385/3 832/386/3
f 831/387/4 830/388/4 834/389/4 835/390/4
f 830/391/5 828/392/5 832/393/5 834/394/5
f 835/367/6 833/394/6 829/360/6 831/260/6
f 837/395/4 751/396/4 836/391/4 838/255/4
f 751/266/33 759/397/33 760/398/33 836/364/33
f 762/399/34 761/226/34 837/272/34 838/127/34
f 761/265/5 759/400/5 751/260/5 837/401/5
f 836/398/35 760/364/36 762/266/37 838/397/37
f 756/396/38 755/391/38 839/255/38 840/395/38
f 841/264/39 757/402/39 758/371/39 842/403/39
f 840/230/4 839/248/4 841/360/4 842/196/4
f 839/265/5 755/400/5 757/260/5 841/401/5
f 758/400/40 756/260/41 840/401/42 842/265/42
f 846/269/1 844/261/1 843/270/1 845/271/1
f 849/269/2 847/261/2 848/270/2 850/271/2
f 843/272/3 844/273/3 848/270/3 847/274/3
f 846/272/4 845/273/4 849/270/4 850/274/4
f 845/275/5 843/273/5 847/270/5 849/271/5
f 850/275/6 848/273/6 844/270/6 846/271/6
f 864/289/21 868/290/21 869/291/21 865/292/21
f 867/293/22 871/292/22 870/289/22 866/294/22
f 866/295/6 870/296/6 868/297/6 864/298/6
f 865/299/5 869/300/5 871/301/5 867/302/5
f 868/289/19 872/290/19 873/291/19 869/292/19
f 871/293/20 875/292/20 874/289/20 870/294/20
f 870/303/6 874/304/6 872/305/6 868/306/6
f 869/299/5 873/300/5 875/307/5 871/308/5
f 872/289/1 876/290/1 877/291/1 873/292/1
f 875/293/2 879/292/2 878/289/2 874/294/2
f 874/309/6 878/310/6 876/311/6 872/312/6
f 873/311/5 877/312/5 879/309/5 875/310/5
f 876/289/17 880/290/17 881/291/17 877/292/17
f 879/293/18 883/292/18 882/289/18 878/294/18
f 878/313/6 882/314/6 880/315/6 876/316/6
f 877/317/5 881/318/5 883/319/5 879/320/5
f 880/289/15 884/290/15 885/291/15 881/292/15
f 883/293/16 887/292/16 886/289/16 882/294/16
f 882/321/6 886/322/6 884/323/6 880/324/6
f 881/317/5 885/318/5 887/325/5 883/326/5
f 884/289/3 888/290/3 889/291/3 885/292/3
f 887/293/4 891/292/4 890/289/4 886/294/4
f 886/327/6 890/328/6 888/329/6 884/330/6
f 885/291/5 889/292/5 891/331/5 887/332/5
f 888/289/22 892/290/22 893/291/22 889/292/22
f 891/293/21 895/292/21 894/289/21 890/294/21
f 890/333/6 894/334/6 892/292/6 888/335/6
f 889/336/5 893/292/5 895/337/5 891/338/5
f 892/289/20 896/290/20 897/291/20 893/292/20
f 895/293/19 899/292/19 898/289/19 894/294/19
f 894/339/6 898/340/6 896/341/6 892/342/6
f 893/336/5 897/292/5 899/343/5 895/344/5
f 896/289/2 900/290/2 901/291/2 897/292/2
f 899/293/1 903/292/1 902/289/1 898/294/1
f 898/345/6 902/346/6 900/292/6 896/347/6
f 897/292/5 901/347/5 903/345/5 899/346/5
f 900/289/18 904/290/18 905/291/18 901/292/18
f 903/293/17 907/292/17 906/289/17 902/294/17
f 902/348/6 906/349/6 904/336/6 900/350/6
f 901/292/5 905/342/5 907/351/5 903/352/5
f 904/289/16 908/290/16 909/291/16 905/292/16
f 907/293/15 911/292/15 910/289/15 906/294/15
f 906/353/6 910/354/6 908/355/6 904/292/6
f 905/292/5 909/342/5 911/356/5 907/357/5
f 908/289/4 864/290/4 865/291/4 909/292/4
f 911/293/3 867/292/3 866/289/3 910/294/3
f 910/331/6 866/332/6 864/291/6 908/292/6
f 909/329/5 865/330/5 867/327/5 911/328/5
f 915/358/1 913/359/1 912/268/1 914/360/1
f 918/361/2 916/258/2 917/362/2 919/363/2
f 912/364/3 913/365/3 917/366/3 916/367/3
f 915/368/4 914/255/4 918/369/4 919/370/4
f 914/198/5 912/371/5 916/372/5 918/373/5
f 919/374/6 917/375/6 913/376/6 915/377/6
f 922/260/2 920/360/2 921/382/2 923/383/2
f 735/253/3 736/384/3 921/385/3 920/386/3
f 738/387/4 737/388/4 922/389/4 923/390/4
f 737/391/5 735/392/5 920/393/5 922/394/5
f 923/367/6 921/394/6 736/360/6 738/260/6
f 926/395/4 924/396/4 925/391/4 927/255/4
f 924/266/33 847/397/33 848/398/33 925/364/33
f 850/399/34 849/226/34 926/272/34 927/127/34
f 849/265/5 847/400/5 924/260/5 926/401/5
f 925/398/35 848/364/36 850/266/37 927/397/37
f 844/396/38 843/391/38 747/255/38 928/395/38
f 929/264/39 845/402/39 846/371/39 930/403/39
f 928/230/4 747/248/4 929/360/4 930/196/4
f 747/265/5 843/400/5 845/260/5 929/401/5
f 846/400/40 844/260/41 928/401/42 930/265/42
f 934/404/1 932/405/1 931/406/1 933/407/1
f 937/404/2 935/405/2 936/406/2 938/407/2
f 931/408/43 932/409/43 936/410/43 935/406/43
f 934/408/44 933/409/44 937/410/44 938/406/44
f 933/411/45 931/412/45 935/413/45 937/414/45
f 938/411/46 936/412/46 932/413/46 934/414/46
f 950/422/1 948/423/1 947/424/1 949/425/1
f 953/426/2 951/427/2 952/428/2 954/429/2
f 947/430/3 948/431/3 952/432/3 951/433/3
f 950/434/4 949/435/4 953/436/4 954/437/4
f 949/438/5 947/435/5 951/436/5 953/439/5
f 954/440/6 952/430/6 948/433/6 950/441/6
f 958/442/1 956/443/1 955/444/1 957/445/1
f 961/442/2 959/443/2 960/444/2 962/445/2
f 955/444/3 956/446/3 960/447/3 959/448/3
f 958/444/4 957/446/4 961/447/4 962/448/4
f 957/449/5 955/450/5 959/451/5 961/452/5
f 962/453/6 960/454/6 956/448/6 958/455/6
f 982/462/1 980/463/1 979/464/1 981/465/1
f 985/462/2 983/463/2 984/464/2 986/465/2
f 979/463/3 980/466/3 984/467/3 983/464/3
f 982/463/4 981/466/4 985/467/4 986/464/4
f 981/462/5 979/463/5 983/464/5 985/465/5
f 986/462/6 984/463/6 980/464/6 982/465/6
f 990/462/1 988/463/1 987/464/1 989/465/1
f 993/462/2 991/463/2 992/464/2 994/465/2
f 987/463/3 988/466/3 992/467/3 991/464/3
f 990/463/4 989/466/4 993/467/4 994/464/4
f 989/462/5 987/463/5 991/464/5 993/465/5
f 994/462/6 992/463/6 988/464/6 990/465/6
f 1030/477/1 1028/478/1 1027/479/1 1029/480/1
f 1033/463/2 1031/466/2 1032/467/2 1034/464/2
f 1027/481/3 1028/482/3 1032/483/3 1031/484/3
f 1030/481/4 1029/482/4 1033/483/4 1034/484/4
f 1029/481/5 1027/482/5 1031/483/5 1033/484/5
f 1034/481/6 1032/482/6 1028/483/6 1030/484/6
usemtl m_409504fd-f58c-4195-329e-2b61b82ac830.005
f 215/114/6 216/115/6 213/116/6
f 216/115/6 217/117/6 213/116/6
f 217/117/6 218/118/6 213/116/6
f 218/118/6 219/119/6 213/116/6
f 219/119/6 220/120/6 213/116/6
f 220/120/6 221/121/6 213/116/6
f 221/121/6 222/122/6 213/116/6
f 222/122/6 223/123/6 213/116/6
f 223/123/6 224/124/6 213/116/6
f 224/124/6 225/125/6 213/116/6
f 225/125/6 214/126/6 213/116/6
f 214/126/6 215/114/6 213/116/6
f 300/114/6 301/115/6 298/116/6
f 301/115/6 302/117/6 298/116/6
f 302/117/6 303/118/6 298/116/6
f 303/118/6 304/119/6 298/116/6
f 304/119/6 305/120/6 298/116/6
f 305/120/6 306/121/6 298/116/6
f 306/121/6 307/122/6 298/116/6
f 307/122/6 308/123/6 298/116/6
f 308/123/6 309/124/6 298/116/6
f 309/124/6 310/125/6 298/116/6
f 310/125/6 299/126/6 298/116/6
f 299/126/6 300/114/6 298/116/6
f 393/276/6 391/277/6 394/278/6
f 394/278/6 391/277/6 395/279/6
f 395/279/6 391/277/6 396/280/6
f 396/280/6 391/277/6 397/281/6
f 397/281/6 391/277/6 398/282/6
f 398/282/6 391/277/6 399/283/6
f 399/283/6 391/277/6 400/284/6
f 400/284/6 391/277/6 401/285/6
f 401/285/6 391/277/6 402/286/6
f 402/286/6 391/277/6 403/287/6
f 403/287/6 391/277/6 392/288/6
f 392/288/6 391/277/6 393/276/6
f 486/276/6 484/277/6 487/278/6
f 487/278/6 484/277/6 488/279/6
f 488/279/6 484/277/6 489/280/6
f 489/280/6 484/277/6 490/281/6
f 490/281/6 484/277/6 491/282/6
f 491/282/6 484/277/6 492/283/6
f 492/283/6 484/277/6 493/284/6
f 493/284/6 484/277/6 494/285/6
f 494/285/6 484/277/6 495/286/6
f 495/286/6 484/277/6 496/287/6
f 496/287/6 484/277/6 485/288/6
f 485/288/6 484/277/6 486/276/6
f 579/276/6 577/277/6 580/278/6
f 580/278/6 577/277/6 581/279/6
f 581/279/6 577/277/6 582/280/6
f 582/280/6 577/277/6 583/281/6
f 583/281/6 577/277/6 584/282/6
f 584/282/6 577/277/6 585/283/6
f 585/283/6 577/277/6 586/284/6
f 586/284/6 577/277/6 587/285/6
f 587/285/6 577/277/6 588/286/6
f 588/286/6 577/277/6 589/287/6
f 589/287/6 577/277/6 578/288/6
f 578/288/6 577/277/6 579/276/6
f 672/276/6 670/277/6 673/278/6
f 673/278/6 670/277/6 674/279/6
f 674/279/6 670/277/6 675/280/6
f 675/280/6 670/277/6 676/281/6
f 676/281/6 670/277/6 677/282/6
f 677/282/6 670/277/6 678/283/6
f 678/283/6 670/277/6 679/284/6
f 679/284/6 670/277/6 680/285/6
f 680/285/6 670/277/6 681/286/6
f 681/286/6 670/277/6 682/287/6
f 682/287/6 670/277/6 671/288/6
f 671/288/6 670/277/6 672/276/6
f 765/276/6 763/277/6 766/278/6
f 766/278/6 763/277/6 767/279/6
f 767/279/6 763/277/6 768/280/6
f 768/280/6 763/277/6 769/281/6
f 769/281/6 763/277/6 770/282/6
f 770/282/6 763/277/6 771/283/6
f 771/283/6 763/277/6 772/284/6
f 772/284/6 763/277/6 773/285/6
f 773/285/6 763/277/6 774/286/6
f 774/286/6 763/277/6 775/287/6
f 775/287/6 763/277/6 764/288/6
f 764/288/6 763/277/6 765/276/6
f 853/276/6 851/277/6 854/278/6
f 854/278/6 851/277/6 855/279/6
f 855/279/6 851/277/6 856/280/6
f 856/280/6 851/277/6 857/281/6
f 857/281/6 851/277/6 858/282/6
f 858/282/6 851/277/6 859/283/6
f 859/283/6 851/277/6 860/284/6
f 860/284/6 851/277/6 861/285/6
f 861/285/6 851/277/6 862/286/6
f 862/286/6 851/277/6 863/287/6
f 863/287/6 851/277/6 852/288/6
f 852/288/6 851/277/6 853/276/6
usemtl m_b2af6bd8-ffc8-ff72-7f7b-7b18782af15d.005
f 942/415/1 940/416/1 939/3/1 941/417/1
f 945/415/2 943/416/2 944/3/2 946/417/2
f 939/418/3 940/419/3 944/3/3 943/420/3
f 942/418/4 941/419/4 945/3/4 946/420/4
f 941/421/5 939/419/5 943/3/5 945/417/5
f 946/421/6 944/419/6 940/3/6 942/417/6
f 966/456/1 964/2/1 963/3/1 965/417/1
f 969/421/2 967/419/2 968/457/2 970/458/2
f 963/421/3 964/459/3 968/460/3 967/417/3
f 966/461/4 965/419/4 969/3/4 970/7/4
f 965/421/5 963/419/5 967/3/5 969/417/5
f 970/421/6 968/419/6 964/3/6 966/417/6
f 974/456/1 972/2/1 971/3/1 973/417/1
f 977/421/2 975/419/2 976/457/2 978/458/2
f 971/421/3 972/459/3 976/460/3 975/417/3
f 974/461/4 973/419/4 977/3/4 978/7/4
f 973/421/5 971/419/5 975/3/5 977/417/5
f 978/421/6 976/419/6 972/3/6 974/417/6
f 998/468/1 996/469/1 995/470/1 997/471/1
f 1001/468/2 999/469/2 1000/470/2 1002/471/2
f 995/468/47 996/472/47 1000/473/47 999/471/47
f 998/468/48 997/472/48 1001/473/48 1002/471/48
f 997/468/49 995/469/49 999/470/49 1001/471/49
f 1002/468/50 1000/469/50 996/470/50 998/471/50
f 1006/474/51 1004/475/51 1003/3/51 1005/476/51
f 1009/474/52 1007/475/52 1008/3/52 1010/476/52
f 1003/468/53 1004/472/53 1008/473/53 1007/471/53
f 1006/468/54 1005/472/54 1009/473/54 1010/471/54
f 1005/474/55 1003/475/55 1007/3/55 1009/476/55
f 1010/474/56 1008/475/56 1004/3/56 1006/476/56
f 1014/474/57 1012/475/57 1011/3/57 1013/476/57
f 1017/474/58 1015/475/58 1016/3/58 1018/476/58
f 1011/468/53 1012/472/53 1016/473/53 1015/471/53
f 1014/468/54 1013/472/54 1017/473/54 1018/471/54
f 1013/474/55 1011/475/55 1015/3/55 1017/476/55
f 1018/474/56 1016/475/56 1012/3/56 1014/476/56
f 1022/468/1 1020/469/1 1019/470/1 1021/471/1
f 1025/468/2 1023/469/2 1024/470/2 1026/471/2
f 1019/468/47 1020/472/47 1024/473/47 1023/471/47
f 1022/468/48 1021/472/48 1025/473/48 1026/471/48
f 1021/468/49 1019/469/49 1023/470/49 1025/471/49
f 1026/468/50 1024/469/50 1020/470/50 1022/471/50
f 199/485/1 1036/486/1 1035/487/1 1037/488/1
f 1040/489/2 1038/490/2 1039/491/2 208/492/2
f 1035/459/3 1036/419/3 1039/475/3 1038/493/3
f 199/421/4 1037/461/4 1040/494/4 208/495/4
f 1037/485/5 1035/486/5 1038/496/5 1040/497/5
f 208/497/6 1039/496/6 1036/491/6 199/492/6
f 212/498/1 1042/419/1 1041/2/1 1043/499/1
f 1046/500/2 1044/457/2 1045/3/2 203/501/2
f 1041/459/3 1042/419/3 1045/475/3 1044/493/3
f 212/421/4 1043/461/4 1046/494/4 203/495/4
f 1043/498/5 1041/419/5 1044/475/5 1046/502/5
f 203/502/6 1045/475/6 1042/3/6 212/501/6
f 1050/503/1 1048/504/1 1047/3/1 1049/15/1
f 1053/503/2 1051/504/2 1052/3/2 1054/15/2
f 1047/505/3 1048/475/3 1052/3/3 1051/506/3
f 1050/505/4 1049/475/4 1053/3/4 1054/506/4
f 1049/507/5 1047/419/5 1051/475/5 1053/508/5
f 1054/508/6 1052/475/6 1048/3/6 1050/15/6
f 1058/509/1 1056/510/1 1055/511/1 1057/512/1
f 1061/513/2 1059/514/2 1060/515/2 1062/516/2
f 1055/517/3 1056/518/3 1060/519/3 1059/520/3
f 1058/521/4 1057/522/4 1061/460/4 1062/420/4
f 1057/523/5 1055/524/5 1059/525/5 1061/526/5
f 1062/527/6 1060/513/6 1056/528/6 1058/529/6
f 1066/530/1 1064/531/1 1063/532/1 1065/533/1
f 1068/534/2 1067/535/2 1051/494/2 1053/508/2
f 1063/536/3 1064/507/3 1051/508/3 1067/537/3
f 1066/538/4 1065/539/4 1068/540/4 1053/541/4
f 1065/507/5 1063/461/5 1067/494/5 1068/508/5
f 1053/508/6 1051/494/6 1064/7/6 1066/15/6
f 1072/542/1 1070/543/1 1069/7/1 1071/15/1
f 1075/503/2 1073/544/2 1074/545/2 1076/546/2
f 1069/547/3 1070/548/3 1074/549/3 1073/550/3
f 1072/551/4 1071/419/4 1075/457/4 1076/552/4
f 1071/507/5 1069/461/5 1073/553/5 1075/554/5
f 1076/555/6 1074/556/6 1070/7/6 1072/15/6
f 1071/530/1 1069/531/1 1077/532/1 1078/533/1
f 1081/534/2 1079/535/2 1080/494/2 1082/508/2
f 1077/536/3 1069/507/3 1080/508/3 1079/537/3
f 1071/538/4 1078/539/4 1081/540/4 1082/541/4
f 1078/507/5 1077/461/5 1079/494/5 1081/508/5
f 1082/508/6 1080/494/6 1069/7/6 1071/15/6
f 1084/507/1 199/419/1 1037/2/1 1083/555/1
f 1085/554/2 1046/457/2 203/3/2 1086/15/2
f 1037/557/3 199/558/3 203/3/3 1046/460/3
f 1084/559/4 1083/560/4 1085/7/4 1086/417/4
f 1083/561/5 1037/558/5 1046/3/5 1085/15/5
f 1086/561/6 203/558/6 199/3/6 1084/15/6
f 1090/507/1 1088/461/1 1087/556/1 1089/555/1
f 1093/554/2 1091/553/2 1092/7/2 1094/15/2
f 1087/522/3 1088/562/3 1092/450/3 1091/563/3
f 1090/564/4 1089/565/4 1093/566/4 1094/567/4
f 1089/568/5 1087/565/5 1091/566/5 1093/569/5
f 1094/568/6 1092/565/6 1088/566/6 1090/569/6
f 1098/534/1 1096/535/1 1095/556/1 1097/555/1
f 1101/534/2 1099/535/2 1100/556/2 1102/555/2
f 1095/67/3 1096/545/3 1100/570/3 1099/571/3
f 1098/67/4 1097/545/4 1101/570/4 1102/571/4
f 1097/546/5 1095/545/5 1099/570/5 1101/572/5
f 1102/546/6 1100/545/6 1096/570/6 1098/572/6
f 1106/507/59 1104/461/59 1103/556/59 1105/555/59
f 1109/554/60 1107/553/60 1108/7/60 1110/15/60
f 1103/522/61 1104/562/61 1108/450/61 1107/563/61
f 1106/564/62 1105/565/62 1109/566/62 1110/567/62
f 1105/568/5 1103/565/5 1107/566/5 1109/569/5
f 1110/568/6 1108/565/6 1104/566/6 1106/569/6
f 1114/507/61 1112/461/61 1111/556/61 1113/555/61
f 1117/554/62 1115/553/62 1116/7/62 1118/15/62
f 1111/573/60 1112/574/60 1116/450/60 1115/563/60
f 1114/575/59 1113/576/59 1117/566/59 1118/567/59
f 1113/577/5 1111/576/5 1115/566/5 1117/569/5
f 1118/577/6 1116/576/6 1112/566/6 1114/569/6
f 1122/421/1 1120/419/1 1119/3/1 1121/417/1
f 1125/421/2 1123/419/2 1124/3/2 1126/417/2
f 1119/578/3 1120/579/3 1124/3/3 1123/417/3
f 1122/578/4 1121/579/4 1125/3/4 1126/417/4
f 1121/578/5 1119/579/5 1123/3/5 1125/417/5
f 1126/580/6 1124/581/6 1120/582/6 1122/583/6
f 1130/584/1 1128/451/1 1127/3/1 1129/7/1
f 1133/584/2 1131/451/2 1132/3/2 1134/7/2
f 1127/585/3 1128/419/3 1132/475/3 1131/474/3
f 1130/585/4 1129/419/4 1133/475/4 1134/474/4
f 1129/461/5 1127/419/5 1131/475/5 1133/494/5
f 1134/494/6 1132/475/6 1128/3/6 1130/7/6
f 1138/584/1 1136/451/1 1135/3/1 1137/7/1
f 1141/584/2 1139/451/2 1140/3/2 1142/7/2
f 1135/585/3 1136/419/3 1140/475/3 1139/474/3
f 1138/585/4 1137/419/4 1141/475/4 1142/474/4
f 1137/461/5 1135/419/5 1139/475/5 1141/494/5
f 1142/494/6 1140/475/6 1136/3/6 1138/7/6
f 1146/586/1 1144/461/1 1143/553/1 1145/587/1
f 1149/588/2 1147/556/2 1148/7/2 1150/589/2
f 1143/461/3 1144/419/3 1148/475/3 1147/494/3
f 1146/421/4 1145/459/4 1149/493/4 1150/495/4
f 1145/586/5 1143/461/5 1147/494/5 1149/590/5
f 1150/590/6 1148/494/6 1144/7/6 1146/589/6
f 1146/507/1 1145/554/1 1151/21/1
f 1149/555/2 1150/15/2 1152/591/2
f 1151/459/63 1145/507/63 1149/508/63 1152/493/63
f 1152/493/6 1150/508/6 1146/15/6 1151/460/6
f 1155/584/1 1154/451/1 1153/3/1 1144/7/1
f 1148/584/2 1156/451/2 1157/3/2 1158/7/2
f 1153/585/3 1154/419/3 1157/475/3 1156/474/3
f 1155/585/4 1144/419/4 1148/475/4 1158/474/4
f 1144/461/5 1153/419/5 1156/475/5 1148/494/5
f 1158/494/6 1157/475/6 1154/3/6 1155/7/6
f 1153/47/64 1143/535/65 1144/584/66
f 1156/2/67 1148/7/68 1147/556/69
f 1143/461/65 1153/419/64 1156/475/67 1147/494/69
f 1127/47/64 1159/535/65 1129/584/66
f 1131/2/67 1133/7/68 1160/556/69
f 1129/585/70 1159/536/71 1160/537/72 1133/474/73
f 1159/461/65 1127/419/64 1131/475/67 1160/494/69
f 1162/584/1 1161/451/1 1146/3/1 1151/7/1
f 1152/584/2 1150/451/2 1163/3/2 1164/7/2
f 1146/585/3 1161/419/3 1163/475/3 1150/474/3
f 1162/585/4 1151/419/4 1152/475/4 1164/474/4
f 1164/494/6 1163/475/6 1161/3/6 1162/7/6
f 1135/586/1 1129/461/1 1159/553/1 1165/587/1
f 1166/588/2 1160/556/2 1133/7/2 1139/589/2
f 1135/421/4 1165/459/4 1166/493/4 1139/495/4
f 1165/586/5 1159/461/5 1160/494/5 1166/590/5
f 1139/590/6 1133/494/6 1129/7/6 1135/589/6
f 1135/507/1 1165/554/1 1137/21/1
f 1166/555/2 1139/15/2 1141/591/2
f 1137/459/63 1165/507/63 1166/508/63 1141/493/63
f 1170/568/74 1168/562/74 1167/2/74 1169/555/74
f 1173/592/75 1171/593/75 1172/3/75 1174/15/75
f 1167/594/76 1168/419/76 1172/475/76 1171/595/76
f 1170/596/77 1169/461/77 1173/494/77 1174/597/77
f 1169/507/5 1167/419/5 1171/475/5 1173/508/5
f 1174/508/6 1172/475/6 1168/3/6 1170/15/6
f 1174/568/78 1172/562/78 1175/2/78 1176/555/78
f 1179/592/79 1177/593/79 1178/3/79 1180/15/79
f 1175/594/76 1172/419/76 1178/475/76 1177/595/76
f 1174/596/77 1176/461/77 1179/494/77 1180/597/77
f 1176/507/5 1175/419/5 1177/475/5 1179/508/5
f 1180/508/6 1178/475/6 1172/3/6 1174/15/6
