# Blender 5.2.0 LTS
# www.blender.org
mtllib ks_matrix_v.mtl
o cube
v 0.312500 4.812500 -0.975000
v 0.312500 4.812500 -1.037500
v 0.312500 4.156250 -0.975000
v 0.312500 4.156250 -1.037500
v -0.312500 4.812500 -1.037500
v -0.312500 4.812500 -0.975000
v -0.312500 4.156250 -1.037500
v -0.312500 4.156250 -0.975000
vn -0.0000 -0.0000 -1.0000
vn 1.0000 -0.0000 -0.0000
vn -0.0000 -0.0000 1.0000
vn -1.0000 -0.0000 -0.0000
vn -0.0000 1.0000 -0.0000
vn -0.0000 -1.0000 -0.0000
vt 0.296875 0.562500
vt 0.453125 0.562500
vt 0.453125 0.718750
vt 0.296875 0.718750
vt 0.281250 0.562500
vt 0.281250 0.718750
vt 0.265625 0.328125
vt 0.484375 0.328125
vt 0.484375 0.484375
vt 0.265625 0.484375
vt 0.468750 0.562500
vt 0.468750 0.718750
vt 0.453125 0.578125
vt 0.296875 0.578125
vt 0.296875 0.703125
vt 0.453125 0.703125
s 1
usemtl m_3d215661-f591-00a8-53e2-d8d611c756be.015
f 4/1/1 7/2/1 5/3/1 2/4/1
f 3/5/2 4/1/2 2/4/2 1/6/2
f 8/7/3 3/8/3 1/9/3 6/10/3
f 7/2/4 8/11/4 6/12/4 5/3/4
f 6/1/5 1/2/5 2/13/5 5/14/5
f 7/15/6 4/16/6 3/3/6 8/4/6
o cube.001
v 0.250000 4.750000 -0.787500
v 0.250000 4.750000 -0.975000
v 0.250000 4.218750 -0.787500
v 0.250000 4.218750 -0.975000
v -0.250000 4.750000 -0.975000
v -0.250000 4.750000 -0.787500
v -0.250000 4.218750 -0.975000
v -0.250000 4.218750 -0.787500
vn -0.0000 -0.0000 -1.0000
vn 1.0000 -0.0000 -0.0000
vn -0.0000 -0.0000 1.0000
vn -1.0000 -0.0000 -0.0000
vn -0.0000 1.0000 -0.0000
vn -0.0000 -1.0000 -0.0000
vt 0.000000 0.000000
vt 0.156250 0.000000
vt 0.156250 0.156250
vt 0.000000 0.156250
vt 0.296875 0.484375
vt 0.343750 0.484375
vt 0.343750 0.609375
vt 0.296875 0.609375
vt 0.265625 0.328125
vt 0.484375 0.328125
vt 0.484375 0.484375
vt 0.265625 0.484375
vt 0.406250 0.484375
vt 0.453125 0.484375
vt 0.453125 0.609375
vt 0.406250 0.609375
vt 0.312500 0.515625
vt 0.437500 0.515625
vt 0.437500 0.562500
vt 0.312500 0.562500
s 1
usemtl m_3d215661-f591-00a8-53e2-d8d611c756be.015
f 12/17/7 15/18/7 13/19/7 10/20/7
f 11/21/8 12/22/8 10/23/8 9/24/8
f 16/25/9 11/26/9 9/27/9 14/28/9
f 15/29/10 16/30/10 14/31/10 13/32/10
f 14/33/11 9/34/11 10/35/11 13/36/11
f 15/33/12 12/34/12 11/35/12 16/36/12
o cube.002
v 0.250000 4.750000 -1.037500
v 0.250000 4.750000 -1.225000
v 0.250000 4.687500 -1.037500
v 0.250000 4.687500 -1.225000
v -0.250000 4.750000 -1.225000
v -0.250000 4.750000 -1.037500
v -0.250000 4.687500 -1.225000
v -0.250000 4.687500 -1.037500
vn -0.0000 -0.0000 -1.0000
vn 1.0000 -0.0000 -0.0000
vn -0.0000 -0.0000 1.0000
vn -1.0000 -0.0000 -0.0000
vn -0.0000 1.0000 -0.0000
vn -0.0000 -1.0000 -0.0000
vt 0.312500 0.609375
vt 0.453125 0.609375
vt 0.453125 0.625000
vt 0.312500 0.625000
vt 0.375000 0.593750
vt 0.437500 0.593750
vt 0.437500 0.609375
vt 0.375000 0.609375
vt 0.312500 0.593750
vt 0.453125 0.687500
vt 0.312500 0.687500
s 1
usemtl m_3d215661-f591-00a8-53e2-d8d611c756be.015
f 20/37/13 23/38/13 21/39/13 18/40/13
f 19/41/14 20/42/14 18/43/14 17/44/14
f 24/37/15 19/38/15 17/39/15 22/40/15
f 23/45/16 24/41/16 22/44/16 21/37/16
f 22/40/17 17/39/17 18/46/17 21/47/17
f 23/40/18 20/39/18 19/46/18 24/47/18
o cube.003
v 0.250000 4.687500 -1.037500
v 0.250000 4.687500 -1.100000
v 0.250000 4.250000 -1.037500
v 0.250000 4.250000 -1.100000
v 0.187500 4.687500 -1.100000
v 0.187500 4.687500 -1.037500
v 0.187500 4.250000 -1.100000
v 0.187500 4.250000 -1.037500
vn -0.0000 -0.0000 -1.0000
vn 1.0000 -0.0000 -0.0000
vn -0.0000 -0.0000 1.0000
vn -1.0000 -0.0000 -0.0000
vn -0.0000 1.0000 -0.0000
vn -0.0000 -1.0000 -0.0000
vt 0.390625 0.335938
vt 0.406250 0.335938
vt 0.406250 0.453125
vt 0.390625 0.453125
vt 0.421875 0.335938
vt 0.421875 0.453125
vt 0.406250 0.421875
vt 0.421875 0.421875
vt 0.421875 0.437500
vt 0.406250 0.437500
s 1
usemtl m_3d215661-f591-00a8-53e2-d8d611c756be.015
f 28/48/19 31/49/19 29/50/19 26/51/19
f 27/48/20 28/49/20 26/50/20 25/51/20
f 32/49/21 27/52/21 25/53/21 30/50/21
f 31/49/22 32/52/22 30/53/22 29/50/22
f 30/54/23 25/55/23 26/56/23 29/57/23
f 31/57/24 28/56/24 27/53/24 32/50/24
o cube.004
v -0.187500 4.687500 -1.037500
v -0.187500 4.687500 -1.100000
v -0.187500 4.250000 -1.037500
v -0.187500 4.250000 -1.100000
v -0.250000 4.687500 -1.100000
v -0.250000 4.687500 -1.037500
v -0.250000 4.250000 -1.100000
v -0.250000 4.250000 -1.037500
vn -0.0000 -0.0000 -1.0000
vn 1.0000 -0.0000 -0.0000
vn -0.0000 -0.0000 1.0000
vn -1.0000 -0.0000 -0.0000
vn -0.0000 1.0000 -0.0000
vn -0.0000 -1.0000 -0.0000
vt 0.390625 0.335938
vt 0.406250 0.335938
vt 0.406250 0.453125
vt 0.390625 0.453125
vt 0.421875 0.335938
vt 0.421875 0.453125
vt 0.406250 0.421875
vt 0.421875 0.421875
vt 0.421875 0.437500
vt 0.406250 0.437500
s 1
usemtl m_3d215661-f591-00a8-53e2-d8d611c756be.015
f 36/58/25 39/59/25 37/60/25 34/61/25
f 35/58/26 36/59/26 34/60/26 33/61/26
f 40/59/27 35/62/27 33/63/27 38/60/27
f 39/59/28 40/62/28 38/63/28 37/60/28
f 38/64/29 33/65/29 34/66/29 37/67/29
f 39/67/30 36/66/30 35/63/30 40/60/30
o cube.005
v -0.187500 4.687500 -1.100000
v -0.187500 4.687500 -1.225000
v -0.187500 4.250000 -1.100000
v -0.250000 4.687500 -1.100000
v -0.250000 4.687500 -1.225000
v -0.250000 4.250000 -1.100000
vn 1.0000 -0.0000 -0.0000
vn -1.0000 -0.0000 -0.0000
vn -0.0000 1.0000 -0.0000
vn -0.0000 -0.0000 1.0000
vn -0.0000 -0.2747 -0.9615
vt 0.375000 0.453125
vt 0.343750 0.453125
vt 0.375000 0.335938
vt 0.343750 0.335938
vt 0.421875 0.421875
vt 0.421875 0.437500
vt 0.406250 0.437500
vt 0.406250 0.421875
vt 0.312500 0.335938
vt 0.312500 0.453125
vt 0.296875 0.453125
vt 0.296875 0.335938
s 1
usemtl m_3d215661-f591-00a8-53e2-d8d611c756be.015
f 42/68/31 41/69/31 43/70/31
f 44/68/32 45/69/32 46/71/32
f 41/72/33 42/73/33 45/74/33 44/75/33
f 43/76/34 41/77/34 44/78/34 46/79/34
f 46/76/35 45/77/35 42/78/35 43/79/35
o cube.006
v 0.250000 4.687500 -1.100000
v 0.250000 4.687500 -1.225000
v 0.250000 4.250000 -1.100000
v 0.187500 4.687500 -1.100000
v 0.187500 4.687500 -1.225000
v 0.187500 4.250000 -1.100000
vn 1.0000 -0.0000 -0.0000
vn -1.0000 -0.0000 -0.0000
vn -0.0000 1.0000 -0.0000
vn -0.0000 -0.0000 1.0000
vn -0.0000 -0.2747 -0.9615
vt 0.375000 0.453125
vt 0.343750 0.453125
vt 0.375000 0.335938
vt 0.343750 0.335938
vt 0.421875 0.421875
vt 0.421875 0.437500
vt 0.406250 0.437500
vt 0.406250 0.421875
vt 0.312500 0.335938
vt 0.312500 0.453125
vt 0.296875 0.453125
vt 0.296875 0.335938
s 1
usemtl m_3d215661-f591-00a8-53e2-d8d611c756be.015
f 48/80/36 47/81/36 49/82/36
f 50/80/37 51/81/37 52/83/37
f 47/84/38 48/85/38 51/86/38 50/87/38
f 49/88/39 47/89/39 50/90/39 52/91/39
f 52/88/40 51/89/40 48/90/40 49/91/40
o cube.007
v 0.187500 4.687500 -1.043750
v 0.187500 4.687500 -1.050000
v 0.187500 4.250000 -1.043750
v 0.187500 4.250000 -1.050000
v -0.187500 4.687500 -1.050000
v -0.187500 4.687500 -1.043750
v -0.187500 4.250000 -1.050000
v -0.187500 4.250000 -1.043750
vn -0.0000 -0.0000 -1.0000
vn 1.0000 -0.0000 -0.0000
vn -0.0000 -0.0000 1.0000
vn -1.0000 -0.0000 -0.0000
vn -0.0000 1.0000 -0.0000
vn -0.0000 -1.0000 -0.0000
vt 0.000000 0.203125
vt 0.187500 0.203125
vt 0.187500 0.421875
vt 0.000000 0.421875
vt 0.015625 0.062500
vt 0.031250 0.062500
vt 0.031250 0.171875
vt 0.015625 0.171875
vt 0.000000 0.109375
vt 0.062500 0.109375
vt 0.062500 0.187500
vt 0.000000 0.187500
vt 0.000000 0.062500
vt 0.000000 0.171875
vt 0.109375 0.140625
vt 0.015625 0.140625
vt 0.015625 0.125000
vt 0.109375 0.125000
vt 0.078125 0.093750
vt 0.015625 0.093750
vt 0.015625 0.109375
vt 0.078125 0.109375
s 1
usemtl m_3d215661-f591-00a8-53e2-d8d611c756be.015
f 56/92/41 59/93/41 57/94/41 54/95/41
f 55/96/42 56/97/42 54/98/42 53/99/42
f 60/100/43 55/101/43 53/102/43 58/103/43
f 59/104/44 60/96/44 58/99/44 57/105/44
f 58/106/45 53/107/45 54/108/45 57/109/45
f 59/110/46 56/111/46 55/112/46 60/113/46
o cube.008
v 0.059375 4.188172 -0.174553
v 0.059375 4.334688 -1.005485
v 0.059375 4.049684 -0.198973
v 0.059375 4.196199 -1.029904
v -0.059375 4.334688 -1.005485
v -0.059375 4.188172 -0.174553
v -0.059375 4.196199 -1.029904
v -0.059375 4.049684 -0.198973
vn -0.0000 0.1736 -0.9848
vn 1.0000 -0.0000 -0.0000
vn -0.0000 -0.1736 0.9848
vn -1.0000 -0.0000 -0.0000
vn -0.0000 0.9848 0.1736
vn -0.0000 -0.9848 -0.1736
vt 0.593750 0.671875
vt 0.623438 0.671875
vt 0.623438 0.703125
vt 0.593750 0.703125
vt 0.562500 0.531250
vt 0.703125 0.531250
vt 0.703125 0.562500
vt 0.562500 0.562500
vt 0.592188 0.562500
vt 0.592188 0.703125
vt 0.562500 0.703125
s 1
usemtl m_3d215661-f591-00a8-53e2-d8d611c756be.015
f 64/114/47 67/115/47 65/116/47 62/117/47
f 63/118/48 64/119/48 62/120/48 61/121/48
f 68/114/49 63/115/49 61/116/49 66/117/49
f 67/118/50 68/119/50 66/120/50 65/121/50
f 66/121/51 61/122/51 62/123/51 65/124/51
f 67/121/52 64/122/52 63/123/52 68/124/52
o cube.009
v 0.062500 4.312500 -0.225000
v 0.062500 4.312500 -0.850000
v 0.062500 4.187500 -0.225000
v 0.062500 4.187500 -0.850000
v -0.062500 4.312500 -0.850000
v -0.062500 4.312500 -0.225000
v -0.062500 4.187500 -0.850000
v -0.062500 4.187500 -0.225000
vn -0.0000 -0.0000 -1.0000
vn 1.0000 -0.0000 -0.0000
vn -0.0000 -0.0000 1.0000
vn -1.0000 -0.0000 -0.0000
vn -0.0000 1.0000 -0.0000
vn -0.0000 -1.0000 -0.0000
vt 0.000000 0.875000
vt 0.125000 0.875000
vt 0.125000 1.000000
vt 0.000000 1.000000
vt 0.625000 0.875000
vt 0.625000 1.000000
vt 0.000000 0.375000
vt 0.125000 0.375000
s 1
usemtl m_b2af6bd8-ffc8-ff72-7f7b-7b18782af15d.015
f 72/125/53 75/126/53 73/127/53 70/128/53
f 71/125/54 72/129/54 70/130/54 69/128/54
f 76/125/55 71/126/55 69/127/55 74/128/55
f 75/125/56 76/129/56 74/130/56 73/128/56
f 74/131/57 69/132/57 70/127/57 73/128/57
f 75/131/58 72/132/58 71/127/58 76/128/58
o cube.010
v 0.171875 4.218750 -1.037500
v 0.171875 4.218750 -1.068750
v 0.171875 3.843750 -1.037500
v 0.171875 3.843750 -1.068750
v -0.171875 4.218750 -1.068750
v -0.171875 4.218750 -1.037500
v -0.171875 3.843750 -1.068750
v -0.171875 3.843750 -1.037500
vn -0.0000 -0.0000 -1.0000
vn 1.0000 -0.0000 -0.0000
vn -0.0000 -0.0000 1.0000
vn -1.0000 -0.0000 -0.0000
vn -0.0000 1.0000 -0.0000
vn -0.0000 -1.0000 -0.0000
vt 0.722656 0.921875
vt 0.777344 0.921875
vt 0.777344 0.984375
vt 0.722656 0.984375
vt 0.765625 0.921875
vt 0.773438 0.921875
vt 0.773438 0.984375
vt 0.765625 0.984375
vt 0.722656 0.843750
vt 0.777344 0.843750
vt 0.777344 0.906250
vt 0.722656 0.906250
vt 0.726562 0.921875
vt 0.718750 0.921875
vt 0.718750 0.984375
vt 0.726562 0.984375
vt 0.777344 0.992188
vt 0.722656 0.992188
vt 0.722656 0.898438
vt 0.777344 0.898438
s 1
usemtl m_3d215661-f591-00a8-53e2-d8d611c756be.015
f 80/133/59 83/134/59 81/135/59 78/136/59
f 79/137/60 80/138/60 78/139/60 77/140/60
f 84/141/61 79/142/61 77/143/61 82/144/61
f 83/145/62 84/146/62 82/147/62 81/148/62
f 82/136/63 77/135/63 78/149/63 81/150/63
f 83/151/64 80/152/64 79/143/64 84/144/64
