# Blender 5.2.0 LTS
# www.blender.org
mtllib ks_matrix.mtl
o cube.011
v -0.187500 6.875000 -0.512501
v -0.187500 6.875000 -0.575001
v -0.187500 6.437500 -0.512500
v -0.187500 6.437500 -0.575000
v -0.250000 6.875000 -0.575001
v -0.250000 6.875000 -0.512501
v -0.250000 6.437500 -0.575000
v -0.250000 6.437500 -0.512500
v -0.183162 6.506807 -0.343750
v -0.183162 6.506807 -0.437500
v -0.315231 6.223586 -0.343750
v -0.315231 6.223586 -0.437500
v -0.239807 6.533221 -0.437501
v -0.239807 6.533221 -0.343751
v -0.371875 6.250000 -0.437500
v -0.371875 6.250000 -0.343750
v 0.239807 6.533221 -0.343751
v 0.239807 6.533221 -0.437501
v 0.371875 6.250000 -0.343750
v 0.371875 6.250000 -0.437500
v 0.183163 6.506807 -0.437500
v 0.183163 6.506807 -0.343750
v 0.315231 6.223586 -0.437500
v 0.315231 6.223586 -0.343750
v 0.375000 6.250000 -0.343750
v 0.375000 6.250000 -0.437500
v 0.375000 6.000000 -0.343750
v 0.375000 6.000000 -0.437500
v 0.312500 6.250000 -0.437500
v 0.312500 6.250000 -0.343750
v 0.312500 6.000000 -0.437500
v 0.312500 6.000000 -0.343750
v -0.312500 6.250000 -0.343750
v -0.312500 6.250000 -0.437500
v -0.312500 6.000000 -0.343750
v -0.312500 6.000000 -0.437500
v -0.375000 6.250000 -0.437500
v -0.375000 6.250000 -0.343750
v -0.375000 6.000000 -0.437500
v -0.375000 6.000000 -0.343750
v 0.187500 6.875000 -0.512501
v 0.187500 6.875000 -0.518751
v 0.187500 6.437500 -0.512500
v 0.187500 6.437500 -0.518750
v -0.187500 6.875000 -0.518751
v -0.187500 6.437500 -0.518750
v -0.187500 6.875000 -0.700001
v -0.250000 6.875000 -0.700001
v 0.250000 6.875000 -0.575001
v 0.250000 6.875000 -0.700001
v 0.250000 6.437500 -0.575000
v 0.187500 6.875000 -0.575001
v 0.187500 6.875000 -0.700001
v 0.187500 6.437500 -0.575000
v 0.312500 7.000000 -0.450001
v 0.312500 7.000000 -0.512501
v 0.312500 6.343750 -0.450000
v 0.312500 6.343750 -0.512500
v -0.312500 7.000000 -0.512501
v -0.312500 7.000000 -0.450001
v -0.312500 6.343750 -0.512500
v -0.312500 6.343750 -0.450000
v 0.250000 6.937500 -0.262501
v 0.250000 6.937500 -0.450001
v 0.250000 6.406250 -0.262500
v 0.250000 6.406250 -0.450000
v -0.250000 6.937500 -0.450001
v -0.250000 6.937500 -0.262501
v -0.250000 6.406250 -0.450000
v -0.250000 6.406250 -0.262500
v 0.250000 6.937500 -0.512501
v 0.250000 6.937500 -0.700001
v 0.250000 6.875000 -0.512501
v -0.250000 6.937500 -0.700001
v -0.250000 6.937500 -0.512501
v 0.250000 6.437500 -0.512500
vn -0.0000 -0.0000 -1.0000
vn 1.0000 -0.0000 -0.0000
vn -0.0000 -0.0000 1.0000
vn -1.0000 -0.0000 -0.0000
vn -0.0000 1.0000 -0.0000
vn -0.0000 -1.0000 -0.0000
vn 0.9063 -0.4226 -0.0000
vn -0.9063 0.4226 -0.0000
vn 0.4226 0.9063 -0.0000
vn -0.4226 -0.9063 -0.0000
vn 0.9063 0.4226 -0.0000
vn -0.9063 -0.4226 -0.0000
vn -0.4226 0.9063 -0.0000
vn 0.4226 -0.9063 -0.0000
vn -0.0000 -0.2747 -0.9615
vt 0.390625 0.335938
vt 0.406250 0.335938
vt 0.406250 0.453125
vt 0.390625 0.453125
vt 0.421875 0.335938
vt 0.421875 0.453125
vt 0.406250 0.421875
vt 0.421875 0.421875
vt 0.421875 0.437500
vt 0.406250 0.437500
vt 0.562500 0.625000
vt 0.625000 0.625000
vt 0.625000 0.937500
vt 0.562500 0.937500
vt 0.468750 0.625000
vt 0.531250 0.625000
vt 0.531250 0.937500
vt 0.468750 0.937500
vt 0.343750 0.625000
vt 0.406250 0.625000
vt 0.406250 0.937500
vt 0.343750 0.937500
vt 0.093750 0.906250
vt 0.156250 0.906250
vt 0.156250 0.968750
vt 0.093750 0.968750
vt 0.000000 0.750000
vt 0.062500 0.750000
vt 0.062500 1.000000
vt 0.000000 1.000000
vt 0.031250 0.750000
vt 0.125000 0.750000
vt 0.125000 1.000000
vt 0.031250 1.000000
vt 0.093750 0.750000
vt 0.093750 1.000000
vt 0.062500 0.906250
vt 0.125000 0.906250
vt 0.062500 0.875000
vt 0.125000 0.875000
vt 0.125000 0.968750
vt 0.062500 0.968750
vt 0.000000 0.203125
vt 0.187500 0.203125
vt 0.187500 0.421875
vt 0.000000 0.421875
vt 0.015625 0.046875
vt 0.031250 0.046875
vt 0.031250 0.156250
vt 0.015625 0.156250
vt 0.000000 0.062500
vt 0.062500 0.062500
vt 0.062500 0.140625
vt 0.000000 0.140625
vt 0.015625 0.031250
vt 0.031250 0.031250
vt 0.031250 0.140625
vt 0.015625 0.140625
vt 0.187500 0.921875
vt 0.093750 0.921875
vt 0.187500 0.906250
vt 0.078125 0.109375
vt 0.015625 0.109375
vt 0.015625 0.125000
vt 0.078125 0.125000
vt 0.375000 0.453125
vt 0.343750 0.453125
vt 0.375000 0.335938
vt 0.343750 0.335938
vt 0.312500 0.335938
vt 0.312500 0.453125
vt 0.296875 0.453125
vt 0.296875 0.335938
vt 0.296875 0.562500
vt 0.453125 0.562500
vt 0.453125 0.718750
vt 0.296875 0.718750
vt 0.281250 0.562500
vt 0.281250 0.718750
vt 0.265625 0.328125
vt 0.484375 0.328125
vt 0.484375 0.484375
vt 0.265625 0.484375
vt 0.468750 0.562500
vt 0.468750 0.718750
vt 0.453125 0.578125
vt 0.296875 0.578125
vt 0.296875 0.703125
vt 0.453125 0.703125
vt 0.000000 0.000000
vt 0.156250 0.000000
vt 0.156250 0.156250
vt 0.000000 0.156250
vt 0.296875 0.484375
vt 0.343750 0.484375
vt 0.343750 0.609375
vt 0.296875 0.609375
vt 0.406250 0.484375
vt 0.453125 0.484375
vt 0.453125 0.609375
vt 0.406250 0.609375
vt 0.312500 0.515625
vt 0.437500 0.515625
vt 0.437500 0.562500
vt 0.312500 0.562500
vt 0.312500 0.609375
vt 0.453125 0.625000
vt 0.312500 0.625000
vt 0.375000 0.593750
vt 0.437500 0.593750
vt 0.437500 0.609375
vt 0.375000 0.609375
vt 0.312500 0.593750
vt 0.453125 0.687500
vt 0.312500 0.687500
s 1
usemtl m_3d215661-f591-00a8-53e2-d8d611c756be.013
f 4/1/1 7/2/1 5/3/1 2/4/1
f 3/1/2 4/2/2 2/3/2 1/4/2
f 8/2/3 3/5/3 1/6/3 6/3/3
f 7/2/4 8/5/4 6/6/4 5/3/4
f 6/7/5 1/8/5 2/9/5 5/10/5
f 7/10/6 4/9/6 3/6/6 8/3/6
f 44/43/1 46/44/1 45/45/1 42/46/1
f 43/47/2 44/48/2 42/49/2 41/50/2
f 3/51/3 43/52/3 41/53/3 1/54/3
f 46/55/4 3/56/4 1/57/4 45/58/4
f 1/59/5 41/60/5 42/23/5 45/61/5
f 46/62/6 44/63/6 43/64/6 3/65/6
f 47/66/2 2/67/2 4/68/2
f 5/66/4 48/67/4 7/69/4
f 2/8/5 47/9/5 48/10/5 5/7/5
f 7/70/15 48/71/15 47/72/15 4/73/15
f 50/66/2 49/67/2 51/68/2
f 52/66/4 53/67/4 54/69/4
f 49/8/5 50/9/5 53/10/5 52/7/5
f 51/70/3 49/71/3 52/72/3 54/73/3
f 54/70/15 53/71/15 50/72/15 51/73/15
f 58/74/1 61/75/1 59/76/1 56/77/1
f 57/78/2 58/74/2 56/77/2 55/79/2
f 62/80/3 57/81/3 55/82/3 60/83/3
f 61/75/4 62/84/4 60/85/4 59/76/4
f 60/74/5 55/75/5 56/86/5 59/87/5
f 61/88/6 58/89/6 57/76/6 62/77/6
f 66/90/1 69/91/1 67/92/1 64/93/1
f 65/94/2 66/95/2 64/96/2 63/97/2
f 70/80/3 65/81/3 63/82/3 68/83/3
f 69/98/4 70/99/4 68/100/4 67/101/4
f 68/102/5 63/103/5 64/104/5 67/105/5
f 69/102/6 66/103/6 65/104/6 70/105/6
f 50/106/1 48/100/1 74/107/1 72/108/1
f 73/109/2 50/110/2 72/111/2 71/112/2
f 6/106/3 73/100/3 71/107/3 75/108/3
f 48/113/4 6/109/4 75/112/4 74/106/4
f 75/108/5 71/107/5 72/114/5 74/115/5
f 48/108/6 50/107/6 73/114/6 6/115/6
f 76/1/2 51/2/2 49/3/2 73/4/2
f 43/2/3 76/5/3 73/6/3 41/3/3
f 54/2/4 43/5/4 41/6/4 52/3/4
f 41/7/5 73/8/5 49/9/5 52/10/5
f 54/10/6 51/9/6 76/6/6 43/3/6
usemtl m_b2af6bd8-ffc8-ff72-7f7b-7b18782af15d.013
f 12/11/1 15/12/1 13/13/1 10/14/1
f 11/15/7 12/16/7 10/17/7 9/18/7
f 16/19/3 11/20/3 9/21/3 14/22/3
f 15/20/8 16/15/8 14/18/8 13/21/8
f 14/23/9 9/24/9 10/25/9 13/26/9
f 15/23/10 12/24/10 11/25/10 16/26/10
f 20/11/1 23/12/1 21/13/1 18/14/1
f 19/15/11 20/16/11 18/17/11 17/18/11
f 24/19/3 19/20/3 17/21/3 22/22/3
f 23/20/12 24/15/12 22/18/12 21/21/12
f 22/23/13 17/24/13 18/25/13 21/26/13
f 23/23/14 20/24/14 19/25/14 24/26/14
f 28/27/1 31/28/1 29/29/1 26/30/1
f 27/31/2 28/32/2 26/33/2 25/34/2
f 32/28/3 27/32/3 25/33/3 30/29/3
f 31/27/4 32/35/4 30/36/4 29/30/4
f 30/37/5 25/38/5 26/33/5 29/29/5
f 31/39/6 28/40/6 27/41/6 32/42/6
f 36/27/1 39/28/1 37/29/1 34/30/1
f 35/31/2 36/32/2 34/33/2 33/34/2
f 40/28/3 35/32/3 33/33/3 38/29/3
f 39/27/4 40/35/4 38/36/4 37/30/4
f 38/37/5 33/38/5 34/33/5 37/29/5
f 39/39/6 36/40/6 35/41/6 40/42/6
