# Blender 5.2.0 LTS
# www.blender.org
mtllib ks_vr_400_right.mtl
o cube
v -0.381250 4.875000 -0.725000
v 0.375000 6.000000 -0.437500
v 0.375000 6.000000 -0.500000
v 0.375000 5.000000 -0.437500
v 0.375000 5.000000 -0.500000
v -0.375000 6.000000 -0.437500
v -0.375000 6.000000 -0.500000
v -0.375000 5.000000 -0.437500
v -0.375000 5.000000 -0.500000
v -0.406250 3.125000 0.125000
v -0.406250 3.125000 -0.125000
v -0.406250 2.125000 0.125000
v -0.406250 2.125000 -0.125000
v -0.656250 3.125000 0.125000
v -0.656250 3.125000 -0.125000
v -0.656250 2.125000 0.125000
v -0.656250 2.125000 -0.125000
v -0.406250 3.687500 0.125000
v -0.406250 3.687500 -0.125000
v -0.656250 3.687500 0.125000
v -0.656250 3.687500 -0.125000
v -0.406250 1.125000 0.125000
v -0.406250 1.125000 -0.125000
v -0.656250 1.125000 0.125000
v -0.656250 1.125000 -0.125000
v -0.406250 0.312500 0.125000
v -0.406250 0.312500 -0.125000
v -0.656250 0.312500 0.125000
v -0.656250 0.312500 -0.125000
v -0.218750 0.625000 -0.062500
v -0.218750 0.625000 -0.125000
v -0.218750 0.562500 -0.062500
v -0.218750 0.562500 -0.125000
v -0.406250 0.625000 -0.062500
v -0.406250 0.625000 -0.125000
v -0.406250 0.562500 -0.062500
v -0.406250 0.562500 -0.125000
v -0.218750 0.625000 0.125000
v -0.218750 0.625000 0.062500
v -0.218750 0.562500 0.125000
v -0.218750 0.562500 0.062500
v -0.406250 0.625000 0.125000
v -0.406250 0.625000 0.062500
v -0.406250 0.562500 0.125000
v -0.406250 0.562500 0.062500
v -0.281250 0.625000 0.062500
v -0.281250 0.625000 -0.062500
v -0.281250 0.562500 0.062500
v -0.281250 0.562500 -0.062500
v -0.218750 1.000000 0.125000
v -0.218750 1.000000 0.062500
v -0.218750 0.937500 0.125000
v -0.218750 0.937500 0.062500
v -0.406250 1.000000 0.125000
v -0.406250 1.000000 0.062500
v -0.406250 0.937500 0.125000
v -0.406250 0.937500 0.062500
v -0.218750 1.000000 -0.062500
v -0.218750 0.937500 -0.062500
v -0.281250 1.000000 0.062500
v -0.281250 1.000000 -0.062500
v -0.281250 0.937500 0.062500
v -0.281250 0.937500 -0.062500
v -0.218750 1.000000 -0.125000
v -0.218750 0.937500 -0.125000
v -0.406250 1.000000 -0.062500
v -0.406250 1.000000 -0.125000
v -0.406250 0.937500 -0.062500
v -0.406250 0.937500 -0.125000
v -0.218750 1.375000 -0.062500
v -0.218750 1.375000 -0.125000
v -0.218750 1.312500 -0.062500
v -0.218750 1.312500 -0.125000
v -0.406250 1.375000 -0.062500
v -0.406250 1.375000 -0.125000
v -0.406250 1.312500 -0.062500
v -0.406250 1.312500 -0.125000
v -0.218750 1.375000 0.062500
v -0.218750 1.312500 0.062500
v -0.281250 1.375000 0.062500
v -0.281250 1.375000 -0.062500
v -0.281250 1.312500 0.062500
v -0.281250 1.312500 -0.062500
v -0.218750 1.375000 0.125000
v -0.218750 1.312500 0.125000
v -0.406250 1.375000 0.125000
v -0.406250 1.375000 0.062500
v -0.406250 1.312500 0.125000
v -0.406250 1.312500 0.062500
v 0.062500 5.000000 -0.156250
v 0.062500 5.000000 -0.218750
v 0.062500 3.875000 -0.156250
v 0.062500 3.875000 -0.218750
v -0.062500 5.000000 -0.156250
v -0.062500 5.000000 -0.218750
v -0.062500 3.875000 -0.156250
v -0.062500 3.875000 -0.218750
v 0.062500 5.000000 0.218750
v 0.062500 5.000000 0.093750
v 0.062500 3.875000 0.218750
v 0.062500 3.875000 0.093750
v -0.062500 5.000000 0.218750
v -0.062500 5.000000 0.093750
v -0.062500 3.875000 0.218750
v -0.062500 3.875000 0.093750
v 0.062500 4.937500 0.093750
v 0.062500 4.937500 -0.156250
v -0.062500 4.937500 0.093750
v -0.062500 4.937500 -0.156250
v 0.062500 4.562500 0.093750
v 0.062500 4.562500 -0.156250
v 0.062500 4.500000 0.093750
v 0.062500 4.500000 -0.156250
v -0.062500 4.562500 0.093750
v -0.062500 4.562500 -0.156250
v -0.062500 4.500000 0.093750
v -0.062500 4.500000 -0.156250
v 0.062500 4.125000 0.093750
v 0.062500 4.125000 -0.156250
v 0.062500 3.937500 0.093750
v 0.062500 3.937500 -0.156250
v -0.062500 4.125000 0.093750
v -0.062500 4.125000 -0.156250
v -0.062500 3.937500 0.093750
v -0.062500 3.937500 -0.156250
v -0.218750 3.250000 0.187500
v -0.218750 3.250000 0.125000
v -0.218750 3.187500 0.187500
v -0.218750 3.187500 0.125000
v -0.593750 3.250000 0.187500
v -0.593750 3.250000 0.125000
v -0.593750 3.187500 0.187500
v -0.593750 3.187500 0.125000
v -0.468750 2.750000 0.187500
v -0.468750 2.750000 0.125000
v -0.468750 2.687500 0.187500
v -0.468750 2.687500 0.125000
v -0.843750 2.750000 0.187500
v -0.843750 2.750000 0.125000
v -0.843750 2.687500 0.187500
v -0.843750 2.687500 0.125000
v -0.218750 2.250000 0.187500
v -0.218750 2.250000 0.125000
v -0.218750 2.187500 0.187500
v -0.218750 2.187500 0.125000
v -0.593750 2.250000 0.187500
v -0.593750 2.250000 0.125000
v -0.593750 2.187500 0.187500
v -0.593750 2.187500 0.125000
v -0.468750 1.750000 0.187500
v -0.468750 1.750000 0.125000
v -0.468750 1.687500 0.187500
v -0.468750 1.687500 0.125000
v -0.843750 1.750000 0.187500
v -0.843750 1.750000 0.125000
v -0.843750 1.687500 0.187500
v -0.843750 1.687500 0.125000
v -0.156250 0.250000 0.375000
v -0.156250 0.250000 -0.375000
v -0.156250 -0.187500 0.375000
v -0.156250 -0.187500 -0.375000
v -0.906250 0.250000 0.375000
v -0.906250 0.250000 -0.375000
v -0.906250 -0.187500 0.375000
v -0.906250 -0.187500 -0.375000
v -0.218750 0.312500 0.250000
v -0.218750 0.312500 -0.250000
v -0.218750 0.250000 0.250000
v -0.218750 0.250000 -0.250000
v -0.843750 0.312500 0.250000
v -0.843750 0.312500 -0.250000
v -0.843750 0.250000 0.250000
v -0.843750 0.250000 -0.250000
v -0.575444 0.507583 -0.037500
v -0.575444 0.507583 -0.118750
v -0.487056 0.419194 -0.037500
v -0.487056 0.419194 -0.118750
v -0.796415 0.286612 -0.037500
v -0.796415 0.286612 -0.118750
v -0.708027 0.198223 -0.037500
v -0.708027 0.198223 -0.118750
v -0.273667 0.294194 -0.037500
v -0.273667 0.294194 -0.118750
v -0.362056 0.205806 -0.037500
v -0.362056 0.205806 -0.118750
v -0.494638 0.515165 -0.037500
v -0.494638 0.515165 -0.118750
v -0.583027 0.426777 -0.037500
v -0.583027 0.426777 -0.118750
v -0.273667 0.294194 0.118750
v -0.273667 0.294194 0.037500
v -0.362056 0.205806 0.118750
v -0.362056 0.205806 0.037500
v -0.494638 0.515165 0.118750
v -0.494638 0.515165 0.037500
v -0.583027 0.426777 0.118750
v -0.583027 0.426777 0.037500
v -0.575444 0.507583 0.118750
v -0.575444 0.507583 0.037500
v -0.487056 0.419194 0.118750
v -0.487056 0.419194 0.037500
v -0.796415 0.286612 0.118750
v -0.796415 0.286612 0.037500
v -0.708027 0.198223 0.118750
v -0.708027 0.198223 0.037500
v -0.218750 1.312500 0.500000
v -0.218750 0.500000 0.500000
v -0.218750 0.500000 0.125000
v -0.843750 1.312500 0.500000
v -0.843750 1.312500 0.125000
v -0.843750 0.500000 0.500000
v -0.843750 0.500000 0.125000
v -0.341529 3.861136 0.118750
v -0.341529 3.861136 0.068750
v -0.208947 3.728553 0.118750
v -0.208947 3.728553 0.068750
v -0.562500 3.640165 0.118750
v -0.562500 3.640165 0.068750
v -0.429917 3.507582 0.118750
v -0.429917 3.507582 0.068750
v -0.341529 3.861136 -0.068750
v -0.341529 3.861136 -0.118750
v -0.208947 3.728553 -0.068750
v -0.208947 3.728553 -0.118750
v -0.562500 3.640165 -0.068750
v -0.562500 3.640165 -0.118750
v -0.429917 3.507582 -0.068750
v -0.429917 3.507582 -0.118750
v 0.187500 3.875000 0.250000
v 0.187500 3.875000 -0.250000
v 0.187500 3.812500 0.250000
v 0.187500 3.812500 -0.250000
v -0.375000 3.875000 0.250000
v -0.375000 3.875000 -0.250000
v -0.375000 3.812500 0.250000
v -0.375000 3.812500 -0.250000
v 0.187500 3.812500 0.187500
v 0.187500 3.812500 -0.187500
v 0.187500 3.687500 0.187500
v 0.187500 3.687500 -0.187500
v -0.656250 3.812500 0.187500
v -0.656250 3.812500 -0.187500
v -0.656250 3.687500 0.187500
v -0.656250 3.687500 -0.187500
v -0.375000 3.875000 0.187500
v -0.375000 3.875000 -0.187500
v -0.375000 3.812500 0.187500
v -0.375000 3.812500 -0.187500
v -0.656250 3.875000 0.187500
v -0.656250 3.875000 -0.187500
v 0.125000 3.812500 -0.187500
v 0.125000 3.812500 -0.250000
v 0.125000 3.687500 -0.187500
v 0.062500 3.812500 -0.187500
v 0.062500 3.812500 -0.250000
v 0.062500 3.687500 -0.187500
v -0.062500 3.812500 -0.187500
v -0.062500 3.812500 -0.250000
v -0.062500 3.687500 -0.187500
v -0.125000 3.812500 -0.187500
v -0.125000 3.812500 -0.250000
v -0.125000 3.687500 -0.187500
v -0.250000 3.812500 -0.187500
v -0.250000 3.812500 -0.250000
v -0.250000 3.687500 -0.187500
v -0.312500 3.812500 -0.187500
v -0.312500 3.812500 -0.250000
v -0.312500 3.687500 -0.187500
v 0.125000 3.812500 0.187500
v 0.125000 3.812500 0.250000
v 0.125000 3.687500 0.187500
v 0.062500 3.812500 0.187500
v 0.062500 3.812500 0.250000
v 0.062500 3.687500 0.187500
v -0.062500 3.812500 0.187500
v -0.062500 3.812500 0.250000
v -0.062500 3.687500 0.187500
v -0.125000 3.812500 0.187500
v -0.125000 3.812500 0.250000
v -0.125000 3.687500 0.187500
v -0.250000 3.812500 0.187500
v -0.250000 3.812500 0.250000
v -0.250000 3.687500 0.187500
v -0.312500 3.812500 0.187500
v -0.312500 3.812500 0.250000
v -0.312500 3.687500 0.187500
v -0.062500 3.687500 0.062500
v -0.062500 3.687500 -0.062500
v -0.062500 3.437500 0.062500
v -0.062500 3.437500 -0.062500
v -0.125000 3.687500 0.062500
v -0.125000 3.687500 -0.062500
v -0.125000 3.437500 0.062500
v -0.125000 3.437500 -0.062500
v 0.109375 3.687500 0.031250
v 0.109375 3.687500 -0.031250
v 0.109375 3.568750 0.031250
v 0.109375 3.568750 -0.031250
v 0.062500 3.687500 0.031250
v 0.062500 3.687500 -0.031250
v 0.062500 3.568750 0.031250
v 0.062500 3.568750 -0.031250
v -0.015625 3.490625 0.031250
v -0.015625 3.490625 -0.031250
v -0.015625 3.443750 0.031250
v -0.015625 3.443750 -0.031250
v -0.218750 3.490625 0.031250
v -0.218750 3.490625 -0.031250
v -0.218750 3.443750 0.031250
v -0.218750 3.443750 -0.031250
v -0.406250 3.553125 0.031250
v -0.406250 3.553125 -0.031250
v -0.406250 3.506250 0.031250
v -0.406250 3.506250 -0.031250
v 0.062500 4.000000 0.212500
v 0.062500 4.000000 0.100000
v 0.125000 3.875000 0.212500
v 0.125000 3.875000 0.100000
v 0.062500 3.875000 0.212500
v 0.062500 3.875000 0.100000
v 0.000000 4.000000 0.212500
v 0.000000 4.000000 0.100000
v 0.062500 4.000000 -0.162500
v 0.062500 4.000000 -0.212500
v 0.125000 3.875000 -0.162500
v 0.125000 3.875000 -0.212500
v 0.062500 3.875000 -0.162500
v 0.062500 3.875000 -0.212500
v 0.000000 4.000000 -0.162500
v 0.000000 4.000000 -0.212500
v -0.062500 3.875000 -0.162500
v -0.062500 3.875000 -0.212500
v -0.062500 4.000000 -0.162500
v -0.062500 4.000000 -0.212500
v -0.125000 3.875000 -0.162500
v -0.125000 3.875000 -0.212500
v -0.062500 3.875000 0.212500
v -0.062500 3.875000 0.100000
v -0.062500 4.000000 0.212500
v -0.062500 4.000000 0.100000
v -0.125000 3.875000 0.212500
v -0.125000 3.875000 0.100000
v -0.381250 3.937500 0.275000
v -0.381250 3.937500 -0.693750
v -0.381250 3.875000 0.275000
v -0.381250 3.875000 -0.693750
v -1.100000 3.937500 0.275000
v -1.100000 3.937500 -0.693750
v -1.100000 3.875000 0.275000
v -1.100000 3.875000 -0.693750
v -0.381250 4.437500 -0.256250
v -0.381250 4.437500 -0.725000
v -0.381250 4.406250 -0.256250
v -0.381250 4.406250 -0.725000
v -0.412500 4.437500 -0.256250
v -0.412500 4.437500 -0.725000
v -0.412500 4.406250 -0.256250
v -0.412500 4.406250 -0.725000
v -0.381250 4.875000 -0.256250
v -0.381250 4.843750 -0.256250
v -0.381250 4.843750 -0.725000
v -0.412500 4.875000 -0.256250
v -0.412500 4.875000 -0.725000
v -0.412500 4.843750 -0.256250
v -0.412500 4.843750 -0.725000
v -0.381250 3.937500 -0.756250
v -0.381250 3.875000 -0.756250
v -1.100000 3.937500 -0.756250
v -1.100000 3.875000 -0.756250
v -0.412500 4.437500 -0.756250
v -0.412500 4.406250 -0.756250
v -1.068750 4.437500 -0.725000
v -1.068750 4.437500 -0.756250
v -1.068750 4.406250 -0.725000
v -1.068750 4.406250 -0.756250
v -0.412500 4.875000 -0.756250
v -0.412500 4.843750 -0.756250
v -1.068750 4.875000 -0.725000
v -1.068750 4.875000 -0.756250
v -1.068750 4.843750 -0.725000
v -1.068750 4.843750 -0.756250
v -1.068750 3.937500 -0.725000
v -1.068750 3.937500 -0.756250
v -1.100000 4.875000 -0.725000
v -1.100000 4.875000 -0.756250
v -1.100000 3.937500 -0.725000
v -0.381250 4.875000 -0.756250
v -0.381250 3.937500 -0.725000
v -0.412500 3.937500 -0.725000
v -0.412500 3.937500 -0.756250
v -0.381250 4.875000 -0.225000
v -0.381250 3.937500 -0.225000
v -0.381250 3.937500 -0.256250
v -0.412500 4.875000 -0.225000
v -0.412500 3.937500 -0.225000
v -0.412500 3.937500 -0.256250
v -1.068750 4.875000 0.275000
v -1.068750 4.875000 0.243750
v -1.068750 3.937500 0.275000
v -1.068750 3.937500 0.243750
v -1.100000 4.875000 0.275000
v -1.100000 4.875000 0.243750
v -1.100000 3.937500 0.243750
v -1.068750 4.843750 0.243750
v -1.100000 4.843750 0.243750
v -1.100000 4.843750 -0.725000
v -1.068750 4.437500 0.243750
v -1.068750 4.406250 0.243750
v -1.100000 4.437500 0.243750
v -1.100000 4.437500 -0.725000
v -1.100000 4.406250 0.243750
v -1.100000 4.406250 -0.725000
v -0.662500 3.875000 0.243750
v -0.662500 3.875000 -0.693750
v -0.662500 3.812500 0.243750
v -0.662500 3.812500 -0.693750
v -0.850000 3.875000 0.243750
v -0.850000 3.875000 -0.693750
v -0.850000 3.812500 0.243750
v -0.850000 3.812500 -0.693750
v -0.662500 3.687500 0.243750
v -0.662500 3.687500 -0.693750
v -0.725000 3.812500 0.243750
v -0.725000 3.812500 -0.693750
v -0.725000 3.687500 0.243750
v -0.725000 3.687500 -0.693750
v 0.312500 6.000000 -0.312500
v 0.312500 6.000000 -0.437500
v 0.312500 5.000000 -0.312500
v 0.312500 5.000000 -0.437500
v -0.312500 6.000000 -0.312500
v -0.312500 6.000000 -0.437500
v -0.312500 5.000000 -0.312500
v -0.312500 5.000000 -0.437500
v 0.156250 5.484375 -0.534375
v 0.181370 5.578125 -0.534375
v 0.224880 5.553005 -0.534375
v 0.250000 5.509495 -0.534375
v 0.250000 5.459255 -0.534375
v 0.224880 5.415745 -0.534375
v 0.181370 5.390625 -0.534375
v 0.131130 5.390625 -0.534375
v 0.087620 5.415745 -0.534375
v 0.062500 5.459255 -0.534375
v 0.062500 5.509495 -0.534375
v 0.087620 5.553005 -0.534375
v 0.131130 5.578125 -0.534375
v 0.183464 5.585938 -0.500000
v 0.183464 5.585938 -0.562500
v 0.176050 5.558270 -0.500000
v 0.176050 5.558270 -0.562500
v 0.230599 5.558724 -0.500000
v 0.230599 5.558724 -0.562500
v 0.210345 5.538470 -0.500000
v 0.210345 5.538470 -0.562500
v 0.257812 5.511589 -0.500000
v 0.257812 5.511589 -0.562500
v 0.230145 5.504175 -0.500000
v 0.230145 5.504175 -0.562500
v 0.257812 5.457161 -0.500000
v 0.257812 5.457161 -0.562500
v 0.230145 5.464575 -0.500000
v 0.230145 5.464575 -0.562500
v 0.230599 5.410026 -0.500000
v 0.230599 5.410026 -0.562500
v 0.210345 5.430280 -0.500000
v 0.210345 5.430280 -0.562500
v 0.183464 5.382812 -0.500000
v 0.183464 5.382812 -0.562500
v 0.176050 5.410480 -0.500000
v 0.176050 5.410480 -0.562500
v 0.129036 5.382812 -0.500000
v 0.129036 5.382812 -0.562500
v 0.136450 5.410480 -0.500000
v 0.136450 5.410480 -0.562500
v 0.081901 5.410026 -0.500000
v 0.081901 5.410026 -0.562500
v 0.102155 5.430280 -0.500000
v 0.102155 5.430280 -0.562500
v 0.054688 5.457161 -0.500000
v 0.054688 5.457161 -0.562500
v 0.082355 5.464575 -0.500000
v 0.082355 5.464575 -0.562500
v 0.054688 5.511589 -0.500000
v 0.054688 5.511589 -0.562500
v 0.082355 5.504175 -0.500000
v 0.082355 5.504175 -0.562500
v 0.081901 5.558724 -0.500000
v 0.081901 5.558724 -0.562500
v 0.102155 5.538470 -0.500000
v 0.102155 5.538470 -0.562500
v 0.129036 5.585938 -0.500000
v 0.129036 5.585938 -0.562500
v 0.136450 5.558270 -0.500000
v 0.136450 5.558270 -0.562500
v 0.218750 5.621875 -0.500000
v 0.218750 5.621875 -0.937500
v 0.218750 5.590625 -0.500000
v 0.218750 5.590625 -0.937500
v 0.093750 5.621875 -0.500000
v 0.093750 5.621875 -0.937500
v 0.093750 5.590625 -0.500000
v 0.093750 5.590625 -0.937500
v 0.027459 5.512500 -0.500000
v 0.027459 5.512500 -0.562500
v 0.027459 5.448889 -0.500000
v 0.027459 5.448889 -0.562500
v -0.003791 5.512500 -0.500000
v -0.003791 5.512500 -0.562500
v -0.003791 5.448889 -0.500000
v -0.003791 5.448889 -0.562500
v 0.315625 5.512500 -0.500000
v 0.315625 5.512500 -0.562500
v 0.315625 5.448889 -0.500000
v 0.315625 5.448889 -0.562500
v 0.284375 5.512500 -0.500000
v 0.284375 5.512500 -0.562500
v 0.284375 5.448889 -0.500000
v 0.284375 5.448889 -0.562500
v -0.156250 5.484375 -0.534375
v -0.131130 5.578125 -0.534375
v -0.087620 5.553005 -0.534375
v -0.062500 5.509495 -0.534375
v -0.062500 5.459255 -0.534375
v -0.087620 5.415745 -0.534375
v -0.131130 5.390625 -0.534375
v -0.181370 5.390625 -0.534375
v -0.224880 5.415745 -0.534375
v -0.250000 5.459255 -0.534375
v -0.250000 5.509495 -0.534375
v -0.224880 5.553005 -0.534375
v -0.181370 5.578125 -0.534375
v -0.129036 5.585938 -0.500000
v -0.129036 5.585938 -0.562500
v -0.136450 5.558270 -0.500000
v -0.136450 5.558270 -0.562500
v -0.081901 5.558724 -0.500000
v -0.081901 5.558724 -0.562500
v -0.102155 5.538470 -0.500000
v -0.102155 5.538470 -0.562500
v -0.054688 5.511589 -0.500000
v -0.054688 5.511589 -0.562500
v -0.082355 5.504175 -0.500000
v -0.082355 5.504175 -0.562500
v -0.054688 5.457161 -0.500000
v -0.054688 5.457161 -0.562500
v -0.082355 5.464575 -0.500000
v -0.082355 5.464575 -0.562500
v -0.081901 5.410026 -0.500000
v -0.081901 5.410026 -0.562500
v -0.102155 5.430280 -0.500000
v -0.102155 5.430280 -0.562500
v -0.129036 5.382812 -0.500000
v -0.129036 5.382812 -0.562500
v -0.136450 5.410480 -0.500000
v -0.136450 5.410480 -0.562500
v -0.183464 5.382812 -0.500000
v -0.183464 5.382812 -0.562500
v -0.176050 5.410480 -0.500000
v -0.176050 5.410480 -0.562500
v -0.230599 5.410026 -0.500000
v -0.230599 5.410026 -0.562500
v -0.210345 5.430280 -0.500000
v -0.210345 5.430280 -0.562500
v -0.257812 5.457161 -0.500000
v -0.257812 5.457161 -0.562500
v -0.230145 5.464575 -0.500000
v -0.230145 5.464575 -0.562500
v -0.257812 5.511589 -0.500000
v -0.257812 5.511589 -0.562500
v -0.230145 5.504175 -0.500000
v -0.230145 5.504175 -0.562500
v -0.230599 5.558724 -0.500000
v -0.230599 5.558724 -0.562500
v -0.210345 5.538470 -0.500000
v -0.210345 5.538470 -0.562500
v -0.183464 5.585938 -0.500000
v -0.183464 5.585938 -0.562500
v -0.176050 5.558270 -0.500000
v -0.176050 5.558270 -0.562500
v -0.093750 5.621875 -0.500000
v -0.093750 5.621875 -0.937500
v -0.093750 5.590625 -0.500000
v -0.093750 5.590625 -0.937500
v -0.218750 5.621875 -0.500000
v -0.218750 5.621875 -0.937500
v -0.218750 5.590625 -0.500000
v -0.218750 5.590625 -0.937500
v -0.285041 5.512500 -0.500000
v -0.285041 5.512500 -0.562500
v -0.285041 5.448889 -0.500000
v -0.285041 5.448889 -0.562500
v -0.316291 5.512500 -0.500000
v -0.316291 5.512500 -0.562500
v -0.316291 5.448889 -0.500000
v -0.316291 5.448889 -0.562500
v 0.003125 5.512500 -0.500000
v 0.003125 5.512500 -0.562500
v 0.003125 5.448889 -0.500000
v 0.003125 5.448889 -0.562500
v -0.028125 5.512500 -0.500000
v -0.028125 5.512500 -0.562500
v -0.028125 5.448889 -0.500000
v -0.028125 5.448889 -0.562500
v 0.265625 5.906250 -0.500000
v 0.265625 5.906250 -0.687500
v 0.265625 5.875000 -0.500000
v 0.265625 5.875000 -0.687500
v 0.171875 5.906250 -0.500000
v 0.171875 5.906250 -0.687500
v 0.171875 5.875000 -0.500000
v 0.171875 5.875000 -0.687500
v 0.218750 5.812500 -0.525000
v 0.233404 5.757812 -0.525000
v 0.258784 5.772466 -0.525000
v 0.273438 5.797846 -0.525000
v 0.273438 5.827154 -0.525000
v 0.258784 5.852534 -0.525000
v 0.233404 5.867188 -0.525000
v 0.204096 5.867188 -0.525000
v 0.178716 5.852534 -0.525000
v 0.164062 5.827154 -0.525000
v 0.164062 5.797846 -0.525000
v 0.178716 5.772466 -0.525000
v 0.204096 5.757812 -0.525000
v 0.235497 5.750000 -0.546875
v 0.235497 5.750000 -0.484375
v 0.227714 5.779045 -0.546875
v 0.227714 5.779045 -0.484375
v 0.264503 5.766747 -0.546875
v 0.264503 5.766747 -0.484375
v 0.243241 5.788009 -0.546875
v 0.243241 5.788009 -0.484375
v 0.281250 5.795753 -0.546875
v 0.281250 5.795753 -0.484375
v 0.252205 5.803535 -0.546875
v 0.252205 5.803535 -0.484375
v 0.281250 5.829247 -0.546875
v 0.281250 5.829247 -0.484375
v 0.252205 5.821465 -0.546875
v 0.252205 5.821465 -0.484375
v 0.264503 5.858253 -0.546875
v 0.264503 5.858253 -0.484375
v 0.243241 5.836991 -0.546875
v 0.243241 5.836991 -0.484375
v 0.235497 5.875000 -0.546875
v 0.235497 5.875000 -0.484375
v 0.227714 5.845955 -0.546875
v 0.227714 5.845955 -0.484375
v 0.202003 5.875000 -0.546875
v 0.202003 5.875000 -0.484375
v 0.209786 5.845955 -0.546875
v 0.209786 5.845955 -0.484375
v 0.172997 5.858253 -0.546875
v 0.172997 5.858253 -0.484375
v 0.194259 5.836991 -0.546875
v 0.194259 5.836991 -0.484375
v 0.156250 5.829247 -0.546875
v 0.156250 5.829247 -0.484375
v 0.185295 5.821465 -0.546875
v 0.185295 5.821465 -0.484375
v 0.156250 5.795753 -0.546875
v 0.156250 5.795753 -0.484375
v 0.185295 5.803535 -0.546875
v 0.185295 5.803535 -0.484375
v 0.172997 5.766747 -0.546875
v 0.172997 5.766747 -0.484375
v 0.194259 5.788009 -0.546875
v 0.194259 5.788009 -0.484375
v 0.202003 5.750000 -0.546875
v 0.202003 5.750000 -0.484375
v 0.209786 5.779045 -0.546875
v 0.209786 5.779045 -0.484375
v 0.156629 5.843561 -0.490625
v 0.156629 5.843561 -0.568750
v 0.156629 5.781061 -0.490625
v 0.156629 5.781061 -0.568750
v 0.125379 5.843561 -0.490625
v 0.125379 5.843561 -0.568750
v 0.125379 5.781061 -0.490625
v 0.125379 5.781061 -0.568750
v 0.312879 5.843561 -0.490625
v 0.312879 5.843561 -0.568750
v 0.312879 5.781061 -0.490625
v 0.312879 5.781061 -0.568750
v 0.281629 5.843561 -0.490625
v 0.281629 5.843561 -0.568750
v 0.281629 5.781061 -0.490625
v 0.281629 5.781061 -0.568750
v 0.125000 5.843750 -0.500000
v 0.125000 5.843750 -0.568750
v 0.156250 5.843750 -0.500000
v 0.156250 5.843750 -0.568750
v 0.312500 5.843750 -0.500000
v 0.312500 5.843750 -0.571875
v 0.281250 5.843750 -0.500000
v 0.281250 5.843750 -0.571875
v -0.250000 2.734375 -0.118750
v -0.250000 2.734375 -0.181250
v -0.250000 1.921875 -0.118750
v -0.250000 1.921875 -0.181250
v -0.812500 2.734375 -0.118750
v -0.812500 2.734375 -0.181250
v -0.812500 1.921875 -0.118750
v -0.812500 1.921875 -0.181250
v -0.296875 2.678125 -0.181250
v -0.296875 2.678125 -0.187500
v -0.531250 2.328125 -0.181250
v -0.531250 2.328125 -0.187500
v -0.375000 2.678125 -0.181250
v -0.375000 2.678125 -0.187500
v -0.531250 2.437500 -0.181250
v -0.531250 2.437500 -0.187500
v -0.765625 1.978125 -0.181250
v -0.765625 1.978125 -0.187500
v -0.687500 1.978125 -0.181250
v -0.687500 1.978125 -0.187500
v -0.531250 2.218750 -0.181250
v -0.531250 2.218750 -0.187500
v -0.687500 2.687500 -0.181250
v -0.687500 2.687500 -0.187500
v -0.765625 2.687500 -0.181250
v -0.765625 2.687500 -0.187500
v -0.375000 1.968750 -0.181250
v -0.375000 1.968750 -0.187500
v -0.296875 1.968750 -0.181250
v -0.296875 1.968750 -0.187500
v -0.468750 3.687500 -0.125000
v -0.468750 3.687500 -0.156250
v -0.468750 2.687500 -0.125000
v -0.468750 2.687500 -0.156250
v -0.593750 3.687500 -0.125000
v -0.593750 3.687500 -0.156250
v -0.593750 2.687500 -0.125000
v -0.593750 2.687500 -0.156250
v 0.250000 5.875000 0.671875
v 0.250000 5.875000 0.640625
v 0.250000 5.000000 0.671875
v 0.250000 5.000000 0.640625
v 0.218750 5.875000 0.671875
v 0.218750 5.875000 0.640625
v 0.218750 5.000000 0.671875
v 0.218750 5.000000 0.640625
v -0.218750 5.875000 0.671875
v -0.218750 5.875000 0.640625
v -0.218750 5.000000 0.671875
v -0.218750 5.000000 0.640625
v -0.250000 5.875000 0.671875
v -0.250000 5.875000 0.640625
v -0.250000 5.000000 0.671875
v -0.250000 5.000000 0.640625
v 0.368750 5.884903 0.300697
v 0.368750 5.879477 0.269922
v 0.368750 5.084747 0.441786
v 0.368750 5.079321 0.411011
v 0.337500 5.884903 0.300697
v 0.337500 5.879477 0.269922
v 0.337500 5.084747 0.441786
v 0.337500 5.079321 0.411011
v 0.368750 5.090997 0.441786
v 0.368750 5.080144 0.411486
v 0.243750 4.961646 0.463492
v 0.243750 4.950793 0.433191
v 0.337500 5.090997 0.441786
v 0.337500 5.080144 0.411486
v 0.212500 4.961646 0.463492
v 0.212500 4.950793 0.433191
v -0.350000 5.090997 0.441786
v -0.350000 5.080144 0.411486
v -0.225000 4.961646 0.463492
v -0.225000 4.950793 0.433191
v -0.381250 5.090997 0.441786
v -0.381250 5.080144 0.411486
v -0.256250 4.961646 0.463492
v -0.256250 4.950793 0.433191
v -0.350000 5.884903 0.300697
v -0.350000 5.879477 0.269922
v -0.350000 5.084747 0.441786
v -0.350000 5.079321 0.411011
v -0.381250 5.884903 0.300697
v -0.381250 5.879477 0.269922
v -0.381250 5.084747 0.441786
v -0.381250 5.079321 0.411011
v 0.312500 5.906250 0.671875
v 0.312500 5.906250 0.640625
v 0.312500 5.875000 0.671875
v 0.312500 5.875000 0.640625
v -0.312500 5.906250 0.671875
v -0.312500 5.906250 0.640625
v -0.312500 5.875000 0.671875
v -0.312500 5.875000 0.640625
v 0.375000 5.818750 -0.343750
v 0.375000 5.818750 -0.437500
v 0.375000 5.000000 -0.343750
v 0.312500 5.818750 -0.343750
v 0.312500 5.818750 -0.437500
v 0.312500 5.000000 -0.343750
v -0.312500 5.818750 -0.343750
v -0.312500 5.818750 -0.437500
v -0.312500 5.000000 -0.343750
v -0.375000 5.818750 -0.343750
v -0.375000 5.818750 -0.437500
v -0.375000 5.000000 -0.343750
v -0.343750 5.906250 0.562500
v -0.343750 5.906250 -0.000000
v -0.343750 5.875000 0.562500
v -0.343750 5.875000 -0.000000
v -0.375000 5.906250 0.562500
v -0.375000 5.906250 -0.000000
v -0.375000 5.875000 0.562500
v -0.375000 5.875000 -0.000000
v 0.250000 5.000000 0.687500
v 0.250000 5.000000 0.218750
v 0.250000 4.937500 0.687500
v 0.250000 4.937500 0.218750
v -0.250000 5.000000 0.687500
v -0.250000 5.000000 0.218750
v -0.250000 4.937500 0.687500
v -0.250000 4.937500 0.218750
v -0.312500 5.906250 0.656250
v -0.312500 5.906250 0.562500
v -0.312500 5.875000 0.656250
v -0.312500 5.875000 0.562500
v -0.375000 5.906250 0.656250
v -0.375000 5.875000 0.656250
v 0.375000 5.906250 0.562500
v 0.375000 5.906250 -0.000000
v 0.375000 5.875000 0.562500
v 0.375000 5.875000 -0.000000
v 0.343750 5.906250 0.562500
v 0.343750 5.906250 -0.000000
v 0.343750 5.875000 0.562500
v 0.343750 5.875000 -0.000000
v 0.375000 5.906250 0.656250
v 0.375000 5.875000 0.656250
v 0.312500 5.906250 0.656250
v 0.312500 5.906250 0.562500
v 0.312500 5.875000 0.656250
v 0.312500 5.875000 0.562500
v 0.375000 4.937500 -0.343750
v 0.375000 4.937500 -0.437500
v -0.375000 4.937500 -0.343750
v -0.375000 4.937500 -0.437500
v 0.125000 4.718750 -0.343750
v 0.125000 4.718750 -0.437500
v 0.125000 4.687500 -0.343750
v 0.125000 4.687500 -0.437500
v -0.125000 4.718750 -0.343750
v -0.125000 4.718750 -0.437500
v -0.125000 4.687500 -0.343750
v -0.125000 4.687500 -0.437500
v 0.062500 4.718750 -0.218750
v 0.062500 4.718750 -0.343750
v 0.062500 4.687500 -0.218750
v 0.062500 4.687500 -0.343750
v -0.062500 4.718750 -0.218750
v -0.062500 4.718750 -0.343750
v -0.062500 4.687500 -0.218750
v -0.062500 4.687500 -0.343750
v -0.102903 4.709597 -0.337500
v -0.102903 4.709597 -0.431250
v -0.125000 4.687500 -0.337500
v -0.125000 4.687500 -0.431250
v -0.352903 4.959597 -0.337500
v -0.352903 4.959597 -0.431250
v -0.375000 4.937500 -0.337500
v -0.375000 4.937500 -0.431250
v 0.352903 4.959597 -0.337500
v 0.352903 4.959597 -0.431250
v 0.375000 4.937500 -0.337500
v 0.375000 4.937500 -0.431250
v 0.102903 4.709597 -0.337500
v 0.102903 4.709597 -0.431250
v 0.125000 4.687500 -0.337500
v 0.125000 4.687500 -0.431250
v 0.068750 5.062500 -0.187500
v 0.068750 5.062500 -0.312500
v 0.068750 4.937500 -0.187500
v 0.068750 4.937500 -0.312500
v -0.068750 5.062500 -0.187500
v -0.068750 5.062500 -0.312500
v -0.068750 4.937500 -0.187500
v -0.068750 4.937500 -0.312500
v -0.343750 5.812500 -0.218750
v -0.343750 5.812500 -0.406250
v -0.343750 5.781250 -0.218750
v -0.343750 5.781250 -0.406250
v -0.406250 5.812500 -0.218750
v -0.406250 5.812500 -0.406250
v -0.406250 5.781250 -0.218750
v -0.406250 5.781250 -0.406250
v -0.343750 5.156250 -0.218750
v -0.343750 5.156250 -0.406250
v -0.343750 5.125000 -0.218750
v -0.343750 5.125000 -0.406250
v -0.406250 5.156250 -0.218750
v -0.406250 5.156250 -0.406250
v -0.406250 5.125000 -0.218750
v -0.406250 5.125000 -0.406250
v 0.406250 5.781250 -0.187500
v 0.406250 5.781250 -0.218750
v 0.406250 5.156250 -0.187500
v 0.406250 5.156250 -0.218750
v 0.343750 5.781250 -0.187500
v 0.343750 5.781250 -0.218750
v 0.343750 5.156250 -0.187500
v 0.343750 5.156250 -0.218750
v 0.406250 5.125000 -0.218750
v 0.343750 5.125000 -0.218750
v 0.406250 5.812500 -0.218750
v 0.406250 5.812500 -0.406250
v 0.406250 5.781250 -0.406250
v 0.343750 5.812500 -0.218750
v 0.343750 5.812500 -0.406250
v 0.343750 5.781250 -0.406250
v -0.343750 5.781250 -0.187500
v -0.406250 5.781250 -0.187500
v 0.406250 5.156250 -0.406250
v 0.406250 5.125000 -0.406250
v 0.343750 5.156250 -0.406250
v 0.343750 5.125000 -0.406250
v -0.343750 5.156250 -0.187500
v -0.406250 5.156250 -0.187500
v 0.250000 5.000000 0.681250
v 0.062500 4.937500 0.218750
v 0.250000 4.937500 0.681250
v 0.062500 4.875000 0.218750
v 0.187500 5.000000 0.681250
v 0.000000 4.937500 0.218750
v 0.187500 4.937500 0.681250
v 0.000000 4.875000 0.218750
v -0.187500 5.000000 0.681250
v -0.187500 4.937500 0.681250
v -0.250000 5.000000 0.681250
v -0.062500 4.937500 0.218750
v -0.250000 4.937500 0.681250
v -0.062500 4.875000 0.218750
vn 1.0000 -0.0000 -0.0000
vn -1.0000 -0.0000 -0.0000
vn -0.0000 1.0000 -0.0000
vn -0.0000 -1.0000 -0.0000
vn -0.0000 -0.0000 1.0000
vn -0.0000 -0.0000 -1.0000
vn 0.7071 0.7071 -0.0000
vn -0.7071 -0.7071 -0.0000
vn -0.7071 0.7071 -0.0000
vn 0.7071 -0.7071 -0.0000
vn -0.0000 -0.4472 -0.8944
vn -0.0000 -0.4472 0.8944
vn 0.3162 0.9487 -0.0000
vn -0.3162 -0.9487 -0.0000
vn 0.8944 0.4472 -0.0000
vn -0.8944 -0.4472 -0.0000
vn 0.8944 -0.4472 -0.0000
vn -0.8944 0.4472 -0.0000
vn 0.5000 0.8660 -0.0000
vn -0.5000 -0.8660 -0.0000
vn 0.8660 0.5000 -0.0000
vn -0.8660 -0.5000 -0.0000
vn 0.8660 -0.5000 -0.0000
vn -0.8660 0.5000 -0.0000
vn 0.5000 -0.8660 -0.0000
vn -0.5000 0.8660 -0.0000
vn 0.7486 0.6630 -0.0000
vn -0.7657 -0.6432 -0.0000
vn -0.0001 -0.9600 -0.2799
vn -0.0001 -0.9600 -0.2800
vn 0.7625 -0.6470 -0.0000
vn -0.7463 0.6656 -0.0000
vn 0.0001 -0.9790 -0.2039
vn 0.0001 -0.9790 -0.2040
vn -0.8000 0.6000 -0.0000
vn -0.9302 0.0001 -0.3671
vn -0.9301 0.0001 -0.3672
vn 0.8000 0.6000 -0.0000
vn 0.9267 0.0001 -0.3757
vn 0.8309 -0.5564 -0.0000
vn -0.8387 0.5446 -0.0000
vn -0.8309 0.5564 -0.0000
vn 0.8387 -0.5446 -0.0000
vn 0.8480 0.5300 -0.0000
vn -0.8376 -0.5463 -0.0000
vn -0.8480 -0.5300 -0.0000
vn 0.8376 0.5463 -0.0000
vn -0.0000 0.9848 -0.1736
vn -0.0000 -0.9848 0.1736
vn -0.0000 0.1736 0.9848
vn -0.0000 -0.1736 -0.9848
vn 0.7184 -0.6549 0.2346
vn -0.7184 0.6549 -0.2346
vn -0.0000 0.9414 -0.3372
vn -0.0000 -0.9414 0.3372
vn -0.0000 0.1655 0.9862
vn -0.0000 -0.1655 -0.9862
vn 0.7184 0.6549 -0.2346
vn -0.7184 -0.6549 0.2346
vn -0.0000 -0.7071 0.7071
vn 0.4472 0.6324 0.6324
vn -0.4472 0.6324 0.6324
vn 0.9267 -0.0000 -0.3757
vn -0.9267 -0.0000 0.3757
vn -0.0000 0.9910 -0.1339
vn -0.0000 -0.9910 0.1339
vn 0.9267 -0.0000 0.3757
vn -0.9267 -0.0000 -0.3757
vt 0.468750 0.468750
vt 0.468750 0.718750
vt 0.453125 0.718750
vt 0.453125 0.468750
vt 0.296875 0.468750
vt 0.296875 0.718750
vt 0.281250 0.718750
vt 0.281250 0.468750
vt 0.468750 0.703125
vt 0.281250 0.703125
vt 0.468750 0.484375
vt 0.281250 0.484375
vt 0.078125 0.750000
vt 0.078125 1.000000
vt 0.015625 1.000000
vt 0.015625 0.750000
vt 0.062500 0.921875
vt 0.062500 0.984375
vt 0.000000 0.984375
vt 0.000000 0.921875
vt 0.062500 0.750000
vt 0.062500 1.000000
vt 0.000000 1.000000
vt 0.000000 0.750000
vt 0.078125 0.859375
vt 0.015625 0.859375
vt 0.062500 0.859375
vt 0.000000 0.859375
vt 0.078125 0.796875
vt 0.015625 0.796875
vt 0.062500 0.796875
vt 0.000000 0.796875
vt 0.031250 0.968750
vt 0.031250 0.984375
vt 0.015625 0.984375
vt 0.015625 0.968750
vt 0.000000 0.968750
vt 0.062500 0.968750
vt 0.046875 0.968750
vt 0.046875 0.984375
vt 0.046875 1.000000
vt 0.062500 0.953125
vt 0.046875 0.953125
vt 0.031250 0.750000
vt 0.031250 1.000000
vt 0.046875 0.750000
vt 0.171875 0.937500
vt 0.171875 0.953125
vt 0.109375 0.953125
vt 0.109375 0.937500
vt 0.028125 0.937500
vt 0.028125 1.000000
vt 0.000000 0.937500
vt 0.028125 0.984375
vt 0.156250 0.906250
vt 0.156250 0.921875
vt 0.093750 0.921875
vt 0.093750 0.906250
vt 0.046875 0.937500
vt 0.140625 0.906250
vt 0.140625 0.921875
vt 0.156250 0.875000
vt 0.093750 0.875000
vt 0.750000 0.718750
vt 0.750000 0.734375
vt 0.734375 0.734375
vt 0.734375 0.718750
vt 0.609375 0.718750
vt 0.609375 0.734375
vt 0.500000 0.734375
vt 0.500000 0.718750
vt 0.187500 0.578125
vt 0.187500 0.687500
vt 0.000000 0.687500
vt 0.000000 0.578125
vt 0.187500 0.500000
vt 0.000000 0.500000
vt 0.140625 0.984375
vt 0.140625 1.000000
vt 0.156250 0.859375
vt 0.156250 0.984375
vt 0.156250 1.000000
vt 0.020312 0.968750
vt 0.020312 1.000000
vt 0.028125 0.968750
vt 0.007812 1.000000
vt 0.007812 0.968750
vt 0.078125 0.971875
vt 0.078125 0.992188
vt 0.000000 0.992188
vt 0.000000 0.971875
vt 0.078125 0.979688
vt 0.000000 0.979688
vt 0.078125 0.968750
vt 0.515625 0.843750
vt 0.515625 1.000000
vt 0.437500 1.000000
vt 0.437500 0.843750
vt 0.390625 0.750000
vt 0.390625 0.828125
vt 0.265625 0.828125
vt 0.265625 0.750000
vt 0.390625 0.843750
vt 0.390625 1.000000
vt 0.265625 1.000000
vt 0.265625 0.843750
vt 0.012500 0.953125
vt 0.012500 1.000000
vt 0.000000 0.953125
vt 0.090625 0.953125
vt 0.090625 1.000000
vt 0.078125 0.953125
vt 0.078125 0.909375
vt 0.078125 0.921875
vt 0.000000 0.909375
vt 0.078125 0.987500
vt 0.000000 0.987500
vt 0.125000 0.984375
vt 0.125000 1.000000
vt 0.218750 0.875000
vt 0.218750 1.000000
vt 0.078125 0.875000
vt 0.218750 0.984375
vt 0.078125 0.984375
vt 0.109375 0.968750
vt 0.109375 1.000000
vt 0.210938 0.000000
vt 0.210938 0.093750
vt 0.000000 0.093750
vt 0.000000 0.000000
vt 0.226562 0.906250
vt 0.226562 1.000000
vt 0.015625 0.906250
vt 0.218750 0.968750
vt 0.210938 0.968750
vt 0.210938 1.000000
vt 0.015625 0.953125
vt 0.015625 0.937500
vt 0.007812 0.953125
vt 0.007812 0.937500
vt 0.101562 0.937500
vt 0.101562 0.953125
vt 0.125000 0.968750
vt 0.140625 0.968750
vt 0.031250 0.937500
vt 0.320312 0.423438
vt 0.320312 0.453125
vt 0.304688 0.453125
vt 0.304688 0.423438
vt 0.328125 0.429688
vt 0.328125 0.445312
vt 0.316406 0.445312
vt 0.316406 0.429688
vt 0.328125 0.423438
vt 0.328125 0.453125
vt 0.316406 0.453125
vt 0.316406 0.423438
vt 0.308594 0.423438
vt 0.308594 0.453125
vt 0.296875 0.453125
vt 0.296875 0.423438
vt 0.320312 0.437500
vt 0.320312 0.449219
vt 0.304688 0.449219
vt 0.304688 0.437500
vt 0.347656 0.429688
vt 0.347656 0.445312
vt 0.296875 0.445312
vt 0.296875 0.429688
vt 0.347656 0.437500
vt 0.347656 0.449219
vt 0.296875 0.449219
vt 0.296875 0.437500
vt 0.355469 0.437500
vt 0.355469 0.449219
vt 0.355469 0.429688
vt 0.355469 0.445312
vt 0.324219 0.445312
vt 0.324219 0.429688
vt 0.324219 0.449219
vt 0.324219 0.437500
vt 0.328125 0.437500
vt 0.328125 0.449219
vt 1.000000 0.875000
vt 1.000000 0.937500
vt 0.031250 0.875000
vt 0.968750 0.875000
vt 0.968750 0.937500
vt 0.000000 0.875000
vt 1.000000 0.031250
vt 1.000000 1.000000
vt 0.281250 1.000000
vt 0.281250 0.031250
vt 1.000000 0.000000
vt 1.000000 0.968750
vt 0.281250 0.968750
vt 0.281250 0.000000
vt 0.281250 0.937500
vt 0.281250 0.875000
vt 0.718750 0.875000
vt 0.718750 0.937500
vt 1.000000 0.906250
vt 0.531250 0.937500
vt 0.531250 0.906250
vt 0.468750 0.906250
vt 0.468750 0.937500
vt 0.000000 0.906250
vt 0.968750 0.531250
vt 0.968750 1.000000
vt 0.937500 1.000000
vt 0.937500 0.531250
vt 0.968750 0.000000
vt 0.968750 0.468750
vt 0.937500 0.468750
vt 0.937500 0.000000
vt 0.968750 0.906250
vt 0.937500 0.937500
vt 0.937500 0.906250
vt 0.062500 0.906250
vt 0.062500 0.937500
vt 0.031250 0.906250
vt 0.062500 0.875000
vt 0.937500 0.875000
vt 1.000000 0.062500
vt 0.281250 0.062500
vt 0.968750 0.031250
vt 0.968750 0.062500
vt 0.312500 0.062500
vt 0.312500 0.031250
vt 0.968750 0.968750
vt 0.312500 0.968750
vt 0.312500 0.937500
vt 0.312500 0.906250
vt 0.687500 0.906250
vt 0.687500 0.937500
vt 0.062500 0.000000
vt 0.031250 0.000000
vt 0.312500 0.000000
vt 0.718750 0.000000
vt 0.687500 0.000000
vt 0.250000 0.062500
vt 0.250000 0.031250
vt 0.250000 0.968750
vt 0.250000 0.937500
vt 0.250000 0.000000
vt 0.750000 0.000000
vt 0.750000 0.937500
vt 0.312500 1.000000
vt 0.281250 0.906250
vt 0.718750 0.906250
vt 0.218750 0.000000
vt 0.218750 0.937500
vt 0.218750 0.062500
vt 0.031250 0.062500
vt 0.593750 0.875000
vt 0.593750 0.937500
vt 0.406250 0.937500
vt 0.406250 0.875000
vt 0.937500 0.812500
vt 0.000000 0.812500
vt 1.000000 0.812500
vt 0.062500 0.812500
vt 0.156250 0.937500
vt 0.156250 0.000000
vt 0.156250 0.062500
vt 0.218750 0.812500
vt 0.156250 0.812500
vt 0.468750 0.812500
vt 0.406250 0.812500
vt 0.437500 0.718750
vt 0.437500 0.468750
vt 0.312500 0.468750
vt 0.312500 0.718750
vt 0.468750 0.687500
vt 0.281250 0.687500
vt 0.468750 0.500000
vt 0.281250 0.500000
vt 0.031250 0.109375
vt 0.031250 0.125000
vt 0.000000 0.125000
vt 0.000000 0.109375
vt 0.324762 0.675237
vt 0.375000 0.762263
vt 0.187500 0.812500
vt 0.375000 0.862737
vt 0.324762 0.949763
vt 0.237738 1.000000
vt 0.137262 1.000000
vt 0.050237 0.949763
vt 0.000000 0.862737
vt 0.000000 0.762263
vt 0.050237 0.675237
vt 0.137262 0.625000
vt 0.237738 0.625000
vt 0.296875 0.343750
vt 0.310481 0.343750
vt 0.310481 0.359375
vt 0.296875 0.359375
vt 0.306775 0.359375
vt 0.306775 0.343750
vt 0.296875 0.357521
vt 0.296875 0.347621
vt 0.303793 0.345768
vt 0.303792 0.359375
vt 0.296875 0.352457
vt 0.310482 0.352457
vt 0.308628 0.359375
vt 0.298728 0.359375
vt 0.296875 0.357522
vt 0.296875 0.347622
vt 0.303792 0.345768
vt 0.303793 0.359375
vt 0.308629 0.359375
vt 0.298729 0.359375
vt 0.296875 0.357522
vt 0.296875 0.347622
vt 0.303792 0.345769
vt 0.303792 0.359375
vt 0.298728 0.359375
vt 0.296875 0.352457
vt 0.310482 0.352458
vt 0.303793 0.345768
vt 0.303793 0.359375
vt 0.296875 0.357521
vt 0.296875 0.347621
vt 0.308629 0.359375
vt 0.298729 0.359375
vt 0.296875 0.352458
vt 0.310482 0.352457
vt 0.296875 0.357522
vt 0.308628 0.359375
vt 0.298728 0.359375
vt 0.296875 0.352458
vt 0.310481 0.352458
vt 0.298728 0.352458
vt 0.308628 0.352458
vt 0.303793 0.347622
vt 0.303793 0.357522
vt 0.296876 0.345768
vt 0.310482 0.359375
vt 0.298729 0.352457
vt 0.308629 0.352458
vt 0.303793 0.347621
vt 0.303793 0.357521
vt 0.296876 0.359375
vt 0.296875 0.345768
vt 0.298728 0.352458
vt 0.308628 0.352457
vt 0.303792 0.347622
vt 0.303792 0.357522
vt 0.296875 0.345769
vt 0.298729 0.352457
vt 0.308629 0.352457
vt 0.296875 0.359374
vt 0.303793 0.347622
vt 0.303792 0.357522
vt 0.298728 0.352457
vt 0.308628 0.352457
vt 0.310482 0.359374
vt 0.303792 0.347621
vt 0.303793 0.357521
vt 0.343750 0.351562
vt 0.312500 0.351562
vt 0.312500 0.359375
vt 0.343750 0.359375
vt 0.312500 0.375000
vt 0.281250 0.375000
vt 0.359375 0.367188
vt 0.359375 0.375000
vt 0.328125 0.375000
vt 0.328125 0.367188
vt 0.296875 0.375000
vt 0.296875 0.367188
vt 0.406250 0.452847
vt 0.406250 0.468750
vt 0.390625 0.468750
vt 0.390625 0.452847
vt 0.437500 0.452847
vt 0.421875 0.468750
vt 0.421875 0.452847
vt 0.367802 0.406250
vt 0.367802 0.421875
vt 0.359990 0.421875
vt 0.359990 0.406250
vt 0.367802 0.359375
vt 0.367802 0.375000
vt 0.359990 0.375000
vt 0.359990 0.359375
vt 0.399052 0.390347
vt 0.399052 0.406250
vt 0.391240 0.406250
vt 0.391240 0.390347
vt 0.359375 0.390347
vt 0.359375 0.406250
vt 0.351562 0.406250
vt 0.351562 0.390347
vt 0.375000 0.343472
vt 0.375000 0.359375
vt 0.359375 0.359375
vt 0.359375 0.343472
vt 0.367802 0.453125
vt 0.367802 0.468750
vt 0.359990 0.468750
vt 0.359990 0.453125
vt 0.399052 0.421875
vt 0.399052 0.437500
vt 0.391240 0.437500
vt 0.391240 0.421875
vt 0.414677 0.452847
vt 0.414677 0.468750
vt 0.406865 0.468750
vt 0.406865 0.452847
vt 0.343750 0.343472
vt 0.335938 0.359375
vt 0.335938 0.343472
vt 0.375000 0.421875
vt 0.421875 0.421875
vt 0.375000 0.468750
vt 0.343750 0.343750
vt 0.343750 0.390625
vt 0.296875 0.390625
vt 0.375000 0.375000
vt 0.328125 0.359375
vt 0.390625 0.453125
vt 0.343750 0.453125
vt 0.343750 0.437500
vt 0.390625 0.437500
vt 0.312500 0.406250
vt 0.359375 0.453125
vt 0.312500 0.453125
vt 0.390625 0.390625
vt 0.375000 0.328125
vt 0.375000 0.343750
vt 0.328125 0.343750
vt 0.328125 0.328125
vt 0.312500 0.437500
vt 0.359375 0.437500
vt 0.265625 0.453125
vt 0.265625 0.437500
vt 0.296875 0.406250
vt 0.265625 0.406250
vt 0.210781 0.797031
vt 0.125000 0.882812
vt 0.242188 0.851406
vt 0.242188 0.914219
vt 0.210781 0.968594
vt 0.156406 1.000000
vt 0.093594 1.000000
vt 0.039219 0.968594
vt 0.007812 0.914219
vt 0.007812 0.851406
vt 0.039219 0.797031
vt 0.093594 0.765625
vt 0.156406 0.765625
vt 0.281250 0.343750
vt 0.289622 0.343750
vt 0.289622 0.359375
vt 0.281250 0.359375
vt 0.285731 0.359375
vt 0.285731 0.343750
vt 0.281250 0.357427
vt 0.281250 0.352945
vt 0.288514 0.351001
vt 0.288510 0.359375
vt 0.281250 0.352112
vt 0.289624 0.352112
vt 0.287677 0.359375
vt 0.283195 0.359373
vt 0.281250 0.357431
vt 0.281250 0.352948
vt 0.288510 0.351001
vt 0.288514 0.359375
vt 0.287680 0.359373
vt 0.283197 0.359375
vt 0.281250 0.357430
vt 0.281250 0.352948
vt 0.288511 0.351003
vt 0.288511 0.359375
vt 0.287677 0.359375
vt 0.283194 0.359375
vt 0.281250 0.352111
vt 0.289624 0.352115
vt 0.288513 0.351001
vt 0.288513 0.359375
vt 0.281250 0.357428
vt 0.281252 0.352945
vt 0.287680 0.359375
vt 0.283198 0.359375
vt 0.281250 0.352115
vt 0.289624 0.352111
vt 0.281252 0.357430
vt 0.281250 0.352948
vt 0.287677 0.359375
vt 0.283195 0.359375
vt 0.281250 0.352114
vt 0.289622 0.352114
vt 0.283195 0.352114
vt 0.287677 0.352114
vt 0.288514 0.352948
vt 0.288514 0.357431
vt 0.281254 0.351001
vt 0.289624 0.359375
vt 0.283197 0.352112
vt 0.287680 0.352114
vt 0.288514 0.352945
vt 0.288514 0.357427
vt 0.281254 0.359375
vt 0.281250 0.351001
vt 0.283195 0.352114
vt 0.287677 0.352112
vt 0.288511 0.352948
vt 0.288511 0.357430
vt 0.281250 0.351003
vt 0.283198 0.352111
vt 0.287680 0.352111
vt 0.281250 0.359371
vt 0.288513 0.352948
vt 0.288511 0.357430
vt 0.283194 0.352111
vt 0.287677 0.352111
vt 0.289624 0.359371
vt 0.288511 0.352945
vt 0.288513 0.357428
vt 0.324219 0.421875
vt 0.312500 0.421875
vt 0.343750 0.421875
vt 0.332031 0.437500
vt 0.332031 0.421875
vt 0.328125 0.406250
vt 0.328125 0.417969
vt 0.320312 0.417969
vt 0.320312 0.406250
vt 0.328125 0.347656
vt 0.320312 0.359375
vt 0.320312 0.347656
vt 0.312500 0.390625
vt 0.304688 0.390625
vt 0.304688 0.375000
vt 0.335938 0.515625
vt 0.335938 0.531250
vt 0.328125 0.531250
vt 0.328125 0.515625
vt 0.292969 0.406250
vt 0.292969 0.421875
vt 0.281250 0.421875
vt 0.281250 0.406250
vt 0.300781 0.421875
vt 0.300781 0.406250
vt 0.296875 0.402344
vt 0.289062 0.402344
vt 0.289062 0.390625
vt 0.296875 0.410156
vt 0.296875 0.421875
vt 0.289062 0.421875
vt 0.289062 0.410156
vt 0.328125 0.421875
vt 0.320312 0.421875
vt 0.390625 0.359375
vt 0.390625 0.421875
vt 0.390625 0.343750
vt 0.390625 0.406250
vt 0.359375 0.343750
vt 0.375000 0.406250
vt 0.312500 0.343750
vt 0.375000 0.390625
vt 0.312500 0.328125
vt 0.546875 0.796875
vt 0.546875 1.000000
vt 0.531250 1.000000
vt 0.531250 0.796875
vt 0.671875 0.984375
vt 0.671875 1.000000
vt 0.531250 0.984375
vt 0.140625 0.796875
vt 0.671875 0.796875
vt 0.673437 0.882812
vt 0.673437 0.968750
vt 0.671875 0.968750
vt 0.671875 0.882812
vt 0.670313 0.968750
vt 0.670313 0.882812
vt 0.687500 0.953125
vt 0.687500 0.954687
vt 0.671875 0.954687
vt 0.671875 0.953125
vt 0.687500 0.951563
vt 0.671875 0.951563
vt 0.687500 0.882812
vt 0.687500 0.968750
vt 0.656250 0.968750
vt 0.656250 0.882812
vt 0.657031 0.800781
vt 0.657031 0.859375
vt 0.656250 0.859375
vt 0.656250 0.800781
vt 0.671875 0.800781
vt 0.671875 0.859375
vt 0.671094 0.859375
vt 0.671094 0.800781
vt 0.687500 0.838995
vt 0.687500 0.840014
vt 0.658203 0.840014
vt 0.658203 0.838995
vt 0.687500 0.800781
vt 0.687500 0.859375
vt 0.658203 0.859375
vt 0.658203 0.800781
vt 0.685547 0.800781
vt 0.685547 0.859375
vt 0.125000 0.000000
vt 0.093750 1.000000
vt 0.093750 0.000000
vt 0.125000 0.875000
vt 0.125000 0.906250
vt 0.515625 0.515625
vt 0.515625 0.718750
vt 0.500000 0.515625
vt 0.515625 0.734375
vt 0.937500 0.062500
vt 0.703125 0.718750
vt 0.703125 0.734375
vt 0.546875 0.734375
vt 0.546875 0.718750
vt 0.125000 0.171875
vt 0.125000 0.990625
vt 0.031250 0.990625
vt 0.031250 0.171875
vt 0.093750 0.171875
vt 0.093750 0.990625
vt 0.000000 0.990625
vt 0.000000 0.171875
vt 0.062500 0.990625
vt 0.062500 0.171875
vt 0.125000 0.181250
vt 0.031250 0.181250
vt 0.093750 0.181250
vt 0.000000 0.181250
vt 0.062500 0.181250
vt 0.125000 0.937500
vt 1.000000 0.625000
vt 1.000000 0.687500
vt 0.468750 0.625000
vt 0.843750 0.562500
vt 0.843750 0.625000
vt 0.312500 0.625000
vt 0.312500 0.562500
vt 0.656250 0.218750
vt 0.656250 0.750000
vt 0.156250 0.750000
vt 0.156250 0.218750
vt 0.500000 0.375000
vt 0.500000 0.906250
vt 0.000000 0.375000
vt 0.718750 0.750000
vt 0.718750 0.812500
vt 0.218750 0.750000
vt 0.843750 0.500000
vt 0.343750 0.562500
vt 0.343750 0.500000
vt 0.937500 0.968750
vt 0.843750 0.968750
vt 0.843750 0.937500
vt 0.156250 0.968750
vt 0.125000 0.843750
vt 0.062500 0.843750
vt 0.125000 0.062500
vt 0.125000 0.156250
vt 0.062500 0.156250
vt 0.062500 0.062500
vt 0.562500 0.937500
vt 0.562500 0.968750
vt 0.437500 0.968750
vt 0.437500 0.937500
vt 0.125000 0.562500
vt 0.093750 0.562500
vt 0.125000 0.437500
vt 0.093750 0.437500
vt 0.093750 0.968750
vt 0.093750 0.937500
vt 0.750000 0.906250
vt 0.750000 1.000000
vt 0.750000 0.875000
vt 0.750000 0.968750
vt 0.500000 1.000000
vt 0.250000 1.000000
vt 0.250000 0.906250
vt 0.500000 0.875000
vt 0.500000 0.968750
vt 0.250000 0.875000
vt 0.500000 0.937500
vt 0.312500 0.843750
vt 0.603553 0.906250
vt 0.603553 1.000000
vt 0.603553 0.875000
vt 0.603553 0.968750
vt 0.603553 0.937500
vt 0.137500 0.875000
vt 0.137500 1.000000
vt 0.150000 0.875000
vt 0.150000 1.000000
vt 0.012500 0.875000
vt 0.187500 0.968750
vt 0.187500 1.000000
vt 0.125000 0.812500
vt 0.125000 0.343750
vt 0.093750 0.343750
vt 0.031250 0.343750
vt 0.000000 0.343750
vt 0.062500 0.343750
vt 0.468750 1.000000
vt 0.125000 0.531250
vt 0.062500 0.531250
vt 0.125000 0.500000
vt 0.062500 0.500000
s 1
usemtl m_3d215661-f591-00a8-53e2-d8d611c756be.002
f 5/1/1 3/2/1 2/3/1 4/4/1
f 8/5/2 6/6/2 7/7/2 9/8/2
f 2/9/3 3/2/3 7/7/3 6/10/3
f 5/1/4 4/11/4 8/12/4 9/8/4
f 4/1/5 2/2/5 6/7/5 8/8/5
f 9/1/6 7/2/6 3/7/6 5/8/6
f 13/13/1 11/14/1 10/15/1 12/16/1
f 16/13/2 14/14/2 15/15/2 17/16/2
f 10/17/3 11/18/3 15/19/3 14/20/3
f 13/17/4 12/18/4 16/19/4 17/20/4
f 12/21/5 10/22/5 14/23/5 16/24/5
f 17/13/6 15/14/6 11/15/6 13/16/6
f 11/25/1 19/14/1 18/15/1 10/26/1
f 14/25/2 20/14/2 21/15/2 15/26/2
f 18/17/3 19/18/3 21/19/3 20/20/3
f 10/27/5 18/22/5 20/23/5 14/28/5
f 15/25/6 21/14/6 19/15/6 11/26/6
f 23/13/1 13/14/1 12/15/1 22/16/1
f 24/13/2 16/14/2 17/15/2 25/16/2
f 23/17/4 22/18/4 24/19/4 25/20/4
f 22/21/5 12/22/5 16/23/5 24/24/5
f 25/13/6 17/14/6 13/15/6 23/16/6
f 27/29/1 23/14/1 22/15/1 26/30/1
f 28/29/2 24/14/2 25/15/2 29/30/2
f 27/17/4 26/18/4 28/19/4 29/20/4
f 26/31/5 22/22/5 24/23/5 28/32/5
f 29/29/6 25/14/6 23/15/6 27/30/6
f 33/33/1 31/34/1 30/35/1 32/36/1
f 36/36/2 34/35/2 35/19/2 37/37/2
f 30/18/3 31/22/3 35/15/3 34/35/3
f 33/38/4 32/18/4 36/35/4 37/36/4
f 32/38/5 30/18/5 34/35/5 36/36/5
f 37/39/6 35/40/6 31/19/6 33/37/6
f 41/33/1 39/34/1 38/35/1 40/36/1
f 44/36/2 42/35/2 43/19/2 45/37/2
f 38/18/3 39/22/3 43/15/3 42/35/3
f 41/38/4 40/18/4 44/35/4 45/36/4
f 40/38/5 38/18/5 42/35/5 44/36/5
f 45/39/6 43/40/6 39/19/6 41/37/6
f 32/39/1 30/40/1 39/35/1 41/36/1
f 48/33/2 46/34/2 47/19/2 49/37/2
f 39/38/3 30/22/3 47/41/3 46/39/3
f 32/42/4 41/18/4 48/40/4 49/43/4
f 41/38/5 39/18/5 46/40/5 48/39/5
f 49/36/6 47/35/6 30/19/6 32/37/6
f 53/33/1 51/34/1 50/35/1 52/36/1
f 56/36/2 54/35/2 55/19/2 57/37/2
f 50/18/3 51/22/3 55/15/3 54/35/3
f 53/38/4 52/18/4 56/35/4 57/36/4
f 52/38/5 50/18/5 54/35/5 56/36/5
f 57/39/6 55/40/6 51/19/6 53/37/6
f 59/39/1 58/40/1 51/35/1 53/36/1
f 62/33/2 60/34/2 61/19/2 63/37/2
f 51/38/3 58/22/3 61/41/3 60/39/3
f 59/42/4 53/18/4 62/40/4 63/43/4
f 53/38/5 51/18/5 60/40/5 62/39/5
f 63/36/6 61/35/6 58/19/6 59/37/6
f 65/33/1 64/34/1 58/35/1 59/36/1
f 68/36/2 66/35/2 67/19/2 69/37/2
f 58/18/3 64/22/3 67/15/3 66/35/3
f 65/38/4 59/18/4 68/35/4 69/36/4
f 59/38/5 58/18/5 66/35/5 68/36/5
f 69/39/6 67/40/6 64/19/6 65/37/6
f 73/33/1 71/34/1 70/35/1 72/36/1
f 76/36/2 74/35/2 75/19/2 77/37/2
f 70/18/3 71/22/3 75/15/3 74/35/3
f 73/38/4 72/18/4 76/35/4 77/36/4
f 72/38/5 70/18/5 74/35/5 76/36/5
f 77/39/6 75/40/6 71/19/6 73/37/6
f 72/39/1 70/40/1 78/35/1 79/36/1
f 82/33/2 80/34/2 81/19/2 83/37/2
f 78/38/3 70/22/3 81/41/3 80/39/3
f 72/42/4 79/18/4 82/40/4 83/43/4
f 79/38/5 78/18/5 80/40/5 82/39/5
f 83/36/6 81/35/6 70/19/6 72/37/6
f 79/33/1 78/34/1 84/35/1 85/36/1
f 88/36/2 86/35/2 87/19/2 89/37/2
f 84/18/3 78/22/3 87/15/3 86/35/3
f 79/38/4 85/18/4 88/35/4 89/36/4
f 85/38/5 84/18/5 86/35/5 88/36/5
f 89/39/6 87/40/6 78/19/6 79/37/6
f 93/44/1 91/45/1 90/23/1 92/24/1
f 96/44/2 94/45/2 95/23/2 97/24/2
f 90/39/3 91/41/3 95/23/3 94/37/3
f 93/39/4 92/41/4 96/23/4 97/37/4
f 92/46/5 90/41/5 94/23/5 96/24/5
f 97/46/6 95/41/6 91/23/6 93/24/6
f 101/44/1 99/45/1 98/23/1 100/24/1
f 104/44/2 102/45/2 103/23/2 105/24/2
f 98/39/3 99/41/3 103/23/3 102/37/3
f 101/39/4 100/41/4 104/23/4 105/37/4
f 100/46/5 98/41/5 102/23/5 104/24/5
f 105/46/6 103/41/6 99/23/6 101/24/6
f 107/47/1 90/48/1 99/49/1 106/50/1
f 108/47/2 103/48/2 94/49/2 109/50/2
f 99/51/3 90/52/3 94/23/3 103/53/3
f 107/51/4 106/52/4 108/23/4 109/53/4
f 106/54/5 99/52/5 103/23/5 108/19/5
f 109/54/6 94/52/6 90/23/6 107/19/6
f 113/55/1 111/56/1 110/57/1 112/58/1
f 116/55/2 114/56/2 115/57/2 117/58/2
f 110/59/3 111/41/3 115/23/3 114/53/3
f 113/59/4 112/41/4 116/23/4 117/53/4
f 112/60/5 110/61/5 114/57/5 116/58/5
f 117/60/6 115/61/6 111/57/6 113/58/6
f 121/62/1 119/56/1 118/57/1 120/63/1
f 124/62/2 122/56/2 123/57/2 125/63/2
f 118/59/3 119/41/3 123/23/3 122/53/3
f 121/59/4 120/41/4 124/23/4 125/53/4
f 120/60/5 118/61/5 122/57/5 124/58/5
f 125/60/6 123/61/6 119/57/6 121/58/6
f 129/64/1 127/65/1 126/66/1 128/67/1
f 132/64/2 130/65/2 131/66/2 133/67/2
f 126/68/3 127/69/3 131/70/3 130/71/3
f 129/68/4 128/69/4 132/70/4 133/71/4
f 128/68/5 126/69/5 130/70/5 132/71/5
f 133/68/6 131/69/6 127/70/6 129/71/6
f 137/64/1 135/65/1 134/66/1 136/67/1
f 140/64/2 138/65/2 139/66/2 141/67/2
f 134/68/3 135/69/3 139/70/3 138/71/3
f 137/68/4 136/69/4 140/70/4 141/71/4
f 136/68/5 134/69/5 138/70/5 140/71/5
f 141/68/6 139/69/6 135/70/6 137/71/6
f 145/64/1 143/65/1 142/66/1 144/67/1
f 148/64/2 146/65/2 147/66/2 149/67/2
f 142/68/3 143/69/3 147/70/3 146/71/3
f 145/68/4 144/69/4 148/70/4 149/71/4
f 144/68/5 142/69/5 146/70/5 148/71/5
f 149/68/6 147/69/6 143/70/6 145/71/6
f 153/64/1 151/65/1 150/66/1 152/67/1
f 156/64/2 154/65/2 155/66/2 157/67/2
f 150/68/3 151/69/3 155/70/3 154/71/3
f 153/68/4 152/69/4 156/70/4 157/71/4
f 152/68/5 150/69/5 154/70/5 156/71/5
f 157/68/6 155/69/6 151/70/6 153/71/6
f 161/72/1 159/73/1 158/74/1 160/75/1
f 164/72/2 162/73/2 163/74/2 165/75/2
f 158/76/3 159/73/3 163/74/3 162/77/3
f 161/76/4 160/73/4 164/74/4 165/77/4
f 160/72/5 158/73/5 162/74/5 164/75/5
f 165/72/6 163/73/6 159/74/6 161/75/6
f 169/78/1 167/79/1 166/15/1 168/35/1
f 172/78/2 170/79/2 171/15/2 173/35/2
f 166/80/3 167/81/3 171/19/3 170/28/3
f 169/80/4 168/81/4 172/19/4 173/28/4
f 168/81/5 166/82/5 170/23/5 172/19/5
f 173/81/6 171/82/6 167/23/6 169/19/6
f 177/83/7 175/84/7 174/23/7 176/37/7
f 180/85/8 178/52/8 179/86/8 181/87/8
f 174/88/9 175/89/9 179/90/9 178/91/9
f 177/92/10 176/14/10 180/23/10 181/93/10
f 176/94/5 174/14/5 178/23/5 180/37/5
f 181/94/6 179/14/6 175/23/6 177/37/6
f 185/83/10 183/84/10 182/23/10 184/37/10
f 188/85/9 186/52/9 187/86/9 189/87/9
f 182/88/7 183/89/7 187/90/7 186/91/7
f 185/92/8 184/14/8 188/23/8 189/93/8
f 184/94/5 182/14/5 186/23/5 188/37/5
f 189/94/6 187/14/6 183/23/6 185/37/6
f 193/85/10 191/52/10 190/86/10 192/87/10
f 196/83/9 194/84/9 195/23/9 197/37/9
f 190/92/7 191/14/7 195/23/7 194/93/7
f 193/88/8 192/89/8 196/90/8 197/91/8
f 192/94/5 190/14/5 194/23/5 196/37/5
f 197/94/6 195/14/6 191/23/6 193/37/6
f 201/85/7 199/52/7 198/86/7 200/87/7
f 204/83/8 202/84/8 203/23/8 205/37/8
f 198/92/9 199/14/9 203/23/9 202/93/9
f 201/88/10 200/89/10 204/90/10 205/91/10
f 200/94/5 198/14/5 202/23/5 204/37/5
f 205/94/6 203/14/6 199/23/6 201/37/6
f 208/95/1 85/96/1 206/97/1 207/98/1
f 211/95/2 209/96/2 210/97/2 212/98/2
f 206/99/3 85/100/3 210/101/3 209/102/3
f 208/99/4 207/100/4 211/101/4 212/102/4
f 207/103/5 206/104/5 209/105/5 211/106/5
f 212/103/6 210/104/6 85/105/6 208/106/6
f 216/107/7 214/108/7 213/23/7 215/109/7
f 219/110/8 217/111/8 218/14/8 220/112/8
f 213/113/9 214/114/9 218/20/9 217/115/9
f 216/116/10 215/14/10 219/23/10 220/117/10
f 215/112/5 213/14/5 217/23/5 219/109/5
f 220/112/6 218/14/6 214/23/6 216/109/6
f 224/107/7 222/108/7 221/23/7 223/109/7
f 227/110/8 225/111/8 226/14/8 228/112/8
f 221/113/9 222/114/9 226/20/9 225/115/9
f 224/116/10 223/14/10 227/23/10 228/117/10
f 223/112/5 221/14/5 225/23/5 227/109/5
f 228/112/6 226/14/6 222/23/6 224/109/6
f 232/118/1 230/119/1 229/23/1 231/19/1
f 235/118/2 233/119/2 234/23/2 236/19/2
f 229/120/3 230/121/3 234/14/3 233/122/3
f 232/120/4 231/121/4 235/14/4 236/122/4
f 231/123/5 229/121/5 233/14/5 235/124/5
f 236/78/6 234/79/6 230/23/6 232/19/6
f 240/125/1 238/126/1 237/15/1 239/36/1
f 243/125/2 241/126/2 242/15/2 244/36/2
f 237/127/3 238/128/3 242/129/3 241/130/3
f 240/131/4 239/132/4 243/15/4 244/133/4
f 239/134/5 237/121/5 241/86/5 243/87/5
f 244/135/6 242/136/6 238/23/6 240/37/6
f 248/50/1 246/49/1 245/137/1 247/138/1
f 241/50/2 249/49/2 250/137/2 242/138/2
f 245/127/3 246/128/3 250/129/3 249/130/3
f 248/127/4 247/128/4 241/129/4 242/130/4
f 247/50/5 245/49/5 249/139/5 241/140/5
f 242/141/6 250/142/6 246/109/6 248/53/6
f 252/119/1 251/126/1 253/143/1
f 254/79/2 255/119/2 256/143/2
f 251/144/3 252/78/3 255/118/3 254/143/3
f 253/144/5 251/79/5 254/119/5 256/143/5
f 256/143/11 255/119/11 252/126/11 253/125/11
f 258/119/1 257/126/1 259/143/1
f 260/79/2 261/119/2 262/143/2
f 257/144/3 258/78/3 261/118/3 260/143/3
f 259/144/5 257/79/5 260/119/5 262/143/5
f 262/143/11 261/119/11 258/126/11 259/125/11
f 264/119/1 263/126/1 265/143/1
f 266/79/2 267/119/2 268/143/2
f 263/144/3 264/78/3 267/118/3 266/143/3
f 265/144/5 263/79/5 266/119/5 268/143/5
f 268/143/11 267/119/11 264/126/11 265/125/11
f 269/126/1 270/119/1 271/143/1
f 273/119/2 272/79/2 274/143/2
f 273/118/3 270/78/3 269/144/3 272/143/3
f 272/119/6 269/79/6 271/144/6 274/143/6
f 270/126/12 273/119/12 274/143/12 271/125/12
f 275/126/1 276/119/1 277/143/1
f 279/119/2 278/79/2 280/143/2
f 279/118/3 276/78/3 275/144/3 278/143/3
f 278/119/6 275/79/6 277/144/6 280/143/6
f 276/126/12 279/119/12 280/143/12 277/125/12
f 281/126/1 282/119/1 283/143/1
f 285/119/2 284/79/2 286/143/2
f 285/118/3 282/78/3 281/144/3 284/143/3
f 284/119/6 281/79/6 283/144/6 286/143/6
f 282/126/12 285/119/12 286/143/12 283/125/12
f 290/145/1 288/45/1 287/23/1 289/53/1
f 293/145/2 291/45/2 292/23/2 294/53/2
f 287/33/3 288/45/3 292/15/3 291/36/3
f 290/33/4 289/45/4 293/15/4 294/36/4
f 289/145/5 287/45/5 291/15/5 293/138/5
f 294/138/6 292/15/6 288/23/6 290/53/6
f 298/146/1 296/147/1 295/148/1 297/149/1
f 301/146/2 299/147/2 300/148/2 302/149/2
f 295/150/3 296/151/3 300/152/3 299/153/3
f 298/150/4 297/151/4 301/152/4 302/153/4
f 297/154/5 295/155/5 299/156/5 301/157/5
f 302/158/6 300/159/6 296/160/6 298/161/6
f 306/162/1 304/163/1 303/164/1 305/165/1
f 309/162/1 310/165/1 308/164/1 307/163/1
f 303/166/3 304/167/3 308/168/3 307/169/3
f 306/166/4 305/167/4 309/168/4 310/169/4
f 305/170/5 303/171/5 307/172/5 309/173/5
f 310/174/6 308/175/6 304/164/6 306/165/6
f 313/162/2 311/163/2 312/164/2 314/165/2
f 307/176/13 308/177/13 312/178/13 311/179/13
f 310/176/14 309/177/14 313/178/14 314/179/14
f 309/174/5 307/175/5 311/180/5 313/181/5
f 314/182/6 312/183/6 308/172/6 310/173/6
f 301/176/10 303/169/10 304/168/10 302/177/10
f 298/176/9 306/169/9 305/168/9 297/177/9
f 297/174/6 305/173/6 303/172/6 301/175/6
f 306/174/5 298/173/5 302/172/5 304/175/5
f 318/33/15 316/45/15 315/23/15 317/37/15
f 319/33/16 321/45/16 322/23/16 320/37/16
f 318/36/4 317/15/4 319/23/4 320/37/4
f 317/36/5 315/15/5 321/23/5 319/37/5
f 320/33/6 322/45/6 316/15/6 318/36/6
f 315/36/3 316/15/3 322/23/3 321/37/3
f 326/33/15 324/45/15 323/15/15 325/36/15
f 327/36/16 329/15/16 330/23/16 328/37/16
f 326/36/4 325/35/4 327/19/4 328/37/4
f 325/36/5 323/15/5 329/23/5 327/37/5
f 328/33/6 330/45/6 324/15/6 326/36/6
f 323/35/3 324/15/3 330/23/3 329/19/3
f 332/33/17 330/45/17 329/15/17 331/36/17
f 335/36/18 333/15/18 334/23/18 336/37/18
f 329/35/3 330/15/3 334/23/3 333/19/3
f 332/36/4 331/35/4 335/19/4 336/37/4
f 331/36/5 329/15/5 333/23/5 335/37/5
f 336/33/6 334/45/6 330/15/6 332/36/6
f 338/33/17 322/45/17 321/23/17 337/37/17
f 341/33/18 339/45/18 340/23/18 342/37/18
f 321/36/3 322/15/3 340/23/3 339/37/3
f 338/36/4 337/15/4 341/23/4 342/37/4
f 337/36/5 321/15/5 339/23/5 341/37/5
f 342/33/6 340/45/6 322/15/6 338/36/6
f 430/1/1 428/2/1 427/270/1 429/271/1
f 433/272/2 431/273/2 432/7/2 434/8/2
f 427/274/3 428/2/3 432/7/3 431/275/3
f 430/1/4 429/276/4 433/277/4 434/8/4
f 429/1/5 427/2/5 431/7/5 433/8/5
f 434/278/6 432/279/6 428/280/6 430/281/6
f 448/295/19 452/296/19 453/297/19 449/298/19
f 451/299/20 455/298/20 454/295/20 450/300/20
f 450/301/5 454/302/5 452/303/5 448/304/5
f 449/305/6 453/306/6 455/307/6 451/308/6
f 452/295/21 456/296/21 457/297/21 453/298/21
f 455/299/22 459/298/22 458/295/22 454/300/22
f 454/309/5 458/310/5 456/311/5 452/312/5
f 453/305/6 457/306/6 459/313/6 455/314/6
f 456/295/1 460/296/1 461/297/1 457/298/1
f 459/299/2 463/298/2 462/295/2 458/300/2
f 458/315/5 462/316/5 460/317/5 456/318/5
f 457/317/6 461/318/6 463/315/6 459/316/6
f 460/295/23 464/296/23 465/297/23 461/298/23
f 463/299/24 467/298/24 466/295/24 462/300/24
f 462/307/5 466/319/5 464/320/5 460/321/5
f 461/322/6 465/323/6 467/324/6 463/325/6
f 464/295/25 468/296/25 469/297/25 465/298/25
f 467/299/26 471/298/26 470/295/26 466/300/26
f 466/326/5 470/327/5 468/328/5 464/329/5
f 465/322/6 469/323/6 471/330/6 467/310/6
f 468/295/4 472/296/4 473/297/4 469/298/4
f 471/299/3 475/298/3 474/295/3 470/300/3
f 470/331/5 474/332/5 472/333/5 468/334/5
f 469/297/6 473/298/6 475/335/6 471/336/6
f 472/295/20 476/296/20 477/297/20 473/298/20
f 475/299/19 479/298/19 478/295/19 474/300/19
f 474/337/5 478/338/5 476/298/5 472/339/5
f 473/340/6 477/298/6 479/341/6 475/342/6
f 476/295/22 480/296/22 481/297/22 477/298/22
f 479/299/21 483/298/21 482/295/21 478/300/21
f 478/343/5 482/344/5 480/345/5 476/346/5
f 477/340/6 481/298/6 483/347/6 479/348/6
f 480/295/2 484/296/2 485/297/2 481/298/2
f 483/299/1 487/298/1 486/295/1 482/300/1
f 482/349/5 486/350/5 484/298/5 480/351/5
f 481/298/6 485/351/6 487/349/6 483/350/6
f 484/295/24 488/296/24 489/297/24 485/298/24
f 487/299/23 491/298/23 490/295/23 486/300/23
f 486/352/5 490/353/5 488/340/5 484/354/5
f 485/298/6 489/346/6 491/355/6 487/356/6
f 488/295/26 492/296/26 493/297/26 489/298/26
f 491/299/25 495/298/25 494/295/25 490/300/25
f 490/357/5 494/358/5 492/359/5 488/298/5
f 489/298/6 493/346/6 495/360/6 491/361/6
f 492/295/3 448/296/3 449/297/3 493/298/3
f 495/299/4 451/298/4 450/295/4 494/300/4
f 494/335/5 450/336/5 448/297/5 492/298/5
f 493/333/6 449/334/6 451/331/6 495/332/6
f 499/362/2 498/363/2 496/364/2 497/365/2
f 502/362/2 500/365/2 501/364/2 503/363/2
f 496/366/3 497/272/3 501/8/3 500/367/3
f 499/366/4 498/272/4 502/8/4 503/367/4
f 498/368/5 496/369/5 500/370/5 502/371/5
f 503/371/6 501/370/6 497/372/6 499/373/6
f 507/374/1 505/375/1 504/376/1 506/377/1
f 510/378/2 508/271/2 509/379/2 511/380/2
f 504/381/3 505/382/3 509/383/3 508/384/3
f 507/385/4 506/386/4 510/387/4 511/388/4
f 506/389/5 504/390/5 508/391/5 510/392/5
f 511/393/6 509/394/6 505/395/6 507/396/6
f 515/397/1 513/398/1 512/399/1 514/400/1
f 518/374/2 516/375/2 517/376/2 519/377/2
f 512/401/3 513/402/3 517/403/3 516/404/3
f 515/405/4 514/406/4 518/407/4 519/408/4
f 514/409/5 512/410/5 516/411/5 518/412/5
f 519/413/6 517/365/6 513/414/6 515/415/6
f 496/416/27 512/417/27 513/379/27 497/418/27
f 517/419/28 516/420/28 498/421/28 499/295/28
f 516/398/5 512/422/5 496/370/5 498/423/5
f 497/424/29 513/425/30 517/426/30 499/427/30
f 502/428/31 504/394/31 505/429/31 503/430/31
f 509/431/32 508/427/32 500/426/32 501/420/32
f 508/432/5 504/433/5 502/434/5 500/435/5
f 503/429/33 505/430/34 509/436/33 501/437/33
f 533/295/19 537/296/19 538/297/19 534/298/19
f 536/299/20 540/298/20 539/295/20 535/300/20
f 535/301/5 539/302/5 537/303/5 533/304/5
f 534/305/6 538/306/6 540/307/6 536/308/6
f 537/295/21 541/296/21 542/297/21 538/298/21
f 540/299/22 544/298/22 543/295/22 539/300/22
f 539/309/5 543/310/5 541/311/5 537/312/5
f 538/305/6 542/306/6 544/313/6 540/314/6
f 541/295/1 545/296/1 546/297/1 542/298/1
f 544/299/2 548/298/2 547/295/2 543/300/2
f 543/315/5 547/316/5 545/317/5 541/318/5
f 542/317/6 546/318/6 548/315/6 544/316/6
f 545/295/23 549/296/23 550/297/23 546/298/23
f 548/299/24 552/298/24 551/295/24 547/300/24
f 547/307/5 551/319/5 549/320/5 545/321/5
f 546/322/6 550/323/6 552/324/6 548/325/6
f 549/295/25 553/296/25 554/297/25 550/298/25
f 552/299/26 556/298/26 555/295/26 551/300/26
f 551/326/5 555/327/5 553/328/5 549/329/5
f 550/322/6 554/323/6 556/330/6 552/310/6
f 553/295/4 557/296/4 558/297/4 554/298/4
f 556/299/3 560/298/3 559/295/3 555/300/3
f 555/331/5 559/332/5 557/333/5 553/334/5
f 554/297/6 558/298/6 560/335/6 556/336/6
f 557/295/20 561/296/20 562/297/20 558/298/20
f 560/299/19 564/298/19 563/295/19 559/300/19
f 559/337/5 563/338/5 561/298/5 557/339/5
f 558/340/6 562/298/6 564/341/6 560/342/6
f 561/295/22 565/296/22 566/297/22 562/298/22
f 564/299/21 568/298/21 567/295/21 563/300/21
f 563/343/5 567/344/5 565/345/5 561/346/5
f 562/340/6 566/298/6 568/347/6 564/348/6
f 565/295/2 569/296/2 570/297/2 566/298/2
f 568/299/1 572/298/1 571/295/1 567/300/1
f 567/349/5 571/350/5 569/298/5 565/351/5
f 566/298/6 570/351/6 572/349/6 568/350/6
f 569/295/24 573/296/24 574/297/24 570/298/24
f 572/299/23 576/298/23 575/295/23 571/300/23
f 571/352/5 575/353/5 573/340/5 569/354/5
f 570/298/6 574/346/6 576/355/6 572/356/6
f 573/295/26 577/296/26 578/297/26 574/298/26
f 576/299/25 580/298/25 579/295/25 575/300/25
f 575/357/5 579/358/5 577/359/5 573/298/5
f 574/298/6 578/346/6 580/360/6 576/361/6
f 577/295/3 533/296/3 534/297/3 578/298/3
f 580/299/4 536/298/4 535/295/4 579/300/4
f 579/335/5 535/336/5 533/297/5 577/298/5
f 578/333/6 534/334/6 536/331/6 580/332/6
f 584/362/1 582/365/1 581/364/1 583/363/1
f 587/362/1 588/363/1 586/364/1 585/365/1
f 581/366/3 582/272/3 586/8/3 585/367/3
f 584/366/4 583/272/4 587/8/4 588/367/4
f 583/368/5 581/369/5 585/370/5 587/371/5
f 588/371/6 586/370/6 582/372/6 584/373/6
f 592/374/1 590/375/1 589/376/1 591/377/1
f 595/378/2 593/271/2 594/379/2 596/380/2
f 589/381/3 590/382/3 594/383/3 593/384/3
f 592/385/4 591/386/4 595/387/4 596/388/4
f 591/389/5 589/390/5 593/391/5 595/392/5
f 596/393/6 594/394/6 590/395/6 592/396/6
f 600/397/1 598/398/1 597/399/1 599/400/1
f 603/374/2 601/375/2 602/376/2 604/377/2
f 597/401/3 598/402/3 602/403/3 601/404/3
f 600/405/4 599/406/4 603/407/4 604/408/4
f 599/409/5 597/410/5 601/411/5 603/412/5
f 604/413/6 602/365/6 598/414/6 600/415/6
f 581/416/27 597/417/27 598/379/27 582/418/27
f 602/419/28 601/420/28 583/421/28 584/295/28
f 601/398/5 597/422/5 581/370/5 583/423/5
f 582/424/30 598/425/30 602/426/30 584/427/30
f 587/428/31 589/394/31 590/429/31 588/430/31
f 594/431/32 593/427/32 585/426/32 586/420/32
f 593/432/5 589/433/5 587/434/5 585/435/5
f 588/429/33 590/430/34 594/436/33 586/437/33
f 608/437/1 606/429/1 605/438/1 607/439/1
f 611/437/2 609/429/2 610/438/2 612/439/2
f 605/440/3 606/160/3 610/438/3 609/441/3
f 608/440/4 607/160/4 611/438/4 612/441/4
f 607/173/5 605/160/5 609/438/5 611/439/5
f 612/173/6 610/160/6 606/438/6 608/439/6
f 626/455/25 630/456/25 631/457/25 627/458/25
f 629/459/26 633/458/26 632/455/26 628/460/26
f 628/461/6 632/462/6 630/463/6 626/464/6
f 627/465/5 631/466/5 633/467/5 629/468/5
f 630/455/23 634/456/23 635/457/23 631/458/23
f 633/459/24 637/458/24 636/455/24 632/460/24
f 632/469/6 636/470/6 634/471/6 630/472/6
f 631/465/5 635/466/5 637/473/5 633/474/5
f 634/455/1 638/456/1 639/457/1 635/458/1
f 637/459/2 641/458/2 640/455/2 636/460/2
f 636/475/6 640/476/6 638/477/6 634/478/6
f 635/477/5 639/478/5 641/475/5 637/476/5
f 638/455/21 642/456/21 643/457/21 639/458/21
f 641/459/22 645/458/22 644/455/22 640/460/22
f 640/479/6 644/480/6 642/481/6 638/482/6
f 639/483/5 643/484/5 645/485/5 641/486/5
f 642/455/19 646/456/19 647/457/19 643/458/19
f 645/459/20 649/458/20 648/455/20 644/460/20
f 644/487/6 648/488/6 646/489/6 642/490/6
f 643/483/5 647/484/5 649/491/5 645/492/5
f 646/455/3 650/456/3 651/457/3 647/458/3
f 649/459/4 653/458/4 652/455/4 648/460/4
f 648/493/6 652/494/6 650/495/6 646/496/6
f 647/457/5 651/458/5 653/497/5 649/498/5
f 650/455/26 654/456/26 655/457/26 651/458/26
f 653/459/25 657/458/25 656/455/25 652/460/25
f 652/499/6 656/500/6 654/458/6 650/501/6
f 651/502/5 655/458/5 657/503/5 653/504/5
f 654/455/24 658/456/24 659/457/24 655/458/24
f 657/459/23 661/458/23 660/455/23 656/460/23
f 656/505/6 660/506/6 658/507/6 654/508/6
f 655/502/5 659/458/5 661/509/5 657/510/5
f 658/455/2 662/456/2 663/457/2 659/458/2
f 661/459/1 665/458/1 664/455/1 660/460/1
f 660/511/6 664/512/6 662/458/6 658/513/6
f 659/458/5 663/513/5 665/511/5 661/512/5
f 662/455/22 666/456/22 667/457/22 663/458/22
f 665/459/21 669/458/21 668/455/21 664/460/21
f 664/514/6 668/515/6 666/502/6 662/516/6
f 663/458/5 667/508/5 669/517/5 665/518/5
f 666/455/20 670/456/20 671/457/20 667/458/20
f 669/459/19 673/458/19 672/455/19 668/460/19
f 668/519/6 672/520/6 670/521/6 666/458/6
f 667/458/5 671/508/5 673/522/5 669/523/5
f 670/455/4 626/456/4 627/457/4 671/458/4
f 673/459/3 629/458/3 628/455/3 672/460/3
f 672/497/6 628/498/6 626/457/6 670/458/6
f 671/495/5 627/496/5 629/493/5 673/494/5
f 677/524/1 675/181/1 674/436/1 676/525/1
f 680/526/2 678/426/2 679/527/2 681/528/2
f 674/529/3 675/530/3 679/531/3 678/532/3
f 677/533/4 676/423/4 680/534/4 681/535/4
f 676/366/5 674/536/5 678/537/5 680/538/5
f 681/539/6 679/540/6 675/541/6 677/542/6
f 685/543/1 683/544/1 682/545/1 684/546/1
f 688/428/2 686/525/2 687/547/2 689/548/2
f 682/421/3 683/549/3 687/550/3 686/551/3
f 685/552/4 684/553/4 688/554/4 689/555/4
f 684/556/5 682/182/5 686/162/5 688/557/5
f 689/532/6 687/557/6 683/525/6 685/428/6
f 692/558/4 690/559/4 691/556/4 693/423/4
f 690/434/35 609/560/35 610/561/35 691/529/35
f 612/562/17 611/394/17 692/440/17 693/295/17
f 611/433/5 609/563/5 690/428/5 692/564/5
f 691/561/36 610/529/37 612/434/36 693/560/36
f 606/559/38 605/556/38 694/423/38 695/558/38
f 696/432/16 607/565/16 608/536/16 697/566/16
f 695/398/4 694/416/4 696/525/4 697/364/4
f 694/433/5 605/563/5 607/428/5 696/564/5
f 608/563/39 606/428/39 695/564/39 697/433/39
f 701/567/1 699/568/1 698/569/1 700/570/1
f 704/567/2 702/568/2 703/569/2 705/570/2
f 698/571/3 699/572/3 703/569/3 702/573/3
f 701/571/4 700/572/4 704/569/4 705/573/4
f 700/574/5 698/79/5 702/23/5 704/32/5
f 705/575/6 703/572/6 699/569/6 701/570/6
f 709/576/40 707/577/40 706/578/40 708/579/40
f 712/579/41 710/578/41 711/580/41 713/581/41
f 706/582/3 707/583/3 711/584/3 710/585/3
f 709/586/2 708/582/2 712/585/2 713/587/2
f 708/588/5 706/589/5 710/578/5 712/579/5
f 713/579/6 711/578/6 707/590/6 709/591/6
f 709/576/42 715/577/42 714/578/42 708/579/42
f 718/579/43 716/578/43 717/580/43 719/581/43
f 714/582/4 715/583/4 717/584/4 716/585/4
f 709/586/1 708/582/1 718/585/1 719/587/1
f 708/588/5 714/589/5 716/578/5 718/579/5
f 719/579/6 717/578/6 715/590/6 709/591/6
f 713/592/44 721/593/44 720/594/44 712/595/44
f 708/596/45 722/597/45 723/598/45 709/599/45
f 720/600/3 721/601/3 723/602/3 722/603/3
f 712/604/5 720/605/5 722/606/5 708/607/5
f 709/608/6 723/609/6 721/594/6 713/595/6
f 719/592/46 725/593/46 724/594/46 718/595/46
f 708/596/47 726/597/47 727/598/47 709/599/47
f 724/600/4 725/601/4 727/602/4 726/603/4
f 718/604/5 724/605/5 726/606/5 708/607/5
f 709/608/6 727/609/6 725/594/6 719/595/6
f 739/615/1 737/616/1 736/71/1 738/617/1
f 742/615/2 740/616/2 741/71/2 743/617/2
f 736/616/3 737/618/3 741/70/3 740/71/3
f 739/616/4 738/618/4 742/70/4 743/71/4
f 738/615/5 736/616/5 740/71/5 742/617/5
f 743/615/6 741/616/6 737/71/6 739/617/6
f 747/615/1 745/616/1 744/71/1 746/617/1
f 750/615/2 748/616/2 749/71/2 751/617/2
f 744/616/3 745/618/3 749/70/3 748/71/3
f 747/616/4 746/618/4 750/70/4 751/71/4
f 746/615/5 744/616/5 748/71/5 750/617/5
f 751/615/6 749/616/6 745/71/6 747/617/6
f 787/64/1 785/65/1 784/66/1 786/67/1
f 790/616/2 788/618/2 789/70/2 791/71/2
f 784/620/3 785/621/3 789/622/3 788/623/3
f 787/620/4 786/621/4 790/622/4 791/623/4
f 786/620/5 784/621/5 788/622/5 790/623/5
f 791/620/6 789/621/6 785/622/6 787/623/6
usemtl m_b2af6bd8-ffc8-ff72-7f7b-7b18782af15d.002
f 346/184/1 344/185/1 343/145/1 345/186/1
f 349/187/2 347/188/2 348/53/2 350/189/2
f 343/190/3 344/191/3 348/192/3 347/193/3
f 346/194/4 345/195/4 349/196/4 350/197/4
f 345/184/5 343/185/5 347/198/5 349/199/5
f 350/200/6 348/201/6 344/53/6 346/189/6
f 354/202/1 352/185/1 351/203/1 353/204/1
f 357/205/2 355/206/2 356/53/2 358/207/2
f 351/208/3 352/209/3 356/210/3 355/211/3
f 354/212/4 353/213/4 357/214/4 358/215/4
f 353/216/5 351/188/5 355/217/5 357/218/5
f 358/219/6 356/220/6 352/145/6 354/221/6
f 361/202/1 1/185/1 359/203/1 360/204/1
f 364/205/2 362/206/2 363/53/2 365/207/2
f 359/208/3 1/209/3 363/210/3 362/211/3
f 361/212/4 360/213/4 364/214/4 365/215/4
f 360/216/5 359/188/5 362/217/5 364/218/5
f 365/219/6 363/220/6 1/145/6 361/221/6
f 367/222/1 366/220/1 344/53/1 346/189/1
f 350/184/2 348/185/2 368/217/2 369/223/2
f 344/194/3 366/224/3 368/225/3 348/197/3
f 367/185/4 346/191/4 350/192/4 369/198/4
f 369/200/6 368/201/6 366/53/6 367/189/6
f 371/219/1 370/220/1 356/145/1 358/221/1
f 374/216/2 372/188/2 373/217/2 375/218/2
f 356/226/3 370/227/3 373/228/3 372/229/3
f 371/188/4 358/230/4 374/231/4 375/232/4
f 358/216/5 356/188/5 372/232/5 374/233/5
f 375/234/6 373/235/6 370/145/6 371/221/6
f 377/219/1 376/220/1 363/145/1 365/221/1
f 380/216/2 378/188/2 379/217/2 381/218/2
f 363/226/3 376/227/3 379/228/3 378/229/3
f 377/188/4 365/230/4 380/231/4 381/232/4
f 365/216/5 363/188/5 378/232/5 380/233/5
f 381/234/6 379/235/6 376/145/6 377/221/6
f 383/236/1 379/220/1 378/145/1 382/237/1
f 386/212/2 384/188/2 385/217/2 368/215/2
f 378/229/3 379/228/3 385/225/3 384/193/3
f 383/232/4 382/231/4 386/196/4 368/198/4
f 382/238/5 378/232/5 384/198/5 386/197/5
f 368/239/6 385/201/6 379/235/6 383/240/6
f 366/236/1 387/220/1 1/145/1 388/237/1
f 389/212/2 363/188/2 376/217/2 390/215/2
f 1/193/3 387/225/3 376/241/3 363/242/3
f 366/198/4 388/196/4 389/243/4 390/244/4
f 388/197/5 1/198/5 363/244/5 389/245/5
f 390/246/6 376/247/6 387/201/6 366/239/6
f 393/236/1 359/220/1 391/145/1 392/237/1
f 395/212/2 394/188/2 362/217/2 396/215/2
f 391/193/3 359/225/3 362/241/3 394/242/3
f 393/198/4 392/196/4 395/243/4 396/244/4
f 392/197/5 391/198/5 394/244/5 395/245/5
f 396/246/6 362/247/6 359/201/6 393/239/6
f 400/236/1 398/220/1 397/145/1 399/237/1
f 347/212/2 401/188/2 402/217/2 403/215/2
f 397/229/3 398/228/3 402/225/3 401/193/3
f 400/232/4 399/231/4 347/196/4 403/198/4
f 399/238/5 397/232/5 401/198/5 347/197/5
f 403/239/6 402/201/6 398/235/6 400/240/6
f 380/216/1 378/188/1 398/53/1 404/207/1
f 405/202/2 402/185/2 384/145/2 406/221/2
f 398/238/3 378/231/3 384/196/3 402/197/3
f 380/229/4 404/248/4 405/192/4 406/193/4
f 404/233/5 398/232/5 402/198/5 405/249/5
f 406/250/6 384/201/6 378/235/6 380/234/6
f 374/216/1 372/188/1 407/53/1 408/207/1
f 411/202/2 409/185/2 410/145/2 412/221/2
f 407/238/3 372/231/3 410/196/3 409/197/3
f 374/229/4 408/248/4 411/192/4 412/193/4
f 408/233/5 407/232/5 409/198/5 411/249/5
f 412/250/6 410/201/6 372/235/6 374/234/6
f 416/223/1 414/217/1 413/53/1 415/189/1
f 419/184/2 417/185/2 418/220/2 420/222/2
f 413/251/3 414/252/3 418/145/3 417/237/3
f 416/253/4 415/121/4 419/45/4 420/254/4
f 415/120/5 413/252/5 417/145/5 419/186/5
f 420/255/6 418/256/6 414/257/6 416/258/6
f 422/259/1 416/217/1 415/53/1 421/260/1
f 425/261/2 423/185/2 424/220/2 426/262/2
f 415/251/3 416/252/3 424/263/3 423/264/3
f 422/253/4 421/121/4 425/82/4 426/265/4
f 421/266/5 415/252/5 423/263/5 425/267/5
f 426/268/6 424/206/6 416/257/6 422/269/6
f 731/237/1 729/45/1 728/23/1 730/130/1
f 734/610/2 732/119/2 733/611/2 735/612/2
f 728/613/3 729/614/3 733/207/3 732/189/3
f 731/143/4 730/119/4 734/23/4 735/37/4
f 730/610/5 728/119/5 732/23/5 734/130/5
f 735/610/6 733/119/6 729/23/6 731/130/6
f 755/194/1 753/261/1 752/259/1 754/215/1
f 758/194/2 756/261/2 757/259/2 759/215/2
f 752/194/48 753/224/48 757/619/48 756/215/48
f 755/194/49 754/224/49 758/619/49 759/215/49
f 754/194/50 752/261/50 756/259/50 758/215/50
f 759/194/51 757/261/51 753/259/51 755/215/51
f 763/262/52 761/22/52 760/23/52 762/260/52
f 766/262/53 764/22/53 765/23/53 767/260/53
f 760/194/54 761/224/54 765/619/54 764/215/54
f 763/194/55 762/224/55 766/619/55 767/215/55
f 762/262/56 760/22/56 764/23/56 766/260/56
f 767/262/57 765/22/57 761/23/57 763/260/57
f 771/262/58 769/22/58 768/23/58 770/260/58
f 774/262/59 772/22/59 773/23/59 775/260/59
f 768/194/54 769/224/54 773/619/54 772/215/54
f 771/194/55 770/224/55 774/619/55 775/215/55
f 770/262/56 768/22/56 772/23/56 774/260/56
f 775/262/57 773/22/57 769/23/57 771/260/57
f 779/194/1 777/261/1 776/259/1 778/215/1
f 782/194/2 780/261/2 781/259/2 783/215/2
f 776/194/48 777/224/48 781/619/48 780/215/48
f 779/194/49 778/224/49 782/619/49 783/215/49
f 778/194/50 776/261/50 780/259/50 782/215/50
f 783/194/51 781/261/51 777/259/51 779/215/51
f 4/624/1 793/625/1 792/626/1 794/627/1
f 797/628/2 795/629/2 796/630/2 430/631/2
f 792/614/3 793/119/3 796/22/3 795/219/3
f 4/613/4 794/143/4 797/38/4 430/222/4
f 794/624/5 792/625/5 795/632/5 797/633/5
f 430/633/6 796/632/6 793/630/6 4/631/6
f 434/634/1 799/119/1 798/45/1 800/635/1
f 803/636/2 801/611/2 802/23/2 8/637/2
f 798/614/3 799/119/3 802/22/3 801/219/3
f 434/613/4 800/143/4 803/38/4 8/222/4
f 800/634/5 798/119/5 801/22/5 803/638/5
f 8/638/6 802/22/6 799/23/6 434/637/6
f 807/185/1 805/191/1 804/23/1 806/53/1
f 810/185/2 808/191/2 809/23/2 811/53/2
f 804/236/3 805/22/3 809/23/3 808/130/3
f 807/236/4 806/22/4 810/23/4 811/130/4
f 806/639/5 804/119/5 808/22/5 810/220/5
f 811/220/6 809/22/6 805/23/6 807/53/6
f 815/640/1 813/641/1 812/274/1 814/642/1
f 818/643/2 816/644/2 817/645/2 819/646/2
f 812/647/3 813/648/3 817/649/3 816/650/3
f 815/651/4 814/652/4 818/207/4 819/653/4
f 814/654/5 812/655/5 816/266/5 818/656/5
f 819/657/6 817/643/6 813/658/6 815/659/6
f 823/217/1 821/660/1 820/661/1 822/662/1
f 825/263/2 824/663/2 808/38/2 810/220/2
f 820/664/3 821/639/3 808/220/3 824/665/3
f 823/666/4 822/667/4 825/668/4 810/669/4
f 822/639/5 820/143/5 824/38/5 825/220/5
f 810/220/6 808/38/6 821/37/6 823/53/6
f 829/670/1 827/671/1 826/37/1 828/53/1
f 832/185/2 830/195/2 831/672/2 833/673/2
f 826/610/3 827/674/3 831/675/3 830/612/3
f 829/676/4 828/119/4 832/611/4 833/677/4
f 828/639/5 826/143/5 830/678/5 832/679/5
f 833/145/6 831/33/6 827/37/6 829/53/6
f 828/217/1 826/660/1 834/661/1 835/662/1
f 838/263/2 836/663/2 837/38/2 839/220/2
f 834/664/3 826/639/3 837/220/3 836/665/3
f 828/666/4 835/667/4 838/668/4 839/669/4
f 835/639/5 834/143/5 836/38/5 838/220/5
f 839/220/6 837/38/6 826/37/6 828/53/6
f 841/639/1 4/119/1 794/45/1 840/145/1
f 842/679/2 803/611/2 8/23/2 843/53/2
f 794/680/3 4/681/3 8/23/3 803/207/3
f 841/682/4 840/683/4 842/37/4 843/189/4
f 840/247/5 794/681/5 803/23/5 842/53/5
f 843/247/6 8/681/6 4/23/6 841/53/6
f 847/639/1 845/143/1 844/33/1 846/145/1
f 850/679/2 848/678/2 849/37/2 851/53/2
f 844/652/3 845/684/3 849/685/3 848/686/3
f 847/687/4 846/688/4 850/243/4 851/689/4
f 846/690/5 844/688/5 848/243/5 850/244/5
f 851/690/6 849/688/6 845/243/6 847/244/6
f 855/263/1 853/663/1 852/33/1 854/145/1
f 858/263/2 856/663/2 857/33/2 859/145/2
f 852/98/3 853/672/3 857/231/3 856/691/3
f 855/98/4 854/672/4 858/231/4 859/691/4
f 854/673/5 852/672/5 856/231/5 858/232/5
f 859/673/6 857/672/6 853/231/6 855/232/6
f 863/639/10 861/143/10 860/33/10 862/145/10
f 866/679/9 864/678/9 865/37/9 867/53/9
f 860/652/7 861/684/7 865/685/7 864/686/7
f 863/687/8 862/688/8 866/243/8 867/689/8
f 862/690/5 860/688/5 864/243/5 866/244/5
f 867/690/6 865/688/6 861/243/6 863/244/6
f 871/639/7 869/143/7 868/33/7 870/145/7
f 874/679/8 872/678/8 873/37/8 875/53/8
f 868/692/9 869/693/9 873/685/9 872/686/9
f 871/694/10 870/695/10 874/243/10 875/689/10
f 870/696/5 868/695/5 872/243/5 874/244/5
f 875/696/6 873/695/6 869/243/6 871/244/6
f 879/613/1 877/119/1 876/23/1 878/189/1
f 882/613/2 880/119/2 881/23/2 883/189/2
f 876/697/3 877/698/3 881/23/3 880/189/3
f 879/697/4 878/698/4 882/23/4 883/189/4
f 878/697/5 876/698/5 880/23/5 882/189/5
f 883/699/6 881/700/6 877/108/6 879/701/6
f 887/702/1 885/703/1 884/23/1 886/37/1
f 890/702/2 888/703/2 889/23/2 891/37/2
f 884/704/3 885/119/3 889/22/3 888/262/3
f 887/704/4 886/119/4 890/22/4 891/262/4
f 886/143/5 884/119/5 888/22/5 890/38/5
f 891/38/6 889/22/6 885/23/6 887/37/6
f 895/702/1 893/703/1 892/23/1 894/37/1
f 898/702/2 896/703/2 897/23/2 899/37/2
f 892/704/3 893/119/3 897/22/3 896/262/3
f 895/704/4 894/119/4 898/22/4 899/262/4
f 894/143/5 892/119/5 896/22/5 898/38/5
f 899/38/6 897/22/6 893/23/6 895/37/6
f 903/705/1 901/143/1 900/678/1 902/706/1
f 906/707/2 904/33/2 905/37/2 907/708/2
f 900/143/3 901/119/3 905/22/3 904/38/3
f 903/613/4 902/614/4 906/219/4 907/222/4
f 902/705/5 900/143/5 904/38/5 906/709/5
f 907/709/6 905/38/6 901/37/6 903/708/6
f 903/639/1 902/679/1 908/58/1
f 906/145/2 907/53/2 909/221/2
f 908/614/60 902/639/60 906/220/60 909/219/60
f 909/219/6 907/220/6 903/53/6 908/207/6
f 912/702/1 911/703/1 910/23/1 901/37/1
f 905/702/2 913/703/2 914/23/2 915/37/2
f 910/704/3 911/119/3 914/22/3 913/262/3
f 912/704/4 901/119/4 905/22/4 915/262/4
f 901/143/5 910/119/5 913/22/5 905/38/5
f 915/38/6 914/22/6 911/23/6 912/37/6
f 910/82/61 900/663/61 901/702/1
f 913/45/62 905/37/2 904/33/62
f 900/143/61 910/119/61 913/22/62 904/38/62
f 884/82/61 916/663/61 886/702/1
f 888/45/62 890/37/2 917/33/62
f 886/704/4 916/664/4 917/665/4 890/262/4
f 916/143/61 884/119/61 888/22/62 917/38/62
f 919/702/1 918/703/1 903/23/1 908/37/1
f 909/702/2 907/703/2 920/23/2 921/37/2
f 903/704/3 918/119/3 920/22/3 907/262/3
f 919/704/4 908/119/4 909/22/4 921/262/4
f 921/38/6 920/22/6 918/23/6 919/37/6
f 892/705/1 886/143/1 916/678/1 922/706/1
f 923/707/2 917/33/2 890/37/2 896/708/2
f 892/613/4 922/614/4 923/219/4 896/222/4
f 922/705/5 916/143/5 917/38/5 923/709/5
f 896/709/6 890/38/6 886/37/6 892/708/6
f 892/639/1 922/679/1 894/58/1
f 923/145/2 896/53/2 898/221/2
f 894/614/60 922/639/60 923/220/60 898/219/60
f 927/690/63 925/684/63 924/45/63 926/145/63
f 930/206/64 928/710/64 929/23/64 931/53/64
f 924/711/65 925/119/65 929/22/65 928/712/65
f 927/713/66 926/143/66 930/38/66 931/714/66
f 926/639/5 924/119/5 928/22/5 930/220/5
f 931/220/6 929/22/6 925/23/6 927/53/6
f 931/690/67 929/684/67 932/45/67 933/145/67
f 936/206/68 934/710/68 935/23/68 937/53/68
f 932/711/65 929/119/65 935/22/65 934/712/65
f 931/713/66 933/143/66 936/38/66 937/714/66
f 933/639/5 932/119/5 934/22/5 936/220/5
f 937/220/6 935/22/6 929/23/6 931/53/6
usemtl m_409504fd-f58c-4195-329e-2b61b82ac830.002
f 437/282/6 438/283/6 435/284/6
f 438/283/6 439/285/6 435/284/6
f 439/285/6 440/286/6 435/284/6
f 440/286/6 441/287/6 435/284/6
f 441/287/6 442/288/6 435/284/6
f 442/288/6 443/289/6 435/284/6
f 443/289/6 444/290/6 435/284/6
f 444/290/6 445/291/6 435/284/6
f 445/291/6 446/292/6 435/284/6
f 446/292/6 447/293/6 435/284/6
f 447/293/6 436/294/6 435/284/6
f 436/294/6 437/282/6 435/284/6
f 522/282/6 523/283/6 520/284/6
f 523/283/6 524/285/6 520/284/6
f 524/285/6 525/286/6 520/284/6
f 525/286/6 526/287/6 520/284/6
f 526/287/6 527/288/6 520/284/6
f 527/288/6 528/289/6 520/284/6
f 528/289/6 529/290/6 520/284/6
f 529/290/6 530/291/6 520/284/6
f 530/291/6 531/292/6 520/284/6
f 531/292/6 532/293/6 520/284/6
f 532/293/6 521/294/6 520/284/6
f 521/294/6 522/282/6 520/284/6
f 615/442/6 613/443/6 616/444/6
f 616/444/6 613/443/6 617/445/6
f 617/445/6 613/443/6 618/446/6
f 618/446/6 613/443/6 619/447/6
f 619/447/6 613/443/6 620/448/6
f 620/448/6 613/443/6 621/449/6
f 621/449/6 613/443/6 622/450/6
f 622/450/6 613/443/6 623/451/6
f 623/451/6 613/443/6 624/452/6
f 624/452/6 613/443/6 625/453/6
f 625/453/6 613/443/6 614/454/6
f 614/454/6 613/443/6 615/442/6
