# Blender 5.2.0 LTS
# www.blender.org
mtllib ks_vr_400_left.mtl
o cube
v -0.125000 3.812500 -0.187500
v -0.125000 3.812500 -0.250000
v -0.125000 3.687500 -0.187500
v -0.062500 3.812500 -0.187500
v -0.062500 3.812500 -0.250000
v -0.062500 3.687500 -0.187500
v 0.062500 3.812500 -0.187500
v 0.062500 3.812500 -0.250000
v 0.062500 3.687500 -0.187500
v 0.125000 3.812500 -0.187500
v 0.125000 3.812500 -0.250000
v 0.125000 3.687500 -0.187500
v 0.250000 3.812500 -0.187500
v 0.250000 3.812500 -0.250000
v 0.250000 3.687500 -0.187500
v 0.312500 3.812500 -0.187500
v 0.312500 3.812500 -0.250000
v 0.312500 3.687500 -0.187500
v -0.125000 3.812500 0.187500
v -0.125000 3.812500 0.250000
v -0.125000 3.687500 0.187500
v -0.062500 3.812500 0.187500
v -0.062500 3.812500 0.250000
v -0.062500 3.687500 0.187500
v 0.062500 3.812500 0.187500
v 0.062500 3.812500 0.250000
v 0.062500 3.687500 0.187500
v 0.125000 3.812500 0.187500
v 0.125000 3.812500 0.250000
v 0.125000 3.687500 0.187500
v 0.250000 3.812500 0.187500
v 0.250000 3.812500 0.250000
v 0.250000 3.687500 0.187500
v 0.312500 3.812500 0.187500
v 0.312500 3.812500 0.250000
v 0.312500 3.687500 0.187500
v 0.218750 3.490625 0.031250
v 0.218750 3.490625 -0.031250
v 0.218750 3.443750 0.031250
v 0.218750 3.443750 -0.031250
v 0.406250 3.553125 0.031250
v 0.406250 3.553125 -0.031250
v 0.406250 3.506250 0.031250
v 0.406250 3.506250 -0.031250
v -0.062500 3.568750 0.031250
v -0.062500 3.568750 -0.031250
v -0.109375 3.568750 0.031250
v -0.109375 3.568750 -0.031250
v 0.015625 3.490625 0.031250
v 0.015625 3.490625 -0.031250
v 0.015625 3.443750 0.031250
v 0.015625 3.443750 -0.031250
v -0.062500 4.000000 0.212500
v -0.062500 4.000000 0.100000
v -0.125000 3.875000 0.212500
v -0.125000 3.875000 0.100000
v -0.062500 3.875000 0.212500
v -0.062500 3.875000 0.100000
v 0.000000 4.000000 0.212500
v 0.000000 4.000000 0.100000
v -0.062500 4.000000 -0.162500
v -0.062500 4.000000 -0.212500
v -0.125000 3.875000 -0.162500
v -0.125000 3.875000 -0.212500
v -0.062500 3.875000 -0.162500
v -0.062500 3.875000 -0.212500
v 0.000000 4.000000 -0.162500
v 0.000000 4.000000 -0.212500
v 0.062500 3.875000 -0.162500
v 0.062500 3.875000 -0.212500
v 0.062500 4.000000 -0.162500
v 0.062500 4.000000 -0.212500
v 0.125000 3.875000 -0.162500
v 0.125000 3.875000 -0.212500
v 0.062500 3.875000 0.212500
v 0.062500 3.875000 0.100000
v 0.062500 4.000000 0.212500
v 0.062500 4.000000 0.100000
v 0.125000 3.875000 0.212500
v 0.125000 3.875000 0.100000
v 0.368750 5.090997 0.441786
v 0.368750 5.080144 0.411486
v 0.243750 4.961646 0.463492
v 0.243750 4.950793 0.433191
v 0.337500 5.090997 0.441786
v 0.337500 5.080144 0.411486
v 0.212500 4.961646 0.463492
v 0.212500 4.950793 0.433191
v -0.350000 5.090997 0.441786
v -0.350000 5.080144 0.411486
v -0.225000 4.961646 0.463492
v -0.225000 4.950793 0.433191
v -0.381250 5.090997 0.441786
v -0.381250 5.080144 0.411486
v -0.256250 4.961646 0.463492
v -0.256250 4.950793 0.433191
v 0.406250 5.156250 -0.187500
v 0.406250 5.156250 -0.218750
v 0.406250 5.125000 -0.218750
v 0.343750 5.156250 -0.187500
v 0.343750 5.156250 -0.218750
v 0.343750 5.125000 -0.218750
v 0.406250 5.812500 -0.218750
v 0.406250 5.781250 -0.187500
v 0.406250 5.781250 -0.218750
v 0.343750 5.812500 -0.218750
v 0.343750 5.781250 -0.187500
v 0.343750 5.781250 -0.218750
v -0.343750 5.812500 -0.218750
v -0.343750 5.781250 -0.187500
v -0.343750 5.781250 -0.218750
v -0.406250 5.812500 -0.218750
v -0.406250 5.781250 -0.187500
v -0.406250 5.781250 -0.218750
v -0.343750 5.156250 -0.187500
v -0.343750 5.156250 -0.218750
v -0.343750 5.125000 -0.218750
v -0.406250 5.156250 -0.187500
v -0.406250 5.156250 -0.218750
v -0.406250 5.125000 -0.218750
v 0.250000 5.000000 0.681250
v 0.062500 4.937500 0.218750
v 0.250000 4.937500 0.681250
v 0.062500 4.875000 0.218750
v 0.187500 5.000000 0.681250
v 0.000000 4.937500 0.218750
v 0.187500 4.937500 0.681250
v 0.000000 4.875000 0.218750
v -0.187500 5.000000 0.681250
v -0.187500 4.937500 0.681250
v -0.250000 5.000000 0.681250
v -0.062500 4.937500 0.218750
v -0.250000 4.937500 0.681250
v -0.062500 4.875000 0.218750
v 0.296875 2.678125 -0.181250
v 0.296875 2.678125 -0.187500
v 0.531250 2.328125 -0.181250
v 0.531250 2.328125 -0.187500
v 0.375000 2.678125 -0.181250
v 0.375000 2.678125 -0.187500
v 0.531250 2.437500 -0.181250
v 0.531250 2.437500 -0.187500
v 0.765625 1.978125 -0.181250
v 0.765625 1.978125 -0.187500
v 0.687500 1.978125 -0.181250
v 0.687500 1.978125 -0.187500
v 0.531250 2.218750 -0.181250
v 0.531250 2.218750 -0.187500
v 0.687500 2.687500 -0.181250
v 0.687500 2.687500 -0.187500
v 0.765625 2.687500 -0.181250
v 0.765625 2.687500 -0.187500
v 0.375000 1.968750 -0.181250
v 0.375000 1.968750 -0.187500
v 0.296875 1.968750 -0.181250
v 0.296875 1.968750 -0.187500
v 0.156250 5.484375 -0.534375
v 0.181370 5.578125 -0.534375
v 0.224880 5.553005 -0.534375
v 0.250000 5.509495 -0.534375
v 0.250000 5.459255 -0.534375
v 0.224880 5.415745 -0.534375
v 0.181370 5.390625 -0.534375
v 0.131130 5.390625 -0.534375
v 0.087620 5.415745 -0.534375
v 0.062500 5.459255 -0.534375
v 0.062500 5.509495 -0.534375
v 0.087620 5.553005 -0.534375
v 0.131130 5.578125 -0.534375
v 0.183464 5.585938 -0.500000
v 0.183464 5.585938 -0.562500
v 0.176050 5.558270 -0.500000
v 0.176050 5.558270 -0.562500
v 0.230599 5.558724 -0.500000
v 0.230599 5.558724 -0.562500
v 0.210345 5.538470 -0.500000
v 0.210345 5.538470 -0.562500
v 0.257812 5.511589 -0.500000
v 0.257812 5.511589 -0.562500
v 0.230145 5.504175 -0.500000
v 0.230145 5.504175 -0.562500
v 0.257812 5.457161 -0.500000
v 0.257812 5.457161 -0.562500
v 0.230145 5.464575 -0.500000
v 0.230145 5.464575 -0.562500
v 0.230599 5.410026 -0.500000
v 0.230599 5.410026 -0.562500
v 0.210345 5.430280 -0.500000
v 0.210345 5.430280 -0.562500
v 0.183464 5.382812 -0.500000
v 0.183464 5.382812 -0.562500
v 0.176050 5.410480 -0.500000
v 0.176050 5.410480 -0.562500
v 0.129036 5.382812 -0.500000
v 0.129036 5.382812 -0.562500
v 0.136450 5.410480 -0.500000
v 0.136450 5.410480 -0.562500
v 0.081901 5.410026 -0.500000
v 0.081901 5.410026 -0.562500
v 0.102155 5.430280 -0.500000
v 0.102155 5.430280 -0.562500
v 0.054688 5.457161 -0.500000
v 0.054688 5.457161 -0.562500
v 0.082355 5.464575 -0.500000
v 0.082355 5.464575 -0.562500
v 0.054688 5.511589 -0.500000
v 0.054688 5.511589 -0.562500
v 0.082355 5.504175 -0.500000
v 0.082355 5.504175 -0.562500
v 0.081901 5.558724 -0.500000
v 0.081901 5.558724 -0.562500
v 0.102155 5.538470 -0.500000
v 0.102155 5.538470 -0.562500
v 0.129036 5.585938 -0.500000
v 0.129036 5.585938 -0.562500
v 0.136450 5.558270 -0.500000
v 0.136450 5.558270 -0.562500
v 0.315625 5.512500 -0.500000
v 0.315625 5.512500 -0.562500
v 0.284375 5.512500 -0.500000
v 0.284375 5.512500 -0.562500
v 0.218750 5.621875 -0.500000
v 0.218750 5.621875 -0.937500
v 0.218750 5.590625 -0.500000
v 0.218750 5.590625 -0.937500
v 0.027459 5.512500 -0.500000
v 0.027459 5.512500 -0.562500
v -0.003791 5.512500 -0.500000
v -0.003791 5.512500 -0.562500
v 0.093750 5.590625 -0.500000
v 0.093750 5.590625 -0.937500
v 0.093750 5.621875 -0.500000
v 0.093750 5.621875 -0.937500
v -0.156250 5.484375 -0.534375
v -0.131130 5.578125 -0.534375
v -0.087620 5.553005 -0.534375
v -0.062500 5.509495 -0.534375
v -0.062500 5.459255 -0.534375
v -0.087620 5.415745 -0.534375
v -0.131130 5.390625 -0.534375
v -0.181370 5.390625 -0.534375
v -0.224880 5.415745 -0.534375
v -0.250000 5.459255 -0.534375
v -0.250000 5.509495 -0.534375
v -0.224880 5.553005 -0.534375
v -0.181370 5.578125 -0.534375
v -0.129036 5.585938 -0.500000
v -0.129036 5.585938 -0.562500
v -0.136450 5.558270 -0.500000
v -0.136450 5.558270 -0.562500
v -0.081901 5.558724 -0.500000
v -0.081901 5.558724 -0.562500
v -0.102155 5.538470 -0.500000
v -0.102155 5.538470 -0.562500
v -0.054688 5.511589 -0.500000
v -0.054688 5.511589 -0.562500
v -0.082355 5.504175 -0.500000
v -0.082355 5.504175 -0.562500
v -0.054688 5.457161 -0.500000
v -0.054688 5.457161 -0.562500
v -0.082355 5.464575 -0.500000
v -0.082355 5.464575 -0.562500
v -0.081901 5.410026 -0.500000
v -0.081901 5.410026 -0.562500
v -0.102155 5.430280 -0.500000
v -0.102155 5.430280 -0.562500
v -0.129036 5.382812 -0.500000
v -0.129036 5.382812 -0.562500
v -0.136450 5.410480 -0.500000
v -0.136450 5.410480 -0.562500
v -0.183464 5.382812 -0.500000
v -0.183464 5.382812 -0.562500
v -0.176050 5.410480 -0.500000
v -0.176050 5.410480 -0.562500
v -0.230599 5.410026 -0.500000
v -0.230599 5.410026 -0.562500
v -0.210345 5.430280 -0.500000
v -0.210345 5.430280 -0.562500
v -0.257812 5.457161 -0.500000
v -0.257812 5.457161 -0.562500
v -0.230145 5.464575 -0.500000
v -0.230145 5.464575 -0.562500
v -0.257812 5.511589 -0.500000
v -0.257812 5.511589 -0.562500
v -0.230145 5.504175 -0.500000
v -0.230145 5.504175 -0.562500
v -0.230599 5.558724 -0.500000
v -0.230599 5.558724 -0.562500
v -0.210345 5.538470 -0.500000
v -0.210345 5.538470 -0.562500
v -0.183464 5.585938 -0.500000
v -0.183464 5.585938 -0.562500
v -0.176050 5.558270 -0.500000
v -0.176050 5.558270 -0.562500
v 0.003125 5.512500 -0.500000
v 0.003125 5.512500 -0.562500
v -0.028125 5.512500 -0.500000
v -0.028125 5.512500 -0.562500
v -0.093750 5.621875 -0.500000
v -0.093750 5.621875 -0.937500
v -0.093750 5.590625 -0.500000
v -0.093750 5.590625 -0.937500
v -0.285041 5.512500 -0.500000
v -0.285041 5.512500 -0.562500
v -0.316291 5.512500 -0.500000
v -0.316291 5.512500 -0.562500
v -0.218750 5.590625 -0.500000
v -0.218750 5.590625 -0.937500
v -0.218750 5.621875 -0.500000
v -0.218750 5.621875 -0.937500
v 0.218750 5.812500 -0.525000
v 0.233404 5.757812 -0.525000
v 0.258784 5.772466 -0.525000
v 0.273438 5.797846 -0.525000
v 0.273438 5.827154 -0.525000
v 0.258784 5.852534 -0.525000
v 0.233404 5.867188 -0.525000
v 0.204096 5.867188 -0.525000
v 0.178716 5.852534 -0.525000
v 0.164062 5.827154 -0.525000
v 0.164062 5.797846 -0.525000
v 0.178716 5.772466 -0.525000
v 0.204096 5.757812 -0.525000
v 0.235497 5.750000 -0.546875
v 0.235497 5.750000 -0.484375
v 0.227714 5.779045 -0.546875
v 0.227714 5.779045 -0.484375
v 0.264503 5.766747 -0.546875
v 0.264503 5.766747 -0.484375
v 0.243241 5.788009 -0.546875
v 0.243241 5.788009 -0.484375
v 0.281250 5.795753 -0.546875
v 0.281250 5.795753 -0.484375
v 0.252205 5.803535 -0.546875
v 0.252205 5.803535 -0.484375
v 0.281250 5.829247 -0.546875
v 0.281250 5.829247 -0.484375
v 0.252205 5.821465 -0.546875
v 0.252205 5.821465 -0.484375
v 0.264503 5.858253 -0.546875
v 0.264503 5.858253 -0.484375
v 0.243241 5.836991 -0.546875
v 0.243241 5.836991 -0.484375
v 0.235497 5.875000 -0.546875
v 0.235497 5.875000 -0.484375
v 0.227714 5.845955 -0.546875
v 0.227714 5.845955 -0.484375
v 0.202003 5.875000 -0.546875
v 0.202003 5.875000 -0.484375
v 0.209786 5.845955 -0.546875
v 0.209786 5.845955 -0.484375
v 0.172997 5.858253 -0.546875
v 0.172997 5.858253 -0.484375
v 0.194259 5.836991 -0.546875
v 0.194259 5.836991 -0.484375
v 0.156250 5.829247 -0.546875
v 0.156250 5.829247 -0.484375
v 0.185295 5.821465 -0.546875
v 0.185295 5.821465 -0.484375
v 0.156250 5.795753 -0.546875
v 0.156250 5.795753 -0.484375
v 0.185295 5.803535 -0.546875
v 0.185295 5.803535 -0.484375
v 0.172997 5.766747 -0.546875
v 0.172997 5.766747 -0.484375
v 0.194259 5.788009 -0.546875
v 0.194259 5.788009 -0.484375
v 0.202003 5.750000 -0.546875
v 0.202003 5.750000 -0.484375
v 0.209786 5.779045 -0.546875
v 0.209786 5.779045 -0.484375
v 0.171875 5.906250 -0.500000
v 0.171875 5.906250 -0.687500
v 0.171875 5.875000 -0.500000
v 0.171875 5.875000 -0.687500
v 0.125000 5.843750 -0.500000
v 0.125000 5.843750 -0.568750
v 0.156250 5.843750 -0.500000
v 0.156250 5.843750 -0.568750
v 0.265625 5.906250 -0.500000
v 0.265625 5.906250 -0.687500
v 0.312500 5.843750 -0.500000
v 0.312500 5.843750 -0.571875
v 0.265625 5.875000 -0.500000
v 0.265625 5.875000 -0.687500
v 0.281250 5.843750 -0.500000
v 0.281250 5.843750 -0.571875
v 0.656250 3.125000 0.125000
v 0.656250 3.125000 -0.125000
v 0.656250 2.125000 0.125000
v 0.656250 2.125000 -0.125000
v 0.406250 3.125000 0.125000
v 0.406250 3.125000 -0.125000
v 0.406250 2.125000 0.125000
v 0.406250 2.125000 -0.125000
v 0.656250 3.687500 0.125000
v 0.656250 3.687500 -0.125000
v 0.406250 3.687500 0.125000
v 0.406250 3.687500 -0.125000
v 0.656250 1.125000 0.125000
v 0.656250 1.125000 -0.125000
v 0.406250 1.125000 0.125000
v 0.406250 1.125000 -0.125000
v 0.656250 0.312500 0.125000
v 0.656250 0.312500 -0.125000
v 0.406250 0.312500 0.125000
v 0.406250 0.312500 -0.125000
v 0.406250 0.625000 -0.062500
v 0.406250 0.625000 -0.125000
v 0.406250 0.562500 -0.062500
v 0.406250 0.562500 -0.125000
v 0.218750 0.625000 -0.062500
v 0.218750 0.625000 -0.125000
v 0.218750 0.562500 -0.062500
v 0.218750 0.562500 -0.125000
v 0.406250 0.625000 0.125000
v 0.406250 0.625000 0.062500
v 0.406250 0.562500 0.125000
v 0.406250 0.562500 0.062500
v 0.218750 0.625000 0.125000
v 0.218750 0.625000 0.062500
v 0.218750 0.562500 0.125000
v 0.218750 0.562500 0.062500
v 0.281250 0.625000 0.062500
v 0.281250 0.625000 -0.062500
v 0.281250 0.562500 0.062500
v 0.281250 0.562500 -0.062500
v 0.406250 1.000000 0.125000
v 0.406250 1.000000 0.062500
v 0.406250 0.937500 0.125000
v 0.406250 0.937500 0.062500
v 0.218750 1.000000 0.125000
v 0.218750 1.000000 0.062500
v 0.218750 0.937500 0.125000
v 0.218750 0.937500 0.062500
v 0.281250 1.000000 0.062500
v 0.281250 1.000000 -0.062500
v 0.281250 0.937500 0.062500
v 0.281250 0.937500 -0.062500
v 0.218750 1.000000 -0.062500
v 0.218750 0.937500 -0.062500
v 0.406250 1.000000 -0.062500
v 0.406250 1.000000 -0.125000
v 0.406250 0.937500 -0.062500
v 0.406250 0.937500 -0.125000
v 0.218750 1.000000 -0.125000
v 0.218750 0.937500 -0.125000
v 0.406250 1.375000 -0.062500
v 0.406250 1.375000 -0.125000
v 0.406250 1.312500 -0.062500
v 0.406250 1.312500 -0.125000
v 0.218750 1.375000 -0.062500
v 0.218750 1.375000 -0.125000
v 0.218750 1.312500 -0.062500
v 0.218750 1.312500 -0.125000
v 0.281250 1.375000 0.062500
v 0.281250 1.375000 -0.062500
v 0.281250 1.312500 0.062500
v 0.281250 1.312500 -0.062500
v 0.218750 1.375000 0.062500
v 0.218750 1.312500 0.062500
v 0.406250 1.375000 0.125000
v 0.406250 1.375000 0.062500
v 0.406250 1.312500 0.125000
v 0.406250 1.312500 0.062500
v 0.218750 1.375000 0.125000
v 0.218750 1.312500 0.125000
v 0.062500 5.000000 -0.156250
v 0.062500 5.000000 -0.218750
v 0.062500 3.875000 -0.156250
v 0.062500 3.875000 -0.218750
v -0.062500 5.000000 -0.156250
v -0.062500 5.000000 -0.218750
v -0.062500 3.875000 -0.156250
v -0.062500 3.875000 -0.218750
v 0.062500 5.000000 0.218750
v 0.062500 5.000000 0.093750
v 0.062500 3.875000 0.218750
v 0.062500 3.875000 0.093750
v -0.062500 5.000000 0.218750
v -0.062500 5.000000 0.093750
v -0.062500 3.875000 0.218750
v -0.062500 3.875000 0.093750
v 0.062500 4.937500 0.093750
v 0.062500 4.937500 -0.156250
v -0.062500 4.937500 0.093750
v -0.062500 4.937500 -0.156250
v 0.062500 4.562500 0.093750
v 0.062500 4.562500 -0.156250
v 0.062500 4.500000 0.093750
v 0.062500 4.500000 -0.156250
v -0.062500 4.562500 0.093750
v -0.062500 4.562500 -0.156250
v -0.062500 4.500000 0.093750
v -0.062500 4.500000 -0.156250
v 0.062500 4.125000 0.093750
v 0.062500 4.125000 -0.156250
v 0.062500 3.937500 0.093750
v 0.062500 3.937500 -0.156250
v -0.062500 4.125000 0.093750
v -0.062500 4.125000 -0.156250
v -0.062500 3.937500 0.093750
v -0.062500 3.937500 -0.156250
v 0.593750 3.250000 0.187500
v 0.593750 3.250000 0.125000
v 0.593750 3.187500 0.187500
v 0.593750 3.187500 0.125000
v 0.218750 3.250000 0.187500
v 0.218750 3.250000 0.125000
v 0.218750 3.187500 0.187500
v 0.218750 3.187500 0.125000
v 0.843750 2.750000 0.187500
v 0.843750 2.750000 0.125000
v 0.843750 2.687500 0.187500
v 0.843750 2.687500 0.125000
v 0.468750 2.750000 0.187500
v 0.468750 2.750000 0.125000
v 0.468750 2.687500 0.187500
v 0.468750 2.687500 0.125000
v 0.593750 2.250000 0.187500
v 0.593750 2.250000 0.125000
v 0.593750 2.187500 0.187500
v 0.593750 2.187500 0.125000
v 0.218750 2.250000 0.187500
v 0.218750 2.250000 0.125000
v 0.218750 2.187500 0.187500
v 0.218750 2.187500 0.125000
v 0.843750 1.750000 0.187500
v 0.843750 1.750000 0.125000
v 0.843750 1.687500 0.187500
v 0.843750 1.687500 0.125000
v 0.468750 1.750000 0.187500
v 0.468750 1.750000 0.125000
v 0.468750 1.687500 0.187500
v 0.468750 1.687500 0.125000
v 0.906250 0.250000 0.375000
v 0.906250 0.250000 -0.375000
v 0.906250 -0.187500 0.375000
v 0.906250 -0.187500 -0.375000
v 0.156250 0.250000 0.375000
v 0.156250 0.250000 -0.375000
v 0.156250 -0.187500 0.375000
v 0.156250 -0.187500 -0.375000
v 0.843750 0.312500 0.250000
v 0.843750 0.312500 -0.250000
v 0.843750 0.250000 0.250000
v 0.843750 0.250000 -0.250000
v 0.218750 0.312500 0.250000
v 0.218750 0.312500 -0.250000
v 0.218750 0.250000 0.250000
v 0.218750 0.250000 -0.250000
v 0.796415 0.286612 -0.037500
v 0.796415 0.286612 -0.118750
v 0.708027 0.198223 -0.037500
v 0.708027 0.198223 -0.118750
v 0.575444 0.507583 -0.037500
v 0.575444 0.507583 -0.118750
v 0.487056 0.419194 -0.037500
v 0.487056 0.419194 -0.118750
v 0.494638 0.515165 -0.037500
v 0.494638 0.515165 -0.118750
v 0.583027 0.426777 -0.037500
v 0.583027 0.426777 -0.118750
v 0.273667 0.294194 -0.037500
v 0.273667 0.294194 -0.118750
v 0.362056 0.205806 -0.037500
v 0.362056 0.205806 -0.118750
v 0.494638 0.515165 0.118750
v 0.494638 0.515165 0.037500
v 0.583027 0.426777 0.118750
v 0.583027 0.426777 0.037500
v 0.273667 0.294194 0.118750
v 0.273667 0.294194 0.037500
v 0.362056 0.205806 0.118750
v 0.362056 0.205806 0.037500
v 0.796415 0.286612 0.118750
v 0.796415 0.286612 0.037500
v 0.708027 0.198223 0.118750
v 0.708027 0.198223 0.037500
v 0.575444 0.507583 0.118750
v 0.575444 0.507583 0.037500
v 0.487056 0.419194 0.118750
v 0.487056 0.419194 0.037500
v 0.843750 1.312500 0.500000
v 0.843750 1.312500 0.125000
v 0.843750 0.500000 0.500000
v 0.843750 0.500000 0.125000
v 0.218750 1.312500 0.500000
v 0.218750 0.500000 0.500000
v 0.218750 0.500000 0.125000
v 0.562500 3.640165 0.118750
v 0.562500 3.640165 0.068750
v 0.429917 3.507582 0.118750
v 0.429917 3.507582 0.068750
v 0.341529 3.861136 0.118750
v 0.341529 3.861136 0.068750
v 0.208947 3.728553 0.118750
v 0.208947 3.728553 0.068750
v 0.562500 3.640165 -0.068750
v 0.562500 3.640165 -0.118750
v 0.429917 3.507582 -0.068750
v 0.429917 3.507582 -0.118750
v 0.341529 3.861136 -0.068750
v 0.341529 3.861136 -0.118750
v 0.208947 3.728553 -0.068750
v 0.208947 3.728553 -0.118750
v 0.375000 3.875000 0.250000
v 0.375000 3.875000 -0.250000
v 0.375000 3.812500 0.250000
v 0.375000 3.812500 -0.250000
v -0.187500 3.875000 0.250000
v -0.187500 3.875000 -0.250000
v -0.187500 3.812500 0.250000
v -0.187500 3.812500 -0.250000
v 0.656250 3.812500 0.187500
v 0.656250 3.812500 -0.187500
v 0.656250 3.687500 0.187500
v 0.656250 3.687500 -0.187500
v -0.187500 3.812500 0.187500
v -0.187500 3.812500 -0.187500
v -0.187500 3.687500 0.187500
v -0.187500 3.687500 -0.187500
v 0.656250 3.875000 0.187500
v 0.656250 3.875000 -0.187500
v 0.375000 3.875000 0.187500
v 0.375000 3.875000 -0.187500
v 0.375000 3.812500 0.187500
v 0.375000 3.812500 -0.187500
v 0.125000 3.687500 0.062500
v 0.125000 3.687500 -0.062500
v 0.125000 3.437500 0.062500
v 0.125000 3.437500 -0.062500
v 0.062500 3.687500 0.062500
v 0.062500 3.687500 -0.062500
v 0.062500 3.437500 0.062500
v 0.062500 3.437500 -0.062500
v -0.062500 3.687500 0.031250
v -0.062500 3.687500 -0.031250
v -0.109375 3.687500 0.031250
v -0.109375 3.687500 -0.031250
v 1.100000 3.937500 0.275000
v 1.100000 3.937500 -0.693750
v 1.100000 3.875000 0.275000
v 1.100000 3.875000 -0.693750
v 0.381250 3.937500 0.275000
v 0.381250 3.937500 -0.693750
v 0.381250 3.875000 0.275000
v 0.381250 3.875000 -0.693750
v 0.412500 4.437500 -0.256250
v 0.412500 4.437500 -0.725000
v 0.412500 4.406250 -0.256250
v 0.412500 4.406250 -0.725000
v 0.381250 4.437500 -0.256250
v 0.381250 4.437500 -0.725000
v 0.381250 4.406250 -0.256250
v 0.381250 4.406250 -0.725000
v 0.412500 4.875000 -0.256250
v 0.412500 4.875000 -0.725000
v 0.412500 4.843750 -0.256250
v 0.412500 4.843750 -0.725000
v 0.381250 4.875000 -0.256250
v 0.381250 4.875000 -0.725000
v 0.381250 4.843750 -0.256250
v 0.381250 4.843750 -0.725000
v 1.100000 3.937500 -0.756250
v 1.100000 3.875000 -0.756250
v 0.381250 3.937500 -0.756250
v 0.381250 3.875000 -0.756250
v 1.068750 4.437500 -0.725000
v 1.068750 4.437500 -0.756250
v 1.068750 4.406250 -0.725000
v 1.068750 4.406250 -0.756250
v 0.412500 4.437500 -0.756250
v 0.412500 4.406250 -0.756250
v 1.068750 4.875000 -0.725000
v 1.068750 4.875000 -0.756250
v 1.068750 4.843750 -0.725000
v 1.068750 4.843750 -0.756250
v 0.412500 4.875000 -0.756250
v 0.412500 4.843750 -0.756250
v 1.100000 4.875000 -0.725000
v 1.100000 4.875000 -0.756250
v 1.100000 3.937500 -0.725000
v 1.068750 3.937500 -0.725000
v 1.068750 3.937500 -0.756250
v 0.412500 3.937500 -0.725000
v 0.412500 3.937500 -0.756250
v 0.381250 4.875000 -0.756250
v 0.381250 3.937500 -0.725000
v 0.412500 4.875000 -0.225000
v 0.412500 3.937500 -0.225000
v 0.412500 3.937500 -0.256250
v 0.381250 4.875000 -0.225000
v 0.381250 3.937500 -0.225000
v 0.381250 3.937500 -0.256250
v 1.100000 4.875000 0.275000
v 1.100000 4.875000 0.243750
v 1.100000 3.937500 0.243750
v 1.068750 4.875000 0.275000
v 1.068750 4.875000 0.243750
v 1.068750 3.937500 0.275000
v 1.068750 3.937500 0.243750
v 1.100000 4.843750 0.243750
v 1.100000 4.843750 -0.725000
v 1.068750 4.843750 0.243750
v 1.100000 4.437500 0.243750
v 1.100000 4.437500 -0.725000
v 1.100000 4.406250 0.243750
v 1.100000 4.406250 -0.725000
v 1.068750 4.437500 0.243750
v 1.068750 4.406250 0.243750
v 0.850000 3.875000 0.243750
v 0.850000 3.875000 -0.693750
v 0.850000 3.812500 0.243750
v 0.850000 3.812500 -0.693750
v 0.662500 3.875000 0.243750
v 0.662500 3.875000 -0.693750
v 0.662500 3.812500 0.243750
v 0.662500 3.812500 -0.693750
v 0.725000 3.812500 0.243750
v 0.725000 3.812500 -0.693750
v 0.725000 3.687500 0.243750
v 0.725000 3.687500 -0.693750
v 0.662500 3.687500 0.243750
v 0.662500 3.687500 -0.693750
v 0.250000 5.875000 0.671875
v 0.250000 5.875000 0.640625
v 0.250000 5.000000 0.671875
v 0.250000 5.000000 0.640625
v 0.218750 5.875000 0.671875
v 0.218750 5.875000 0.640625
v 0.218750 5.000000 0.671875
v 0.218750 5.000000 0.640625
v -0.218750 5.875000 0.671875
v -0.218750 5.875000 0.640625
v -0.218750 5.000000 0.671875
v -0.218750 5.000000 0.640625
v -0.250000 5.875000 0.671875
v -0.250000 5.875000 0.640625
v -0.250000 5.000000 0.671875
v -0.250000 5.000000 0.640625
v 0.368750 5.884903 0.300697
v 0.368750 5.879477 0.269922
v 0.368750 5.084747 0.441786
v 0.368750 5.079321 0.411011
v 0.337500 5.884903 0.300697
v 0.337500 5.879477 0.269922
v 0.337500 5.084747 0.441786
v 0.337500 5.079321 0.411011
v -0.350000 5.884903 0.300697
v -0.350000 5.879477 0.269922
v -0.350000 5.084747 0.441786
v -0.350000 5.079321 0.411011
v -0.381250 5.884903 0.300697
v -0.381250 5.879477 0.269922
v -0.381250 5.084747 0.441786
v -0.381250 5.079321 0.411011
v 0.312500 5.906250 0.671875
v 0.312500 5.906250 0.640625
v 0.312500 5.875000 0.671875
v 0.312500 5.875000 0.640625
v -0.312500 5.906250 0.671875
v -0.312500 5.906250 0.640625
v -0.312500 5.875000 0.671875
v -0.312500 5.875000 0.640625
v 0.375000 5.818750 -0.343750
v 0.375000 5.818750 -0.437500
v 0.375000 5.000000 -0.343750
v 0.375000 5.000000 -0.437500
v 0.312500 5.818750 -0.343750
v 0.312500 5.818750 -0.437500
v 0.312500 5.000000 -0.343750
v 0.312500 5.000000 -0.437500
v -0.312500 5.818750 -0.343750
v -0.312500 5.818750 -0.437500
v -0.312500 5.000000 -0.343750
v -0.312500 5.000000 -0.437500
v -0.375000 5.818750 -0.343750
v -0.375000 5.818750 -0.437500
v -0.375000 5.000000 -0.343750
v -0.375000 5.000000 -0.437500
v -0.343750 5.906250 0.562500
v -0.343750 5.906250 -0.000000
v -0.343750 5.875000 0.562500
v -0.343750 5.875000 -0.000000
v -0.375000 5.906250 0.562500
v -0.375000 5.906250 -0.000000
v -0.375000 5.875000 0.562500
v -0.375000 5.875000 -0.000000
v 0.250000 5.000000 0.687500
v 0.250000 5.000000 0.218750
v 0.250000 4.937500 0.687500
v 0.250000 4.937500 0.218750
v -0.250000 5.000000 0.687500
v -0.250000 5.000000 0.218750
v -0.250000 4.937500 0.687500
v -0.250000 4.937500 0.218750
v -0.312500 5.906250 0.656250
v -0.312500 5.906250 0.562500
v -0.312500 5.875000 0.656250
v -0.312500 5.875000 0.562500
v -0.375000 5.906250 0.656250
v -0.375000 5.875000 0.656250
v 0.375000 5.906250 0.562500
v 0.375000 5.906250 -0.000000
v 0.375000 5.875000 0.562500
v 0.375000 5.875000 -0.000000
v 0.343750 5.906250 0.562500
v 0.343750 5.906250 -0.000000
v 0.343750 5.875000 0.562500
v 0.343750 5.875000 -0.000000
v 0.375000 5.906250 0.656250
v 0.375000 5.875000 0.656250
v 0.312500 5.906250 0.656250
v 0.312500 5.906250 0.562500
v 0.312500 5.875000 0.656250
v 0.312500 5.875000 0.562500
v 0.375000 4.937500 -0.343750
v 0.375000 4.937500 -0.437500
v -0.375000 4.937500 -0.343750
v -0.375000 4.937500 -0.437500
v 0.125000 4.718750 -0.343750
v 0.125000 4.718750 -0.437500
v 0.125000 4.687500 -0.343750
v 0.125000 4.687500 -0.437500
v -0.125000 4.718750 -0.343750
v -0.125000 4.718750 -0.437500
v -0.125000 4.687500 -0.343750
v -0.125000 4.687500 -0.437500
v 0.062500 4.718750 -0.218750
v 0.062500 4.718750 -0.343750
v 0.062500 4.687500 -0.218750
v 0.062500 4.687500 -0.343750
v -0.062500 4.718750 -0.218750
v -0.062500 4.718750 -0.343750
v -0.062500 4.687500 -0.218750
v -0.062500 4.687500 -0.343750
v -0.102903 4.709597 -0.337500
v -0.102903 4.709597 -0.431250
v -0.125000 4.687500 -0.337500
v -0.125000 4.687500 -0.431250
v -0.352903 4.959597 -0.337500
v -0.352903 4.959597 -0.431250
v -0.375000 4.937500 -0.337500
v -0.375000 4.937500 -0.431250
v 0.352903 4.959597 -0.337500
v 0.352903 4.959597 -0.431250
v 0.375000 4.937500 -0.337500
v 0.375000 4.937500 -0.431250
v 0.102903 4.709597 -0.337500
v 0.102903 4.709597 -0.431250
v 0.125000 4.687500 -0.337500
v 0.125000 4.687500 -0.431250
v 0.068750 5.062500 -0.187500
v 0.068750 5.062500 -0.312500
v 0.068750 4.937500 -0.187500
v 0.068750 4.937500 -0.312500
v -0.068750 5.062500 -0.187500
v -0.068750 5.062500 -0.312500
v -0.068750 4.937500 -0.187500
v -0.068750 4.937500 -0.312500
v -0.343750 5.812500 -0.406250
v -0.343750 5.781250 -0.406250
v -0.406250 5.812500 -0.406250
v -0.406250 5.781250 -0.406250
v -0.343750 5.156250 -0.406250
v -0.343750 5.125000 -0.406250
v -0.406250 5.156250 -0.406250
v -0.406250 5.125000 -0.406250
v 0.406250 5.812500 -0.406250
v 0.406250 5.781250 -0.406250
v 0.343750 5.812500 -0.406250
v 0.343750 5.781250 -0.406250
v 0.406250 5.156250 -0.406250
v 0.406250 5.125000 -0.406250
v 0.343750 5.156250 -0.406250
v 0.343750 5.125000 -0.406250
v 0.812500 2.734375 -0.118750
v 0.812500 2.734375 -0.181250
v 0.812500 1.921875 -0.118750
v 0.812500 1.921875 -0.181250
v 0.250000 2.734375 -0.118750
v 0.250000 2.734375 -0.181250
v 0.250000 1.921875 -0.118750
v 0.250000 1.921875 -0.181250
v 0.593750 3.687500 -0.125000
v 0.593750 3.687500 -0.156250
v 0.593750 2.687500 -0.125000
v 0.593750 2.687500 -0.156250
v 0.468750 3.687500 -0.125000
v 0.468750 3.687500 -0.156250
v 0.468750 2.687500 -0.125000
v 0.468750 2.687500 -0.156250
v 0.375000 6.000000 -0.437500
v 0.375000 6.000000 -0.500000
v 0.375000 5.000000 -0.500000
v -0.375000 6.000000 -0.437500
v -0.375000 6.000000 -0.500000
v -0.375000 5.000000 -0.500000
v 0.312500 6.000000 -0.312500
v 0.312500 6.000000 -0.437500
v 0.312500 5.000000 -0.312500
v -0.312500 6.000000 -0.312500
v -0.312500 6.000000 -0.437500
v -0.312500 5.000000 -0.312500
v 0.027459 5.448889 -0.500000
v 0.027459 5.448889 -0.562500
v -0.003791 5.448889 -0.500000
v -0.003791 5.448889 -0.562500
v 0.315625 5.448889 -0.500000
v 0.315625 5.448889 -0.562500
v 0.284375 5.448889 -0.500000
v 0.284375 5.448889 -0.562500
v -0.285041 5.448889 -0.500000
v -0.285041 5.448889 -0.562500
v -0.316291 5.448889 -0.500000
v -0.316291 5.448889 -0.562500
v 0.003125 5.448889 -0.500000
v 0.003125 5.448889 -0.562500
v -0.028125 5.448889 -0.500000
v -0.028125 5.448889 -0.562500
v 0.156629 5.843561 -0.490625
v 0.156629 5.843561 -0.568750
v 0.156629 5.781061 -0.490625
v 0.156629 5.781061 -0.568750
v 0.125379 5.843561 -0.490625
v 0.125379 5.843561 -0.568750
v 0.125379 5.781061 -0.490625
v 0.125379 5.781061 -0.568750
v 0.312879 5.843561 -0.490625
v 0.312879 5.843561 -0.568750
v 0.312879 5.781061 -0.490625
v 0.312879 5.781061 -0.568750
v 0.281629 5.843561 -0.490625
v 0.281629 5.843561 -0.568750
v 0.281629 5.781061 -0.490625
v 0.281629 5.781061 -0.568750
vn -1.0000 -0.0000 -0.0000
vn 1.0000 -0.0000 -0.0000
vn -0.0000 1.0000 -0.0000
vn -0.0000 -0.0000 1.0000
vn -0.0000 -0.4472 -0.8944
vn -0.0000 -0.0000 -1.0000
vn -0.0000 -0.4472 0.8944
vn -0.3162 0.9487 -0.0000
vn 0.3162 -0.9487 -0.0000
vn -0.7071 -0.7071 -0.0000
vn 0.7071 0.7071 -0.0000
vn -0.8944 0.4472 -0.0000
vn 0.8944 -0.4472 -0.0000
vn -0.0000 -1.0000 -0.0000
vn -0.8944 -0.4472 -0.0000
vn 0.8944 0.4472 -0.0000
vn 0.7184 -0.6549 0.2346
vn -0.7184 0.6549 -0.2346
vn -0.0000 0.9414 -0.3372
vn -0.0000 -0.9414 0.3372
vn -0.0000 0.1655 0.9862
vn -0.0000 -0.1655 -0.9862
vn 0.7184 0.6549 -0.2346
vn -0.7184 -0.6549 0.2346
vn -0.0000 -0.7071 0.7071
vn 0.4472 0.6324 0.6324
vn -0.4472 0.6324 0.6324
vn 0.9267 -0.0000 -0.3757
vn -0.9267 -0.0000 0.3757
vn -0.0000 0.9910 -0.1339
vn -0.0000 -0.9910 0.1339
vn 0.9267 -0.0000 0.3757
vn -0.9267 -0.0000 -0.3757
vn -0.8309 -0.5564 -0.0000
vn 0.8387 0.5446 -0.0000
vn 0.8309 0.5564 -0.0000
vn -0.8387 -0.5446 -0.0000
vn -0.8480 0.5300 -0.0000
vn 0.8376 -0.5463 -0.0000
vn 0.8480 -0.5300 -0.0000
vn -0.8376 0.5463 -0.0000
vn 0.5000 0.8660 -0.0000
vn -0.5000 -0.8660 -0.0000
vn 0.8660 0.5000 -0.0000
vn -0.8660 -0.5000 -0.0000
vn 0.8660 -0.5000 -0.0000
vn -0.8660 0.5000 -0.0000
vn 0.5000 -0.8660 -0.0000
vn -0.5000 0.8660 -0.0000
vn 0.7486 0.6630 -0.0000
vn -0.7657 -0.6432 -0.0000
vn -0.0001 -0.9600 -0.2799
vn -0.0001 -0.9600 -0.2800
vn 0.7625 -0.6470 -0.0000
vn -0.7463 0.6656 -0.0000
vn 0.0001 -0.9790 -0.2039
vn 0.0001 -0.9790 -0.2040
vn -0.8000 0.6000 -0.0000
vn -0.9302 0.0001 -0.3671
vn -0.9301 0.0001 -0.3672
vn 0.8000 0.6000 -0.0000
vn 0.9267 0.0001 -0.3757
vn 0.7071 -0.7071 -0.0000
vn -0.7071 0.7071 -0.0000
vn -0.0000 0.9848 -0.1736
vn -0.0000 -0.9848 0.1736
vn -0.0000 0.1736 0.9848
vn -0.0000 -0.1736 -0.9848
vt 0.109375 1.000000
vt 0.125000 1.000000
vt 0.125000 0.968750
vt 0.140625 1.000000
vt 0.125000 0.984375
vt 0.140625 0.984375
vt 0.140625 0.968750
vt 0.109375 0.968750
vt 0.304688 0.449219
vt 0.320312 0.449219
vt 0.320312 0.437500
vt 0.304688 0.437500
vt 0.324219 0.445312
vt 0.355469 0.445312
vt 0.355469 0.429688
vt 0.324219 0.429688
vt 0.324219 0.449219
vt 0.355469 0.449219
vt 0.355469 0.437500
vt 0.324219 0.437500
vt 0.296875 0.449219
vt 0.328125 0.449219
vt 0.328125 0.437500
vt 0.296875 0.437500
vt 0.296875 0.445312
vt 0.296875 0.429688
vt 0.000000 1.000000
vt 0.031250 1.000000
vt 0.031250 0.968750
vt 0.000000 0.968750
vt 0.015625 1.000000
vt 0.015625 0.968750
vt 0.000000 0.984375
vt 0.015625 0.984375
vt 0.062500 0.812500
vt 0.062500 1.000000
vt 0.000000 0.812500
vt 1.000000 0.000000
vt 1.000000 0.062500
vt 0.937500 0.062500
vt 0.937500 0.000000
vt 0.125000 0.937500
vt 0.093750 0.937500
vt 0.093750 0.906250
vt 0.031250 0.937500
vt 0.000000 0.937500
vt 0.031250 0.906250
vt 0.062500 0.968750
vt 0.125000 0.906250
vt 0.062500 0.937500
vt 0.062500 0.906250
vt 0.000000 0.906250
vt 0.156250 1.000000
vt 0.156250 0.968750
vt 0.187500 0.968750
vt 0.125000 0.812500
vt 0.125000 0.843750
vt 0.062500 0.843750
vt 0.500000 0.937500
vt 0.500000 1.000000
vt 0.468750 0.937500
vt 0.468750 1.000000
vt 0.125000 0.531250
vt 0.062500 0.531250
vt 0.125000 0.500000
vt 0.062500 0.500000
vt 0.671875 0.968750
vt 0.673437 0.968750
vt 0.673437 0.882812
vt 0.671875 0.882812
vt 0.670313 0.968750
vt 0.670313 0.882812
vt 0.671875 0.954687
vt 0.687500 0.954687
vt 0.687500 0.953125
vt 0.671875 0.953125
vt 0.687500 0.951563
vt 0.671875 0.951563
vt 0.687500 0.968750
vt 0.687500 0.882812
vt 0.656250 0.968750
vt 0.656250 0.882812
vt 0.656250 0.859375
vt 0.657031 0.859375
vt 0.657031 0.800781
vt 0.656250 0.800781
vt 0.671094 0.859375
vt 0.671875 0.859375
vt 0.671875 0.800781
vt 0.671094 0.800781
vt 0.658203 0.840014
vt 0.687500 0.840014
vt 0.687500 0.838995
vt 0.658203 0.838995
vt 0.658203 0.859375
vt 0.687500 0.859375
vt 0.687500 0.800781
vt 0.658203 0.800781
vt 0.685547 0.859375
vt 0.685547 0.800781
vt 0.324762 0.675237
vt 0.375000 0.762263
vt 0.187500 0.812500
vt 0.375000 0.862737
vt 0.324762 0.949763
vt 0.237738 1.000000
vt 0.137262 1.000000
vt 0.050237 0.949763
vt 0.000000 0.862737
vt 0.000000 0.762263
vt 0.050237 0.675237
vt 0.137262 0.625000
vt 0.237738 0.625000
vt 0.296875 0.343750
vt 0.310481 0.343750
vt 0.310481 0.359375
vt 0.296875 0.359375
vt 0.306775 0.359375
vt 0.306775 0.343750
vt 0.296875 0.357521
vt 0.296875 0.347621
vt 0.303793 0.345768
vt 0.303792 0.359375
vt 0.296875 0.352457
vt 0.310482 0.352457
vt 0.308628 0.359375
vt 0.298728 0.359375
vt 0.296875 0.357522
vt 0.296875 0.347622
vt 0.303792 0.345768
vt 0.303793 0.359375
vt 0.308629 0.359375
vt 0.298729 0.359375
vt 0.296875 0.357522
vt 0.296875 0.347622
vt 0.303792 0.345769
vt 0.303792 0.359375
vt 0.298728 0.359375
vt 0.296875 0.352457
vt 0.310482 0.352458
vt 0.303793 0.345768
vt 0.303793 0.359375
vt 0.296875 0.357521
vt 0.296875 0.347621
vt 0.308629 0.359375
vt 0.298729 0.359375
vt 0.296875 0.352458
vt 0.310482 0.352457
vt 0.296875 0.357522
vt 0.308628 0.359375
vt 0.298728 0.359375
vt 0.296875 0.352458
vt 0.310481 0.352458
vt 0.298728 0.352458
vt 0.308628 0.352458
vt 0.303793 0.347622
vt 0.303793 0.357522
vt 0.296876 0.345768
vt 0.310482 0.359375
vt 0.298729 0.352457
vt 0.308629 0.352458
vt 0.303793 0.347621
vt 0.303793 0.357521
vt 0.296876 0.359375
vt 0.296875 0.345768
vt 0.298728 0.352458
vt 0.308628 0.352457
vt 0.303792 0.347622
vt 0.303792 0.357522
vt 0.296875 0.345769
vt 0.298729 0.352457
vt 0.308629 0.352457
vt 0.296875 0.359374
vt 0.303793 0.347622
vt 0.303792 0.357522
vt 0.298728 0.352457
vt 0.308628 0.352457
vt 0.310482 0.359374
vt 0.303792 0.347621
vt 0.303793 0.357521
vt 0.046875 1.000000
vt 0.046875 0.984375
vt 0.375000 0.421875
vt 0.421875 0.421875
vt 0.421875 0.468750
vt 0.375000 0.468750
vt 0.343750 0.343750
vt 0.343750 0.390625
vt 0.296875 0.390625
vt 0.375000 0.359375
vt 0.375000 0.375000
vt 0.328125 0.375000
vt 0.328125 0.359375
vt 0.390625 0.453125
vt 0.343750 0.453125
vt 0.343750 0.437500
vt 0.390625 0.437500
vt 0.390625 0.359375
vt 0.343750 0.359375
vt 0.390625 0.343750
vt 0.468750 0.078125
vt 0.421875 0.078125
vt 0.421875 0.093750
vt 0.468750 0.093750
vt 0.312500 0.406250
vt 0.359375 0.406250
vt 0.359375 0.453125
vt 0.312500 0.453125
vt 0.390625 0.390625
vt 0.375000 0.328125
vt 0.375000 0.343750
vt 0.328125 0.343750
vt 0.328125 0.328125
vt 0.312500 0.437500
vt 0.359375 0.437500
vt 0.210781 0.797031
vt 0.125000 0.882812
vt 0.242188 0.851406
vt 0.242188 0.914219
vt 0.210781 0.968594
vt 0.156406 1.000000
vt 0.093594 1.000000
vt 0.039219 0.968594
vt 0.007812 0.914219
vt 0.007812 0.851406
vt 0.039219 0.797031
vt 0.093594 0.765625
vt 0.156406 0.765625
vt 0.281250 0.343750
vt 0.289622 0.343750
vt 0.289622 0.359375
vt 0.281250 0.359375
vt 0.285731 0.359375
vt 0.285731 0.343750
vt 0.281250 0.357427
vt 0.281250 0.352945
vt 0.288514 0.351001
vt 0.288510 0.359375
vt 0.281250 0.352112
vt 0.289624 0.352112
vt 0.287677 0.359375
vt 0.283195 0.359373
vt 0.281250 0.357431
vt 0.281250 0.352948
vt 0.288510 0.351001
vt 0.288514 0.359375
vt 0.287680 0.359373
vt 0.283197 0.359375
vt 0.281250 0.357430
vt 0.281250 0.352948
vt 0.288511 0.351003
vt 0.288511 0.359375
vt 0.287677 0.359375
vt 0.283194 0.359375
vt 0.281250 0.352111
vt 0.289624 0.352115
vt 0.288513 0.351001
vt 0.288513 0.359375
vt 0.281250 0.357428
vt 0.281252 0.352945
vt 0.287680 0.359375
vt 0.283198 0.359375
vt 0.281250 0.352115
vt 0.289624 0.352111
vt 0.281252 0.357430
vt 0.281250 0.352948
vt 0.287677 0.359375
vt 0.283195 0.359375
vt 0.281250 0.352114
vt 0.289622 0.352114
vt 0.283195 0.352114
vt 0.287677 0.352114
vt 0.288514 0.352948
vt 0.288514 0.357431
vt 0.281254 0.351001
vt 0.289624 0.359375
vt 0.283197 0.352112
vt 0.287680 0.352114
vt 0.288514 0.352945
vt 0.288514 0.357427
vt 0.281254 0.359375
vt 0.281250 0.351001
vt 0.283195 0.352114
vt 0.287677 0.352112
vt 0.288511 0.352948
vt 0.288511 0.357430
vt 0.281250 0.351003
vt 0.283198 0.352111
vt 0.287680 0.352111
vt 0.281250 0.359371
vt 0.288513 0.352948
vt 0.288511 0.357430
vt 0.283194 0.352111
vt 0.287677 0.352111
vt 0.289624 0.359371
vt 0.288511 0.352945
vt 0.288513 0.357428
vt 0.375000 0.406250
vt 0.312500 0.343750
vt 0.390625 0.421875
vt 0.328125 0.421875
vt 0.390625 0.406250
vt 0.328125 0.406250
vt 0.359375 0.343750
vt 0.296875 0.406250
vt 0.375000 0.390625
vt 0.312500 0.390625
vt 0.312500 0.328125
vt 0.312500 0.421875
vt 0.312500 0.359375
vt 0.015625 0.750000
vt 0.078125 1.000000
vt 0.078125 0.750000
vt 0.000000 0.921875
vt 0.062500 0.984375
vt 0.062500 0.921875
vt 0.000000 0.750000
vt 0.062500 0.750000
vt 0.015625 0.859375
vt 0.078125 0.859375
vt 0.000000 0.859375
vt 0.062500 0.859375
vt 0.015625 0.796875
vt 0.078125 0.796875
vt 0.000000 0.796875
vt 0.062500 0.796875
vt 0.031250 0.984375
vt 0.046875 0.968750
vt 0.046875 0.953125
vt 0.062500 0.953125
vt 0.031250 0.750000
vt 0.046875 0.750000
vt 0.171875 0.937500
vt 0.171875 0.953125
vt 0.109375 0.953125
vt 0.109375 0.937500
vt 0.028125 0.937500
vt 0.028125 1.000000
vt 0.028125 0.984375
vt 0.156250 0.906250
vt 0.156250 0.921875
vt 0.093750 0.921875
vt 0.046875 0.937500
vt 0.140625 0.906250
vt 0.140625 0.921875
vt 0.156250 0.875000
vt 0.093750 0.875000
vt 0.734375 0.718750
vt 0.734375 0.734375
vt 0.750000 0.734375
vt 0.750000 0.718750
vt 0.500000 0.718750
vt 0.500000 0.734375
vt 0.609375 0.734375
vt 0.609375 0.718750
vt 0.000000 0.578125
vt 0.000000 0.687500
vt 0.187500 0.687500
vt 0.187500 0.578125
vt 0.000000 0.500000
vt 0.187500 0.500000
vt 0.156250 0.984375
vt 0.156250 0.859375
vt 0.007812 0.968750
vt 0.007812 1.000000
vt 0.028125 0.968750
vt 0.020312 1.000000
vt 0.020312 0.968750
vt 0.000000 0.971875
vt 0.000000 0.992188
vt 0.078125 0.992188
vt 0.078125 0.971875
vt 0.000000 0.979688
vt 0.078125 0.979688
vt 0.078125 0.968750
vt 0.437500 0.843750
vt 0.437500 1.000000
vt 0.515625 1.000000
vt 0.515625 0.843750
vt 0.265625 0.750000
vt 0.265625 0.828125
vt 0.390625 0.828125
vt 0.390625 0.750000
vt 0.265625 0.843750
vt 0.265625 1.000000
vt 0.390625 1.000000
vt 0.390625 0.843750
vt 0.078125 0.953125
vt 0.090625 1.000000
vt 0.090625 0.953125
vt 0.000000 0.953125
vt 0.012500 1.000000
vt 0.012500 0.953125
vt 0.000000 0.909375
vt 0.078125 0.921875
vt 0.078125 0.909375
vt 0.000000 0.987500
vt 0.078125 0.987500
vt 0.078125 0.875000
vt 0.218750 1.000000
vt 0.218750 0.875000
vt 0.078125 0.984375
vt 0.218750 0.984375
vt 0.000000 0.000000
vt 0.000000 0.093750
vt 0.210938 0.093750
vt 0.210938 0.000000
vt 0.015625 0.906250
vt 0.226562 1.000000
vt 0.226562 0.906250
vt 0.218750 0.968750
vt 0.210938 1.000000
vt 0.210938 0.968750
vt 0.015625 0.937500
vt 0.015625 0.953125
vt 0.007812 0.937500
vt 0.007812 0.953125
vt 0.101562 0.953125
vt 0.101562 0.937500
vt 0.304688 0.423438
vt 0.304688 0.453125
vt 0.320312 0.453125
vt 0.320312 0.423438
vt 0.316406 0.429688
vt 0.316406 0.445312
vt 0.328125 0.445312
vt 0.328125 0.429688
vt 0.316406 0.423438
vt 0.316406 0.453125
vt 0.328125 0.453125
vt 0.328125 0.423438
vt 0.296875 0.423438
vt 0.296875 0.453125
vt 0.308594 0.453125
vt 0.308594 0.423438
vt 0.347656 0.445312
vt 0.347656 0.429688
vt 0.347656 0.449219
vt 0.347656 0.437500
vt 0.000000 0.875000
vt 0.968750 0.937500
vt 0.968750 0.875000
vt 0.031250 0.875000
vt 1.000000 0.937500
vt 1.000000 0.875000
vt 0.281250 0.031250
vt 0.281250 1.000000
vt 1.000000 1.000000
vt 1.000000 0.031250
vt 0.281250 0.000000
vt 0.281250 0.968750
vt 1.000000 0.968750
vt 0.281250 0.875000
vt 0.281250 0.937500
vt 0.718750 0.937500
vt 0.718750 0.875000
vt 0.468750 0.906250
vt 0.531250 0.906250
vt 0.531250 0.937500
vt 1.000000 0.906250
vt 0.937500 0.531250
vt 0.937500 1.000000
vt 0.968750 1.000000
vt 0.968750 0.531250
vt 0.937500 0.468750
vt 0.968750 0.468750
vt 0.968750 0.000000
vt 0.937500 0.906250
vt 0.937500 0.937500
vt 0.968750 0.906250
vt 0.937500 0.875000
vt 0.062500 0.875000
vt 0.281250 0.062500
vt 0.312500 0.031250
vt 0.312500 0.062500
vt 0.968750 0.062500
vt 0.968750 0.031250
vt 0.312500 0.937500
vt 0.312500 0.968750
vt 0.968750 0.968750
vt 0.312500 0.906250
vt 0.687500 0.937500
vt 0.687500 0.906250
vt 0.031250 0.000000
vt 0.062500 0.000000
vt 0.312500 0.000000
vt 0.687500 0.000000
vt 0.718750 0.000000
vt 0.250000 0.031250
vt 0.250000 0.062500
vt 0.250000 0.937500
vt 0.250000 0.968750
vt 0.250000 0.000000
vt 0.750000 0.937500
vt 0.750000 0.000000
vt 0.312500 1.000000
vt 0.281250 0.906250
vt 0.718750 0.906250
vt 0.218750 0.937500
vt 0.218750 0.000000
vt 0.031250 0.062500
vt 0.218750 0.062500
vt 0.406250 0.875000
vt 0.406250 0.937500
vt 0.593750 0.937500
vt 0.593750 0.875000
vt 1.000000 0.812500
vt 0.937500 0.812500
vt 0.156250 0.000000
vt 0.156250 0.937500
vt 0.156250 0.062500
vt 0.156250 0.812500
vt 0.218750 0.812500
vt 0.406250 0.812500
vt 0.468750 0.812500
vt 0.515625 0.515625
vt 0.515625 0.718750
vt 0.500000 0.515625
vt 0.515625 0.734375
vt 0.703125 0.718750
vt 0.703125 0.734375
vt 0.546875 0.734375
vt 0.546875 0.718750
vt 0.125000 0.171875
vt 0.125000 0.990625
vt 0.031250 0.990625
vt 0.031250 0.171875
vt 0.093750 0.171875
vt 0.093750 0.990625
vt 0.000000 0.990625
vt 0.000000 0.171875
vt 0.125000 0.875000
vt 0.062500 0.990625
vt 0.062500 0.171875
vt 0.125000 0.181250
vt 0.031250 0.181250
vt 0.093750 0.181250
vt 0.093750 1.000000
vt 0.000000 0.181250
vt 0.062500 0.181250
vt 1.000000 0.625000
vt 1.000000 0.687500
vt 0.468750 0.687500
vt 0.468750 0.625000
vt 0.843750 0.562500
vt 0.843750 0.625000
vt 0.312500 0.625000
vt 0.312500 0.562500
vt 0.656250 0.218750
vt 0.656250 0.750000
vt 0.156250 0.750000
vt 0.156250 0.218750
vt 0.500000 0.375000
vt 0.500000 0.906250
vt 0.000000 0.375000
vt 0.718750 0.750000
vt 0.718750 0.812500
vt 0.218750 0.750000
vt 0.843750 0.500000
vt 0.343750 0.562500
vt 0.343750 0.500000
vt 0.937500 0.968750
vt 0.843750 0.968750
vt 0.843750 0.937500
vt 0.125000 0.062500
vt 0.125000 0.156250
vt 0.062500 0.156250
vt 0.062500 0.062500
vt 0.562500 0.937500
vt 0.562500 0.968750
vt 0.437500 0.968750
vt 0.437500 0.937500
vt 0.125000 0.000000
vt 0.125000 0.562500
vt 0.093750 0.562500
vt 0.093750 0.000000
vt 0.125000 0.437500
vt 0.093750 0.437500
vt 0.093750 0.968750
vt 0.750000 0.906250
vt 0.750000 1.000000
vt 0.750000 0.875000
vt 0.750000 0.968750
vt 0.250000 1.000000
vt 0.250000 0.906250
vt 0.500000 0.875000
vt 0.500000 0.968750
vt 0.250000 0.875000
vt 0.312500 0.843750
vt 0.603553 0.906250
vt 0.603553 1.000000
vt 0.603553 0.875000
vt 0.603553 0.968750
vt 0.603553 0.937500
vt 0.137500 0.875000
vt 0.137500 1.000000
vt 0.150000 0.875000
vt 0.150000 1.000000
vt 0.012500 0.875000
vt 0.187500 1.000000
vt 0.125000 0.343750
vt 0.093750 0.343750
vt 0.031250 0.343750
vt 0.000000 0.343750
vt 0.062500 0.343750
vt 0.531250 0.796875
vt 0.531250 1.000000
vt 0.546875 1.000000
vt 0.546875 0.796875
vt 0.531250 0.984375
vt 0.671875 1.000000
vt 0.671875 0.984375
vt 0.140625 0.796875
vt 0.671875 0.796875
vt 0.468750 0.468750
vt 0.468750 0.718750
vt 0.453125 0.718750
vt 0.453125 0.468750
vt 0.296875 0.468750
vt 0.296875 0.718750
vt 0.281250 0.718750
vt 0.281250 0.468750
vt 0.468750 0.703125
vt 0.281250 0.703125
vt 0.468750 0.484375
vt 0.281250 0.484375
vt 0.437500 0.718750
vt 0.437500 0.468750
vt 0.312500 0.468750
vt 0.312500 0.718750
vt 0.281250 0.687500
vt 0.468750 0.500000
vt 0.281250 0.500000
vt 0.031250 0.109375
vt 0.031250 0.125000
vt 0.000000 0.125000
vt 0.000000 0.109375
vt 0.312500 0.375000
vt 0.281250 0.375000
vt 0.359375 0.367188
vt 0.359375 0.375000
vt 0.328125 0.367188
vt 0.296875 0.375000
vt 0.296875 0.367188
vt 0.406250 0.452847
vt 0.406250 0.468750
vt 0.390625 0.468750
vt 0.390625 0.452847
vt 0.437500 0.452847
vt 0.421875 0.452847
vt 0.367802 0.359375
vt 0.367802 0.375000
vt 0.359990 0.375000
vt 0.359990 0.359375
vt 0.399052 0.390347
vt 0.399052 0.406250
vt 0.391240 0.406250
vt 0.391240 0.390347
vt 0.359375 0.390347
vt 0.351562 0.406250
vt 0.351562 0.390347
vt 0.375000 0.343472
vt 0.359375 0.359375
vt 0.359375 0.343472
vt 0.399052 0.421875
vt 0.399052 0.437500
vt 0.391240 0.437500
vt 0.391240 0.421875
vt 0.414677 0.452847
vt 0.414677 0.468750
vt 0.406865 0.468750
vt 0.406865 0.452847
vt 0.343750 0.343472
vt 0.335938 0.359375
vt 0.335938 0.343472
vt 0.265625 0.453125
vt 0.265625 0.406250
vt 0.265625 0.437500
vt 0.324219 0.421875
vt 0.343750 0.421875
vt 0.332031 0.437500
vt 0.332031 0.421875
vt 0.328125 0.417969
vt 0.320312 0.417969
vt 0.320312 0.406250
vt 0.328125 0.347656
vt 0.320312 0.359375
vt 0.320312 0.347656
vt 0.304688 0.390625
vt 0.304688 0.375000
vt 0.335938 0.515625
vt 0.335938 0.531250
vt 0.328125 0.531250
vt 0.328125 0.515625
vt 0.292969 0.406250
vt 0.292969 0.421875
vt 0.281250 0.421875
vt 0.281250 0.406250
vt 0.300781 0.421875
vt 0.300781 0.406250
vt 0.296875 0.402344
vt 0.289062 0.402344
vt 0.289062 0.390625
vt 0.296875 0.410156
vt 0.296875 0.421875
vt 0.289062 0.421875
vt 0.289062 0.410156
vt 0.320312 0.421875
s 1
usemtl m_3d215661-f591-00a8-53e2-d8d611c756be.003
f 1/1/1 2/2/1 3/3/1
f 5/2/2 4/4/2 6/3/2
f 5/5/3 2/6/3 1/7/3 4/3/3
f 4/2/4 1/4/4 3/7/4 6/3/4
f 2/1/5 5/2/5 6/3/5 3/8/5
f 7/1/1 8/2/1 9/3/1
f 11/2/2 10/4/2 12/3/2
f 11/5/3 8/6/3 7/7/3 10/3/3
f 10/2/4 7/4/4 9/7/4 12/3/4
f 8/1/5 11/2/5 12/3/5 9/8/5
f 13/1/1 14/2/1 15/3/1
f 17/2/2 16/4/2 18/3/2
f 17/5/3 14/6/3 13/7/3 16/3/3
f 16/2/4 13/4/4 15/7/4 18/3/4
f 14/1/5 17/2/5 18/3/5 15/8/5
f 20/2/1 19/1/1 21/3/1
f 22/4/2 23/2/2 24/3/2
f 19/7/3 20/6/3 23/5/3 22/3/3
f 21/7/6 19/4/6 22/2/6 24/3/6
f 24/3/7 23/2/7 20/1/7 21/8/7
f 26/2/1 25/1/1 27/3/1
f 28/4/2 29/2/2 30/3/2
f 25/7/3 26/6/3 29/5/3 28/3/3
f 27/7/6 25/4/6 28/2/6 30/3/6
f 30/3/7 29/2/7 26/1/7 27/8/7
f 32/2/1 31/1/1 33/3/1
f 34/4/2 35/2/2 36/3/2
f 31/7/3 32/6/3 35/5/3 34/3/3
f 33/7/6 31/4/6 34/2/6 36/3/6
f 36/3/7 35/2/7 32/1/7 33/8/7
f 37/9/1 38/10/1 40/11/1 39/12/1
f 42/9/2 41/10/2 43/11/2 44/12/2
f 42/13/8 38/14/8 37/15/8 41/16/8
f 43/13/9 39/14/9 40/15/9 44/16/9
f 41/17/4 37/18/4 39/19/4 43/20/4
f 38/21/6 42/22/6 44/23/6 40/24/6
f 45/9/3 46/10/3 48/11/3 47/12/3
f 50/9/2 49/10/2 51/11/2 52/12/2
f 50/25/10 49/26/10 45/15/10 46/14/10
f 51/25/11 52/26/11 48/15/11 47/14/11
f 49/21/6 51/24/6 47/19/6 45/18/6
f 46/21/4 48/24/4 52/19/4 50/18/4
f 53/27/12 54/28/12 56/29/12 55/30/12
f 60/27/13 59/28/13 57/29/13 58/30/13
f 57/27/14 55/31/14 56/32/14 58/30/14
f 59/27/4 53/31/4 55/32/4 57/30/4
f 54/31/6 60/28/6 58/29/6 56/32/6
f 60/27/3 54/31/3 53/32/3 59/30/3
f 61/31/12 62/28/12 64/29/12 63/32/12
f 68/27/13 67/31/13 65/32/13 66/30/13
f 65/33/14 63/34/14 64/32/14 66/30/14
f 67/27/4 61/31/4 63/32/4 65/30/4
f 62/31/6 68/28/6 66/29/6 64/32/6
f 68/27/3 62/31/3 61/34/3 67/33/3
f 67/31/15 68/28/15 70/29/15 69/32/15
f 72/27/16 71/31/16 73/32/16 74/30/16
f 72/27/3 68/31/3 67/34/3 71/33/3
f 73/33/14 69/34/14 70/32/14 74/30/14
f 71/27/4 67/31/4 69/32/4 73/30/4
f 68/31/6 72/28/6 74/29/6 70/32/6
f 59/27/15 60/28/15 76/29/15 75/30/15
f 78/27/16 77/28/16 79/29/16 80/30/16
f 78/27/3 60/31/3 59/32/3 77/30/3
f 79/27/14 75/31/14 76/32/14 80/30/14
f 77/27/4 59/31/4 75/32/4 79/30/4
f 60/31/6 78/28/6 80/29/6 76/32/6
f 135/67/34 136/68/34 138/69/34 137/70/34
f 140/71/35 139/67/35 141/70/35 142/72/35
f 140/73/3 136/74/3 135/75/3 139/76/3
f 141/76/2 137/75/2 138/77/2 142/78/2
f 139/67/4 135/79/4 137/80/4 141/70/4
f 136/81/6 140/67/6 142/70/6 138/82/6
f 143/67/36 144/68/36 138/69/36 137/70/36
f 146/71/37 145/67/37 147/70/37 148/72/37
f 146/73/14 144/74/14 143/75/14 145/76/14
f 147/76/1 137/75/1 138/77/1 148/78/1
f 145/67/4 143/79/4 137/80/4 147/70/4
f 144/81/6 146/67/6 148/70/6 138/82/6
f 149/83/38 150/84/38 142/85/38 141/86/38
f 152/87/39 151/88/39 137/89/39 138/90/39
f 152/91/3 150/92/3 149/93/3 151/94/3
f 151/95/4 149/96/4 141/97/4 137/98/4
f 150/83/6 152/99/6 138/100/6 142/86/6
f 153/83/40 154/84/40 148/85/40 147/86/40
f 156/87/41 155/88/41 137/89/41 138/90/41
f 156/91/14 154/92/14 153/93/14 155/94/14
f 155/95/4 153/96/4 147/97/4 137/98/4
f 154/83/6 156/99/6 138/100/6 148/86/6
f 170/114/42 174/115/42 175/116/42 171/117/42
f 173/118/43 177/117/43 176/114/43 172/119/43
f 172/120/4 176/121/4 174/122/4 170/123/4
f 171/124/6 175/125/6 177/126/6 173/127/6
f 174/114/44 178/115/44 179/116/44 175/117/44
f 177/118/45 181/117/45 180/114/45 176/119/45
f 176/128/4 180/129/4 178/130/4 174/131/4
f 175/124/6 179/125/6 181/132/6 177/133/6
f 178/114/2 182/115/2 183/116/2 179/117/2
f 181/118/1 185/117/1 184/114/1 180/119/1
f 180/134/4 184/135/4 182/136/4 178/137/4
f 179/136/6 183/137/6 185/134/6 181/135/6
f 182/114/46 186/115/46 187/116/46 183/117/46
f 185/118/47 189/117/47 188/114/47 184/119/47
f 184/126/4 188/138/4 186/139/4 182/140/4
f 183/141/6 187/142/6 189/143/6 185/144/6
f 186/114/48 190/115/48 191/116/48 187/117/48
f 189/118/49 193/117/49 192/114/49 188/119/49
f 188/145/4 192/146/4 190/147/4 186/148/4
f 187/141/6 191/142/6 193/149/6 189/129/6
f 190/114/14 194/115/14 195/116/14 191/117/14
f 193/118/3 197/117/3 196/114/3 192/119/3
f 192/150/4 196/151/4 194/152/4 190/153/4
f 191/116/6 195/117/6 197/154/6 193/155/6
f 194/114/43 198/115/43 199/116/43 195/117/43
f 197/118/42 201/117/42 200/114/42 196/119/42
f 196/156/4 200/157/4 198/117/4 194/158/4
f 195/159/6 199/117/6 201/160/6 197/161/6
f 198/114/45 202/115/45 203/116/45 199/117/45
f 201/118/44 205/117/44 204/114/44 200/119/44
f 200/162/4 204/163/4 202/164/4 198/165/4
f 199/159/6 203/117/6 205/166/6 201/167/6
f 202/114/1 206/115/1 207/116/1 203/117/1
f 205/118/2 209/117/2 208/114/2 204/119/2
f 204/168/4 208/169/4 206/117/4 202/170/4
f 203/117/6 207/170/6 209/168/6 205/169/6
f 206/114/47 210/115/47 211/116/47 207/117/47
f 209/118/46 213/117/46 212/114/46 208/119/46
f 208/171/4 212/172/4 210/159/4 206/173/4
f 207/117/6 211/165/6 213/174/6 209/175/6
f 210/114/49 214/115/49 215/116/49 211/117/49
f 213/118/48 217/117/48 216/114/48 212/119/48
f 212/176/4 216/177/4 214/178/4 210/117/4
f 211/117/6 215/165/6 217/179/6 213/180/6
f 214/114/3 170/115/3 171/116/3 215/117/3
f 217/118/14 173/117/14 172/114/14 216/119/14
f 216/154/4 172/155/4 170/116/4 214/117/4
f 215/152/6 171/153/6 173/150/6 217/151/6
f 219/181/14 218/27/14 220/33/14 221/182/14
f 224/182/1 222/181/1 223/27/1 225/33/1
f 222/183/50 218/184/50 219/185/50 223/186/50
f 221/187/51 220/188/51 224/189/51 225/114/51
f 220/190/4 218/191/4 222/192/4 224/193/4
f 223/194/52 219/195/53 221/196/53 225/197/53
f 227/198/14 226/199/14 228/187/14 229/200/14
f 232/201/1 233/202/1 231/203/1 230/204/1
f 230/205/54 226/206/54 227/207/54 231/208/54
f 229/209/55 228/197/55 232/196/55 233/188/55
f 228/210/4 226/211/4 230/212/4 232/213/4
f 231/207/56 227/208/57 229/214/56 233/215/56
f 247/114/42 251/115/42 252/116/42 248/117/42
f 250/118/43 254/117/43 253/114/43 249/119/43
f 249/120/4 253/121/4 251/122/4 247/123/4
f 248/124/6 252/125/6 254/126/6 250/127/6
f 251/114/44 255/115/44 256/116/44 252/117/44
f 254/118/45 258/117/45 257/114/45 253/119/45
f 253/128/4 257/129/4 255/130/4 251/131/4
f 252/124/6 256/125/6 258/132/6 254/133/6
f 255/114/2 259/115/2 260/116/2 256/117/2
f 258/118/1 262/117/1 261/114/1 257/119/1
f 257/134/4 261/135/4 259/136/4 255/137/4
f 256/136/6 260/137/6 262/134/6 258/135/6
f 259/114/46 263/115/46 264/116/46 260/117/46
f 262/118/47 266/117/47 265/114/47 261/119/47
f 261/126/4 265/138/4 263/139/4 259/140/4
f 260/141/6 264/142/6 266/143/6 262/144/6
f 263/114/48 267/115/48 268/116/48 264/117/48
f 266/118/49 270/117/49 269/114/49 265/119/49
f 265/145/4 269/146/4 267/147/4 263/148/4
f 264/141/6 268/142/6 270/149/6 266/129/6
f 267/114/14 271/115/14 272/116/14 268/117/14
f 270/118/3 274/117/3 273/114/3 269/119/3
f 269/150/4 273/151/4 271/152/4 267/153/4
f 268/116/6 272/117/6 274/154/6 270/155/6
f 271/114/43 275/115/43 276/116/43 272/117/43
f 274/118/42 278/117/42 277/114/42 273/119/42
f 273/156/4 277/157/4 275/117/4 271/158/4
f 272/159/6 276/117/6 278/160/6 274/161/6
f 275/114/45 279/115/45 280/116/45 276/117/45
f 278/118/44 282/117/44 281/114/44 277/119/44
f 277/162/4 281/163/4 279/164/4 275/165/4
f 276/159/6 280/117/6 282/166/6 278/167/6
f 279/114/1 283/115/1 284/116/1 280/117/1
f 282/118/2 286/117/2 285/114/2 281/119/2
f 281/168/4 285/169/4 283/117/4 279/170/4
f 280/117/6 284/170/6 286/168/6 282/169/6
f 283/114/47 287/115/47 288/116/47 284/117/47
f 286/118/46 290/117/46 289/114/46 285/119/46
f 285/171/4 289/172/4 287/159/4 283/173/4
f 284/117/6 288/165/6 290/174/6 286/175/6
f 287/114/49 291/115/49 292/116/49 288/117/49
f 290/118/48 294/117/48 293/114/48 289/119/48
f 289/176/4 293/177/4 291/178/4 287/117/4
f 288/117/6 292/165/6 294/179/6 290/180/6
f 291/114/3 247/115/3 248/116/3 292/117/3
f 294/118/14 250/117/14 249/114/14 293/119/14
f 293/154/4 249/155/4 247/116/4 291/117/4
f 292/152/6 248/153/6 250/150/6 294/151/6
f 296/181/14 295/27/14 297/33/14 298/182/14
f 301/182/2 302/33/2 300/27/2 299/181/2
f 299/183/50 295/184/50 296/185/50 300/186/50
f 298/187/51 297/188/51 301/189/51 302/114/51
f 297/190/4 295/191/4 299/192/4 301/193/4
f 300/194/53 296/195/53 298/196/53 302/197/53
f 304/198/14 303/199/14 305/187/14 306/200/14
f 309/201/2 307/204/2 308/203/2 310/202/2
f 307/205/54 303/206/54 304/207/54 308/208/54
f 306/209/55 305/197/55 309/196/55 310/188/55
f 305/210/4 303/211/4 307/212/4 309/213/4
f 308/207/56 304/208/57 306/214/56 310/215/56
f 324/229/48 328/230/48 329/231/48 325/232/48
f 327/233/49 331/232/49 330/229/49 326/234/49
f 326/235/6 330/236/6 328/237/6 324/238/6
f 325/239/4 329/240/4 331/241/4 327/242/4
f 328/229/46 332/230/46 333/231/46 329/232/46
f 331/233/47 335/232/47 334/229/47 330/234/47
f 330/243/6 334/244/6 332/245/6 328/246/6
f 329/239/4 333/240/4 335/247/4 331/248/4
f 332/229/2 336/230/2 337/231/2 333/232/2
f 335/233/1 339/232/1 338/229/1 334/234/1
f 334/249/6 338/250/6 336/251/6 332/252/6
f 333/251/4 337/252/4 339/249/4 335/250/4
f 336/229/44 340/230/44 341/231/44 337/232/44
f 339/233/45 343/232/45 342/229/45 338/234/45
f 338/253/6 342/254/6 340/255/6 336/256/6
f 337/257/4 341/258/4 343/259/4 339/260/4
f 340/229/42 344/230/42 345/231/42 341/232/42
f 343/233/43 347/232/43 346/229/43 342/234/43
f 342/261/6 346/262/6 344/263/6 340/264/6
f 341/257/4 345/258/4 347/265/4 343/266/4
f 344/229/3 348/230/3 349/231/3 345/232/3
f 347/233/14 351/232/14 350/229/14 346/234/14
f 346/267/6 350/268/6 348/269/6 344/270/6
f 345/231/4 349/232/4 351/271/4 347/272/4
f 348/229/49 352/230/49 353/231/49 349/232/49
f 351/233/48 355/232/48 354/229/48 350/234/48
f 350/273/6 354/274/6 352/232/6 348/275/6
f 349/276/4 353/232/4 355/277/4 351/278/4
f 352/229/47 356/230/47 357/231/47 353/232/47
f 355/233/46 359/232/46 358/229/46 354/234/46
f 354/279/6 358/280/6 356/281/6 352/282/6
f 353/276/4 357/232/4 359/283/4 355/284/4
f 356/229/1 360/230/1 361/231/1 357/232/1
f 359/233/2 363/232/2 362/229/2 358/234/2
f 358/285/6 362/286/6 360/232/6 356/287/6
f 357/232/4 361/287/4 363/285/4 359/286/4
f 360/229/45 364/230/45 365/231/45 361/232/45
f 363/233/44 367/232/44 366/229/44 362/234/44
f 362/288/6 366/289/6 364/276/6 360/290/6
f 361/232/4 365/282/4 367/291/4 363/292/4
f 364/229/43 368/230/43 369/231/43 365/232/43
f 367/233/42 371/232/42 370/229/42 366/234/42
f 366/293/6 370/294/6 368/295/6 364/232/6
f 365/232/4 369/282/4 371/296/4 367/297/4
f 368/229/14 324/230/14 325/231/14 369/232/14
f 371/233/3 327/232/3 326/229/3 370/234/3
f 370/271/6 326/272/6 324/231/6 368/232/6
f 369/269/4 325/270/4 327/267/4 371/268/4
f 373/298/1 375/211/1 374/299/1 372/205/1
f 378/198/14 376/300/14 377/301/14 379/193/14
f 376/212/58 372/200/58 373/302/58 377/303/58
f 375/304/13 374/206/13 378/305/13 379/114/13
f 374/211/4 372/298/4 376/205/4 378/299/4
f 377/302/59 373/303/60 375/212/59 379/200/59
f 381/300/61 380/301/61 382/193/61 383/198/61
f 386/210/15 384/306/15 385/307/15 387/308/15
f 384/212/1 380/200/1 381/302/1 385/303/1
f 383/190/14 382/183/14 386/309/14 387/310/14
f 382/211/4 380/298/4 384/205/4 386/299/4
f 385/298/62 381/205/62 383/299/62 387/211/62
f 391/311/2 389/31/2 388/312/2 390/313/2
f 394/311/1 392/31/1 393/312/1 395/313/1
f 388/314/3 389/33/3 393/315/3 392/316/3
f 391/314/14 390/33/14 394/315/14 395/316/14
f 390/317/4 388/27/4 392/36/4 394/318/4
f 395/311/6 393/31/6 389/312/6 391/313/6
f 389/319/2 397/31/2 396/312/2 388/320/2
f 392/319/1 398/31/1 399/312/1 393/320/1
f 396/314/3 397/33/3 399/315/3 398/316/3
f 388/321/4 396/27/4 398/36/4 392/322/4
f 393/319/6 399/31/6 397/312/6 389/320/6
f 401/311/2 391/31/2 390/312/2 400/313/2
f 402/311/1 394/31/1 395/312/1 403/313/1
f 401/314/14 400/33/14 402/315/14 403/316/14
f 400/317/4 390/27/4 394/36/4 402/318/4
f 403/311/6 395/31/6 391/312/6 401/313/6
f 405/323/2 401/31/2 400/312/2 404/324/2
f 406/323/1 402/31/1 403/312/1 407/324/1
f 405/314/14 404/33/14 406/315/14 407/316/14
f 404/325/4 400/27/4 402/36/4 406/326/4
f 407/323/6 403/31/6 401/312/6 405/324/6
f 411/30/2 409/33/2 408/34/2 410/32/2
f 414/32/1 412/34/1 413/327/1 415/29/1
f 408/34/3 409/31/3 413/36/3 412/315/3
f 411/32/14 410/34/14 414/315/14 415/48/14
f 410/32/4 408/34/4 412/315/4 414/48/4
f 415/30/6 413/33/6 409/182/6 411/328/6
f 419/30/2 417/33/2 416/34/2 418/32/2
f 422/32/1 420/34/1 421/327/1 423/29/1
f 416/34/3 417/31/3 421/36/3 420/315/3
f 419/32/14 418/34/14 422/315/14 423/48/14
f 418/32/4 416/34/4 420/315/4 422/48/4
f 423/30/6 421/33/6 417/182/6 419/328/6
f 427/30/2 425/33/2 424/327/2 426/29/2
f 423/32/1 421/34/1 412/182/1 414/328/1
f 424/328/3 425/181/3 412/36/3 421/48/3
f 427/329/14 426/182/14 423/315/14 414/330/14
f 426/328/4 424/182/4 421/315/4 423/48/4
f 414/30/6 412/33/6 425/34/6 427/32/6
f 431/30/2 429/33/2 428/34/2 430/32/2
f 434/32/1 432/34/1 433/327/1 435/29/1
f 428/34/3 429/31/3 433/36/3 432/315/3
f 431/32/14 430/34/14 434/315/14 435/48/14
f 430/32/4 428/34/4 432/315/4 434/48/4
f 435/30/6 433/33/6 429/182/6 431/328/6
f 439/30/2 437/33/2 436/327/2 438/29/2
f 435/32/1 433/34/1 440/182/1 441/328/1
f 436/328/3 437/181/3 440/36/3 433/48/3
f 439/329/14 438/182/14 435/315/14 441/330/14
f 438/328/4 436/182/4 433/315/4 435/48/4
f 441/30/6 440/33/6 437/34/6 439/32/6
f 445/30/2 443/33/2 442/34/2 444/32/2
f 441/32/1 440/34/1 446/327/1 447/29/1
f 442/34/3 443/31/3 446/36/3 440/315/3
f 445/32/14 444/34/14 441/315/14 447/48/14
f 444/32/4 442/34/4 440/315/4 441/48/4
f 447/30/6 446/33/6 443/182/6 445/328/6
f 451/30/2 449/33/2 448/34/2 450/32/2
f 454/32/1 452/34/1 453/327/1 455/29/1
f 448/34/3 449/31/3 453/36/3 452/315/3
f 451/32/14 450/34/14 454/315/14 455/48/14
f 450/32/4 448/34/4 452/315/4 454/48/4
f 455/30/6 453/33/6 449/182/6 451/328/6
f 459/30/2 457/33/2 456/327/2 458/29/2
f 461/32/1 460/34/1 452/182/1 454/328/1
f 456/328/3 457/181/3 452/36/3 460/48/3
f 459/329/14 458/182/14 461/315/14 454/330/14
f 458/328/4 456/182/4 460/315/4 461/48/4
f 454/30/6 452/33/6 457/34/6 459/32/6
f 465/30/2 463/33/2 462/34/2 464/32/2
f 467/32/1 466/34/1 460/327/1 461/29/1
f 462/34/3 463/31/3 460/36/3 466/315/3
f 465/32/14 464/34/14 467/315/14 461/48/14
f 464/32/4 462/34/4 466/315/4 467/48/4
f 461/30/6 460/33/6 463/182/6 465/328/6
f 471/331/2 469/28/2 468/27/2 470/317/2
f 474/331/1 472/28/1 473/27/1 475/317/1
f 468/328/3 469/181/3 473/27/3 472/30/3
f 471/328/14 470/181/14 474/27/14 475/30/14
f 470/332/4 468/181/4 472/27/4 474/317/4
f 475/332/6 473/181/6 469/27/6 471/317/6
f 479/331/2 477/28/2 476/27/2 478/317/2
f 482/331/1 480/28/1 481/27/1 483/317/1
f 476/328/3 477/181/3 481/27/3 480/30/3
f 479/328/14 478/181/14 482/27/14 483/30/14
f 478/332/4 476/181/4 480/27/4 482/317/4
f 483/332/6 481/181/6 477/27/6 479/317/6
f 485/333/2 468/334/2 477/335/2 484/336/2
f 486/333/1 481/334/1 472/335/1 487/336/1
f 477/337/3 468/338/3 472/27/3 481/46/3
f 485/337/14 484/338/14 486/27/14 487/46/14
f 484/339/4 477/338/4 481/27/4 486/33/4
f 487/339/6 472/338/6 468/27/6 485/33/6
f 491/340/2 489/341/2 488/342/2 490/44/2
f 494/340/1 492/341/1 493/342/1 495/44/1
f 488/343/3 489/181/3 493/27/3 492/46/3
f 491/343/14 490/181/14 494/27/14 495/46/14
f 490/344/4 488/345/4 492/342/4 494/44/4
f 495/344/6 493/345/6 489/342/6 491/44/6
f 499/346/2 497/341/2 496/342/2 498/347/2
f 502/346/1 500/341/1 501/342/1 503/347/1
f 496/343/3 497/181/3 501/27/3 500/46/3
f 499/343/14 498/181/14 502/27/14 503/46/14
f 498/344/4 496/345/4 500/342/4 502/44/4
f 503/344/6 501/345/6 497/342/6 499/44/6
f 507/348/2 505/349/2 504/350/2 506/351/2
f 510/348/1 508/349/1 509/350/1 511/351/1
f 504/352/3 505/353/3 509/354/3 508/355/3
f 507/352/14 506/353/14 510/354/14 511/355/14
f 506/352/4 504/353/4 508/354/4 510/355/4
f 511/352/6 509/353/6 505/354/6 507/355/6
f 515/348/2 513/349/2 512/350/2 514/351/2
f 518/348/1 516/349/1 517/350/1 519/351/1
f 512/352/3 513/353/3 517/354/3 516/355/3
f 515/352/14 514/353/14 518/354/14 519/355/14
f 514/352/4 512/353/4 516/354/4 518/355/4
f 519/352/6 517/353/6 513/354/6 515/355/6
f 523/348/2 521/349/2 520/350/2 522/351/2
f 526/348/1 524/349/1 525/350/1 527/351/1
f 520/352/3 521/353/3 525/354/3 524/355/3
f 523/352/14 522/353/14 526/354/14 527/355/14
f 522/352/4 520/353/4 524/354/4 526/355/4
f 527/352/6 525/353/6 521/354/6 523/355/6
f 531/348/2 529/349/2 528/350/2 530/351/2
f 534/348/1 532/349/1 533/350/1 535/351/1
f 528/352/3 529/353/3 533/354/3 532/355/3
f 531/352/14 530/353/14 534/354/14 535/355/14
f 530/352/4 528/353/4 532/354/4 534/355/4
f 535/352/6 533/353/6 529/354/6 531/355/6
f 539/356/2 537/357/2 536/358/2 538/359/2
f 542/356/1 540/357/1 541/358/1 543/359/1
f 536/360/3 537/357/3 541/358/3 540/361/3
f 539/360/14 538/357/14 542/358/14 543/361/14
f 538/356/4 536/357/4 540/358/4 542/359/4
f 543/356/6 541/357/6 537/358/6 539/359/6
f 547/34/2 545/31/2 544/4/2 546/6/2
f 550/34/1 548/31/1 549/4/1 551/6/1
f 544/321/3 545/33/3 549/362/3 548/363/3
f 547/321/14 546/33/14 550/362/14 551/363/14
f 546/33/4 544/27/4 548/53/4 550/362/4
f 551/33/6 549/27/6 545/53/6 547/362/6
f 555/364/63 553/365/63 552/338/63 554/366/63
f 558/30/64 556/27/64 557/367/64 559/368/64
f 552/369/11 553/370/11 557/371/11 556/372/11
f 555/373/10 554/27/10 558/312/10 559/374/10
f 554/30/4 552/27/4 556/312/4 558/375/4
f 559/30/6 557/27/6 553/312/6 555/375/6
f 563/364/11 561/365/11 560/338/11 562/366/11
f 566/30/10 564/27/10 565/367/10 567/368/10
f 560/369/64 561/370/64 565/371/64 564/372/64
f 563/373/63 562/27/63 566/312/63 567/374/63
f 562/30/4 560/27/4 564/312/4 566/375/4
f 567/30/6 565/27/6 561/312/6 563/375/6
f 571/30/11 569/27/11 568/367/11 570/368/11
f 574/364/10 572/365/10 573/338/10 575/366/10
f 568/373/64 569/27/64 573/312/64 572/374/64
f 571/369/63 570/370/63 574/371/63 575/372/63
f 570/30/4 568/27/4 572/312/4 574/375/4
f 575/30/6 573/27/6 569/312/6 571/375/6
f 579/30/63 577/27/63 576/367/63 578/368/63
f 582/364/64 580/365/64 581/338/64 583/366/64
f 576/373/11 577/27/11 581/312/11 580/374/11
f 579/369/10 578/370/10 582/371/10 583/372/10
f 578/30/4 576/27/4 580/312/4 582/375/4
f 583/30/6 581/27/6 577/312/6 579/375/6
f 587/376/2 585/377/2 584/378/2 586/379/2
f 589/376/1 588/377/1 467/378/1 590/379/1
f 584/380/3 585/381/3 467/382/3 588/383/3
f 587/380/14 586/381/14 589/382/14 590/383/14
f 586/384/4 584/385/4 588/386/4 589/387/4
f 590/384/6 467/385/6 585/386/6 587/387/6
f 594/388/63 592/312/63 591/389/63 593/390/63
f 597/391/64 595/27/64 596/392/64 598/393/64
f 591/394/11 592/314/11 596/395/11 595/396/11
f 594/397/10 593/27/10 597/312/10 598/398/10
f 593/391/4 591/27/4 595/312/4 597/388/4
f 598/391/6 596/27/6 592/312/6 594/388/6
f 602/388/63 600/312/63 599/389/63 601/390/63
f 605/391/64 603/27/64 604/392/64 606/393/64
f 599/394/11 600/314/11 604/395/11 603/396/11
f 602/397/10 601/27/10 605/312/10 606/398/10
f 601/391/4 599/27/4 603/312/4 605/388/4
f 606/391/6 604/27/6 600/312/6 602/388/6
f 610/33/2 608/27/2 607/2/2 609/5/2
f 613/33/1 611/27/1 612/2/1 614/5/1
f 607/399/3 608/312/3 612/400/3 611/401/3
f 610/399/14 609/312/14 613/400/14 614/401/14
f 609/402/4 607/312/4 611/400/4 613/403/4
f 614/33/6 612/27/6 608/4/6 610/6/6
f 618/32/2 616/31/2 615/1/2 617/8/2
f 621/32/1 619/31/1 620/1/1 622/8/1
f 615/404/3 616/405/3 620/406/3 619/407/3
f 618/408/14 617/31/14 621/409/14 622/410/14
f 617/364/4 615/365/4 619/400/4 621/411/4
f 622/30/6 620/27/6 616/412/6 618/413/6
f 616/414/2 624/415/2 623/335/2 615/336/2
f 627/414/1 625/415/1 626/335/1 628/336/1
f 623/404/3 624/405/3 626/406/3 625/407/3
f 616/404/14 615/405/14 627/406/14 628/407/14
f 615/416/4 623/417/4 625/335/4 627/336/4
f 628/46/6 626/391/6 624/418/6 616/419/6
f 632/46/2 630/27/2 629/28/2 631/45/2
f 635/46/1 633/27/1 634/28/1 636/45/1
f 629/32/3 630/31/3 634/28/3 633/29/3
f 632/32/14 631/31/14 635/28/14 636/29/14
f 631/414/4 629/31/4 633/28/4 635/45/4
f 636/46/6 634/27/6 630/31/6 632/414/6
f 46/420/2 638/421/2 637/422/2 45/423/2
f 47/420/1 639/421/1 640/422/1 48/423/1
f 637/424/3 638/425/3 640/426/3 639/427/3
f 45/428/4 637/429/4 639/430/4 47/431/4
f 48/432/6 640/433/6 638/434/6 46/435/6
f 37/26/3 38/25/3 50/436/3 49/437/3
f 40/26/14 39/25/14 51/436/14 52/437/14
f 39/24/4 37/21/4 49/438/4 51/439/4
f 52/12/6 50/9/6 38/18/6 40/19/6
f 729/516/2 727/517/2 726/352/2 728/518/2
f 732/516/1 730/517/1 731/352/1 733/518/1
f 726/517/3 727/519/3 731/353/3 730/352/3
f 729/517/14 728/519/14 732/353/14 733/352/14
f 728/516/4 726/517/4 730/352/4 732/518/4
f 733/516/6 731/517/6 727/352/6 729/518/6
f 737/516/2 735/517/2 734/352/2 736/518/2
f 740/516/1 738/517/1 739/352/1 741/518/1
f 734/517/3 735/519/3 739/353/3 738/352/3
f 737/517/14 736/519/14 740/353/14 741/352/14
f 736/516/4 734/517/4 738/352/4 740/518/4
f 741/516/6 739/517/6 735/352/6 737/518/6
f 761/351/2 759/350/2 758/349/2 760/348/2
f 764/517/1 762/519/1 763/353/1 765/352/1
f 758/520/3 759/521/3 763/522/3 762/523/3
f 761/520/14 760/521/14 764/522/14 765/523/14
f 760/520/4 758/521/4 762/522/4 764/523/4
f 765/520/6 763/521/6 759/522/6 761/523/6
f 881/606/2 879/607/2 878/608/2 880/609/2
f 884/606/1 882/607/1 883/608/1 885/609/1
f 878/610/3 879/607/3 883/611/3 882/612/3
f 881/610/14 880/607/14 884/611/14 885/612/14
f 880/325/4 878/27/4 882/4/4 884/613/4
f 885/606/6 883/607/6 879/611/6 881/614/6
f 896/615/2 895/616/2 894/617/2 769/618/2
f 781/619/1 897/620/1 898/621/1 899/622/1
f 894/623/3 895/616/3 898/621/3 897/624/3
f 896/615/14 769/625/14 781/626/14 899/622/14
f 769/615/4 894/616/4 897/621/4 781/622/4
f 899/615/6 898/616/6 895/621/6 896/622/6
f 773/615/2 901/616/2 900/627/2 902/628/2
f 905/629/1 903/630/1 904/621/1 777/622/1
f 900/543/3 901/616/3 904/621/3 903/631/3
f 773/615/14 902/632/14 905/633/14 777/622/14
f 902/615/4 900/616/4 903/621/4 905/622/4
f 777/634/6 904/635/6 901/636/6 773/637/6
f 222/638/3 223/629/3 233/622/3 232/639/3
f 225/638/14 224/629/14 230/622/14 231/639/14
f 224/640/4 222/641/4 232/192/4 230/642/4
f 231/642/6 233/192/6 223/643/6 225/644/6
f 907/645/2 227/646/2 226/647/2 906/648/2
f 908/649/1 228/628/1 229/185/1 909/650/1
f 907/651/14 906/652/14 908/653/14 909/654/14
f 906/655/4 226/656/4 228/657/4 908/658/4
f 909/659/6 229/206/6 227/660/6 907/661/6
f 911/662/2 219/190/2 218/663/2 910/664/2
f 912/645/1 220/646/1 221/647/1 913/648/1
f 911/665/14 910/666/14 912/667/14 913/668/14
f 910/669/4 218/670/4 220/671/4 912/672/4
f 913/673/6 221/199/6 219/674/6 911/675/6
f 299/638/3 300/629/3 310/622/3 309/639/3
f 302/638/14 301/629/14 307/622/14 308/639/14
f 301/640/4 299/641/4 309/192/4 307/642/4
f 308/642/6 310/192/6 300/643/6 302/644/6
f 915/645/2 304/646/2 303/647/2 914/648/2
f 916/649/1 305/628/1 306/185/1 917/650/1
f 915/651/14 914/652/14 916/653/14 917/654/14
f 914/655/4 303/656/4 305/657/4 916/658/4
f 917/659/6 306/206/6 304/660/6 915/661/6
f 919/662/2 296/190/2 295/663/2 918/664/2
f 920/645/1 297/646/1 298/647/1 921/648/1
f 919/665/14 918/666/14 920/667/14 921/668/14
f 918/669/4 295/670/4 297/671/4 920/672/4
f 921/673/6 298/199/6 296/674/6 919/675/6
f 380/305/3 381/433/3 373/676/3 372/677/3
f 385/305/14 384/433/14 374/676/14 375/677/14
f 384/24/4 380/433/4 372/676/4 374/678/4
f 375/24/6 373/433/6 381/676/6 385/678/6
f 925/679/2 923/20/2 922/214/2 924/309/2
f 928/680/1 926/196/1 927/681/1 929/682/1
f 922/303/3 923/683/3 927/684/3 926/685/3
f 925/686/14 924/193/14 928/687/14 929/688/14
f 924/638/4 922/307/4 926/689/4 928/690/4
f 929/691/6 927/692/6 923/693/6 925/694/6
f 933/695/2 931/696/2 930/697/2 932/698/2
f 936/205/1 934/309/1 935/699/1 937/700/1
f 930/189/3 931/701/3 935/702/3 934/703/3
f 933/704/14 932/705/14 936/706/14 937/707/14
f 932/301/4 930/23/4 934/11/4 936/708/4
f 937/685/6 935/708/6 931/309/6 933/205/6
usemtl m_b2af6bd8-ffc8-ff72-7f7b-7b18782af15d.003
f 84/35/17 82/36/17 81/27/17 83/37/17
f 87/35/18 85/36/18 86/27/18 88/37/18
f 81/38/19 82/39/19 86/40/19 85/41/19
f 84/38/20 83/39/20 87/40/20 88/41/20
f 83/35/21 81/36/21 85/27/21 87/37/21
f 88/35/22 86/36/22 82/27/22 84/37/22
f 92/35/23 90/36/23 89/27/23 91/37/23
f 95/35/24 93/36/24 94/27/24 96/37/24
f 89/38/19 90/39/19 94/40/19 93/41/19
f 92/38/20 91/39/20 95/40/20 96/41/20
f 91/35/21 89/36/21 93/27/21 95/37/21
f 96/35/22 94/36/22 90/27/22 92/37/22
f 98/42/2 97/43/2 99/44/2
f 100/45/1 101/46/1 102/47/1
f 97/3/3 98/2/3 101/36/3 100/48/3
f 99/49/25 97/42/25 100/50/25 102/51/25
f 102/51/6 101/50/6 98/46/6 99/52/6
f 103/53/26 104/54/26 105/55/2
f 106/28/27 108/30/1 107/29/27
f 105/56/14 104/57/14 107/58/14 108/35/14
f 104/3/26 103/2/26 106/36/27 107/48/27
f 108/48/6 106/36/6 103/27/6 105/30/6
f 109/53/26 110/54/26 111/55/2
f 112/28/27 114/30/1 113/29/27
f 111/56/14 110/57/14 113/58/14 114/35/14
f 110/3/26 109/2/26 112/36/27 113/48/27
f 114/48/6 112/36/6 109/27/6 111/30/6
f 116/42/2 115/43/2 117/44/2
f 118/45/1 119/46/1 120/47/1
f 115/3/3 116/2/3 119/36/3 118/48/3
f 117/49/25 115/42/25 118/50/25 120/51/25
f 120/51/6 119/50/6 116/46/6 117/52/6
f 124/59/28 122/60/28 121/28/28 123/45/28
f 127/61/29 125/62/29 126/27/29 128/46/29
f 121/63/30 122/2/30 126/36/30 125/64/30
f 124/65/31 123/3/31 127/48/31 128/66/31
f 123/42/4 121/2/4 125/36/4 127/50/4
f 128/50/6 126/36/6 122/27/6 124/46/6
f 128/59/32 126/60/32 129/28/32 130/45/32
f 133/61/33 131/62/33 132/27/33 134/46/33
f 129/63/30 126/2/30 132/36/30 131/64/30
f 128/65/31 130/3/31 133/48/31 134/66/31
f 130/42/4 129/2/4 131/36/4 133/50/4
f 134/50/6 132/36/6 126/27/6 128/46/6
f 644/440/2 642/46/2 641/441/2 643/442/2
f 647/443/1 645/45/1 646/444/1 648/445/1
f 641/446/3 642/447/3 646/448/3 645/449/3
f 644/450/14 643/451/14 647/452/14 648/38/14
f 643/453/4 641/454/4 645/444/4 647/445/4
f 648/440/6 646/46/6 642/455/6 644/456/6
f 652/52/2 650/46/2 649/61/2 651/457/2
f 655/458/1 653/459/1 654/444/1 656/460/1
f 649/461/3 650/462/3 654/463/3 653/464/3
f 652/41/14 651/465/14 655/466/14 656/467/14
f 651/468/4 649/469/4 653/441/4 655/470/4
f 656/47/6 654/45/6 650/50/6 652/51/6
f 660/52/2 658/46/2 657/61/2 659/457/2
f 663/458/1 661/459/1 662/444/1 664/460/1
f 657/461/3 658/462/3 662/463/3 661/464/3
f 660/41/14 659/465/14 663/466/14 664/467/14
f 659/468/4 657/469/4 661/441/4 663/470/4
f 664/47/6 662/45/6 658/50/6 660/51/6
f 666/471/2 665/469/2 642/444/2 644/445/2
f 648/440/1 646/46/1 667/50/1 668/472/1
f 642/450/3 665/473/3 667/39/3 646/38/3
f 666/454/14 644/447/14 648/448/14 668/444/14
f 668/440/6 667/46/6 665/455/6 666/456/6
f 672/468/2 670/469/2 669/441/2 671/470/2
f 652/47/1 650/45/1 673/50/1 674/51/1
f 669/474/3 670/475/3 673/476/3 650/477/3
f 672/478/14 671/479/14 652/480/14 674/441/14
f 671/481/4 669/478/4 650/441/4 652/470/4
f 674/47/6 673/45/6 670/482/6 672/483/6
f 678/468/2 676/469/2 675/441/2 677/470/2
f 660/47/1 658/45/1 679/50/1 680/51/1
f 675/474/3 676/475/3 679/476/3 658/477/3
f 678/478/14 677/479/14 660/480/14 680/441/14
f 677/481/4 675/478/4 658/441/4 660/470/4
f 680/47/6 679/45/6 676/482/6 678/483/6
f 665/41/2 682/469/2 681/441/2 683/467/2
f 684/484/1 675/45/1 676/50/1 685/485/1
f 681/446/3 682/473/3 676/475/3 675/474/3
f 665/454/14 683/451/14 684/479/14 685/478/14
f 683/450/4 681/454/4 675/478/4 684/486/4
f 685/487/6 676/482/6 682/455/6 665/488/6
f 687/41/2 679/469/2 658/441/2 686/467/2
f 689/484/1 662/45/1 688/50/1 667/485/1
f 658/489/3 679/490/3 688/473/3 662/446/3
f 687/491/14 686/492/14 689/451/14 667/454/14
f 686/493/4 658/491/4 662/454/4 689/450/4
f 667/488/6 688/455/6 679/494/6 687/495/6
f 692/41/2 657/469/2 690/441/2 691/467/2
f 694/484/1 693/45/1 661/50/1 695/485/1
f 690/489/3 657/490/3 661/473/3 693/446/3
f 692/491/14 691/492/14 694/451/14 695/454/14
f 691/493/4 690/491/4 693/454/4 694/450/4
f 695/488/6 661/455/6 657/494/6 692/495/6
f 698/41/2 697/469/2 696/441/2 641/467/2
f 701/484/1 699/45/1 700/50/1 702/485/1
f 696/446/3 697/473/3 700/475/3 699/474/3
f 698/454/14 641/451/14 701/479/14 702/478/14
f 641/450/4 696/454/4 699/478/4 701/486/4
f 702/487/6 700/482/6 697/455/6 698/488/6
f 704/47/2 681/45/2 697/444/2 703/460/2
f 705/52/1 700/46/1 675/441/1 677/470/1
f 697/450/3 681/451/3 675/479/3 700/486/3
f 704/446/14 703/447/14 705/496/14 677/474/14
f 703/497/4 697/454/4 700/478/4 705/481/4
f 677/483/6 675/482/6 681/455/6 704/498/6
f 709/47/2 707/45/2 706/444/2 708/460/2
f 711/52/1 710/46/1 669/441/1 671/470/1
f 706/450/3 707/451/3 669/479/3 710/486/3
f 709/446/14 708/447/14 711/496/14 671/474/14
f 708/497/4 706/454/4 710/478/4 711/481/4
f 671/483/6 669/482/6 707/455/6 709/498/6
f 715/472/2 713/50/2 712/444/2 714/445/2
f 718/440/1 716/46/1 717/469/1 719/471/1
f 712/484/3 713/45/3 717/499/3 716/500/3
f 715/501/14 714/28/14 718/400/14 719/502/14
f 714/443/4 712/45/4 716/499/4 718/401/4
f 719/503/6 717/504/6 713/505/6 715/506/6
f 723/35/2 721/50/2 720/444/2 722/507/2
f 724/37/1 718/46/1 719/469/1 725/508/1
f 720/509/3 721/510/3 719/499/3 718/500/3
f 723/511/14 722/53/14 724/400/14 725/502/14
f 722/512/4 720/510/4 718/499/4 724/513/4
f 725/514/6 719/504/6 721/61/6 723/515/6
f 745/38/2 743/507/2 742/508/2 744/41/2
f 748/38/1 746/507/1 747/508/1 749/41/1
f 742/38/65 743/39/65 747/40/65 746/41/65
f 745/38/66 744/39/66 748/40/66 749/41/66
f 744/38/67 742/507/67 746/508/67 748/41/67
f 749/38/68 747/507/68 743/508/68 745/41/68
f 753/38/2 751/507/2 750/508/2 752/41/2
f 756/38/1 754/507/1 755/508/1 757/41/1
f 750/38/65 751/39/65 755/40/65 754/41/65
f 753/38/66 752/39/66 756/40/66 757/41/66
f 752/38/67 750/507/67 754/508/67 756/41/67
f 757/38/68 755/507/68 751/508/68 753/41/68
f 769/524/2 767/525/2 766/526/2 768/527/2
f 772/528/1 770/529/1 771/530/1 773/531/1
f 766/49/3 767/2/3 771/36/3 770/51/3
f 769/532/14 768/3/14 772/48/14 773/472/14
f 768/524/4 766/525/4 770/533/4 772/534/4
f 773/534/6 771/533/6 767/530/6 769/531/6
f 777/535/2 775/2/2 774/28/2 776/536/2
f 780/537/1 778/538/1 779/27/1 781/539/1
f 774/49/3 775/2/3 779/36/3 778/51/3
f 777/532/14 776/3/14 780/48/14 781/472/14
f 776/535/4 774/2/4 778/36/4 780/540/4
f 781/540/6 779/36/6 775/27/6 777/539/6
f 785/444/2 783/448/2 782/27/2 784/46/2
f 788/444/1 786/448/1 787/27/1 789/46/1
f 782/485/3 783/36/3 787/27/3 786/404/3
f 785/485/14 784/36/14 788/27/14 789/404/14
f 784/42/4 782/2/4 786/36/4 788/50/4
f 789/50/6 787/36/6 783/27/6 785/46/6
f 793/541/2 791/542/2 790/543/2 792/544/2
f 796/545/1 794/546/1 795/547/1 797/548/1
f 790/549/3 791/550/3 795/551/3 794/552/3
f 793/553/14 792/554/14 796/52/14 797/555/14
f 792/556/4 790/557/4 794/513/4 796/558/4
f 797/559/6 795/545/6 791/560/6 793/561/6
f 801/469/2 799/562/2 798/563/2 800/564/2
f 803/510/1 802/54/1 786/48/1 788/50/1
f 798/57/3 799/42/3 786/50/3 802/58/3
f 801/565/14 800/566/14 803/567/14 788/568/14
f 800/42/4 798/3/4 802/48/4 803/50/4
f 788/50/6 786/48/6 799/30/6 801/46/6
f 807/569/2 805/570/2 804/30/2 806/46/2
f 810/444/1 808/452/1 809/571/1 811/572/1
f 804/573/3 805/574/3 809/575/3 808/576/3
f 807/577/14 806/2/14 810/538/14 811/578/14
f 806/42/4 804/3/4 808/579/4 810/43/4
f 811/45/6 809/29/6 805/30/6 807/46/6
f 806/469/2 804/562/2 812/563/2 813/564/2
f 816/510/1 814/54/1 815/48/1 817/50/1
f 812/57/3 804/42/3 815/50/3 814/58/3
f 806/565/14 813/566/14 816/567/14 817/568/14
f 813/42/4 812/3/4 814/48/4 816/50/4
f 817/50/6 815/48/6 804/30/6 806/46/6
f 819/42/2 769/2/2 768/28/2 818/45/2
f 820/43/1 780/538/1 781/27/1 821/46/1
f 768/580/3 769/581/3 781/27/3 780/52/3
f 819/582/14 818/583/14 820/30/14 821/440/14
f 818/494/4 768/581/4 780/27/4 820/46/4
f 821/494/6 781/581/6 769/27/6 819/46/6
f 825/42/2 823/3/2 822/29/2 824/45/2
f 828/43/1 826/579/1 827/30/1 829/46/1
f 822/554/3 823/60/3 827/584/3 826/585/3
f 825/586/14 824/587/14 828/492/14 829/588/14
f 824/59/4 822/587/4 826/492/4 828/491/4
f 829/59/6 827/587/6 823/492/6 825/491/6
f 833/510/2 831/54/2 830/29/2 832/45/2
f 836/510/1 834/54/1 835/29/1 837/45/1
f 830/376/3 831/571/3 835/479/3 834/589/3
f 833/376/14 832/571/14 836/479/14 837/589/14
f 832/572/4 830/571/4 834/479/4 836/478/4
f 837/572/6 835/571/6 831/479/6 833/478/6
f 841/42/63 839/3/63 838/29/63 840/45/63
f 844/43/64 842/579/64 843/30/64 845/46/64
f 838/554/11 839/60/11 843/584/11 842/585/11
f 841/586/10 840/587/10 844/492/10 845/588/10
f 840/59/4 838/587/4 842/492/4 844/491/4
f 845/59/6 843/587/6 839/492/6 841/491/6
f 849/42/11 847/3/11 846/29/11 848/45/11
f 852/43/10 850/579/10 851/30/10 853/46/10
f 846/590/64 847/591/64 851/584/64 850/585/64
f 849/592/63 848/593/63 852/492/63 853/588/63
f 848/594/4 846/593/4 850/492/4 852/491/4
f 853/594/6 851/593/6 847/492/6 849/491/6
f 857/532/2 855/2/2 854/27/2 856/440/2
f 860/532/1 858/2/1 859/27/1 861/440/1
f 854/595/3 855/596/3 859/27/3 858/440/3
f 857/595/14 856/596/14 860/27/14 861/440/14
f 856/595/4 854/596/4 858/27/4 860/440/4
f 861/597/6 859/598/6 855/392/6 857/599/6
f 863/55/2 862/600/2 109/27/2 111/30/2
f 114/55/1 112/600/1 864/27/1 865/30/1
f 109/56/3 862/2/3 864/36/3 112/35/3
f 863/56/14 111/2/14 114/36/14 865/35/14
f 865/48/6 864/36/6 862/27/6 863/30/6
f 867/55/2 866/600/2 116/27/2 117/30/2
f 120/55/1 119/600/1 868/27/1 869/30/1
f 116/56/3 866/2/3 868/36/3 119/35/3
f 867/56/14 117/2/14 120/36/14 869/35/14
f 869/48/6 868/36/6 866/27/6 867/30/6
f 98/601/2 105/3/2 104/579/2 97/602/2
f 100/603/1 107/29/1 108/30/1 101/604/1
f 97/601/4 104/3/4 107/48/4 100/605/4
f 101/605/6 108/48/6 105/30/6 98/604/6
f 871/55/2 870/600/2 103/27/2 105/30/2
f 108/55/1 106/600/1 872/27/1 873/30/1
f 103/56/3 870/2/3 872/36/3 106/35/3
f 871/56/14 105/2/14 108/36/14 873/35/14
f 873/48/6 872/36/6 870/27/6 871/30/6
f 875/55/2 874/600/2 98/27/2 99/30/2
f 102/55/1 101/600/1 876/27/1 877/30/1
f 98/56/3 874/2/3 876/36/3 101/35/3
f 875/56/14 99/2/14 102/36/14 877/35/14
f 877/48/6 876/36/6 874/27/6 875/30/6
f 116/601/2 111/3/2 110/579/2 115/602/2
f 118/603/1 113/29/1 114/30/1 119/604/1
f 115/601/4 110/3/4 113/48/4 118/605/4
f 119/605/6 114/48/6 111/30/6 116/604/6
f 889/576/2 887/538/2 886/2/2 888/573/2
f 892/404/1 890/27/1 891/28/1 893/484/1
f 886/440/3 887/52/3 891/49/3 890/532/3
f 889/30/14 888/27/14 892/2/14 893/3/14
f 888/404/4 886/27/4 890/2/4 892/573/4
f 893/404/6 891/27/6 887/2/6 889/573/6
usemtl m_409504fd-f58c-4195-329e-2b61b82ac830.003
f 159/101/6 160/102/6 157/103/6
f 160/102/6 161/104/6 157/103/6
f 161/104/6 162/105/6 157/103/6
f 162/105/6 163/106/6 157/103/6
f 163/106/6 164/107/6 157/103/6
f 164/107/6 165/108/6 157/103/6
f 165/108/6 166/109/6 157/103/6
f 166/109/6 167/110/6 157/103/6
f 167/110/6 168/111/6 157/103/6
f 168/111/6 169/112/6 157/103/6
f 169/112/6 158/113/6 157/103/6
f 158/113/6 159/101/6 157/103/6
f 236/101/6 237/102/6 234/103/6
f 237/102/6 238/104/6 234/103/6
f 238/104/6 239/105/6 234/103/6
f 239/105/6 240/106/6 234/103/6
f 240/106/6 241/107/6 234/103/6
f 241/107/6 242/108/6 234/103/6
f 242/108/6 243/109/6 234/103/6
f 243/109/6 244/110/6 234/103/6
f 244/110/6 245/111/6 234/103/6
f 245/111/6 246/112/6 234/103/6
f 246/112/6 235/113/6 234/103/6
f 235/113/6 236/101/6 234/103/6
f 313/216/6 311/217/6 314/218/6
f 314/218/6 311/217/6 315/219/6
f 315/219/6 311/217/6 316/220/6
f 316/220/6 311/217/6 317/221/6
f 317/221/6 311/217/6 318/222/6
f 318/222/6 311/217/6 319/223/6
f 319/223/6 311/217/6 320/224/6
f 320/224/6 311/217/6 321/225/6
f 321/225/6 311/217/6 322/226/6
f 322/226/6 311/217/6 323/227/6
f 323/227/6 311/217/6 312/228/6
f 312/228/6 311/217/6 313/216/6
