# Blender 5.2.0 LTS
# www.blender.org
mtllib ks_vr_r_400_left.mtl
o cube
v -0.062500 3.875000 -0.162500
v 0.656250 3.125000 0.125000
v 0.656250 3.125000 -0.125000
v 0.656250 2.125000 0.125000
v 0.656250 2.125000 -0.125000
v 0.406250 3.125000 0.125000
v 0.406250 3.125000 -0.125000
v 0.406250 2.125000 0.125000
v 0.406250 2.125000 -0.125000
v 0.656250 3.687500 0.125000
v 0.656250 3.687500 -0.125000
v 0.406250 3.687500 0.125000
v 0.406250 3.687500 -0.125000
v 0.656250 1.125000 0.125000
v 0.656250 1.125000 -0.125000
v 0.406250 1.125000 0.125000
v 0.406250 1.125000 -0.125000
v 0.656250 0.312500 0.125000
v 0.656250 0.312500 -0.125000
v 0.406250 0.312500 0.125000
v 0.406250 0.312500 -0.125000
v 0.406250 0.625000 -0.062500
v 0.406250 0.625000 -0.125000
v 0.406250 0.562500 -0.062500
v 0.406250 0.562500 -0.125000
v 0.218750 0.625000 -0.062500
v 0.218750 0.625000 -0.125000
v 0.218750 0.562500 -0.062500
v 0.218750 0.562500 -0.125000
v 0.406250 0.625000 0.125000
v 0.406250 0.625000 0.062500
v 0.406250 0.562500 0.125000
v 0.406250 0.562500 0.062500
v 0.218750 0.625000 0.125000
v 0.218750 0.625000 0.062500
v 0.218750 0.562500 0.125000
v 0.218750 0.562500 0.062500
v 0.281250 0.625000 0.062500
v 0.281250 0.625000 -0.062500
v 0.281250 0.562500 0.062500
v 0.281250 0.562500 -0.062500
v 0.406250 1.000000 0.125000
v 0.406250 1.000000 0.062500
v 0.406250 0.937500 0.125000
v 0.406250 0.937500 0.062500
v 0.218750 1.000000 0.125000
v 0.218750 1.000000 0.062500
v 0.218750 0.937500 0.125000
v 0.218750 0.937500 0.062500
v 0.281250 1.000000 0.062500
v 0.281250 1.000000 -0.062500
v 0.281250 0.937500 0.062500
v 0.281250 0.937500 -0.062500
v 0.218750 1.000000 -0.062500
v 0.218750 0.937500 -0.062500
v 0.406250 1.000000 -0.062500
v 0.406250 1.000000 -0.125000
v 0.406250 0.937500 -0.062500
v 0.406250 0.937500 -0.125000
v 0.218750 1.000000 -0.125000
v 0.218750 0.937500 -0.125000
v 0.406250 1.375000 -0.062500
v 0.406250 1.375000 -0.125000
v 0.406250 1.312500 -0.062500
v 0.406250 1.312500 -0.125000
v 0.218750 1.375000 -0.062500
v 0.218750 1.375000 -0.125000
v 0.218750 1.312500 -0.062500
v 0.218750 1.312500 -0.125000
v 0.281250 1.375000 0.062500
v 0.281250 1.375000 -0.062500
v 0.281250 1.312500 0.062500
v 0.281250 1.312500 -0.062500
v 0.218750 1.375000 0.062500
v 0.218750 1.312500 0.062500
v 0.406250 1.375000 0.125000
v 0.406250 1.375000 0.062500
v 0.406250 1.312500 0.125000
v 0.406250 1.312500 0.062500
v 0.218750 1.375000 0.125000
v 0.218750 1.312500 0.125000
v 0.062500 5.000000 -0.156250
v 0.062500 5.000000 -0.218750
v 0.062500 3.875000 -0.156250
v 0.062500 3.875000 -0.218750
v -0.062500 5.000000 -0.156250
v -0.062500 5.000000 -0.218750
v -0.062500 3.875000 -0.156250
v -0.062500 3.875000 -0.218750
v 0.062500 5.000000 0.218750
v 0.062500 5.000000 0.093750
v 0.062500 3.875000 0.218750
v 0.062500 3.875000 0.093750
v -0.062500 5.000000 0.218750
v -0.062500 5.000000 0.093750
v -0.062500 3.875000 0.218750
v -0.062500 3.875000 0.093750
v 0.062500 4.937500 0.093750
v 0.062500 4.937500 -0.156250
v -0.062500 4.937500 0.093750
v -0.062500 4.937500 -0.156250
v 0.062500 4.562500 0.093750
v 0.062500 4.562500 -0.156250
v 0.062500 4.500000 0.093750
v 0.062500 4.500000 -0.156250
v -0.062500 4.562500 0.093750
v -0.062500 4.562500 -0.156250
v -0.062500 4.500000 0.093750
v -0.062500 4.500000 -0.156250
v 0.062500 4.125000 0.093750
v 0.062500 4.125000 -0.156250
v 0.062500 3.937500 0.093750
v 0.062500 3.937500 -0.156250
v -0.062500 4.125000 0.093750
v -0.062500 4.125000 -0.156250
v -0.062500 3.937500 0.093750
v -0.062500 3.937500 -0.156250
v 0.593750 3.250000 0.187500
v 0.593750 3.250000 0.125000
v 0.593750 3.187500 0.187500
v 0.593750 3.187500 0.125000
v 0.218750 3.250000 0.187500
v 0.218750 3.250000 0.125000
v 0.218750 3.187500 0.187500
v 0.218750 3.187500 0.125000
v 0.843750 2.750000 0.187500
v 0.843750 2.750000 0.125000
v 0.843750 2.687500 0.187500
v 0.843750 2.687500 0.125000
v 0.468750 2.750000 0.187500
v 0.468750 2.750000 0.125000
v 0.468750 2.687500 0.187500
v 0.468750 2.687500 0.125000
v 0.593750 2.250000 0.187500
v 0.593750 2.250000 0.125000
v 0.593750 2.187500 0.187500
v 0.593750 2.187500 0.125000
v 0.218750 2.250000 0.187500
v 0.218750 2.250000 0.125000
v 0.218750 2.187500 0.187500
v 0.218750 2.187500 0.125000
v 0.843750 1.750000 0.187500
v 0.843750 1.750000 0.125000
v 0.843750 1.687500 0.187500
v 0.843750 1.687500 0.125000
v 0.468750 1.750000 0.187500
v 0.468750 1.750000 0.125000
v 0.468750 1.687500 0.187500
v 0.468750 1.687500 0.125000
v 0.906250 0.250000 0.375000
v 0.906250 0.250000 -0.375000
v 0.906250 -0.187500 0.375000
v 0.906250 -0.187500 -0.375000
v 0.156250 0.250000 0.375000
v 0.156250 0.250000 -0.375000
v 0.156250 -0.187500 0.375000
v 0.156250 -0.187500 -0.375000
v 0.843750 0.312500 0.250000
v 0.843750 0.312500 -0.250000
v 0.843750 0.250000 0.250000
v 0.843750 0.250000 -0.250000
v 0.218750 0.312500 0.250000
v 0.218750 0.312500 -0.250000
v 0.218750 0.250000 0.250000
v 0.218750 0.250000 -0.250000
v 0.796415 0.286612 -0.037500
v 0.796415 0.286612 -0.118750
v 0.708027 0.198223 -0.037500
v 0.708027 0.198223 -0.118750
v 0.575444 0.507583 -0.037500
v 0.575444 0.507583 -0.118750
v 0.487056 0.419194 -0.037500
v 0.487056 0.419194 -0.118750
v 0.494638 0.515165 -0.037500
v 0.494638 0.515165 -0.118750
v 0.583027 0.426777 -0.037500
v 0.583027 0.426777 -0.118750
v 0.273667 0.294194 -0.037500
v 0.273667 0.294194 -0.118750
v 0.362056 0.205806 -0.037500
v 0.362056 0.205806 -0.118750
v 0.494638 0.515165 0.118750
v 0.494638 0.515165 0.037500
v 0.583027 0.426777 0.118750
v 0.583027 0.426777 0.037500
v 0.273667 0.294194 0.118750
v 0.273667 0.294194 0.037500
v 0.362056 0.205806 0.118750
v 0.362056 0.205806 0.037500
v 0.796415 0.286612 0.118750
v 0.796415 0.286612 0.037500
v 0.708027 0.198223 0.118750
v 0.708027 0.198223 0.037500
v 0.575444 0.507583 0.118750
v 0.575444 0.507583 0.037500
v 0.487056 0.419194 0.118750
v 0.487056 0.419194 0.037500
v 0.843750 1.312500 0.500000
v 0.843750 1.312500 0.125000
v 0.843750 0.500000 0.500000
v 0.843750 0.500000 0.125000
v 0.218750 1.312500 0.500000
v 0.218750 0.500000 0.500000
v 0.218750 0.500000 0.125000
v 0.562500 3.640165 0.118750
v 0.562500 3.640165 0.068750
v 0.429917 3.507582 0.118750
v 0.429917 3.507582 0.068750
v 0.341529 3.861136 0.118750
v 0.341529 3.861136 0.068750
v 0.208947 3.728553 0.118750
v 0.208947 3.728553 0.068750
v 0.562500 3.640165 -0.068750
v 0.562500 3.640165 -0.118750
v 0.429917 3.507582 -0.068750
v 0.429917 3.507582 -0.118750
v 0.341529 3.861136 -0.068750
v 0.341529 3.861136 -0.118750
v 0.208947 3.728553 -0.068750
v 0.208947 3.728553 -0.118750
v 0.375000 3.875000 0.250000
v 0.375000 3.875000 -0.250000
v 0.375000 3.812500 0.250000
v 0.375000 3.812500 -0.250000
v -0.187500 3.875000 0.250000
v -0.187500 3.875000 -0.250000
v -0.187500 3.812500 0.250000
v -0.187500 3.812500 -0.250000
v 0.656250 3.812500 0.187500
v 0.656250 3.812500 -0.187500
v 0.656250 3.687500 0.187500
v 0.656250 3.687500 -0.187500
v -0.187500 3.812500 0.187500
v -0.187500 3.812500 -0.187500
v -0.187500 3.687500 0.187500
v -0.187500 3.687500 -0.187500
v 0.656250 3.875000 0.187500
v 0.656250 3.875000 -0.187500
v 0.375000 3.875000 0.187500
v 0.375000 3.875000 -0.187500
v 0.375000 3.812500 0.187500
v 0.375000 3.812500 -0.187500
v -0.125000 3.812500 -0.187500
v -0.125000 3.812500 -0.250000
v -0.125000 3.687500 -0.187500
v -0.062500 3.812500 -0.187500
v -0.062500 3.812500 -0.250000
v -0.062500 3.687500 -0.187500
v 0.062500 3.812500 -0.187500
v 0.062500 3.812500 -0.250000
v 0.062500 3.687500 -0.187500
v 0.125000 3.812500 -0.187500
v 0.125000 3.812500 -0.250000
v 0.125000 3.687500 -0.187500
v 0.250000 3.812500 -0.187500
v 0.250000 3.812500 -0.250000
v 0.250000 3.687500 -0.187500
v 0.312500 3.812500 -0.187500
v 0.312500 3.812500 -0.250000
v 0.312500 3.687500 -0.187500
v -0.125000 3.812500 0.187500
v -0.125000 3.812500 0.250000
v -0.125000 3.687500 0.187500
v -0.062500 3.812500 0.187500
v -0.062500 3.812500 0.250000
v -0.062500 3.687500 0.187500
v 0.062500 3.812500 0.187500
v 0.062500 3.812500 0.250000
v 0.062500 3.687500 0.187500
v 0.125000 3.812500 0.187500
v 0.125000 3.812500 0.250000
v 0.125000 3.687500 0.187500
v 0.250000 3.812500 0.187500
v 0.250000 3.812500 0.250000
v 0.250000 3.687500 0.187500
v 0.312500 3.812500 0.187500
v 0.312500 3.812500 0.250000
v 0.312500 3.687500 0.187500
v 0.125000 3.687500 0.062500
v 0.125000 3.687500 -0.062500
v 0.125000 3.437500 0.062500
v 0.125000 3.437500 -0.062500
v 0.062500 3.687500 0.062500
v 0.062500 3.687500 -0.062500
v 0.062500 3.437500 0.062500
v 0.062500 3.437500 -0.062500
v -0.062500 3.687500 0.031250
v -0.062500 3.687500 -0.031250
v -0.062500 3.568750 0.031250
v -0.062500 3.568750 -0.031250
v -0.109375 3.687500 0.031250
v -0.109375 3.687500 -0.031250
v -0.109375 3.568750 0.031250
v -0.109375 3.568750 -0.031250
v 0.218750 3.490625 0.031250
v 0.218750 3.490625 -0.031250
v 0.218750 3.443750 0.031250
v 0.218750 3.443750 -0.031250
v 0.015625 3.490625 0.031250
v 0.015625 3.490625 -0.031250
v 0.015625 3.443750 0.031250
v 0.015625 3.443750 -0.031250
v 0.406250 3.553125 0.031250
v 0.406250 3.553125 -0.031250
v 0.406250 3.506250 0.031250
v 0.406250 3.506250 -0.031250
v -0.062500 4.000000 0.212500
v -0.062500 4.000000 0.100000
v -0.125000 3.875000 0.212500
v -0.125000 3.875000 0.100000
v -0.062500 3.875000 0.212500
v -0.062500 3.875000 0.100000
v 0.000000 4.000000 0.212500
v 0.000000 4.000000 0.100000
v -0.062500 4.000000 -0.162500
v -0.062500 4.000000 -0.212500
v -0.125000 3.875000 -0.162500
v -0.125000 3.875000 -0.212500
v -0.062500 3.875000 -0.212500
v 0.000000 4.000000 -0.162500
v 0.000000 4.000000 -0.212500
v 0.062500 3.875000 -0.162500
v 0.062500 3.875000 -0.212500
v 0.062500 4.000000 -0.162500
v 0.062500 4.000000 -0.212500
v 0.125000 3.875000 -0.162500
v 0.125000 3.875000 -0.212500
v 0.062500 3.875000 0.212500
v 0.062500 3.875000 0.100000
v 0.062500 4.000000 0.212500
v 0.062500 4.000000 0.100000
v 0.125000 3.875000 0.212500
v 0.125000 3.875000 0.100000
v 1.100000 3.937500 0.275000
v 1.100000 3.937500 -0.693750
v 1.100000 3.875000 0.275000
v 1.100000 3.875000 -0.693750
v 0.381250 3.937500 0.275000
v 0.381250 3.937500 -0.693750
v 0.381250 3.875000 0.275000
v 0.381250 3.875000 -0.693750
v 0.412500 4.437500 -0.256250
v 0.412500 4.437500 -0.725000
v 0.412500 4.406250 -0.256250
v 0.412500 4.406250 -0.725000
v 0.381250 4.437500 -0.256250
v 0.381250 4.437500 -0.725000
v 0.381250 4.406250 -0.256250
v 0.381250 4.406250 -0.725000
v 0.412500 4.875000 -0.256250
v 0.412500 4.875000 -0.725000
v 0.412500 4.843750 -0.256250
v 0.412500 4.843750 -0.725000
v 0.381250 4.875000 -0.256250
v 0.381250 4.875000 -0.725000
v 0.381250 4.843750 -0.256250
v 0.381250 4.843750 -0.725000
v 1.100000 3.937500 -0.756250
v 1.100000 3.875000 -0.756250
v 0.381250 3.937500 -0.756250
v 0.381250 3.875000 -0.756250
v 1.068750 4.437500 -0.725000
v 1.068750 4.437500 -0.756250
v 1.068750 4.406250 -0.725000
v 1.068750 4.406250 -0.756250
v 0.412500 4.437500 -0.756250
v 0.412500 4.406250 -0.756250
v 1.068750 4.875000 -0.725000
v 1.068750 4.875000 -0.756250
v 1.068750 4.843750 -0.725000
v 1.068750 4.843750 -0.756250
v 0.412500 4.875000 -0.756250
v 0.412500 4.843750 -0.756250
v 1.100000 4.875000 -0.725000
v 1.100000 4.875000 -0.756250
v 1.100000 3.937500 -0.725000
v 1.068750 3.937500 -0.725000
v 1.068750 3.937500 -0.756250
v 0.412500 3.937500 -0.725000
v 0.412500 3.937500 -0.756250
v 0.381250 4.875000 -0.756250
v 0.381250 3.937500 -0.725000
v 0.412500 4.875000 -0.225000
v 0.412500 3.937500 -0.225000
v 0.412500 3.937500 -0.256250
v 0.381250 4.875000 -0.225000
v 0.381250 3.937500 -0.225000
v 0.381250 3.937500 -0.256250
v 1.100000 4.875000 0.275000
v 1.100000 4.875000 0.243750
v 1.100000 3.937500 0.243750
v 1.068750 4.875000 0.275000
v 1.068750 4.875000 0.243750
v 1.068750 3.937500 0.275000
v 1.068750 3.937500 0.243750
v 1.100000 4.843750 0.243750
v 1.100000 4.843750 -0.725000
v 1.068750 4.843750 0.243750
v 1.100000 4.437500 0.243750
v 1.100000 4.437500 -0.725000
v 1.100000 4.406250 0.243750
v 1.100000 4.406250 -0.725000
v 1.068750 4.437500 0.243750
v 1.068750 4.406250 0.243750
v 0.850000 3.875000 0.243750
v 0.850000 3.875000 -0.693750
v 0.850000 3.812500 0.243750
v 0.850000 3.812500 -0.693750
v 0.662500 3.875000 0.243750
v 0.662500 3.875000 -0.693750
v 0.662500 3.812500 0.243750
v 0.662500 3.812500 -0.693750
v 0.725000 3.812500 0.243750
v 0.725000 3.812500 -0.693750
v 0.725000 3.687500 0.243750
v 0.725000 3.687500 -0.693750
v 0.662500 3.687500 0.243750
v 0.662500 3.687500 -0.693750
v 0.375000 6.000000 -0.437500
v 0.375000 6.000000 -0.500000
v 0.375000 5.000000 -0.437500
v 0.375000 5.000000 -0.500000
v -0.375000 6.000000 -0.437500
v -0.375000 6.000000 -0.500000
v -0.375000 5.000000 -0.437500
v -0.375000 5.000000 -0.500000
v 0.312500 6.000000 -0.312500
v 0.312500 6.000000 -0.437500
v 0.312500 5.000000 -0.312500
v 0.312500 5.000000 -0.437500
v -0.312500 6.000000 -0.312500
v -0.312500 6.000000 -0.437500
v -0.312500 5.000000 -0.312500
v -0.312500 5.000000 -0.437500
v 0.156250 5.515625 -0.534375
v 0.181370 5.609375 -0.534375
v 0.224880 5.584255 -0.534375
v 0.250000 5.540745 -0.534375
v 0.250000 5.490505 -0.534375
v 0.224880 5.446995 -0.534375
v 0.181370 5.421875 -0.534375
v 0.131130 5.421875 -0.534375
v 0.087620 5.446995 -0.534375
v 0.062500 5.490505 -0.534375
v 0.062500 5.540745 -0.534375
v 0.087620 5.584255 -0.534375
v 0.131130 5.609375 -0.534375
v 0.183464 5.617188 -0.500000
v 0.183464 5.617188 -0.562500
v 0.176050 5.589520 -0.500000
v 0.176050 5.589520 -0.562500
v 0.230599 5.589974 -0.500000
v 0.230599 5.589974 -0.562500
v 0.210345 5.569720 -0.500000
v 0.210345 5.569720 -0.562500
v 0.257812 5.542839 -0.500000
v 0.257812 5.542839 -0.562500
v 0.230145 5.535425 -0.500000
v 0.230145 5.535425 -0.562500
v 0.257812 5.488411 -0.500000
v 0.257812 5.488411 -0.562500
v 0.230145 5.495825 -0.500000
v 0.230145 5.495825 -0.562500
v 0.230599 5.441276 -0.500000
v 0.230599 5.441276 -0.562500
v 0.210345 5.461530 -0.500000
v 0.210345 5.461530 -0.562500
v 0.183464 5.414062 -0.500000
v 0.183464 5.414062 -0.562500
v 0.176050 5.441730 -0.500000
v 0.176050 5.441730 -0.562500
v 0.129036 5.414062 -0.500000
v 0.129036 5.414062 -0.562500
v 0.136450 5.441730 -0.500000
v 0.136450 5.441730 -0.562500
v 0.081901 5.441276 -0.500000
v 0.081901 5.441276 -0.562500
v 0.102155 5.461530 -0.500000
v 0.102155 5.461530 -0.562500
v 0.054688 5.488411 -0.500000
v 0.054688 5.488411 -0.562500
v 0.082355 5.495825 -0.500000
v 0.082355 5.495825 -0.562500
v 0.054688 5.542839 -0.500000
v 0.054688 5.542839 -0.562500
v 0.082355 5.535425 -0.500000
v 0.082355 5.535425 -0.562500
v 0.081901 5.589974 -0.500000
v 0.081901 5.589974 -0.562500
v 0.102155 5.569720 -0.500000
v 0.102155 5.569720 -0.562500
v 0.129036 5.617188 -0.500000
v 0.129036 5.617188 -0.562500
v 0.136450 5.589520 -0.500000
v 0.136450 5.589520 -0.562500
v 0.218750 5.653125 -0.500000
v 0.218750 5.653125 -0.937500
v 0.218750 5.621875 -0.500000
v 0.218750 5.621875 -0.937500
v 0.093750 5.653125 -0.500000
v 0.093750 5.653125 -0.937500
v 0.093750 5.621875 -0.500000
v 0.093750 5.621875 -0.937500
v 0.027459 5.543750 -0.500000
v 0.027459 5.543750 -0.562500
v 0.027459 5.480139 -0.500000
v 0.027459 5.480139 -0.562500
v -0.003791 5.543750 -0.500000
v -0.003791 5.543750 -0.562500
v -0.003791 5.480139 -0.500000
v -0.003791 5.480139 -0.562500
v 0.315625 5.543750 -0.500000
v 0.315625 5.543750 -0.562500
v 0.315625 5.480139 -0.500000
v 0.315625 5.480139 -0.562500
v 0.284375 5.543750 -0.500000
v 0.284375 5.543750 -0.562500
v 0.284375 5.480139 -0.500000
v 0.284375 5.480139 -0.562500
v -0.156250 5.515625 -0.534375
v -0.131130 5.609375 -0.534375
v -0.087620 5.584255 -0.534375
v -0.062500 5.540745 -0.534375
v -0.062500 5.490505 -0.534375
v -0.087620 5.446995 -0.534375
v -0.131130 5.421875 -0.534375
v -0.181370 5.421875 -0.534375
v -0.224880 5.446995 -0.534375
v -0.250000 5.490505 -0.534375
v -0.250000 5.540745 -0.534375
v -0.224880 5.584255 -0.534375
v -0.181370 5.609375 -0.534375
v -0.129036 5.617188 -0.500000
v -0.129036 5.617188 -0.562500
v -0.136450 5.589520 -0.500000
v -0.136450 5.589520 -0.562500
v -0.081901 5.589974 -0.500000
v -0.081901 5.589974 -0.562500
v -0.102155 5.569720 -0.500000
v -0.102155 5.569720 -0.562500
v -0.054688 5.542839 -0.500000
v -0.054688 5.542839 -0.562500
v -0.082355 5.535425 -0.500000
v -0.082355 5.535425 -0.562500
v -0.054688 5.488411 -0.500000
v -0.054688 5.488411 -0.562500
v -0.082355 5.495825 -0.500000
v -0.082355 5.495825 -0.562500
v -0.081901 5.441276 -0.500000
v -0.081901 5.441276 -0.562500
v -0.102155 5.461530 -0.500000
v -0.102155 5.461530 -0.562500
v -0.129036 5.414062 -0.500000
v -0.129036 5.414062 -0.562500
v -0.136450 5.441730 -0.500000
v -0.136450 5.441730 -0.562500
v -0.183464 5.414062 -0.500000
v -0.183464 5.414062 -0.562500
v -0.176050 5.441730 -0.500000
v -0.176050 5.441730 -0.562500
v -0.230599 5.441276 -0.500000
v -0.230599 5.441276 -0.562500
v -0.210345 5.461530 -0.500000
v -0.210345 5.461530 -0.562500
v -0.257812 5.488411 -0.500000
v -0.257812 5.488411 -0.562500
v -0.230145 5.495825 -0.500000
v -0.230145 5.495825 -0.562500
v -0.257812 5.542839 -0.500000
v -0.257812 5.542839 -0.562500
v -0.230145 5.535425 -0.500000
v -0.230145 5.535425 -0.562500
v -0.230599 5.589974 -0.500000
v -0.230599 5.589974 -0.562500
v -0.210345 5.569720 -0.500000
v -0.210345 5.569720 -0.562500
v -0.183464 5.617188 -0.500000
v -0.183464 5.617188 -0.562500
v -0.176050 5.589520 -0.500000
v -0.176050 5.589520 -0.562500
v -0.093750 5.653125 -0.500000
v -0.093750 5.653125 -0.937500
v -0.093750 5.621875 -0.500000
v -0.093750 5.621875 -0.937500
v -0.218750 5.653125 -0.500000
v -0.218750 5.653125 -0.937500
v -0.218750 5.621875 -0.500000
v -0.218750 5.621875 -0.937500
v -0.285041 5.543750 -0.500000
v -0.285041 5.543750 -0.562500
v -0.285041 5.480139 -0.500000
v -0.285041 5.480139 -0.562500
v -0.316291 5.543750 -0.500000
v -0.316291 5.543750 -0.562500
v -0.316291 5.480139 -0.500000
v -0.316291 5.480139 -0.562500
v 0.003125 5.543750 -0.500000
v 0.003125 5.543750 -0.562500
v 0.003125 5.480139 -0.500000
v 0.003125 5.480139 -0.562500
v -0.028125 5.543750 -0.500000
v -0.028125 5.543750 -0.562500
v -0.028125 5.480139 -0.500000
v -0.028125 5.480139 -0.562500
v 0.265625 5.234375 -0.500000
v 0.265625 5.234375 -0.687500
v 0.265625 5.203125 -0.500000
v 0.265625 5.203125 -0.687500
v 0.171875 5.234375 -0.500000
v 0.171875 5.234375 -0.687500
v 0.171875 5.203125 -0.500000
v 0.171875 5.203125 -0.687500
v 0.218750 5.140625 -0.525000
v 0.233404 5.085938 -0.525000
v 0.258784 5.100591 -0.525000
v 0.273438 5.125971 -0.525000
v 0.273438 5.155279 -0.525000
v 0.258784 5.180659 -0.525000
v 0.233404 5.195312 -0.525000
v 0.204096 5.195312 -0.525000
v 0.178716 5.180659 -0.525000
v 0.164062 5.155279 -0.525000
v 0.164062 5.125971 -0.525000
v 0.178716 5.100591 -0.525000
v 0.204096 5.085938 -0.525000
v 0.235497 5.078125 -0.546875
v 0.235497 5.078125 -0.484375
v 0.227714 5.107170 -0.546875
v 0.227714 5.107170 -0.484375
v 0.264503 5.094872 -0.546875
v 0.264503 5.094872 -0.484375
v 0.243241 5.116134 -0.546875
v 0.243241 5.116134 -0.484375
v 0.281250 5.123878 -0.546875
v 0.281250 5.123878 -0.484375
v 0.252205 5.131660 -0.546875
v 0.252205 5.131660 -0.484375
v 0.281250 5.157372 -0.546875
v 0.281250 5.157372 -0.484375
v 0.252205 5.149590 -0.546875
v 0.252205 5.149590 -0.484375
v 0.264503 5.186378 -0.546875
v 0.264503 5.186378 -0.484375
v 0.243241 5.165116 -0.546875
v 0.243241 5.165116 -0.484375
v 0.235497 5.203125 -0.546875
v 0.235497 5.203125 -0.484375
v 0.227714 5.174080 -0.546875
v 0.227714 5.174080 -0.484375
v 0.202003 5.203125 -0.546875
v 0.202003 5.203125 -0.484375
v 0.209786 5.174080 -0.546875
v 0.209786 5.174080 -0.484375
v 0.172997 5.186378 -0.546875
v 0.172997 5.186378 -0.484375
v 0.194259 5.165116 -0.546875
v 0.194259 5.165116 -0.484375
v 0.156250 5.157372 -0.546875
v 0.156250 5.157372 -0.484375
v 0.185295 5.149590 -0.546875
v 0.185295 5.149590 -0.484375
v 0.156250 5.123878 -0.546875
v 0.156250 5.123878 -0.484375
v 0.185295 5.131660 -0.546875
v 0.185295 5.131660 -0.484375
v 0.172997 5.094872 -0.546875
v 0.172997 5.094872 -0.484375
v 0.194259 5.116134 -0.546875
v 0.194259 5.116134 -0.484375
v 0.202003 5.078125 -0.546875
v 0.202003 5.078125 -0.484375
v 0.209786 5.107170 -0.546875
v 0.209786 5.107170 -0.484375
v 0.156629 5.171686 -0.490625
v 0.156629 5.171686 -0.568750
v 0.156629 5.109186 -0.490625
v 0.156629 5.109186 -0.568750
v 0.125379 5.171686 -0.490625
v 0.125379 5.171686 -0.568750
v 0.125379 5.109186 -0.490625
v 0.125379 5.109186 -0.568750
v 0.312879 5.171686 -0.490625
v 0.312879 5.171686 -0.568750
v 0.312879 5.109186 -0.490625
v 0.312879 5.109186 -0.568750
v 0.281629 5.171686 -0.490625
v 0.281629 5.171686 -0.568750
v 0.281629 5.109186 -0.490625
v 0.281629 5.109186 -0.568750
v 0.125000 5.171875 -0.500000
v 0.125000 5.171875 -0.568750
v 0.156250 5.171875 -0.500000
v 0.156250 5.171875 -0.568750
v 0.312500 5.171875 -0.500000
v 0.312500 5.171875 -0.571875
v 0.281250 5.171875 -0.500000
v 0.281250 5.171875 -0.571875
v 0.250000 5.875000 0.671875
v 0.250000 5.875000 0.640625
v 0.250000 5.000000 0.671875
v 0.250000 5.000000 0.640625
v 0.218750 5.875000 0.671875
v 0.218750 5.875000 0.640625
v 0.218750 5.000000 0.671875
v 0.218750 5.000000 0.640625
v -0.218750 5.875000 0.671875
v -0.218750 5.875000 0.640625
v -0.218750 5.000000 0.671875
v -0.218750 5.000000 0.640625
v -0.250000 5.875000 0.671875
v -0.250000 5.875000 0.640625
v -0.250000 5.000000 0.671875
v -0.250000 5.000000 0.640625
v 0.368750 5.884903 0.300697
v 0.368750 5.879477 0.269922
v 0.368750 5.084747 0.441786
v 0.368750 5.079321 0.411011
v 0.337500 5.884903 0.300697
v 0.337500 5.879477 0.269922
v 0.337500 5.084747 0.441786
v 0.337500 5.079321 0.411011
v 0.368750 5.090997 0.441786
v 0.368750 5.080144 0.411486
v 0.243750 4.961646 0.463492
v 0.243750 4.950793 0.433191
v 0.337500 5.090997 0.441786
v 0.337500 5.080144 0.411486
v 0.212500 4.961646 0.463492
v 0.212500 4.950793 0.433191
v -0.350000 5.090997 0.441786
v -0.350000 5.080144 0.411486
v -0.225000 4.961646 0.463492
v -0.225000 4.950793 0.433191
v -0.381250 5.090997 0.441786
v -0.381250 5.080144 0.411486
v -0.256250 4.961646 0.463492
v -0.256250 4.950793 0.433191
v -0.350000 5.884903 0.300697
v -0.350000 5.879477 0.269922
v -0.350000 5.084747 0.441786
v -0.350000 5.079321 0.411011
v -0.381250 5.884903 0.300697
v -0.381250 5.879477 0.269922
v -0.381250 5.084747 0.441786
v -0.381250 5.079321 0.411011
v 0.312500 5.906250 0.671875
v 0.312500 5.906250 0.640625
v 0.312500 5.875000 0.671875
v 0.312500 5.875000 0.640625
v -0.312500 5.906250 0.671875
v -0.312500 5.906250 0.640625
v -0.312500 5.875000 0.671875
v -0.312500 5.875000 0.640625
v 0.375000 5.818750 -0.343750
v 0.375000 5.818750 -0.437500
v 0.375000 5.000000 -0.343750
v 0.312500 5.818750 -0.343750
v 0.312500 5.818750 -0.437500
v 0.312500 5.000000 -0.343750
v -0.312500 5.818750 -0.343750
v -0.312500 5.818750 -0.437500
v -0.312500 5.000000 -0.343750
v -0.375000 5.818750 -0.343750
v -0.375000 5.818750 -0.437500
v -0.375000 5.000000 -0.343750
v -0.343750 5.906250 0.562500
v -0.343750 5.906250 -0.000000
v -0.343750 5.875000 0.562500
v -0.343750 5.875000 -0.000000
v -0.375000 5.906250 0.562500
v -0.375000 5.906250 -0.000000
v -0.375000 5.875000 0.562500
v -0.375000 5.875000 -0.000000
v 0.250000 5.000000 0.687500
v 0.250000 5.000000 0.218750
v 0.250000 4.937500 0.687500
v 0.250000 4.937500 0.218750
v -0.250000 5.000000 0.687500
v -0.250000 5.000000 0.218750
v -0.250000 4.937500 0.687500
v -0.250000 4.937500 0.218750
v -0.312500 5.906250 0.656250
v -0.312500 5.906250 0.562500
v -0.312500 5.875000 0.656250
v -0.312500 5.875000 0.562500
v -0.375000 5.906250 0.656250
v -0.375000 5.875000 0.656250
v 0.375000 5.906250 0.562500
v 0.375000 5.906250 -0.000000
v 0.375000 5.875000 0.562500
v 0.375000 5.875000 -0.000000
v 0.343750 5.906250 0.562500
v 0.343750 5.906250 -0.000000
v 0.343750 5.875000 0.562500
v 0.343750 5.875000 -0.000000
v 0.375000 5.906250 0.656250
v 0.375000 5.875000 0.656250
v 0.312500 5.906250 0.656250
v 0.312500 5.906250 0.562500
v 0.312500 5.875000 0.656250
v 0.312500 5.875000 0.562500
v 0.375000 4.937500 -0.343750
v 0.375000 4.937500 -0.437500
v -0.375000 4.937500 -0.343750
v -0.375000 4.937500 -0.437500
v 0.125000 4.718750 -0.343750
v 0.125000 4.718750 -0.437500
v 0.125000 4.687500 -0.343750
v 0.125000 4.687500 -0.437500
v -0.125000 4.718750 -0.343750
v -0.125000 4.718750 -0.437500
v -0.125000 4.687500 -0.343750
v -0.125000 4.687500 -0.437500
v 0.062500 4.718750 -0.218750
v 0.062500 4.718750 -0.343750
v 0.062500 4.687500 -0.218750
v 0.062500 4.687500 -0.343750
v -0.062500 4.718750 -0.218750
v -0.062500 4.718750 -0.343750
v -0.062500 4.687500 -0.218750
v -0.062500 4.687500 -0.343750
v -0.102903 4.709597 -0.337500
v -0.102903 4.709597 -0.431250
v -0.125000 4.687500 -0.337500
v -0.125000 4.687500 -0.431250
v -0.352903 4.959597 -0.337500
v -0.352903 4.959597 -0.431250
v -0.375000 4.937500 -0.337500
v -0.375000 4.937500 -0.431250
v 0.352903 4.959597 -0.337500
v 0.352903 4.959597 -0.431250
v 0.375000 4.937500 -0.337500
v 0.375000 4.937500 -0.431250
v 0.102903 4.709597 -0.337500
v 0.102903 4.709597 -0.431250
v 0.125000 4.687500 -0.337500
v 0.125000 4.687500 -0.431250
v 0.068750 5.062500 -0.187500
v 0.068750 5.062500 -0.312500
v 0.068750 4.937500 -0.187500
v 0.068750 4.937500 -0.312500
v -0.068750 5.062500 -0.187500
v -0.068750 5.062500 -0.312500
v -0.068750 4.937500 -0.187500
v -0.068750 4.937500 -0.312500
v -0.343750 5.812500 -0.218750
v -0.343750 5.812500 -0.406250
v -0.343750 5.781250 -0.218750
v -0.343750 5.781250 -0.406250
v -0.406250 5.812500 -0.218750
v -0.406250 5.812500 -0.406250
v -0.406250 5.781250 -0.218750
v -0.406250 5.781250 -0.406250
v -0.343750 5.156250 -0.218750
v -0.343750 5.156250 -0.406250
v -0.343750 5.125000 -0.218750
v -0.343750 5.125000 -0.406250
v -0.406250 5.156250 -0.218750
v -0.406250 5.156250 -0.406250
v -0.406250 5.125000 -0.218750
v -0.406250 5.125000 -0.406250
v 0.406250 5.781250 -0.187500
v 0.406250 5.781250 -0.218750
v 0.406250 5.156250 -0.187500
v 0.406250 5.156250 -0.218750
v 0.343750 5.781250 -0.187500
v 0.343750 5.781250 -0.218750
v 0.343750 5.156250 -0.187500
v 0.343750 5.156250 -0.218750
v 0.406250 5.125000 -0.218750
v 0.343750 5.125000 -0.218750
v 0.406250 5.812500 -0.218750
v 0.406250 5.812500 -0.406250
v 0.406250 5.781250 -0.406250
v 0.343750 5.812500 -0.218750
v 0.343750 5.812500 -0.406250
v 0.343750 5.781250 -0.406250
v -0.343750 5.781250 -0.187500
v -0.406250 5.781250 -0.187500
v 0.406250 5.156250 -0.406250
v 0.406250 5.125000 -0.406250
v 0.343750 5.156250 -0.406250
v 0.343750 5.125000 -0.406250
v -0.343750 5.156250 -0.187500
v -0.406250 5.156250 -0.187500
v 0.250000 5.000000 0.681250
v 0.062500 4.937500 0.218750
v 0.250000 4.937500 0.681250
v 0.062500 4.875000 0.218750
v 0.187500 5.000000 0.681250
v 0.000000 4.937500 0.218750
v 0.187500 4.937500 0.681250
v 0.000000 4.875000 0.218750
v -0.187500 5.000000 0.681250
v -0.187500 4.937500 0.681250
v -0.250000 5.000000 0.681250
v -0.062500 4.937500 0.218750
v -0.250000 4.937500 0.681250
v -0.062500 4.875000 0.218750
vn 1.0000 -0.0000 -0.0000
vn -1.0000 -0.0000 -0.0000
vn -0.0000 1.0000 -0.0000
vn -0.0000 -1.0000 -0.0000
vn -0.0000 -0.0000 1.0000
vn -0.0000 -0.0000 -1.0000
vn 0.7071 -0.7071 -0.0000
vn -0.7071 0.7071 -0.0000
vn 0.7071 0.7071 -0.0000
vn -0.7071 -0.7071 -0.0000
vn -0.0000 -0.4472 -0.8944
vn -0.0000 -0.4472 0.8944
vn -0.3162 0.9487 -0.0000
vn 0.3162 -0.9487 -0.0000
vn -0.8944 0.4472 -0.0000
vn 0.8944 -0.4472 -0.0000
vn -0.8944 -0.4472 -0.0000
vn 0.8944 0.4472 -0.0000
vn 0.5000 0.8660 -0.0000
vn -0.5000 -0.8660 -0.0000
vn 0.8660 0.5000 -0.0000
vn -0.8660 -0.5000 -0.0000
vn 0.8660 -0.5000 -0.0000
vn -0.8660 0.5000 -0.0000
vn 0.5000 -0.8660 -0.0000
vn -0.5000 0.8660 -0.0000
vn 0.7486 0.6630 -0.0000
vn -0.7657 -0.6432 -0.0000
vn -0.0001 -0.9600 -0.2800
vn 0.7625 -0.6470 -0.0000
vn -0.7463 0.6656 -0.0000
vn 0.0001 -0.9790 -0.2039
vn 0.0001 -0.9790 -0.2040
vn -0.0001 -0.9600 -0.2799
vn -0.8000 0.6000 -0.0000
vn -0.9302 0.0001 -0.3671
vn -0.9301 0.0001 -0.3672
vn 0.8000 0.6000 -0.0000
vn 0.9267 0.0001 -0.3757
vn -0.0000 0.9848 -0.1736
vn -0.0000 -0.9848 0.1736
vn -0.0000 0.1736 0.9848
vn -0.0000 -0.1736 -0.9848
vn 0.7184 -0.6549 0.2346
vn -0.7184 0.6549 -0.2346
vn -0.0000 0.9414 -0.3372
vn -0.0000 -0.9414 0.3372
vn -0.0000 0.1655 0.9862
vn -0.0000 -0.1655 -0.9862
vn 0.7184 0.6549 -0.2346
vn -0.7184 -0.6549 0.2346
vn -0.0000 -0.7071 0.7071
vn -0.0000 0.7071 0.7071
vn 0.9267 -0.0000 -0.3757
vn -0.9267 -0.0000 0.3757
vn -0.0000 0.9910 -0.1339
vn -0.0000 -0.9910 0.1339
vn 0.9267 -0.0000 0.3757
vn -0.9267 -0.0000 -0.3757
vt 0.015625 0.750000
vt 0.015625 1.000000
vt 0.078125 1.000000
vt 0.078125 0.750000
vt 0.000000 0.921875
vt 0.000000 0.984375
vt 0.062500 0.984375
vt 0.062500 0.921875
vt 0.000000 0.750000
vt 0.000000 1.000000
vt 0.062500 1.000000
vt 0.062500 0.750000
vt 0.015625 0.859375
vt 0.078125 0.859375
vt 0.000000 0.859375
vt 0.062500 0.859375
vt 0.015625 0.796875
vt 0.078125 0.796875
vt 0.000000 0.796875
vt 0.062500 0.796875
vt 0.000000 0.968750
vt 0.015625 0.984375
vt 0.015625 0.968750
vt 0.031250 0.984375
vt 0.031250 0.968750
vt 0.062500 0.968750
vt 0.046875 0.984375
vt 0.046875 0.968750
vt 0.046875 1.000000
vt 0.046875 0.953125
vt 0.062500 0.953125
vt 0.031250 0.750000
vt 0.031250 1.000000
vt 0.046875 0.750000
vt 0.171875 0.937500
vt 0.171875 0.953125
vt 0.109375 0.953125
vt 0.109375 0.937500
vt 0.028125 0.937500
vt 0.028125 1.000000
vt 0.000000 0.937500
vt 0.028125 0.984375
vt 0.156250 0.906250
vt 0.156250 0.921875
vt 0.093750 0.921875
vt 0.093750 0.906250
vt 0.046875 0.937500
vt 0.140625 0.906250
vt 0.140625 0.921875
vt 0.156250 0.875000
vt 0.093750 0.875000
vt 0.734375 0.718750
vt 0.734375 0.734375
vt 0.750000 0.734375
vt 0.750000 0.718750
vt 0.500000 0.718750
vt 0.500000 0.734375
vt 0.609375 0.734375
vt 0.609375 0.718750
vt 0.000000 0.578125
vt 0.000000 0.687500
vt 0.187500 0.687500
vt 0.187500 0.578125
vt 0.000000 0.500000
vt 0.187500 0.500000
vt 0.140625 1.000000
vt 0.140625 0.984375
vt 0.156250 0.984375
vt 0.156250 0.859375
vt 0.156250 1.000000
vt 0.007812 0.968750
vt 0.007812 1.000000
vt 0.028125 0.968750
vt 0.020312 1.000000
vt 0.020312 0.968750
vt 0.000000 0.971875
vt 0.000000 0.992188
vt 0.078125 0.992188
vt 0.078125 0.971875
vt 0.000000 0.979688
vt 0.078125 0.979688
vt 0.078125 0.968750
vt 0.437500 0.843750
vt 0.437500 1.000000
vt 0.515625 1.000000
vt 0.515625 0.843750
vt 0.265625 0.750000
vt 0.265625 0.828125
vt 0.390625 0.828125
vt 0.390625 0.750000
vt 0.265625 0.843750
vt 0.265625 1.000000
vt 0.390625 1.000000
vt 0.390625 0.843750
vt 0.078125 0.953125
vt 0.090625 1.000000
vt 0.090625 0.953125
vt 0.000000 0.953125
vt 0.012500 1.000000
vt 0.012500 0.953125
vt 0.000000 0.909375
vt 0.078125 0.921875
vt 0.078125 0.909375
vt 0.000000 0.987500
vt 0.078125 0.987500
vt 0.125000 1.000000
vt 0.125000 0.984375
vt 0.078125 0.875000
vt 0.218750 1.000000
vt 0.218750 0.875000
vt 0.078125 0.984375
vt 0.218750 0.984375
vt 0.109375 1.000000
vt 0.109375 0.968750
vt 0.000000 0.000000
vt 0.000000 0.093750
vt 0.210938 0.093750
vt 0.210938 0.000000
vt 0.015625 0.906250
vt 0.226562 1.000000
vt 0.226562 0.906250
vt 0.218750 0.968750
vt 0.210938 1.000000
vt 0.210938 0.968750
vt 0.015625 0.937500
vt 0.015625 0.953125
vt 0.007812 0.937500
vt 0.007812 0.953125
vt 0.101562 0.953125
vt 0.101562 0.937500
vt 0.125000 0.968750
vt 0.140625 0.968750
vt 0.031250 0.937500
vt 0.304688 0.423438
vt 0.304688 0.453125
vt 0.320312 0.453125
vt 0.320312 0.423438
vt 0.316406 0.429688
vt 0.316406 0.445312
vt 0.328125 0.445312
vt 0.328125 0.429688
vt 0.316406 0.423438
vt 0.316406 0.453125
vt 0.328125 0.453125
vt 0.328125 0.423438
vt 0.296875 0.423438
vt 0.296875 0.453125
vt 0.308594 0.453125
vt 0.308594 0.423438
vt 0.304688 0.437500
vt 0.304688 0.449219
vt 0.320312 0.449219
vt 0.320312 0.437500
vt 0.296875 0.429688
vt 0.296875 0.445312
vt 0.347656 0.445312
vt 0.347656 0.429688
vt 0.296875 0.437500
vt 0.296875 0.449219
vt 0.347656 0.449219
vt 0.347656 0.437500
vt 0.355469 0.449219
vt 0.355469 0.437500
vt 0.324219 0.445312
vt 0.355469 0.445312
vt 0.355469 0.429688
vt 0.324219 0.429688
vt 0.324219 0.449219
vt 0.324219 0.437500
vt 0.328125 0.449219
vt 0.328125 0.437500
vt 0.000000 0.875000
vt 0.968750 0.937500
vt 0.968750 0.875000
vt 0.031250 0.875000
vt 1.000000 0.937500
vt 1.000000 0.875000
vt 0.281250 0.031250
vt 0.281250 1.000000
vt 1.000000 1.000000
vt 1.000000 0.031250
vt 0.281250 0.000000
vt 0.281250 0.968750
vt 1.000000 0.968750
vt 1.000000 0.000000
vt 0.281250 0.875000
vt 0.281250 0.937500
vt 0.718750 0.937500
vt 0.718750 0.875000
vt 0.000000 0.906250
vt 0.468750 0.937500
vt 0.468750 0.906250
vt 0.531250 0.906250
vt 0.531250 0.937500
vt 1.000000 0.906250
vt 0.937500 0.531250
vt 0.937500 1.000000
vt 0.968750 1.000000
vt 0.968750 0.531250
vt 0.937500 0.000000
vt 0.937500 0.468750
vt 0.968750 0.468750
vt 0.968750 0.000000
vt 0.937500 0.906250
vt 0.937500 0.937500
vt 0.968750 0.906250
vt 0.031250 0.906250
vt 0.062500 0.937500
vt 0.062500 0.906250
vt 0.937500 0.875000
vt 0.062500 0.875000
vt 0.281250 0.062500
vt 1.000000 0.062500
vt 0.312500 0.031250
vt 0.312500 0.062500
vt 0.968750 0.062500
vt 0.968750 0.031250
vt 0.312500 0.937500
vt 0.312500 0.968750
vt 0.968750 0.968750
vt 0.312500 0.906250
vt 0.687500 0.937500
vt 0.687500 0.906250
vt 0.031250 0.000000
vt 0.062500 0.000000
vt 0.312500 0.000000
vt 0.687500 0.000000
vt 0.718750 0.000000
vt 0.250000 0.031250
vt 0.250000 0.062500
vt 0.250000 0.937500
vt 0.250000 0.968750
vt 0.250000 0.000000
vt 0.750000 0.937500
vt 0.750000 0.000000
vt 0.312500 1.000000
vt 0.281250 0.906250
vt 0.718750 0.906250
vt 0.218750 0.937500
vt 0.218750 0.000000
vt 0.031250 0.062500
vt 0.218750 0.062500
vt 0.406250 0.875000
vt 0.406250 0.937500
vt 0.593750 0.937500
vt 0.593750 0.875000
vt 0.062500 0.812500
vt 1.000000 0.812500
vt 0.000000 0.812500
vt 0.937500 0.812500
vt 0.156250 0.000000
vt 0.156250 0.937500
vt 0.156250 0.062500
vt 0.156250 0.812500
vt 0.218750 0.812500
vt 0.406250 0.812500
vt 0.468750 0.812500
vt 0.468750 0.468750
vt 0.468750 0.718750
vt 0.453125 0.718750
vt 0.453125 0.468750
vt 0.296875 0.468750
vt 0.296875 0.718750
vt 0.281250 0.718750
vt 0.281250 0.468750
vt 0.468750 0.703125
vt 0.281250 0.703125
vt 0.468750 0.484375
vt 0.281250 0.484375
vt 0.437500 0.718750
vt 0.437500 0.468750
vt 0.312500 0.468750
vt 0.312500 0.718750
vt 0.468750 0.687500
vt 0.281250 0.687500
vt 0.468750 0.500000
vt 0.281250 0.500000
vt 0.031250 0.109375
vt 0.031250 0.125000
vt 0.000000 0.125000
vt 0.000000 0.109375
vt 0.324762 0.675237
vt 0.375000 0.762263
vt 0.187500 0.812500
vt 0.375000 0.862737
vt 0.324762 0.949763
vt 0.237738 1.000000
vt 0.137262 1.000000
vt 0.050237 0.949763
vt 0.000000 0.862737
vt 0.000000 0.762263
vt 0.050237 0.675237
vt 0.137262 0.625000
vt 0.237738 0.625000
vt 0.296875 0.343750
vt 0.310481 0.343750
vt 0.310481 0.359375
vt 0.296875 0.359375
vt 0.306775 0.359375
vt 0.306775 0.343750
vt 0.296875 0.357521
vt 0.296875 0.347621
vt 0.303793 0.345768
vt 0.303792 0.359375
vt 0.296875 0.352457
vt 0.310482 0.352457
vt 0.308628 0.359375
vt 0.298728 0.359375
vt 0.296875 0.357522
vt 0.296875 0.347622
vt 0.303792 0.345768
vt 0.303793 0.359375
vt 0.308629 0.359375
vt 0.298729 0.359375
vt 0.296875 0.357522
vt 0.296875 0.347622
vt 0.303792 0.345769
vt 0.303792 0.359375
vt 0.298728 0.359375
vt 0.296875 0.352457
vt 0.310482 0.352458
vt 0.303793 0.345768
vt 0.303793 0.359375
vt 0.296875 0.357521
vt 0.296875 0.347621
vt 0.308629 0.359375
vt 0.298729 0.359375
vt 0.296875 0.352458
vt 0.310482 0.352457
vt 0.296875 0.357522
vt 0.308628 0.359375
vt 0.298728 0.359375
vt 0.296875 0.352458
vt 0.310481 0.352458
vt 0.298728 0.352458
vt 0.308628 0.352458
vt 0.303793 0.347622
vt 0.303793 0.357522
vt 0.296876 0.345768
vt 0.310482 0.359375
vt 0.298729 0.352457
vt 0.308629 0.352458
vt 0.303793 0.347621
vt 0.303793 0.357521
vt 0.296876 0.359375
vt 0.296875 0.345768
vt 0.298728 0.352458
vt 0.308628 0.352457
vt 0.303792 0.347622
vt 0.303792 0.357522
vt 0.296875 0.345769
vt 0.298729 0.352457
vt 0.308629 0.352457
vt 0.296875 0.359374
vt 0.303793 0.347622
vt 0.303792 0.357522
vt 0.298728 0.352457
vt 0.308628 0.352457
vt 0.310482 0.359374
vt 0.303792 0.347621
vt 0.303793 0.357521
vt 0.343750 0.351562
vt 0.343750 0.359375
vt 0.312500 0.359375
vt 0.312500 0.351562
vt 0.312500 0.375000
vt 0.281250 0.375000
vt 0.359375 0.367188
vt 0.359375 0.375000
vt 0.328125 0.375000
vt 0.328125 0.367188
vt 0.296875 0.375000
vt 0.296875 0.367188
vt 0.406250 0.452847
vt 0.406250 0.468750
vt 0.390625 0.468750
vt 0.390625 0.452847
vt 0.437500 0.452847
vt 0.421875 0.468750
vt 0.421875 0.452847
vt 0.367802 0.406250
vt 0.367802 0.421875
vt 0.359990 0.421875
vt 0.359990 0.406250
vt 0.367802 0.359375
vt 0.367802 0.375000
vt 0.359990 0.375000
vt 0.359990 0.359375
vt 0.399052 0.390347
vt 0.399052 0.406250
vt 0.391240 0.406250
vt 0.391240 0.390347
vt 0.359375 0.390347
vt 0.359375 0.406250
vt 0.351562 0.406250
vt 0.351562 0.390347
vt 0.375000 0.343472
vt 0.375000 0.359375
vt 0.359375 0.359375
vt 0.359375 0.343472
vt 0.367802 0.453125
vt 0.367802 0.468750
vt 0.359990 0.468750
vt 0.359990 0.453125
vt 0.399052 0.421875
vt 0.399052 0.437500
vt 0.391240 0.437500
vt 0.391240 0.421875
vt 0.414677 0.452847
vt 0.414677 0.468750
vt 0.406865 0.468750
vt 0.406865 0.452847
vt 0.343750 0.343472
vt 0.335938 0.359375
vt 0.335938 0.343472
vt 0.375000 0.421875
vt 0.421875 0.421875
vt 0.375000 0.468750
vt 0.343750 0.343750
vt 0.343750 0.390625
vt 0.296875 0.390625
vt 0.375000 0.375000
vt 0.328125 0.359375
vt 0.390625 0.453125
vt 0.343750 0.453125
vt 0.343750 0.437500
vt 0.390625 0.437500
vt 0.312500 0.406250
vt 0.359375 0.453125
vt 0.312500 0.453125
vt 0.390625 0.390625
vt 0.375000 0.328125
vt 0.375000 0.343750
vt 0.328125 0.343750
vt 0.328125 0.328125
vt 0.312500 0.437500
vt 0.359375 0.437500
vt 0.265625 0.453125
vt 0.265625 0.437500
vt 0.296875 0.406250
vt 0.265625 0.406250
vt 0.210781 0.797031
vt 0.242188 0.851406
vt 0.125000 0.882812
vt 0.242188 0.914219
vt 0.210781 0.968594
vt 0.156406 1.000000
vt 0.093594 1.000000
vt 0.039219 0.968594
vt 0.007812 0.914219
vt 0.007812 0.851406
vt 0.039219 0.797031
vt 0.093594 0.765625
vt 0.156406 0.765625
vt 0.281250 0.343750
vt 0.289622 0.343750
vt 0.289622 0.359375
vt 0.281250 0.359375
vt 0.285731 0.359375
vt 0.285731 0.343750
vt 0.281250 0.357427
vt 0.281250 0.352945
vt 0.288514 0.351001
vt 0.288510 0.359375
vt 0.281250 0.352112
vt 0.289624 0.352112
vt 0.287677 0.359375
vt 0.283195 0.359373
vt 0.281250 0.357431
vt 0.281250 0.352948
vt 0.288510 0.351001
vt 0.288514 0.359375
vt 0.287680 0.359373
vt 0.283197 0.359375
vt 0.281250 0.357430
vt 0.281250 0.352948
vt 0.288511 0.351003
vt 0.288511 0.359375
vt 0.287677 0.359375
vt 0.283194 0.359375
vt 0.281250 0.352111
vt 0.289624 0.352115
vt 0.288513 0.351001
vt 0.288513 0.359375
vt 0.281250 0.357428
vt 0.281252 0.352945
vt 0.287680 0.359375
vt 0.283198 0.359375
vt 0.281250 0.352115
vt 0.289624 0.352111
vt 0.281252 0.357430
vt 0.281250 0.352948
vt 0.287677 0.359375
vt 0.283195 0.359375
vt 0.281250 0.352114
vt 0.289622 0.352114
vt 0.283195 0.352114
vt 0.287677 0.352114
vt 0.288514 0.352948
vt 0.288514 0.357431
vt 0.281254 0.351001
vt 0.289624 0.359375
vt 0.283197 0.352112
vt 0.287680 0.352114
vt 0.288514 0.352945
vt 0.288514 0.357427
vt 0.281254 0.359375
vt 0.281250 0.351001
vt 0.283195 0.352114
vt 0.287677 0.352112
vt 0.288511 0.352948
vt 0.288511 0.357430
vt 0.281250 0.351003
vt 0.283198 0.352111
vt 0.287680 0.352111
vt 0.281250 0.359371
vt 0.288513 0.352948
vt 0.288511 0.357430
vt 0.283194 0.352111
vt 0.287677 0.352111
vt 0.289624 0.359371
vt 0.288511 0.352945
vt 0.288513 0.357428
vt 0.324219 0.421875
vt 0.312500 0.421875
vt 0.343750 0.421875
vt 0.332031 0.437500
vt 0.332031 0.421875
vt 0.328125 0.406250
vt 0.328125 0.417969
vt 0.320312 0.417969
vt 0.320312 0.406250
vt 0.328125 0.347656
vt 0.320312 0.359375
vt 0.320312 0.347656
vt 0.312500 0.390625
vt 0.304688 0.390625
vt 0.304688 0.375000
vt 0.335938 0.515625
vt 0.335938 0.531250
vt 0.328125 0.531250
vt 0.328125 0.515625
vt 0.292969 0.406250
vt 0.292969 0.421875
vt 0.281250 0.421875
vt 0.281250 0.406250
vt 0.300781 0.421875
vt 0.300781 0.406250
vt 0.296875 0.402344
vt 0.289062 0.402344
vt 0.289062 0.390625
vt 0.296875 0.410156
vt 0.296875 0.421875
vt 0.289062 0.421875
vt 0.289062 0.410156
vt 0.328125 0.421875
vt 0.320312 0.421875
vt 0.390625 0.359375
vt 0.390625 0.421875
vt 0.390625 0.343750
vt 0.390625 0.406250
vt 0.359375 0.343750
vt 0.375000 0.406250
vt 0.312500 0.343750
vt 0.375000 0.390625
vt 0.312500 0.328125
vt 0.515625 0.515625
vt 0.515625 0.718750
vt 0.500000 0.515625
vt 0.515625 0.734375
vt 0.937500 0.062500
vt 0.703125 0.718750
vt 0.703125 0.734375
vt 0.546875 0.734375
vt 0.546875 0.718750
vt 0.125000 0.171875
vt 0.125000 0.990625
vt 0.031250 0.990625
vt 0.031250 0.171875
vt 0.093750 0.171875
vt 0.093750 0.990625
vt 0.000000 0.990625
vt 0.000000 0.171875
vt 0.125000 0.906250
vt 0.125000 0.875000
vt 0.062500 0.990625
vt 0.062500 0.171875
vt 0.125000 0.181250
vt 0.031250 0.181250
vt 0.093750 0.181250
vt 0.093750 1.000000
vt 0.000000 0.181250
vt 0.062500 0.181250
vt 0.125000 0.937500
vt 1.000000 0.625000
vt 1.000000 0.687500
vt 0.468750 0.625000
vt 0.843750 0.562500
vt 0.843750 0.625000
vt 0.312500 0.625000
vt 0.312500 0.562500
vt 0.656250 0.218750
vt 0.656250 0.750000
vt 0.156250 0.750000
vt 0.156250 0.218750
vt 0.500000 0.375000
vt 0.500000 0.906250
vt 0.000000 0.375000
vt 0.718750 0.750000
vt 0.718750 0.812500
vt 0.218750 0.750000
vt 0.843750 0.500000
vt 0.343750 0.562500
vt 0.343750 0.500000
vt 0.937500 0.968750
vt 0.843750 0.968750
vt 0.843750 0.937500
vt 0.156250 0.968750
vt 0.125000 0.843750
vt 0.062500 0.843750
vt 0.125000 0.062500
vt 0.125000 0.156250
vt 0.062500 0.156250
vt 0.062500 0.062500
vt 0.562500 0.937500
vt 0.562500 0.968750
vt 0.437500 0.968750
vt 0.437500 0.937500
vt 0.125000 0.000000
vt 0.125000 0.562500
vt 0.093750 0.562500
vt 0.093750 0.000000
vt 0.125000 0.437500
vt 0.093750 0.437500
vt 0.093750 0.968750
vt 0.093750 0.937500
vt 0.750000 0.906250
vt 0.750000 1.000000
vt 0.750000 0.875000
vt 0.750000 0.968750
vt 0.500000 1.000000
vt 0.250000 1.000000
vt 0.250000 0.906250
vt 0.500000 0.875000
vt 0.500000 0.968750
vt 0.250000 0.875000
vt 0.500000 0.937500
vt 0.312500 0.843750
vt 0.603553 0.906250
vt 0.603553 1.000000
vt 0.603553 0.875000
vt 0.603553 0.968750
vt 0.603553 0.937500
vt 0.137500 0.875000
vt 0.137500 1.000000
vt 0.150000 0.875000
vt 0.150000 1.000000
vt 0.012500 0.875000
vt 0.187500 0.968750
vt 0.187500 1.000000
vt 0.125000 0.812500
vt 0.125000 0.343750
vt 0.093750 0.343750
vt 0.031250 0.343750
vt 0.000000 0.343750
vt 0.062500 0.343750
vt 0.468750 1.000000
vt 0.125000 0.531250
vt 0.062500 0.531250
vt 0.125000 0.500000
vt 0.062500 0.500000
s 1
usemtl m_3d215661-f591-00a8-53e2-d8d611c756be.006
f 5/1/1 3/2/1 2/3/1 4/4/1
f 8/1/2 6/2/2 7/3/2 9/4/2
f 2/5/3 3/6/3 7/7/3 6/8/3
f 5/5/4 4/6/4 8/7/4 9/8/4
f 4/9/5 2/10/5 6/11/5 8/12/5
f 9/1/6 7/2/6 3/3/6 5/4/6
f 3/13/1 11/2/1 10/3/1 2/14/1
f 6/13/2 12/2/2 13/3/2 7/14/2
f 10/5/3 11/6/3 13/7/3 12/8/3
f 2/15/5 10/10/5 12/11/5 6/16/5
f 7/13/6 13/2/6 11/3/6 3/14/6
f 15/1/1 5/2/1 4/3/1 14/4/1
f 16/1/2 8/2/2 9/3/2 17/4/2
f 15/5/4 14/6/4 16/7/4 17/8/4
f 14/9/5 4/10/5 8/11/5 16/12/5
f 17/1/6 9/2/6 5/3/6 15/4/6
f 19/17/1 15/2/1 14/3/1 18/18/1
f 20/17/2 16/2/2 17/3/2 21/18/2
f 19/5/4 18/6/4 20/7/4 21/8/4
f 18/19/5 14/10/5 16/11/5 20/20/5
f 21/17/6 17/2/6 15/3/6 19/18/6
f 25/21/1 23/6/1 22/22/1 24/23/1
f 28/23/2 26/22/2 27/24/2 29/25/2
f 22/22/3 23/2/3 27/11/3 26/7/3
f 25/23/4 24/22/4 28/7/4 29/26/4
f 24/23/5 22/22/5 26/7/5 28/26/5
f 29/21/6 27/6/6 23/27/6 25/28/6
f 33/21/1 31/6/1 30/22/1 32/23/1
f 36/23/2 34/22/2 35/24/2 37/25/2
f 30/22/3 31/2/3 35/11/3 34/7/3
f 33/23/4 32/22/4 36/7/4 37/26/4
f 32/23/5 30/22/5 34/7/5 36/26/5
f 37/21/6 35/6/6 31/27/6 33/28/6
f 41/21/1 39/6/1 38/24/1 40/25/1
f 37/23/2 35/22/2 26/27/2 28/28/2
f 38/28/3 39/29/3 26/11/3 35/26/3
f 41/30/4 40/27/4 37/7/4 28/31/4
f 40/28/5 38/27/5 35/7/5 37/26/5
f 28/21/6 26/6/6 39/22/6 41/23/6
f 45/21/1 43/6/1 42/22/1 44/23/1
f 48/23/2 46/22/2 47/24/2 49/25/2
f 42/22/3 43/2/3 47/11/3 46/7/3
f 45/23/4 44/22/4 48/7/4 49/26/4
f 44/23/5 42/22/5 46/7/5 48/26/5
f 49/21/6 47/6/6 43/27/6 45/28/6
f 53/21/1 51/6/1 50/24/1 52/25/1
f 49/23/2 47/22/2 54/27/2 55/28/2
f 50/28/3 51/29/3 54/11/3 47/26/3
f 53/30/4 52/27/4 49/7/4 55/31/4
f 52/28/5 50/27/5 47/7/5 49/26/5
f 55/21/6 54/6/6 51/22/6 53/23/6
f 59/21/1 57/6/1 56/22/1 58/23/1
f 55/23/2 54/22/2 60/24/2 61/25/2
f 56/22/3 57/2/3 60/11/3 54/7/3
f 59/23/4 58/22/4 55/7/4 61/26/4
f 58/23/5 56/22/5 54/7/5 55/26/5
f 61/21/6 60/6/6 57/27/6 59/28/6
f 65/21/1 63/6/1 62/22/1 64/23/1
f 68/23/2 66/22/2 67/24/2 69/25/2
f 62/22/3 63/2/3 67/11/3 66/7/3
f 65/23/4 64/22/4 68/7/4 69/26/4
f 64/23/5 62/22/5 66/7/5 68/26/5
f 69/21/6 67/6/6 63/27/6 65/28/6
f 73/21/1 71/6/1 70/24/1 72/25/1
f 75/23/2 74/22/2 66/27/2 68/28/2
f 70/28/3 71/29/3 66/11/3 74/26/3
f 73/30/4 72/27/4 75/7/4 68/31/4
f 72/28/5 70/27/5 74/7/5 75/26/5
f 68/21/6 66/6/6 71/22/6 73/23/6
f 79/21/1 77/6/1 76/22/1 78/23/1
f 81/23/2 80/22/2 74/24/2 75/25/2
f 76/22/3 77/2/3 74/11/3 80/7/3
f 79/23/4 78/22/4 81/7/4 75/26/4
f 78/23/5 76/22/5 80/7/5 81/26/5
f 75/21/6 74/6/6 77/27/6 79/28/6
f 85/32/1 83/33/1 82/10/1 84/9/1
f 88/32/2 86/33/2 87/10/2 89/9/2
f 82/28/3 83/29/3 87/10/3 86/21/3
f 85/28/4 84/29/4 88/10/4 89/21/4
f 84/34/5 82/29/5 86/10/5 88/9/5
f 89/34/6 87/29/6 83/10/6 85/9/6
f 93/32/1 91/33/1 90/10/1 92/9/1
f 96/32/2 94/33/2 95/10/2 97/9/2
f 90/28/3 91/29/3 95/10/3 94/21/3
f 93/28/4 92/29/4 96/10/4 97/21/4
f 92/34/5 90/29/5 94/10/5 96/9/5
f 97/34/6 95/29/6 91/10/6 93/9/6
f 99/35/1 82/36/1 91/37/1 98/38/1
f 100/35/2 95/36/2 86/37/2 101/38/2
f 91/39/3 82/40/3 86/10/3 95/41/3
f 99/39/4 98/40/4 100/10/4 101/41/4
f 98/42/5 91/40/5 95/10/5 100/6/5
f 101/42/6 86/40/6 82/10/6 99/6/6
f 105/43/1 103/44/1 102/45/1 104/46/1
f 108/43/2 106/44/2 107/45/2 109/46/2
f 102/47/3 103/29/3 107/10/3 106/41/3
f 105/47/4 104/29/4 108/10/4 109/41/4
f 104/48/5 102/49/5 106/45/5 108/46/5
f 109/48/6 107/49/6 103/45/6 105/46/6
f 113/50/1 111/44/1 110/45/1 112/51/1
f 116/50/2 114/44/2 115/45/2 117/51/2
f 110/47/3 111/29/3 115/10/3 114/41/3
f 113/47/4 112/29/4 116/10/4 117/41/4
f 112/48/5 110/49/5 114/45/5 116/46/5
f 117/48/6 115/49/6 111/45/6 113/46/6
f 121/52/1 119/53/1 118/54/1 120/55/1
f 124/52/2 122/53/2 123/54/2 125/55/2
f 118/56/3 119/57/3 123/58/3 122/59/3
f 121/56/4 120/57/4 124/58/4 125/59/4
f 120/56/5 118/57/5 122/58/5 124/59/5
f 125/56/6 123/57/6 119/58/6 121/59/6
f 129/52/1 127/53/1 126/54/1 128/55/1
f 132/52/2 130/53/2 131/54/2 133/55/2
f 126/56/3 127/57/3 131/58/3 130/59/3
f 129/56/4 128/57/4 132/58/4 133/59/4
f 128/56/5 126/57/5 130/58/5 132/59/5
f 133/56/6 131/57/6 127/58/6 129/59/6
f 137/52/1 135/53/1 134/54/1 136/55/1
f 140/52/2 138/53/2 139/54/2 141/55/2
f 134/56/3 135/57/3 139/58/3 138/59/3
f 137/56/4 136/57/4 140/58/4 141/59/4
f 136/56/5 134/57/5 138/58/5 140/59/5
f 141/56/6 139/57/6 135/58/6 137/59/6
f 145/52/1 143/53/1 142/54/1 144/55/1
f 148/52/2 146/53/2 147/54/2 149/55/2
f 142/56/3 143/57/3 147/58/3 146/59/3
f 145/56/4 144/57/4 148/58/4 149/59/4
f 144/56/5 142/57/5 146/58/5 148/59/5
f 149/56/6 147/57/6 143/58/6 145/59/6
f 153/60/1 151/61/1 150/62/1 152/63/1
f 156/60/2 154/61/2 155/62/2 157/63/2
f 150/64/3 151/61/3 155/62/3 154/65/3
f 153/64/4 152/61/4 156/62/4 157/65/4
f 152/60/5 150/61/5 154/62/5 156/63/5
f 157/60/6 155/61/6 151/62/6 153/63/6
f 161/22/1 159/2/1 158/66/1 160/67/1
f 164/22/2 162/2/2 163/66/2 165/67/2
f 158/15/3 159/6/3 163/68/3 162/69/3
f 161/15/4 160/6/4 164/68/4 165/69/4
f 160/6/5 158/10/5 162/70/5 164/68/5
f 165/6/6 163/10/6 159/70/6 161/68/6
f 169/71/7 167/72/7 166/40/7 168/73/7
f 172/21/8 170/10/8 171/74/8 173/75/8
f 166/76/9 167/77/9 171/78/9 170/79/9
f 169/80/10 168/10/10 172/3/10 173/81/10
f 168/21/5 166/10/5 170/3/5 172/82/5
f 173/21/6 171/10/6 167/3/6 169/82/6
f 177/71/9 175/72/9 174/40/9 176/73/9
f 180/21/10 178/10/10 179/74/10 181/75/10
f 174/76/8 175/77/8 179/78/8 178/79/8
f 177/80/7 176/10/7 180/3/7 181/81/7
f 176/21/5 174/10/5 178/3/5 180/82/5
f 181/21/6 179/10/6 175/3/6 177/82/6
f 185/21/9 183/10/9 182/74/9 184/75/9
f 188/71/10 186/72/10 187/40/10 189/73/10
f 182/80/8 183/10/8 187/3/8 186/81/8
f 185/76/7 184/77/7 188/78/7 189/79/7
f 184/21/5 182/10/5 186/3/5 188/82/5
f 189/21/6 187/10/6 183/3/6 185/82/6
f 193/21/7 191/10/7 190/74/7 192/75/7
f 196/71/8 194/72/8 195/40/8 197/73/8
f 190/80/9 191/10/9 195/3/9 194/81/9
f 193/76/10 192/77/10 196/78/10 197/79/10
f 192/21/5 190/10/5 194/3/5 196/82/5
f 197/21/6 195/10/6 191/3/6 193/82/6
f 201/83/1 199/84/1 198/85/1 200/86/1
f 203/83/2 202/84/2 81/85/2 204/86/2
f 198/87/3 199/88/3 81/89/3 202/90/3
f 201/87/4 200/88/4 203/89/4 204/90/4
f 200/91/5 198/92/5 202/93/5 203/94/5
f 204/91/6 81/92/6 199/93/6 201/94/6
f 208/95/7 206/3/7 205/96/7 207/97/7
f 211/98/8 209/10/8 210/99/8 212/100/8
f 205/101/9 206/5/9 210/102/9 209/103/9
f 208/104/10 207/10/10 211/3/10 212/105/10
f 207/98/5 205/10/5 209/3/5 211/95/5
f 212/98/6 210/10/6 206/3/6 208/95/6
f 216/95/7 214/3/7 213/96/7 215/97/7
f 219/98/8 217/10/8 218/99/8 220/100/8
f 213/101/9 214/5/9 218/102/9 217/103/9
f 216/104/10 215/10/10 219/3/10 220/105/10
f 215/98/5 213/10/5 217/3/5 219/95/5
f 220/98/6 218/10/6 214/3/6 216/95/6
f 224/6/1 222/10/1 221/106/1 223/107/1
f 227/6/2 225/10/2 226/106/2 228/107/2
f 221/108/3 222/3/3 226/109/3 225/110/3
f 224/108/4 223/3/4 227/109/4 228/110/4
f 223/111/5 221/3/5 225/109/5 227/112/5
f 228/6/6 226/10/6 222/66/6 224/67/6
f 232/23/1 230/2/1 229/113/1 231/114/1
f 235/23/2 233/2/2 234/113/2 236/114/2
f 229/115/3 230/116/3 234/117/3 233/118/3
f 232/119/4 231/2/4 235/120/4 236/121/4
f 231/71/5 229/72/5 233/109/5 235/122/5
f 236/21/6 234/10/6 230/123/6 232/124/6
f 230/125/1 238/126/1 237/37/1 229/38/1
f 241/125/2 239/126/2 240/37/2 242/38/2
f 237/115/3 238/116/3 240/117/3 239/118/3
f 230/115/4 229/116/4 241/117/4 242/118/4
f 229/127/5 237/128/5 239/37/5 241/38/5
f 242/41/6 240/98/6 238/129/6 230/130/6
f 243/113/2 244/106/2 245/131/2
f 247/106/1 246/66/1 248/131/1
f 247/107/3 244/67/3 243/132/3 246/131/3
f 246/106/5 243/66/5 245/132/5 248/131/5
f 244/113/11 247/106/11 248/131/11 245/114/11
f 249/113/2 250/106/2 251/131/2
f 253/106/1 252/66/1 254/131/1
f 253/107/3 250/67/3 249/132/3 252/131/3
f 252/106/5 249/66/5 251/132/5 254/131/5
f 250/113/11 253/106/11 254/131/11 251/114/11
f 255/113/2 256/106/2 257/131/2
f 259/106/1 258/66/1 260/131/1
f 259/107/3 256/67/3 255/132/3 258/131/3
f 258/106/5 255/66/5 257/132/5 260/131/5
f 256/113/11 259/106/11 260/131/11 257/114/11
f 262/106/2 261/113/2 263/131/2
f 264/66/1 265/106/1 266/131/1
f 261/132/3 262/67/3 265/107/3 264/131/3
f 263/132/6 261/66/6 264/106/6 266/131/6
f 266/131/12 265/106/12 262/113/12 263/114/12
f 268/106/2 267/113/2 269/131/2
f 270/66/1 271/106/1 272/131/1
f 267/132/3 268/67/3 271/107/3 270/131/3
f 269/132/6 267/66/6 270/106/6 272/131/6
f 272/131/12 271/106/12 268/113/12 269/114/12
f 274/106/2 273/113/2 275/131/2
f 276/66/1 277/106/1 278/131/1
f 273/132/3 274/67/3 277/107/3 276/131/3
f 275/132/6 273/66/6 276/106/6 278/131/6
f 278/131/12 277/106/12 274/113/12 275/114/12
f 282/41/1 280/10/1 279/33/1 281/133/1
f 285/41/2 283/10/2 284/33/2 286/133/2
f 279/23/3 280/2/3 284/33/3 283/25/3
f 282/23/4 281/2/4 285/33/4 286/25/4
f 281/125/5 279/2/5 283/33/5 285/133/5
f 286/41/6 284/10/6 280/2/6 282/125/6
f 290/134/1 288/135/1 287/136/1 289/137/1
f 293/134/2 291/135/2 292/136/2 294/137/2
f 287/138/3 288/139/3 292/140/3 291/141/3
f 290/138/4 289/139/4 293/140/4 294/141/4
f 289/142/5 287/143/5 291/144/5 293/145/5
f 294/146/6 292/147/6 288/148/6 290/149/6
f 298/150/1 296/151/1 295/152/1 297/153/1
f 301/150/2 299/151/2 300/152/2 302/153/2
f 295/154/3 296/155/3 300/156/3 299/157/3
f 298/154/4 297/155/4 301/156/4 302/157/4
f 297/158/5 295/159/5 299/160/5 301/161/5
f 302/150/6 300/151/6 296/162/6 298/163/6
f 304/151/1 303/152/1 305/153/1 306/150/1
f 304/164/13 296/165/13 295/166/13 303/167/13
f 305/164/14 297/165/14 298/166/14 306/167/14
f 303/168/5 295/162/5 297/163/5 305/169/5
f 296/159/6 304/170/6 306/171/6 298/158/6
f 300/155/9 290/165/9 289/166/9 299/154/9
f 301/155/10 293/165/10 294/166/10 302/154/10
f 299/159/5 289/162/5 293/163/5 301/158/5
f 290/159/6 300/162/6 302/163/6 294/158/6
f 307/10/15 308/33/15 310/25/15 309/21/15
f 314/10/16 313/33/16 311/25/16 312/21/16
f 311/10/4 309/2/4 310/23/4 312/21/4
f 313/10/5 307/2/5 309/23/5 311/21/5
f 308/2/6 314/33/6 312/25/6 310/23/6
f 314/10/3 308/2/3 307/23/3 313/21/3
f 315/2/15 316/33/15 318/25/15 317/23/15
f 321/10/16 320/2/16 1/23/16 319/21/16
f 1/6/4 317/22/4 318/23/4 319/21/4
f 320/10/5 315/2/5 317/23/5 1/21/5
f 316/2/6 321/33/6 319/25/6 318/23/6
f 321/10/3 316/2/3 315/22/3 320/6/3
f 320/2/17 321/33/17 323/25/17 322/23/17
f 325/10/18 324/2/18 326/23/18 327/21/18
f 325/10/3 321/2/3 320/22/3 324/6/3
f 326/6/4 322/22/4 323/23/4 327/21/4
f 324/10/5 320/2/5 322/23/5 326/21/5
f 321/2/6 325/33/6 327/25/6 323/23/6
f 313/10/17 314/33/17 329/25/17 328/21/17
f 331/10/18 330/33/18 332/25/18 333/21/18
f 331/10/3 314/2/3 313/23/3 330/21/3
f 332/10/4 328/2/4 329/23/4 333/21/4
f 330/10/5 313/2/5 328/23/5 332/21/5
f 314/2/6 331/33/6 333/25/6 329/23/6
f 422/258/1 420/259/1 419/260/1 421/261/1
f 425/262/2 423/263/2 424/264/2 426/265/2
f 419/266/3 420/259/3 424/264/3 423/267/3
f 422/258/4 421/268/4 425/269/4 426/265/4
f 421/258/5 419/259/5 423/264/5 425/265/5
f 426/258/6 424/259/6 420/264/6 422/265/6
f 430/258/1 428/259/1 427/270/1 429/271/1
f 433/272/2 431/273/2 432/264/2 434/265/2
f 427/274/3 428/259/3 432/264/3 431/275/3
f 430/258/4 429/276/4 433/277/4 434/265/4
f 429/258/5 427/259/5 431/264/5 433/265/5
f 434/278/6 432/279/6 428/280/6 430/281/6
f 448/295/19 452/296/19 453/297/19 449/298/19
f 451/299/20 455/298/20 454/295/20 450/300/20
f 450/301/5 454/302/5 452/303/5 448/304/5
f 449/305/6 453/306/6 455/307/6 451/308/6
f 452/295/21 456/296/21 457/297/21 453/298/21
f 455/299/22 459/298/22 458/295/22 454/300/22
f 454/309/5 458/310/5 456/311/5 452/312/5
f 453/305/6 457/306/6 459/313/6 455/314/6
f 456/295/1 460/296/1 461/297/1 457/298/1
f 459/299/2 463/298/2 462/295/2 458/300/2
f 458/315/5 462/316/5 460/317/5 456/318/5
f 457/317/6 461/318/6 463/315/6 459/316/6
f 460/295/23 464/296/23 465/297/23 461/298/23
f 463/299/24 467/298/24 466/295/24 462/300/24
f 462/307/5 466/319/5 464/320/5 460/321/5
f 461/322/6 465/323/6 467/324/6 463/325/6
f 464/295/25 468/296/25 469/297/25 465/298/25
f 467/299/26 471/298/26 470/295/26 466/300/26
f 466/326/5 470/327/5 468/328/5 464/329/5
f 465/322/6 469/323/6 471/330/6 467/310/6
f 468/295/4 472/296/4 473/297/4 469/298/4
f 471/299/3 475/298/3 474/295/3 470/300/3
f 470/331/5 474/332/5 472/333/5 468/334/5
f 469/297/6 473/298/6 475/335/6 471/336/6
f 472/295/20 476/296/20 477/297/20 473/298/20
f 475/299/19 479/298/19 478/295/19 474/300/19
f 474/337/5 478/338/5 476/298/5 472/339/5
f 473/340/6 477/298/6 479/341/6 475/342/6
f 476/295/22 480/296/22 481/297/22 477/298/22
f 479/299/21 483/298/21 482/295/21 478/300/21
f 478/343/5 482/344/5 480/345/5 476/346/5
f 477/340/6 481/298/6 483/347/6 479/348/6
f 480/295/2 484/296/2 485/297/2 481/298/2
f 483/299/1 487/298/1 486/295/1 482/300/1
f 482/349/5 486/350/5 484/298/5 480/351/5
f 481/298/6 485/351/6 487/349/6 483/350/6
f 484/295/24 488/296/24 489/297/24 485/298/24
f 487/299/23 491/298/23 490/295/23 486/300/23
f 486/352/5 490/353/5 488/340/5 484/354/5
f 485/298/6 489/346/6 491/355/6 487/356/6
f 488/295/26 492/296/26 493/297/26 489/298/26
f 491/299/25 495/298/25 494/295/25 490/300/25
f 490/357/5 494/358/5 492/359/5 488/298/5
f 489/298/6 493/346/6 495/360/6 491/361/6
f 492/295/3 448/296/3 449/297/3 493/298/3
f 495/299/4 451/298/4 450/295/4 494/300/4
f 494/335/5 450/336/5 448/297/5 492/298/5
f 493/333/6 449/334/6 451/331/6 495/332/6
f 499/362/1 497/363/1 496/364/1 498/365/1
f 502/362/2 500/363/2 501/364/2 503/365/2
f 496/366/3 497/272/3 501/265/3 500/367/3
f 499/366/4 498/272/4 502/265/4 503/367/4
f 498/368/5 496/369/5 500/370/5 502/371/5
f 503/371/6 501/370/6 497/372/6 499/373/6
f 507/374/1 505/375/1 504/376/1 506/377/1
f 510/378/2 508/271/2 509/379/2 511/380/2
f 504/381/3 505/382/3 509/383/3 508/384/3
f 507/385/4 506/386/4 510/387/4 511/388/4
f 506/389/5 504/390/5 508/391/5 510/392/5
f 511/393/6 509/394/6 505/395/6 507/396/6
f 515/397/1 513/398/1 512/399/1 514/400/1
f 518/374/2 516/375/2 517/376/2 519/377/2
f 512/401/3 513/402/3 517/403/3 516/404/3
f 515/405/4 514/406/4 518/407/4 519/408/4
f 514/409/5 512/410/5 516/411/5 518/412/5
f 519/413/6 517/363/6 513/414/6 515/415/6
f 496/416/27 512/417/27 513/379/27 497/418/27
f 517/419/28 516/420/28 498/421/28 499/295/28
f 516/398/5 512/422/5 496/370/5 498/423/5
f 497/424/29 513/425/29 517/426/29 499/427/29
f 502/428/30 504/394/30 505/429/30 503/430/30
f 509/431/31 508/427/31 500/426/31 501/420/31
f 508/432/5 504/433/5 502/434/5 500/435/5
f 503/429/32 505/430/33 509/436/32 501/437/32
f 533/295/19 537/296/19 538/297/19 534/298/19
f 536/299/20 540/298/20 539/295/20 535/300/20
f 535/301/5 539/302/5 537/303/5 533/304/5
f 534/305/6 538/306/6 540/307/6 536/308/6
f 537/295/21 541/296/21 542/297/21 538/298/21
f 540/299/22 544/298/22 543/295/22 539/300/22
f 539/309/5 543/310/5 541/311/5 537/312/5
f 538/305/6 542/306/6 544/313/6 540/314/6
f 541/295/1 545/296/1 546/297/1 542/298/1
f 544/299/2 548/298/2 547/295/2 543/300/2
f 543/315/5 547/316/5 545/317/5 541/318/5
f 542/317/6 546/318/6 548/315/6 544/316/6
f 545/295/23 549/296/23 550/297/23 546/298/23
f 548/299/24 552/298/24 551/295/24 547/300/24
f 547/307/5 551/319/5 549/320/5 545/321/5
f 546/322/6 550/323/6 552/324/6 548/325/6
f 549/295/25 553/296/25 554/297/25 550/298/25
f 552/299/26 556/298/26 555/295/26 551/300/26
f 551/326/5 555/327/5 553/328/5 549/329/5
f 550/322/6 554/323/6 556/330/6 552/310/6
f 553/295/4 557/296/4 558/297/4 554/298/4
f 556/299/3 560/298/3 559/295/3 555/300/3
f 555/331/5 559/332/5 557/333/5 553/334/5
f 554/297/6 558/298/6 560/335/6 556/336/6
f 557/295/20 561/296/20 562/297/20 558/298/20
f 560/299/19 564/298/19 563/295/19 559/300/19
f 559/337/5 563/338/5 561/298/5 557/339/5
f 558/340/6 562/298/6 564/341/6 560/342/6
f 561/295/22 565/296/22 566/297/22 562/298/22
f 564/299/21 568/298/21 567/295/21 563/300/21
f 563/343/5 567/344/5 565/345/5 561/346/5
f 562/340/6 566/298/6 568/347/6 564/348/6
f 565/295/2 569/296/2 570/297/2 566/298/2
f 568/299/1 572/298/1 571/295/1 567/300/1
f 567/349/5 571/350/5 569/298/5 565/351/5
f 566/298/6 570/351/6 572/349/6 568/350/6
f 569/295/24 573/296/24 574/297/24 570/298/24
f 572/299/23 576/298/23 575/295/23 571/300/23
f 571/352/5 575/353/5 573/340/5 569/354/5
f 570/298/6 574/346/6 576/355/6 572/356/6
f 573/295/26 577/296/26 578/297/26 574/298/26
f 576/299/25 580/298/25 579/295/25 575/300/25
f 575/357/5 579/358/5 577/359/5 573/298/5
f 574/298/6 578/346/6 580/360/6 576/361/6
f 577/295/3 533/296/3 534/297/3 578/298/3
f 580/299/4 536/298/4 535/295/4 579/300/4
f 579/335/5 535/336/5 533/297/5 577/298/5
f 578/333/6 534/334/6 536/331/6 580/332/6
f 584/362/1 582/363/1 581/364/1 583/365/1
f 587/362/2 585/363/2 586/364/2 588/365/2
f 581/366/3 582/272/3 586/265/3 585/367/3
f 584/366/4 583/272/4 587/265/4 588/367/4
f 583/368/5 581/369/5 585/370/5 587/371/5
f 588/371/6 586/370/6 582/372/6 584/373/6
f 592/374/1 590/375/1 589/376/1 591/377/1
f 595/378/2 593/271/2 594/379/2 596/380/2
f 589/381/3 590/382/3 594/383/3 593/384/3
f 592/385/4 591/386/4 595/387/4 596/388/4
f 591/389/5 589/390/5 593/391/5 595/392/5
f 596/393/6 594/394/6 590/395/6 592/396/6
f 600/397/1 598/398/1 597/399/1 599/400/1
f 603/374/2 601/375/2 602/376/2 604/377/2
f 597/401/3 598/402/3 602/403/3 601/404/3
f 600/405/4 599/406/4 603/407/4 604/408/4
f 599/409/5 597/410/5 601/411/5 603/412/5
f 604/413/6 602/363/6 598/414/6 600/415/6
f 581/416/27 597/417/27 598/379/27 582/418/27
f 602/419/28 601/420/28 583/421/28 584/295/28
f 601/398/5 597/422/5 581/370/5 583/423/5
f 582/424/34 598/425/29 602/426/29 584/427/29
f 587/428/30 589/394/30 590/429/30 588/430/30
f 594/431/31 593/427/31 585/426/31 586/420/31
f 593/432/5 589/433/5 587/434/5 585/435/5
f 588/429/32 590/430/33 594/436/32 586/437/32
f 608/437/1 606/429/1 605/438/1 607/439/1
f 611/437/2 609/429/2 610/438/2 612/439/2
f 605/440/3 606/147/3 610/438/3 609/441/3
f 608/440/4 607/147/4 611/438/4 612/441/4
f 607/158/5 605/147/5 609/438/5 611/439/5
f 612/158/6 610/147/6 606/438/6 608/439/6
f 626/455/25 630/456/25 631/457/25 627/458/25
f 629/459/26 633/458/26 632/455/26 628/460/26
f 628/461/6 632/462/6 630/463/6 626/464/6
f 627/465/5 631/466/5 633/467/5 629/468/5
f 630/455/23 634/456/23 635/457/23 631/458/23
f 633/459/24 637/458/24 636/455/24 632/460/24
f 632/469/6 636/470/6 634/471/6 630/472/6
f 631/465/5 635/466/5 637/473/5 633/474/5
f 634/455/1 638/456/1 639/457/1 635/458/1
f 637/459/2 641/458/2 640/455/2 636/460/2
f 636/475/6 640/476/6 638/477/6 634/478/6
f 635/477/5 639/478/5 641/475/5 637/476/5
f 638/455/21 642/456/21 643/457/21 639/458/21
f 641/459/22 645/458/22 644/455/22 640/460/22
f 640/479/6 644/480/6 642/481/6 638/482/6
f 639/483/5 643/484/5 645/485/5 641/486/5
f 642/455/19 646/456/19 647/457/19 643/458/19
f 645/459/20 649/458/20 648/455/20 644/460/20
f 644/487/6 648/488/6 646/489/6 642/490/6
f 643/483/5 647/484/5 649/491/5 645/492/5
f 646/455/3 650/456/3 651/457/3 647/458/3
f 649/459/4 653/458/4 652/455/4 648/460/4
f 648/493/6 652/494/6 650/495/6 646/496/6
f 647/457/5 651/458/5 653/497/5 649/498/5
f 650/455/26 654/456/26 655/457/26 651/458/26
f 653/459/25 657/458/25 656/455/25 652/460/25
f 652/499/6 656/500/6 654/458/6 650/501/6
f 651/502/5 655/458/5 657/503/5 653/504/5
f 654/455/24 658/456/24 659/457/24 655/458/24
f 657/459/23 661/458/23 660/455/23 656/460/23
f 656/505/6 660/506/6 658/507/6 654/508/6
f 655/502/5 659/458/5 661/509/5 657/510/5
f 658/455/2 662/456/2 663/457/2 659/458/2
f 661/459/1 665/458/1 664/455/1 660/460/1
f 660/511/6 664/512/6 662/458/6 658/513/6
f 659/458/5 663/513/5 665/511/5 661/512/5
f 662/455/22 666/456/22 667/457/22 663/458/22
f 665/459/21 669/458/21 668/455/21 664/460/21
f 664/514/6 668/515/6 666/502/6 662/516/6
f 663/458/5 667/508/5 669/517/5 665/518/5
f 666/455/20 670/456/20 671/457/20 667/458/20
f 669/459/19 673/458/19 672/455/19 668/460/19
f 668/519/6 672/520/6 670/521/6 666/458/6
f 667/458/5 671/508/5 673/522/5 669/523/5
f 670/455/4 626/456/4 627/457/4 671/458/4
f 673/459/3 629/458/3 628/455/3 672/460/3
f 672/497/6 628/498/6 626/457/6 670/458/6
f 671/495/5 627/496/5 629/493/5 673/494/5
f 677/524/1 675/169/1 674/436/1 676/525/1
f 680/526/2 678/426/2 679/527/2 681/528/2
f 674/529/3 675/530/3 679/531/3 678/532/3
f 677/533/4 676/423/4 680/534/4 681/535/4
f 676/366/5 674/536/5 678/537/5 680/538/5
f 681/539/6 679/540/6 675/541/6 677/542/6
f 685/543/1 683/544/1 682/545/1 684/546/1
f 688/428/2 686/525/2 687/547/2 689/548/2
f 682/421/3 683/549/3 687/550/3 686/551/3
f 685/552/4 684/553/4 688/554/4 689/555/4
f 684/556/5 682/171/5 686/153/5 688/557/5
f 689/532/6 687/557/6 683/525/6 685/428/6
f 692/558/4 690/559/4 691/556/4 693/423/4
f 690/434/35 609/560/35 610/561/35 691/529/35
f 612/562/16 611/394/16 692/440/16 693/295/16
f 611/433/5 609/563/5 690/428/5 692/564/5
f 691/561/36 610/529/37 612/434/36 693/560/36
f 606/559/38 605/556/38 694/423/38 695/558/38
f 696/432/17 607/565/17 608/536/17 697/566/17
f 695/398/4 694/416/4 696/525/4 697/364/4
f 694/433/5 605/563/5 607/428/5 696/564/5
f 608/563/39 606/428/39 695/564/39 697/433/39
f 701/567/1 699/568/1 698/56/1 700/569/1
f 704/567/2 702/568/2 703/56/2 705/569/2
f 698/568/3 699/570/3 703/57/3 702/56/3
f 701/568/4 700/570/4 704/57/4 705/56/4
f 700/567/5 698/568/5 702/56/5 704/569/5
f 705/567/6 703/568/6 699/56/6 701/569/6
f 709/567/1 707/568/1 706/56/1 708/569/1
f 712/567/2 710/568/2 711/56/2 713/569/2
f 706/568/3 707/570/3 711/57/3 710/56/3
f 709/568/4 708/570/4 712/57/4 713/56/4
f 708/567/5 706/568/5 710/56/5 712/569/5
f 713/567/6 711/568/6 707/56/6 709/569/6
f 749/55/1 747/54/1 746/53/1 748/52/1
f 752/568/2 750/570/2 751/57/2 753/56/2
f 746/572/3 747/573/3 751/574/3 750/575/3
f 749/572/4 748/573/4 752/574/4 753/575/4
f 748/572/5 746/573/5 750/574/5 752/575/5
f 753/572/6 751/573/6 747/574/6 749/575/6
usemtl m_b2af6bd8-ffc8-ff72-7f7b-7b18782af15d.006
f 337/172/1 335/41/1 334/173/1 336/174/1
f 340/175/2 338/133/2 339/176/2 341/177/2
f 334/178/3 335/179/3 339/180/3 338/181/3
f 337/182/4 336/183/4 340/184/4 341/185/4
f 336/186/5 334/187/5 338/176/5 340/177/5
f 341/172/6 339/41/6 335/188/6 337/189/6
f 345/190/1 343/41/1 342/191/1 344/192/1
f 348/193/2 346/194/2 347/176/2 349/195/2
f 342/196/3 343/197/3 347/198/3 346/199/3
f 345/200/4 344/201/4 348/202/4 349/203/4
f 344/204/5 342/205/5 346/173/5 348/206/5
f 349/207/6 347/133/6 343/208/6 345/209/6
f 353/190/1 351/41/1 350/191/1 352/192/1
f 356/193/2 354/194/2 355/176/2 357/195/2
f 350/196/3 351/197/3 355/198/3 354/199/3
f 353/200/4 352/201/4 356/202/4 357/203/4
f 352/204/5 350/205/5 354/173/5 356/206/5
f 357/207/6 355/133/6 351/208/6 353/209/6
f 359/210/1 358/205/1 335/176/1 337/177/1
f 341/172/2 339/41/2 360/208/2 361/211/2
f 335/182/3 358/212/3 360/213/3 339/185/3
f 359/187/4 337/179/4 341/180/4 361/176/4
f 361/172/6 360/41/6 358/188/6 359/189/6
f 365/204/1 363/205/1 362/173/1 364/206/1
f 345/207/2 343/133/2 366/208/2 367/209/2
f 362/214/3 363/215/3 366/216/3 343/217/3
f 365/218/4 364/219/4 345/220/4 367/173/4
f 364/221/5 362/218/5 343/173/5 345/206/5
f 367/207/6 366/133/6 363/222/6 365/223/6
f 371/204/1 369/205/1 368/173/1 370/206/1
f 353/207/2 351/133/2 372/208/2 373/209/2
f 368/214/3 369/215/3 372/216/3 351/217/3
f 371/218/4 370/219/4 353/220/4 373/173/4
f 370/221/5 368/218/5 351/173/5 353/206/5
f 373/207/6 372/133/6 369/222/6 371/223/6
f 358/200/1 375/205/1 374/173/1 376/203/1
f 377/224/2 368/133/2 369/208/2 378/225/2
f 374/178/3 375/212/3 369/215/3 368/214/3
f 358/187/4 376/183/4 377/219/4 378/218/4
f 376/182/5 374/187/5 368/218/5 377/226/5
f 378/227/6 369/222/6 375/188/6 358/228/6
f 380/200/1 372/205/1 351/173/1 379/203/1
f 382/224/2 355/133/2 381/208/2 360/225/2
f 351/229/3 372/230/3 381/212/3 355/178/3
f 380/231/4 379/232/4 382/183/4 360/187/4
f 379/233/5 351/231/5 355/187/5 382/182/5
f 360/228/6 381/188/6 372/234/6 380/235/6
f 385/200/1 350/205/1 383/173/1 384/203/1
f 387/224/2 386/133/2 354/208/2 388/225/2
f 383/229/3 350/230/3 354/212/3 386/178/3
f 385/231/4 384/232/4 387/183/4 388/187/4
f 384/233/5 383/231/5 386/187/5 387/182/5
f 388/228/6 354/188/6 350/234/6 385/235/6
f 391/200/1 390/205/1 389/173/1 334/203/1
f 394/224/2 392/133/2 393/208/2 395/225/2
f 389/178/3 390/212/3 393/215/3 392/214/3
f 391/187/4 334/183/4 394/219/4 395/218/4
f 334/182/5 389/187/5 392/218/5 394/226/5
f 395/227/6 393/222/6 390/188/6 391/228/6
f 397/207/1 374/133/1 390/176/1 396/195/1
f 398/190/2 393/41/2 368/173/2 370/206/2
f 390/182/3 374/183/3 368/219/3 393/226/3
f 397/178/4 396/179/4 398/236/4 370/214/4
f 396/237/5 390/187/5 393/218/5 398/221/5
f 370/223/6 368/222/6 374/188/6 397/238/6
f 402/207/1 400/133/1 399/176/1 401/195/1
f 404/190/2 403/41/2 362/173/2 364/206/2
f 399/182/3 400/183/3 362/219/3 403/226/3
f 402/178/4 401/179/4 404/236/4 364/214/4
f 401/237/5 399/187/5 403/218/5 404/221/5
f 364/223/6 362/222/6 400/188/6 402/238/6
f 408/211/1 406/208/1 405/176/1 407/177/1
f 411/172/2 409/41/2 410/205/2 412/210/2
f 405/224/3 406/133/3 410/239/3 409/240/3
f 408/241/4 407/33/4 411/109/4 412/242/4
f 407/175/5 405/133/5 409/239/5 411/110/5
f 412/243/6 410/244/6 406/245/6 408/246/6
f 416/247/1 414/208/1 413/176/1 415/248/1
f 417/249/2 411/41/2 412/205/2 418/250/2
f 413/251/3 414/252/3 412/239/3 411/240/3
f 416/253/4 415/70/4 417/109/4 418/242/4
f 415/254/5 413/252/5 411/239/5 417/255/5
f 418/256/6 412/244/6 414/191/6 416/257/6
f 717/185/1 715/248/1 714/250/1 716/200/1
f 720/185/2 718/248/2 719/250/2 721/200/2
f 714/185/40 715/213/40 719/571/40 718/200/40
f 717/185/41 716/213/41 720/571/41 721/200/41
f 716/185/42 714/248/42 718/250/42 720/200/42
f 721/185/43 719/248/43 715/250/43 717/200/43
f 725/247/44 723/11/44 722/10/44 724/249/44
f 728/247/45 726/11/45 727/10/45 729/249/45
f 722/185/46 723/213/46 727/571/46 726/200/46
f 725/185/47 724/213/47 728/571/47 729/200/47
f 724/247/48 722/11/48 726/10/48 728/249/48
f 729/247/49 727/11/49 723/10/49 725/249/49
f 733/247/50 731/11/50 730/10/50 732/249/50
f 736/247/51 734/11/51 735/10/51 737/249/51
f 730/185/46 731/213/46 735/571/46 734/200/46
f 733/185/47 732/213/47 736/571/47 737/200/47
f 732/247/48 730/11/48 734/10/48 736/249/48
f 737/247/49 735/11/49 731/10/49 733/249/49
f 741/185/1 739/248/1 738/250/1 740/200/1
f 744/185/2 742/248/2 743/250/2 745/200/2
f 738/185/40 739/213/40 743/571/40 742/200/40
f 741/185/41 740/213/41 744/571/41 745/200/41
f 740/185/42 738/248/42 742/250/42 744/200/42
f 745/185/43 743/248/43 739/250/43 741/200/43
f 421/576/1 755/577/1 754/578/1 756/579/1
f 759/580/2 757/581/2 758/582/2 430/583/2
f 754/584/3 755/106/3 758/11/3 757/209/3
f 421/585/4 756/131/4 759/26/4 430/211/4
f 756/576/5 754/577/5 757/586/5 759/587/5
f 430/587/6 758/586/6 755/582/6 421/583/6
f 434/588/1 761/106/1 760/33/1 762/589/1
f 765/590/2 763/591/2 764/10/2 425/592/2
f 760/584/3 761/106/3 764/11/3 763/209/3
f 434/585/4 762/131/4 765/26/4 425/211/4
f 762/588/5 760/106/5 763/11/5 765/593/5
f 425/593/6 764/11/6 761/10/6 434/592/6
f 769/176/1 767/180/1 766/10/1 768/41/1
f 772/176/2 770/180/2 771/10/2 773/41/2
f 766/225/3 767/11/3 771/10/3 770/115/3
f 769/225/4 768/11/4 772/10/4 773/115/4
f 768/594/5 766/106/5 770/11/5 772/208/5
f 773/208/6 771/11/6 767/10/6 769/41/6
f 777/595/1 775/596/1 774/274/1 776/597/1
f 780/598/2 778/599/2 779/600/2 781/601/2
f 774/602/3 775/603/3 779/604/3 778/605/3
f 777/606/4 776/607/4 780/190/4 781/608/4
f 776/609/5 774/610/5 778/255/5 780/611/5
f 781/612/6 779/598/6 775/613/6 777/614/6
f 785/205/1 783/615/1 782/616/1 784/617/1
f 787/252/2 786/618/2 770/26/2 772/208/2
f 782/619/3 783/594/3 770/208/3 786/620/3
f 785/621/4 784/622/4 787/623/4 772/624/4
f 784/594/5 782/131/5 786/26/5 787/208/5
f 772/208/6 770/26/6 783/21/6 785/41/6
f 791/625/1 789/626/1 788/21/1 790/41/1
f 794/176/2 792/184/2 793/627/2 795/628/2
f 788/629/3 789/630/3 793/631/3 792/632/3
f 791/633/4 790/106/4 794/591/4 795/634/4
f 790/594/5 788/131/5 792/635/5 794/636/5
f 795/133/6 793/25/6 789/21/6 791/41/6
f 790/205/1 788/615/1 796/616/1 797/617/1
f 800/252/2 798/618/2 799/26/2 801/208/2
f 796/619/3 788/594/3 799/208/3 798/620/3
f 790/621/4 797/622/4 800/623/4 801/624/4
f 797/594/5 796/131/5 798/26/5 800/208/5
f 801/208/6 799/26/6 788/21/6 790/41/6
f 803/594/1 421/106/1 756/33/1 802/133/1
f 804/636/2 765/591/2 425/10/2 805/41/2
f 756/637/3 421/638/3 425/10/3 765/190/3
f 803/639/4 802/640/4 804/21/4 805/172/4
f 802/234/5 756/638/5 765/10/5 804/41/5
f 805/234/6 425/638/6 421/10/6 803/41/6
f 809/594/1 807/131/1 806/25/1 808/133/1
f 812/636/2 810/635/2 811/21/2 813/41/2
f 806/607/3 807/641/3 811/642/3 810/643/3
f 809/644/4 808/645/4 812/232/4 813/646/4
f 808/647/5 806/645/5 810/232/5 812/231/5
f 813/647/6 811/645/6 807/232/6 809/231/6
f 817/252/1 815/618/1 814/25/1 816/133/1
f 820/252/2 818/618/2 819/25/2 821/133/2
f 814/83/3 815/627/3 819/219/3 818/648/3
f 817/83/4 816/627/4 820/219/4 821/648/4
f 816/628/5 814/627/5 818/219/5 820/218/5
f 821/628/6 819/627/6 815/219/6 817/218/6
f 825/594/7 823/131/7 822/25/7 824/133/7
f 828/636/8 826/635/8 827/21/8 829/41/8
f 822/607/9 823/641/9 827/642/9 826/643/9
f 825/644/10 824/645/10 828/232/10 829/646/10
f 824/647/5 822/645/5 826/232/5 828/231/5
f 829/647/6 827/645/6 823/232/6 825/231/6
f 833/594/9 831/131/9 830/25/9 832/133/9
f 836/636/10 834/635/10 835/21/10 837/41/10
f 830/649/8 831/650/8 835/642/8 834/643/8
f 833/651/7 832/652/7 836/232/7 837/646/7
f 832/653/5 830/652/5 834/232/5 836/231/5
f 837/653/6 835/652/6 831/232/6 833/231/6
f 841/585/1 839/106/1 838/10/1 840/172/1
f 844/585/2 842/106/2 843/10/2 845/172/2
f 838/654/3 839/655/3 843/10/3 842/172/3
f 841/654/4 840/655/4 844/10/4 845/172/4
f 840/654/5 838/655/5 842/10/5 844/172/5
f 845/656/6 843/657/6 839/99/6 841/658/6
f 849/659/1 847/660/1 846/10/1 848/21/1
f 852/659/2 850/660/2 851/10/2 853/21/2
f 846/661/3 847/106/3 851/11/3 850/247/3
f 849/661/4 848/106/4 852/11/4 853/247/4
f 848/131/5 846/106/5 850/11/5 852/26/5
f 853/26/6 851/11/6 847/10/6 849/21/6
f 857/659/1 855/660/1 854/10/1 856/21/1
f 860/659/2 858/660/2 859/10/2 861/21/2
f 854/661/3 855/106/3 859/11/3 858/247/3
f 857/661/4 856/106/4 860/11/4 861/247/4
f 856/131/5 854/106/5 858/11/5 860/26/5
f 861/26/6 859/11/6 855/10/6 857/21/6
f 865/662/1 863/131/1 862/635/1 864/663/1
f 868/664/2 866/25/2 867/21/2 869/665/2
f 862/131/3 863/106/3 867/11/3 866/26/3
f 865/585/4 864/584/4 868/209/4 869/211/4
f 864/662/5 862/131/5 866/26/5 868/666/5
f 869/666/6 867/26/6 863/21/6 865/665/6
f 865/594/1 864/636/1 870/46/1
f 868/133/2 869/41/2 871/207/2
f 870/584/52 864/594/52 868/208/52 871/209/52
f 871/209/6 869/208/6 865/41/6 870/190/6
f 874/659/1 873/660/1 872/10/1 863/21/1
f 867/659/2 875/660/2 876/10/2 877/21/2
f 872/661/3 873/106/3 876/11/3 875/247/3
f 874/661/4 863/106/4 867/11/4 877/247/4
f 863/131/5 872/106/5 875/11/5 867/26/5
f 877/26/6 876/11/6 873/10/6 874/21/6
f 872/70/2 863/659/2 862/618/2
f 875/33/1 866/25/1 867/21/1
f 862/131/53 872/106/53 875/11/53 866/26/53
f 846/70/2 848/659/2 878/618/2
f 850/33/1 879/25/1 852/21/1
f 848/661/4 878/619/4 879/620/4 852/247/4
f 878/131/53 846/106/53 850/11/53 879/26/53
f 881/659/1 880/660/1 865/10/1 870/21/1
f 871/659/2 869/660/2 882/10/2 883/21/2
f 865/661/3 880/106/3 882/11/3 869/247/3
f 881/661/4 870/106/4 871/11/4 883/247/4
f 883/26/6 882/11/6 880/10/6 881/21/6
f 854/662/1 848/131/1 878/635/1 884/663/1
f 885/664/2 879/25/2 852/21/2 858/665/2
f 854/585/4 884/584/4 885/209/4 858/211/4
f 884/662/5 878/131/5 879/26/5 885/666/5
f 858/666/6 852/26/6 848/21/6 854/665/6
f 854/594/1 884/636/1 856/46/1
f 885/133/2 858/41/2 860/207/2
f 856/584/52 884/594/52 885/208/52 860/209/52
f 889/647/54 887/641/54 886/33/54 888/133/54
f 892/191/55 890/667/55 891/10/55 893/41/55
f 886/668/56 887/106/56 891/11/56 890/669/56
f 889/670/57 888/131/57 892/26/57 893/671/57
f 888/594/5 886/106/5 890/11/5 892/208/5
f 893/208/6 891/11/6 887/10/6 889/41/6
f 893/647/58 891/641/58 894/33/58 895/133/58
f 898/191/59 896/667/59 897/10/59 899/41/59
f 894/668/56 891/106/56 897/11/56 896/669/56
f 893/670/57 895/131/57 898/26/57 899/671/57
f 895/594/5 894/106/5 896/11/5 898/208/5
f 899/208/6 897/11/6 891/10/6 893/41/6
usemtl m_409504fd-f58c-4195-329e-2b61b82ac830.006
f 437/282/6 438/283/6 435/284/6
f 438/283/6 439/285/6 435/284/6
f 439/285/6 440/286/6 435/284/6
f 440/286/6 441/287/6 435/284/6
f 441/287/6 442/288/6 435/284/6
f 442/288/6 443/289/6 435/284/6
f 443/289/6 444/290/6 435/284/6
f 444/290/6 445/291/6 435/284/6
f 445/291/6 446/292/6 435/284/6
f 446/292/6 447/293/6 435/284/6
f 447/293/6 436/294/6 435/284/6
f 436/294/6 437/282/6 435/284/6
f 522/282/6 523/283/6 520/284/6
f 523/283/6 524/285/6 520/284/6
f 524/285/6 525/286/6 520/284/6
f 525/286/6 526/287/6 520/284/6
f 526/287/6 527/288/6 520/284/6
f 527/288/6 528/289/6 520/284/6
f 528/289/6 529/290/6 520/284/6
f 529/290/6 530/291/6 520/284/6
f 530/291/6 531/292/6 520/284/6
f 531/292/6 532/293/6 520/284/6
f 532/293/6 521/294/6 520/284/6
f 521/294/6 522/282/6 520/284/6
f 615/442/5 616/443/5 613/444/5
f 616/443/5 617/445/5 613/444/5
f 617/445/5 618/446/5 613/444/5
f 618/446/5 619/447/5 613/444/5
f 619/447/5 620/448/5 613/444/5
f 620/448/5 621/449/5 613/444/5
f 621/449/5 622/450/5 613/444/5
f 622/450/5 623/451/5 613/444/5
f 623/451/5 624/452/5 613/444/5
f 624/452/5 625/453/5 613/444/5
f 625/453/5 614/454/5 613/444/5
f 614/454/5 615/442/5 613/444/5
