# Blender 5.2.0 LTS
# www.blender.org
mtllib ks_vr_1000_right.mtl
o cube
v -1.137944 0.507583 -0.118750
v -0.968750 3.125000 0.125000
v -0.968750 3.125000 -0.125000
v -0.968750 2.125000 0.125000
v -0.968750 2.125000 -0.125000
v -1.218750 3.125000 0.125000
v -1.218750 3.125000 -0.125000
v -1.218750 2.125000 0.125000
v -1.218750 2.125000 -0.125000
v -0.968750 3.687500 0.125000
v -0.968750 3.687500 -0.125000
v -0.968750 3.125000 0.125000
v -0.968750 3.125000 -0.125000
v -1.218750 3.687500 0.125000
v -1.218750 3.687500 -0.125000
v -1.218750 3.125000 0.125000
v -1.218750 3.125000 -0.125000
v -0.968750 2.125000 0.125000
v -0.968750 2.125000 -0.125000
v -0.968750 1.125000 0.125000
v -0.968750 1.125000 -0.125000
v -1.218750 2.125000 0.125000
v -1.218750 2.125000 -0.125000
v -1.218750 1.125000 0.125000
v -1.218750 1.125000 -0.125000
v -0.968750 1.125000 0.125000
v -0.968750 1.125000 -0.125000
v -0.968750 0.312500 0.125000
v -0.968750 0.312500 -0.125000
v -1.218750 1.125000 0.125000
v -1.218750 1.125000 -0.125000
v -1.218750 0.312500 0.125000
v -1.218750 0.312500 -0.125000
v -0.781250 1.375000 -0.062500
v -0.781250 1.375000 -0.125000
v -0.781250 1.312500 -0.062500
v -0.781250 1.312500 -0.125000
v -0.968750 1.375000 -0.062500
v -0.968750 1.375000 -0.125000
v -0.968750 1.312500 -0.062500
v -0.968750 1.312500 -0.125000
v -0.781250 1.375000 0.062500
v -0.781250 1.375000 -0.062500
v -0.781250 1.312500 0.062500
v -0.781250 1.312500 -0.062500
v -0.843750 1.375000 0.062500
v -0.843750 1.375000 -0.062500
v -0.843750 1.312500 0.062500
v -0.843750 1.312500 -0.062500
v -0.781250 1.375000 0.125000
v -0.781250 1.375000 0.062500
v -0.781250 1.312500 0.125000
v -0.781250 1.312500 0.062500
v -0.968750 1.375000 0.125000
v -0.968750 1.375000 0.062500
v -0.968750 1.312500 0.125000
v -0.968750 1.312500 0.062500
v -0.781250 1.000000 -0.062500
v -0.781250 1.000000 -0.125000
v -0.781250 0.937500 -0.062500
v -0.781250 0.937500 -0.125000
v -0.968750 1.000000 -0.062500
v -0.968750 1.000000 -0.125000
v -0.968750 0.937500 -0.062500
v -0.968750 0.937500 -0.125000
v -0.781250 1.000000 0.062500
v -0.781250 1.000000 -0.062500
v -0.781250 0.937500 0.062500
v -0.781250 0.937500 -0.062500
v -0.843750 1.000000 0.062500
v -0.843750 1.000000 -0.062500
v -0.843750 0.937500 0.062500
v -0.843750 0.937500 -0.062500
v -0.781250 1.000000 0.125000
v -0.781250 1.000000 0.062500
v -0.781250 0.937500 0.125000
v -0.781250 0.937500 0.062500
v -0.968750 1.000000 0.125000
v -0.968750 1.000000 0.062500
v -0.968750 0.937500 0.125000
v -0.968750 0.937500 0.062500
v -0.781250 0.625000 0.062500
v -0.781250 0.625000 -0.062500
v -0.781250 0.562500 0.062500
v -0.781250 0.562500 -0.062500
v -0.843750 0.625000 0.062500
v -0.843750 0.625000 -0.062500
v -0.843750 0.562500 0.062500
v -0.843750 0.562500 -0.062500
v -0.781250 0.625000 0.125000
v -0.781250 0.625000 0.062500
v -0.781250 0.562500 0.125000
v -0.781250 0.562500 0.062500
v -0.968750 0.625000 0.125000
v -0.968750 0.625000 0.062500
v -0.968750 0.562500 0.125000
v -0.968750 0.562500 0.062500
v -0.781250 0.625000 -0.062500
v -0.781250 0.625000 -0.125000
v -0.781250 0.562500 -0.062500
v -0.781250 0.562500 -0.125000
v -0.968750 0.625000 -0.062500
v -0.968750 0.625000 -0.125000
v -0.968750 0.562500 -0.062500
v -0.968750 0.562500 -0.125000
v 0.062500 5.000000 -0.156250
v 0.062500 5.000000 -0.218750
v 0.062500 3.875000 -0.156250
v 0.062500 3.875000 -0.218750
v -0.062500 5.000000 -0.156250
v -0.062500 5.000000 -0.218750
v -0.062500 3.875000 -0.156250
v -0.062500 3.875000 -0.218750
v 0.062500 5.000000 0.218750
v 0.062500 5.000000 0.093750
v 0.062500 3.875000 0.218750
v 0.062500 3.875000 0.093750
v -0.062500 5.000000 0.218750
v -0.062500 5.000000 0.093750
v -0.062500 3.875000 0.218750
v -0.062500 3.875000 0.093750
v 0.062500 5.000000 0.093750
v 0.062500 5.000000 -0.156250
v 0.062500 4.937500 0.093750
v 0.062500 4.937500 -0.156250
v -0.062500 5.000000 0.093750
v -0.062500 5.000000 -0.156250
v -0.062500 4.937500 0.093750
v -0.062500 4.937500 -0.156250
v 0.062500 4.562500 0.093750
v 0.062500 4.562500 -0.156250
v 0.062500 4.500000 0.093750
v 0.062500 4.500000 -0.156250
v -0.062500 4.562500 0.093750
v -0.062500 4.562500 -0.156250
v -0.062500 4.500000 0.093750
v -0.062500 4.500000 -0.156250
v 0.062500 4.125000 0.093750
v 0.062500 4.125000 -0.156250
v 0.062500 3.937500 0.093750
v 0.062500 3.937500 -0.156250
v -0.062500 4.125000 0.093750
v -0.062500 4.125000 -0.156250
v -0.062500 3.937500 0.093750
v -0.062500 3.937500 -0.156250
v -0.781250 3.250000 0.187500
v -0.781250 3.250000 0.125000
v -0.781250 3.187500 0.187500
v -0.781250 3.187500 0.125000
v -1.156250 3.250000 0.187500
v -1.156250 3.250000 0.125000
v -1.156250 3.187500 0.187500
v -1.156250 3.187500 0.125000
v -1.031250 2.750000 0.187500
v -1.031250 2.750000 0.125000
v -1.031250 2.687500 0.187500
v -1.031250 2.687500 0.125000
v -1.406250 2.750000 0.187500
v -1.406250 2.750000 0.125000
v -1.406250 2.687500 0.187500
v -1.406250 2.687500 0.125000
v -0.781250 2.250000 0.187500
v -0.781250 2.250000 0.125000
v -0.781250 2.187500 0.187500
v -0.781250 2.187500 0.125000
v -1.156250 2.250000 0.187500
v -1.156250 2.250000 0.125000
v -1.156250 2.187500 0.187500
v -1.156250 2.187500 0.125000
v -1.031250 1.750000 0.187500
v -1.031250 1.750000 0.125000
v -1.031250 1.687500 0.187500
v -1.031250 1.687500 0.125000
v -1.406250 1.750000 0.187500
v -1.406250 1.750000 0.125000
v -1.406250 1.687500 0.187500
v -1.406250 1.687500 0.125000
v -0.718750 0.250000 0.375000
v -0.718750 0.250000 -0.375000
v -0.718750 -0.187500 0.375000
v -0.718750 -0.187500 -0.375000
v -1.468750 0.250000 0.375000
v -1.468750 0.250000 -0.375000
v -1.468750 -0.187500 0.375000
v -1.468750 -0.187500 -0.375000
v -0.781250 0.312500 0.250000
v -0.781250 0.312500 -0.250000
v -0.781250 0.250000 0.250000
v -0.781250 0.250000 -0.250000
v -1.406250 0.312500 0.250000
v -1.406250 0.312500 -0.250000
v -1.406250 0.250000 0.250000
v -1.406250 0.250000 -0.250000
v -1.137944 0.507583 -0.037500
v -1.049556 0.419194 -0.037500
v -1.049556 0.419194 -0.118750
v -1.358915 0.286612 -0.037500
v -1.358915 0.286612 -0.118750
v -1.270527 0.198223 -0.037500
v -1.270527 0.198223 -0.118750
v -0.836167 0.294194 -0.037500
v -0.836167 0.294194 -0.118750
v -0.924556 0.205806 -0.037500
v -0.924556 0.205806 -0.118750
v -1.057138 0.515165 -0.037500
v -1.057138 0.515165 -0.118750
v -1.145527 0.426777 -0.037500
v -1.145527 0.426777 -0.118750
v -0.836167 0.294194 0.118750
v -0.836167 0.294194 0.037500
v -0.924556 0.205806 0.118750
v -0.924556 0.205806 0.037500
v -1.057138 0.515165 0.118750
v -1.057138 0.515165 0.037500
v -1.145527 0.426777 0.118750
v -1.145527 0.426777 0.037500
v -1.137944 0.507583 0.118750
v -1.137944 0.507583 0.037500
v -1.049556 0.419194 0.118750
v -1.049556 0.419194 0.037500
v -1.358915 0.286612 0.118750
v -1.358915 0.286612 0.037500
v -1.270527 0.198223 0.118750
v -1.270527 0.198223 0.037500
v -0.781250 1.312500 0.500000
v -0.781250 1.312500 0.125000
v -0.781250 0.500000 0.500000
v -0.781250 0.500000 0.125000
v -1.406250 1.312500 0.500000
v -1.406250 1.312500 0.125000
v -1.406250 0.500000 0.500000
v -1.406250 0.500000 0.125000
v -0.904029 3.861136 0.118750
v -0.904029 3.861136 0.068750
v -0.771447 3.728553 0.118750
v -0.771447 3.728553 0.068750
v -1.125000 3.640165 0.118750
v -1.125000 3.640165 0.068750
v -0.992417 3.507582 0.118750
v -0.992417 3.507582 0.068750
v -0.904029 3.861136 -0.068750
v -0.904029 3.861136 -0.118750
v -0.771447 3.728553 -0.068750
v -0.771447 3.728553 -0.118750
v -1.125000 3.640165 -0.068750
v -1.125000 3.640165 -0.118750
v -0.992417 3.507582 -0.068750
v -0.992417 3.507582 -0.118750
v 0.187500 3.875000 0.250000
v 0.187500 3.875000 -0.250000
v 0.187500 3.812500 0.250000
v 0.187500 3.812500 -0.250000
v -0.937500 3.875000 0.250000
v -0.937500 3.875000 -0.250000
v -0.937500 3.812500 0.250000
v -0.937500 3.812500 -0.250000
v -0.375000 3.812500 0.187500
v -0.375000 3.812500 -0.187500
v -0.375000 3.687500 0.187500
v -0.375000 3.687500 -0.187500
v -1.218750 3.812500 0.187500
v -1.218750 3.812500 -0.187500
v -1.218750 3.687500 0.187500
v -1.218750 3.687500 -0.187500
v 0.187500 3.812500 0.187500
v 0.187500 3.812500 -0.187500
v 0.187500 3.687500 0.187500
v 0.187500 3.687500 -0.187500
v -0.375000 3.812500 0.187500
v -0.375000 3.812500 -0.187500
v -0.375000 3.687500 0.187500
v -0.375000 3.687500 -0.187500
v -0.937500 3.875000 0.187500
v -0.937500 3.875000 -0.187500
v -0.937500 3.812500 0.187500
v -0.937500 3.812500 -0.187500
v -1.218750 3.875000 0.187500
v -1.218750 3.875000 -0.187500
v -1.218750 3.812500 0.187500
v -1.218750 3.812500 -0.187500
v -0.375000 3.812500 -0.187500
v -0.375000 3.812500 -0.250000
v -0.375000 3.687500 -0.187500
v -0.437500 3.812500 -0.187500
v -0.437500 3.812500 -0.250000
v -0.437500 3.687500 -0.187500
v -0.125000 3.812500 -0.187500
v -0.125000 3.812500 -0.250000
v -0.125000 3.687500 -0.187500
v -0.187500 3.812500 -0.187500
v -0.187500 3.812500 -0.250000
v -0.187500 3.687500 -0.187500
v 0.125000 3.812500 -0.187500
v 0.125000 3.812500 -0.250000
v 0.125000 3.687500 -0.187500
v 0.062500 3.812500 -0.187500
v 0.062500 3.812500 -0.250000
v 0.062500 3.687500 -0.187500
v -0.625000 3.812500 -0.187500
v -0.625000 3.812500 -0.250000
v -0.625000 3.687500 -0.187500
v -0.687500 3.812500 -0.187500
v -0.687500 3.812500 -0.250000
v -0.687500 3.687500 -0.187500
v -0.875000 3.812500 -0.187500
v -0.875000 3.812500 -0.250000
v -0.875000 3.687500 -0.187500
v -0.937500 3.812500 -0.187500
v -0.937500 3.812500 -0.250000
v -0.937500 3.687500 -0.187500
v -0.437500 3.812500 0.187500
v -0.437500 3.812500 0.250000
v -0.437500 3.687500 0.187500
v -0.500000 3.812500 0.187500
v -0.500000 3.812500 0.250000
v -0.500000 3.687500 0.187500
v -0.625000 3.812500 0.187500
v -0.625000 3.812500 0.250000
v -0.625000 3.687500 0.187500
v -0.687500 3.812500 0.187500
v -0.687500 3.812500 0.250000
v -0.687500 3.687500 0.187500
v -0.812500 3.812500 0.187500
v -0.812500 3.812500 0.250000
v -0.812500 3.687500 0.187500
v -0.875000 3.812500 0.187500
v -0.875000 3.812500 0.250000
v -0.875000 3.687500 0.187500
v -0.187500 3.687500 0.062500
v -0.187500 3.687500 -0.062500
v -0.187500 3.437500 0.062500
v -0.187500 3.437500 -0.062500
v -0.250000 3.687500 0.062500
v -0.250000 3.687500 -0.062500
v -0.250000 3.437500 0.062500
v -0.250000 3.437500 -0.062500
v 0.109375 3.687500 0.031250
v 0.109375 3.687500 -0.031250
v 0.109375 3.568750 0.031250
v 0.109375 3.568750 -0.031250
v 0.062500 3.687500 0.031250
v 0.062500 3.687500 -0.031250
v 0.062500 3.568750 0.031250
v 0.062500 3.568750 -0.031250
v -0.015625 3.490625 0.031250
v -0.015625 3.490625 -0.031250
v -0.015625 3.443750 0.031250
v -0.015625 3.443750 -0.031250
v -0.218750 3.490625 0.031250
v -0.218750 3.490625 -0.031250
v -0.218750 3.443750 0.031250
v -0.218750 3.443750 -0.031250
v -0.390625 3.553125 0.031250
v -0.390625 3.553125 -0.031250
v -0.390625 3.506250 0.031250
v -0.390625 3.506250 -0.031250
v -0.968750 3.615625 0.031250
v -0.968750 3.615625 -0.031250
v -0.968750 3.568750 0.031250
v -0.968750 3.568750 -0.031250
v -0.218750 3.490625 0.031250
v -0.218750 3.490625 -0.031250
v -0.218750 3.443750 0.031250
v -0.218750 3.443750 -0.031250
v -0.406250 3.553125 0.031250
v -0.406250 3.553125 -0.031250
v -0.406250 3.506250 0.031250
v -0.406250 3.506250 -0.031250
v 0.062500 3.568750 0.031250
v 0.062500 3.568750 -0.031250
v 0.109375 3.568750 0.031250
v 0.109375 3.568750 -0.031250
v -0.015625 3.490625 0.031250
v -0.015625 3.490625 -0.031250
v -0.015625 3.443750 0.031250
v -0.015625 3.443750 -0.031250
v 0.000000 4.000000 -0.162500
v 0.000000 4.000000 -0.212500
v -0.062500 3.875000 -0.162500
v -0.062500 3.875000 -0.212500
v -0.062500 4.000000 -0.162500
v -0.062500 4.000000 -0.212500
v -0.125000 3.875000 -0.162500
v -0.125000 3.875000 -0.212500
v 0.062500 4.000000 -0.162500
v 0.062500 4.000000 -0.212500
v 0.125000 3.875000 -0.162500
v 0.125000 3.875000 -0.212500
v 0.062500 3.875000 -0.162500
v 0.062500 3.875000 -0.212500
v 0.000000 4.000000 -0.162500
v 0.000000 4.000000 -0.212500
v 0.062500 4.000000 0.212500
v 0.062500 4.000000 0.100000
v 0.125000 3.875000 0.212500
v 0.125000 3.875000 0.100000
v 0.062500 3.875000 0.212500
v 0.062500 3.875000 0.100000
v 0.000000 4.000000 0.212500
v 0.000000 4.000000 0.100000
v 0.000000 4.000000 0.212500
v 0.000000 4.000000 0.100000
v -0.062500 3.875000 0.212500
v -0.062500 3.875000 0.100000
v -0.062500 4.000000 0.212500
v -0.062500 4.000000 0.100000
v -0.125000 3.875000 0.212500
v -0.125000 3.875000 0.100000
v -0.381250 3.937500 0.306250
v -0.381250 3.937500 -0.693750
v -0.381250 3.875000 0.306250
v -0.381250 3.875000 -0.693750
v -1.256250 3.937500 0.306250
v -1.256250 3.937500 -0.693750
v -1.256250 3.875000 0.306250
v -1.256250 3.875000 -0.693750
v -0.381250 4.437500 -0.225000
v -0.381250 4.437500 -0.725000
v -0.381250 4.406250 -0.225000
v -0.381250 4.406250 -0.725000
v -0.412500 4.437500 -0.225000
v -0.412500 4.437500 -0.725000
v -0.412500 4.406250 -0.225000
v -0.412500 4.406250 -0.725000
v -0.381250 4.875000 -0.225000
v -0.381250 4.875000 -0.725000
v -0.381250 4.843750 -0.225000
v -0.381250 4.843750 -0.725000
v -0.412500 4.875000 -0.225000
v -0.412500 4.875000 -0.725000
v -0.412500 4.843750 -0.225000
v -0.412500 4.843750 -0.725000
v -0.381250 3.937500 -0.693750
v -0.381250 3.937500 -0.756250
v -0.381250 3.875000 -0.693750
v -0.381250 3.875000 -0.756250
v -1.256250 3.937500 -0.693750
v -1.256250 3.937500 -0.756250
v -1.256250 3.875000 -0.693750
v -1.256250 3.875000 -0.756250
v -0.412500 4.437500 -0.725000
v -0.412500 4.437500 -0.756250
v -0.412500 4.406250 -0.725000
v -0.412500 4.406250 -0.756250
v -1.225000 4.437500 -0.725000
v -1.225000 4.437500 -0.756250
v -1.225000 4.406250 -0.725000
v -1.225000 4.406250 -0.756250
v -0.412500 4.875000 -0.725000
v -0.412500 4.875000 -0.756250
v -0.412500 4.843750 -0.725000
v -0.412500 4.843750 -0.756250
v -1.225000 4.875000 -0.725000
v -1.225000 4.875000 -0.756250
v -1.225000 4.843750 -0.725000
v -1.225000 4.843750 -0.756250
v -0.412500 4.437500 0.306250
v -0.412500 4.437500 0.275000
v -0.412500 4.406250 0.306250
v -0.412500 4.406250 0.275000
v -0.787500 4.437500 0.306250
v -0.787500 4.437500 0.275000
v -0.787500 4.406250 0.306250
v -0.787500 4.406250 0.275000
v -0.412500 4.875000 0.306250
v -0.412500 4.875000 0.275000
v -0.412500 4.843750 0.306250
v -0.412500 4.843750 0.275000
v -0.787500 4.875000 0.306250
v -0.787500 4.875000 0.275000
v -0.787500 4.843750 0.306250
v -0.787500 4.843750 0.275000
v -1.225000 4.875000 -0.725000
v -1.225000 4.875000 -0.756250
v -1.225000 3.937500 -0.725000
v -1.225000 3.937500 -0.756250
v -1.256250 4.875000 -0.725000
v -1.256250 4.875000 -0.756250
v -1.256250 3.937500 -0.725000
v -1.256250 3.937500 -0.756250
v -0.381250 4.875000 -0.725000
v -0.381250 4.875000 -0.756250
v -0.381250 3.937500 -0.725000
v -0.381250 3.937500 -0.756250
v -0.412500 4.875000 -0.725000
v -0.412500 4.875000 -0.756250
v -0.412500 3.937500 -0.725000
v -0.412500 3.937500 -0.756250
v -0.381250 4.875000 -0.193750
v -0.381250 4.875000 -0.225000
v -0.381250 3.937500 -0.193750
v -0.381250 3.937500 -0.225000
v -0.412500 4.875000 -0.193750
v -0.412500 4.875000 -0.225000
v -0.412500 3.937500 -0.193750
v -0.412500 3.937500 -0.225000
v -1.225000 4.875000 0.306250
v -1.225000 4.875000 0.275000
v -1.225000 3.937500 0.306250
v -1.225000 3.937500 0.275000
v -1.256250 4.875000 0.306250
v -1.256250 4.875000 0.275000
v -1.256250 3.937500 0.306250
v -1.256250 3.937500 0.275000
v -0.381250 4.875000 0.306250
v -0.381250 4.875000 0.275000
v -0.381250 3.937500 0.306250
v -0.381250 3.937500 0.275000
v -0.412500 4.875000 0.306250
v -0.412500 4.875000 0.275000
v -0.412500 3.937500 0.306250
v -0.412500 3.937500 0.275000
v -0.787500 4.875000 0.306250
v -0.787500 4.875000 0.275000
v -0.787500 3.937500 0.306250
v -0.787500 3.937500 0.275000
v -0.818750 4.875000 0.306250
v -0.818750 4.875000 0.275000
v -0.818750 3.937500 0.306250
v -0.818750 3.937500 0.275000
v -1.225000 4.875000 0.275000
v -1.225000 4.875000 -0.725000
v -1.225000 4.843750 0.275000
v -1.225000 4.843750 -0.725000
v -1.256250 4.875000 0.275000
v -1.256250 4.875000 -0.725000
v -1.256250 4.843750 0.275000
v -1.256250 4.843750 -0.725000
v -1.225000 4.437500 0.275000
v -1.225000 4.437500 -0.725000
v -1.225000 4.406250 0.275000
v -1.225000 4.406250 -0.725000
v -1.256250 4.437500 0.275000
v -1.256250 4.437500 -0.725000
v -1.256250 4.406250 0.275000
v -1.256250 4.406250 -0.725000
v -0.975000 3.875000 -0.193750
v -0.975000 3.875000 -0.693750
v -0.975000 3.812500 -0.193750
v -0.975000 3.812500 -0.693750
v -1.162500 3.875000 -0.193750
v -1.162500 3.875000 -0.693750
v -1.162500 3.812500 -0.193750
v -1.162500 3.812500 -0.693750
v -0.975000 3.812500 -0.193750
v -0.975000 3.812500 -0.693750
v -0.975000 3.687500 -0.193750
v -0.975000 3.687500 -0.693750
v -1.037500 3.812500 -0.193750
v -1.037500 3.812500 -0.693750
v -1.037500 3.687500 -0.193750
v -1.037500 3.687500 -0.693750
v -1.031250 3.687500 -0.125000
v -1.031250 3.687500 -0.156250
v -1.031250 2.687500 -0.125000
v -1.031250 2.687500 -0.156250
v -1.156250 3.687500 -0.125000
v -1.156250 3.687500 -0.156250
v -1.156250 2.687500 -0.125000
v -1.156250 2.687500 -0.156250
v 0.375000 6.000000 -0.437500
v 0.375000 6.000000 -0.500000
v 0.375000 5.000000 -0.437500
v 0.375000 5.000000 -0.500000
v -0.375000 6.000000 -0.437500
v -0.375000 6.000000 -0.500000
v -0.375000 5.000000 -0.437500
v -0.375000 5.000000 -0.500000
v 0.312500 6.000000 -0.312500
v 0.312500 6.000000 -0.437500
v 0.312500 5.000000 -0.312500
v 0.312500 5.000000 -0.437500
v -0.312500 6.000000 -0.312500
v -0.312500 6.000000 -0.437500
v -0.312500 5.000000 -0.312500
v -0.312500 5.000000 -0.437500
v 0.156250 5.484375 -0.534375
v 0.181370 5.578125 -0.534375
v 0.224880 5.553005 -0.534375
v 0.250000 5.509495 -0.534375
v 0.250000 5.459255 -0.534375
v 0.224880 5.415745 -0.534375
v 0.181370 5.390625 -0.534375
v 0.131130 5.390625 -0.534375
v 0.087620 5.415745 -0.534375
v 0.062500 5.459255 -0.534375
v 0.062500 5.509495 -0.534375
v 0.087620 5.553005 -0.534375
v 0.131130 5.578125 -0.534375
v 0.183464 5.585938 -0.500000
v 0.183464 5.585938 -0.562500
v 0.176050 5.558270 -0.500000
v 0.176050 5.558270 -0.562500
v 0.230599 5.558724 -0.500000
v 0.230599 5.558724 -0.562500
v 0.210345 5.538470 -0.500000
v 0.210345 5.538470 -0.562500
v 0.257812 5.511589 -0.500000
v 0.257812 5.511589 -0.562500
v 0.230145 5.504175 -0.500000
v 0.230145 5.504175 -0.562500
v 0.257812 5.457161 -0.500000
v 0.257812 5.457161 -0.562500
v 0.230145 5.464575 -0.500000
v 0.230145 5.464575 -0.562500
v 0.230599 5.410026 -0.500000
v 0.230599 5.410026 -0.562500
v 0.210345 5.430280 -0.500000
v 0.210345 5.430280 -0.562500
v 0.183464 5.382812 -0.500000
v 0.183464 5.382812 -0.562500
v 0.176050 5.410480 -0.500000
v 0.176050 5.410480 -0.562500
v 0.129036 5.382812 -0.500000
v 0.129036 5.382812 -0.562500
v 0.136450 5.410480 -0.500000
v 0.136450 5.410480 -0.562500
v 0.081901 5.410026 -0.500000
v 0.081901 5.410026 -0.562500
v 0.102155 5.430280 -0.500000
v 0.102155 5.430280 -0.562500
v 0.054688 5.457161 -0.500000
v 0.054688 5.457161 -0.562500
v 0.082355 5.464575 -0.500000
v 0.082355 5.464575 -0.562500
v 0.054688 5.511589 -0.500000
v 0.054688 5.511589 -0.562500
v 0.082355 5.504175 -0.500000
v 0.082355 5.504175 -0.562500
v 0.081901 5.558724 -0.500000
v 0.081901 5.558724 -0.562500
v 0.102155 5.538470 -0.500000
v 0.102155 5.538470 -0.562500
v 0.129036 5.585938 -0.500000
v 0.129036 5.585938 -0.562500
v 0.136450 5.558270 -0.500000
v 0.136450 5.558270 -0.562500
v 0.218750 5.621875 -0.500000
v 0.218750 5.621875 -0.937500
v 0.218750 5.590625 -0.500000
v 0.218750 5.590625 -0.937500
v 0.093750 5.621875 -0.500000
v 0.093750 5.621875 -0.937500
v 0.093750 5.590625 -0.500000
v 0.093750 5.590625 -0.937500
v 0.027459 5.512500 -0.500000
v 0.027459 5.512500 -0.562500
v 0.027459 5.448889 -0.500000
v 0.027459 5.448889 -0.562500
v -0.003791 5.512500 -0.500000
v -0.003791 5.512500 -0.562500
v -0.003791 5.448889 -0.500000
v -0.003791 5.448889 -0.562500
v 0.315625 5.512500 -0.500000
v 0.315625 5.512500 -0.562500
v 0.315625 5.448889 -0.500000
v 0.315625 5.448889 -0.562500
v 0.284375 5.512500 -0.500000
v 0.284375 5.512500 -0.562500
v 0.284375 5.448889 -0.500000
v 0.284375 5.448889 -0.562500
v 0.315625 5.512500 -0.500000
v 0.315625 5.512500 -0.562500
v 0.284375 5.512500 -0.500000
v 0.284375 5.512500 -0.562500
v 0.218750 5.621875 -0.500000
v 0.218750 5.621875 -0.937500
v 0.218750 5.590625 -0.500000
v 0.218750 5.590625 -0.937500
v 0.027459 5.512500 -0.500000
v 0.027459 5.512500 -0.562500
v -0.003791 5.512500 -0.500000
v -0.003791 5.512500 -0.562500
v 0.093750 5.590625 -0.500000
v 0.093750 5.590625 -0.937500
v 0.093750 5.621875 -0.500000
v 0.093750 5.621875 -0.937500
v 0.183464 5.585938 -0.500000
v 0.183464 5.585938 -0.562500
v 0.176050 5.558270 -0.500000
v 0.176050 5.558270 -0.562500
v 0.230599 5.558724 -0.500000
v 0.230599 5.558724 -0.562500
v 0.210345 5.538470 -0.500000
v 0.210345 5.538470 -0.562500
v 0.257812 5.511589 -0.500000
v 0.257812 5.511589 -0.562500
v 0.230145 5.504175 -0.500000
v 0.230145 5.504175 -0.562500
v 0.257812 5.457161 -0.500000
v 0.257812 5.457161 -0.562500
v 0.230145 5.464575 -0.500000
v 0.230145 5.464575 -0.562500
v 0.230599 5.410026 -0.500000
v 0.230599 5.410026 -0.562500
v 0.210345 5.430280 -0.500000
v 0.210345 5.430280 -0.562500
v 0.183464 5.382812 -0.500000
v 0.183464 5.382812 -0.562500
v 0.176050 5.410480 -0.500000
v 0.176050 5.410480 -0.562500
v 0.129036 5.382812 -0.500000
v 0.129036 5.382812 -0.562500
v 0.136450 5.410480 -0.500000
v 0.136450 5.410480 -0.562500
v 0.081901 5.410026 -0.500000
v 0.081901 5.410026 -0.562500
v 0.102155 5.430280 -0.500000
v 0.102155 5.430280 -0.562500
v 0.054688 5.457161 -0.500000
v 0.054688 5.457161 -0.562500
v 0.082355 5.464575 -0.500000
v 0.082355 5.464575 -0.562500
v 0.054688 5.511589 -0.500000
v 0.054688 5.511589 -0.562500
v 0.082355 5.504175 -0.500000
v 0.082355 5.504175 -0.562500
v 0.081901 5.558724 -0.500000
v 0.081901 5.558724 -0.562500
v 0.102155 5.538470 -0.500000
v 0.102155 5.538470 -0.562500
v 0.129036 5.585938 -0.500000
v 0.129036 5.585938 -0.562500
v 0.136450 5.558270 -0.500000
v 0.136450 5.558270 -0.562500
v -0.156250 5.484375 -0.534375
v -0.131130 5.578125 -0.534375
v -0.087620 5.553005 -0.534375
v -0.062500 5.509495 -0.534375
v -0.062500 5.459255 -0.534375
v -0.087620 5.415745 -0.534375
v -0.131130 5.390625 -0.534375
v -0.181370 5.390625 -0.534375
v -0.224880 5.415745 -0.534375
v -0.250000 5.459255 -0.534375
v -0.250000 5.509495 -0.534375
v -0.224880 5.553005 -0.534375
v -0.181370 5.578125 -0.534375
v -0.129036 5.585938 -0.500000
v -0.129036 5.585938 -0.562500
v -0.136450 5.558270 -0.500000
v -0.136450 5.558270 -0.562500
v -0.081901 5.558724 -0.500000
v -0.081901 5.558724 -0.562500
v -0.102155 5.538470 -0.500000
v -0.102155 5.538470 -0.562500
v -0.054688 5.511589 -0.500000
v -0.054688 5.511589 -0.562500
v -0.082355 5.504175 -0.500000
v -0.082355 5.504175 -0.562500
v -0.054688 5.457161 -0.500000
v -0.054688 5.457161 -0.562500
v -0.082355 5.464575 -0.500000
v -0.082355 5.464575 -0.562500
v -0.081901 5.410026 -0.500000
v -0.081901 5.410026 -0.562500
v -0.102155 5.430280 -0.500000
v -0.102155 5.430280 -0.562500
v -0.129036 5.382812 -0.500000
v -0.129036 5.382812 -0.562500
v -0.136450 5.410480 -0.500000
v -0.136450 5.410480 -0.562500
v -0.183464 5.382812 -0.500000
v -0.183464 5.382812 -0.562500
v -0.176050 5.410480 -0.500000
v -0.176050 5.410480 -0.562500
v -0.230599 5.410026 -0.500000
v -0.230599 5.410026 -0.562500
v -0.210345 5.430280 -0.500000
v -0.210345 5.430280 -0.562500
v -0.257812 5.457161 -0.500000
v -0.257812 5.457161 -0.562500
v -0.230145 5.464575 -0.500000
v -0.230145 5.464575 -0.562500
v -0.257812 5.511589 -0.500000
v -0.257812 5.511589 -0.562500
v -0.230145 5.504175 -0.500000
v -0.230145 5.504175 -0.562500
v -0.230599 5.558724 -0.500000
v -0.230599 5.558724 -0.562500
v -0.210345 5.538470 -0.500000
v -0.210345 5.538470 -0.562500
v -0.183464 5.585938 -0.500000
v -0.183464 5.585938 -0.562500
v -0.176050 5.558270 -0.500000
v -0.176050 5.558270 -0.562500
v -0.093750 5.621875 -0.500000
v -0.093750 5.621875 -0.937500
v -0.093750 5.590625 -0.500000
v -0.093750 5.590625 -0.937500
v -0.218750 5.621875 -0.500000
v -0.218750 5.621875 -0.937500
v -0.218750 5.590625 -0.500000
v -0.218750 5.590625 -0.937500
v -0.285041 5.512500 -0.500000
v -0.285041 5.512500 -0.562500
v -0.285041 5.448889 -0.500000
v -0.285041 5.448889 -0.562500
v -0.316291 5.512500 -0.500000
v -0.316291 5.512500 -0.562500
v -0.316291 5.448889 -0.500000
v -0.316291 5.448889 -0.562500
v 0.003125 5.512500 -0.500000
v 0.003125 5.512500 -0.562500
v 0.003125 5.448889 -0.500000
v 0.003125 5.448889 -0.562500
v -0.028125 5.512500 -0.500000
v -0.028125 5.512500 -0.562500
v -0.028125 5.448889 -0.500000
v -0.028125 5.448889 -0.562500
v 0.003125 5.512500 -0.500000
v 0.003125 5.512500 -0.562500
v -0.028125 5.512500 -0.500000
v -0.028125 5.512500 -0.562500
v -0.093750 5.621875 -0.500000
v -0.093750 5.621875 -0.937500
v -0.093750 5.590625 -0.500000
v -0.093750 5.590625 -0.937500
v -0.285041 5.512500 -0.500000
v -0.285041 5.512500 -0.562500
v -0.316291 5.512500 -0.500000
v -0.316291 5.512500 -0.562500
v -0.218750 5.590625 -0.500000
v -0.218750 5.590625 -0.937500
v -0.218750 5.621875 -0.500000
v -0.218750 5.621875 -0.937500
v -0.129036 5.585938 -0.500000
v -0.129036 5.585938 -0.562500
v -0.136450 5.558270 -0.500000
v -0.136450 5.558270 -0.562500
v -0.081901 5.558724 -0.500000
v -0.081901 5.558724 -0.562500
v -0.102155 5.538470 -0.500000
v -0.102155 5.538470 -0.562500
v -0.054688 5.511589 -0.500000
v -0.054688 5.511589 -0.562500
v -0.082355 5.504175 -0.500000
v -0.082355 5.504175 -0.562500
v -0.054688 5.457161 -0.500000
v -0.054688 5.457161 -0.562500
v -0.082355 5.464575 -0.500000
v -0.082355 5.464575 -0.562500
v -0.081901 5.410026 -0.500000
v -0.081901 5.410026 -0.562500
v -0.102155 5.430280 -0.500000
v -0.102155 5.430280 -0.562500
v -0.129036 5.382812 -0.500000
v -0.129036 5.382812 -0.562500
v -0.136450 5.410480 -0.500000
v -0.136450 5.410480 -0.562500
v -0.183464 5.382812 -0.500000
v -0.183464 5.382812 -0.562500
v -0.176050 5.410480 -0.500000
v -0.176050 5.410480 -0.562500
v -0.230599 5.410026 -0.500000
v -0.230599 5.410026 -0.562500
v -0.210345 5.430280 -0.500000
v -0.210345 5.430280 -0.562500
v -0.257812 5.457161 -0.500000
v -0.257812 5.457161 -0.562500
v -0.230145 5.464575 -0.500000
v -0.230145 5.464575 -0.562500
v -0.257812 5.511589 -0.500000
v -0.257812 5.511589 -0.562500
v -0.230145 5.504175 -0.500000
v -0.230145 5.504175 -0.562500
v -0.230599 5.558724 -0.500000
v -0.230599 5.558724 -0.562500
v -0.210345 5.538470 -0.500000
v -0.210345 5.538470 -0.562500
v -0.183464 5.585938 -0.500000
v -0.183464 5.585938 -0.562500
v -0.176050 5.558270 -0.500000
v -0.176050 5.558270 -0.562500
v 0.265625 5.906250 -0.500000
v 0.265625 5.906250 -0.687500
v 0.265625 5.875000 -0.500000
v 0.265625 5.875000 -0.687500
v 0.171875 5.906250 -0.500000
v 0.171875 5.906250 -0.687500
v 0.171875 5.875000 -0.500000
v 0.171875 5.875000 -0.687500
v 0.218750 5.812500 -0.525000
v 0.233404 5.757812 -0.525000
v 0.258784 5.772466 -0.525000
v 0.273438 5.797846 -0.525000
v 0.273438 5.827154 -0.525000
v 0.258784 5.852534 -0.525000
v 0.233404 5.867188 -0.525000
v 0.204096 5.867188 -0.525000
v 0.178716 5.852534 -0.525000
v 0.164062 5.827154 -0.525000
v 0.164062 5.797846 -0.525000
v 0.178716 5.772466 -0.525000
v 0.204096 5.757812 -0.525000
v 0.235497 5.750000 -0.546875
v 0.235497 5.750000 -0.484375
v 0.227714 5.779045 -0.546875
v 0.227714 5.779045 -0.484375
v 0.264503 5.766747 -0.546875
v 0.264503 5.766747 -0.484375
v 0.243241 5.788009 -0.546875
v 0.243241 5.788009 -0.484375
v 0.281250 5.795753 -0.546875
v 0.281250 5.795753 -0.484375
v 0.252205 5.803535 -0.546875
v 0.252205 5.803535 -0.484375
v 0.281250 5.829247 -0.546875
v 0.281250 5.829247 -0.484375
v 0.252205 5.821465 -0.546875
v 0.252205 5.821465 -0.484375
v 0.264503 5.858253 -0.546875
v 0.264503 5.858253 -0.484375
v 0.243241 5.836991 -0.546875
v 0.243241 5.836991 -0.484375
v 0.235497 5.875000 -0.546875
v 0.235497 5.875000 -0.484375
v 0.227714 5.845955 -0.546875
v 0.227714 5.845955 -0.484375
v 0.202003 5.875000 -0.546875
v 0.202003 5.875000 -0.484375
v 0.209786 5.845955 -0.546875
v 0.209786 5.845955 -0.484375
v 0.172997 5.858253 -0.546875
v 0.172997 5.858253 -0.484375
v 0.194259 5.836991 -0.546875
v 0.194259 5.836991 -0.484375
v 0.156250 5.829247 -0.546875
v 0.156250 5.829247 -0.484375
v 0.185295 5.821465 -0.546875
v 0.185295 5.821465 -0.484375
v 0.156250 5.795753 -0.546875
v 0.156250 5.795753 -0.484375
v 0.185295 5.803535 -0.546875
v 0.185295 5.803535 -0.484375
v 0.172997 5.766747 -0.546875
v 0.172997 5.766747 -0.484375
v 0.194259 5.788009 -0.546875
v 0.194259 5.788009 -0.484375
v 0.202003 5.750000 -0.546875
v 0.202003 5.750000 -0.484375
v 0.209786 5.779045 -0.546875
v 0.209786 5.779045 -0.484375
v 0.156629 5.843561 -0.490625
v 0.156629 5.843561 -0.568750
v 0.156629 5.781061 -0.490625
v 0.156629 5.781061 -0.568750
v 0.125379 5.843561 -0.490625
v 0.125379 5.843561 -0.568750
v 0.125379 5.781061 -0.490625
v 0.125379 5.781061 -0.568750
v 0.312879 5.843561 -0.490625
v 0.312879 5.843561 -0.568750
v 0.312879 5.781061 -0.490625
v 0.312879 5.781061 -0.568750
v 0.281629 5.843561 -0.490625
v 0.281629 5.843561 -0.568750
v 0.281629 5.781061 -0.490625
v 0.281629 5.781061 -0.568750
v 0.171875 5.906250 -0.500000
v 0.171875 5.906250 -0.687500
v 0.171875 5.875000 -0.500000
v 0.171875 5.875000 -0.687500
v 0.125000 5.843750 -0.500000
v 0.125000 5.843750 -0.568750
v 0.156250 5.843750 -0.500000
v 0.156250 5.843750 -0.568750
v 0.265625 5.906250 -0.500000
v 0.265625 5.906250 -0.687500
v 0.312500 5.843750 -0.500000
v 0.312500 5.843750 -0.571875
v 0.265625 5.875000 -0.500000
v 0.265625 5.875000 -0.687500
v 0.281250 5.843750 -0.500000
v 0.281250 5.843750 -0.571875
v -0.812500 2.734375 -0.118750
v -0.812500 2.734375 -0.181250
v -0.812500 1.921875 -0.118750
v -0.812500 1.921875 -0.181250
v -1.375000 2.734375 -0.118750
v -1.375000 2.734375 -0.181250
v -1.375000 1.921875 -0.118750
v -1.375000 1.921875 -0.181250
v -0.859375 2.678125 -0.181250
v -0.859375 2.678125 -0.187500
v -1.093750 2.328125 -0.181250
v -1.093750 2.328125 -0.187500
v -0.937500 2.678125 -0.181250
v -0.937500 2.678125 -0.187500
v -1.093750 2.437500 -0.181250
v -1.093750 2.437500 -0.187500
v -1.328125 1.978125 -0.181250
v -1.328125 1.978125 -0.187500
v -1.093750 2.328125 -0.181250
v -1.093750 2.328125 -0.187500
v -1.250000 1.978125 -0.181250
v -1.250000 1.978125 -0.187500
v -1.093750 2.218750 -0.181250
v -1.093750 2.218750 -0.187500
v -1.250000 2.687500 -0.181250
v -1.250000 2.687500 -0.187500
v -1.093750 2.437500 -0.181250
v -1.093750 2.437500 -0.187500
v -1.328125 2.687500 -0.181250
v -1.328125 2.687500 -0.187500
v -1.093750 2.328125 -0.181250
v -1.093750 2.328125 -0.187500
v -0.937500 1.968750 -0.181250
v -0.937500 1.968750 -0.187500
v -1.093750 2.218750 -0.181250
v -1.093750 2.218750 -0.187500
v -0.859375 1.968750 -0.181250
v -0.859375 1.968750 -0.187500
v -1.093750 2.328125 -0.181250
v -1.093750 2.328125 -0.187500
v 0.250000 5.875000 0.671875
v 0.250000 5.875000 0.640625
v 0.250000 5.000000 0.671875
v 0.250000 5.000000 0.640625
v 0.218750 5.875000 0.671875
v 0.218750 5.875000 0.640625
v 0.218750 5.000000 0.671875
v 0.218750 5.000000 0.640625
v -0.218750 5.875000 0.671875
v -0.218750 5.875000 0.640625
v -0.218750 5.000000 0.671875
v -0.218750 5.000000 0.640625
v -0.250000 5.875000 0.671875
v -0.250000 5.875000 0.640625
v -0.250000 5.000000 0.671875
v -0.250000 5.000000 0.640625
v 0.368750 5.884903 0.300697
v 0.368750 5.879477 0.269922
v 0.368750 5.084747 0.441786
v 0.368750 5.079321 0.411011
v 0.337500 5.884903 0.300697
v 0.337500 5.879477 0.269922
v 0.337500 5.084747 0.441786
v 0.337500 5.079321 0.411011
v 0.368750 5.090997 0.441786
v 0.368750 5.080144 0.411486
v 0.243750 4.961646 0.463492
v 0.243750 4.950793 0.433191
v 0.337500 5.090997 0.441786
v 0.337500 5.080144 0.411486
v 0.212500 4.961646 0.463492
v 0.212500 4.950793 0.433191
v -0.350000 5.090997 0.441786
v -0.350000 5.080144 0.411486
v -0.225000 4.961646 0.463492
v -0.225000 4.950793 0.433191
v -0.381250 5.090997 0.441786
v -0.381250 5.080144 0.411486
v -0.256250 4.961646 0.463492
v -0.256250 4.950793 0.433191
v -0.350000 5.884903 0.300697
v -0.350000 5.879477 0.269922
v -0.350000 5.084747 0.441786
v -0.350000 5.079321 0.411011
v -0.381250 5.884903 0.300697
v -0.381250 5.879477 0.269922
v -0.381250 5.084747 0.441786
v -0.381250 5.079321 0.411011
v 0.312500 5.906250 0.671875
v 0.312500 5.906250 0.640625
v 0.312500 5.875000 0.671875
v 0.312500 5.875000 0.640625
v -0.312500 5.906250 0.671875
v -0.312500 5.906250 0.640625
v -0.312500 5.875000 0.671875
v -0.312500 5.875000 0.640625
v 0.375000 5.818750 -0.343750
v 0.375000 5.818750 -0.437500
v 0.375000 5.000000 -0.343750
v 0.375000 5.000000 -0.437500
v 0.312500 5.818750 -0.343750
v 0.312500 5.818750 -0.437500
v 0.312500 5.000000 -0.343750
v 0.312500 5.000000 -0.437500
v -0.312500 5.818750 -0.343750
v -0.312500 5.818750 -0.437500
v -0.312500 5.000000 -0.343750
v -0.312500 5.000000 -0.437500
v -0.375000 5.818750 -0.343750
v -0.375000 5.818750 -0.437500
v -0.375000 5.000000 -0.343750
v -0.375000 5.000000 -0.437500
v -0.343750 5.906250 0.562500
v -0.343750 5.906250 -0.000000
v -0.343750 5.875000 0.562500
v -0.343750 5.875000 -0.000000
v -0.375000 5.906250 0.562500
v -0.375000 5.906250 -0.000000
v -0.375000 5.875000 0.562500
v -0.375000 5.875000 -0.000000
v 0.250000 5.000000 0.687500
v 0.250000 5.000000 0.218750
v 0.250000 4.937500 0.687500
v 0.250000 4.937500 0.218750
v -0.250000 5.000000 0.687500
v -0.250000 5.000000 0.218750
v -0.250000 4.937500 0.687500
v -0.250000 4.937500 0.218750
v -0.312500 5.906250 0.656250
v -0.312500 5.906250 0.562500
v -0.312500 5.875000 0.656250
v -0.312500 5.875000 0.562500
v -0.375000 5.906250 0.656250
v -0.375000 5.906250 0.562500
v -0.375000 5.875000 0.656250
v -0.375000 5.875000 0.562500
v 0.375000 5.906250 0.562500
v 0.375000 5.906250 -0.000000
v 0.375000 5.875000 0.562500
v 0.375000 5.875000 -0.000000
v 0.343750 5.906250 0.562500
v 0.343750 5.906250 -0.000000
v 0.343750 5.875000 0.562500
v 0.343750 5.875000 -0.000000
v 0.375000 5.906250 0.656250
v 0.375000 5.906250 0.562500
v 0.375000 5.875000 0.656250
v 0.375000 5.875000 0.562500
v 0.312500 5.906250 0.656250
v 0.312500 5.906250 0.562500
v 0.312500 5.875000 0.656250
v 0.312500 5.875000 0.562500
v 0.375000 5.000000 -0.343750
v 0.375000 5.000000 -0.437500
v 0.375000 4.937500 -0.343750
v 0.375000 4.937500 -0.437500
v -0.375000 5.000000 -0.343750
v -0.375000 5.000000 -0.437500
v -0.375000 4.937500 -0.343750
v -0.375000 4.937500 -0.437500
v 0.125000 4.718750 -0.343750
v 0.125000 4.718750 -0.437500
v 0.125000 4.687500 -0.343750
v 0.125000 4.687500 -0.437500
v -0.125000 4.718750 -0.343750
v -0.125000 4.718750 -0.437500
v -0.125000 4.687500 -0.343750
v -0.125000 4.687500 -0.437500
v 0.062500 4.718750 -0.218750
v 0.062500 4.718750 -0.343750
v 0.062500 4.687500 -0.218750
v 0.062500 4.687500 -0.343750
v -0.062500 4.718750 -0.218750
v -0.062500 4.718750 -0.343750
v -0.062500 4.687500 -0.218750
v -0.062500 4.687500 -0.343750
v -0.102903 4.709597 -0.337500
v -0.102903 4.709597 -0.431250
v -0.125000 4.687500 -0.337500
v -0.125000 4.687500 -0.431250
v -0.352903 4.959597 -0.337500
v -0.352903 4.959597 -0.431250
v -0.375000 4.937500 -0.337500
v -0.375000 4.937500 -0.431250
v 0.352903 4.959597 -0.337500
v 0.352903 4.959597 -0.431250
v 0.375000 4.937500 -0.337500
v 0.375000 4.937500 -0.431250
v 0.102903 4.709597 -0.337500
v 0.102903 4.709597 -0.431250
v 0.125000 4.687500 -0.337500
v 0.125000 4.687500 -0.431250
v 0.068750 5.062500 -0.187500
v 0.068750 5.062500 -0.312500
v 0.068750 4.937500 -0.187500
v 0.068750 4.937500 -0.312500
v -0.068750 5.062500 -0.187500
v -0.068750 5.062500 -0.312500
v -0.068750 4.937500 -0.187500
v -0.068750 4.937500 -0.312500
v -0.343750 5.812500 -0.218750
v -0.343750 5.812500 -0.406250
v -0.343750 5.781250 -0.218750
v -0.343750 5.781250 -0.406250
v -0.406250 5.812500 -0.218750
v -0.406250 5.812500 -0.406250
v -0.406250 5.781250 -0.218750
v -0.406250 5.781250 -0.406250
v -0.343750 5.156250 -0.218750
v -0.343750 5.156250 -0.406250
v -0.343750 5.125000 -0.218750
v -0.343750 5.125000 -0.406250
v -0.406250 5.156250 -0.218750
v -0.406250 5.156250 -0.406250
v -0.406250 5.125000 -0.218750
v -0.406250 5.125000 -0.406250
v 0.406250 5.781250 -0.187500
v 0.406250 5.781250 -0.218750
v 0.406250 5.156250 -0.187500
v 0.406250 5.156250 -0.218750
v 0.343750 5.781250 -0.187500
v 0.343750 5.781250 -0.218750
v 0.343750 5.156250 -0.187500
v 0.343750 5.156250 -0.218750
v 0.406250 5.156250 -0.187500
v 0.406250 5.156250 -0.218750
v 0.406250 5.125000 -0.218750
v 0.343750 5.156250 -0.187500
v 0.343750 5.156250 -0.218750
v 0.343750 5.125000 -0.218750
v 0.406250 5.812500 -0.218750
v 0.406250 5.812500 -0.406250
v 0.406250 5.781250 -0.218750
v 0.406250 5.781250 -0.406250
v 0.343750 5.812500 -0.218750
v 0.343750 5.812500 -0.406250
v 0.343750 5.781250 -0.218750
v 0.343750 5.781250 -0.406250
v 0.406250 5.812500 -0.218750
v 0.406250 5.781250 -0.187500
v 0.406250 5.781250 -0.218750
v 0.343750 5.812500 -0.218750
v 0.343750 5.781250 -0.187500
v 0.343750 5.781250 -0.218750
v -0.343750 5.812500 -0.218750
v -0.343750 5.781250 -0.187500
v -0.343750 5.781250 -0.218750
v -0.406250 5.812500 -0.218750
v -0.406250 5.781250 -0.187500
v -0.406250 5.781250 -0.218750
v 0.406250 5.156250 -0.218750
v 0.406250 5.156250 -0.406250
v 0.406250 5.125000 -0.218750
v 0.406250 5.125000 -0.406250
v 0.343750 5.156250 -0.218750
v 0.343750 5.156250 -0.406250
v 0.343750 5.125000 -0.218750
v 0.343750 5.125000 -0.406250
v -0.343750 5.781250 -0.187500
v -0.343750 5.781250 -0.218750
v -0.343750 5.156250 -0.187500
v -0.343750 5.156250 -0.218750
v -0.406250 5.781250 -0.187500
v -0.406250 5.781250 -0.218750
v -0.406250 5.156250 -0.187500
v -0.406250 5.156250 -0.218750
v -0.343750 5.156250 -0.187500
v -0.343750 5.156250 -0.218750
v -0.343750 5.125000 -0.218750
v -0.406250 5.156250 -0.187500
v -0.406250 5.156250 -0.218750
v -0.406250 5.125000 -0.218750
v 0.250000 5.000000 0.681250
v 0.062500 4.937500 0.218750
v 0.250000 4.937500 0.681250
v 0.062500 4.875000 0.218750
v 0.187500 5.000000 0.681250
v 0.000000 4.937500 0.218750
v 0.187500 4.937500 0.681250
v 0.000000 4.875000 0.218750
v -0.187500 5.000000 0.681250
v 0.000000 4.937500 0.218750
v -0.187500 4.937500 0.681250
v 0.000000 4.875000 0.218750
v -0.250000 5.000000 0.681250
v -0.062500 4.937500 0.218750
v -0.250000 4.937500 0.681250
v -0.062500 4.875000 0.218750
vn 1.0000 -0.0000 -0.0000
vn -1.0000 -0.0000 -0.0000
vn -0.0000 1.0000 -0.0000
vn -0.0000 -1.0000 -0.0000
vn -0.0000 -0.0000 1.0000
vn -0.0000 -0.0000 -1.0000
vn 0.7071 0.7071 -0.0000
vn -0.7071 -0.7071 -0.0000
vn -0.7071 0.7071 -0.0000
vn 0.7071 -0.7071 -0.0000
vn -0.0000 -0.4472 -0.8944
vn -0.0000 -0.4472 0.8944
vn 0.1075 0.9942 -0.0000
vn -0.1075 -0.9942 -0.0000
vn 0.3162 0.9487 -0.0000
vn -0.3162 -0.9487 -0.0000
vn 0.8944 -0.4472 -0.0000
vn -0.8944 0.4472 -0.0000
vn 0.8944 0.4472 -0.0000
vn -0.8944 -0.4472 -0.0000
vn 0.5000 0.8660 -0.0000
vn -0.5000 -0.8660 -0.0000
vn 0.8660 0.5000 -0.0000
vn -0.8660 -0.5000 -0.0000
vn 0.8660 -0.5000 -0.0000
vn -0.8660 0.5000 -0.0000
vn 0.5000 -0.8660 -0.0000
vn -0.5000 0.8660 -0.0000
vn 0.7486 0.6630 -0.0000
vn -0.7657 -0.6432 -0.0000
vn -0.0000 -0.9600 -0.2799
vn -0.0001 -0.9600 -0.2800
vn 0.7625 -0.6470 -0.0000
vn -0.7463 0.6656 -0.0000
vn 0.0001 -0.9790 -0.2039
vn 0.0001 -0.9790 -0.2040
vn -0.0000 -0.9790 -0.2039
vn -0.0000 -0.9600 -0.2800
vn -0.8000 0.6000 -0.0000
vn -0.9302 -0.0000 -0.3672
vn -0.9301 0.0001 -0.3672
vn -0.9302 -0.0000 -0.3671
vn -0.9302 0.0001 -0.3671
vn 0.8000 0.6000 -0.0000
vn 0.9267 0.0001 -0.3757
vn 0.9267 -0.0000 -0.3757
vn 0.8309 -0.5564 -0.0000
vn -0.8387 0.5446 -0.0000
vn -0.8309 0.5564 -0.0000
vn 0.8387 -0.5446 -0.0000
vn 0.8480 0.5300 -0.0000
vn -0.8376 -0.5463 -0.0000
vn -0.8480 -0.5300 -0.0000
vn 0.8376 0.5463 -0.0000
vn -0.0000 0.9848 -0.1736
vn -0.0000 -0.9848 0.1736
vn -0.0000 0.1736 0.9848
vn -0.0000 -0.1736 -0.9848
vn 0.7184 -0.6549 0.2346
vn -0.7184 0.6549 -0.2346
vn -0.0000 0.9414 -0.3372
vn -0.0000 -0.9414 0.3372
vn -0.0000 0.1655 0.9862
vn -0.0000 -0.1655 -0.9862
vn 0.7184 0.6549 -0.2346
vn -0.7184 -0.6549 0.2346
vn -0.0000 -0.7071 0.7071
vn 0.5469 0.7734 -0.3204
vn 0.5469 -0.3204 0.7734
vn 0.5774 -0.5774 -0.5774
vn -0.5469 0.7734 -0.3204
vn -0.5774 -0.5774 -0.5774
vn -0.5469 -0.3204 0.7734
vn -0.9267 -0.0000 0.3757
vn -0.0000 0.9910 -0.1339
vn -0.0000 -0.9910 0.1339
vn 0.9267 -0.0000 0.3757
vn -0.9267 -0.0000 -0.3757
vt 0.078125 0.750000
vt 0.078125 1.000000
vt 0.015625 1.000000
vt 0.015625 0.750000
vt 0.062500 0.921875
vt 0.062500 0.984375
vt 0.000000 0.984375
vt 0.000000 0.921875
vt 0.062500 0.750000
vt 0.062500 1.000000
vt 0.000000 1.000000
vt 0.000000 0.750000
vt 0.078125 0.859375
vt 0.015625 0.859375
vt 0.062500 0.859375
vt 0.000000 0.859375
vt 0.078125 0.796875
vt 0.015625 0.796875
vt 0.062500 0.796875
vt 0.000000 0.796875
vt 0.031250 0.968750
vt 0.031250 0.984375
vt 0.015625 0.984375
vt 0.015625 0.968750
vt 0.000000 0.968750
vt 0.062500 0.968750
vt 0.046875 0.968750
vt 0.046875 0.984375
vt 0.046875 1.000000
vt 0.062500 0.953125
vt 0.046875 0.953125
vt 0.031250 0.750000
vt 0.031250 1.000000
vt 0.046875 0.750000
vt 0.171875 0.937500
vt 0.171875 0.953125
vt 0.109375 0.953125
vt 0.109375 0.937500
vt 0.028125 0.937500
vt 0.028125 1.000000
vt 0.000000 0.937500
vt 0.028125 0.984375
vt 0.156250 0.906250
vt 0.156250 0.921875
vt 0.093750 0.921875
vt 0.093750 0.906250
vt 0.046875 0.937500
vt 0.140625 0.906250
vt 0.140625 0.921875
vt 0.156250 0.875000
vt 0.093750 0.875000
vt 0.750000 0.718750
vt 0.750000 0.734375
vt 0.734375 0.734375
vt 0.734375 0.718750
vt 0.609375 0.718750
vt 0.609375 0.734375
vt 0.500000 0.734375
vt 0.500000 0.718750
vt 0.187500 0.578125
vt 0.187500 0.687500
vt 0.000000 0.687500
vt 0.000000 0.578125
vt 0.187500 0.500000
vt 0.000000 0.500000
vt 0.140625 0.984375
vt 0.140625 1.000000
vt 0.156250 0.859375
vt 0.156250 0.984375
vt 0.156250 1.000000
vt 0.020312 0.968750
vt 0.020312 1.000000
vt 0.028125 0.968750
vt 0.007812 1.000000
vt 0.007812 0.968750
vt 0.078125 0.971875
vt 0.078125 0.992188
vt 0.000000 0.992188
vt 0.000000 0.971875
vt 0.078125 0.979688
vt 0.000000 0.979688
vt 0.078125 0.968750
vt 0.515625 0.843750
vt 0.515625 1.000000
vt 0.437500 1.000000
vt 0.437500 0.843750
vt 0.390625 0.750000
vt 0.390625 0.828125
vt 0.265625 0.828125
vt 0.265625 0.750000
vt 0.390625 0.843750
vt 0.390625 1.000000
vt 0.265625 1.000000
vt 0.265625 0.843750
vt 0.012500 0.953125
vt 0.012500 1.000000
vt 0.000000 0.953125
vt 0.090625 0.953125
vt 0.090625 1.000000
vt 0.078125 0.953125
vt 0.078125 0.909375
vt 0.078125 0.921875
vt 0.000000 0.909375
vt 0.078125 0.987500
vt 0.000000 0.987500
vt 0.125000 0.984375
vt 0.125000 1.000000
vt 0.250000 0.875000
vt 0.250000 1.000000
vt 0.000000 0.875000
vt 0.250000 0.984375
vt 0.109375 0.968750
vt 0.109375 1.000000
vt 0.210938 0.000000
vt 0.210938 0.093750
vt 0.000000 0.093750
vt 0.000000 0.000000
vt 0.226562 0.906250
vt 0.226562 1.000000
vt 0.015625 0.906250
vt 0.218750 0.968750
vt 0.218750 1.000000
vt 0.210938 0.968750
vt 0.210938 1.000000
vt 0.015625 0.953125
vt 0.015625 0.937500
vt 0.007812 0.953125
vt 0.007812 0.937500
vt 0.101562 0.937500
vt 0.101562 0.953125
vt 0.125000 0.968750
vt 0.140625 0.968750
vt 0.031250 0.937500
vt 0.320312 0.423438
vt 0.320312 0.453125
vt 0.304688 0.453125
vt 0.304688 0.423438
vt 0.328125 0.429688
vt 0.328125 0.445312
vt 0.316406 0.445312
vt 0.316406 0.429688
vt 0.328125 0.423438
vt 0.328125 0.453125
vt 0.316406 0.453125
vt 0.316406 0.423438
vt 0.308594 0.423438
vt 0.308594 0.453125
vt 0.296875 0.453125
vt 0.296875 0.423438
vt 0.320312 0.437500
vt 0.320312 0.449219
vt 0.304688 0.449219
vt 0.304688 0.437500
vt 0.347656 0.429688
vt 0.347656 0.445312
vt 0.296875 0.445312
vt 0.296875 0.429688
vt 0.347656 0.437500
vt 0.347656 0.449219
vt 0.296875 0.449219
vt 0.296875 0.437500
vt 0.355469 0.437500
vt 0.355469 0.449219
vt 0.355469 0.429688
vt 0.355469 0.445312
vt 0.324219 0.445312
vt 0.324219 0.429688
vt 0.324219 0.449219
vt 0.324219 0.437500
vt 0.328125 0.437500
vt 0.328125 0.449219
vt 1.000000 0.875000
vt 1.000000 0.937500
vt 0.937500 0.000000
vt 0.937500 1.000000
vt 0.062500 0.000000
vt 0.937500 0.875000
vt 0.937500 0.937500
vt 0.062500 0.937500
vt 0.062500 0.875000
vt 1.000000 0.906250
vt 0.500000 0.937500
vt 0.500000 0.906250
vt 0.000000 0.906250
vt 1.000000 0.500000
vt 1.000000 1.000000
vt 0.968750 1.000000
vt 0.968750 0.500000
vt 1.000000 0.000000
vt 0.968750 0.000000
vt 0.968750 0.937500
vt 0.968750 0.906250
vt 0.031250 0.906250
vt 1.000000 0.062500
vt 0.125000 0.062500
vt 0.125000 0.000000
vt 0.125000 0.937500
vt 0.125000 0.875000
vt 0.875000 0.875000
vt 0.875000 0.937500
vt 0.062500 0.906250
vt 0.937500 0.906250
vt 1.000000 0.031250
vt 0.187500 0.062500
vt 0.187500 0.031250
vt 1.000000 0.968750
vt 0.187500 0.968750
vt 0.187500 0.937500
vt 0.187500 0.906250
vt 0.812500 0.906250
vt 0.812500 0.937500
vt 0.625000 0.031250
vt 0.625000 0.000000
vt 0.625000 1.000000
vt 0.625000 0.968750
vt 0.625000 0.937500
vt 0.625000 0.906250
vt 0.375000 0.906250
vt 0.375000 0.937500
vt 0.031250 0.000000
vt 0.281250 0.031250
vt 0.281250 0.062500
vt 0.250000 0.062500
vt 0.250000 0.031250
vt 0.281250 0.937500
vt 0.281250 0.968750
vt 0.250000 0.968750
vt 0.250000 0.937500
vt 0.281250 0.000000
vt 0.250000 0.000000
vt 0.750000 0.000000
vt 0.750000 0.937500
vt 0.718750 0.937500
vt 0.718750 0.000000
vt 0.312500 0.031250
vt 0.312500 0.062500
vt 0.312500 0.937500
vt 0.312500 0.968750
vt 0.312500 0.000000
vt 0.687500 0.937500
vt 0.687500 0.000000
vt 0.312500 1.000000
vt 0.281250 1.000000
vt 0.281250 0.906250
vt 0.250000 0.906250
vt 0.750000 0.906250
vt 0.718750 0.906250
vt 0.500000 0.875000
vt 0.218750 0.000000
vt 0.218750 0.500000
vt 0.031250 0.500000
vt 0.218750 0.875000
vt 0.218750 0.937500
vt 0.031250 0.875000
vt 0.593750 0.875000
vt 0.593750 0.937500
vt 0.406250 0.937500
vt 0.406250 0.875000
vt 0.500000 0.812500
vt 0.000000 0.812500
vt 1.000000 0.812500
vt 0.156250 0.500000
vt 0.156250 0.000000
vt 0.218750 0.812500
vt 0.156250 0.937500
vt 0.156250 0.812500
vt 0.468750 0.812500
vt 0.468750 0.937500
vt 0.406250 0.812500
vt 0.093750 1.000000
vt 0.093750 0.000000
vt 0.125000 0.906250
vt 0.468750 0.468750
vt 0.468750 0.718750
vt 0.453125 0.718750
vt 0.453125 0.468750
vt 0.296875 0.468750
vt 0.296875 0.718750
vt 0.281250 0.718750
vt 0.281250 0.468750
vt 0.468750 0.703125
vt 0.281250 0.703125
vt 0.468750 0.484375
vt 0.281250 0.484375
vt 0.437500 0.718750
vt 0.437500 0.468750
vt 0.312500 0.468750
vt 0.312500 0.718750
vt 0.468750 0.687500
vt 0.281250 0.687500
vt 0.468750 0.500000
vt 0.281250 0.500000
vt 0.031250 0.109375
vt 0.031250 0.125000
vt 0.000000 0.125000
vt 0.000000 0.109375
vt 0.324762 0.675237
vt 0.375000 0.762263
vt 0.187500 0.812500
vt 0.375000 0.862737
vt 0.324762 0.949763
vt 0.237738 1.000000
vt 0.137262 1.000000
vt 0.050237 0.949763
vt 0.000000 0.862737
vt 0.000000 0.762263
vt 0.050237 0.675237
vt 0.137262 0.625000
vt 0.237738 0.625000
vt 0.296875 0.343750
vt 0.310481 0.343750
vt 0.310481 0.359375
vt 0.296875 0.359375
vt 0.306775 0.359375
vt 0.306775 0.343750
vt 0.296875 0.357521
vt 0.296875 0.347621
vt 0.303793 0.345768
vt 0.303792 0.359375
vt 0.296875 0.352457
vt 0.310482 0.352457
vt 0.308628 0.359375
vt 0.298728 0.359375
vt 0.296875 0.357522
vt 0.296875 0.347622
vt 0.303792 0.345768
vt 0.303793 0.359375
vt 0.308629 0.359375
vt 0.298729 0.359375
vt 0.296875 0.357522
vt 0.296875 0.347622
vt 0.303792 0.345769
vt 0.303792 0.359375
vt 0.298728 0.359375
vt 0.296875 0.352457
vt 0.310482 0.352458
vt 0.303793 0.345768
vt 0.303793 0.359375
vt 0.296875 0.357521
vt 0.296875 0.347621
vt 0.308629 0.359375
vt 0.298729 0.359375
vt 0.296875 0.352458
vt 0.310482 0.352457
vt 0.296875 0.357522
vt 0.308628 0.359375
vt 0.298728 0.359375
vt 0.296875 0.352458
vt 0.310481 0.352458
vt 0.298728 0.352458
vt 0.308628 0.352458
vt 0.303793 0.347622
vt 0.303793 0.357522
vt 0.296876 0.345768
vt 0.310482 0.359375
vt 0.298729 0.352457
vt 0.308629 0.352458
vt 0.303793 0.347621
vt 0.303793 0.357521
vt 0.296876 0.359375
vt 0.296875 0.345768
vt 0.298728 0.352458
vt 0.308628 0.352457
vt 0.303792 0.347622
vt 0.303792 0.357522
vt 0.296875 0.345769
vt 0.298729 0.352457
vt 0.308629 0.352457
vt 0.296875 0.359374
vt 0.303793 0.347622
vt 0.303792 0.357522
vt 0.298728 0.352457
vt 0.308628 0.352457
vt 0.310482 0.359374
vt 0.303792 0.347621
vt 0.303793 0.357521
vt 0.343750 0.351562
vt 0.343750 0.359375
vt 0.312500 0.359375
vt 0.312500 0.351562
vt 0.312500 0.375000
vt 0.281250 0.375000
vt 0.359375 0.367188
vt 0.359375 0.375000
vt 0.328125 0.375000
vt 0.328125 0.367188
vt 0.296875 0.375000
vt 0.296875 0.367188
vt 0.406250 0.452847
vt 0.406250 0.468750
vt 0.390625 0.468750
vt 0.390625 0.452847
vt 0.437500 0.452847
vt 0.421875 0.468750
vt 0.421875 0.452847
vt 0.367802 0.406250
vt 0.367802 0.421875
vt 0.359990 0.421875
vt 0.359990 0.406250
vt 0.367802 0.359375
vt 0.367802 0.375000
vt 0.359990 0.375000
vt 0.359990 0.359375
vt 0.399052 0.390347
vt 0.399052 0.406250
vt 0.391240 0.406250
vt 0.391240 0.390347
vt 0.359375 0.390347
vt 0.359375 0.406250
vt 0.351562 0.406250
vt 0.351562 0.390347
vt 0.375000 0.343472
vt 0.375000 0.359375
vt 0.359375 0.359375
vt 0.359375 0.343472
vt 0.367802 0.453125
vt 0.367802 0.468750
vt 0.359990 0.468750
vt 0.359990 0.453125
vt 0.399052 0.421875
vt 0.399052 0.437500
vt 0.391240 0.437500
vt 0.391240 0.421875
vt 0.414677 0.452847
vt 0.414677 0.468750
vt 0.406865 0.468750
vt 0.406865 0.452847
vt 0.343750 0.343472
vt 0.335938 0.359375
vt 0.335938 0.343472
vt 0.375000 0.421875
vt 0.421875 0.421875
vt 0.375000 0.468750
vt 0.343750 0.343750
vt 0.343750 0.390625
vt 0.296875 0.390625
vt 0.375000 0.375000
vt 0.328125 0.359375
vt 0.390625 0.453125
vt 0.343750 0.453125
vt 0.343750 0.437500
vt 0.390625 0.437500
vt 0.390625 0.359375
vt 0.390625 0.343750
vt 0.468750 0.078125
vt 0.468750 0.093750
vt 0.421875 0.093750
vt 0.421875 0.078125
vt 0.312500 0.406250
vt 0.359375 0.453125
vt 0.312500 0.453125
vt 0.390625 0.390625
vt 0.375000 0.328125
vt 0.375000 0.343750
vt 0.328125 0.343750
vt 0.328125 0.328125
vt 0.312500 0.437500
vt 0.359375 0.437500
vt 0.281250 0.343750
vt 0.294856 0.343750
vt 0.294856 0.359375
vt 0.281250 0.359375
vt 0.291150 0.359375
vt 0.291150 0.343750
vt 0.281250 0.357521
vt 0.281250 0.347621
vt 0.288168 0.345768
vt 0.288167 0.359375
vt 0.281250 0.352457
vt 0.294857 0.352457
vt 0.293003 0.359375
vt 0.283103 0.359375
vt 0.281250 0.357522
vt 0.281250 0.347622
vt 0.288167 0.345768
vt 0.288168 0.359375
vt 0.293004 0.359375
vt 0.283104 0.359375
vt 0.281250 0.357522
vt 0.281250 0.347622
vt 0.288167 0.345769
vt 0.288167 0.359375
vt 0.283103 0.359375
vt 0.281250 0.352457
vt 0.294857 0.352458
vt 0.288168 0.345768
vt 0.288168 0.359375
vt 0.281250 0.357521
vt 0.281250 0.347621
vt 0.293004 0.359375
vt 0.283104 0.359375
vt 0.281250 0.352458
vt 0.294857 0.352457
vt 0.281250 0.357522
vt 0.293003 0.359375
vt 0.283103 0.359375
vt 0.281250 0.352458
vt 0.294856 0.352458
vt 0.283103 0.352458
vt 0.293003 0.352458
vt 0.288168 0.347622
vt 0.288168 0.357522
vt 0.281251 0.345768
vt 0.294857 0.359375
vt 0.283104 0.352457
vt 0.293004 0.352458
vt 0.288168 0.347621
vt 0.288168 0.357521
vt 0.281251 0.359375
vt 0.281250 0.345768
vt 0.283103 0.352458
vt 0.293003 0.352457
vt 0.288167 0.347622
vt 0.288167 0.357522
vt 0.281250 0.345769
vt 0.283104 0.352457
vt 0.293004 0.352457
vt 0.281250 0.359374
vt 0.288168 0.347622
vt 0.288167 0.357522
vt 0.283103 0.352457
vt 0.293003 0.352457
vt 0.294857 0.359374
vt 0.288167 0.347621
vt 0.288168 0.357521
vt 0.265625 0.453125
vt 0.265625 0.437500
vt 0.296875 0.406250
vt 0.265625 0.406250
vt 0.210781 0.797031
vt 0.125000 0.882812
vt 0.242188 0.851406
vt 0.242188 0.914219
vt 0.210781 0.968594
vt 0.156406 1.000000
vt 0.093594 1.000000
vt 0.039219 0.968594
vt 0.007812 0.914219
vt 0.007812 0.851406
vt 0.039219 0.797031
vt 0.093594 0.765625
vt 0.156406 0.765625
vt 0.289622 0.343750
vt 0.289622 0.359375
vt 0.285731 0.359375
vt 0.285731 0.343750
vt 0.281250 0.357427
vt 0.281250 0.352945
vt 0.288514 0.351001
vt 0.288510 0.359375
vt 0.281250 0.352112
vt 0.289624 0.352112
vt 0.287677 0.359375
vt 0.283195 0.359373
vt 0.281250 0.357431
vt 0.281250 0.352948
vt 0.288510 0.351001
vt 0.288514 0.359375
vt 0.287680 0.359373
vt 0.283197 0.359375
vt 0.281250 0.357430
vt 0.281250 0.352948
vt 0.288511 0.351003
vt 0.288511 0.359375
vt 0.287677 0.359375
vt 0.283194 0.359375
vt 0.281250 0.352111
vt 0.289624 0.352115
vt 0.288513 0.351001
vt 0.288513 0.359375
vt 0.281250 0.357428
vt 0.281252 0.352945
vt 0.287680 0.359375
vt 0.283198 0.359375
vt 0.281250 0.352115
vt 0.289624 0.352111
vt 0.281252 0.357430
vt 0.281250 0.352948
vt 0.287677 0.359375
vt 0.283195 0.359375
vt 0.281250 0.352114
vt 0.289622 0.352114
vt 0.283195 0.352114
vt 0.287677 0.352114
vt 0.288514 0.352948
vt 0.288514 0.357431
vt 0.281254 0.351001
vt 0.289624 0.359375
vt 0.283197 0.352112
vt 0.287680 0.352114
vt 0.288514 0.352945
vt 0.288514 0.357427
vt 0.281254 0.359375
vt 0.281250 0.351001
vt 0.283195 0.352114
vt 0.287677 0.352112
vt 0.288511 0.352948
vt 0.288511 0.357430
vt 0.281250 0.351003
vt 0.283198 0.352111
vt 0.287680 0.352111
vt 0.281250 0.359371
vt 0.288513 0.352948
vt 0.288511 0.357430
vt 0.283194 0.352111
vt 0.287677 0.352111
vt 0.289624 0.359371
vt 0.288511 0.352945
vt 0.288513 0.357428
vt 0.324219 0.421875
vt 0.312500 0.421875
vt 0.343750 0.421875
vt 0.332031 0.437500
vt 0.332031 0.421875
vt 0.328125 0.406250
vt 0.328125 0.417969
vt 0.320312 0.417969
vt 0.320312 0.406250
vt 0.328125 0.347656
vt 0.320312 0.359375
vt 0.320312 0.347656
vt 0.312500 0.390625
vt 0.304688 0.390625
vt 0.304688 0.375000
vt 0.335938 0.515625
vt 0.335938 0.531250
vt 0.328125 0.531250
vt 0.328125 0.515625
vt 0.292969 0.406250
vt 0.292969 0.421875
vt 0.281250 0.421875
vt 0.281250 0.406250
vt 0.300781 0.421875
vt 0.300781 0.406250
vt 0.296875 0.402344
vt 0.289062 0.402344
vt 0.289062 0.390625
vt 0.296875 0.410156
vt 0.296875 0.421875
vt 0.289062 0.421875
vt 0.289062 0.410156
vt 0.328125 0.421875
vt 0.320312 0.421875
vt 0.375000 0.406250
vt 0.312500 0.343750
vt 0.390625 0.421875
vt 0.390625 0.406250
vt 0.359375 0.343750
vt 0.375000 0.390625
vt 0.312500 0.328125
vt 0.546875 0.796875
vt 0.546875 1.000000
vt 0.531250 1.000000
vt 0.531250 0.796875
vt 0.671875 0.984375
vt 0.671875 1.000000
vt 0.531250 0.984375
vt 0.140625 0.796875
vt 0.671875 0.796875
vt 0.673437 0.882812
vt 0.673437 0.968750
vt 0.671875 0.968750
vt 0.671875 0.882812
vt 0.670313 0.968750
vt 0.670313 0.882812
vt 0.687500 0.953125
vt 0.687500 0.954687
vt 0.671875 0.954687
vt 0.671875 0.953125
vt 0.687500 0.951563
vt 0.671875 0.951563
vt 0.687500 0.882812
vt 0.687500 0.968750
vt 0.656250 0.968750
vt 0.656250 0.882812
vt 0.657031 0.800781
vt 0.657031 0.859375
vt 0.656250 0.859375
vt 0.656250 0.800781
vt 0.671875 0.800781
vt 0.671875 0.859375
vt 0.671094 0.859375
vt 0.671094 0.800781
vt 0.687500 0.838995
vt 0.687500 0.840014
vt 0.658203 0.840014
vt 0.658203 0.838995
vt 0.687500 0.858356
vt 0.687500 0.859375
vt 0.658203 0.859375
vt 0.658203 0.858356
vt 0.687500 0.800781
vt 0.658203 0.800781
vt 0.685547 0.800781
vt 0.685547 0.859375
vt 0.515625 0.515625
vt 0.515625 0.718750
vt 0.500000 0.515625
vt 0.515625 0.734375
vt 0.937500 0.812500
vt 0.937500 0.062500
vt 0.062500 0.812500
vt 0.703125 0.718750
vt 0.703125 0.734375
vt 0.546875 0.734375
vt 0.546875 0.718750
vt 0.125000 0.171875
vt 0.125000 0.990625
vt 0.031250 0.990625
vt 0.031250 0.171875
vt 0.093750 0.171875
vt 0.093750 0.990625
vt 0.000000 0.990625
vt 0.000000 0.171875
vt 0.062500 0.990625
vt 0.062500 0.171875
vt 0.125000 0.181250
vt 0.031250 0.181250
vt 0.093750 0.181250
vt 0.000000 0.181250
vt 0.062500 0.181250
vt 1.000000 0.625000
vt 1.000000 0.687500
vt 0.468750 0.625000
vt 0.843750 0.562500
vt 0.843750 0.625000
vt 0.312500 0.625000
vt 0.312500 0.562500
vt 0.656250 0.218750
vt 0.656250 0.750000
vt 0.156250 0.750000
vt 0.156250 0.218750
vt 0.500000 0.375000
vt 0.000000 0.375000
vt 0.718750 0.750000
vt 0.718750 0.812500
vt 0.218750 0.750000
vt 0.843750 0.500000
vt 0.343750 0.562500
vt 0.343750 0.500000
vt 0.937500 0.968750
vt 0.843750 0.968750
vt 0.843750 0.937500
vt 0.156250 0.968750
vt 0.125000 0.843750
vt 0.062500 0.843750
vt 0.125000 0.156250
vt 0.062500 0.156250
vt 0.062500 0.062500
vt 0.562500 0.937500
vt 0.562500 0.968750
vt 0.437500 0.968750
vt 0.437500 0.937500
vt 0.125000 0.562500
vt 0.093750 0.562500
vt 0.125000 0.437500
vt 0.093750 0.437500
vt 0.093750 0.968750
vt 0.093750 0.937500
vt 0.750000 1.000000
vt 0.750000 0.875000
vt 0.750000 0.968750
vt 0.500000 1.000000
vt 0.500000 0.968750
vt 0.312500 0.843750
vt 0.603553 0.906250
vt 0.603553 1.000000
vt 0.603553 0.875000
vt 0.603553 0.968750
vt 0.603553 0.937500
vt 0.137500 0.875000
vt 0.137500 1.000000
vt 0.150000 0.875000
vt 0.150000 1.000000
vt 0.012500 0.875000
vt 0.187500 1.000000
vt 0.125000 0.812500
vt 0.125000 0.343750
vt 0.093750 0.343750
vt 0.031250 0.343750
vt 0.000000 0.343750
vt 0.062500 0.343750
vt 0.468750 1.000000
vt 0.125000 0.531250
vt 0.062500 0.531250
vt 0.125000 0.500000
vt 0.062500 0.500000
s 1
usemtl m_3d215661-f591-00a8-53e2-d8d611c756be.002
f 5/1/1 3/2/1 2/3/1 4/4/1
f 8/1/2 6/2/2 7/3/2 9/4/2
f 2/5/3 3/6/3 7/7/3 6/8/3
f 5/5/4 4/6/4 8/7/4 9/8/4
f 4/9/5 2/10/5 6/11/5 8/12/5
f 9/1/6 7/2/6 3/3/6 5/4/6
f 13/13/1 11/2/1 10/3/1 12/14/1
f 16/13/2 14/2/2 15/3/2 17/14/2
f 10/5/3 11/6/3 15/7/3 14/8/3
f 13/5/4 12/6/4 16/7/4 17/8/4
f 12/15/5 10/10/5 14/11/5 16/16/5
f 17/13/6 15/2/6 11/3/6 13/14/6
f 21/1/1 19/2/1 18/3/1 20/4/1
f 24/1/2 22/2/2 23/3/2 25/4/2
f 18/5/3 19/6/3 23/7/3 22/8/3
f 21/5/4 20/6/4 24/7/4 25/8/4
f 20/9/5 18/10/5 22/11/5 24/12/5
f 25/1/6 23/2/6 19/3/6 21/4/6
f 29/17/1 27/2/1 26/3/1 28/18/1
f 32/17/2 30/2/2 31/3/2 33/18/2
f 26/5/3 27/6/3 31/7/3 30/8/3
f 29/5/4 28/6/4 32/7/4 33/8/4
f 28/19/5 26/10/5 30/11/5 32/20/5
f 33/17/6 31/2/6 27/3/6 29/18/6
f 37/21/1 35/22/1 34/23/1 36/24/1
f 40/24/2 38/23/2 39/7/2 41/25/2
f 34/6/3 35/10/3 39/3/3 38/23/3
f 37/26/4 36/6/4 40/23/4 41/24/4
f 36/26/5 34/6/5 38/23/5 40/24/5
f 41/27/6 39/28/6 35/7/6 37/25/6
f 45/27/1 43/28/1 42/23/1 44/24/1
f 48/21/2 46/22/2 47/7/2 49/25/2
f 42/26/3 43/10/3 47/29/3 46/27/3
f 45/30/4 44/6/4 48/28/4 49/31/4
f 44/26/5 42/6/5 46/28/5 48/27/5
f 49/24/6 47/23/6 43/7/6 45/25/6
f 53/21/1 51/22/1 50/23/1 52/24/1
f 56/24/2 54/23/2 55/7/2 57/25/2
f 50/6/3 51/10/3 55/3/3 54/23/3
f 53/26/4 52/6/4 56/23/4 57/24/4
f 52/26/5 50/6/5 54/23/5 56/24/5
f 57/27/6 55/28/6 51/7/6 53/25/6
f 61/21/1 59/22/1 58/23/1 60/24/1
f 64/24/2 62/23/2 63/7/2 65/25/2
f 58/6/3 59/10/3 63/3/3 62/23/3
f 61/26/4 60/6/4 64/23/4 65/24/4
f 60/26/5 58/6/5 62/23/5 64/24/5
f 65/27/6 63/28/6 59/7/6 61/25/6
f 69/27/1 67/28/1 66/23/1 68/24/1
f 72/21/2 70/22/2 71/7/2 73/25/2
f 66/26/3 67/10/3 71/29/3 70/27/3
f 69/30/4 68/6/4 72/28/4 73/31/4
f 68/26/5 66/6/5 70/28/5 72/27/5
f 73/24/6 71/23/6 67/7/6 69/25/6
f 77/21/1 75/22/1 74/23/1 76/24/1
f 80/24/2 78/23/2 79/7/2 81/25/2
f 74/6/3 75/10/3 79/3/3 78/23/3
f 77/26/4 76/6/4 80/23/4 81/24/4
f 76/26/5 74/6/5 78/23/5 80/24/5
f 81/27/6 79/28/6 75/7/6 77/25/6
f 85/27/1 83/28/1 82/23/1 84/24/1
f 88/21/2 86/22/2 87/7/2 89/25/2
f 82/26/3 83/10/3 87/29/3 86/27/3
f 85/30/4 84/6/4 88/28/4 89/31/4
f 84/26/5 82/6/5 86/28/5 88/27/5
f 89/24/6 87/23/6 83/7/6 85/25/6
f 93/21/1 91/22/1 90/23/1 92/24/1
f 96/24/2 94/23/2 95/7/2 97/25/2
f 90/6/3 91/10/3 95/3/3 94/23/3
f 93/26/4 92/6/4 96/23/4 97/24/4
f 92/26/5 90/6/5 94/23/5 96/24/5
f 97/27/6 95/28/6 91/7/6 93/25/6
f 101/21/1 99/22/1 98/23/1 100/24/1
f 104/24/2 102/23/2 103/7/2 105/25/2
f 98/6/3 99/10/3 103/3/3 102/23/3
f 101/26/4 100/6/4 104/23/4 105/24/4
f 100/26/5 98/6/5 102/23/5 104/24/5
f 105/27/6 103/28/6 99/7/6 101/25/6
f 109/32/1 107/33/1 106/11/1 108/12/1
f 112/32/2 110/33/2 111/11/2 113/12/2
f 106/27/3 107/29/3 111/11/3 110/25/3
f 109/27/4 108/29/4 112/11/4 113/25/4
f 108/34/5 106/29/5 110/11/5 112/12/5
f 113/34/6 111/29/6 107/11/6 109/12/6
f 117/32/1 115/33/1 114/11/1 116/12/1
f 120/32/2 118/33/2 119/11/2 121/12/2
f 114/27/3 115/29/3 119/11/3 118/25/3
f 117/27/4 116/29/4 120/11/4 121/25/4
f 116/34/5 114/29/5 118/11/5 120/12/5
f 121/34/6 119/29/6 115/11/6 117/12/6
f 125/35/1 123/36/1 122/37/1 124/38/1
f 128/35/2 126/36/2 127/37/2 129/38/2
f 122/39/3 123/40/3 127/11/3 126/41/3
f 125/39/4 124/40/4 128/11/4 129/41/4
f 124/42/5 122/40/5 126/11/5 128/7/5
f 129/42/6 127/40/6 123/11/6 125/7/6
f 133/43/1 131/44/1 130/45/1 132/46/1
f 136/43/2 134/44/2 135/45/2 137/46/2
f 130/47/3 131/29/3 135/11/3 134/41/3
f 133/47/4 132/29/4 136/11/4 137/41/4
f 132/48/5 130/49/5 134/45/5 136/46/5
f 137/48/6 135/49/6 131/45/6 133/46/6
f 141/50/1 139/44/1 138/45/1 140/51/1
f 144/50/2 142/44/2 143/45/2 145/51/2
f 138/47/3 139/29/3 143/11/3 142/41/3
f 141/47/4 140/29/4 144/11/4 145/41/4
f 140/48/5 138/49/5 142/45/5 144/46/5
f 145/48/6 143/49/6 139/45/6 141/46/6
f 149/52/1 147/53/1 146/54/1 148/55/1
f 152/52/2 150/53/2 151/54/2 153/55/2
f 146/56/3 147/57/3 151/58/3 150/59/3
f 149/56/4 148/57/4 152/58/4 153/59/4
f 148/56/5 146/57/5 150/58/5 152/59/5
f 153/56/6 151/57/6 147/58/6 149/59/6
f 157/52/1 155/53/1 154/54/1 156/55/1
f 160/52/2 158/53/2 159/54/2 161/55/2
f 154/56/3 155/57/3 159/58/3 158/59/3
f 157/56/4 156/57/4 160/58/4 161/59/4
f 156/56/5 154/57/5 158/58/5 160/59/5
f 161/56/6 159/57/6 155/58/6 157/59/6
f 165/52/1 163/53/1 162/54/1 164/55/1
f 168/52/2 166/53/2 167/54/2 169/55/2
f 162/56/3 163/57/3 167/58/3 166/59/3
f 165/56/4 164/57/4 168/58/4 169/59/4
f 164/56/5 162/57/5 166/58/5 168/59/5
f 169/56/6 167/57/6 163/58/6 165/59/6
f 173/52/1 171/53/1 170/54/1 172/55/1
f 176/52/2 174/53/2 175/54/2 177/55/2
f 170/56/3 171/57/3 175/58/3 174/59/3
f 173/56/4 172/57/4 176/58/4 177/59/4
f 172/56/5 170/57/5 174/58/5 176/59/5
f 177/56/6 175/57/6 171/58/6 173/59/6
f 181/60/1 179/61/1 178/62/1 180/63/1
f 184/60/2 182/61/2 183/62/2 185/63/2
f 178/64/3 179/61/3 183/62/3 182/65/3
f 181/64/4 180/61/4 184/62/4 185/65/4
f 180/60/5 178/61/5 182/62/5 184/63/5
f 185/60/6 183/61/6 179/62/6 181/63/6
f 189/66/1 187/67/1 186/3/1 188/23/1
f 192/66/2 190/67/2 191/3/2 193/23/2
f 186/68/3 187/69/3 191/7/3 190/16/3
f 189/68/4 188/69/4 192/7/4 193/16/4
f 188/69/5 186/70/5 190/11/5 192/7/5
f 193/69/6 191/70/6 187/11/6 189/7/6
f 196/71/7 1/72/7 194/11/7 195/25/7
f 199/73/8 197/40/8 198/74/8 200/75/8
f 194/76/9 1/77/9 198/78/9 197/79/9
f 196/80/10 195/2/10 199/11/10 200/81/10
f 195/82/5 194/2/5 197/11/5 199/25/5
f 200/82/6 198/2/6 1/11/6 196/25/6
f 204/71/10 202/72/10 201/11/10 203/25/10
f 207/73/9 205/40/9 206/74/9 208/75/9
f 201/76/7 202/77/7 206/78/7 205/79/7
f 204/80/8 203/2/8 207/11/8 208/81/8
f 203/82/5 201/2/5 205/11/5 207/25/5
f 208/82/6 206/2/6 202/11/6 204/25/6
f 212/73/10 210/40/10 209/74/10 211/75/10
f 215/71/9 213/72/9 214/11/9 216/25/9
f 209/80/7 210/2/7 214/11/7 213/81/7
f 212/76/8 211/77/8 215/78/8 216/79/8
f 211/82/5 209/2/5 213/11/5 215/25/5
f 216/82/6 214/2/6 210/11/6 212/25/6
f 220/73/7 218/40/7 217/74/7 219/75/7
f 223/71/8 221/72/8 222/11/8 224/25/8
f 217/80/9 218/2/9 222/11/9 221/81/9
f 220/76/10 219/77/10 223/78/10 224/79/10
f 219/82/5 217/2/5 221/11/5 223/25/5
f 224/82/6 222/2/6 218/11/6 220/25/6
f 228/83/1 226/84/1 225/85/1 227/86/1
f 231/83/2 229/84/2 230/85/2 232/86/2
f 225/87/3 226/88/3 230/89/3 229/90/3
f 228/87/4 227/88/4 231/89/4 232/90/4
f 227/91/5 225/92/5 229/93/5 231/94/5
f 232/91/6 230/92/6 226/93/6 228/94/6
f 236/95/7 234/96/7 233/11/7 235/97/7
f 239/98/8 237/99/8 238/2/8 240/100/8
f 233/101/9 234/102/9 238/8/9 237/103/9
f 236/104/10 235/2/10 239/11/10 240/105/10
f 235/100/5 233/2/5 237/11/5 239/97/5
f 240/100/6 238/2/6 234/11/6 236/97/6
f 244/95/7 242/96/7 241/11/7 243/97/7
f 247/98/8 245/99/8 246/2/8 248/100/8
f 241/101/9 242/102/9 246/8/9 245/103/9
f 244/104/10 243/2/10 247/11/10 248/105/10
f 243/100/5 241/2/5 245/11/5 247/97/5
f 248/100/6 246/2/6 242/11/6 244/97/6
f 252/106/1 250/107/1 249/11/1 251/7/1
f 255/106/2 253/107/2 254/11/2 256/7/2
f 249/108/3 250/109/3 254/11/3 253/110/3
f 252/108/4 251/109/4 255/11/4 256/110/4
f 251/111/5 249/109/5 253/11/5 255/7/5
f 256/111/6 254/109/6 250/11/6 252/7/6
f 260/112/1 258/113/1 257/3/1 259/24/1
f 263/112/2 261/113/2 262/3/2 264/24/2
f 257/114/3 258/115/3 262/116/3 261/117/3
f 260/118/4 259/119/4 263/3/4 264/120/4
f 259/121/5 257/122/5 261/74/5 263/75/5
f 264/123/6 262/124/6 258/11/6 260/25/6
f 268/112/1 266/113/1 265/3/1 267/24/1
f 271/112/2 269/113/2 270/3/2 272/24/2
f 265/114/3 266/115/3 270/116/3 269/117/3
f 268/118/4 267/119/4 271/3/4 272/120/4
f 267/121/5 265/122/5 269/74/5 271/75/5
f 272/123/6 270/124/6 266/11/6 268/25/6
f 276/38/1 274/37/1 273/125/1 275/126/1
f 279/38/2 277/37/2 278/125/2 280/126/2
f 273/114/3 274/115/3 278/116/3 277/117/3
f 276/114/4 275/115/4 279/116/4 280/117/4
f 275/38/5 273/37/5 277/127/5 279/128/5
f 280/129/6 278/130/6 274/97/6 276/41/6
f 282/107/1 281/113/1 283/131/1
f 284/67/2 285/107/2 286/131/2
f 281/132/3 282/66/3 285/106/3 284/131/3
f 283/132/5 281/67/5 284/107/5 286/131/5
f 286/131/11 285/107/11 282/113/11 283/112/11
f 288/107/1 287/113/1 289/131/1
f 290/67/2 291/107/2 292/131/2
f 287/132/3 288/66/3 291/106/3 290/131/3
f 289/132/5 287/67/5 290/107/5 292/131/5
f 292/131/11 291/107/11 288/113/11 289/112/11
f 294/107/1 293/113/1 295/131/1
f 296/67/2 297/107/2 298/131/2
f 293/132/3 294/66/3 297/106/3 296/131/3
f 295/132/5 293/67/5 296/107/5 298/131/5
f 298/131/11 297/107/11 294/113/11 295/112/11
f 300/107/1 299/113/1 301/131/1
f 302/67/2 303/107/2 304/131/2
f 299/132/3 300/66/3 303/106/3 302/131/3
f 301/132/5 299/67/5 302/107/5 304/131/5
f 304/131/11 303/107/11 300/113/11 301/112/11
f 306/107/1 305/113/1 307/131/1
f 308/67/2 309/107/2 310/131/2
f 305/132/3 306/66/3 309/106/3 308/131/3
f 307/132/5 305/67/5 308/107/5 310/131/5
f 310/131/11 309/107/11 306/113/11 307/112/11
f 311/113/1 312/107/1 313/131/1
f 315/107/2 314/67/2 316/131/2
f 315/106/3 312/66/3 311/132/3 314/131/3
f 314/107/6 311/67/6 313/132/6 316/131/6
f 312/113/12 315/107/12 316/131/12 313/112/12
f 317/113/1 318/107/1 319/131/1
f 321/107/2 320/67/2 322/131/2
f 321/106/3 318/66/3 317/132/3 320/131/3
f 320/107/6 317/67/6 319/132/6 322/131/6
f 318/113/12 321/107/12 322/131/12 319/112/12
f 323/113/1 324/107/1 325/131/1
f 327/107/2 326/67/2 328/131/2
f 327/106/3 324/66/3 323/132/3 326/131/3
f 326/107/6 323/67/6 325/132/6 328/131/6
f 324/113/12 327/107/12 328/131/12 325/112/12
f 332/133/1 330/33/1 329/11/1 331/41/1
f 335/133/2 333/33/2 334/11/2 336/41/2
f 329/21/3 330/33/3 334/3/3 333/24/3
f 332/21/4 331/33/4 335/3/4 336/24/4
f 331/133/5 329/33/5 333/3/5 335/126/5
f 336/126/6 334/3/6 330/11/6 332/41/6
f 340/134/1 338/135/1 337/136/1 339/137/1
f 343/134/2 341/135/2 342/136/2 344/137/2
f 337/138/3 338/139/3 342/140/3 341/141/3
f 340/138/4 339/139/4 343/140/4 344/141/4
f 339/142/5 337/143/5 341/144/5 343/145/5
f 344/146/6 342/147/6 338/148/6 340/149/6
f 348/150/1 346/151/1 345/152/1 347/153/1
f 351/150/2 349/151/2 350/152/2 352/153/2
f 345/154/3 346/155/3 350/156/3 349/157/3
f 348/154/4 347/155/4 351/156/4 352/157/4
f 347/158/5 345/159/5 349/160/5 351/161/5
f 352/162/6 350/163/6 346/152/6 348/153/6
f 356/150/1 354/151/1 353/152/1 355/153/1
f 359/150/2 357/151/2 358/152/2 360/153/2
f 353/154/13 354/155/13 358/156/13 357/157/13
f 356/154/14 355/155/14 359/156/14 360/157/14
f 355/158/5 353/159/5 357/160/5 359/161/5
f 360/162/6 358/163/6 354/152/6 356/153/6
f 364/150/1 362/151/1 361/152/1 363/153/1
f 367/150/2 365/151/2 366/152/2 368/153/2
f 361/164/15 362/165/15 366/166/15 365/167/15
f 364/164/16 363/165/16 367/166/16 368/167/16
f 363/162/5 361/163/5 365/168/5 367/169/5
f 368/170/6 366/171/6 362/160/6 364/161/6
f 372/150/3 370/151/3 369/152/3 371/153/3
f 375/150/2 373/151/2 374/152/2 376/153/2
f 369/164/9 370/165/9 374/156/9 373/157/9
f 372/164/10 371/165/10 375/156/10 376/157/10
f 371/162/5 369/163/5 373/160/5 375/161/5
f 376/162/6 374/163/6 370/160/6 372/161/6
f 380/21/17 378/33/17 377/3/17 379/24/17
f 383/24/18 381/3/18 382/11/18 384/25/18
f 377/23/3 378/3/3 382/11/3 381/7/3
f 380/24/4 379/23/4 383/7/4 384/25/4
f 379/24/5 377/3/5 381/11/5 383/25/5
f 384/21/6 382/33/6 378/3/6 380/24/6
f 388/21/19 386/33/19 385/3/19 387/24/19
f 389/24/20 391/3/20 392/11/20 390/25/20
f 388/24/4 387/23/4 389/7/4 390/25/4
f 387/24/5 385/3/5 391/11/5 389/25/5
f 390/21/6 392/33/6 386/3/6 388/24/6
f 385/23/3 386/3/3 392/11/3 391/7/3
f 396/21/19 394/33/19 393/11/19 395/25/19
f 397/21/20 399/33/20 400/11/20 398/25/20
f 396/24/4 395/3/4 397/11/4 398/25/4
f 395/24/5 393/3/5 399/11/5 397/25/5
f 398/21/6 400/33/6 394/3/6 396/24/6
f 393/24/3 394/3/3 400/11/3 399/25/3
f 404/21/17 402/33/17 401/11/17 403/25/17
f 407/21/18 405/33/18 406/11/18 408/25/18
f 401/24/3 402/3/3 406/11/3 405/25/3
f 404/24/4 403/3/4 407/11/4 408/25/4
f 403/24/5 401/3/5 405/11/5 407/25/5
f 408/21/6 406/33/6 402/3/6 404/24/6
f 564/273/1 562/274/1 561/275/1 563/276/1
f 567/277/2 565/278/2 566/279/2 568/280/2
f 561/281/3 562/274/3 566/279/3 565/282/3
f 564/273/4 563/283/4 567/284/4 568/280/4
f 563/273/5 561/274/5 565/279/5 567/280/5
f 568/273/6 566/274/6 562/279/6 564/280/6
f 572/273/1 570/274/1 569/285/1 571/286/1
f 575/287/2 573/288/2 574/279/2 576/280/2
f 569/289/3 570/274/3 574/279/3 573/290/3
f 572/273/4 571/291/4 575/292/4 576/280/4
f 571/273/5 569/274/5 573/279/5 575/280/5
f 576/293/6 574/294/6 570/295/6 572/296/6
f 590/310/21 594/311/21 595/312/21 591/313/21
f 593/314/22 597/313/22 596/310/22 592/315/22
f 592/316/5 596/317/5 594/318/5 590/319/5
f 591/320/6 595/321/6 597/322/6 593/323/6
f 594/310/23 598/311/23 599/312/23 595/313/23
f 597/314/24 601/313/24 600/310/24 596/315/24
f 596/324/5 600/325/5 598/326/5 594/327/5
f 595/320/6 599/321/6 601/328/6 597/329/6
f 598/310/1 602/311/1 603/312/1 599/313/1
f 601/314/2 605/313/2 604/310/2 600/315/2
f 600/330/5 604/331/5 602/332/5 598/333/5
f 599/332/6 603/333/6 605/330/6 601/331/6
f 602/310/25 606/311/25 607/312/25 603/313/25
f 605/314/26 609/313/26 608/310/26 604/315/26
f 604/322/5 608/334/5 606/335/5 602/336/5
f 603/337/6 607/338/6 609/339/6 605/340/6
f 606/310/27 610/311/27 611/312/27 607/313/27
f 609/314/28 613/313/28 612/310/28 608/315/28
f 608/341/5 612/342/5 610/343/5 606/344/5
f 607/337/6 611/338/6 613/345/6 609/325/6
f 610/310/4 614/311/4 615/312/4 611/313/4
f 613/314/3 617/313/3 616/310/3 612/315/3
f 612/346/5 616/347/5 614/348/5 610/349/5
f 611/312/6 615/313/6 617/350/6 613/351/6
f 614/310/22 618/311/22 619/312/22 615/313/22
f 617/314/21 621/313/21 620/310/21 616/315/21
f 616/352/5 620/353/5 618/313/5 614/354/5
f 615/355/6 619/313/6 621/356/6 617/357/6
f 618/310/24 622/311/24 623/312/24 619/313/24
f 621/314/23 625/313/23 624/310/23 620/315/23
f 620/358/5 624/359/5 622/360/5 618/361/5
f 619/355/6 623/313/6 625/362/6 621/363/6
f 622/310/2 626/311/2 627/312/2 623/313/2
f 625/314/1 629/313/1 628/310/1 624/315/1
f 624/364/5 628/365/5 626/313/5 622/366/5
f 623/313/6 627/366/6 629/364/6 625/365/6
f 626/310/26 630/311/26 631/312/26 627/313/26
f 629/314/25 633/313/25 632/310/25 628/315/25
f 628/367/5 632/368/5 630/355/5 626/369/5
f 627/313/6 631/361/6 633/370/6 629/371/6
f 630/310/28 634/311/28 635/312/28 631/313/28
f 633/314/27 637/313/27 636/310/27 632/315/27
f 632/372/5 636/373/5 634/374/5 630/313/5
f 631/313/6 635/361/6 637/375/6 633/376/6
f 634/310/3 590/311/3 591/312/3 635/313/3
f 637/314/4 593/313/4 592/310/4 636/315/4
f 636/350/5 592/351/5 590/312/5 634/313/5
f 635/348/6 591/349/6 593/346/6 637/347/6
f 641/377/1 639/378/1 638/379/1 640/380/1
f 644/377/2 642/378/2 643/379/2 645/380/2
f 638/381/3 639/287/3 643/280/3 642/382/3
f 641/381/4 640/287/4 644/280/4 645/382/4
f 640/383/5 638/384/5 642/385/5 644/386/5
f 645/386/6 643/385/6 639/387/6 641/388/6
f 649/389/1 647/390/1 646/391/1 648/392/1
f 652/393/2 650/286/2 651/394/2 653/395/2
f 646/396/3 647/397/3 651/398/3 650/399/3
f 649/400/4 648/401/4 652/402/4 653/403/4
f 648/404/5 646/405/5 650/406/5 652/407/5
f 653/408/6 651/409/6 647/410/6 649/411/6
f 657/412/1 655/413/1 654/414/1 656/415/1
f 660/389/2 658/390/2 659/391/2 661/392/2
f 654/416/3 655/417/3 659/418/3 658/419/3
f 657/420/4 656/421/4 660/422/4 661/423/4
f 656/424/5 654/425/5 658/426/5 660/427/5
f 661/428/6 659/378/6 655/429/6 657/430/6
f 663/29/4 662/11/4 664/7/4 665/28/4
f 668/28/2 666/29/2 667/11/2 669/7/2
f 666/431/29 662/432/29 663/394/29 667/433/29
f 665/434/30 664/435/30 668/436/30 669/310/30
f 664/413/5 662/437/5 666/385/5 668/438/5
f 667/439/31 663/440/32 665/441/32 669/442/32
f 671/443/4 670/378/4 672/434/4 673/444/4
f 676/445/1 674/446/1 675/447/1 677/448/1
f 674/449/33 670/409/33 671/450/33 675/451/33
f 673/452/34 672/442/34 676/441/34 677/435/34
f 672/453/5 670/454/5 674/455/5 676/456/5
f 675/450/35 671/451/36 673/457/35 677/458/37
f 678/459/21 682/460/21 683/461/21 679/462/21
f 681/463/22 685/462/22 684/459/22 680/464/22
f 680/465/5 684/466/5 682/467/5 678/468/5
f 679/469/6 683/470/6 685/471/6 681/472/6
f 682/459/23 686/460/23 687/461/23 683/462/23
f 685/463/24 689/462/24 688/459/24 684/464/24
f 684/473/5 688/474/5 686/475/5 682/476/5
f 683/469/6 687/470/6 689/477/6 685/478/6
f 686/459/1 690/460/1 691/461/1 687/462/1
f 689/463/2 693/462/2 692/459/2 688/464/2
f 688/479/5 692/480/5 690/481/5 686/482/5
f 687/481/6 691/482/6 693/479/6 689/480/6
f 690/459/25 694/460/25 695/461/25 691/462/25
f 693/463/26 697/462/26 696/459/26 692/464/26
f 692/471/5 696/483/5 694/484/5 690/485/5
f 691/486/6 695/487/6 697/488/6 693/489/6
f 694/459/27 698/460/27 699/461/27 695/462/27
f 697/463/28 701/462/28 700/459/28 696/464/28
f 696/490/5 700/491/5 698/492/5 694/493/5
f 695/486/6 699/487/6 701/494/6 697/474/6
f 698/459/4 702/460/4 703/461/4 699/462/4
f 701/463/3 705/462/3 704/459/3 700/464/3
f 700/495/5 704/496/5 702/497/5 698/498/5
f 699/461/6 703/462/6 705/499/6 701/500/6
f 702/459/22 706/460/22 707/461/22 703/462/22
f 705/463/21 709/462/21 708/459/21 704/464/21
f 704/501/5 708/502/5 706/462/5 702/503/5
f 703/504/6 707/462/6 709/505/6 705/506/6
f 706/459/24 710/460/24 711/461/24 707/462/24
f 709/463/23 713/462/23 712/459/23 708/464/23
f 708/507/5 712/508/5 710/509/5 706/510/5
f 707/504/6 711/462/6 713/511/6 709/512/6
f 710/459/2 714/460/2 715/461/2 711/462/2
f 713/463/1 717/462/1 716/459/1 712/464/1
f 712/513/5 716/514/5 714/462/5 710/515/5
f 711/462/6 715/515/6 717/513/6 713/514/6
f 714/459/26 718/460/26 719/461/26 715/462/26
f 717/463/25 721/462/25 720/459/25 716/464/25
f 716/516/5 720/517/5 718/504/5 714/518/5
f 715/462/6 719/510/6 721/519/6 717/520/6
f 718/459/28 722/460/28 723/461/28 719/462/28
f 721/463/27 725/462/27 724/459/27 720/464/27
f 720/521/5 724/522/5 722/523/5 718/462/5
f 719/462/6 723/510/6 725/524/6 721/525/6
f 722/459/3 678/460/3 679/461/3 723/462/3
f 725/463/4 681/462/4 680/459/4 724/464/4
f 724/499/5 680/500/5 678/461/5 722/462/5
f 723/497/6 679/498/6 681/495/6 725/496/6
f 739/310/21 743/311/21 744/312/21 740/313/21
f 742/314/22 746/313/22 745/310/22 741/315/22
f 741/316/5 745/317/5 743/318/5 739/319/5
f 740/320/6 744/321/6 746/322/6 742/323/6
f 743/310/23 747/311/23 748/312/23 744/313/23
f 746/314/24 750/313/24 749/310/24 745/315/24
f 745/324/5 749/325/5 747/326/5 743/327/5
f 744/320/6 748/321/6 750/328/6 746/329/6
f 747/310/1 751/311/1 752/312/1 748/313/1
f 750/314/2 754/313/2 753/310/2 749/315/2
f 749/330/5 753/331/5 751/332/5 747/333/5
f 748/332/6 752/333/6 754/330/6 750/331/6
f 751/310/25 755/311/25 756/312/25 752/313/25
f 754/314/26 758/313/26 757/310/26 753/315/26
f 753/322/5 757/334/5 755/335/5 751/336/5
f 752/337/6 756/338/6 758/339/6 754/340/6
f 755/310/27 759/311/27 760/312/27 756/313/27
f 758/314/28 762/313/28 761/310/28 757/315/28
f 757/341/5 761/342/5 759/343/5 755/344/5
f 756/337/6 760/338/6 762/345/6 758/325/6
f 759/310/4 763/311/4 764/312/4 760/313/4
f 762/314/3 766/313/3 765/310/3 761/315/3
f 761/346/5 765/347/5 763/348/5 759/349/5
f 760/312/6 764/313/6 766/350/6 762/351/6
f 763/310/22 767/311/22 768/312/22 764/313/22
f 766/314/21 770/313/21 769/310/21 765/315/21
f 765/352/5 769/353/5 767/313/5 763/354/5
f 764/355/6 768/313/6 770/356/6 766/357/6
f 767/310/24 771/311/24 772/312/24 768/313/24
f 770/314/23 774/313/23 773/310/23 769/315/23
f 769/358/5 773/359/5 771/360/5 767/361/5
f 768/355/6 772/313/6 774/362/6 770/363/6
f 771/310/2 775/311/2 776/312/2 772/313/2
f 774/314/1 778/313/1 777/310/1 773/315/1
f 773/364/5 777/365/5 775/313/5 771/366/5
f 772/313/6 776/366/6 778/364/6 774/365/6
f 775/310/26 779/311/26 780/312/26 776/313/26
f 778/314/25 782/313/25 781/310/25 777/315/25
f 777/367/5 781/368/5 779/355/5 775/369/5
f 776/313/6 780/361/6 782/370/6 778/371/6
f 779/310/28 783/311/28 784/312/28 780/313/28
f 782/314/27 786/313/27 785/310/27 781/315/27
f 781/372/5 785/373/5 783/374/5 779/313/5
f 780/313/6 784/361/6 786/375/6 782/376/6
f 783/310/3 739/311/3 740/312/3 784/313/3
f 786/314/4 742/313/4 741/310/4 785/315/4
f 785/350/5 741/351/5 739/312/5 783/313/5
f 784/348/6 740/349/6 742/346/6 786/347/6
f 790/377/1 788/378/1 787/379/1 789/380/1
f 793/377/2 791/378/2 792/379/2 794/380/2
f 787/381/3 788/287/3 792/280/3 791/382/3
f 790/381/4 789/287/4 793/280/4 794/382/4
f 789/383/5 787/384/5 791/385/5 793/386/5
f 794/386/6 792/385/6 788/387/6 790/388/6
f 798/389/1 796/390/1 795/391/1 797/392/1
f 801/393/2 799/286/2 800/394/2 802/395/2
f 795/396/3 796/397/3 800/398/3 799/399/3
f 798/400/4 797/401/4 801/402/4 802/403/4
f 797/404/5 795/405/5 799/406/5 801/407/5
f 802/408/6 800/409/6 796/410/6 798/411/6
f 806/412/1 804/413/1 803/414/1 805/415/1
f 809/389/2 807/390/2 808/391/2 810/392/2
f 803/416/3 804/417/3 808/418/3 807/419/3
f 806/420/4 805/421/4 809/422/4 810/423/4
f 805/424/5 803/425/5 807/426/5 809/427/5
f 810/428/6 808/378/6 804/429/6 806/430/6
f 812/29/4 811/11/4 813/7/4 814/28/4
f 817/28/2 815/29/2 816/11/2 818/7/2
f 815/431/29 811/432/29 812/394/29 816/433/29
f 814/434/30 813/435/30 817/436/30 818/310/30
f 813/413/5 811/437/5 815/385/5 817/438/5
f 816/439/38 812/440/32 814/441/32 818/442/32
f 820/443/4 819/378/4 821/434/4 822/444/4
f 825/445/1 823/446/1 824/447/1 826/448/1
f 823/449/33 819/409/33 820/450/33 824/451/33
f 822/452/34 821/442/34 825/441/34 826/435/34
f 821/453/5 819/454/5 823/455/5 825/456/5
f 824/450/35 820/451/36 822/457/35 826/458/37
f 827/459/21 831/460/21 832/461/21 828/462/21
f 830/463/22 834/462/22 833/459/22 829/464/22
f 829/465/5 833/466/5 831/467/5 827/468/5
f 828/469/6 832/470/6 834/471/6 830/472/6
f 831/459/23 835/460/23 836/461/23 832/462/23
f 834/463/24 838/462/24 837/459/24 833/464/24
f 833/473/5 837/474/5 835/475/5 831/476/5
f 832/469/6 836/470/6 838/477/6 834/478/6
f 835/459/1 839/460/1 840/461/1 836/462/1
f 838/463/2 842/462/2 841/459/2 837/464/2
f 837/479/5 841/480/5 839/481/5 835/482/5
f 836/481/6 840/482/6 842/479/6 838/480/6
f 839/459/25 843/460/25 844/461/25 840/462/25
f 842/463/26 846/462/26 845/459/26 841/464/26
f 841/471/5 845/483/5 843/484/5 839/485/5
f 840/486/6 844/487/6 846/488/6 842/489/6
f 843/459/27 847/460/27 848/461/27 844/462/27
f 846/463/28 850/462/28 849/459/28 845/464/28
f 845/490/5 849/491/5 847/492/5 843/493/5
f 844/486/6 848/487/6 850/494/6 846/474/6
f 847/459/4 851/460/4 852/461/4 848/462/4
f 850/463/3 854/462/3 853/459/3 849/464/3
f 849/495/5 853/496/5 851/497/5 847/498/5
f 848/461/6 852/462/6 854/499/6 850/500/6
f 851/459/22 855/460/22 856/461/22 852/462/22
f 854/463/21 858/462/21 857/459/21 853/464/21
f 853/501/5 857/502/5 855/462/5 851/503/5
f 852/504/6 856/462/6 858/505/6 854/506/6
f 855/459/24 859/460/24 860/461/24 856/462/24
f 858/463/23 862/462/23 861/459/23 857/464/23
f 857/507/5 861/508/5 859/509/5 855/510/5
f 856/504/6 860/462/6 862/511/6 858/512/6
f 859/459/2 863/460/2 864/461/2 860/462/2
f 862/463/1 866/462/1 865/459/1 861/464/1
f 861/513/5 865/514/5 863/462/5 859/515/5
f 860/462/6 864/515/6 866/513/6 862/514/6
f 863/459/26 867/460/26 868/461/26 864/462/26
f 866/463/25 870/462/25 869/459/25 865/464/25
f 865/516/5 869/517/5 867/504/5 863/518/5
f 864/462/6 868/510/6 870/519/6 866/520/6
f 867/459/28 871/460/28 872/461/28 868/462/28
f 870/463/27 874/462/27 873/459/27 869/464/27
f 869/521/5 873/522/5 871/523/5 867/462/5
f 868/462/6 872/510/6 874/524/6 870/525/6
f 871/459/3 827/460/3 828/461/3 872/462/3
f 874/463/4 830/462/4 829/459/4 873/464/4
f 873/499/5 829/500/5 827/461/5 871/462/5
f 872/497/6 828/498/6 830/495/6 874/496/6
f 878/458/1 876/450/1 875/526/1 877/527/1
f 881/458/2 879/450/2 880/526/2 882/527/2
f 875/528/3 876/148/3 880/526/3 879/529/3
f 878/528/4 877/148/4 881/526/4 882/529/4
f 877/161/5 875/148/5 879/526/5 881/527/5
f 882/161/6 880/148/6 876/526/6 878/527/6
f 896/459/27 900/543/27 901/544/27 897/462/27
f 899/545/28 903/462/28 902/459/28 898/546/28
f 898/547/6 902/548/6 900/549/6 896/550/6
f 897/551/5 901/552/5 903/553/5 899/554/5
f 900/459/25 904/543/25 905/544/25 901/462/25
f 903/545/26 907/462/26 906/459/26 902/546/26
f 902/555/6 906/556/6 904/557/6 900/558/6
f 901/551/5 905/552/5 907/559/5 903/560/5
f 904/459/1 908/543/1 909/544/1 905/462/1
f 907/545/2 911/462/2 910/459/2 906/546/2
f 906/561/6 910/562/6 908/563/6 904/564/6
f 905/563/5 909/564/5 911/561/5 907/562/5
f 908/459/23 912/543/23 913/544/23 909/462/23
f 911/545/24 915/462/24 914/459/24 910/546/24
f 910/565/6 914/566/6 912/567/6 908/568/6
f 909/569/5 913/570/5 915/571/5 911/572/5
f 912/459/21 916/543/21 917/544/21 913/462/21
f 915/545/22 919/462/22 918/459/22 914/546/22
f 914/573/6 918/574/6 916/575/6 912/576/6
f 913/569/5 917/570/5 919/577/5 915/578/5
f 916/459/3 920/543/3 921/544/3 917/462/3
f 919/545/4 923/462/4 922/459/4 918/546/4
f 918/579/6 922/580/6 920/581/6 916/582/6
f 917/544/5 921/462/5 923/583/5 919/584/5
f 920/459/28 924/543/28 925/544/28 921/462/28
f 923/545/27 927/462/27 926/459/27 922/546/27
f 922/585/6 926/586/6 924/462/6 920/587/6
f 921/588/5 925/462/5 927/589/5 923/590/5
f 924/459/26 928/543/26 929/544/26 925/462/26
f 927/545/25 931/462/25 930/459/25 926/546/25
f 926/591/6 930/592/6 928/593/6 924/594/6
f 925/588/5 929/462/5 931/595/5 927/596/5
f 928/459/2 932/543/2 933/544/2 929/462/2
f 931/545/1 935/462/1 934/459/1 930/546/1
f 930/597/6 934/598/6 932/462/6 928/599/6
f 929/462/5 933/599/5 935/597/5 931/598/5
f 932/459/24 936/543/24 937/544/24 933/462/24
f 935/545/23 939/462/23 938/459/23 934/546/23
f 934/600/6 938/601/6 936/588/6 932/602/6
f 933/462/5 937/594/5 939/603/5 935/604/5
f 936/459/22 940/543/22 941/544/22 937/462/22
f 939/545/21 943/462/21 942/459/21 938/546/21
f 938/605/6 942/606/6 940/607/6 936/462/6
f 937/462/5 941/594/5 943/608/5 939/609/5
f 940/459/4 896/543/4 897/544/4 941/462/4
f 943/545/3 899/462/3 898/459/3 942/546/3
f 942/583/6 898/584/6 896/544/6 940/462/6
f 941/581/5 897/582/5 899/579/5 943/580/5
f 947/610/1 945/169/1 944/457/1 946/611/1
f 950/612/2 948/441/2 949/613/2 951/614/2
f 944/615/3 945/616/3 949/617/3 948/618/3
f 947/619/4 946/438/4 950/620/4 951/621/4
f 946/381/5 944/622/5 948/623/5 950/624/5
f 951/625/6 949/626/6 945/627/6 947/628/6
f 955/629/1 953/630/1 952/631/1 954/632/1
f 958/449/2 956/611/2 957/633/2 959/634/2
f 952/436/3 953/635/3 957/636/3 956/637/3
f 955/638/4 954/639/4 958/640/4 959/641/4
f 954/642/5 952/170/5 956/150/5 958/643/5
f 959/618/6 957/643/6 953/611/6 955/449/6
f 961/644/1 960/449/1 962/645/1 963/454/1
f 966/443/4 964/646/4 965/642/4 967/438/4
f 964/455/39 960/444/39 961/647/39 965/615/39
f 963/648/17 962/409/17 966/528/17 967/310/17
f 962/454/5 960/644/5 964/449/5 966/645/5
f 965/647/40 961/615/41 963/455/42 967/444/43
f 969/646/44 968/642/44 970/438/44 971/443/44
f 974/453/20 972/649/20 973/622/20 975/650/20
f 972/455/2 968/444/2 969/647/2 973/615/2
f 971/413/4 970/431/4 974/611/4 975/379/4
f 970/454/5 968/644/5 972/449/5 974/645/5
f 973/644/45 969/449/46 971/645/46 975/454/46
f 979/651/1 977/652/1 976/653/1 978/654/1
f 982/651/2 980/652/2 981/653/2 983/654/2
f 976/655/3 977/656/3 981/653/3 980/657/3
f 979/655/4 978/656/4 982/653/4 983/657/4
f 978/658/5 976/67/5 980/11/5 982/20/5
f 983/659/6 981/656/6 977/653/6 979/654/6
f 987/660/47 985/661/47 984/662/47 986/663/47
f 990/663/48 988/662/48 989/664/48 991/665/48
f 984/666/3 985/667/3 989/668/3 988/669/3
f 987/670/2 986/666/2 990/669/2 991/671/2
f 986/672/5 984/673/5 988/662/5 990/663/5
f 991/663/6 989/662/6 985/674/6 987/675/6
f 995/660/49 993/661/49 992/662/49 994/663/49
f 998/663/50 996/662/50 997/664/50 999/665/50
f 992/666/4 993/667/4 997/668/4 996/669/4
f 995/670/1 994/666/1 998/669/1 999/671/1
f 994/672/5 992/673/5 996/662/5 998/663/5
f 999/663/6 997/662/6 993/674/6 995/675/6
f 1003/676/51 1001/677/51 1000/678/51 1002/679/51
f 1006/680/52 1004/681/52 1005/682/52 1007/683/52
f 1000/684/3 1001/685/3 1005/686/3 1004/687/3
f 1003/688/1 1002/689/1 1006/690/1 1007/691/1
f 1002/692/5 1000/689/5 1004/690/5 1006/693/5
f 1007/694/6 1005/695/6 1001/678/6 1003/679/6
f 1011/676/53 1009/677/53 1008/678/53 1010/679/53
f 1014/680/54 1012/681/54 1013/682/54 1015/683/54
f 1008/684/4 1009/685/4 1013/686/4 1012/687/4
f 1011/688/2 1010/689/2 1014/690/2 1015/691/2
f 1010/692/5 1008/689/5 1012/690/5 1014/693/5
f 1015/694/6 1013/695/6 1009/678/6 1011/679/6
f 1019/696/1 1017/697/1 1016/59/1 1018/698/1
f 1022/696/2 1020/697/2 1021/59/2 1023/698/2
f 1016/697/3 1017/699/3 1021/58/3 1020/59/3
f 1019/697/4 1018/699/4 1022/58/4 1023/59/4
f 1018/696/5 1016/697/5 1020/59/5 1022/698/5
f 1023/696/6 1021/697/6 1017/59/6 1019/698/6
f 1027/696/1 1025/697/1 1024/59/1 1026/698/1
f 1030/696/2 1028/697/2 1029/59/2 1031/698/2
f 1024/697/3 1025/699/3 1029/58/3 1028/59/3
f 1027/697/4 1026/699/4 1030/58/4 1031/59/4
f 1026/696/5 1024/697/5 1028/59/5 1030/698/5
f 1031/696/6 1029/697/6 1025/59/6 1027/698/6
f 1067/52/1 1065/53/1 1064/54/1 1066/55/1
f 1070/697/2 1068/699/2 1069/58/2 1071/59/2
f 1064/703/3 1065/704/3 1069/705/3 1068/706/3
f 1067/703/4 1066/704/4 1070/705/4 1071/706/4
f 1066/703/5 1064/704/5 1068/705/5 1070/706/5
f 1071/703/6 1069/704/6 1065/705/6 1067/706/6
usemtl m_b2af6bd8-ffc8-ff72-7f7b-7b18782af15d.002
f 412/172/1 410/173/1 409/41/1 411/110/1
f 415/172/2 413/173/2 414/41/2 416/110/2
f 409/174/3 410/175/3 414/10/3 413/176/3
f 412/174/4 411/175/4 415/10/4 416/176/4
f 411/177/5 409/178/5 413/179/5 415/180/5
f 416/177/6 414/178/6 410/179/6 412/180/6
f 420/181/1 418/173/1 417/182/1 419/183/1
f 423/183/2 421/182/2 422/41/2 424/184/2
f 417/185/3 418/186/3 422/187/3 421/188/3
f 420/189/4 419/185/4 423/188/4 424/190/4
f 419/181/5 417/173/5 421/191/5 423/192/5
f 424/193/6 422/133/6 418/41/6 420/184/6
f 428/181/1 426/173/1 425/182/1 427/183/1
f 431/183/2 429/182/2 430/41/2 432/184/2
f 425/185/3 426/186/3 430/187/3 429/188/3
f 428/189/4 427/185/4 431/188/4 432/190/4
f 427/181/5 425/173/5 429/191/5 431/192/5
f 432/193/6 430/133/6 426/41/6 428/184/6
f 436/180/1 434/179/1 433/41/1 435/110/1
f 439/172/2 437/173/2 438/178/2 440/177/2
f 433/189/3 434/194/3 438/195/3 437/196/3
f 436/173/4 435/186/4 439/107/4 440/197/4
f 435/172/5 433/173/5 437/197/5 439/198/5
f 440/199/6 438/200/6 434/41/6 436/110/6
f 444/201/1 442/179/1 441/133/1 443/193/1
f 447/192/2 445/191/2 446/178/2 448/202/2
f 441/203/3 442/194/3 446/204/3 445/205/3
f 444/173/4 443/206/4 447/207/4 448/208/4
f 443/181/5 441/173/5 445/208/5 447/209/5
f 448/210/6 446/211/6 442/41/6 444/184/6
f 452/201/1 450/179/1 449/133/1 451/193/1
f 455/192/2 453/191/2 454/178/2 456/202/2
f 449/203/3 450/194/3 454/204/3 453/205/3
f 452/173/4 451/206/4 455/207/4 456/208/4
f 451/181/5 449/173/5 453/208/5 455/209/5
f 456/210/6 454/211/6 450/41/6 452/184/6
f 460/193/1 458/133/1 457/41/1 459/184/1
f 463/181/2 461/173/2 462/191/2 464/192/2
f 457/189/3 458/203/3 462/212/3 461/213/3
f 460/206/4 459/186/4 463/214/4 464/215/4
f 459/181/5 457/173/5 461/216/5 463/217/5
f 464/218/6 462/219/6 458/41/6 460/184/6
f 468/193/1 466/133/1 465/41/1 467/184/1
f 471/181/2 469/173/2 470/191/2 472/192/2
f 465/189/3 466/203/3 470/212/3 469/213/3
f 468/206/4 467/186/4 471/214/4 472/215/4
f 467/181/5 465/173/5 469/216/5 471/217/5
f 472/218/6 470/219/6 466/41/6 468/184/6
f 476/176/1 474/179/1 473/133/1 475/220/1
f 479/190/2 477/191/2 478/178/2 480/174/2
f 473/221/3 474/222/3 478/223/3 477/224/3
f 476/225/4 475/226/4 479/227/4 480/228/4
f 475/229/5 473/225/5 477/228/5 479/230/5
f 480/231/6 478/232/6 474/233/6 476/234/6
f 484/176/1 482/179/1 481/133/1 483/220/1
f 487/190/2 485/191/2 486/178/2 488/174/2
f 481/235/3 482/236/3 486/222/3 485/221/3
f 484/237/4 483/238/4 487/226/4 488/225/4
f 483/239/5 481/237/5 485/225/5 487/229/5
f 488/234/6 486/233/6 482/240/6 484/241/6
f 492/220/1 490/133/1 489/41/1 491/117/1
f 495/189/2 493/173/2 494/191/2 496/190/2
f 489/239/3 490/235/3 494/221/3 493/229/3
f 492/238/4 491/242/4 495/243/4 496/226/4
f 491/239/5 489/237/5 493/225/5 495/229/5
f 496/234/6 494/233/6 490/240/6 492/241/6
f 500/220/1 498/133/1 497/41/1 499/117/1
f 503/189/2 501/173/2 502/191/2 504/190/2
f 497/229/3 498/221/3 502/224/3 501/230/3
f 500/226/4 499/243/4 503/109/4 504/227/4
f 499/229/5 497/225/5 501/228/5 503/230/5
f 504/231/6 502/232/6 498/233/6 500/234/6
f 508/220/1 506/133/1 505/41/1 507/117/1
f 511/189/2 509/173/2 510/191/2 512/190/2
f 505/239/3 506/235/3 510/221/3 509/229/3
f 508/238/4 507/242/4 511/243/4 512/226/4
f 507/239/5 505/237/5 509/225/5 511/229/5
f 512/234/6 510/233/6 506/240/6 508/241/6
f 516/220/1 514/133/1 513/41/1 515/117/1
f 519/189/2 517/173/2 518/191/2 520/190/2
f 513/229/3 514/221/3 518/224/3 517/230/3
f 516/226/4 515/243/4 519/109/4 520/227/4
f 515/229/5 513/225/5 517/228/5 519/230/5
f 520/231/6 518/232/6 514/233/6 516/234/6
f 524/181/1 522/173/1 521/41/1 523/184/1
f 527/181/2 525/173/2 526/41/2 528/184/2
f 521/229/3 522/243/3 526/109/3 525/230/3
f 524/229/4 523/243/4 527/109/4 528/230/4
f 523/244/5 521/225/5 525/228/5 527/245/5
f 528/246/6 526/232/6 522/233/6 524/247/6
f 532/181/1 530/173/1 529/41/1 531/184/1
f 535/181/2 533/173/2 534/41/2 536/184/2
f 529/229/3 530/243/3 534/109/3 533/230/3
f 532/229/4 531/243/4 535/109/4 536/230/4
f 531/244/5 529/225/5 533/228/5 535/245/5
f 536/246/6 534/232/6 530/233/6 532/247/6
f 540/248/1 538/182/1 537/41/1 539/110/1
f 543/172/2 541/173/2 542/182/2 544/248/2
f 537/249/3 538/250/3 542/251/3 541/220/3
f 540/250/4 539/122/4 543/33/4 544/251/4
f 539/252/5 537/253/5 541/133/5 543/254/5
f 544/255/6 542/256/6 538/257/6 540/258/6
f 548/259/1 546/182/1 545/41/1 547/260/1
f 551/261/2 549/173/2 550/182/2 552/259/2
f 545/249/3 546/250/3 550/262/3 549/263/3
f 548/250/4 547/122/4 551/70/4 552/262/4
f 547/264/5 545/253/5 549/265/5 551/266/5
f 552/267/6 550/268/6 546/257/6 548/269/6
f 556/220/1 554/33/1 553/11/1 555/117/1
f 559/196/2 557/107/2 558/270/2 560/271/2
f 553/198/3 554/272/3 558/184/3 557/110/3
f 556/131/4 555/107/4 559/11/4 560/25/4
f 555/196/5 553/107/5 557/11/5 559/117/5
f 560/196/6 558/107/6 554/11/6 556/117/6
f 1035/189/1 1033/261/1 1032/700/1 1034/174/1
f 1038/189/2 1036/261/2 1037/700/2 1039/174/2
f 1032/189/55 1033/194/55 1037/701/55 1036/174/55
f 1035/189/56 1034/194/56 1038/701/56 1039/174/56
f 1034/189/57 1032/261/57 1036/700/57 1038/174/57
f 1039/189/58 1037/261/58 1033/700/58 1035/174/58
f 1043/702/59 1041/10/59 1040/11/59 1042/260/59
f 1046/702/60 1044/10/60 1045/11/60 1047/260/60
f 1040/189/61 1041/194/61 1045/701/61 1044/174/61
f 1043/189/62 1042/194/62 1046/701/62 1047/174/62
f 1042/702/63 1040/10/63 1044/11/63 1046/260/63
f 1047/702/64 1045/10/64 1041/11/64 1043/260/64
f 1051/702/65 1049/10/65 1048/11/65 1050/260/65
f 1054/702/66 1052/10/66 1053/11/66 1055/260/66
f 1048/189/61 1049/194/61 1053/701/61 1052/174/61
f 1051/189/62 1050/194/62 1054/701/62 1055/174/62
f 1050/702/63 1048/10/63 1052/11/63 1054/260/63
f 1055/702/64 1053/10/64 1049/11/64 1051/260/64
f 1059/189/1 1057/261/1 1056/700/1 1058/174/1
f 1062/189/2 1060/261/2 1061/700/2 1063/174/2
f 1056/189/55 1057/194/55 1061/701/55 1060/174/55
f 1059/189/56 1058/194/56 1062/701/56 1063/174/56
f 1058/189/57 1056/261/57 1060/700/57 1062/174/57
f 1063/189/58 1061/261/58 1057/700/58 1059/174/58
f 1075/707/1 1073/708/1 1072/709/1 1074/710/1
f 1078/711/2 1076/712/2 1077/713/2 1079/714/2
f 1072/272/3 1073/107/3 1077/10/3 1076/201/3
f 1075/198/4 1074/131/4 1078/26/4 1079/180/4
f 1074/707/5 1072/708/5 1076/715/5 1078/716/5
f 1079/716/6 1077/715/6 1073/713/6 1075/714/6
f 1083/717/1 1081/107/1 1080/33/1 1082/718/1
f 1086/719/2 1084/270/2 1085/11/2 1087/720/2
f 1080/272/3 1081/107/3 1085/10/3 1084/201/3
f 1083/198/4 1082/131/4 1086/26/4 1087/180/4
f 1082/717/5 1080/107/5 1084/10/5 1086/721/5
f 1087/721/6 1085/10/6 1081/11/6 1083/720/6
f 1091/173/1 1089/186/1 1088/11/1 1090/41/1
f 1094/173/2 1092/186/2 1093/11/2 1095/41/2
f 1088/176/3 1089/10/3 1093/11/3 1092/117/3
f 1091/176/4 1090/10/4 1094/11/4 1095/117/4
f 1090/197/5 1088/107/5 1092/10/5 1094/179/5
f 1095/179/6 1093/10/6 1089/11/6 1091/41/6
f 1099/722/1 1097/723/1 1096/289/1 1098/724/1
f 1102/725/2 1100/726/2 1101/727/2 1103/728/2
f 1096/729/3 1097/730/3 1101/731/3 1100/732/3
f 1099/733/4 1098/183/4 1102/184/4 1103/734/4
f 1098/735/5 1096/736/5 1100/264/5 1102/737/5
f 1103/738/6 1101/725/6 1097/739/6 1099/740/6
f 1107/178/1 1105/741/1 1104/742/1 1106/743/1
f 1110/265/2 1108/744/2 1109/26/2 1111/179/2
f 1104/745/3 1105/197/3 1109/179/3 1108/746/3
f 1107/195/4 1106/747/4 1110/748/4 1111/749/4
f 1106/197/5 1104/131/5 1108/26/5 1110/179/5
f 1111/179/6 1109/26/6 1105/25/6 1107/41/6
f 1115/750/1 1113/751/1 1112/25/1 1114/41/1
f 1118/173/2 1116/206/2 1117/752/2 1119/753/2
f 1112/196/3 1113/754/3 1117/755/3 1116/271/3
f 1115/756/4 1114/107/4 1118/270/4 1119/757/4
f 1114/197/5 1112/131/5 1116/758/5 1118/759/5
f 1119/133/6 1117/21/6 1113/25/6 1115/41/6
f 1123/178/1 1121/741/1 1120/742/1 1122/743/1
f 1126/265/2 1124/744/2 1125/26/2 1127/179/2
f 1120/745/3 1121/197/3 1125/179/3 1124/746/3
f 1123/195/4 1122/747/4 1126/748/4 1127/749/4
f 1122/197/5 1120/131/5 1124/26/5 1126/179/5
f 1127/179/6 1125/26/6 1121/25/6 1123/41/6
f 1131/197/1 1129/107/1 1128/33/1 1130/133/1
f 1134/759/2 1132/270/2 1133/11/2 1135/41/2
f 1128/246/3 1129/760/3 1133/11/3 1132/184/3
f 1131/761/4 1130/762/4 1134/25/4 1135/110/4
f 1130/232/5 1128/760/5 1132/11/5 1134/41/5
f 1135/232/6 1133/760/6 1129/11/6 1131/41/6
f 1139/197/1 1137/131/1 1136/21/1 1138/133/1
f 1142/759/2 1140/758/2 1141/25/2 1143/41/2
f 1136/183/3 1137/763/3 1141/109/3 1140/245/3
f 1139/248/4 1138/764/4 1142/227/4 1143/108/4
f 1138/182/5 1136/764/5 1140/227/5 1142/228/5
f 1143/182/6 1141/764/6 1137/227/6 1139/228/6
f 1147/265/1 1145/744/1 1144/21/1 1146/133/1
f 1150/265/2 1148/744/2 1149/21/2 1151/133/2
f 1144/86/3 1145/752/3 1149/238/3 1148/765/3
f 1147/86/4 1146/752/4 1150/238/4 1151/765/4
f 1146/753/5 1144/752/5 1148/238/5 1150/237/5
f 1151/753/6 1149/752/6 1145/238/6 1147/237/6
f 1155/197/10 1153/131/10 1152/21/10 1154/133/10
f 1158/759/9 1156/758/9 1157/25/9 1159/41/9
f 1152/183/7 1153/763/7 1157/109/7 1156/245/7
f 1155/248/8 1154/764/8 1158/227/8 1159/108/8
f 1154/182/5 1152/764/5 1156/227/5 1158/228/5
f 1159/182/6 1157/764/6 1153/227/6 1155/228/6
f 1163/197/7 1161/131/7 1160/21/7 1162/133/7
f 1166/759/8 1164/758/8 1165/25/8 1167/41/8
f 1160/766/9 1161/767/9 1165/109/9 1164/245/9
f 1163/768/10 1162/769/10 1166/227/10 1167/108/10
f 1162/770/5 1160/769/5 1164/227/5 1166/228/5
f 1167/770/6 1165/769/6 1161/227/6 1163/228/6
f 1171/198/1 1169/107/1 1168/11/1 1170/110/1
f 1174/198/2 1172/107/2 1173/11/2 1175/110/2
f 1168/771/3 1169/772/3 1173/11/3 1172/110/3
f 1171/771/4 1170/772/4 1174/11/4 1175/110/4
f 1170/771/5 1168/772/5 1172/11/5 1174/110/5
f 1175/773/6 1173/774/6 1169/96/6 1171/775/6
f 1179/207/1 1177/776/1 1176/11/1 1178/25/1
f 1182/207/2 1180/776/2 1181/11/2 1183/25/2
f 1176/777/3 1177/107/3 1181/10/3 1180/702/3
f 1179/777/4 1178/107/4 1182/10/4 1183/702/4
f 1178/131/5 1176/107/5 1180/10/5 1182/26/5
f 1183/26/6 1181/10/6 1177/11/6 1179/25/6
f 1187/207/1 1185/776/1 1184/11/1 1186/25/1
f 1190/207/2 1188/776/2 1189/11/2 1191/25/2
f 1184/777/3 1185/107/3 1189/10/3 1188/702/3
f 1187/777/4 1186/107/4 1190/10/4 1191/702/4
f 1186/131/5 1184/107/5 1188/10/5 1190/26/5
f 1191/26/6 1189/10/6 1185/11/6 1187/25/6
f 1195/778/1 1193/131/1 1192/758/1 1194/779/1
f 1198/780/2 1196/21/2 1197/25/2 1199/781/2
f 1192/131/3 1193/107/3 1197/10/3 1196/26/3
f 1195/198/4 1194/272/4 1198/201/4 1199/180/4
f 1194/778/5 1192/131/5 1196/26/5 1198/782/5
f 1199/782/6 1197/26/6 1193/25/6 1195/781/6
f 1201/197/1 1200/759/1 1202/46/1
f 1203/133/2 1204/41/2 1205/193/2
f 1200/131/3 1201/107/3 1204/10/3 1203/26/3
f 1202/272/67 1200/197/67 1203/179/67 1205/201/67
f 1205/201/6 1204/179/6 1201/41/6 1202/184/6
f 1209/207/1 1207/776/1 1206/11/1 1208/25/1
f 1212/207/2 1210/776/2 1211/11/2 1213/25/2
f 1206/777/3 1207/107/3 1211/10/3 1210/702/3
f 1209/777/4 1208/107/4 1212/10/4 1213/702/4
f 1208/131/5 1206/107/5 1210/10/5 1212/26/5
f 1213/26/6 1211/10/6 1207/11/6 1209/25/6
f 1214/70/68 1215/744/69 1216/207/70
f 1217/33/71 1219/25/72 1218/21/73
f 1216/777/70 1215/745/69 1218/746/73 1219/702/72
f 1215/131/69 1214/107/68 1217/10/71 1218/26/73
f 1219/26/72 1217/10/71 1214/11/68 1216/25/70
f 1220/70/68 1221/744/69 1222/207/70
f 1223/33/71 1225/25/72 1224/21/73
f 1222/777/70 1221/745/69 1224/746/73 1225/702/72
f 1221/131/69 1220/107/68 1223/10/71 1224/26/73
f 1225/26/72 1223/10/71 1220/11/68 1222/25/70
f 1229/207/1 1227/776/1 1226/11/1 1228/25/1
f 1232/207/2 1230/776/2 1231/11/2 1233/25/2
f 1226/777/3 1227/107/3 1231/10/3 1230/702/3
f 1229/777/4 1228/107/4 1232/10/4 1233/702/4
f 1228/131/5 1226/107/5 1230/10/5 1232/26/5
f 1233/26/6 1231/10/6 1227/11/6 1229/25/6
f 1237/778/1 1235/131/1 1234/758/1 1236/779/1
f 1240/780/2 1238/21/2 1239/25/2 1241/781/2
f 1234/131/3 1235/107/3 1239/10/3 1238/26/3
f 1237/198/4 1236/272/4 1240/201/4 1241/180/4
f 1236/778/5 1234/131/5 1238/26/5 1240/782/5
f 1241/782/6 1239/26/6 1235/25/6 1237/781/6
f 1243/197/1 1242/759/1 1244/46/1
f 1245/133/2 1246/41/2 1247/193/2
f 1242/131/3 1243/107/3 1246/10/3 1245/26/3
f 1244/272/67 1242/197/67 1245/179/67 1247/201/67
f 1247/201/6 1246/179/6 1243/41/6 1244/184/6
f 1251/182/46 1249/763/46 1248/33/46 1250/133/46
f 1254/268/74 1252/783/74 1253/11/74 1255/41/74
f 1248/784/75 1249/107/75 1253/10/75 1252/785/75
f 1251/786/76 1250/131/76 1254/26/76 1255/787/76
f 1250/197/5 1248/107/5 1252/10/5 1254/179/5
f 1255/179/6 1253/10/6 1249/11/6 1251/41/6
f 1259/182/77 1257/763/77 1256/33/77 1258/133/77
f 1262/268/78 1260/783/78 1261/11/78 1263/41/78
f 1256/784/75 1257/107/75 1261/10/75 1260/785/75
f 1259/786/76 1258/131/76 1262/26/76 1263/787/76
f 1258/197/5 1256/107/5 1260/10/5 1262/179/5
f 1263/179/6 1261/10/6 1257/11/6 1259/41/6
usemtl m_409504fd-f58c-4195-329e-2b61b82ac830.002
f 579/297/6 580/298/6 577/299/6
f 580/298/6 581/300/6 577/299/6
f 581/300/6 582/301/6 577/299/6
f 582/301/6 583/302/6 577/299/6
f 583/302/6 584/303/6 577/299/6
f 584/303/6 585/304/6 577/299/6
f 585/304/6 586/305/6 577/299/6
f 586/305/6 587/306/6 577/299/6
f 587/306/6 588/307/6 577/299/6
f 588/307/6 589/308/6 577/299/6
f 589/308/6 578/309/6 577/299/6
f 578/309/6 579/297/6 577/299/6
f 728/297/6 729/298/6 726/299/6
f 729/298/6 730/300/6 726/299/6
f 730/300/6 731/301/6 726/299/6
f 731/301/6 732/302/6 726/299/6
f 732/302/6 733/303/6 726/299/6
f 733/303/6 734/304/6 726/299/6
f 734/304/6 735/305/6 726/299/6
f 735/305/6 736/306/6 726/299/6
f 736/306/6 737/307/6 726/299/6
f 737/307/6 738/308/6 726/299/6
f 738/308/6 727/309/6 726/299/6
f 727/309/6 728/297/6 726/299/6
f 885/530/6 883/531/6 886/532/6
f 886/532/6 883/531/6 887/533/6
f 887/533/6 883/531/6 888/534/6
f 888/534/6 883/531/6 889/535/6
f 889/535/6 883/531/6 890/536/6
f 890/536/6 883/531/6 891/537/6
f 891/537/6 883/531/6 892/538/6
f 892/538/6 883/531/6 893/539/6
f 893/539/6 883/531/6 894/540/6
f 894/540/6 883/531/6 895/541/6
f 895/541/6 883/531/6 884/542/6
f 884/542/6 883/531/6 885/530/6
