# Blender 5.2.0 LTS
# www.blender.org
mtllib ks_vr_r_1000_left.mtl
o cube
v -0.406250 5.781250 -0.218750
v 1.218750 3.125000 0.125000
v 1.218750 3.125000 -0.125000
v 1.218750 2.125000 0.125000
v 1.218750 2.125000 -0.125000
v 0.968750 3.125000 0.125000
v 0.968750 3.125000 -0.125000
v 0.968750 2.125000 0.125000
v 0.968750 2.125000 -0.125000
v 1.218750 3.687500 0.125000
v 1.218750 3.687500 -0.125000
v 0.968750 3.687500 0.125000
v 0.968750 3.687500 -0.125000
v 1.218750 1.125000 0.125000
v 1.218750 1.125000 -0.125000
v 0.968750 1.125000 0.125000
v 0.968750 1.125000 -0.125000
v 1.218750 0.312500 0.125000
v 1.218750 0.312500 -0.125000
v 0.968750 0.312500 0.125000
v 0.968750 0.312500 -0.125000
v 0.968750 1.375000 -0.062500
v 0.968750 1.375000 -0.125000
v 0.968750 1.312500 -0.062500
v 0.968750 1.312500 -0.125000
v 0.781250 1.375000 -0.062500
v 0.781250 1.375000 -0.125000
v 0.781250 1.312500 -0.062500
v 0.781250 1.312500 -0.125000
v 0.843750 1.375000 0.062500
v 0.843750 1.375000 -0.062500
v 0.843750 1.312500 0.062500
v 0.843750 1.312500 -0.062500
v 0.781250 1.375000 0.062500
v 0.781250 1.312500 0.062500
v 0.968750 1.375000 0.125000
v 0.968750 1.375000 0.062500
v 0.968750 1.312500 0.125000
v 0.968750 1.312500 0.062500
v 0.781250 1.375000 0.125000
v 0.781250 1.312500 0.125000
v 0.968750 1.000000 -0.062500
v 0.968750 1.000000 -0.125000
v 0.968750 0.937500 -0.062500
v 0.968750 0.937500 -0.125000
v 0.781250 1.000000 -0.062500
v 0.781250 1.000000 -0.125000
v 0.781250 0.937500 -0.062500
v 0.781250 0.937500 -0.125000
v 0.843750 1.000000 0.062500
v 0.843750 1.000000 -0.062500
v 0.843750 0.937500 0.062500
v 0.843750 0.937500 -0.062500
v 0.781250 1.000000 0.062500
v 0.781250 0.937500 0.062500
v 0.968750 1.000000 0.125000
v 0.968750 1.000000 0.062500
v 0.968750 0.937500 0.125000
v 0.968750 0.937500 0.062500
v 0.781250 1.000000 0.125000
v 0.781250 0.937500 0.125000
v 0.843750 0.625000 0.062500
v 0.843750 0.625000 -0.062500
v 0.843750 0.562500 0.062500
v 0.843750 0.562500 -0.062500
v 0.781250 0.625000 0.062500
v 0.781250 0.625000 -0.062500
v 0.781250 0.562500 0.062500
v 0.781250 0.562500 -0.062500
v 0.968750 0.625000 0.125000
v 0.968750 0.625000 0.062500
v 0.968750 0.562500 0.125000
v 0.968750 0.562500 0.062500
v 0.781250 0.625000 0.125000
v 0.781250 0.562500 0.125000
v 0.968750 0.625000 -0.062500
v 0.968750 0.625000 -0.125000
v 0.968750 0.562500 -0.062500
v 0.968750 0.562500 -0.125000
v 0.781250 0.625000 -0.125000
v 0.781250 0.562500 -0.125000
v 0.062500 5.000000 -0.156250
v 0.062500 5.000000 -0.218750
v 0.062500 3.875000 -0.156250
v 0.062500 3.875000 -0.218750
v -0.062500 5.000000 -0.156250
v -0.062500 5.000000 -0.218750
v -0.062500 3.875000 -0.156250
v -0.062500 3.875000 -0.218750
v 0.062500 5.000000 0.218750
v 0.062500 5.000000 0.093750
v 0.062500 3.875000 0.218750
v 0.062500 3.875000 0.093750
v -0.062500 5.000000 0.218750
v -0.062500 5.000000 0.093750
v -0.062500 3.875000 0.218750
v -0.062500 3.875000 0.093750
v 0.062500 4.937500 0.093750
v 0.062500 4.937500 -0.156250
v -0.062500 4.937500 0.093750
v -0.062500 4.937500 -0.156250
v 0.062500 4.562500 0.093750
v 0.062500 4.562500 -0.156250
v 0.062500 4.500000 0.093750
v 0.062500 4.500000 -0.156250
v -0.062500 4.562500 0.093750
v -0.062500 4.562500 -0.156250
v -0.062500 4.500000 0.093750
v -0.062500 4.500000 -0.156250
v 0.062500 4.125000 0.093750
v 0.062500 4.125000 -0.156250
v 0.062500 3.937500 0.093750
v 0.062500 3.937500 -0.156250
v -0.062500 4.125000 0.093750
v -0.062500 4.125000 -0.156250
v -0.062500 3.937500 0.093750
v -0.062500 3.937500 -0.156250
v 1.156250 3.250000 0.187500
v 1.156250 3.250000 0.125000
v 1.156250 3.187500 0.187500
v 1.156250 3.187500 0.125000
v 0.781250 3.250000 0.187500
v 0.781250 3.250000 0.125000
v 0.781250 3.187500 0.187500
v 0.781250 3.187500 0.125000
v 1.406250 2.750000 0.187500
v 1.406250 2.750000 0.125000
v 1.406250 2.687500 0.187500
v 1.406250 2.687500 0.125000
v 1.031250 2.750000 0.187500
v 1.031250 2.750000 0.125000
v 1.031250 2.687500 0.187500
v 1.031250 2.687500 0.125000
v 1.156250 2.250000 0.187500
v 1.156250 2.250000 0.125000
v 1.156250 2.187500 0.187500
v 1.156250 2.187500 0.125000
v 0.781250 2.250000 0.187500
v 0.781250 2.250000 0.125000
v 0.781250 2.187500 0.187500
v 0.781250 2.187500 0.125000
v 1.406250 1.750000 0.187500
v 1.406250 1.750000 0.125000
v 1.406250 1.687500 0.187500
v 1.406250 1.687500 0.125000
v 1.031250 1.750000 0.187500
v 1.031250 1.750000 0.125000
v 1.031250 1.687500 0.187500
v 1.031250 1.687500 0.125000
v 1.468750 0.250000 0.375000
v 1.468750 0.250000 -0.375000
v 1.468750 -0.187500 0.375000
v 1.468750 -0.187500 -0.375000
v 0.718750 0.250000 0.375000
v 0.718750 0.250000 -0.375000
v 0.718750 -0.187500 0.375000
v 0.718750 -0.187500 -0.375000
v 1.406250 0.312500 0.250000
v 1.406250 0.312500 -0.250000
v 1.406250 0.250000 0.250000
v 1.406250 0.250000 -0.250000
v 0.781250 0.312500 0.250000
v 0.781250 0.312500 -0.250000
v 0.781250 0.250000 0.250000
v 0.781250 0.250000 -0.250000
v 1.358915 0.286612 -0.037500
v 1.358915 0.286612 -0.118750
v 1.270527 0.198223 -0.037500
v 1.270527 0.198223 -0.118750
v 1.137944 0.507583 -0.037500
v 1.137944 0.507583 -0.118750
v 1.049556 0.419194 -0.037500
v 1.049556 0.419194 -0.118750
v 1.057138 0.515165 -0.037500
v 1.057138 0.515165 -0.118750
v 1.145527 0.426777 -0.037500
v 1.145527 0.426777 -0.118750
v 0.836167 0.294194 -0.037500
v 0.836167 0.294194 -0.118750
v 0.924556 0.205806 -0.037500
v 0.924556 0.205806 -0.118750
v 1.057138 0.515165 0.118750
v 1.057138 0.515165 0.037500
v 1.145527 0.426777 0.118750
v 1.145527 0.426777 0.037500
v 0.836167 0.294194 0.118750
v 0.836167 0.294194 0.037500
v 0.924556 0.205806 0.118750
v 0.924556 0.205806 0.037500
v 1.358915 0.286612 0.118750
v 1.358915 0.286612 0.037500
v 1.270527 0.198223 0.118750
v 1.270527 0.198223 0.037500
v 1.137944 0.507583 0.118750
v 1.137944 0.507583 0.037500
v 1.049556 0.419194 0.118750
v 1.049556 0.419194 0.037500
v 1.406250 1.312500 0.500000
v 1.406250 1.312500 0.125000
v 1.406250 0.500000 0.500000
v 1.406250 0.500000 0.125000
v 0.781250 1.312500 0.500000
v 0.781250 0.500000 0.500000
v 0.781250 0.500000 0.125000
v 1.125000 3.640165 0.118750
v 1.125000 3.640165 0.068750
v 0.992417 3.507582 0.118750
v 0.992417 3.507582 0.068750
v 0.904029 3.861136 0.118750
v 0.904029 3.861136 0.068750
v 0.771447 3.728553 0.118750
v 0.771447 3.728553 0.068750
v 1.125000 3.640165 -0.068750
v 1.125000 3.640165 -0.118750
v 0.992417 3.507582 -0.068750
v 0.992417 3.507582 -0.118750
v 0.904029 3.861136 -0.068750
v 0.904029 3.861136 -0.118750
v 0.771447 3.728553 -0.068750
v 0.771447 3.728553 -0.118750
v 0.937500 3.875000 0.250000
v 0.937500 3.875000 -0.250000
v 0.937500 3.812500 0.250000
v 0.937500 3.812500 -0.250000
v -0.187500 3.875000 0.250000
v -0.187500 3.875000 -0.250000
v -0.187500 3.812500 0.250000
v -0.187500 3.812500 -0.250000
v 1.218750 3.812500 0.187500
v 1.218750 3.812500 -0.187500
v 1.218750 3.687500 0.187500
v 1.218750 3.687500 -0.187500
v 0.375000 3.812500 0.187500
v 0.375000 3.812500 -0.187500
v 0.375000 3.687500 0.187500
v 0.375000 3.687500 -0.187500
v -0.187500 3.812500 0.187500
v -0.187500 3.812500 -0.187500
v -0.187500 3.687500 0.187500
v -0.187500 3.687500 -0.187500
v 1.218750 3.875000 0.187500
v 1.218750 3.875000 -0.187500
v 0.937500 3.875000 0.187500
v 0.937500 3.875000 -0.187500
v 0.937500 3.812500 0.187500
v 0.937500 3.812500 -0.187500
v 0.375000 3.812500 -0.250000
v 0.437500 3.812500 -0.187500
v 0.437500 3.812500 -0.250000
v 0.437500 3.687500 -0.187500
v 0.125000 3.812500 -0.187500
v 0.125000 3.812500 -0.250000
v 0.125000 3.687500 -0.187500
v 0.187500 3.812500 -0.187500
v 0.187500 3.812500 -0.250000
v 0.187500 3.687500 -0.187500
v -0.125000 3.812500 -0.187500
v -0.125000 3.812500 -0.250000
v -0.125000 3.687500 -0.187500
v -0.062500 3.812500 -0.187500
v -0.062500 3.812500 -0.250000
v -0.062500 3.687500 -0.187500
v 0.625000 3.812500 -0.187500
v 0.625000 3.812500 -0.250000
v 0.625000 3.687500 -0.187500
v 0.687500 3.812500 -0.187500
v 0.687500 3.812500 -0.250000
v 0.687500 3.687500 -0.187500
v 0.875000 3.812500 -0.187500
v 0.875000 3.812500 -0.250000
v 0.875000 3.687500 -0.187500
v 0.937500 3.687500 -0.187500
v 0.437500 3.812500 0.187500
v 0.437500 3.812500 0.250000
v 0.437500 3.687500 0.187500
v 0.500000 3.812500 0.187500
v 0.500000 3.812500 0.250000
v 0.500000 3.687500 0.187500
v 0.625000 3.812500 0.187500
v 0.625000 3.812500 0.250000
v 0.625000 3.687500 0.187500
v 0.687500 3.812500 0.187500
v 0.687500 3.812500 0.250000
v 0.687500 3.687500 0.187500
v 0.812500 3.812500 0.187500
v 0.812500 3.812500 0.250000
v 0.812500 3.687500 0.187500
v 0.875000 3.812500 0.187500
v 0.875000 3.812500 0.250000
v 0.875000 3.687500 0.187500
v 0.250000 3.687500 0.062500
v 0.250000 3.687500 -0.062500
v 0.250000 3.437500 0.062500
v 0.250000 3.437500 -0.062500
v 0.187500 3.687500 0.062500
v 0.187500 3.687500 -0.062500
v 0.187500 3.437500 0.062500
v 0.187500 3.437500 -0.062500
v -0.062500 3.687500 0.031250
v -0.062500 3.687500 -0.031250
v -0.062500 3.568750 0.031250
v -0.062500 3.568750 -0.031250
v -0.109375 3.687500 0.031250
v -0.109375 3.687500 -0.031250
v -0.109375 3.568750 0.031250
v -0.109375 3.568750 -0.031250
v 0.218750 3.490625 0.031250
v 0.218750 3.490625 -0.031250
v 0.218750 3.443750 0.031250
v 0.218750 3.443750 -0.031250
v 0.015625 3.490625 0.031250
v 0.015625 3.490625 -0.031250
v 0.015625 3.443750 0.031250
v 0.015625 3.443750 -0.031250
v 0.390625 3.553125 0.031250
v 0.390625 3.553125 -0.031250
v 0.390625 3.506250 0.031250
v 0.390625 3.506250 -0.031250
v 0.968750 3.615625 0.031250
v 0.968750 3.615625 -0.031250
v 0.968750 3.568750 0.031250
v 0.968750 3.568750 -0.031250
v 0.406250 3.553125 0.031250
v 0.406250 3.553125 -0.031250
v 0.406250 3.506250 0.031250
v 0.406250 3.506250 -0.031250
v 0.000000 4.000000 -0.162500
v 0.000000 4.000000 -0.212500
v 0.062500 3.875000 -0.162500
v 0.062500 3.875000 -0.212500
v 0.062500 4.000000 -0.162500
v 0.062500 4.000000 -0.212500
v 0.125000 3.875000 -0.162500
v 0.125000 3.875000 -0.212500
v -0.062500 4.000000 -0.162500
v -0.062500 4.000000 -0.212500
v -0.125000 3.875000 -0.162500
v -0.125000 3.875000 -0.212500
v -0.062500 3.875000 -0.162500
v -0.062500 3.875000 -0.212500
v -0.062500 4.000000 0.212500
v -0.062500 4.000000 0.100000
v -0.125000 3.875000 0.212500
v -0.125000 3.875000 0.100000
v -0.062500 3.875000 0.212500
v -0.062500 3.875000 0.100000
v 0.000000 4.000000 0.212500
v 0.000000 4.000000 0.100000
v 0.062500 3.875000 0.212500
v 0.062500 3.875000 0.100000
v 0.062500 4.000000 0.212500
v 0.062500 4.000000 0.100000
v 0.125000 3.875000 0.212500
v 0.125000 3.875000 0.100000
v 1.256250 3.937500 0.306250
v 1.256250 3.937500 -0.693750
v 1.256250 3.875000 0.306250
v 1.256250 3.875000 -0.693750
v 0.381250 3.937500 0.306250
v 0.381250 3.937500 -0.693750
v 0.381250 3.875000 0.306250
v 0.381250 3.875000 -0.693750
v 0.412500 4.437500 -0.225000
v 0.412500 4.437500 -0.725000
v 0.412500 4.406250 -0.225000
v 0.412500 4.406250 -0.725000
v 0.381250 4.437500 -0.225000
v 0.381250 4.437500 -0.725000
v 0.381250 4.406250 -0.225000
v 0.381250 4.406250 -0.725000
v 0.412500 4.875000 -0.225000
v 0.412500 4.875000 -0.725000
v 0.412500 4.843750 -0.225000
v 0.412500 4.843750 -0.725000
v 0.381250 4.875000 -0.225000
v 0.381250 4.875000 -0.725000
v 0.381250 4.843750 -0.225000
v 0.381250 4.843750 -0.725000
v 1.256250 3.937500 -0.756250
v 1.256250 3.875000 -0.756250
v 0.381250 3.937500 -0.756250
v 0.381250 3.875000 -0.756250
v 1.225000 4.437500 -0.725000
v 1.225000 4.437500 -0.756250
v 1.225000 4.406250 -0.725000
v 1.225000 4.406250 -0.756250
v 0.412500 4.437500 -0.756250
v 0.412500 4.406250 -0.756250
v 1.225000 4.875000 -0.725000
v 1.225000 4.875000 -0.756250
v 1.225000 4.843750 -0.725000
v 1.225000 4.843750 -0.756250
v 0.412500 4.875000 -0.756250
v 0.412500 4.843750 -0.756250
v 0.787500 4.437500 0.306250
v 0.787500 4.437500 0.275000
v 0.787500 4.406250 0.306250
v 0.787500 4.406250 0.275000
v 0.412500 4.437500 0.306250
v 0.412500 4.437500 0.275000
v 0.412500 4.406250 0.306250
v 0.412500 4.406250 0.275000
v 0.787500 4.875000 0.306250
v 0.787500 4.875000 0.275000
v 0.787500 4.843750 0.306250
v 0.787500 4.843750 0.275000
v 0.412500 4.875000 0.306250
v 0.412500 4.875000 0.275000
v 0.412500 4.843750 0.306250
v 0.412500 4.843750 0.275000
v 1.256250 4.875000 -0.725000
v 1.256250 4.875000 -0.756250
v 1.256250 3.937500 -0.725000
v 1.225000 3.937500 -0.725000
v 1.225000 3.937500 -0.756250
v 0.412500 3.937500 -0.725000
v 0.412500 3.937500 -0.756250
v 0.381250 4.875000 -0.756250
v 0.381250 3.937500 -0.725000
v 0.412500 4.875000 -0.193750
v 0.412500 3.937500 -0.193750
v 0.412500 3.937500 -0.225000
v 0.381250 4.875000 -0.193750
v 0.381250 3.937500 -0.193750
v 0.381250 3.937500 -0.225000
v 1.256250 4.875000 0.306250
v 1.256250 4.875000 0.275000
v 1.256250 3.937500 0.275000
v 1.225000 4.875000 0.306250
v 1.225000 4.875000 0.275000
v 1.225000 3.937500 0.306250
v 1.225000 3.937500 0.275000
v 0.412500 3.937500 0.306250
v 0.412500 3.937500 0.275000
v 0.381250 4.875000 0.306250
v 0.381250 4.875000 0.275000
v 0.381250 3.937500 0.275000
v 0.818750 4.875000 0.306250
v 0.818750 4.875000 0.275000
v 0.818750 3.937500 0.306250
v 0.818750 3.937500 0.275000
v 0.787500 3.937500 0.306250
v 0.787500 3.937500 0.275000
v 1.256250 4.843750 0.275000
v 1.256250 4.843750 -0.725000
v 1.225000 4.843750 0.275000
v 1.256250 4.437500 0.275000
v 1.256250 4.437500 -0.725000
v 1.256250 4.406250 0.275000
v 1.256250 4.406250 -0.725000
v 1.225000 4.437500 0.275000
v 1.225000 4.406250 0.275000
v 1.162500 3.875000 -0.193750
v 1.162500 3.875000 -0.693750
v 1.162500 3.812500 -0.193750
v 1.162500 3.812500 -0.693750
v 0.975000 3.875000 -0.193750
v 0.975000 3.875000 -0.693750
v 0.975000 3.812500 -0.193750
v 0.975000 3.812500 -0.693750
v 1.037500 3.812500 -0.193750
v 1.037500 3.812500 -0.693750
v 1.037500 3.687500 -0.193750
v 1.037500 3.687500 -0.693750
v 0.975000 3.687500 -0.193750
v 0.975000 3.687500 -0.693750
v 0.250000 5.875000 0.671875
v 0.250000 5.875000 0.640625
v 0.250000 5.000000 0.671875
v 0.250000 5.000000 0.640625
v 0.218750 5.875000 0.671875
v 0.218750 5.875000 0.640625
v 0.218750 5.000000 0.671875
v 0.218750 5.000000 0.640625
v -0.218750 5.875000 0.671875
v -0.218750 5.875000 0.640625
v -0.218750 5.000000 0.671875
v -0.218750 5.000000 0.640625
v -0.250000 5.875000 0.671875
v -0.250000 5.875000 0.640625
v -0.250000 5.000000 0.671875
v -0.250000 5.000000 0.640625
v 0.368750 5.884903 0.300697
v 0.368750 5.879477 0.269922
v 0.368750 5.084747 0.441786
v 0.368750 5.079321 0.411011
v 0.337500 5.884903 0.300697
v 0.337500 5.879477 0.269922
v 0.337500 5.084747 0.441786
v 0.337500 5.079321 0.411011
v 0.368750 5.090997 0.441786
v 0.368750 5.080144 0.411486
v 0.243750 4.961646 0.463492
v 0.243750 4.950793 0.433191
v 0.337500 5.090997 0.441786
v 0.337500 5.080144 0.411486
v 0.212500 4.961646 0.463492
v 0.212500 4.950793 0.433191
v -0.350000 5.090997 0.441786
v -0.350000 5.080144 0.411486
v -0.225000 4.961646 0.463492
v -0.225000 4.950793 0.433191
v -0.381250 5.090997 0.441786
v -0.381250 5.080144 0.411486
v -0.256250 4.961646 0.463492
v -0.256250 4.950793 0.433191
v -0.350000 5.884903 0.300697
v -0.350000 5.879477 0.269922
v -0.350000 5.084747 0.441786
v -0.350000 5.079321 0.411011
v -0.381250 5.884903 0.300697
v -0.381250 5.879477 0.269922
v -0.381250 5.084747 0.441786
v -0.381250 5.079321 0.411011
v 0.312500 5.906250 0.671875
v 0.312500 5.906250 0.640625
v 0.312500 5.875000 0.671875
v 0.312500 5.875000 0.640625
v -0.312500 5.906250 0.671875
v -0.312500 5.906250 0.640625
v -0.312500 5.875000 0.671875
v -0.312500 5.875000 0.640625
v 0.375000 5.818750 -0.343750
v 0.375000 5.818750 -0.437500
v 0.375000 5.000000 -0.343750
v 0.375000 5.000000 -0.437500
v 0.312500 5.818750 -0.343750
v 0.312500 5.818750 -0.437500
v 0.312500 5.000000 -0.343750
v 0.312500 5.000000 -0.437500
v -0.312500 5.818750 -0.343750
v -0.312500 5.818750 -0.437500
v -0.312500 5.000000 -0.343750
v -0.312500 5.000000 -0.437500
v -0.375000 5.818750 -0.343750
v -0.375000 5.818750 -0.437500
v -0.375000 5.000000 -0.343750
v -0.375000 5.000000 -0.437500
v -0.343750 5.906250 0.562500
v -0.343750 5.906250 -0.000000
v -0.343750 5.875000 0.562500
v -0.343750 5.875000 -0.000000
v -0.375000 5.906250 0.562500
v -0.375000 5.906250 -0.000000
v -0.375000 5.875000 0.562500
v -0.375000 5.875000 -0.000000
v 0.250000 5.000000 0.687500
v 0.250000 5.000000 0.218750
v 0.250000 4.937500 0.687500
v 0.250000 4.937500 0.218750
v -0.250000 5.000000 0.687500
v -0.250000 5.000000 0.218750
v -0.250000 4.937500 0.687500
v -0.250000 4.937500 0.218750
v -0.312500 5.906250 0.656250
v -0.312500 5.906250 0.562500
v -0.312500 5.875000 0.656250
v -0.312500 5.875000 0.562500
v -0.375000 5.906250 0.656250
v -0.375000 5.875000 0.656250
v 0.375000 5.906250 0.562500
v 0.375000 5.906250 -0.000000
v 0.375000 5.875000 0.562500
v 0.375000 5.875000 -0.000000
v 0.343750 5.906250 0.562500
v 0.343750 5.906250 -0.000000
v 0.343750 5.875000 0.562500
v 0.343750 5.875000 -0.000000
v 0.375000 5.906250 0.656250
v 0.375000 5.875000 0.656250
v 0.312500 5.906250 0.656250
v 0.312500 5.906250 0.562500
v 0.312500 5.875000 0.656250
v 0.312500 5.875000 0.562500
v 0.375000 4.937500 -0.343750
v 0.375000 4.937500 -0.437500
v -0.375000 4.937500 -0.343750
v -0.375000 4.937500 -0.437500
v 0.125000 4.718750 -0.343750
v 0.125000 4.718750 -0.437500
v 0.125000 4.687500 -0.343750
v 0.125000 4.687500 -0.437500
v -0.125000 4.718750 -0.343750
v -0.125000 4.718750 -0.437500
v -0.125000 4.687500 -0.343750
v -0.125000 4.687500 -0.437500
v 0.062500 4.718750 -0.218750
v 0.062500 4.718750 -0.343750
v 0.062500 4.687500 -0.218750
v 0.062500 4.687500 -0.343750
v -0.062500 4.718750 -0.218750
v -0.062500 4.718750 -0.343750
v -0.062500 4.687500 -0.218750
v -0.062500 4.687500 -0.343750
v -0.102903 4.709597 -0.337500
v -0.102903 4.709597 -0.431250
v -0.125000 4.687500 -0.337500
v -0.125000 4.687500 -0.431250
v -0.352903 4.959597 -0.337500
v -0.352903 4.959597 -0.431250
v -0.375000 4.937500 -0.337500
v -0.375000 4.937500 -0.431250
v 0.352903 4.959597 -0.337500
v 0.352903 4.959597 -0.431250
v 0.375000 4.937500 -0.337500
v 0.375000 4.937500 -0.431250
v 0.102903 4.709597 -0.337500
v 0.102903 4.709597 -0.431250
v 0.125000 4.687500 -0.337500
v 0.125000 4.687500 -0.431250
v 0.068750 5.062500 -0.187500
v 0.068750 5.062500 -0.312500
v 0.068750 4.937500 -0.187500
v 0.068750 4.937500 -0.312500
v -0.068750 5.062500 -0.187500
v -0.068750 5.062500 -0.312500
v -0.068750 4.937500 -0.187500
v -0.068750 4.937500 -0.312500
v -0.343750 5.812500 -0.218750
v -0.343750 5.812500 -0.406250
v -0.343750 5.781250 -0.218750
v -0.343750 5.781250 -0.406250
v -0.406250 5.812500 -0.218750
v -0.406250 5.812500 -0.406250
v -0.406250 5.781250 -0.406250
v -0.343750 5.156250 -0.218750
v -0.343750 5.156250 -0.406250
v -0.343750 5.125000 -0.218750
v -0.343750 5.125000 -0.406250
v -0.406250 5.156250 -0.218750
v -0.406250 5.156250 -0.406250
v -0.406250 5.125000 -0.218750
v -0.406250 5.125000 -0.406250
v 0.406250 5.781250 -0.187500
v 0.406250 5.781250 -0.218750
v 0.406250 5.156250 -0.187500
v 0.406250 5.156250 -0.218750
v 0.343750 5.781250 -0.187500
v 0.343750 5.781250 -0.218750
v 0.343750 5.156250 -0.187500
v 0.343750 5.156250 -0.218750
v 0.406250 5.125000 -0.218750
v 0.343750 5.125000 -0.218750
v 0.406250 5.812500 -0.218750
v 0.406250 5.812500 -0.406250
v 0.406250 5.781250 -0.406250
v 0.343750 5.812500 -0.218750
v 0.343750 5.812500 -0.406250
v 0.343750 5.781250 -0.406250
v -0.343750 5.781250 -0.187500
v -0.406250 5.781250 -0.187500
v 0.406250 5.156250 -0.406250
v 0.406250 5.125000 -0.406250
v 0.343750 5.156250 -0.406250
v 0.343750 5.125000 -0.406250
v -0.343750 5.156250 -0.187500
v -0.406250 5.156250 -0.187500
v 0.250000 5.000000 0.681250
v 0.062500 4.937500 0.218750
v 0.250000 4.937500 0.681250
v 0.062500 4.875000 0.218750
v 0.187500 5.000000 0.681250
v 0.000000 4.937500 0.218750
v 0.187500 4.937500 0.681250
v 0.000000 4.875000 0.218750
v -0.187500 5.000000 0.681250
v -0.187500 4.937500 0.681250
v -0.250000 5.000000 0.681250
v -0.062500 4.937500 0.218750
v -0.250000 4.937500 0.681250
v -0.062500 4.875000 0.218750
v 0.375000 6.000000 -0.437500
v 0.375000 6.000000 -0.500000
v 0.375000 5.000000 -0.500000
v -0.375000 6.000000 -0.437500
v -0.375000 6.000000 -0.500000
v -0.375000 5.000000 -0.500000
v 0.312500 6.000000 -0.312500
v 0.312500 6.000000 -0.437500
v 0.312500 5.000000 -0.312500
v -0.312500 6.000000 -0.312500
v -0.312500 6.000000 -0.437500
v -0.312500 5.000000 -0.312500
v 0.156250 5.515625 -0.534375
v 0.181370 5.609375 -0.534375
v 0.224880 5.584255 -0.534375
v 0.250000 5.540745 -0.534375
v 0.250000 5.490505 -0.534375
v 0.224880 5.446995 -0.534375
v 0.181370 5.421875 -0.534375
v 0.131130 5.421875 -0.534375
v 0.087620 5.446995 -0.534375
v 0.062500 5.490505 -0.534375
v 0.062500 5.540745 -0.534375
v 0.087620 5.584255 -0.534375
v 0.131130 5.609375 -0.534375
v 0.183464 5.617188 -0.500000
v 0.183464 5.617188 -0.562500
v 0.176050 5.589520 -0.500000
v 0.176050 5.589520 -0.562500
v 0.230599 5.589974 -0.500000
v 0.230599 5.589974 -0.562500
v 0.210345 5.569720 -0.500000
v 0.210345 5.569720 -0.562500
v 0.257812 5.542839 -0.500000
v 0.257812 5.542839 -0.562500
v 0.230145 5.535425 -0.500000
v 0.230145 5.535425 -0.562500
v 0.257812 5.488411 -0.500000
v 0.257812 5.488411 -0.562500
v 0.230145 5.495825 -0.500000
v 0.230145 5.495825 -0.562500
v 0.230599 5.441276 -0.500000
v 0.230599 5.441276 -0.562500
v 0.210345 5.461530 -0.500000
v 0.210345 5.461530 -0.562500
v 0.183464 5.414062 -0.500000
v 0.183464 5.414062 -0.562500
v 0.176050 5.441730 -0.500000
v 0.176050 5.441730 -0.562500
v 0.129036 5.414062 -0.500000
v 0.129036 5.414062 -0.562500
v 0.136450 5.441730 -0.500000
v 0.136450 5.441730 -0.562500
v 0.081901 5.441276 -0.500000
v 0.081901 5.441276 -0.562500
v 0.102155 5.461530 -0.500000
v 0.102155 5.461530 -0.562500
v 0.054688 5.488411 -0.500000
v 0.054688 5.488411 -0.562500
v 0.082355 5.495825 -0.500000
v 0.082355 5.495825 -0.562500
v 0.054688 5.542839 -0.500000
v 0.054688 5.542839 -0.562500
v 0.082355 5.535425 -0.500000
v 0.082355 5.535425 -0.562500
v 0.081901 5.589974 -0.500000
v 0.081901 5.589974 -0.562500
v 0.102155 5.569720 -0.500000
v 0.102155 5.569720 -0.562500
v 0.129036 5.617188 -0.500000
v 0.129036 5.617188 -0.562500
v 0.136450 5.589520 -0.500000
v 0.136450 5.589520 -0.562500
v 0.218750 5.653125 -0.500000
v 0.218750 5.653125 -0.937500
v 0.218750 5.621875 -0.500000
v 0.218750 5.621875 -0.937500
v 0.093750 5.653125 -0.500000
v 0.093750 5.653125 -0.937500
v 0.093750 5.621875 -0.500000
v 0.093750 5.621875 -0.937500
v 0.027459 5.543750 -0.500000
v 0.027459 5.543750 -0.562500
v 0.027459 5.480139 -0.500000
v 0.027459 5.480139 -0.562500
v -0.003791 5.543750 -0.500000
v -0.003791 5.543750 -0.562500
v -0.003791 5.480139 -0.500000
v -0.003791 5.480139 -0.562500
v 0.315625 5.543750 -0.500000
v 0.315625 5.543750 -0.562500
v 0.315625 5.480139 -0.500000
v 0.315625 5.480139 -0.562500
v 0.284375 5.543750 -0.500000
v 0.284375 5.543750 -0.562500
v 0.284375 5.480139 -0.500000
v 0.284375 5.480139 -0.562500
v -0.156250 5.515625 -0.534375
v -0.131130 5.609375 -0.534375
v -0.087620 5.584255 -0.534375
v -0.062500 5.540745 -0.534375
v -0.062500 5.490505 -0.534375
v -0.087620 5.446995 -0.534375
v -0.131130 5.421875 -0.534375
v -0.181370 5.421875 -0.534375
v -0.224880 5.446995 -0.534375
v -0.250000 5.490505 -0.534375
v -0.250000 5.540745 -0.534375
v -0.224880 5.584255 -0.534375
v -0.181370 5.609375 -0.534375
v -0.129036 5.617188 -0.500000
v -0.129036 5.617188 -0.562500
v -0.136450 5.589520 -0.500000
v -0.136450 5.589520 -0.562500
v -0.081901 5.589974 -0.500000
v -0.081901 5.589974 -0.562500
v -0.102155 5.569720 -0.500000
v -0.102155 5.569720 -0.562500
v -0.054688 5.542839 -0.500000
v -0.054688 5.542839 -0.562500
v -0.082355 5.535425 -0.500000
v -0.082355 5.535425 -0.562500
v -0.054688 5.488411 -0.500000
v -0.054688 5.488411 -0.562500
v -0.082355 5.495825 -0.500000
v -0.082355 5.495825 -0.562500
v -0.081901 5.441276 -0.500000
v -0.081901 5.441276 -0.562500
v -0.102155 5.461530 -0.500000
v -0.102155 5.461530 -0.562500
v -0.129036 5.414062 -0.500000
v -0.129036 5.414062 -0.562500
v -0.136450 5.441730 -0.500000
v -0.136450 5.441730 -0.562500
v -0.183464 5.414062 -0.500000
v -0.183464 5.414062 -0.562500
v -0.176050 5.441730 -0.500000
v -0.176050 5.441730 -0.562500
v -0.230599 5.441276 -0.500000
v -0.230599 5.441276 -0.562500
v -0.210345 5.461530 -0.500000
v -0.210345 5.461530 -0.562500
v -0.257812 5.488411 -0.500000
v -0.257812 5.488411 -0.562500
v -0.230145 5.495825 -0.500000
v -0.230145 5.495825 -0.562500
v -0.257812 5.542839 -0.500000
v -0.257812 5.542839 -0.562500
v -0.230145 5.535425 -0.500000
v -0.230145 5.535425 -0.562500
v -0.230599 5.589974 -0.500000
v -0.230599 5.589974 -0.562500
v -0.210345 5.569720 -0.500000
v -0.210345 5.569720 -0.562500
v -0.183464 5.617188 -0.500000
v -0.183464 5.617188 -0.562500
v -0.176050 5.589520 -0.500000
v -0.176050 5.589520 -0.562500
v -0.093750 5.653125 -0.500000
v -0.093750 5.653125 -0.937500
v -0.093750 5.621875 -0.500000
v -0.093750 5.621875 -0.937500
v -0.218750 5.653125 -0.500000
v -0.218750 5.653125 -0.937500
v -0.218750 5.621875 -0.500000
v -0.218750 5.621875 -0.937500
v -0.285041 5.543750 -0.500000
v -0.285041 5.543750 -0.562500
v -0.285041 5.480139 -0.500000
v -0.285041 5.480139 -0.562500
v -0.316291 5.543750 -0.500000
v -0.316291 5.543750 -0.562500
v -0.316291 5.480139 -0.500000
v -0.316291 5.480139 -0.562500
v 0.003125 5.543750 -0.500000
v 0.003125 5.543750 -0.562500
v 0.003125 5.480139 -0.500000
v 0.003125 5.480139 -0.562500
v -0.028125 5.543750 -0.500000
v -0.028125 5.543750 -0.562500
v -0.028125 5.480139 -0.500000
v -0.028125 5.480139 -0.562500
v 0.265625 5.234375 -0.500000
v 0.265625 5.234375 -0.687500
v 0.265625 5.203125 -0.500000
v 0.265625 5.203125 -0.687500
v 0.171875 5.234375 -0.500000
v 0.171875 5.234375 -0.687500
v 0.171875 5.203125 -0.500000
v 0.171875 5.203125 -0.687500
v 0.218750 5.140625 -0.525000
v 0.233404 5.085938 -0.525000
v 0.258784 5.100591 -0.525000
v 0.273438 5.125971 -0.525000
v 0.273438 5.155279 -0.525000
v 0.258784 5.180659 -0.525000
v 0.233404 5.195312 -0.525000
v 0.204096 5.195312 -0.525000
v 0.178716 5.180659 -0.525000
v 0.164062 5.155279 -0.525000
v 0.164062 5.125971 -0.525000
v 0.178716 5.100591 -0.525000
v 0.204096 5.085938 -0.525000
v 0.235497 5.078125 -0.546875
v 0.235497 5.078125 -0.484375
v 0.227714 5.107170 -0.546875
v 0.227714 5.107170 -0.484375
v 0.264503 5.094872 -0.546875
v 0.264503 5.094872 -0.484375
v 0.243241 5.116134 -0.546875
v 0.243241 5.116134 -0.484375
v 0.281250 5.123878 -0.546875
v 0.281250 5.123878 -0.484375
v 0.252205 5.131660 -0.546875
v 0.252205 5.131660 -0.484375
v 0.281250 5.157372 -0.546875
v 0.281250 5.157372 -0.484375
v 0.252205 5.149590 -0.546875
v 0.252205 5.149590 -0.484375
v 0.264503 5.186378 -0.546875
v 0.264503 5.186378 -0.484375
v 0.243241 5.165116 -0.546875
v 0.243241 5.165116 -0.484375
v 0.235497 5.203125 -0.546875
v 0.235497 5.203125 -0.484375
v 0.227714 5.174080 -0.546875
v 0.227714 5.174080 -0.484375
v 0.202003 5.203125 -0.546875
v 0.202003 5.203125 -0.484375
v 0.209786 5.174080 -0.546875
v 0.209786 5.174080 -0.484375
v 0.172997 5.186378 -0.546875
v 0.172997 5.186378 -0.484375
v 0.194259 5.165116 -0.546875
v 0.194259 5.165116 -0.484375
v 0.156250 5.157372 -0.546875
v 0.156250 5.157372 -0.484375
v 0.185295 5.149590 -0.546875
v 0.185295 5.149590 -0.484375
v 0.156250 5.123878 -0.546875
v 0.156250 5.123878 -0.484375
v 0.185295 5.131660 -0.546875
v 0.185295 5.131660 -0.484375
v 0.172997 5.094872 -0.546875
v 0.172997 5.094872 -0.484375
v 0.194259 5.116134 -0.546875
v 0.194259 5.116134 -0.484375
v 0.202003 5.078125 -0.546875
v 0.202003 5.078125 -0.484375
v 0.209786 5.107170 -0.546875
v 0.209786 5.107170 -0.484375
v 0.156629 5.171686 -0.490625
v 0.156629 5.171686 -0.568750
v 0.156629 5.109186 -0.490625
v 0.156629 5.109186 -0.568750
v 0.125379 5.171686 -0.490625
v 0.125379 5.171686 -0.568750
v 0.125379 5.109186 -0.490625
v 0.125379 5.109186 -0.568750
v 0.312879 5.171686 -0.490625
v 0.312879 5.171686 -0.568750
v 0.312879 5.109186 -0.490625
v 0.312879 5.109186 -0.568750
v 0.281629 5.171686 -0.490625
v 0.281629 5.171686 -0.568750
v 0.281629 5.109186 -0.490625
v 0.281629 5.109186 -0.568750
v 0.125000 5.171875 -0.500000
v 0.125000 5.171875 -0.568750
v 0.156250 5.171875 -0.500000
v 0.156250 5.171875 -0.568750
v 0.312500 5.171875 -0.500000
v 0.312500 5.171875 -0.571875
v 0.281250 5.171875 -0.500000
v 0.281250 5.171875 -0.571875
vn 1.0000 -0.0000 -0.0000
vn -1.0000 -0.0000 -0.0000
vn -0.0000 1.0000 -0.0000
vn -0.0000 -1.0000 -0.0000
vn -0.0000 -0.0000 1.0000
vn -0.0000 -0.0000 -1.0000
vn 0.7071 -0.7071 -0.0000
vn -0.7071 0.7071 -0.0000
vn 0.7071 0.7071 -0.0000
vn -0.7071 -0.7071 -0.0000
vn -0.0000 -0.4472 -0.8944
vn -0.0000 -0.4472 0.8944
vn -0.1075 0.9942 -0.0000
vn 0.1075 -0.9942 -0.0000
vn -0.3162 0.9487 -0.0000
vn 0.3162 -0.9487 -0.0000
vn -0.8944 -0.4472 -0.0000
vn 0.8944 0.4472 -0.0000
vn -0.8944 0.4472 -0.0000
vn 0.8944 -0.4472 -0.0000
vn -0.0000 0.9848 -0.1736
vn -0.0000 -0.9848 0.1736
vn -0.0000 0.1736 0.9848
vn -0.0000 -0.1736 -0.9848
vn 0.7184 -0.6549 0.2346
vn -0.7184 0.6549 -0.2346
vn -0.0000 0.9414 -0.3372
vn -0.0000 -0.9414 0.3372
vn -0.0000 0.1655 0.9862
vn -0.0000 -0.1655 -0.9862
vn 0.7184 0.6549 -0.2346
vn -0.7184 -0.6549 0.2346
vn -0.0000 -0.7071 0.7071
vn -0.0000 0.7071 0.7071
vn 0.9267 -0.0000 -0.3757
vn -0.9267 -0.0000 0.3757
vn -0.0000 0.9910 -0.1339
vn -0.0000 -0.9910 0.1339
vn 0.9267 -0.0000 0.3757
vn -0.9267 -0.0000 -0.3757
vn 0.5000 0.8660 -0.0000
vn -0.5000 -0.8660 -0.0000
vn 0.8660 0.5000 -0.0000
vn -0.8660 -0.5000 -0.0000
vn 0.8660 -0.5000 -0.0000
vn -0.8660 0.5000 -0.0000
vn 0.5000 -0.8660 -0.0000
vn -0.5000 0.8660 -0.0000
vn 0.7486 0.6630 -0.0000
vn -0.7657 -0.6432 -0.0000
vn -0.0001 -0.9600 -0.2800
vn 0.7625 -0.6470 -0.0000
vn -0.7463 0.6656 -0.0000
vn 0.0001 -0.9790 -0.2039
vn 0.0001 -0.9790 -0.2040
vn -0.0001 -0.9600 -0.2799
vn -0.8000 0.6000 -0.0000
vn -0.9302 0.0001 -0.3671
vn -0.9301 0.0001 -0.3672
vn 0.8000 0.6000 -0.0000
vn 0.9267 0.0001 -0.3757
vt 0.015625 0.750000
vt 0.015625 1.000000
vt 0.078125 1.000000
vt 0.078125 0.750000
vt 0.000000 0.921875
vt 0.000000 0.984375
vt 0.062500 0.984375
vt 0.062500 0.921875
vt 0.000000 0.750000
vt 0.000000 1.000000
vt 0.062500 1.000000
vt 0.062500 0.750000
vt 0.015625 0.859375
vt 0.078125 0.859375
vt 0.000000 0.859375
vt 0.062500 0.859375
vt 0.015625 0.796875
vt 0.078125 0.796875
vt 0.000000 0.796875
vt 0.062500 0.796875
vt 0.000000 0.968750
vt 0.015625 0.984375
vt 0.015625 0.968750
vt 0.031250 0.984375
vt 0.031250 0.968750
vt 0.062500 0.968750
vt 0.046875 0.984375
vt 0.046875 0.968750
vt 0.046875 1.000000
vt 0.046875 0.953125
vt 0.062500 0.953125
vt 0.031250 0.750000
vt 0.031250 1.000000
vt 0.046875 0.750000
vt 0.171875 0.937500
vt 0.171875 0.953125
vt 0.109375 0.953125
vt 0.109375 0.937500
vt 0.028125 0.937500
vt 0.028125 1.000000
vt 0.000000 0.937500
vt 0.028125 0.984375
vt 0.156250 0.906250
vt 0.156250 0.921875
vt 0.093750 0.921875
vt 0.093750 0.906250
vt 0.046875 0.937500
vt 0.140625 0.906250
vt 0.140625 0.921875
vt 0.156250 0.875000
vt 0.093750 0.875000
vt 0.734375 0.718750
vt 0.734375 0.734375
vt 0.750000 0.734375
vt 0.750000 0.718750
vt 0.500000 0.718750
vt 0.500000 0.734375
vt 0.609375 0.734375
vt 0.609375 0.718750
vt 0.000000 0.578125
vt 0.000000 0.687500
vt 0.187500 0.687500
vt 0.187500 0.578125
vt 0.000000 0.500000
vt 0.187500 0.500000
vt 0.140625 1.000000
vt 0.140625 0.984375
vt 0.156250 0.984375
vt 0.156250 0.859375
vt 0.156250 1.000000
vt 0.007812 0.968750
vt 0.007812 1.000000
vt 0.028125 0.968750
vt 0.020312 1.000000
vt 0.020312 0.968750
vt 0.000000 0.971875
vt 0.000000 0.992188
vt 0.078125 0.992188
vt 0.078125 0.971875
vt 0.000000 0.979688
vt 0.078125 0.979688
vt 0.078125 0.968750
vt 0.437500 0.843750
vt 0.437500 1.000000
vt 0.515625 1.000000
vt 0.515625 0.843750
vt 0.265625 0.750000
vt 0.265625 0.828125
vt 0.390625 0.828125
vt 0.390625 0.750000
vt 0.265625 0.843750
vt 0.265625 1.000000
vt 0.390625 1.000000
vt 0.390625 0.843750
vt 0.078125 0.953125
vt 0.090625 1.000000
vt 0.090625 0.953125
vt 0.000000 0.953125
vt 0.012500 1.000000
vt 0.012500 0.953125
vt 0.000000 0.909375
vt 0.078125 0.921875
vt 0.078125 0.909375
vt 0.000000 0.987500
vt 0.078125 0.987500
vt 0.125000 1.000000
vt 0.125000 0.984375
vt 0.000000 0.875000
vt 0.250000 1.000000
vt 0.250000 0.875000
vt 0.250000 0.984375
vt 0.109375 1.000000
vt 0.109375 0.968750
vt 0.000000 0.000000
vt 0.000000 0.093750
vt 0.210938 0.093750
vt 0.210938 0.000000
vt 0.015625 0.906250
vt 0.226562 1.000000
vt 0.226562 0.906250
vt 0.218750 1.000000
vt 0.218750 0.968750
vt 0.210938 1.000000
vt 0.210938 0.968750
vt 0.015625 0.937500
vt 0.015625 0.953125
vt 0.007812 0.937500
vt 0.007812 0.953125
vt 0.101562 0.953125
vt 0.101562 0.937500
vt 0.125000 0.968750
vt 0.140625 0.968750
vt 0.031250 0.937500
vt 0.304688 0.423438
vt 0.304688 0.453125
vt 0.320312 0.453125
vt 0.320312 0.423438
vt 0.316406 0.429688
vt 0.316406 0.445312
vt 0.328125 0.445312
vt 0.328125 0.429688
vt 0.316406 0.423438
vt 0.316406 0.453125
vt 0.328125 0.453125
vt 0.328125 0.423438
vt 0.296875 0.423438
vt 0.296875 0.453125
vt 0.308594 0.453125
vt 0.308594 0.423438
vt 0.304688 0.437500
vt 0.304688 0.449219
vt 0.320312 0.449219
vt 0.320312 0.437500
vt 0.296875 0.429688
vt 0.296875 0.445312
vt 0.347656 0.445312
vt 0.347656 0.429688
vt 0.296875 0.437500
vt 0.296875 0.449219
vt 0.347656 0.449219
vt 0.347656 0.437500
vt 0.355469 0.449219
vt 0.355469 0.437500
vt 0.324219 0.445312
vt 0.355469 0.445312
vt 0.355469 0.429688
vt 0.324219 0.429688
vt 0.324219 0.449219
vt 0.324219 0.437500
vt 0.328125 0.449219
vt 0.328125 0.437500
vt 1.000000 0.937500
vt 1.000000 0.875000
vt 0.062500 0.000000
vt 0.937500 1.000000
vt 0.937500 0.000000
vt 0.062500 0.875000
vt 0.062500 0.937500
vt 0.937500 0.937500
vt 0.937500 0.875000
vt 0.000000 0.906250
vt 0.500000 0.937500
vt 0.500000 0.906250
vt 1.000000 0.906250
vt 0.968750 0.500000
vt 0.968750 1.000000
vt 1.000000 1.000000
vt 1.000000 0.500000
vt 0.968750 0.000000
vt 1.000000 0.000000
vt 0.968750 0.906250
vt 0.968750 0.937500
vt 0.031250 0.906250
vt 0.125000 0.000000
vt 0.125000 0.062500
vt 1.000000 0.062500
vt 0.125000 0.937500
vt 0.875000 0.937500
vt 0.875000 0.875000
vt 0.937500 0.906250
vt 0.062500 0.906250
vt 0.187500 0.031250
vt 0.187500 0.062500
vt 1.000000 0.031250
vt 0.187500 0.937500
vt 0.187500 0.968750
vt 1.000000 0.968750
vt 0.187500 0.906250
vt 0.812500 0.937500
vt 0.812500 0.906250
vt 0.625000 0.000000
vt 0.625000 0.031250
vt 0.625000 0.968750
vt 0.625000 1.000000
vt 0.625000 0.906250
vt 0.625000 0.937500
vt 0.375000 0.937500
vt 0.375000 0.906250
vt 0.031250 0.000000
vt 0.250000 0.031250
vt 0.250000 0.062500
vt 0.281250 0.062500
vt 0.281250 0.031250
vt 0.250000 0.937500
vt 0.250000 0.968750
vt 0.281250 0.968750
vt 0.281250 0.937500
vt 0.250000 0.000000
vt 0.281250 0.000000
vt 0.718750 0.000000
vt 0.718750 0.937500
vt 0.750000 0.937500
vt 0.750000 0.000000
vt 0.312500 0.062500
vt 0.312500 0.031250
vt 0.312500 0.968750
vt 0.312500 0.937500
vt 0.312500 0.000000
vt 0.687500 0.000000
vt 0.687500 0.937500
vt 0.281250 1.000000
vt 0.312500 1.000000
vt 0.250000 0.906250
vt 0.281250 0.906250
vt 0.718750 0.906250
vt 0.750000 0.906250
vt 0.500000 0.875000
vt 0.031250 0.500000
vt 0.218750 0.500000
vt 0.218750 0.000000
vt 0.031250 0.875000
vt 0.218750 0.937500
vt 0.218750 0.875000
vt 0.406250 0.875000
vt 0.406250 0.937500
vt 0.593750 0.937500
vt 0.593750 0.875000
vt 0.500000 0.812500
vt 1.000000 0.812500
vt 0.000000 0.812500
vt 0.156250 0.000000
vt 0.156250 0.500000
vt 0.156250 0.812500
vt 0.156250 0.937500
vt 0.218750 0.812500
vt 0.406250 0.812500
vt 0.468750 0.937500
vt 0.468750 0.812500
vt 0.515625 0.515625
vt 0.515625 0.718750
vt 0.500000 0.515625
vt 0.515625 0.734375
vt 0.937500 0.812500
vt 0.937500 0.062500
vt 0.062500 0.812500
vt 0.703125 0.718750
vt 0.703125 0.734375
vt 0.546875 0.734375
vt 0.546875 0.718750
vt 0.125000 0.171875
vt 0.125000 0.990625
vt 0.031250 0.990625
vt 0.031250 0.171875
vt 0.093750 0.171875
vt 0.093750 0.990625
vt 0.000000 0.990625
vt 0.000000 0.171875
vt 0.125000 0.906250
vt 0.125000 0.875000
vt 0.062500 0.990625
vt 0.062500 0.171875
vt 0.125000 0.181250
vt 0.031250 0.181250
vt 0.093750 0.181250
vt 0.093750 1.000000
vt 0.000000 0.181250
vt 0.062500 0.181250
vt 1.000000 0.625000
vt 1.000000 0.687500
vt 0.468750 0.687500
vt 0.468750 0.625000
vt 0.843750 0.562500
vt 0.843750 0.625000
vt 0.312500 0.625000
vt 0.312500 0.562500
vt 0.656250 0.218750
vt 0.656250 0.750000
vt 0.156250 0.750000
vt 0.156250 0.218750
vt 0.500000 0.375000
vt 0.000000 0.375000
vt 0.718750 0.750000
vt 0.718750 0.812500
vt 0.218750 0.750000
vt 0.843750 0.500000
vt 0.343750 0.562500
vt 0.343750 0.500000
vt 0.937500 0.968750
vt 0.843750 0.968750
vt 0.843750 0.937500
vt 0.156250 0.968750
vt 0.125000 0.843750
vt 0.062500 0.843750
vt 0.125000 0.156250
vt 0.062500 0.156250
vt 0.062500 0.062500
vt 0.562500 0.937500
vt 0.562500 0.968750
vt 0.437500 0.968750
vt 0.437500 0.937500
vt 0.125000 0.562500
vt 0.093750 0.562500
vt 0.093750 0.000000
vt 0.125000 0.437500
vt 0.093750 0.437500
vt 0.093750 0.968750
vt 0.093750 0.937500
vt 0.750000 1.000000
vt 0.750000 0.875000
vt 0.750000 0.968750
vt 0.500000 1.000000
vt 0.500000 0.968750
vt 0.312500 0.843750
vt 0.603553 0.906250
vt 0.603553 1.000000
vt 0.603553 0.875000
vt 0.603553 0.968750
vt 0.603553 0.937500
vt 0.137500 0.875000
vt 0.137500 1.000000
vt 0.150000 0.875000
vt 0.150000 1.000000
vt 0.012500 0.875000
vt 0.187500 1.000000
vt 0.125000 0.812500
vt 0.125000 0.343750
vt 0.093750 0.343750
vt 0.031250 0.343750
vt 0.000000 0.343750
vt 0.062500 0.343750
vt 0.468750 1.000000
vt 0.125000 0.531250
vt 0.062500 0.531250
vt 0.125000 0.500000
vt 0.062500 0.500000
vt 0.468750 0.468750
vt 0.468750 0.718750
vt 0.453125 0.718750
vt 0.453125 0.468750
vt 0.296875 0.468750
vt 0.296875 0.718750
vt 0.281250 0.718750
vt 0.281250 0.468750
vt 0.468750 0.703125
vt 0.281250 0.703125
vt 0.468750 0.484375
vt 0.281250 0.484375
vt 0.437500 0.718750
vt 0.437500 0.468750
vt 0.312500 0.468750
vt 0.312500 0.718750
vt 0.281250 0.687500
vt 0.468750 0.500000
vt 0.281250 0.500000
vt 0.031250 0.109375
vt 0.031250 0.125000
vt 0.000000 0.125000
vt 0.000000 0.109375
vt 0.324762 0.675237
vt 0.375000 0.762263
vt 0.187500 0.812500
vt 0.375000 0.862737
vt 0.324762 0.949763
vt 0.237738 1.000000
vt 0.137262 1.000000
vt 0.050237 0.949763
vt 0.000000 0.862737
vt 0.000000 0.762263
vt 0.050237 0.675237
vt 0.137262 0.625000
vt 0.237738 0.625000
vt 0.296875 0.343750
vt 0.310481 0.343750
vt 0.310481 0.359375
vt 0.296875 0.359375
vt 0.306775 0.359375
vt 0.306775 0.343750
vt 0.296875 0.357521
vt 0.296875 0.347621
vt 0.303793 0.345768
vt 0.303792 0.359375
vt 0.296875 0.352457
vt 0.310482 0.352457
vt 0.308628 0.359375
vt 0.298728 0.359375
vt 0.296875 0.357522
vt 0.296875 0.347622
vt 0.303792 0.345768
vt 0.303793 0.359375
vt 0.308629 0.359375
vt 0.298729 0.359375
vt 0.296875 0.357522
vt 0.296875 0.347622
vt 0.303792 0.345769
vt 0.303792 0.359375
vt 0.298728 0.359375
vt 0.296875 0.352457
vt 0.310482 0.352458
vt 0.303793 0.345768
vt 0.303793 0.359375
vt 0.296875 0.357521
vt 0.296875 0.347621
vt 0.308629 0.359375
vt 0.298729 0.359375
vt 0.296875 0.352458
vt 0.310482 0.352457
vt 0.296875 0.357522
vt 0.308628 0.359375
vt 0.298728 0.359375
vt 0.296875 0.352458
vt 0.310481 0.352458
vt 0.298728 0.352458
vt 0.308628 0.352458
vt 0.303793 0.347622
vt 0.303793 0.357522
vt 0.296876 0.345768
vt 0.310482 0.359375
vt 0.298729 0.352457
vt 0.308629 0.352458
vt 0.303793 0.347621
vt 0.303793 0.357521
vt 0.296876 0.359375
vt 0.296875 0.345768
vt 0.298728 0.352458
vt 0.308628 0.352457
vt 0.303792 0.347622
vt 0.303792 0.357522
vt 0.296875 0.345769
vt 0.298729 0.352457
vt 0.308629 0.352457
vt 0.296875 0.359374
vt 0.303793 0.347622
vt 0.303792 0.357522
vt 0.298728 0.352457
vt 0.308628 0.352457
vt 0.310482 0.359374
vt 0.303792 0.347621
vt 0.303793 0.357521
vt 0.343750 0.351562
vt 0.343750 0.359375
vt 0.312500 0.359375
vt 0.312500 0.351562
vt 0.312500 0.375000
vt 0.281250 0.375000
vt 0.359375 0.367188
vt 0.359375 0.375000
vt 0.328125 0.375000
vt 0.328125 0.367188
vt 0.296875 0.375000
vt 0.296875 0.367188
vt 0.406250 0.452847
vt 0.406250 0.468750
vt 0.390625 0.468750
vt 0.390625 0.452847
vt 0.437500 0.452847
vt 0.421875 0.468750
vt 0.421875 0.452847
vt 0.367802 0.406250
vt 0.367802 0.421875
vt 0.359990 0.421875
vt 0.359990 0.406250
vt 0.367802 0.359375
vt 0.367802 0.375000
vt 0.359990 0.375000
vt 0.359990 0.359375
vt 0.399052 0.390347
vt 0.399052 0.406250
vt 0.391240 0.406250
vt 0.391240 0.390347
vt 0.359375 0.390347
vt 0.359375 0.406250
vt 0.351562 0.406250
vt 0.351562 0.390347
vt 0.375000 0.343472
vt 0.375000 0.359375
vt 0.359375 0.359375
vt 0.359375 0.343472
vt 0.367802 0.453125
vt 0.367802 0.468750
vt 0.359990 0.468750
vt 0.359990 0.453125
vt 0.399052 0.421875
vt 0.399052 0.437500
vt 0.391240 0.437500
vt 0.391240 0.421875
vt 0.414677 0.452847
vt 0.414677 0.468750
vt 0.406865 0.468750
vt 0.406865 0.452847
vt 0.343750 0.343472
vt 0.335938 0.359375
vt 0.335938 0.343472
vt 0.375000 0.421875
vt 0.421875 0.421875
vt 0.375000 0.468750
vt 0.343750 0.343750
vt 0.343750 0.390625
vt 0.296875 0.390625
vt 0.375000 0.375000
vt 0.328125 0.359375
vt 0.390625 0.453125
vt 0.343750 0.453125
vt 0.343750 0.437500
vt 0.390625 0.437500
vt 0.312500 0.406250
vt 0.359375 0.453125
vt 0.312500 0.453125
vt 0.390625 0.390625
vt 0.375000 0.328125
vt 0.375000 0.343750
vt 0.328125 0.343750
vt 0.328125 0.328125
vt 0.312500 0.437500
vt 0.359375 0.437500
vt 0.265625 0.453125
vt 0.265625 0.437500
vt 0.296875 0.406250
vt 0.265625 0.406250
vt 0.210781 0.797031
vt 0.242188 0.851406
vt 0.125000 0.882812
vt 0.242188 0.914219
vt 0.210781 0.968594
vt 0.156406 1.000000
vt 0.093594 1.000000
vt 0.039219 0.968594
vt 0.007812 0.914219
vt 0.007812 0.851406
vt 0.039219 0.797031
vt 0.093594 0.765625
vt 0.156406 0.765625
vt 0.281250 0.343750
vt 0.289622 0.343750
vt 0.289622 0.359375
vt 0.281250 0.359375
vt 0.285731 0.359375
vt 0.285731 0.343750
vt 0.281250 0.357427
vt 0.281250 0.352945
vt 0.288514 0.351001
vt 0.288510 0.359375
vt 0.281250 0.352112
vt 0.289624 0.352112
vt 0.287677 0.359375
vt 0.283195 0.359373
vt 0.281250 0.357431
vt 0.281250 0.352948
vt 0.288510 0.351001
vt 0.288514 0.359375
vt 0.287680 0.359373
vt 0.283197 0.359375
vt 0.281250 0.357430
vt 0.281250 0.352948
vt 0.288511 0.351003
vt 0.288511 0.359375
vt 0.287677 0.359375
vt 0.283194 0.359375
vt 0.281250 0.352111
vt 0.289624 0.352115
vt 0.288513 0.351001
vt 0.288513 0.359375
vt 0.281250 0.357428
vt 0.281252 0.352945
vt 0.287680 0.359375
vt 0.283198 0.359375
vt 0.281250 0.352115
vt 0.289624 0.352111
vt 0.281252 0.357430
vt 0.281250 0.352948
vt 0.287677 0.359375
vt 0.283195 0.359375
vt 0.281250 0.352114
vt 0.289622 0.352114
vt 0.283195 0.352114
vt 0.287677 0.352114
vt 0.288514 0.352948
vt 0.288514 0.357431
vt 0.281254 0.351001
vt 0.289624 0.359375
vt 0.283197 0.352112
vt 0.287680 0.352114
vt 0.288514 0.352945
vt 0.288514 0.357427
vt 0.281254 0.359375
vt 0.281250 0.351001
vt 0.283195 0.352114
vt 0.287677 0.352112
vt 0.288511 0.352948
vt 0.288511 0.357430
vt 0.281250 0.351003
vt 0.283198 0.352111
vt 0.287680 0.352111
vt 0.281250 0.359371
vt 0.288513 0.352948
vt 0.288511 0.357430
vt 0.283194 0.352111
vt 0.287677 0.352111
vt 0.289624 0.359371
vt 0.288511 0.352945
vt 0.288513 0.357428
vt 0.324219 0.421875
vt 0.312500 0.421875
vt 0.343750 0.421875
vt 0.332031 0.437500
vt 0.332031 0.421875
vt 0.328125 0.406250
vt 0.328125 0.417969
vt 0.320312 0.417969
vt 0.320312 0.406250
vt 0.328125 0.347656
vt 0.320312 0.359375
vt 0.320312 0.347656
vt 0.312500 0.390625
vt 0.304688 0.390625
vt 0.304688 0.375000
vt 0.335938 0.515625
vt 0.335938 0.531250
vt 0.328125 0.531250
vt 0.328125 0.515625
vt 0.292969 0.406250
vt 0.292969 0.421875
vt 0.281250 0.421875
vt 0.281250 0.406250
vt 0.300781 0.421875
vt 0.300781 0.406250
vt 0.296875 0.402344
vt 0.289062 0.402344
vt 0.289062 0.390625
vt 0.296875 0.410156
vt 0.296875 0.421875
vt 0.289062 0.421875
vt 0.289062 0.410156
vt 0.328125 0.421875
vt 0.320312 0.421875
vt 0.390625 0.359375
vt 0.390625 0.421875
vt 0.390625 0.343750
vt 0.390625 0.406250
vt 0.359375 0.343750
vt 0.375000 0.406250
vt 0.312500 0.343750
vt 0.375000 0.390625
vt 0.312500 0.328125
s 1
usemtl m_3d215661-f591-00a8-53e2-d8d611c756be.007
f 5/1/1 3/2/1 2/3/1 4/4/1
f 8/1/2 6/2/2 7/3/2 9/4/2
f 2/5/3 3/6/3 7/7/3 6/8/3
f 5/5/4 4/6/4 8/7/4 9/8/4
f 4/9/5 2/10/5 6/11/5 8/12/5
f 9/1/6 7/2/6 3/3/6 5/4/6
f 3/13/1 11/2/1 10/3/1 2/14/1
f 6/13/2 12/2/2 13/3/2 7/14/2
f 10/5/3 11/6/3 13/7/3 12/8/3
f 2/15/5 10/10/5 12/11/5 6/16/5
f 7/13/6 13/2/6 11/3/6 3/14/6
f 15/1/1 5/2/1 4/3/1 14/4/1
f 16/1/2 8/2/2 9/3/2 17/4/2
f 15/5/4 14/6/4 16/7/4 17/8/4
f 14/9/5 4/10/5 8/11/5 16/12/5
f 17/1/6 9/2/6 5/3/6 15/4/6
f 19/17/1 15/2/1 14/3/1 18/18/1
f 20/17/2 16/2/2 17/3/2 21/18/2
f 19/5/4 18/6/4 20/7/4 21/8/4
f 18/19/5 14/10/5 16/11/5 20/20/5
f 21/17/6 17/2/6 15/3/6 19/18/6
f 25/21/1 23/6/1 22/22/1 24/23/1
f 28/23/2 26/22/2 27/24/2 29/25/2
f 22/22/3 23/2/3 27/11/3 26/7/3
f 25/23/4 24/22/4 28/7/4 29/26/4
f 24/23/5 22/22/5 26/7/5 28/26/5
f 29/21/6 27/6/6 23/27/6 25/28/6
f 33/21/1 31/6/1 30/24/1 32/25/1
f 35/23/2 34/22/2 26/27/2 28/28/2
f 30/28/3 31/29/3 26/11/3 34/26/3
f 33/30/4 32/27/4 35/7/4 28/31/4
f 32/28/5 30/27/5 34/7/5 35/26/5
f 28/21/6 26/6/6 31/22/6 33/23/6
f 39/21/1 37/6/1 36/22/1 38/23/1
f 41/23/2 40/22/2 34/24/2 35/25/2
f 36/22/3 37/2/3 34/11/3 40/7/3
f 39/23/4 38/22/4 41/7/4 35/26/4
f 38/23/5 36/22/5 40/7/5 41/26/5
f 35/21/6 34/6/6 37/27/6 39/28/6
f 45/21/1 43/6/1 42/22/1 44/23/1
f 48/23/2 46/22/2 47/24/2 49/25/2
f 42/22/3 43/2/3 47/11/3 46/7/3
f 45/23/4 44/22/4 48/7/4 49/26/4
f 44/23/5 42/22/5 46/7/5 48/26/5
f 49/21/6 47/6/6 43/27/6 45/28/6
f 53/21/1 51/6/1 50/24/1 52/25/1
f 55/23/2 54/22/2 46/27/2 48/28/2
f 50/28/3 51/29/3 46/11/3 54/26/3
f 53/30/4 52/27/4 55/7/4 48/31/4
f 52/28/5 50/27/5 54/7/5 55/26/5
f 48/21/6 46/6/6 51/22/6 53/23/6
f 59/21/1 57/6/1 56/22/1 58/23/1
f 61/23/2 60/22/2 54/24/2 55/25/2
f 56/22/3 57/2/3 54/11/3 60/7/3
f 59/23/4 58/22/4 61/7/4 55/26/4
f 58/23/5 56/22/5 60/7/5 61/26/5
f 55/21/6 54/6/6 57/27/6 59/28/6
f 65/21/1 63/6/1 62/24/1 64/25/1
f 68/23/2 66/22/2 67/27/2 69/28/2
f 62/28/3 63/29/3 67/11/3 66/26/3
f 65/30/4 64/27/4 68/7/4 69/31/4
f 64/28/5 62/27/5 66/7/5 68/26/5
f 69/21/6 67/6/6 63/22/6 65/23/6
f 73/21/1 71/6/1 70/22/1 72/23/1
f 75/23/2 74/22/2 66/24/2 68/25/2
f 70/22/3 71/2/3 66/11/3 74/7/3
f 73/23/4 72/22/4 75/7/4 68/26/4
f 72/23/5 70/22/5 74/7/5 75/26/5
f 68/21/6 66/6/6 71/27/6 73/28/6
f 79/21/1 77/6/1 76/22/1 78/23/1
f 69/23/2 67/22/2 80/24/2 81/25/2
f 76/22/3 77/2/3 80/11/3 67/7/3
f 79/23/4 78/22/4 69/7/4 81/26/4
f 78/23/5 76/22/5 67/7/5 69/26/5
f 81/21/6 80/6/6 77/27/6 79/28/6
f 85/32/1 83/33/1 82/10/1 84/9/1
f 88/32/2 86/33/2 87/10/2 89/9/2
f 82/28/3 83/29/3 87/10/3 86/21/3
f 85/28/4 84/29/4 88/10/4 89/21/4
f 84/34/5 82/29/5 86/10/5 88/9/5
f 89/34/6 87/29/6 83/10/6 85/9/6
f 93/32/1 91/33/1 90/10/1 92/9/1
f 96/32/2 94/33/2 95/10/2 97/9/2
f 90/28/3 91/29/3 95/10/3 94/21/3
f 93/28/4 92/29/4 96/10/4 97/21/4
f 92/34/5 90/29/5 94/10/5 96/9/5
f 97/34/6 95/29/6 91/10/6 93/9/6
f 99/35/1 82/36/1 91/37/1 98/38/1
f 100/35/2 95/36/2 86/37/2 101/38/2
f 91/39/3 82/40/3 86/10/3 95/41/3
f 99/39/4 98/40/4 100/10/4 101/41/4
f 98/42/5 91/40/5 95/10/5 100/6/5
f 101/42/6 86/40/6 82/10/6 99/6/6
f 105/43/1 103/44/1 102/45/1 104/46/1
f 108/43/2 106/44/2 107/45/2 109/46/2
f 102/47/3 103/29/3 107/10/3 106/41/3
f 105/47/4 104/29/4 108/10/4 109/41/4
f 104/48/5 102/49/5 106/45/5 108/46/5
f 109/48/6 107/49/6 103/45/6 105/46/6
f 113/50/1 111/44/1 110/45/1 112/51/1
f 116/50/2 114/44/2 115/45/2 117/51/2
f 110/47/3 111/29/3 115/10/3 114/41/3
f 113/47/4 112/29/4 116/10/4 117/41/4
f 112/48/5 110/49/5 114/45/5 116/46/5
f 117/48/6 115/49/6 111/45/6 113/46/6
f 121/52/1 119/53/1 118/54/1 120/55/1
f 124/52/2 122/53/2 123/54/2 125/55/2
f 118/56/3 119/57/3 123/58/3 122/59/3
f 121/56/4 120/57/4 124/58/4 125/59/4
f 120/56/5 118/57/5 122/58/5 124/59/5
f 125/56/6 123/57/6 119/58/6 121/59/6
f 129/52/1 127/53/1 126/54/1 128/55/1
f 132/52/2 130/53/2 131/54/2 133/55/2
f 126/56/3 127/57/3 131/58/3 130/59/3
f 129/56/4 128/57/4 132/58/4 133/59/4
f 128/56/5 126/57/5 130/58/5 132/59/5
f 133/56/6 131/57/6 127/58/6 129/59/6
f 137/52/1 135/53/1 134/54/1 136/55/1
f 140/52/2 138/53/2 139/54/2 141/55/2
f 134/56/3 135/57/3 139/58/3 138/59/3
f 137/56/4 136/57/4 140/58/4 141/59/4
f 136/56/5 134/57/5 138/58/5 140/59/5
f 141/56/6 139/57/6 135/58/6 137/59/6
f 145/52/1 143/53/1 142/54/1 144/55/1
f 148/52/2 146/53/2 147/54/2 149/55/2
f 142/56/3 143/57/3 147/58/3 146/59/3
f 145/56/4 144/57/4 148/58/4 149/59/4
f 144/56/5 142/57/5 146/58/5 148/59/5
f 149/56/6 147/57/6 143/58/6 145/59/6
f 153/60/1 151/61/1 150/62/1 152/63/1
f 156/60/2 154/61/2 155/62/2 157/63/2
f 150/64/3 151/61/3 155/62/3 154/65/3
f 153/64/4 152/61/4 156/62/4 157/65/4
f 152/60/5 150/61/5 154/62/5 156/63/5
f 157/60/6 155/61/6 151/62/6 153/63/6
f 161/22/1 159/2/1 158/66/1 160/67/1
f 164/22/2 162/2/2 163/66/2 165/67/2
f 158/15/3 159/6/3 163/68/3 162/69/3
f 161/15/4 160/6/4 164/68/4 165/69/4
f 160/6/5 158/10/5 162/70/5 164/68/5
f 165/6/6 163/10/6 159/70/6 161/68/6
f 169/71/7 167/72/7 166/40/7 168/73/7
f 172/21/8 170/10/8 171/74/8 173/75/8
f 166/76/9 167/77/9 171/78/9 170/79/9
f 169/80/10 168/10/10 172/3/10 173/81/10
f 168/21/5 166/10/5 170/3/5 172/82/5
f 173/21/6 171/10/6 167/3/6 169/82/6
f 177/71/9 175/72/9 174/40/9 176/73/9
f 180/21/10 178/10/10 179/74/10 181/75/10
f 174/76/8 175/77/8 179/78/8 178/79/8
f 177/80/7 176/10/7 180/3/7 181/81/7
f 176/21/5 174/10/5 178/3/5 180/82/5
f 181/21/6 179/10/6 175/3/6 177/82/6
f 185/21/9 183/10/9 182/74/9 184/75/9
f 188/71/10 186/72/10 187/40/10 189/73/10
f 182/80/8 183/10/8 187/3/8 186/81/8
f 185/76/7 184/77/7 188/78/7 189/79/7
f 184/21/5 182/10/5 186/3/5 188/82/5
f 189/21/6 187/10/6 183/3/6 185/82/6
f 193/21/7 191/10/7 190/74/7 192/75/7
f 196/71/8 194/72/8 195/40/8 197/73/8
f 190/80/9 191/10/9 195/3/9 194/81/9
f 193/76/10 192/77/10 196/78/10 197/79/10
f 192/21/5 190/10/5 194/3/5 196/82/5
f 197/21/6 195/10/6 191/3/6 193/82/6
f 201/83/1 199/84/1 198/85/1 200/86/1
f 203/83/2 202/84/2 41/85/2 204/86/2
f 198/87/3 199/88/3 41/89/3 202/90/3
f 201/87/4 200/88/4 203/89/4 204/90/4
f 200/91/5 198/92/5 202/93/5 203/94/5
f 204/91/6 41/92/6 199/93/6 201/94/6
f 208/95/7 206/3/7 205/96/7 207/97/7
f 211/98/8 209/10/8 210/99/8 212/100/8
f 205/101/9 206/5/9 210/102/9 209/103/9
f 208/104/10 207/10/10 211/3/10 212/105/10
f 207/98/5 205/10/5 209/3/5 211/95/5
f 212/98/6 210/10/6 206/3/6 208/95/6
f 216/95/7 214/3/7 213/96/7 215/97/7
f 219/98/8 217/10/8 218/99/8 220/100/8
f 213/101/9 214/5/9 218/102/9 217/103/9
f 216/104/10 215/10/10 219/3/10 220/105/10
f 215/98/5 213/10/5 217/3/5 219/95/5
f 220/98/6 218/10/6 214/3/6 216/95/6
f 224/6/1 222/10/1 221/106/1 223/107/1
f 227/6/2 225/10/2 226/106/2 228/107/2
f 221/108/3 222/10/3 226/109/3 225/110/3
f 224/108/4 223/10/4 227/109/4 228/110/4
f 223/6/5 221/10/5 225/109/5 227/111/5
f 228/6/6 226/10/6 222/109/6 224/111/6
f 232/23/1 230/2/1 229/112/1 231/113/1
f 235/23/2 233/2/2 234/112/2 236/113/2
f 229/114/3 230/115/3 234/116/3 233/117/3
f 232/118/4 231/2/4 235/119/4 236/120/4
f 231/71/5 229/72/5 233/121/5 235/122/5
f 236/21/6 234/10/6 230/123/6 232/124/6
f 239/23/2 237/2/2 238/112/2 240/113/2
f 233/114/3 234/115/3 238/116/3 237/117/3
f 236/118/4 235/2/4 239/119/4 240/120/4
f 235/71/5 233/72/5 237/121/5 239/122/5
f 240/21/6 238/10/6 234/123/6 236/124/6
f 230/125/1 242/126/1 241/37/1 229/38/1
f 245/125/2 243/126/2 244/37/2 246/38/2
f 241/114/3 242/115/3 244/116/3 243/117/3
f 230/114/4 229/115/4 245/116/4 246/117/4
f 229/127/5 241/128/5 243/37/5 245/38/5
f 246/41/6 244/98/6 242/129/6 230/130/6
f 234/112/2 247/106/2 236/131/2
f 249/106/1 248/66/1 250/131/1
f 249/107/3 247/67/3 234/132/3 248/131/3
f 248/106/5 234/66/5 236/132/5 250/131/5
f 247/112/11 249/106/11 250/131/11 236/113/11
f 251/112/2 252/106/2 253/131/2
f 255/106/1 254/66/1 256/131/1
f 255/107/3 252/67/3 251/132/3 254/131/3
f 254/106/5 251/66/5 253/132/5 256/131/5
f 252/112/11 255/106/11 256/131/11 253/113/11
f 257/112/2 258/106/2 259/131/2
f 261/106/1 260/66/1 262/131/1
f 261/107/3 258/67/3 257/132/3 260/131/3
f 260/106/5 257/66/5 259/132/5 262/131/5
f 258/112/11 261/106/11 262/131/11 259/113/11
f 263/112/2 264/106/2 265/131/2
f 267/106/1 266/66/1 268/131/1
f 267/107/3 264/67/3 263/132/3 266/131/3
f 266/106/5 263/66/5 265/132/5 268/131/5
f 264/112/11 267/106/11 268/131/11 265/113/11
f 269/112/2 270/106/2 271/131/2
f 224/106/1 246/66/1 272/131/1
f 224/107/3 270/67/3 269/132/3 246/131/3
f 246/106/5 269/66/5 271/132/5 272/131/5
f 270/112/11 224/106/11 272/131/11 271/113/11
f 274/106/2 273/112/2 275/131/2
f 276/66/1 277/106/1 278/131/1
f 273/132/3 274/67/3 277/107/3 276/131/3
f 275/132/6 273/66/6 276/106/6 278/131/6
f 278/131/12 277/106/12 274/112/12 275/113/12
f 280/106/2 279/112/2 281/131/2
f 282/66/1 283/106/1 284/131/1
f 279/132/3 280/67/3 283/107/3 282/131/3
f 281/132/6 279/66/6 282/106/6 284/131/6
f 284/131/12 283/106/12 280/112/12 281/113/12
f 286/106/2 285/112/2 287/131/2
f 288/66/1 289/106/1 290/131/1
f 285/132/3 286/67/3 289/107/3 288/131/3
f 287/132/6 285/66/6 288/106/6 290/131/6
f 290/131/12 289/106/12 286/112/12 287/113/12
f 294/41/1 292/10/1 291/33/1 293/133/1
f 297/41/2 295/10/2 296/33/2 298/133/2
f 291/23/3 292/2/3 296/33/3 295/25/3
f 294/23/4 293/2/4 297/33/4 298/25/4
f 293/125/5 291/2/5 295/33/5 297/133/5
f 298/41/6 296/10/6 292/2/6 294/125/6
f 302/134/1 300/135/1 299/136/1 301/137/1
f 305/134/2 303/135/2 304/136/2 306/137/2
f 299/138/3 300/139/3 304/140/3 303/141/3
f 302/138/4 301/139/4 305/140/4 306/141/4
f 301/142/5 299/143/5 303/144/5 305/145/5
f 306/146/6 304/147/6 300/148/6 302/149/6
f 310/150/1 308/151/1 307/152/1 309/153/1
f 313/150/2 311/151/2 312/152/2 314/153/2
f 307/154/3 308/155/3 312/156/3 311/157/3
f 310/154/4 309/155/4 313/156/4 314/157/4
f 309/158/5 307/159/5 311/160/5 313/161/5
f 314/150/6 312/151/6 308/162/6 310/163/6
f 315/151/2 316/152/2 318/153/2 317/150/2
f 320/151/1 319/152/1 321/153/1 322/150/1
f 320/155/13 316/156/13 315/157/13 319/154/13
f 321/155/14 317/156/14 318/157/14 322/154/14
f 319/159/5 315/160/5 317/161/5 321/158/5
f 316/151/6 320/162/6 322/163/6 318/150/6
f 324/151/1 323/152/1 325/153/1 326/150/1
f 324/164/15 308/165/15 307/166/15 323/167/15
f 325/164/16 309/165/16 310/166/16 326/167/16
f 323/168/5 307/162/5 309/163/5 325/169/5
f 308/159/6 324/170/6 326/171/6 310/158/6
f 312/155/9 302/165/9 301/166/9 311/154/9
f 313/155/10 305/165/10 306/166/10 314/154/10
f 311/159/5 301/162/5 305/163/5 313/158/5
f 302/159/6 312/162/6 314/163/6 306/158/6
f 327/2/17 328/33/17 330/25/17 329/23/17
f 332/10/18 331/2/18 333/23/18 334/21/18
f 332/10/3 328/2/3 327/22/3 331/6/3
f 333/6/4 329/22/4 330/23/4 334/21/4
f 331/10/5 327/2/5 329/23/5 333/21/5
f 328/2/6 332/33/6 334/25/6 330/23/6
f 335/2/19 336/33/19 338/25/19 337/23/19
f 328/10/20 327/2/20 339/23/20 340/21/20
f 339/6/4 337/22/4 338/23/4 340/21/4
f 327/10/5 335/2/5 337/23/5 339/21/5
f 336/2/6 328/33/6 340/25/6 338/23/6
f 328/10/3 336/2/3 335/22/3 327/6/3
f 341/10/19 342/33/19 344/25/19 343/21/19
f 348/10/20 347/33/20 345/25/20 346/21/20
f 345/10/4 343/2/4 344/23/4 346/21/4
f 347/10/5 341/2/5 343/23/5 345/21/5
f 342/2/6 348/33/6 346/25/6 344/23/6
f 348/10/3 342/2/3 341/23/3 347/21/3
f 347/10/17 348/33/17 350/25/17 349/21/17
f 352/10/18 351/33/18 353/25/18 354/21/18
f 352/10/3 348/2/3 347/23/3 351/21/3
f 353/10/4 349/2/4 350/23/4 354/21/4
f 351/10/5 347/2/5 349/23/5 353/21/5
f 348/2/6 352/33/6 354/25/6 350/23/6
f 470/269/1 468/270/1 467/56/1 469/271/1
f 473/269/2 471/270/2 472/56/2 474/271/2
f 467/270/3 468/272/3 472/57/3 471/56/3
f 470/270/4 469/272/4 473/57/4 474/56/4
f 469/269/5 467/270/5 471/56/5 473/271/5
f 474/269/6 472/270/6 468/56/6 470/271/6
f 478/269/1 476/270/1 475/56/1 477/271/1
f 481/269/2 479/270/2 480/56/2 482/271/2
f 475/270/3 476/272/3 480/57/3 479/56/3
f 478/270/4 477/272/4 481/57/4 482/56/4
f 477/269/5 475/270/5 479/56/5 481/271/5
f 482/269/6 480/270/6 476/56/6 478/271/6
f 518/55/1 516/54/1 515/53/1 517/52/1
f 521/270/2 519/272/2 520/57/2 522/56/2
f 515/276/3 516/277/3 520/278/3 519/279/3
f 518/276/4 517/277/4 521/278/4 522/279/4
f 517/276/5 515/277/5 519/278/5 521/279/5
f 522/276/6 520/277/6 516/278/6 518/279/6
f 674/366/1 673/367/1 672/368/1 526/369/1
f 538/370/2 675/371/2 676/372/2 677/373/2
f 672/374/3 673/367/3 676/372/3 675/375/3
f 674/366/4 526/376/4 538/377/4 677/373/4
f 526/366/5 672/367/5 675/372/5 538/373/5
f 677/366/6 676/367/6 673/372/6 674/373/6
f 530/366/1 679/367/1 678/378/1 680/379/1
f 683/380/2 681/381/2 682/372/2 534/373/2
f 678/300/3 679/367/3 682/372/3 681/382/3
f 530/366/4 680/383/4 683/384/4 534/373/4
f 680/366/5 678/367/5 681/372/5 683/373/5
f 534/385/6 682/386/6 679/387/6 530/388/6
f 697/402/41 701/403/41 702/404/41 698/405/41
f 700/406/42 704/405/42 703/402/42 699/407/42
f 699/408/5 703/409/5 701/410/5 697/411/5
f 698/412/6 702/413/6 704/414/6 700/415/6
f 701/402/43 705/403/43 706/404/43 702/405/43
f 704/406/44 708/405/44 707/402/44 703/407/44
f 703/416/5 707/417/5 705/418/5 701/419/5
f 702/412/6 706/413/6 708/420/6 704/421/6
f 705/402/1 709/403/1 710/404/1 706/405/1
f 708/406/2 712/405/2 711/402/2 707/407/2
f 707/422/5 711/423/5 709/424/5 705/425/5
f 706/424/6 710/425/6 712/422/6 708/423/6
f 709/402/45 713/403/45 714/404/45 710/405/45
f 712/406/46 716/405/46 715/402/46 711/407/46
f 711/414/5 715/426/5 713/427/5 709/428/5
f 710/429/6 714/430/6 716/431/6 712/432/6
f 713/402/47 717/403/47 718/404/47 714/405/47
f 716/406/48 720/405/48 719/402/48 715/407/48
f 715/433/5 719/434/5 717/435/5 713/436/5
f 714/429/6 718/430/6 720/437/6 716/417/6
f 717/402/4 721/403/4 722/404/4 718/405/4
f 720/406/3 724/405/3 723/402/3 719/407/3
f 719/438/5 723/439/5 721/440/5 717/441/5
f 718/404/6 722/405/6 724/442/6 720/443/6
f 721/402/42 725/403/42 726/404/42 722/405/42
f 724/406/41 728/405/41 727/402/41 723/407/41
f 723/444/5 727/445/5 725/405/5 721/446/5
f 722/447/6 726/405/6 728/448/6 724/449/6
f 725/402/44 729/403/44 730/404/44 726/405/44
f 728/406/43 732/405/43 731/402/43 727/407/43
f 727/450/5 731/451/5 729/452/5 725/453/5
f 726/447/6 730/405/6 732/454/6 728/455/6
f 729/402/2 733/403/2 734/404/2 730/405/2
f 732/406/1 736/405/1 735/402/1 731/407/1
f 731/456/5 735/457/5 733/405/5 729/458/5
f 730/405/6 734/458/6 736/456/6 732/457/6
f 733/402/46 737/403/46 738/404/46 734/405/46
f 736/406/45 740/405/45 739/402/45 735/407/45
f 735/459/5 739/460/5 737/447/5 733/461/5
f 734/405/6 738/453/6 740/462/6 736/463/6
f 737/402/48 741/403/48 742/404/48 738/405/48
f 740/406/47 744/405/47 743/402/47 739/407/47
f 739/464/5 743/465/5 741/466/5 737/405/5
f 738/405/6 742/453/6 744/467/6 740/468/6
f 741/402/3 697/403/3 698/404/3 742/405/3
f 744/406/4 700/405/4 699/402/4 743/407/4
f 743/442/5 699/443/5 697/404/5 741/405/5
f 742/440/6 698/441/6 700/438/6 744/439/6
f 748/469/1 746/470/1 745/471/1 747/472/1
f 751/469/2 749/470/2 750/471/2 752/472/2
f 745/473/3 746/380/3 750/373/3 749/474/3
f 748/473/4 747/380/4 751/373/4 752/474/4
f 747/475/5 745/476/5 749/477/5 751/478/5
f 752/478/6 750/477/6 746/479/6 748/480/6
f 756/481/1 754/482/1 753/483/1 755/484/1
f 759/485/2 757/379/2 758/486/2 760/487/2
f 753/488/3 754/489/3 758/490/3 757/491/3
f 756/492/4 755/493/4 759/494/4 760/495/4
f 755/496/5 753/497/5 757/498/5 759/499/5
f 760/500/6 758/501/6 754/502/6 756/503/6
f 764/504/1 762/505/1 761/506/1 763/507/1
f 767/481/2 765/482/2 766/483/2 768/484/2
f 761/508/3 762/509/3 766/510/3 765/511/3
f 764/512/4 763/513/4 767/514/4 768/515/4
f 763/516/5 761/517/5 765/518/5 767/519/5
f 768/520/6 766/470/6 762/521/6 764/522/6
f 745/523/49 761/524/49 762/486/49 746/525/49
f 766/526/50 765/527/50 747/528/50 748/402/50
f 765/505/5 761/529/5 745/477/5 747/530/5
f 746/531/51 762/532/51 766/533/51 748/534/51
f 751/535/52 753/501/52 754/536/52 752/537/52
f 758/538/53 757/534/53 749/533/53 750/527/53
f 757/539/5 753/540/5 751/541/5 749/542/5
f 752/536/54 754/537/55 758/543/54 750/544/54
f 782/402/41 786/403/41 787/404/41 783/405/41
f 785/406/42 789/405/42 788/402/42 784/407/42
f 784/408/5 788/409/5 786/410/5 782/411/5
f 783/412/6 787/413/6 789/414/6 785/415/6
f 786/402/43 790/403/43 791/404/43 787/405/43
f 789/406/44 793/405/44 792/402/44 788/407/44
f 788/416/5 792/417/5 790/418/5 786/419/5
f 787/412/6 791/413/6 793/420/6 789/421/6
f 790/402/1 794/403/1 795/404/1 791/405/1
f 793/406/2 797/405/2 796/402/2 792/407/2
f 792/422/5 796/423/5 794/424/5 790/425/5
f 791/424/6 795/425/6 797/422/6 793/423/6
f 794/402/45 798/403/45 799/404/45 795/405/45
f 797/406/46 801/405/46 800/402/46 796/407/46
f 796/414/5 800/426/5 798/427/5 794/428/5
f 795/429/6 799/430/6 801/431/6 797/432/6
f 798/402/47 802/403/47 803/404/47 799/405/47
f 801/406/48 805/405/48 804/402/48 800/407/48
f 800/433/5 804/434/5 802/435/5 798/436/5
f 799/429/6 803/430/6 805/437/6 801/417/6
f 802/402/4 806/403/4 807/404/4 803/405/4
f 805/406/3 809/405/3 808/402/3 804/407/3
f 804/438/5 808/439/5 806/440/5 802/441/5
f 803/404/6 807/405/6 809/442/6 805/443/6
f 806/402/42 810/403/42 811/404/42 807/405/42
f 809/406/41 813/405/41 812/402/41 808/407/41
f 808/444/5 812/445/5 810/405/5 806/446/5
f 807/447/6 811/405/6 813/448/6 809/449/6
f 810/402/44 814/403/44 815/404/44 811/405/44
f 813/406/43 817/405/43 816/402/43 812/407/43
f 812/450/5 816/451/5 814/452/5 810/453/5
f 811/447/6 815/405/6 817/454/6 813/455/6
f 814/402/2 818/403/2 819/404/2 815/405/2
f 817/406/1 821/405/1 820/402/1 816/407/1
f 816/456/5 820/457/5 818/405/5 814/458/5
f 815/405/6 819/458/6 821/456/6 817/457/6
f 818/402/46 822/403/46 823/404/46 819/405/46
f 821/406/45 825/405/45 824/402/45 820/407/45
f 820/459/5 824/460/5 822/447/5 818/461/5
f 819/405/6 823/453/6 825/462/6 821/463/6
f 822/402/48 826/403/48 827/404/48 823/405/48
f 825/406/47 829/405/47 828/402/47 824/407/47
f 824/464/5 828/465/5 826/466/5 822/405/5
f 823/405/6 827/453/6 829/467/6 825/468/6
f 826/402/3 782/403/3 783/404/3 827/405/3
f 829/406/4 785/405/4 784/402/4 828/407/4
f 828/442/5 784/443/5 782/404/5 826/405/5
f 827/440/6 783/441/6 785/438/6 829/439/6
f 833/469/1 831/470/1 830/471/1 832/472/1
f 836/469/2 834/470/2 835/471/2 837/472/2
f 830/473/3 831/380/3 835/373/3 834/474/3
f 833/473/4 832/380/4 836/373/4 837/474/4
f 832/475/5 830/476/5 834/477/5 836/478/5
f 837/478/6 835/477/6 831/479/6 833/480/6
f 841/481/1 839/482/1 838/483/1 840/484/1
f 844/485/2 842/379/2 843/486/2 845/487/2
f 838/488/3 839/489/3 843/490/3 842/491/3
f 841/492/4 840/493/4 844/494/4 845/495/4
f 840/496/5 838/497/5 842/498/5 844/499/5
f 845/500/6 843/501/6 839/502/6 841/503/6
f 849/504/1 847/505/1 846/506/1 848/507/1
f 852/481/2 850/482/2 851/483/2 853/484/2
f 846/508/3 847/509/3 851/510/3 850/511/3
f 849/512/4 848/513/4 852/514/4 853/515/4
f 848/516/5 846/517/5 850/518/5 852/519/5
f 853/520/6 851/470/6 847/521/6 849/522/6
f 830/523/49 846/524/49 847/486/49 831/525/49
f 851/526/50 850/527/50 832/528/50 833/402/50
f 850/505/5 846/529/5 830/477/5 832/530/5
f 831/531/56 847/532/51 851/533/51 833/534/51
f 836/535/52 838/501/52 839/536/52 837/537/52
f 843/538/53 842/534/53 834/533/53 835/527/53
f 842/539/5 838/540/5 836/541/5 834/542/5
f 837/536/54 839/537/55 843/543/54 835/544/54
f 857/544/1 855/536/1 854/545/1 856/546/1
f 860/544/2 858/536/2 859/545/2 861/546/2
f 854/547/3 855/147/3 859/545/3 858/548/3
f 857/547/4 856/147/4 860/545/4 861/548/4
f 856/158/5 854/147/5 858/545/5 860/546/5
f 861/158/6 859/147/6 855/545/6 857/546/6
f 875/562/47 879/563/47 880/564/47 876/565/47
f 878/566/48 882/565/48 881/562/48 877/567/48
f 877/568/6 881/569/6 879/570/6 875/571/6
f 876/572/5 880/573/5 882/574/5 878/575/5
f 879/562/45 883/563/45 884/564/45 880/565/45
f 882/566/46 886/565/46 885/562/46 881/567/46
f 881/576/6 885/577/6 883/578/6 879/579/6
f 880/572/5 884/573/5 886/580/5 882/581/5
f 883/562/1 887/563/1 888/564/1 884/565/1
f 886/566/2 890/565/2 889/562/2 885/567/2
f 885/582/6 889/583/6 887/584/6 883/585/6
f 884/584/5 888/585/5 890/582/5 886/583/5
f 887/562/43 891/563/43 892/564/43 888/565/43
f 890/566/44 894/565/44 893/562/44 889/567/44
f 889/586/6 893/587/6 891/588/6 887/589/6
f 888/590/5 892/591/5 894/592/5 890/593/5
f 891/562/41 895/563/41 896/564/41 892/565/41
f 894/566/42 898/565/42 897/562/42 893/567/42
f 893/594/6 897/595/6 895/596/6 891/597/6
f 892/590/5 896/591/5 898/598/5 894/599/5
f 895/562/3 899/563/3 900/564/3 896/565/3
f 898/566/4 902/565/4 901/562/4 897/567/4
f 897/600/6 901/601/6 899/602/6 895/603/6
f 896/564/5 900/565/5 902/604/5 898/605/5
f 899/562/48 903/563/48 904/564/48 900/565/48
f 902/566/47 906/565/47 905/562/47 901/567/47
f 901/606/6 905/607/6 903/565/6 899/608/6
f 900/609/5 904/565/5 906/610/5 902/611/5
f 903/562/46 907/563/46 908/564/46 904/565/46
f 906/566/45 910/565/45 909/562/45 905/567/45
f 905/612/6 909/613/6 907/614/6 903/615/6
f 904/609/5 908/565/5 910/616/5 906/617/5
f 907/562/2 911/563/2 912/564/2 908/565/2
f 910/566/1 914/565/1 913/562/1 909/567/1
f 909/618/6 913/619/6 911/565/6 907/620/6
f 908/565/5 912/620/5 914/618/5 910/619/5
f 911/562/44 915/563/44 916/564/44 912/565/44
f 914/566/43 918/565/43 917/562/43 913/567/43
f 913/621/6 917/622/6 915/609/6 911/623/6
f 912/565/5 916/615/5 918/624/5 914/625/5
f 915/562/42 919/563/42 920/564/42 916/565/42
f 918/566/41 922/565/41 921/562/41 917/567/41
f 917/626/6 921/627/6 919/628/6 915/565/6
f 916/565/5 920/615/5 922/629/5 918/630/5
f 919/562/4 875/563/4 876/564/4 920/565/4
f 922/566/3 878/565/3 877/562/3 921/567/3
f 921/604/6 877/605/6 875/564/6 919/565/6
f 920/602/5 876/603/5 878/600/5 922/601/5
f 926/631/1 924/169/1 923/543/1 925/632/1
f 929/633/2 927/533/2 928/634/2 930/635/2
f 923/636/3 924/637/3 928/638/3 927/639/3
f 926/640/4 925/530/4 929/641/4 930/642/4
f 925/473/5 923/643/5 927/644/5 929/645/5
f 930/646/6 928/647/6 924/648/6 926/649/6
f 934/650/1 932/651/1 931/652/1 933/653/1
f 937/535/2 935/632/2 936/654/2 938/655/2
f 931/528/3 932/656/3 936/657/3 935/658/3
f 934/659/4 933/660/4 937/661/4 938/662/4
f 933/663/5 931/171/5 935/153/5 937/664/5
f 938/639/6 936/664/6 932/632/6 934/535/6
f 941/665/4 939/666/4 940/663/4 942/530/4
f 939/541/57 858/667/57 859/668/57 940/636/57
f 861/669/20 860/501/20 941/547/20 942/402/20
f 860/540/5 858/670/5 939/535/5 941/671/5
f 940/668/58 859/636/59 861/541/58 942/667/58
f 855/666/60 854/663/60 943/530/60 944/665/60
f 945/539/17 856/672/17 857/643/17 946/673/17
f 944/505/4 943/523/4 945/632/4 946/471/4
f 943/540/5 854/670/5 856/535/5 945/671/5
f 857/670/61 855/535/61 944/671/61 946/540/61
usemtl m_b2af6bd8-ffc8-ff72-7f7b-7b18782af15d.007
f 358/108/1 356/41/1 355/172/1 357/173/1
f 361/108/2 359/41/2 360/172/2 362/173/2
f 355/174/3 356/11/3 360/175/3 359/176/3
f 358/174/4 357/11/4 361/175/4 362/176/4
f 357/177/5 355/178/5 359/179/5 361/180/5
f 362/177/6 360/178/6 356/179/6 358/180/6
f 366/181/1 364/41/1 363/182/1 365/183/1
f 369/183/2 367/182/2 368/172/2 370/184/2
f 363/185/3 364/186/3 368/187/3 367/188/3
f 366/189/4 365/185/4 369/188/4 370/190/4
f 365/191/5 363/192/5 367/172/5 369/184/5
f 370/181/6 368/41/6 364/133/6 366/193/6
f 374/181/1 372/41/1 371/182/1 373/183/1
f 377/183/2 375/182/2 376/172/2 378/184/2
f 371/185/3 372/186/3 376/187/3 375/188/3
f 374/189/4 373/185/4 377/188/4 378/190/4
f 373/191/5 371/192/5 375/172/5 377/184/5
f 378/181/6 376/41/6 372/133/6 374/193/6
f 380/180/1 379/179/1 356/172/1 358/173/1
f 362/108/2 360/41/2 381/178/2 382/177/2
f 356/194/3 379/195/3 381/196/3 360/190/3
f 380/197/4 358/106/4 362/187/4 382/172/4
f 382/108/6 381/41/6 379/198/6 380/199/6
f 386/200/1 384/179/1 383/192/1 385/191/1
f 366/193/2 364/133/2 387/178/2 388/201/2
f 383/202/3 384/203/3 387/196/3 364/204/3
f 386/205/4 385/206/4 366/207/4 388/172/4
f 385/208/5 383/205/5 364/172/5 366/184/5
f 388/181/6 387/41/6 384/209/6 386/210/6
f 392/200/1 390/179/1 389/192/1 391/191/1
f 374/193/2 372/133/2 393/178/2 394/201/2
f 389/202/3 390/203/3 393/196/3 372/204/3
f 392/205/4 391/206/4 374/207/4 394/172/4
f 391/208/5 389/205/5 372/172/5 374/184/5
f 394/181/6 393/41/6 390/209/6 392/210/6
f 398/191/1 396/192/1 395/172/1 397/184/1
f 401/181/2 399/41/2 400/133/2 402/193/2
f 395/211/3 396/212/3 400/204/3 399/190/3
f 398/213/4 397/214/4 401/187/4 402/207/4
f 397/215/5 395/216/5 399/172/5 401/184/5
f 402/181/6 400/41/6 396/217/6 398/218/6
f 406/191/1 404/192/1 403/172/1 405/184/1
f 409/181/2 407/41/2 408/133/2 410/193/2
f 403/211/3 404/212/3 408/204/3 407/190/3
f 406/213/4 405/214/4 409/187/4 410/207/4
f 405/215/5 403/216/5 407/172/5 409/184/5
f 410/181/6 408/41/6 404/217/6 406/218/6
f 379/176/1 412/179/1 411/192/1 413/189/1
f 414/219/2 389/133/2 390/178/2 415/174/2
f 411/220/3 412/221/3 390/222/3 389/223/3
f 379/224/4 413/225/4 414/226/4 415/227/4
f 413/228/5 411/224/5 389/227/5 414/229/5
f 415/230/6 390/231/6 412/232/6 379/233/6
f 417/176/1 393/179/1 372/192/1 416/189/1
f 419/219/2 376/133/2 418/178/2 381/174/2
f 372/223/3 393/222/3 418/234/3 376/235/3
f 417/227/4 416/226/4 419/236/4 381/237/4
f 416/229/5 372/227/5 376/237/5 419/238/5
f 381/239/6 418/240/6 393/231/6 417/230/6
f 422/189/1 371/192/1 420/172/1 421/190/1
f 424/114/2 423/41/2 375/133/2 425/219/2
f 420/229/3 371/223/3 375/235/3 423/238/3
f 422/226/4 421/241/4 424/242/4 425/236/4
f 421/229/5 420/227/5 423/237/5 424/238/5
f 425/239/6 375/240/6 371/231/6 422/230/6
f 428/189/1 427/192/1 426/172/1 355/190/1
f 431/114/2 429/41/2 430/133/2 432/219/2
f 426/228/3 427/220/3 430/223/3 429/229/3
f 428/225/4 355/109/4 431/241/4 432/226/4
f 355/228/5 426/224/5 429/227/5 431/229/5
f 432/230/6 430/231/6 427/232/6 428/233/6
f 434/189/1 408/192/1 407/172/1 433/190/1
f 359/114/2 435/41/2 436/133/2 437/219/2
f 407/229/3 408/223/3 436/235/3 435/238/3
f 434/226/4 433/241/4 359/242/4 437/236/4
f 433/229/5 407/227/5 435/237/5 359/238/5
f 437/239/6 436/240/6 408/231/6 434/230/6
f 441/189/1 439/192/1 438/172/1 440/190/1
f 442/114/2 403/41/2 404/133/2 443/219/2
f 438/228/3 439/220/3 404/223/3 403/229/3
f 441/225/4 440/109/4 442/241/4 443/226/4
f 440/228/5 438/224/5 403/227/5 442/229/5
f 443/230/6 404/231/6 439/232/6 441/233/6
f 445/181/1 411/41/1 427/172/1 444/184/1
f 446/181/2 430/41/2 389/172/2 391/184/2
f 427/228/3 411/109/3 389/241/3 430/229/3
f 445/228/4 444/109/4 446/241/4 391/229/4
f 444/243/5 427/224/5 430/227/5 446/244/5
f 391/245/6 389/231/6 411/232/6 445/246/6
f 450/181/1 448/41/1 447/172/1 449/184/1
f 452/181/2 451/41/2 383/172/2 385/184/2
f 447/228/3 448/109/3 383/241/3 451/229/3
f 450/228/4 449/109/4 452/241/4 385/229/4
f 449/243/5 447/224/5 451/227/5 452/244/5
f 385/245/6 383/231/6 448/232/6 450/246/6
f 456/247/1 454/182/1 453/172/1 455/173/1
f 459/108/2 457/41/2 458/182/2 460/247/2
f 453/219/3 454/248/3 458/249/3 457/250/3
f 456/248/4 455/33/4 459/121/4 460/249/4
f 455/251/5 453/133/5 457/252/5 459/253/5
f 460/254/6 458/255/6 454/256/6 456/257/6
f 464/258/1 462/182/1 461/172/1 463/259/1
f 465/260/2 459/41/2 460/182/2 466/258/2
f 461/261/3 462/262/3 460/249/3 459/250/3
f 464/262/4 463/70/4 465/121/4 466/249/4
f 463/263/5 461/264/5 459/252/5 465/265/5
f 466/266/6 460/255/6 462/267/6 464/268/6
f 486/190/1 484/259/1 483/273/1 485/176/1
f 489/190/2 487/259/2 488/273/2 490/176/2
f 483/190/21 484/196/21 488/274/21 487/176/21
f 486/190/22 485/196/22 489/274/22 490/176/22
f 485/190/23 483/259/23 487/273/23 489/176/23
f 490/190/24 488/259/24 484/273/24 486/176/24
f 494/275/25 492/11/25 491/10/25 493/260/25
f 497/275/26 495/11/26 496/10/26 498/260/26
f 491/190/27 492/196/27 496/274/27 495/176/27
f 494/190/28 493/196/28 497/274/28 498/176/28
f 493/275/29 491/11/29 495/10/29 497/260/29
f 498/275/30 496/11/30 492/10/30 494/260/30
f 502/275/31 500/11/31 499/10/31 501/260/31
f 505/275/32 503/11/32 504/10/32 506/260/32
f 499/190/27 500/196/27 504/274/27 503/176/27
f 502/190/28 501/196/28 505/274/28 506/176/28
f 501/275/29 499/11/29 503/10/29 505/260/29
f 506/275/30 504/11/30 500/10/30 502/260/30
f 510/190/1 508/259/1 507/273/1 509/176/1
f 513/190/2 511/259/2 512/273/2 514/176/2
f 507/190/21 508/196/21 512/274/21 511/176/21
f 510/190/22 509/196/22 513/274/22 514/176/22
f 509/190/23 507/259/23 511/273/23 513/176/23
f 514/190/24 512/259/24 508/273/24 510/176/24
f 526/280/1 524/281/1 523/282/1 525/283/1
f 529/284/2 527/285/2 528/286/2 530/287/2
f 523/288/3 524/106/3 528/11/3 527/201/3
f 526/289/4 525/131/4 529/26/4 530/177/4
f 525/280/5 523/281/5 527/290/5 529/291/5
f 530/291/6 528/290/6 524/286/6 526/287/6
f 534/292/1 532/106/1 531/33/1 533/293/1
f 537/294/2 535/295/2 536/10/2 538/296/2
f 531/288/3 532/106/3 536/11/3 535/201/3
f 534/289/4 533/131/4 537/26/4 538/177/4
f 533/292/5 531/106/5 535/11/5 537/297/5
f 538/297/6 536/11/6 532/10/6 534/296/6
f 542/172/1 540/187/1 539/10/1 541/41/1
f 545/172/2 543/187/2 544/10/2 546/41/2
f 539/174/3 540/11/3 544/10/3 543/114/3
f 542/174/4 541/11/4 545/10/4 546/114/4
f 541/197/5 539/106/5 543/11/5 545/178/5
f 546/178/6 544/11/6 540/10/6 542/41/6
f 550/298/1 548/299/1 547/300/1 549/301/1
f 553/302/2 551/303/2 552/304/2 554/305/2
f 547/306/3 548/307/3 552/308/3 551/309/3
f 550/310/4 549/183/4 553/181/4 554/311/4
f 549/312/5 547/313/5 551/265/5 553/314/5
f 554/315/6 552/302/6 548/316/6 550/317/6
f 558/179/1 556/318/1 555/319/1 557/320/1
f 560/264/2 559/321/2 543/26/2 545/178/2
f 555/322/3 556/197/3 543/178/3 559/323/3
f 558/195/4 557/324/4 560/325/4 545/326/4
f 557/197/5 555/131/5 559/26/5 560/178/5
f 545/178/6 543/26/6 556/21/6 558/41/6
f 564/327/1 562/328/1 561/21/1 563/41/1
f 567/172/2 565/207/2 566/329/2 568/330/2
f 561/194/3 562/331/3 566/332/3 565/333/3
f 564/334/4 563/106/4 567/295/4 568/335/4
f 563/197/5 561/131/5 565/336/5 567/337/5
f 568/133/6 566/25/6 562/21/6 564/41/6
f 563/179/1 561/318/1 569/319/1 570/320/1
f 573/264/2 571/321/2 572/26/2 574/178/2
f 569/322/3 561/197/3 572/178/3 571/323/3
f 563/195/4 570/324/4 573/325/4 574/326/4
f 570/197/5 569/131/5 571/26/5 573/178/5
f 574/178/6 572/26/6 561/21/6 563/41/6
f 576/197/1 526/106/1 525/33/1 575/133/1
f 577/337/2 537/295/2 538/10/2 578/41/2
f 525/246/3 526/338/3 538/10/3 537/181/3
f 576/339/4 575/340/4 577/21/4 578/108/4
f 575/232/5 525/338/5 537/10/5 577/41/5
f 578/232/6 538/338/6 526/10/6 576/41/6
f 582/197/1 580/131/1 579/25/1 581/133/1
f 585/337/2 583/336/2 584/21/2 586/41/2
f 579/183/3 580/341/3 584/109/3 583/243/3
f 582/247/4 581/342/4 585/225/4 586/110/4
f 581/182/5 579/342/5 583/225/5 585/224/5
f 586/182/6 584/342/6 580/225/6 582/224/6
f 590/264/1 588/321/1 587/25/1 589/133/1
f 593/264/2 591/321/2 592/25/2 594/133/2
f 587/83/3 588/329/3 592/236/3 591/343/3
f 590/83/4 589/329/4 593/236/4 594/343/4
f 589/330/5 587/329/5 591/236/5 593/237/5
f 594/330/6 592/329/6 588/236/6 590/237/6
f 598/197/7 596/131/7 595/25/7 597/133/7
f 601/337/8 599/336/8 600/21/8 602/41/8
f 595/183/9 596/341/9 600/109/9 599/243/9
f 598/247/10 597/342/10 601/225/10 602/110/10
f 597/182/5 595/342/5 599/225/5 601/224/5
f 602/182/6 600/342/6 596/225/6 598/224/6
f 606/197/9 604/131/9 603/25/9 605/133/9
f 609/337/10 607/336/10 608/21/10 610/41/10
f 603/344/8 604/345/8 608/109/8 607/243/8
f 606/346/7 605/347/7 609/225/7 610/110/7
f 605/348/5 603/347/5 607/225/5 609/224/5
f 610/348/6 608/347/6 604/225/6 606/224/6
f 614/289/1 612/106/1 611/10/1 613/108/1
f 617/289/2 615/106/2 616/10/2 618/108/2
f 611/349/3 612/350/3 616/10/3 615/108/3
f 614/349/4 613/350/4 617/10/4 618/108/4
f 613/349/5 611/350/5 615/10/5 617/108/5
f 618/351/6 616/352/6 612/99/6 614/353/6
f 622/206/1 620/354/1 619/10/1 621/21/1
f 1/206/2 623/354/2 624/10/2 625/21/2
f 619/355/3 620/106/3 624/11/3 623/275/3
f 622/355/4 621/106/4 1/11/4 625/275/4
f 621/131/5 619/106/5 623/11/5 1/26/5
f 625/26/6 624/11/6 620/10/6 622/21/6
f 629/206/1 627/354/1 626/10/1 628/21/1
f 632/206/2 630/354/2 631/10/2 633/21/2
f 626/355/3 627/106/3 631/11/3 630/275/3
f 629/355/4 628/106/4 632/11/4 633/275/4
f 628/131/5 626/106/5 630/11/5 632/26/5
f 633/26/6 631/11/6 627/10/6 629/21/6
f 637/356/1 635/131/1 634/336/1 636/357/1
f 640/358/2 638/25/2 639/21/2 641/359/2
f 634/131/3 635/106/3 639/11/3 638/26/3
f 637/289/4 636/288/4 640/201/4 641/177/4
f 636/356/5 634/131/5 638/26/5 640/360/5
f 641/360/6 639/26/6 635/21/6 637/359/6
f 637/197/1 636/337/1 642/46/1
f 640/133/2 641/41/2 643/193/2
f 642/288/33 636/197/33 640/178/33 643/201/33
f 643/201/6 641/178/6 637/41/6 642/181/6
f 646/206/1 645/354/1 644/10/1 635/21/1
f 639/206/2 647/354/2 648/10/2 649/21/2
f 644/355/3 645/106/3 648/11/3 647/275/3
f 646/355/4 635/106/4 639/11/4 649/275/4
f 635/131/5 644/106/5 647/11/5 639/26/5
f 649/26/6 648/11/6 645/10/6 646/21/6
f 644/70/2 635/206/2 634/321/2
f 647/33/1 638/25/1 639/21/1
f 634/131/34 644/106/34 647/11/34 638/26/34
f 619/70/2 621/206/2 650/321/2
f 623/33/1 651/25/1 1/21/1
f 621/355/4 650/322/4 651/323/4 1/275/4
f 650/131/34 619/106/34 623/11/34 651/26/34
f 653/206/1 652/354/1 637/10/1 642/21/1
f 643/206/2 641/354/2 654/10/2 655/21/2
f 637/355/3 652/106/3 654/11/3 641/275/3
f 653/355/4 642/106/4 643/11/4 655/275/4
f 655/26/6 654/11/6 652/10/6 653/21/6
f 626/356/1 621/131/1 650/336/1 656/357/1
f 657/358/2 651/25/2 1/21/2 630/359/2
f 626/289/4 656/288/4 657/201/4 630/177/4
f 656/356/5 650/131/5 651/26/5 657/360/5
f 630/360/6 1/26/6 621/21/6 626/359/6
f 626/197/1 656/337/1 628/46/1
f 657/133/2 630/41/2 632/193/2
f 628/288/33 656/197/33 657/178/33 632/201/33
f 661/182/35 659/341/35 658/33/35 660/133/35
f 664/267/36 662/361/36 663/10/36 665/41/36
f 658/362/37 659/106/37 663/11/37 662/363/37
f 661/364/38 660/131/38 664/26/38 665/365/38
f 660/197/5 658/106/5 662/11/5 664/178/5
f 665/178/6 663/11/6 659/10/6 661/41/6
f 665/182/39 663/341/39 666/33/39 667/133/39
f 670/267/40 668/361/40 669/10/40 671/41/40
f 666/362/37 663/106/37 669/11/37 668/363/37
f 665/364/38 667/131/38 670/26/38 671/365/38
f 667/197/5 666/106/5 668/11/5 670/178/5
f 671/178/6 669/11/6 663/10/6 665/41/6
usemtl m_409504fd-f58c-4195-329e-2b61b82ac830.007
f 686/389/6 687/390/6 684/391/6
f 687/390/6 688/392/6 684/391/6
f 688/392/6 689/393/6 684/391/6
f 689/393/6 690/394/6 684/391/6
f 690/394/6 691/395/6 684/391/6
f 691/395/6 692/396/6 684/391/6
f 692/396/6 693/397/6 684/391/6
f 693/397/6 694/398/6 684/391/6
f 694/398/6 695/399/6 684/391/6
f 695/399/6 696/400/6 684/391/6
f 696/400/6 685/401/6 684/391/6
f 685/401/6 686/389/6 684/391/6
f 771/389/6 772/390/6 769/391/6
f 772/390/6 773/392/6 769/391/6
f 773/392/6 774/393/6 769/391/6
f 774/393/6 775/394/6 769/391/6
f 775/394/6 776/395/6 769/391/6
f 776/395/6 777/396/6 769/391/6
f 777/396/6 778/397/6 769/391/6
f 778/397/6 779/398/6 769/391/6
f 779/398/6 780/399/6 769/391/6
f 780/399/6 781/400/6 769/391/6
f 781/400/6 770/401/6 769/391/6
f 770/401/6 771/389/6 769/391/6
f 864/549/5 865/550/5 862/551/5
f 865/550/5 866/552/5 862/551/5
f 866/552/5 867/553/5 862/551/5
f 867/553/5 868/554/5 862/551/5
f 868/554/5 869/555/5 862/551/5
f 869/555/5 870/556/5 862/551/5
f 870/556/5 871/557/5 862/551/5
f 871/557/5 872/558/5 862/551/5
f 872/558/5 873/559/5 862/551/5
f 873/559/5 874/560/5 862/551/5
f 874/560/5 863/561/5 862/551/5
f 863/561/5 864/549/5 862/551/5
