# Blender 5.2.0 LTS
# www.blender.org
mtllib ks_vr_1000_left.mtl
o cube
v 1.218750 2.125000 0.125000
v 1.218750 2.125000 -0.125000
v 1.218750 1.125000 0.125000
v 1.218750 1.125000 -0.125000
v 0.968750 2.125000 0.125000
v 0.968750 2.125000 -0.125000
v 0.968750 1.125000 0.125000
v 0.968750 1.125000 -0.125000
v 1.218750 3.125000 0.125000
v 1.218750 3.125000 -0.125000
v 0.968750 3.125000 0.125000
v 0.968750 3.125000 -0.125000
v 1.218750 3.687500 0.125000
v 1.218750 3.687500 -0.125000
v 0.968750 3.687500 0.125000
v 0.968750 3.687500 -0.125000
v 1.218750 0.312500 0.125000
v 1.218750 0.312500 -0.125000
v 0.968750 0.312500 0.125000
v 0.968750 0.312500 -0.125000
v 0.968750 1.375000 -0.062500
v 0.968750 1.375000 -0.125000
v 0.968750 1.312500 -0.062500
v 0.968750 1.312500 -0.125000
v 0.781250 1.375000 -0.062500
v 0.781250 1.375000 -0.125000
v 0.781250 1.312500 -0.062500
v 0.781250 1.312500 -0.125000
v 0.843750 1.375000 0.062500
v 0.843750 1.375000 -0.062500
v 0.843750 1.312500 0.062500
v 0.843750 1.312500 -0.062500
v 0.781250 1.375000 0.062500
v 0.781250 1.312500 0.062500
v 0.968750 1.375000 0.125000
v 0.968750 1.375000 0.062500
v 0.968750 1.312500 0.125000
v 0.968750 1.312500 0.062500
v 0.781250 1.375000 0.125000
v 0.781250 1.312500 0.125000
v 0.968750 1.000000 -0.062500
v 0.968750 1.000000 -0.125000
v 0.968750 0.937500 -0.062500
v 0.968750 0.937500 -0.125000
v 0.781250 1.000000 -0.062500
v 0.781250 1.000000 -0.125000
v 0.781250 0.937500 -0.062500
v 0.781250 0.937500 -0.125000
v 0.843750 1.000000 0.062500
v 0.843750 1.000000 -0.062500
v 0.843750 0.937500 0.062500
v 0.843750 0.937500 -0.062500
v 0.781250 1.000000 0.062500
v 0.781250 0.937500 0.062500
v 0.968750 1.000000 0.125000
v 0.968750 1.000000 0.062500
v 0.968750 0.937500 0.125000
v 0.968750 0.937500 0.062500
v 0.781250 1.000000 0.125000
v 0.781250 0.937500 0.125000
v 0.843750 0.625000 0.062500
v 0.843750 0.625000 -0.062500
v 0.843750 0.562500 0.062500
v 0.843750 0.562500 -0.062500
v 0.781250 0.625000 0.062500
v 0.781250 0.625000 -0.062500
v 0.781250 0.562500 0.062500
v 0.781250 0.562500 -0.062500
v 0.968750 0.625000 0.125000
v 0.968750 0.625000 0.062500
v 0.968750 0.562500 0.125000
v 0.968750 0.562500 0.062500
v 0.781250 0.625000 0.125000
v 0.781250 0.562500 0.125000
v 0.968750 0.625000 -0.062500
v 0.968750 0.625000 -0.125000
v 0.968750 0.562500 -0.062500
v 0.968750 0.562500 -0.125000
v 0.781250 0.625000 -0.125000
v 0.781250 0.562500 -0.125000
v 0.062500 5.000000 -0.156250
v 0.062500 5.000000 -0.218750
v 0.062500 3.875000 -0.156250
v 0.062500 3.875000 -0.218750
v -0.062500 5.000000 -0.156250
v -0.062500 5.000000 -0.218750
v -0.062500 3.875000 -0.156250
v -0.062500 3.875000 -0.218750
v 0.062500 5.000000 0.218750
v 0.062500 5.000000 0.093750
v 0.062500 3.875000 0.218750
v 0.062500 3.875000 0.093750
v -0.062500 5.000000 0.218750
v -0.062500 5.000000 0.093750
v -0.062500 3.875000 0.218750
v -0.062500 3.875000 0.093750
v 0.062500 4.937500 0.093750
v 0.062500 4.937500 -0.156250
v -0.062500 4.937500 0.093750
v -0.062500 4.937500 -0.156250
v 0.062500 4.562500 0.093750
v 0.062500 4.562500 -0.156250
v 0.062500 4.500000 0.093750
v 0.062500 4.500000 -0.156250
v -0.062500 4.562500 0.093750
v -0.062500 4.562500 -0.156250
v -0.062500 4.500000 0.093750
v -0.062500 4.500000 -0.156250
v 0.062500 4.125000 0.093750
v 0.062500 4.125000 -0.156250
v 0.062500 3.937500 0.093750
v 0.062500 3.937500 -0.156250
v -0.062500 4.125000 0.093750
v -0.062500 4.125000 -0.156250
v -0.062500 3.937500 0.093750
v -0.062500 3.937500 -0.156250
v 1.156250 3.250000 0.187500
v 1.156250 3.250000 0.125000
v 1.156250 3.187500 0.187500
v 1.156250 3.187500 0.125000
v 0.781250 3.250000 0.187500
v 0.781250 3.250000 0.125000
v 0.781250 3.187500 0.187500
v 0.781250 3.187500 0.125000
v 1.406250 2.750000 0.187500
v 1.406250 2.750000 0.125000
v 1.406250 2.687500 0.187500
v 1.406250 2.687500 0.125000
v 1.031250 2.750000 0.187500
v 1.031250 2.750000 0.125000
v 1.031250 2.687500 0.187500
v 1.031250 2.687500 0.125000
v 1.156250 2.250000 0.187500
v 1.156250 2.250000 0.125000
v 1.156250 2.187500 0.187500
v 1.156250 2.187500 0.125000
v 0.781250 2.250000 0.187500
v 0.781250 2.250000 0.125000
v 0.781250 2.187500 0.187500
v 0.781250 2.187500 0.125000
v 1.406250 1.750000 0.187500
v 1.406250 1.750000 0.125000
v 1.406250 1.687500 0.187500
v 1.406250 1.687500 0.125000
v 1.031250 1.750000 0.187500
v 1.031250 1.750000 0.125000
v 1.031250 1.687500 0.187500
v 1.031250 1.687500 0.125000
v 1.468750 0.250000 0.375000
v 1.468750 0.250000 -0.375000
v 1.468750 -0.187500 0.375000
v 1.468750 -0.187500 -0.375000
v 0.718750 0.250000 0.375000
v 0.718750 0.250000 -0.375000
v 0.718750 -0.187500 0.375000
v 0.718750 -0.187500 -0.375000
v 1.406250 0.312500 0.250000
v 1.406250 0.312500 -0.250000
v 1.406250 0.250000 0.250000
v 1.406250 0.250000 -0.250000
v 0.781250 0.312500 0.250000
v 0.781250 0.312500 -0.250000
v 0.781250 0.250000 0.250000
v 0.781250 0.250000 -0.250000
v 1.358915 0.286612 -0.037500
v 1.358915 0.286612 -0.118750
v 1.270527 0.198223 -0.037500
v 1.270527 0.198223 -0.118750
v 1.137944 0.507583 -0.037500
v 1.137944 0.507583 -0.118750
v 1.049556 0.419194 -0.037500
v 1.049556 0.419194 -0.118750
v 1.057138 0.515165 -0.037500
v 1.057138 0.515165 -0.118750
v 1.145527 0.426777 -0.037500
v 1.145527 0.426777 -0.118750
v 0.836167 0.294194 -0.037500
v 0.836167 0.294194 -0.118750
v 0.924556 0.205806 -0.037500
v 0.924556 0.205806 -0.118750
v 1.057138 0.515165 0.118750
v 1.057138 0.515165 0.037500
v 1.145527 0.426777 0.118750
v 1.145527 0.426777 0.037500
v 0.836167 0.294194 0.118750
v 0.836167 0.294194 0.037500
v 0.924556 0.205806 0.118750
v 0.924556 0.205806 0.037500
v 1.358915 0.286612 0.118750
v 1.358915 0.286612 0.037500
v 1.270527 0.198223 0.118750
v 1.270527 0.198223 0.037500
v 1.137944 0.507583 0.118750
v 1.137944 0.507583 0.037500
v 1.049556 0.419194 0.118750
v 1.049556 0.419194 0.037500
v 1.406250 1.312500 0.500000
v 1.406250 1.312500 0.125000
v 1.406250 0.500000 0.500000
v 1.406250 0.500000 0.125000
v 0.781250 1.312500 0.500000
v 0.781250 0.500000 0.500000
v 0.781250 0.500000 0.125000
v 1.125000 3.640165 0.118750
v 1.125000 3.640165 0.068750
v 0.992417 3.507582 0.118750
v 0.992417 3.507582 0.068750
v 0.904029 3.861136 0.118750
v 0.904029 3.861136 0.068750
v 0.771447 3.728553 0.118750
v 0.771447 3.728553 0.068750
v 1.125000 3.640165 -0.068750
v 1.125000 3.640165 -0.118750
v 0.992417 3.507582 -0.068750
v 0.992417 3.507582 -0.118750
v 0.904029 3.861136 -0.068750
v 0.904029 3.861136 -0.118750
v 0.771447 3.728553 -0.068750
v 0.771447 3.728553 -0.118750
v 0.937500 3.875000 0.250000
v 0.937500 3.875000 -0.250000
v 0.937500 3.812500 0.250000
v 0.937500 3.812500 -0.250000
v -0.187500 3.875000 0.250000
v -0.187500 3.875000 -0.250000
v -0.187500 3.812500 0.250000
v -0.187500 3.812500 -0.250000
v 1.218750 3.812500 0.187500
v 1.218750 3.812500 -0.187500
v 1.218750 3.687500 0.187500
v 1.218750 3.687500 -0.187500
v 0.375000 3.812500 0.187500
v 0.375000 3.812500 -0.187500
v 0.375000 3.687500 0.187500
v 0.375000 3.687500 -0.187500
v -0.187500 3.812500 0.187500
v -0.187500 3.812500 -0.187500
v -0.187500 3.687500 0.187500
v -0.187500 3.687500 -0.187500
v 1.218750 3.875000 0.187500
v 1.218750 3.875000 -0.187500
v 0.937500 3.875000 0.187500
v 0.937500 3.875000 -0.187500
v 0.937500 3.812500 0.187500
v 0.937500 3.812500 -0.187500
v 0.375000 3.812500 -0.250000
v 0.437500 3.812500 -0.187500
v 0.437500 3.812500 -0.250000
v 0.437500 3.687500 -0.187500
v 0.125000 3.812500 -0.187500
v 0.125000 3.812500 -0.250000
v 0.125000 3.687500 -0.187500
v 0.187500 3.812500 -0.187500
v 0.187500 3.812500 -0.250000
v 0.187500 3.687500 -0.187500
v -0.125000 3.812500 -0.187500
v -0.125000 3.812500 -0.250000
v -0.125000 3.687500 -0.187500
v -0.062500 3.812500 -0.187500
v -0.062500 3.812500 -0.250000
v -0.062500 3.687500 -0.187500
v 0.625000 3.812500 -0.187500
v 0.625000 3.812500 -0.250000
v 0.625000 3.687500 -0.187500
v 0.687500 3.812500 -0.187500
v 0.687500 3.812500 -0.250000
v 0.687500 3.687500 -0.187500
v 0.875000 3.812500 -0.187500
v 0.875000 3.812500 -0.250000
v 0.875000 3.687500 -0.187500
v 0.937500 3.687500 -0.187500
v 0.437500 3.812500 0.187500
v 0.437500 3.812500 0.250000
v 0.437500 3.687500 0.187500
v 0.500000 3.812500 0.187500
v 0.500000 3.812500 0.250000
v 0.500000 3.687500 0.187500
v 0.625000 3.812500 0.187500
v 0.625000 3.812500 0.250000
v 0.625000 3.687500 0.187500
v 0.687500 3.812500 0.187500
v 0.687500 3.812500 0.250000
v 0.687500 3.687500 0.187500
v 0.812500 3.812500 0.187500
v 0.812500 3.812500 0.250000
v 0.812500 3.687500 0.187500
v 0.875000 3.812500 0.187500
v 0.875000 3.812500 0.250000
v 0.875000 3.687500 0.187500
v 0.250000 3.687500 0.062500
v 0.250000 3.687500 -0.062500
v 0.250000 3.437500 0.062500
v 0.250000 3.437500 -0.062500
v 0.187500 3.687500 0.062500
v 0.187500 3.687500 -0.062500
v 0.187500 3.437500 0.062500
v 0.187500 3.437500 -0.062500
v -0.062500 3.687500 0.031250
v -0.062500 3.687500 -0.031250
v -0.062500 3.568750 0.031250
v -0.062500 3.568750 -0.031250
v -0.109375 3.687500 0.031250
v -0.109375 3.687500 -0.031250
v -0.109375 3.568750 0.031250
v -0.109375 3.568750 -0.031250
v 0.218750 3.490625 0.031250
v 0.218750 3.490625 -0.031250
v 0.218750 3.443750 0.031250
v 0.218750 3.443750 -0.031250
v 0.015625 3.490625 0.031250
v 0.015625 3.490625 -0.031250
v 0.015625 3.443750 0.031250
v 0.015625 3.443750 -0.031250
v 0.390625 3.553125 0.031250
v 0.390625 3.553125 -0.031250
v 0.390625 3.506250 0.031250
v 0.390625 3.506250 -0.031250
v 0.968750 3.615625 0.031250
v 0.968750 3.615625 -0.031250
v 0.968750 3.568750 0.031250
v 0.968750 3.568750 -0.031250
v 0.406250 3.553125 0.031250
v 0.406250 3.553125 -0.031250
v 0.406250 3.506250 0.031250
v 0.406250 3.506250 -0.031250
v 0.000000 4.000000 -0.162500
v 0.000000 4.000000 -0.212500
v 0.062500 3.875000 -0.162500
v 0.062500 3.875000 -0.212500
v 0.062500 4.000000 -0.162500
v 0.062500 4.000000 -0.212500
v 0.125000 3.875000 -0.162500
v 0.125000 3.875000 -0.212500
v -0.062500 4.000000 -0.162500
v -0.062500 4.000000 -0.212500
v -0.125000 3.875000 -0.162500
v -0.125000 3.875000 -0.212500
v -0.062500 3.875000 -0.162500
v -0.062500 3.875000 -0.212500
v -0.062500 4.000000 0.212500
v -0.062500 4.000000 0.100000
v -0.125000 3.875000 0.212500
v -0.125000 3.875000 0.100000
v -0.062500 3.875000 0.212500
v -0.062500 3.875000 0.100000
v 0.000000 4.000000 0.212500
v 0.000000 4.000000 0.100000
v 0.062500 3.875000 0.212500
v 0.062500 3.875000 0.100000
v 0.062500 4.000000 0.212500
v 0.062500 4.000000 0.100000
v 0.125000 3.875000 0.212500
v 0.125000 3.875000 0.100000
v 1.256250 3.937500 0.306250
v 1.256250 3.937500 -0.693750
v 1.256250 3.875000 0.306250
v 1.256250 3.875000 -0.693750
v 0.381250 3.937500 0.306250
v 0.381250 3.937500 -0.693750
v 0.381250 3.875000 0.306250
v 0.381250 3.875000 -0.693750
v 0.412500 4.437500 -0.225000
v 0.412500 4.437500 -0.725000
v 0.412500 4.406250 -0.225000
v 0.412500 4.406250 -0.725000
v 0.381250 4.437500 -0.225000
v 0.381250 4.437500 -0.725000
v 0.381250 4.406250 -0.225000
v 0.381250 4.406250 -0.725000
v 0.412500 4.875000 -0.225000
v 0.412500 4.875000 -0.725000
v 0.412500 4.843750 -0.225000
v 0.412500 4.843750 -0.725000
v 0.381250 4.875000 -0.225000
v 0.381250 4.875000 -0.725000
v 0.381250 4.843750 -0.225000
v 0.381250 4.843750 -0.725000
v 1.256250 3.937500 -0.756250
v 1.256250 3.875000 -0.756250
v 0.381250 3.937500 -0.756250
v 0.381250 3.875000 -0.756250
v 1.225000 4.437500 -0.725000
v 1.225000 4.437500 -0.756250
v 1.225000 4.406250 -0.725000
v 1.225000 4.406250 -0.756250
v 0.412500 4.437500 -0.756250
v 0.412500 4.406250 -0.756250
v 1.225000 4.875000 -0.725000
v 1.225000 4.875000 -0.756250
v 1.225000 4.843750 -0.725000
v 1.225000 4.843750 -0.756250
v 0.412500 4.875000 -0.756250
v 0.412500 4.843750 -0.756250
v 0.787500 4.437500 0.306250
v 0.787500 4.437500 0.275000
v 0.787500 4.406250 0.306250
v 0.787500 4.406250 0.275000
v 0.412500 4.437500 0.306250
v 0.412500 4.437500 0.275000
v 0.412500 4.406250 0.306250
v 0.412500 4.406250 0.275000
v 0.787500 4.875000 0.306250
v 0.787500 4.875000 0.275000
v 0.787500 4.843750 0.306250
v 0.787500 4.843750 0.275000
v 0.412500 4.875000 0.306250
v 0.412500 4.875000 0.275000
v 0.412500 4.843750 0.306250
v 0.412500 4.843750 0.275000
v 1.256250 4.875000 -0.725000
v 1.256250 4.875000 -0.756250
v 1.256250 3.937500 -0.725000
v 1.225000 3.937500 -0.725000
v 1.225000 3.937500 -0.756250
v 0.412500 3.937500 -0.725000
v 0.412500 3.937500 -0.756250
v 0.381250 4.875000 -0.756250
v 0.381250 3.937500 -0.725000
v 0.412500 4.875000 -0.193750
v 0.412500 3.937500 -0.193750
v 0.412500 3.937500 -0.225000
v 0.381250 4.875000 -0.193750
v 0.381250 3.937500 -0.193750
v 0.381250 3.937500 -0.225000
v 1.256250 4.875000 0.306250
v 1.256250 4.875000 0.275000
v 1.256250 3.937500 0.275000
v 1.225000 4.875000 0.306250
v 1.225000 4.875000 0.275000
v 1.225000 3.937500 0.306250
v 1.225000 3.937500 0.275000
v 0.412500 3.937500 0.306250
v 0.412500 3.937500 0.275000
v 0.381250 4.875000 0.306250
v 0.381250 4.875000 0.275000
v 0.381250 3.937500 0.275000
v 0.818750 4.875000 0.306250
v 0.818750 4.875000 0.275000
v 0.818750 3.937500 0.306250
v 0.818750 3.937500 0.275000
v 0.787500 3.937500 0.306250
v 0.787500 3.937500 0.275000
v 1.256250 4.843750 0.275000
v 1.256250 4.843750 -0.725000
v 1.225000 4.843750 0.275000
v 1.256250 4.437500 0.275000
v 1.256250 4.437500 -0.725000
v 1.256250 4.406250 0.275000
v 1.256250 4.406250 -0.725000
v 1.225000 4.437500 0.275000
v 1.225000 4.406250 0.275000
v 1.162500 3.875000 -0.193750
v 1.162500 3.875000 -0.693750
v 1.162500 3.812500 -0.193750
v 1.162500 3.812500 -0.693750
v 0.975000 3.875000 -0.193750
v 0.975000 3.875000 -0.693750
v 0.975000 3.812500 -0.193750
v 0.975000 3.812500 -0.693750
v 1.037500 3.812500 -0.193750
v 1.037500 3.812500 -0.693750
v 1.037500 3.687500 -0.193750
v 1.037500 3.687500 -0.693750
v 0.975000 3.687500 -0.193750
v 0.975000 3.687500 -0.693750
v 0.250000 5.875000 0.671875
v 0.250000 5.875000 0.640625
v 0.250000 5.000000 0.671875
v 0.250000 5.000000 0.640625
v 0.218750 5.875000 0.671875
v 0.218750 5.875000 0.640625
v 0.218750 5.000000 0.671875
v 0.218750 5.000000 0.640625
v -0.218750 5.875000 0.671875
v -0.218750 5.875000 0.640625
v -0.218750 5.000000 0.671875
v -0.218750 5.000000 0.640625
v -0.250000 5.875000 0.671875
v -0.250000 5.875000 0.640625
v -0.250000 5.000000 0.671875
v -0.250000 5.000000 0.640625
v 0.368750 5.884903 0.300697
v 0.368750 5.879477 0.269922
v 0.368750 5.084747 0.441786
v 0.368750 5.079321 0.411011
v 0.337500 5.884903 0.300697
v 0.337500 5.879477 0.269922
v 0.337500 5.084747 0.441786
v 0.337500 5.079321 0.411011
v 0.368750 5.090997 0.441786
v 0.368750 5.080144 0.411486
v 0.243750 4.961646 0.463492
v 0.243750 4.950793 0.433191
v 0.337500 5.090997 0.441786
v 0.337500 5.080144 0.411486
v 0.212500 4.961646 0.463492
v 0.212500 4.950793 0.433191
v -0.350000 5.090997 0.441786
v -0.350000 5.080144 0.411486
v -0.225000 4.961646 0.463492
v -0.225000 4.950793 0.433191
v -0.381250 5.090997 0.441786
v -0.381250 5.080144 0.411486
v -0.256250 4.961646 0.463492
v -0.256250 4.950793 0.433191
v -0.350000 5.884903 0.300697
v -0.350000 5.879477 0.269922
v -0.350000 5.084747 0.441786
v -0.350000 5.079321 0.411011
v -0.381250 5.884903 0.300697
v -0.381250 5.879477 0.269922
v -0.381250 5.084747 0.441786
v -0.381250 5.079321 0.411011
v 0.312500 5.906250 0.671875
v 0.312500 5.906250 0.640625
v 0.312500 5.875000 0.671875
v 0.312500 5.875000 0.640625
v -0.312500 5.906250 0.671875
v -0.312500 5.906250 0.640625
v -0.312500 5.875000 0.671875
v -0.312500 5.875000 0.640625
v 0.375000 5.818750 -0.343750
v 0.375000 5.818750 -0.437500
v 0.375000 5.000000 -0.343750
v 0.375000 5.000000 -0.437500
v 0.312500 5.818750 -0.343750
v 0.312500 5.818750 -0.437500
v 0.312500 5.000000 -0.343750
v 0.312500 5.000000 -0.437500
v -0.312500 5.818750 -0.343750
v -0.312500 5.818750 -0.437500
v -0.312500 5.000000 -0.343750
v -0.312500 5.000000 -0.437500
v -0.375000 5.818750 -0.343750
v -0.375000 5.818750 -0.437500
v -0.375000 5.000000 -0.343750
v -0.375000 5.000000 -0.437500
v -0.343750 5.906250 0.562500
v -0.343750 5.906250 -0.000000
v -0.343750 5.875000 0.562500
v -0.343750 5.875000 -0.000000
v -0.375000 5.906250 0.562500
v -0.375000 5.906250 -0.000000
v -0.375000 5.875000 0.562500
v -0.375000 5.875000 -0.000000
v 0.250000 5.000000 0.687500
v 0.250000 5.000000 0.218750
v 0.250000 4.937500 0.687500
v 0.250000 4.937500 0.218750
v -0.250000 5.000000 0.687500
v -0.250000 5.000000 0.218750
v -0.250000 4.937500 0.687500
v -0.250000 4.937500 0.218750
v -0.312500 5.906250 0.656250
v -0.312500 5.906250 0.562500
v -0.312500 5.875000 0.656250
v -0.312500 5.875000 0.562500
v -0.375000 5.906250 0.656250
v -0.375000 5.875000 0.656250
v 0.375000 5.906250 0.562500
v 0.375000 5.906250 -0.000000
v 0.375000 5.875000 0.562500
v 0.375000 5.875000 -0.000000
v 0.343750 5.906250 0.562500
v 0.343750 5.906250 -0.000000
v 0.343750 5.875000 0.562500
v 0.343750 5.875000 -0.000000
v 0.375000 5.906250 0.656250
v 0.375000 5.875000 0.656250
v 0.312500 5.906250 0.656250
v 0.312500 5.906250 0.562500
v 0.312500 5.875000 0.656250
v 0.312500 5.875000 0.562500
v 0.375000 4.937500 -0.343750
v 0.375000 4.937500 -0.437500
v -0.375000 4.937500 -0.343750
v -0.375000 4.937500 -0.437500
v 0.125000 4.718750 -0.343750
v 0.125000 4.718750 -0.437500
v 0.125000 4.687500 -0.343750
v 0.125000 4.687500 -0.437500
v -0.125000 4.718750 -0.343750
v -0.125000 4.718750 -0.437500
v -0.125000 4.687500 -0.343750
v -0.125000 4.687500 -0.437500
v 0.062500 4.718750 -0.218750
v 0.062500 4.718750 -0.343750
v 0.062500 4.687500 -0.218750
v 0.062500 4.687500 -0.343750
v -0.062500 4.718750 -0.218750
v -0.062500 4.718750 -0.343750
v -0.062500 4.687500 -0.218750
v -0.062500 4.687500 -0.343750
v -0.102903 4.709597 -0.337500
v -0.102903 4.709597 -0.431250
v -0.125000 4.687500 -0.337500
v -0.125000 4.687500 -0.431250
v -0.352903 4.959597 -0.337500
v -0.352903 4.959597 -0.431250
v -0.375000 4.937500 -0.337500
v -0.375000 4.937500 -0.431250
v 0.352903 4.959597 -0.337500
v 0.352903 4.959597 -0.431250
v 0.375000 4.937500 -0.337500
v 0.375000 4.937500 -0.431250
v 0.102903 4.709597 -0.337500
v 0.102903 4.709597 -0.431250
v 0.125000 4.687500 -0.337500
v 0.125000 4.687500 -0.431250
v 0.068750 5.062500 -0.187500
v 0.068750 5.062500 -0.312500
v 0.068750 4.937500 -0.187500
v 0.068750 4.937500 -0.312500
v -0.068750 5.062500 -0.187500
v -0.068750 5.062500 -0.312500
v -0.068750 4.937500 -0.187500
v -0.068750 4.937500 -0.312500
v -0.343750 5.812500 -0.218750
v -0.343750 5.812500 -0.406250
v -0.343750 5.781250 -0.218750
v -0.343750 5.781250 -0.406250
v -0.406250 5.812500 -0.218750
v -0.406250 5.812500 -0.406250
v -0.406250 5.781250 -0.218750
v -0.406250 5.781250 -0.406250
v -0.343750 5.156250 -0.218750
v -0.343750 5.156250 -0.406250
v -0.343750 5.125000 -0.218750
v -0.343750 5.125000 -0.406250
v -0.406250 5.156250 -0.218750
v -0.406250 5.156250 -0.406250
v -0.406250 5.125000 -0.218750
v -0.406250 5.125000 -0.406250
v 0.406250 5.781250 -0.187500
v 0.406250 5.781250 -0.218750
v 0.406250 5.156250 -0.187500
v 0.406250 5.156250 -0.218750
v 0.343750 5.781250 -0.187500
v 0.343750 5.781250 -0.218750
v 0.343750 5.156250 -0.187500
v 0.343750 5.156250 -0.218750
v 0.406250 5.125000 -0.218750
v 0.343750 5.125000 -0.218750
v 0.406250 5.812500 -0.218750
v 0.406250 5.812500 -0.406250
v 0.406250 5.781250 -0.406250
v 0.343750 5.812500 -0.218750
v 0.343750 5.812500 -0.406250
v 0.343750 5.781250 -0.406250
v -0.343750 5.781250 -0.187500
v -0.406250 5.781250 -0.187500
v 0.406250 5.156250 -0.406250
v 0.406250 5.125000 -0.406250
v 0.343750 5.156250 -0.406250
v 0.343750 5.125000 -0.406250
v -0.343750 5.156250 -0.187500
v -0.406250 5.156250 -0.187500
v 0.250000 5.000000 0.681250
v 0.062500 4.937500 0.218750
v 0.250000 4.937500 0.681250
v 0.062500 4.875000 0.218750
v 0.187500 5.000000 0.681250
v 0.000000 4.937500 0.218750
v 0.187500 4.937500 0.681250
v 0.000000 4.875000 0.218750
v -0.187500 5.000000 0.681250
v -0.187500 4.937500 0.681250
v -0.250000 5.000000 0.681250
v -0.062500 4.937500 0.218750
v -0.250000 4.937500 0.681250
v -0.062500 4.875000 0.218750
v 1.156250 3.687500 -0.125000
v 1.156250 3.687500 -0.156250
v 1.156250 2.687500 -0.125000
v 1.156250 2.687500 -0.156250
v 1.031250 3.687500 -0.125000
v 1.031250 3.687500 -0.156250
v 1.031250 2.687500 -0.125000
v 1.031250 2.687500 -0.156250
v 1.375000 2.734375 -0.118750
v 1.375000 2.734375 -0.181250
v 1.375000 1.921875 -0.118750
v 1.375000 1.921875 -0.181250
v 0.812500 2.734375 -0.118750
v 0.812500 2.734375 -0.181250
v 0.812500 1.921875 -0.118750
v 0.812500 1.921875 -0.181250
v 0.859375 2.678125 -0.181250
v 0.859375 2.678125 -0.187500
v 1.093750 2.328125 -0.181250
v 1.093750 2.328125 -0.187500
v 0.937500 2.678125 -0.181250
v 0.937500 2.678125 -0.187500
v 1.093750 2.437500 -0.181250
v 1.093750 2.437500 -0.187500
v 1.328125 1.978125 -0.181250
v 1.328125 1.978125 -0.187500
v 1.250000 1.978125 -0.181250
v 1.250000 1.978125 -0.187500
v 1.093750 2.218750 -0.181250
v 1.093750 2.218750 -0.187500
v 1.250000 2.687500 -0.181250
v 1.250000 2.687500 -0.187500
v 1.328125 2.687500 -0.181250
v 1.328125 2.687500 -0.187500
v 0.937500 1.968750 -0.181250
v 0.937500 1.968750 -0.187500
v 0.859375 1.968750 -0.181250
v 0.859375 1.968750 -0.187500
v 0.375000 6.000000 -0.437500
v 0.375000 6.000000 -0.500000
v 0.375000 5.000000 -0.500000
v -0.375000 6.000000 -0.437500
v -0.375000 6.000000 -0.500000
v -0.375000 5.000000 -0.500000
v 0.312500 6.000000 -0.312500
v 0.312500 6.000000 -0.437500
v 0.312500 5.000000 -0.312500
v -0.312500 6.000000 -0.312500
v -0.312500 6.000000 -0.437500
v -0.312500 5.000000 -0.312500
v 0.156250 5.484375 -0.534375
v 0.181370 5.578125 -0.534375
v 0.224880 5.553005 -0.534375
v 0.250000 5.509495 -0.534375
v 0.250000 5.459255 -0.534375
v 0.224880 5.415745 -0.534375
v 0.181370 5.390625 -0.534375
v 0.131130 5.390625 -0.534375
v 0.087620 5.415745 -0.534375
v 0.062500 5.459255 -0.534375
v 0.062500 5.509495 -0.534375
v 0.087620 5.553005 -0.534375
v 0.131130 5.578125 -0.534375
v 0.183464 5.585938 -0.500000
v 0.183464 5.585938 -0.562500
v 0.176050 5.558270 -0.500000
v 0.176050 5.558270 -0.562500
v 0.230599 5.558724 -0.500000
v 0.230599 5.558724 -0.562500
v 0.210345 5.538470 -0.500000
v 0.210345 5.538470 -0.562500
v 0.257812 5.511589 -0.500000
v 0.257812 5.511589 -0.562500
v 0.230145 5.504175 -0.500000
v 0.230145 5.504175 -0.562500
v 0.257812 5.457161 -0.500000
v 0.257812 5.457161 -0.562500
v 0.230145 5.464575 -0.500000
v 0.230145 5.464575 -0.562500
v 0.230599 5.410026 -0.500000
v 0.230599 5.410026 -0.562500
v 0.210345 5.430280 -0.500000
v 0.210345 5.430280 -0.562500
v 0.183464 5.382812 -0.500000
v 0.183464 5.382812 -0.562500
v 0.176050 5.410480 -0.500000
v 0.176050 5.410480 -0.562500
v 0.129036 5.382812 -0.500000
v 0.129036 5.382812 -0.562500
v 0.136450 5.410480 -0.500000
v 0.136450 5.410480 -0.562500
v 0.081901 5.410026 -0.500000
v 0.081901 5.410026 -0.562500
v 0.102155 5.430280 -0.500000
v 0.102155 5.430280 -0.562500
v 0.054688 5.457161 -0.500000
v 0.054688 5.457161 -0.562500
v 0.082355 5.464575 -0.500000
v 0.082355 5.464575 -0.562500
v 0.054688 5.511589 -0.500000
v 0.054688 5.511589 -0.562500
v 0.082355 5.504175 -0.500000
v 0.082355 5.504175 -0.562500
v 0.081901 5.558724 -0.500000
v 0.081901 5.558724 -0.562500
v 0.102155 5.538470 -0.500000
v 0.102155 5.538470 -0.562500
v 0.129036 5.585938 -0.500000
v 0.129036 5.585938 -0.562500
v 0.136450 5.558270 -0.500000
v 0.136450 5.558270 -0.562500
v 0.218750 5.621875 -0.500000
v 0.218750 5.621875 -0.937500
v 0.218750 5.590625 -0.500000
v 0.218750 5.590625 -0.937500
v 0.093750 5.621875 -0.500000
v 0.093750 5.621875 -0.937500
v 0.093750 5.590625 -0.500000
v 0.093750 5.590625 -0.937500
v 0.027459 5.512500 -0.500000
v 0.027459 5.512500 -0.562500
v 0.027459 5.448889 -0.500000
v 0.027459 5.448889 -0.562500
v -0.003791 5.512500 -0.500000
v -0.003791 5.512500 -0.562500
v -0.003791 5.448889 -0.500000
v -0.003791 5.448889 -0.562500
v 0.315625 5.512500 -0.500000
v 0.315625 5.512500 -0.562500
v 0.315625 5.448889 -0.500000
v 0.315625 5.448889 -0.562500
v 0.284375 5.512500 -0.500000
v 0.284375 5.512500 -0.562500
v 0.284375 5.448889 -0.500000
v 0.284375 5.448889 -0.562500
v -0.156250 5.484375 -0.534375
v -0.131130 5.578125 -0.534375
v -0.087620 5.553005 -0.534375
v -0.062500 5.509495 -0.534375
v -0.062500 5.459255 -0.534375
v -0.087620 5.415745 -0.534375
v -0.131130 5.390625 -0.534375
v -0.181370 5.390625 -0.534375
v -0.224880 5.415745 -0.534375
v -0.250000 5.459255 -0.534375
v -0.250000 5.509495 -0.534375
v -0.224880 5.553005 -0.534375
v -0.181370 5.578125 -0.534375
v -0.129036 5.585938 -0.500000
v -0.129036 5.585938 -0.562500
v -0.136450 5.558270 -0.500000
v -0.136450 5.558270 -0.562500
v -0.081901 5.558724 -0.500000
v -0.081901 5.558724 -0.562500
v -0.102155 5.538470 -0.500000
v -0.102155 5.538470 -0.562500
v -0.054688 5.511589 -0.500000
v -0.054688 5.511589 -0.562500
v -0.082355 5.504175 -0.500000
v -0.082355 5.504175 -0.562500
v -0.054688 5.457161 -0.500000
v -0.054688 5.457161 -0.562500
v -0.082355 5.464575 -0.500000
v -0.082355 5.464575 -0.562500
v -0.081901 5.410026 -0.500000
v -0.081901 5.410026 -0.562500
v -0.102155 5.430280 -0.500000
v -0.102155 5.430280 -0.562500
v -0.129036 5.382812 -0.500000
v -0.129036 5.382812 -0.562500
v -0.136450 5.410480 -0.500000
v -0.136450 5.410480 -0.562500
v -0.183464 5.382812 -0.500000
v -0.183464 5.382812 -0.562500
v -0.176050 5.410480 -0.500000
v -0.176050 5.410480 -0.562500
v -0.230599 5.410026 -0.500000
v -0.230599 5.410026 -0.562500
v -0.210345 5.430280 -0.500000
v -0.210345 5.430280 -0.562500
v -0.257812 5.457161 -0.500000
v -0.257812 5.457161 -0.562500
v -0.230145 5.464575 -0.500000
v -0.230145 5.464575 -0.562500
v -0.257812 5.511589 -0.500000
v -0.257812 5.511589 -0.562500
v -0.230145 5.504175 -0.500000
v -0.230145 5.504175 -0.562500
v -0.230599 5.558724 -0.500000
v -0.230599 5.558724 -0.562500
v -0.210345 5.538470 -0.500000
v -0.210345 5.538470 -0.562500
v -0.183464 5.585938 -0.500000
v -0.183464 5.585938 -0.562500
v -0.176050 5.558270 -0.500000
v -0.176050 5.558270 -0.562500
v -0.093750 5.621875 -0.500000
v -0.093750 5.621875 -0.937500
v -0.093750 5.590625 -0.500000
v -0.093750 5.590625 -0.937500
v -0.218750 5.621875 -0.500000
v -0.218750 5.621875 -0.937500
v -0.218750 5.590625 -0.500000
v -0.218750 5.590625 -0.937500
v -0.285041 5.512500 -0.500000
v -0.285041 5.512500 -0.562500
v -0.285041 5.448889 -0.500000
v -0.285041 5.448889 -0.562500
v -0.316291 5.512500 -0.500000
v -0.316291 5.512500 -0.562500
v -0.316291 5.448889 -0.500000
v -0.316291 5.448889 -0.562500
v 0.003125 5.512500 -0.500000
v 0.003125 5.512500 -0.562500
v 0.003125 5.448889 -0.500000
v 0.003125 5.448889 -0.562500
v -0.028125 5.512500 -0.500000
v -0.028125 5.512500 -0.562500
v -0.028125 5.448889 -0.500000
v -0.028125 5.448889 -0.562500
v 0.265625 5.906250 -0.500000
v 0.265625 5.906250 -0.687500
v 0.265625 5.875000 -0.500000
v 0.265625 5.875000 -0.687500
v 0.171875 5.906250 -0.500000
v 0.171875 5.906250 -0.687500
v 0.171875 5.875000 -0.500000
v 0.171875 5.875000 -0.687500
v 0.218750 5.812500 -0.525000
v 0.233404 5.757812 -0.525000
v 0.258784 5.772466 -0.525000
v 0.273438 5.797846 -0.525000
v 0.273438 5.827154 -0.525000
v 0.258784 5.852534 -0.525000
v 0.233404 5.867188 -0.525000
v 0.204096 5.867188 -0.525000
v 0.178716 5.852534 -0.525000
v 0.164062 5.827154 -0.525000
v 0.164062 5.797846 -0.525000
v 0.178716 5.772466 -0.525000
v 0.204096 5.757812 -0.525000
v 0.235497 5.750000 -0.546875
v 0.235497 5.750000 -0.484375
v 0.227714 5.779045 -0.546875
v 0.227714 5.779045 -0.484375
v 0.264503 5.766747 -0.546875
v 0.264503 5.766747 -0.484375
v 0.243241 5.788009 -0.546875
v 0.243241 5.788009 -0.484375
v 0.281250 5.795753 -0.546875
v 0.281250 5.795753 -0.484375
v 0.252205 5.803535 -0.546875
v 0.252205 5.803535 -0.484375
v 0.281250 5.829247 -0.546875
v 0.281250 5.829247 -0.484375
v 0.252205 5.821465 -0.546875
v 0.252205 5.821465 -0.484375
v 0.264503 5.858253 -0.546875
v 0.264503 5.858253 -0.484375
v 0.243241 5.836991 -0.546875
v 0.243241 5.836991 -0.484375
v 0.235497 5.875000 -0.546875
v 0.235497 5.875000 -0.484375
v 0.227714 5.845955 -0.546875
v 0.227714 5.845955 -0.484375
v 0.202003 5.875000 -0.546875
v 0.202003 5.875000 -0.484375
v 0.209786 5.845955 -0.546875
v 0.209786 5.845955 -0.484375
v 0.172997 5.858253 -0.546875
v 0.172997 5.858253 -0.484375
v 0.194259 5.836991 -0.546875
v 0.194259 5.836991 -0.484375
v 0.156250 5.829247 -0.546875
v 0.156250 5.829247 -0.484375
v 0.185295 5.821465 -0.546875
v 0.185295 5.821465 -0.484375
v 0.156250 5.795753 -0.546875
v 0.156250 5.795753 -0.484375
v 0.185295 5.803535 -0.546875
v 0.185295 5.803535 -0.484375
v 0.172997 5.766747 -0.546875
v 0.172997 5.766747 -0.484375
v 0.194259 5.788009 -0.546875
v 0.194259 5.788009 -0.484375
v 0.202003 5.750000 -0.546875
v 0.202003 5.750000 -0.484375
v 0.209786 5.779045 -0.546875
v 0.209786 5.779045 -0.484375
v 0.156629 5.843561 -0.490625
v 0.156629 5.843561 -0.568750
v 0.156629 5.781061 -0.490625
v 0.156629 5.781061 -0.568750
v 0.125379 5.843561 -0.490625
v 0.125379 5.843561 -0.568750
v 0.125379 5.781061 -0.490625
v 0.125379 5.781061 -0.568750
v 0.312879 5.843561 -0.490625
v 0.312879 5.843561 -0.568750
v 0.312879 5.781061 -0.490625
v 0.312879 5.781061 -0.568750
v 0.281629 5.843561 -0.490625
v 0.281629 5.843561 -0.568750
v 0.281629 5.781061 -0.490625
v 0.281629 5.781061 -0.568750
v 0.125000 5.843750 -0.500000
v 0.125000 5.843750 -0.568750
v 0.156250 5.843750 -0.500000
v 0.156250 5.843750 -0.568750
v 0.312500 5.843750 -0.500000
v 0.312500 5.843750 -0.571875
v 0.281250 5.843750 -0.500000
v 0.281250 5.843750 -0.571875
vn 1.0000 -0.0000 -0.0000
vn -1.0000 -0.0000 -0.0000
vn -0.0000 1.0000 -0.0000
vn -0.0000 -1.0000 -0.0000
vn -0.0000 -0.0000 1.0000
vn -0.0000 -0.0000 -1.0000
vn 0.7071 -0.7071 -0.0000
vn -0.7071 0.7071 -0.0000
vn 0.7071 0.7071 -0.0000
vn -0.7071 -0.7071 -0.0000
vn -0.0000 -0.4472 -0.8944
vn -0.0000 -0.4472 0.8944
vn -0.1075 0.9942 -0.0000
vn 0.1075 -0.9942 -0.0000
vn -0.3162 0.9487 -0.0000
vn 0.3162 -0.9487 -0.0000
vn -0.8944 -0.4472 -0.0000
vn 0.8944 0.4472 -0.0000
vn -0.8944 0.4472 -0.0000
vn 0.8944 -0.4472 -0.0000
vn -0.0000 0.9848 -0.1736
vn -0.0000 -0.9848 0.1736
vn -0.0000 0.1736 0.9848
vn -0.0000 -0.1736 -0.9848
vn 0.7184 -0.6549 0.2346
vn -0.7184 0.6549 -0.2346
vn -0.0000 0.9414 -0.3372
vn -0.0000 -0.9414 0.3372
vn -0.0000 0.1655 0.9862
vn -0.0000 -0.1655 -0.9862
vn 0.7184 0.6549 -0.2346
vn -0.7184 -0.6549 0.2346
vn -0.0000 -0.7071 0.7071
vn 0.5470 0.7734 -0.3204
vn 0.5470 -0.3204 0.7734
vn 0.5774 -0.5773 -0.5774
vn -0.5470 0.7734 -0.3204
vn -0.5774 -0.5774 -0.5773
vn -0.5470 -0.3204 0.7734
vn 0.5774 -0.5774 -0.5773
vn 0.5469 -0.3204 0.7734
vn -0.5469 -0.3204 0.7734
vn -0.5773 -0.5774 -0.5774
vn 0.9267 -0.0000 -0.3757
vn -0.9267 -0.0000 0.3757
vn -0.0000 0.9910 -0.1339
vn -0.0000 -0.9910 0.1339
vn 0.9267 -0.0000 0.3757
vn -0.9267 -0.0000 -0.3757
vn -0.8309 -0.5564 -0.0000
vn 0.8387 0.5446 -0.0000
vn 0.8309 0.5564 -0.0000
vn -0.8387 -0.5446 -0.0000
vn -0.8480 0.5300 -0.0000
vn 0.8376 -0.5463 -0.0000
vn 0.8480 -0.5300 -0.0000
vn -0.8376 0.5463 -0.0000
vn 0.5000 0.8660 -0.0000
vn -0.5000 -0.8660 -0.0000
vn 0.8660 0.5000 -0.0000
vn -0.8660 -0.5000 -0.0000
vn 0.8660 -0.5000 -0.0000
vn -0.8660 0.5000 -0.0000
vn 0.5000 -0.8660 -0.0000
vn -0.5000 0.8660 -0.0000
vn 0.7486 0.6630 -0.0000
vn -0.7657 -0.6432 -0.0000
vn -0.0001 -0.9600 -0.2799
vn -0.0001 -0.9600 -0.2800
vn 0.7625 -0.6470 -0.0000
vn -0.7463 0.6656 -0.0000
vn 0.0001 -0.9790 -0.2039
vn 0.0001 -0.9790 -0.2040
vn -0.8000 0.6000 -0.0000
vn -0.9302 0.0001 -0.3671
vn -0.9301 0.0001 -0.3672
vn 0.8000 0.6000 -0.0000
vn 0.9267 0.0001 -0.3757
vt 0.015625 0.750000
vt 0.015625 1.000000
vt 0.078125 1.000000
vt 0.078125 0.750000
vt 0.000000 0.921875
vt 0.000000 0.984375
vt 0.062500 0.984375
vt 0.062500 0.921875
vt 0.000000 0.750000
vt 0.000000 1.000000
vt 0.062500 1.000000
vt 0.062500 0.750000
vt 0.015625 0.859375
vt 0.078125 0.859375
vt 0.000000 0.859375
vt 0.062500 0.859375
vt 0.015625 0.796875
vt 0.078125 0.796875
vt 0.000000 0.796875
vt 0.062500 0.796875
vt 0.000000 0.968750
vt 0.015625 0.984375
vt 0.015625 0.968750
vt 0.031250 0.984375
vt 0.031250 0.968750
vt 0.062500 0.968750
vt 0.046875 0.984375
vt 0.046875 0.968750
vt 0.046875 1.000000
vt 0.046875 0.953125
vt 0.062500 0.953125
vt 0.031250 0.750000
vt 0.031250 1.000000
vt 0.046875 0.750000
vt 0.171875 0.937500
vt 0.171875 0.953125
vt 0.109375 0.953125
vt 0.109375 0.937500
vt 0.028125 0.937500
vt 0.028125 1.000000
vt 0.000000 0.937500
vt 0.028125 0.984375
vt 0.156250 0.906250
vt 0.156250 0.921875
vt 0.093750 0.921875
vt 0.093750 0.906250
vt 0.046875 0.937500
vt 0.140625 0.906250
vt 0.140625 0.921875
vt 0.156250 0.875000
vt 0.093750 0.875000
vt 0.734375 0.718750
vt 0.734375 0.734375
vt 0.750000 0.734375
vt 0.750000 0.718750
vt 0.500000 0.718750
vt 0.500000 0.734375
vt 0.609375 0.734375
vt 0.609375 0.718750
vt 0.000000 0.578125
vt 0.000000 0.687500
vt 0.187500 0.687500
vt 0.187500 0.578125
vt 0.000000 0.500000
vt 0.187500 0.500000
vt 0.140625 1.000000
vt 0.140625 0.984375
vt 0.156250 0.984375
vt 0.156250 0.859375
vt 0.156250 1.000000
vt 0.007812 0.968750
vt 0.007812 1.000000
vt 0.028125 0.968750
vt 0.020312 1.000000
vt 0.020312 0.968750
vt 0.000000 0.971875
vt 0.000000 0.992188
vt 0.078125 0.992188
vt 0.078125 0.971875
vt 0.000000 0.979688
vt 0.078125 0.979688
vt 0.078125 0.968750
vt 0.437500 0.843750
vt 0.437500 1.000000
vt 0.515625 1.000000
vt 0.515625 0.843750
vt 0.265625 0.750000
vt 0.265625 0.828125
vt 0.390625 0.828125
vt 0.390625 0.750000
vt 0.265625 0.843750
vt 0.265625 1.000000
vt 0.390625 1.000000
vt 0.390625 0.843750
vt 0.078125 0.953125
vt 0.090625 1.000000
vt 0.090625 0.953125
vt 0.000000 0.953125
vt 0.012500 1.000000
vt 0.012500 0.953125
vt 0.000000 0.909375
vt 0.078125 0.921875
vt 0.078125 0.909375
vt 0.000000 0.987500
vt 0.078125 0.987500
vt 0.125000 1.000000
vt 0.125000 0.984375
vt 0.000000 0.875000
vt 0.250000 1.000000
vt 0.250000 0.875000
vt 0.250000 0.984375
vt 0.109375 1.000000
vt 0.109375 0.968750
vt 0.000000 0.000000
vt 0.000000 0.093750
vt 0.210938 0.093750
vt 0.210938 0.000000
vt 0.015625 0.906250
vt 0.226562 1.000000
vt 0.226562 0.906250
vt 0.218750 1.000000
vt 0.218750 0.968750
vt 0.210938 1.000000
vt 0.210938 0.968750
vt 0.015625 0.937500
vt 0.015625 0.953125
vt 0.007812 0.937500
vt 0.007812 0.953125
vt 0.101562 0.953125
vt 0.101562 0.937500
vt 0.125000 0.968750
vt 0.140625 0.968750
vt 0.031250 0.937500
vt 0.304688 0.423438
vt 0.304688 0.453125
vt 0.320312 0.453125
vt 0.320312 0.423438
vt 0.316406 0.429688
vt 0.316406 0.445312
vt 0.328125 0.445312
vt 0.328125 0.429688
vt 0.316406 0.423438
vt 0.316406 0.453125
vt 0.328125 0.453125
vt 0.328125 0.423438
vt 0.296875 0.423438
vt 0.296875 0.453125
vt 0.308594 0.453125
vt 0.308594 0.423438
vt 0.304688 0.437500
vt 0.304688 0.449219
vt 0.320312 0.449219
vt 0.320312 0.437500
vt 0.296875 0.429688
vt 0.296875 0.445312
vt 0.347656 0.445312
vt 0.347656 0.429688
vt 0.296875 0.437500
vt 0.296875 0.449219
vt 0.347656 0.449219
vt 0.347656 0.437500
vt 0.355469 0.449219
vt 0.355469 0.437500
vt 0.324219 0.445312
vt 0.355469 0.445312
vt 0.355469 0.429688
vt 0.324219 0.429688
vt 0.324219 0.449219
vt 0.324219 0.437500
vt 0.328125 0.449219
vt 0.328125 0.437500
vt 1.000000 0.937500
vt 1.000000 0.875000
vt 0.062500 0.000000
vt 0.937500 1.000000
vt 0.937500 0.000000
vt 0.062500 0.875000
vt 0.062500 0.937500
vt 0.937500 0.937500
vt 0.937500 0.875000
vt 0.000000 0.906250
vt 0.500000 0.937500
vt 0.500000 0.906250
vt 1.000000 0.906250
vt 0.968750 0.500000
vt 0.968750 1.000000
vt 1.000000 1.000000
vt 1.000000 0.500000
vt 0.968750 0.000000
vt 1.000000 0.000000
vt 0.968750 0.906250
vt 0.968750 0.937500
vt 0.031250 0.906250
vt 0.125000 0.000000
vt 0.125000 0.062500
vt 1.000000 0.062500
vt 0.125000 0.937500
vt 0.875000 0.937500
vt 0.875000 0.875000
vt 0.937500 0.906250
vt 0.062500 0.906250
vt 0.187500 0.031250
vt 0.187500 0.062500
vt 1.000000 0.031250
vt 0.187500 0.937500
vt 0.187500 0.968750
vt 1.000000 0.968750
vt 0.187500 0.906250
vt 0.812500 0.937500
vt 0.812500 0.906250
vt 0.625000 0.000000
vt 0.625000 0.031250
vt 0.625000 0.968750
vt 0.625000 1.000000
vt 0.625000 0.906250
vt 0.625000 0.937500
vt 0.375000 0.937500
vt 0.375000 0.906250
vt 0.031250 0.000000
vt 0.250000 0.031250
vt 0.250000 0.062500
vt 0.281250 0.062500
vt 0.281250 0.031250
vt 0.250000 0.937500
vt 0.250000 0.968750
vt 0.281250 0.968750
vt 0.281250 0.937500
vt 0.250000 0.000000
vt 0.281250 0.000000
vt 0.718750 0.000000
vt 0.718750 0.937500
vt 0.750000 0.937500
vt 0.750000 0.000000
vt 0.312500 0.062500
vt 0.312500 0.031250
vt 0.312500 0.968750
vt 0.312500 0.937500
vt 0.312500 0.000000
vt 0.687500 0.000000
vt 0.687500 0.937500
vt 0.281250 1.000000
vt 0.312500 1.000000
vt 0.250000 0.906250
vt 0.281250 0.906250
vt 0.718750 0.906250
vt 0.750000 0.906250
vt 0.500000 0.875000
vt 0.031250 0.500000
vt 0.218750 0.500000
vt 0.218750 0.000000
vt 0.031250 0.875000
vt 0.218750 0.937500
vt 0.218750 0.875000
vt 0.406250 0.875000
vt 0.406250 0.937500
vt 0.593750 0.937500
vt 0.593750 0.875000
vt 0.500000 0.812500
vt 1.000000 0.812500
vt 0.000000 0.812500
vt 0.156250 0.000000
vt 0.156250 0.500000
vt 0.156250 0.812500
vt 0.156250 0.937500
vt 0.218750 0.812500
vt 0.406250 0.812500
vt 0.468750 0.937500
vt 0.468750 0.812500
vt 0.515625 0.515625
vt 0.515625 0.718750
vt 0.500000 0.515625
vt 0.515625 0.734375
vt 0.937500 0.812500
vt 0.937500 0.062500
vt 0.062500 0.812500
vt 0.703125 0.718750
vt 0.703125 0.734375
vt 0.546875 0.734375
vt 0.546875 0.718750
vt 0.125000 0.171875
vt 0.125000 0.990625
vt 0.031250 0.990625
vt 0.031250 0.171875
vt 0.093750 0.171875
vt 0.093750 0.990625
vt 0.000000 0.990625
vt 0.000000 0.171875
vt 0.125000 0.906250
vt 0.125000 0.875000
vt 0.062500 0.990625
vt 0.062500 0.171875
vt 0.125000 0.181250
vt 0.031250 0.181250
vt 0.093750 0.181250
vt 0.093750 1.000000
vt 0.000000 0.181250
vt 0.062500 0.181250
vt 1.000000 0.625000
vt 1.000000 0.687500
vt 0.468750 0.687500
vt 0.468750 0.625000
vt 0.843750 0.562500
vt 0.843750 0.625000
vt 0.312500 0.625000
vt 0.312500 0.562500
vt 0.656250 0.218750
vt 0.656250 0.750000
vt 0.156250 0.750000
vt 0.156250 0.218750
vt 0.500000 0.375000
vt 0.000000 0.375000
vt 0.718750 0.750000
vt 0.718750 0.812500
vt 0.218750 0.750000
vt 0.843750 0.500000
vt 0.343750 0.562500
vt 0.343750 0.500000
vt 0.937500 0.968750
vt 0.843750 0.968750
vt 0.843750 0.937500
vt 0.156250 0.968750
vt 0.125000 0.843750
vt 0.062500 0.843750
vt 0.125000 0.156250
vt 0.062500 0.156250
vt 0.062500 0.062500
vt 0.562500 0.937500
vt 0.562500 0.968750
vt 0.437500 0.968750
vt 0.437500 0.937500
vt 0.125000 0.562500
vt 0.093750 0.562500
vt 0.093750 0.000000
vt 0.125000 0.437500
vt 0.093750 0.437500
vt 0.093750 0.968750
vt 0.093750 0.937500
vt 0.750000 1.000000
vt 0.750000 0.875000
vt 0.750000 0.968750
vt 0.500000 1.000000
vt 0.500000 0.968750
vt 0.312500 0.843750
vt 0.603553 0.906250
vt 0.603553 1.000000
vt 0.603553 0.875000
vt 0.603553 0.968750
vt 0.603553 0.937500
vt 0.137500 0.875000
vt 0.137500 1.000000
vt 0.150000 0.875000
vt 0.150000 1.000000
vt 0.012500 0.875000
vt 0.187500 1.000000
vt 0.125000 0.812500
vt 0.125000 0.343750
vt 0.093750 0.343750
vt 0.031250 0.343750
vt 0.000000 0.343750
vt 0.062500 0.343750
vt 0.468750 1.000000
vt 0.125000 0.531250
vt 0.062500 0.531250
vt 0.125000 0.500000
vt 0.062500 0.500000
vt 0.531250 0.796875
vt 0.531250 1.000000
vt 0.546875 1.000000
vt 0.546875 0.796875
vt 0.531250 0.984375
vt 0.671875 1.000000
vt 0.671875 0.984375
vt 0.140625 0.796875
vt 0.671875 0.796875
vt 0.671875 0.968750
vt 0.673437 0.968750
vt 0.673437 0.882812
vt 0.671875 0.882812
vt 0.670313 0.968750
vt 0.670313 0.882812
vt 0.671875 0.954687
vt 0.687500 0.954687
vt 0.687500 0.953125
vt 0.671875 0.953125
vt 0.687500 0.951563
vt 0.671875 0.951563
vt 0.687500 0.968750
vt 0.687500 0.882812
vt 0.656250 0.968750
vt 0.656250 0.882812
vt 0.656250 0.859375
vt 0.657031 0.859375
vt 0.657031 0.800781
vt 0.656250 0.800781
vt 0.671094 0.859375
vt 0.671875 0.859375
vt 0.671875 0.800781
vt 0.671094 0.800781
vt 0.658203 0.840014
vt 0.687500 0.840014
vt 0.687500 0.838995
vt 0.658203 0.838995
vt 0.658203 0.859375
vt 0.687500 0.859375
vt 0.687500 0.800781
vt 0.658203 0.800781
vt 0.685547 0.859375
vt 0.685547 0.800781
vt 0.468750 0.468750
vt 0.468750 0.718750
vt 0.453125 0.718750
vt 0.453125 0.468750
vt 0.296875 0.468750
vt 0.296875 0.718750
vt 0.281250 0.718750
vt 0.281250 0.468750
vt 0.468750 0.703125
vt 0.281250 0.703125
vt 0.468750 0.484375
vt 0.281250 0.484375
vt 0.437500 0.718750
vt 0.437500 0.468750
vt 0.312500 0.468750
vt 0.312500 0.718750
vt 0.281250 0.687500
vt 0.468750 0.500000
vt 0.281250 0.500000
vt 0.031250 0.109375
vt 0.031250 0.125000
vt 0.000000 0.125000
vt 0.000000 0.109375
vt 0.324762 0.675237
vt 0.375000 0.762263
vt 0.187500 0.812500
vt 0.375000 0.862737
vt 0.324762 0.949763
vt 0.237738 1.000000
vt 0.137262 1.000000
vt 0.050237 0.949763
vt 0.000000 0.862737
vt 0.000000 0.762263
vt 0.050237 0.675237
vt 0.137262 0.625000
vt 0.237738 0.625000
vt 0.296875 0.343750
vt 0.310481 0.343750
vt 0.310481 0.359375
vt 0.296875 0.359375
vt 0.306775 0.359375
vt 0.306775 0.343750
vt 0.296875 0.357521
vt 0.296875 0.347621
vt 0.303793 0.345768
vt 0.303792 0.359375
vt 0.296875 0.352457
vt 0.310482 0.352457
vt 0.308628 0.359375
vt 0.298728 0.359375
vt 0.296875 0.357522
vt 0.296875 0.347622
vt 0.303792 0.345768
vt 0.303793 0.359375
vt 0.308629 0.359375
vt 0.298729 0.359375
vt 0.296875 0.357522
vt 0.296875 0.347622
vt 0.303792 0.345769
vt 0.303792 0.359375
vt 0.298728 0.359375
vt 0.296875 0.352457
vt 0.310482 0.352458
vt 0.303793 0.345768
vt 0.303793 0.359375
vt 0.296875 0.357521
vt 0.296875 0.347621
vt 0.308629 0.359375
vt 0.298729 0.359375
vt 0.296875 0.352458
vt 0.310482 0.352457
vt 0.296875 0.357522
vt 0.308628 0.359375
vt 0.298728 0.359375
vt 0.296875 0.352458
vt 0.310481 0.352458
vt 0.298728 0.352458
vt 0.308628 0.352458
vt 0.303793 0.347622
vt 0.303793 0.357522
vt 0.296876 0.345768
vt 0.310482 0.359375
vt 0.298729 0.352457
vt 0.308629 0.352458
vt 0.303793 0.347621
vt 0.303793 0.357521
vt 0.296876 0.359375
vt 0.296875 0.345768
vt 0.298728 0.352458
vt 0.308628 0.352457
vt 0.303792 0.347622
vt 0.303792 0.357522
vt 0.296875 0.345769
vt 0.298729 0.352457
vt 0.308629 0.352457
vt 0.296875 0.359374
vt 0.303793 0.347622
vt 0.303792 0.357522
vt 0.298728 0.352457
vt 0.308628 0.352457
vt 0.310482 0.359374
vt 0.303792 0.347621
vt 0.303793 0.357521
vt 0.343750 0.351562
vt 0.343750 0.359375
vt 0.312500 0.359375
vt 0.312500 0.351562
vt 0.312500 0.375000
vt 0.281250 0.375000
vt 0.359375 0.367188
vt 0.359375 0.375000
vt 0.328125 0.375000
vt 0.328125 0.367188
vt 0.296875 0.375000
vt 0.296875 0.367188
vt 0.406250 0.452847
vt 0.406250 0.468750
vt 0.390625 0.468750
vt 0.390625 0.452847
vt 0.437500 0.452847
vt 0.421875 0.468750
vt 0.421875 0.452847
vt 0.367802 0.406250
vt 0.367802 0.421875
vt 0.359990 0.421875
vt 0.359990 0.406250
vt 0.367802 0.359375
vt 0.367802 0.375000
vt 0.359990 0.375000
vt 0.359990 0.359375
vt 0.399052 0.390347
vt 0.399052 0.406250
vt 0.391240 0.406250
vt 0.391240 0.390347
vt 0.359375 0.390347
vt 0.359375 0.406250
vt 0.351562 0.406250
vt 0.351562 0.390347
vt 0.375000 0.343472
vt 0.375000 0.359375
vt 0.359375 0.359375
vt 0.359375 0.343472
vt 0.367802 0.453125
vt 0.367802 0.468750
vt 0.359990 0.468750
vt 0.359990 0.453125
vt 0.399052 0.421875
vt 0.399052 0.437500
vt 0.391240 0.437500
vt 0.391240 0.421875
vt 0.414677 0.452847
vt 0.414677 0.468750
vt 0.406865 0.468750
vt 0.406865 0.452847
vt 0.343750 0.343472
vt 0.335938 0.359375
vt 0.335938 0.343472
vt 0.375000 0.421875
vt 0.421875 0.421875
vt 0.375000 0.468750
vt 0.343750 0.343750
vt 0.343750 0.390625
vt 0.296875 0.390625
vt 0.375000 0.375000
vt 0.328125 0.359375
vt 0.390625 0.453125
vt 0.343750 0.453125
vt 0.343750 0.437500
vt 0.390625 0.437500
vt 0.312500 0.406250
vt 0.359375 0.453125
vt 0.312500 0.453125
vt 0.390625 0.390625
vt 0.375000 0.328125
vt 0.375000 0.343750
vt 0.328125 0.343750
vt 0.328125 0.328125
vt 0.312500 0.437500
vt 0.359375 0.437500
vt 0.265625 0.453125
vt 0.265625 0.437500
vt 0.296875 0.406250
vt 0.265625 0.406250
vt 0.210781 0.797031
vt 0.125000 0.882812
vt 0.242188 0.851406
vt 0.242188 0.914219
vt 0.210781 0.968594
vt 0.156406 1.000000
vt 0.093594 1.000000
vt 0.039219 0.968594
vt 0.007812 0.914219
vt 0.007812 0.851406
vt 0.039219 0.797031
vt 0.093594 0.765625
vt 0.156406 0.765625
vt 0.281250 0.343750
vt 0.289622 0.343750
vt 0.289622 0.359375
vt 0.281250 0.359375
vt 0.285731 0.359375
vt 0.285731 0.343750
vt 0.281250 0.357427
vt 0.281250 0.352945
vt 0.288514 0.351001
vt 0.288510 0.359375
vt 0.281250 0.352112
vt 0.289624 0.352112
vt 0.287677 0.359375
vt 0.283195 0.359373
vt 0.281250 0.357431
vt 0.281250 0.352948
vt 0.288510 0.351001
vt 0.288514 0.359375
vt 0.287680 0.359373
vt 0.283197 0.359375
vt 0.281250 0.357430
vt 0.281250 0.352948
vt 0.288511 0.351003
vt 0.288511 0.359375
vt 0.287677 0.359375
vt 0.283194 0.359375
vt 0.281250 0.352111
vt 0.289624 0.352115
vt 0.288513 0.351001
vt 0.288513 0.359375
vt 0.281250 0.357428
vt 0.281252 0.352945
vt 0.287680 0.359375
vt 0.283198 0.359375
vt 0.281250 0.352115
vt 0.289624 0.352111
vt 0.281252 0.357430
vt 0.281250 0.352948
vt 0.287677 0.359375
vt 0.283195 0.359375
vt 0.281250 0.352114
vt 0.289622 0.352114
vt 0.283195 0.352114
vt 0.287677 0.352114
vt 0.288514 0.352948
vt 0.288514 0.357431
vt 0.281254 0.351001
vt 0.289624 0.359375
vt 0.283197 0.352112
vt 0.287680 0.352114
vt 0.288514 0.352945
vt 0.288514 0.357427
vt 0.281254 0.359375
vt 0.281250 0.351001
vt 0.283195 0.352114
vt 0.287677 0.352112
vt 0.288511 0.352948
vt 0.288511 0.357430
vt 0.281250 0.351003
vt 0.283198 0.352111
vt 0.287680 0.352111
vt 0.281250 0.359371
vt 0.288513 0.352948
vt 0.288511 0.357430
vt 0.283194 0.352111
vt 0.287677 0.352111
vt 0.289624 0.359371
vt 0.288511 0.352945
vt 0.288513 0.357428
vt 0.324219 0.421875
vt 0.312500 0.421875
vt 0.343750 0.421875
vt 0.332031 0.437500
vt 0.332031 0.421875
vt 0.328125 0.406250
vt 0.328125 0.417969
vt 0.320312 0.417969
vt 0.320312 0.406250
vt 0.328125 0.347656
vt 0.320312 0.359375
vt 0.320312 0.347656
vt 0.312500 0.390625
vt 0.304688 0.390625
vt 0.304688 0.375000
vt 0.335938 0.515625
vt 0.335938 0.531250
vt 0.328125 0.531250
vt 0.328125 0.515625
vt 0.292969 0.406250
vt 0.292969 0.421875
vt 0.281250 0.421875
vt 0.281250 0.406250
vt 0.300781 0.421875
vt 0.300781 0.406250
vt 0.296875 0.402344
vt 0.289062 0.402344
vt 0.289062 0.390625
vt 0.296875 0.410156
vt 0.296875 0.421875
vt 0.289062 0.421875
vt 0.289062 0.410156
vt 0.328125 0.421875
vt 0.320312 0.421875
vt 0.390625 0.359375
vt 0.390625 0.421875
vt 0.390625 0.343750
vt 0.390625 0.406250
vt 0.359375 0.343750
vt 0.375000 0.406250
vt 0.312500 0.343750
vt 0.375000 0.390625
vt 0.312500 0.328125
s 1
usemtl m_3d215661-f591-00a8-53e2-d8d611c756be.004
f 4/1/1 2/2/1 1/3/1 3/4/1
f 7/1/2 5/2/2 6/3/2 8/4/2
f 1/5/3 2/6/3 6/7/3 5/8/3
f 4/5/4 3/6/4 7/7/4 8/8/4
f 3/9/5 1/10/5 5/11/5 7/12/5
f 8/1/6 6/2/6 2/3/6 4/4/6
f 2/1/1 10/2/1 9/3/1 1/4/1
f 5/1/2 11/2/2 12/3/2 6/4/2
f 9/5/3 10/6/3 12/7/3 11/8/3
f 1/9/5 9/10/5 11/11/5 5/12/5
f 6/1/6 12/2/6 10/3/6 2/4/6
f 10/13/1 14/2/1 13/3/1 9/14/1
f 11/13/2 15/2/2 16/3/2 12/14/2
f 13/5/3 14/6/3 16/7/3 15/8/3
f 9/15/5 13/10/5 15/11/5 11/16/5
f 12/13/6 16/2/6 14/3/6 10/14/6
f 18/17/1 4/2/1 3/3/1 17/18/1
f 19/17/2 7/2/2 8/3/2 20/18/2
f 18/5/4 17/6/4 19/7/4 20/8/4
f 17/19/5 3/10/5 7/11/5 19/20/5
f 20/17/6 8/2/6 4/3/6 18/18/6
f 24/21/1 22/6/1 21/22/1 23/23/1
f 27/23/2 25/22/2 26/24/2 28/25/2
f 21/22/3 22/2/3 26/11/3 25/7/3
f 24/23/4 23/22/4 27/7/4 28/26/4
f 23/23/5 21/22/5 25/7/5 27/26/5
f 28/21/6 26/6/6 22/27/6 24/28/6
f 32/21/1 30/6/1 29/24/1 31/25/1
f 34/23/2 33/22/2 25/27/2 27/28/2
f 29/28/3 30/29/3 25/11/3 33/26/3
f 32/30/4 31/27/4 34/7/4 27/31/4
f 31/28/5 29/27/5 33/7/5 34/26/5
f 27/21/6 25/6/6 30/22/6 32/23/6
f 38/21/1 36/6/1 35/22/1 37/23/1
f 40/23/2 39/22/2 33/24/2 34/25/2
f 35/22/3 36/2/3 33/11/3 39/7/3
f 38/23/4 37/22/4 40/7/4 34/26/4
f 37/23/5 35/22/5 39/7/5 40/26/5
f 34/21/6 33/6/6 36/27/6 38/28/6
f 44/21/1 42/6/1 41/22/1 43/23/1
f 47/23/2 45/22/2 46/24/2 48/25/2
f 41/22/3 42/2/3 46/11/3 45/7/3
f 44/23/4 43/22/4 47/7/4 48/26/4
f 43/23/5 41/22/5 45/7/5 47/26/5
f 48/21/6 46/6/6 42/27/6 44/28/6
f 52/21/1 50/6/1 49/24/1 51/25/1
f 54/23/2 53/22/2 45/27/2 47/28/2
f 49/28/3 50/29/3 45/11/3 53/26/3
f 52/30/4 51/27/4 54/7/4 47/31/4
f 51/28/5 49/27/5 53/7/5 54/26/5
f 47/21/6 45/6/6 50/22/6 52/23/6
f 58/21/1 56/6/1 55/22/1 57/23/1
f 60/23/2 59/22/2 53/24/2 54/25/2
f 55/22/3 56/2/3 53/11/3 59/7/3
f 58/23/4 57/22/4 60/7/4 54/26/4
f 57/23/5 55/22/5 59/7/5 60/26/5
f 54/21/6 53/6/6 56/27/6 58/28/6
f 64/21/1 62/6/1 61/24/1 63/25/1
f 67/23/2 65/22/2 66/27/2 68/28/2
f 61/28/3 62/29/3 66/11/3 65/26/3
f 64/30/4 63/27/4 67/7/4 68/31/4
f 63/28/5 61/27/5 65/7/5 67/26/5
f 68/21/6 66/6/6 62/22/6 64/23/6
f 72/21/1 70/6/1 69/22/1 71/23/1
f 74/23/2 73/22/2 65/24/2 67/25/2
f 69/22/3 70/2/3 65/11/3 73/7/3
f 72/23/4 71/22/4 74/7/4 67/26/4
f 71/23/5 69/22/5 73/7/5 74/26/5
f 67/21/6 65/6/6 70/27/6 72/28/6
f 78/21/1 76/6/1 75/22/1 77/23/1
f 68/23/2 66/22/2 79/24/2 80/25/2
f 75/22/3 76/2/3 79/11/3 66/7/3
f 78/23/4 77/22/4 68/7/4 80/26/4
f 77/23/5 75/22/5 66/7/5 68/26/5
f 80/21/6 79/6/6 76/27/6 78/28/6
f 84/32/1 82/33/1 81/10/1 83/9/1
f 87/32/2 85/33/2 86/10/2 88/9/2
f 81/28/3 82/29/3 86/10/3 85/21/3
f 84/28/4 83/29/4 87/10/4 88/21/4
f 83/34/5 81/29/5 85/10/5 87/9/5
f 88/34/6 86/29/6 82/10/6 84/9/6
f 92/32/1 90/33/1 89/10/1 91/9/1
f 95/32/2 93/33/2 94/10/2 96/9/2
f 89/28/3 90/29/3 94/10/3 93/21/3
f 92/28/4 91/29/4 95/10/4 96/21/4
f 91/34/5 89/29/5 93/10/5 95/9/5
f 96/34/6 94/29/6 90/10/6 92/9/6
f 98/35/1 81/36/1 90/37/1 97/38/1
f 99/35/2 94/36/2 85/37/2 100/38/2
f 90/39/3 81/40/3 85/10/3 94/41/3
f 98/39/4 97/40/4 99/10/4 100/41/4
f 97/42/5 90/40/5 94/10/5 99/6/5
f 100/42/6 85/40/6 81/10/6 98/6/6
f 104/43/1 102/44/1 101/45/1 103/46/1
f 107/43/2 105/44/2 106/45/2 108/46/2
f 101/47/3 102/29/3 106/10/3 105/41/3
f 104/47/4 103/29/4 107/10/4 108/41/4
f 103/48/5 101/49/5 105/45/5 107/46/5
f 108/48/6 106/49/6 102/45/6 104/46/6
f 112/50/1 110/44/1 109/45/1 111/51/1
f 115/50/2 113/44/2 114/45/2 116/51/2
f 109/47/3 110/29/3 114/10/3 113/41/3
f 112/47/4 111/29/4 115/10/4 116/41/4
f 111/48/5 109/49/5 113/45/5 115/46/5
f 116/48/6 114/49/6 110/45/6 112/46/6
f 120/52/1 118/53/1 117/54/1 119/55/1
f 123/52/2 121/53/2 122/54/2 124/55/2
f 117/56/3 118/57/3 122/58/3 121/59/3
f 120/56/4 119/57/4 123/58/4 124/59/4
f 119/56/5 117/57/5 121/58/5 123/59/5
f 124/56/6 122/57/6 118/58/6 120/59/6
f 128/52/1 126/53/1 125/54/1 127/55/1
f 131/52/2 129/53/2 130/54/2 132/55/2
f 125/56/3 126/57/3 130/58/3 129/59/3
f 128/56/4 127/57/4 131/58/4 132/59/4
f 127/56/5 125/57/5 129/58/5 131/59/5
f 132/56/6 130/57/6 126/58/6 128/59/6
f 136/52/1 134/53/1 133/54/1 135/55/1
f 139/52/2 137/53/2 138/54/2 140/55/2
f 133/56/3 134/57/3 138/58/3 137/59/3
f 136/56/4 135/57/4 139/58/4 140/59/4
f 135/56/5 133/57/5 137/58/5 139/59/5
f 140/56/6 138/57/6 134/58/6 136/59/6
f 144/52/1 142/53/1 141/54/1 143/55/1
f 147/52/2 145/53/2 146/54/2 148/55/2
f 141/56/3 142/57/3 146/58/3 145/59/3
f 144/56/4 143/57/4 147/58/4 148/59/4
f 143/56/5 141/57/5 145/58/5 147/59/5
f 148/56/6 146/57/6 142/58/6 144/59/6
f 152/60/1 150/61/1 149/62/1 151/63/1
f 155/60/2 153/61/2 154/62/2 156/63/2
f 149/64/3 150/61/3 154/62/3 153/65/3
f 152/64/4 151/61/4 155/62/4 156/65/4
f 151/60/5 149/61/5 153/62/5 155/63/5
f 156/60/6 154/61/6 150/62/6 152/63/6
f 160/22/1 158/2/1 157/66/1 159/67/1
f 163/22/2 161/2/2 162/66/2 164/67/2
f 157/15/3 158/6/3 162/68/3 161/69/3
f 160/15/4 159/6/4 163/68/4 164/69/4
f 159/6/5 157/10/5 161/70/5 163/68/5
f 164/6/6 162/10/6 158/70/6 160/68/6
f 168/71/7 166/72/7 165/40/7 167/73/7
f 171/21/8 169/10/8 170/74/8 172/75/8
f 165/76/9 166/77/9 170/78/9 169/79/9
f 168/80/10 167/10/10 171/3/10 172/81/10
f 167/21/5 165/10/5 169/3/5 171/82/5
f 172/21/6 170/10/6 166/3/6 168/82/6
f 176/71/9 174/72/9 173/40/9 175/73/9
f 179/21/10 177/10/10 178/74/10 180/75/10
f 173/76/8 174/77/8 178/78/8 177/79/8
f 176/80/7 175/10/7 179/3/7 180/81/7
f 175/21/5 173/10/5 177/3/5 179/82/5
f 180/21/6 178/10/6 174/3/6 176/82/6
f 184/21/9 182/10/9 181/74/9 183/75/9
f 187/71/10 185/72/10 186/40/10 188/73/10
f 181/80/8 182/10/8 186/3/8 185/81/8
f 184/76/7 183/77/7 187/78/7 188/79/7
f 183/21/5 181/10/5 185/3/5 187/82/5
f 188/21/6 186/10/6 182/3/6 184/82/6
f 192/21/7 190/10/7 189/74/7 191/75/7
f 195/71/8 193/72/8 194/40/8 196/73/8
f 189/80/9 190/10/9 194/3/9 193/81/9
f 192/76/10 191/77/10 195/78/10 196/79/10
f 191/21/5 189/10/5 193/3/5 195/82/5
f 196/21/6 194/10/6 190/3/6 192/82/6
f 200/83/1 198/84/1 197/85/1 199/86/1
f 202/83/2 201/84/2 40/85/2 203/86/2
f 197/87/3 198/88/3 40/89/3 201/90/3
f 200/87/4 199/88/4 202/89/4 203/90/4
f 199/91/5 197/92/5 201/93/5 202/94/5
f 203/91/6 40/92/6 198/93/6 200/94/6
f 207/95/7 205/3/7 204/96/7 206/97/7
f 210/98/8 208/10/8 209/99/8 211/100/8
f 204/101/9 205/5/9 209/102/9 208/103/9
f 207/104/10 206/10/10 210/3/10 211/105/10
f 206/98/5 204/10/5 208/3/5 210/95/5
f 211/98/6 209/10/6 205/3/6 207/95/6
f 215/95/7 213/3/7 212/96/7 214/97/7
f 218/98/8 216/10/8 217/99/8 219/100/8
f 212/101/9 213/5/9 217/102/9 216/103/9
f 215/104/10 214/10/10 218/3/10 219/105/10
f 214/98/5 212/10/5 216/3/5 218/95/5
f 219/98/6 217/10/6 213/3/6 215/95/6
f 223/6/1 221/10/1 220/106/1 222/107/1
f 226/6/2 224/10/2 225/106/2 227/107/2
f 220/108/3 221/10/3 225/109/3 224/110/3
f 223/108/4 222/10/4 226/109/4 227/110/4
f 222/6/5 220/10/5 224/109/5 226/111/5
f 227/6/6 225/10/6 221/109/6 223/111/6
f 231/23/1 229/2/1 228/112/1 230/113/1
f 234/23/2 232/2/2 233/112/2 235/113/2
f 228/114/3 229/115/3 233/116/3 232/117/3
f 231/118/4 230/2/4 234/119/4 235/120/4
f 230/71/5 228/72/5 232/121/5 234/122/5
f 235/21/6 233/10/6 229/123/6 231/124/6
f 238/23/2 236/2/2 237/112/2 239/113/2
f 232/114/3 233/115/3 237/116/3 236/117/3
f 235/118/4 234/2/4 238/119/4 239/120/4
f 234/71/5 232/72/5 236/121/5 238/122/5
f 239/21/6 237/10/6 233/123/6 235/124/6
f 229/125/1 241/126/1 240/37/1 228/38/1
f 244/125/2 242/126/2 243/37/2 245/38/2
f 240/114/3 241/115/3 243/116/3 242/117/3
f 229/114/4 228/115/4 244/116/4 245/117/4
f 228/127/5 240/128/5 242/37/5 244/38/5
f 245/41/6 243/98/6 241/129/6 229/130/6
f 233/112/2 246/106/2 235/131/2
f 248/106/1 247/66/1 249/131/1
f 248/107/3 246/67/3 233/132/3 247/131/3
f 247/106/5 233/66/5 235/132/5 249/131/5
f 246/112/11 248/106/11 249/131/11 235/113/11
f 250/112/2 251/106/2 252/131/2
f 254/106/1 253/66/1 255/131/1
f 254/107/3 251/67/3 250/132/3 253/131/3
f 253/106/5 250/66/5 252/132/5 255/131/5
f 251/112/11 254/106/11 255/131/11 252/113/11
f 256/112/2 257/106/2 258/131/2
f 260/106/1 259/66/1 261/131/1
f 260/107/3 257/67/3 256/132/3 259/131/3
f 259/106/5 256/66/5 258/132/5 261/131/5
f 257/112/11 260/106/11 261/131/11 258/113/11
f 262/112/2 263/106/2 264/131/2
f 266/106/1 265/66/1 267/131/1
f 266/107/3 263/67/3 262/132/3 265/131/3
f 265/106/5 262/66/5 264/132/5 267/131/5
f 263/112/11 266/106/11 267/131/11 264/113/11
f 268/112/2 269/106/2 270/131/2
f 223/106/1 245/66/1 271/131/1
f 223/107/3 269/67/3 268/132/3 245/131/3
f 245/106/5 268/66/5 270/132/5 271/131/5
f 269/112/11 223/106/11 271/131/11 270/113/11
f 273/106/2 272/112/2 274/131/2
f 275/66/1 276/106/1 277/131/1
f 272/132/3 273/67/3 276/107/3 275/131/3
f 274/132/6 272/66/6 275/106/6 277/131/6
f 277/131/12 276/106/12 273/112/12 274/113/12
f 279/106/2 278/112/2 280/131/2
f 281/66/1 282/106/1 283/131/1
f 278/132/3 279/67/3 282/107/3 281/131/3
f 280/132/6 278/66/6 281/106/6 283/131/6
f 283/131/12 282/106/12 279/112/12 280/113/12
f 285/106/2 284/112/2 286/131/2
f 287/66/1 288/106/1 289/131/1
f 284/132/3 285/67/3 288/107/3 287/131/3
f 286/132/6 284/66/6 287/106/6 289/131/6
f 289/131/12 288/106/12 285/112/12 286/113/12
f 293/41/1 291/10/1 290/33/1 292/133/1
f 296/41/2 294/10/2 295/33/2 297/133/2
f 290/23/3 291/2/3 295/33/3 294/25/3
f 293/23/4 292/2/4 296/33/4 297/25/4
f 292/125/5 290/2/5 294/33/5 296/133/5
f 297/41/6 295/10/6 291/2/6 293/125/6
f 301/134/1 299/135/1 298/136/1 300/137/1
f 304/134/2 302/135/2 303/136/2 305/137/2
f 298/138/3 299/139/3 303/140/3 302/141/3
f 301/138/4 300/139/4 304/140/4 305/141/4
f 300/142/5 298/143/5 302/144/5 304/145/5
f 305/146/6 303/147/6 299/148/6 301/149/6
f 309/150/1 307/151/1 306/152/1 308/153/1
f 312/150/2 310/151/2 311/152/2 313/153/2
f 306/154/3 307/155/3 311/156/3 310/157/3
f 309/154/4 308/155/4 312/156/4 313/157/4
f 308/158/5 306/159/5 310/160/5 312/161/5
f 313/150/6 311/151/6 307/162/6 309/163/6
f 314/151/2 315/152/2 317/153/2 316/150/2
f 319/151/1 318/152/1 320/153/1 321/150/1
f 319/155/13 315/156/13 314/157/13 318/154/13
f 320/155/14 316/156/14 317/157/14 321/154/14
f 318/159/5 314/160/5 316/161/5 320/158/5
f 315/151/6 319/162/6 321/163/6 317/150/6
f 323/151/1 322/152/1 324/153/1 325/150/1
f 323/164/15 307/165/15 306/166/15 322/167/15
f 324/164/16 308/165/16 309/166/16 325/167/16
f 322/168/5 306/162/5 308/163/5 324/169/5
f 307/159/6 323/170/6 325/171/6 309/158/6
f 311/155/9 301/165/9 300/166/9 310/154/9
f 312/155/10 304/165/10 305/166/10 313/154/10
f 310/159/5 300/162/5 304/163/5 312/158/5
f 301/159/6 311/162/6 313/163/6 305/158/6
f 326/2/17 327/33/17 329/25/17 328/23/17
f 331/10/18 330/2/18 332/23/18 333/21/18
f 331/10/3 327/2/3 326/22/3 330/6/3
f 332/6/4 328/22/4 329/23/4 333/21/4
f 330/10/5 326/2/5 328/23/5 332/21/5
f 327/2/6 331/33/6 333/25/6 329/23/6
f 334/2/19 335/33/19 337/25/19 336/23/19
f 327/10/20 326/2/20 338/23/20 339/21/20
f 338/6/4 336/22/4 337/23/4 339/21/4
f 326/10/5 334/2/5 336/23/5 338/21/5
f 335/2/6 327/33/6 339/25/6 337/23/6
f 327/10/3 335/2/3 334/22/3 326/6/3
f 340/10/19 341/33/19 343/25/19 342/21/19
f 347/10/20 346/33/20 344/25/20 345/21/20
f 344/10/4 342/2/4 343/23/4 345/21/4
f 346/10/5 340/2/5 342/23/5 344/21/5
f 341/2/6 347/33/6 345/25/6 343/23/6
f 347/10/3 341/2/3 340/23/3 346/21/3
f 346/10/17 347/33/17 349/25/17 348/21/17
f 351/10/18 350/33/18 352/25/18 353/21/18
f 351/10/3 347/2/3 346/23/3 350/21/3
f 352/10/4 348/2/4 349/23/4 353/21/4
f 350/10/5 346/2/5 348/23/5 352/21/5
f 347/2/6 351/33/6 353/25/6 349/23/6
f 469/269/1 467/270/1 466/56/1 468/271/1
f 472/269/2 470/270/2 471/56/2 473/271/2
f 466/270/3 467/272/3 471/57/3 470/56/3
f 469/270/4 468/272/4 472/57/4 473/56/4
f 468/269/5 466/270/5 470/56/5 472/271/5
f 473/269/6 471/270/6 467/56/6 469/271/6
f 477/269/1 475/270/1 474/56/1 476/271/1
f 480/269/2 478/270/2 479/56/2 481/271/2
f 474/270/3 475/272/3 479/57/3 478/56/3
f 477/270/4 476/272/4 480/57/4 481/56/4
f 476/269/5 474/270/5 478/56/5 480/271/5
f 481/269/6 479/270/6 475/56/6 477/271/6
f 517/55/1 515/54/1 514/53/1 516/52/1
f 520/270/2 518/272/2 519/57/2 521/56/2
f 514/276/3 515/277/3 519/278/3 518/279/3
f 517/276/4 516/277/4 520/278/4 521/279/4
f 516/276/5 514/277/5 518/278/5 520/279/5
f 521/276/6 519/277/6 515/278/6 517/279/6
f 683/366/1 681/367/1 680/368/1 682/369/1
f 686/366/2 684/367/2 685/368/2 687/369/2
f 680/370/3 681/367/3 685/371/3 684/372/3
f 683/370/4 682/367/4 686/371/4 687/372/4
f 682/19/5 680/10/5 684/66/5 686/373/5
f 687/366/6 685/367/6 681/371/6 683/374/6
f 688/375/50 689/376/50 691/377/50 690/378/50
f 693/379/51 692/375/51 694/378/51 695/380/51
f 693/381/3 689/382/3 688/383/3 692/384/3
f 694/384/1 690/383/1 691/385/1 695/386/1
f 692/375/5 688/387/5 690/388/5 694/378/5
f 689/389/6 693/375/6 695/378/6 691/390/6
f 696/375/52 697/376/52 691/377/52 690/378/52
f 699/379/53 698/375/53 700/378/53 701/380/53
f 699/381/4 697/382/4 696/383/4 698/384/4
f 700/384/2 690/383/2 691/385/2 701/386/2
f 698/375/5 696/387/5 690/388/5 700/378/5
f 697/389/6 699/375/6 701/378/6 691/390/6
f 702/391/54 703/392/54 695/393/54 694/394/54
f 705/395/55 704/396/55 690/397/55 691/398/55
f 705/399/3 703/400/3 702/401/3 704/402/3
f 704/403/5 702/404/5 694/405/5 690/406/5
f 703/391/6 705/407/6 691/408/6 695/394/6
f 706/391/56 707/392/56 701/393/56 700/394/56
f 709/395/57 708/396/57 690/397/57 691/398/57
f 709/399/4 707/400/4 706/401/4 708/402/4
f 708/403/5 706/404/5 700/405/5 690/406/5
f 707/391/6 709/407/6 691/408/6 701/394/6
f 712/409/1 711/410/1 710/411/1 525/412/1
f 537/413/2 713/414/2 714/415/2 715/416/2
f 710/417/3 711/410/3 714/415/3 713/418/3
f 712/409/4 525/419/4 537/420/4 715/416/4
f 525/409/5 710/410/5 713/415/5 537/416/5
f 715/409/6 714/410/6 711/415/6 712/416/6
f 529/409/1 717/410/1 716/421/1 718/422/1
f 721/423/2 719/424/2 720/415/2 533/416/2
f 716/300/3 717/410/3 720/415/3 719/425/3
f 529/409/4 718/426/4 721/427/4 533/416/4
f 718/409/5 716/410/5 719/415/5 721/416/5
f 533/428/6 720/429/6 717/430/6 529/431/6
f 735/445/58 739/446/58 740/447/58 736/448/58
f 738/449/59 742/448/59 741/445/59 737/450/59
f 737/451/5 741/452/5 739/453/5 735/454/5
f 736/455/6 740/456/6 742/457/6 738/458/6
f 739/445/60 743/446/60 744/447/60 740/448/60
f 742/449/61 746/448/61 745/445/61 741/450/61
f 741/459/5 745/460/5 743/461/5 739/462/5
f 740/455/6 744/456/6 746/463/6 742/464/6
f 743/445/1 747/446/1 748/447/1 744/448/1
f 746/449/2 750/448/2 749/445/2 745/450/2
f 745/465/5 749/466/5 747/467/5 743/468/5
f 744/467/6 748/468/6 750/465/6 746/466/6
f 747/445/62 751/446/62 752/447/62 748/448/62
f 750/449/63 754/448/63 753/445/63 749/450/63
f 749/457/5 753/469/5 751/470/5 747/471/5
f 748/472/6 752/473/6 754/474/6 750/475/6
f 751/445/64 755/446/64 756/447/64 752/448/64
f 754/449/65 758/448/65 757/445/65 753/450/65
f 753/476/5 757/477/5 755/478/5 751/479/5
f 752/472/6 756/473/6 758/480/6 754/460/6
f 755/445/4 759/446/4 760/447/4 756/448/4
f 758/449/3 762/448/3 761/445/3 757/450/3
f 757/481/5 761/482/5 759/483/5 755/484/5
f 756/447/6 760/448/6 762/485/6 758/486/6
f 759/445/59 763/446/59 764/447/59 760/448/59
f 762/449/58 766/448/58 765/445/58 761/450/58
f 761/487/5 765/488/5 763/448/5 759/489/5
f 760/490/6 764/448/6 766/491/6 762/492/6
f 763/445/61 767/446/61 768/447/61 764/448/61
f 766/449/60 770/448/60 769/445/60 765/450/60
f 765/493/5 769/494/5 767/495/5 763/496/5
f 764/490/6 768/448/6 770/497/6 766/498/6
f 767/445/2 771/446/2 772/447/2 768/448/2
f 770/449/1 774/448/1 773/445/1 769/450/1
f 769/499/5 773/500/5 771/448/5 767/501/5
f 768/448/6 772/501/6 774/499/6 770/500/6
f 771/445/63 775/446/63 776/447/63 772/448/63
f 774/449/62 778/448/62 777/445/62 773/450/62
f 773/502/5 777/503/5 775/490/5 771/504/5
f 772/448/6 776/496/6 778/505/6 774/506/6
f 775/445/65 779/446/65 780/447/65 776/448/65
f 778/449/64 782/448/64 781/445/64 777/450/64
f 777/507/5 781/508/5 779/509/5 775/448/5
f 776/448/6 780/496/6 782/510/6 778/511/6
f 779/445/3 735/446/3 736/447/3 780/448/3
f 782/449/4 738/448/4 737/445/4 781/450/4
f 781/485/5 737/486/5 735/447/5 779/448/5
f 780/483/6 736/484/6 738/481/6 782/482/6
f 786/512/1 784/513/1 783/514/1 785/515/1
f 789/512/2 787/513/2 788/514/2 790/515/2
f 783/516/3 784/423/3 788/416/3 787/517/3
f 786/516/4 785/423/4 789/416/4 790/517/4
f 785/518/5 783/519/5 787/520/5 789/521/5
f 790/521/6 788/520/6 784/522/6 786/523/6
f 794/524/1 792/525/1 791/526/1 793/527/1
f 797/528/2 795/422/2 796/529/2 798/530/2
f 791/531/3 792/532/3 796/533/3 795/534/3
f 794/535/4 793/536/4 797/537/4 798/538/4
f 793/539/5 791/540/5 795/541/5 797/542/5
f 798/543/6 796/544/6 792/545/6 794/546/6
f 802/547/1 800/548/1 799/549/1 801/550/1
f 805/524/2 803/525/2 804/526/2 806/527/2
f 799/551/3 800/552/3 804/553/3 803/554/3
f 802/555/4 801/556/4 805/557/4 806/558/4
f 801/559/5 799/560/5 803/561/5 805/562/5
f 806/563/6 804/513/6 800/564/6 802/565/6
f 783/566/66 799/567/66 800/529/66 784/568/66
f 804/569/67 803/570/67 785/571/67 786/445/67
f 803/548/5 799/572/5 783/520/5 785/573/5
f 784/574/68 800/575/69 804/576/69 786/577/69
f 789/578/70 791/544/70 792/579/70 790/580/70
f 796/581/71 795/577/71 787/576/71 788/570/71
f 795/582/5 791/583/5 789/584/5 787/585/5
f 790/579/72 792/580/73 796/586/72 788/587/72
f 820/445/58 824/446/58 825/447/58 821/448/58
f 823/449/59 827/448/59 826/445/59 822/450/59
f 822/451/5 826/452/5 824/453/5 820/454/5
f 821/455/6 825/456/6 827/457/6 823/458/6
f 824/445/60 828/446/60 829/447/60 825/448/60
f 827/449/61 831/448/61 830/445/61 826/450/61
f 826/459/5 830/460/5 828/461/5 824/462/5
f 825/455/6 829/456/6 831/463/6 827/464/6
f 828/445/1 832/446/1 833/447/1 829/448/1
f 831/449/2 835/448/2 834/445/2 830/450/2
f 830/465/5 834/466/5 832/467/5 828/468/5
f 829/467/6 833/468/6 835/465/6 831/466/6
f 832/445/62 836/446/62 837/447/62 833/448/62
f 835/449/63 839/448/63 838/445/63 834/450/63
f 834/457/5 838/469/5 836/470/5 832/471/5
f 833/472/6 837/473/6 839/474/6 835/475/6
f 836/445/64 840/446/64 841/447/64 837/448/64
f 839/449/65 843/448/65 842/445/65 838/450/65
f 838/476/5 842/477/5 840/478/5 836/479/5
f 837/472/6 841/473/6 843/480/6 839/460/6
f 840/445/4 844/446/4 845/447/4 841/448/4
f 843/449/3 847/448/3 846/445/3 842/450/3
f 842/481/5 846/482/5 844/483/5 840/484/5
f 841/447/6 845/448/6 847/485/6 843/486/6
f 844/445/59 848/446/59 849/447/59 845/448/59
f 847/449/58 851/448/58 850/445/58 846/450/58
f 846/487/5 850/488/5 848/448/5 844/489/5
f 845/490/6 849/448/6 851/491/6 847/492/6
f 848/445/61 852/446/61 853/447/61 849/448/61
f 851/449/60 855/448/60 854/445/60 850/450/60
f 850/493/5 854/494/5 852/495/5 848/496/5
f 849/490/6 853/448/6 855/497/6 851/498/6
f 852/445/2 856/446/2 857/447/2 853/448/2
f 855/449/1 859/448/1 858/445/1 854/450/1
f 854/499/5 858/500/5 856/448/5 852/501/5
f 853/448/6 857/501/6 859/499/6 855/500/6
f 856/445/63 860/446/63 861/447/63 857/448/63
f 859/449/62 863/448/62 862/445/62 858/450/62
f 858/502/5 862/503/5 860/490/5 856/504/5
f 857/448/6 861/496/6 863/505/6 859/506/6
f 860/445/65 864/446/65 865/447/65 861/448/65
f 863/449/64 867/448/64 866/445/64 862/450/64
f 862/507/5 866/508/5 864/509/5 860/448/5
f 861/448/6 865/496/6 867/510/6 863/511/6
f 864/445/3 820/446/3 821/447/3 865/448/3
f 867/449/4 823/448/4 822/445/4 866/450/4
f 866/485/5 822/486/5 820/447/5 864/448/5
f 865/483/6 821/484/6 823/481/6 867/482/6
f 871/512/1 869/513/1 868/514/1 870/515/1
f 874/512/2 872/513/2 873/514/2 875/515/2
f 868/516/3 869/423/3 873/416/3 872/517/3
f 871/516/4 870/423/4 874/416/4 875/517/4
f 870/518/5 868/519/5 872/520/5 874/521/5
f 875/521/6 873/520/6 869/522/6 871/523/6
f 879/524/1 877/525/1 876/526/1 878/527/1
f 882/528/2 880/422/2 881/529/2 883/530/2
f 876/531/3 877/532/3 881/533/3 880/534/3
f 879/535/4 878/536/4 882/537/4 883/538/4
f 878/539/5 876/540/5 880/541/5 882/542/5
f 883/543/6 881/544/6 877/545/6 879/546/6
f 887/547/1 885/548/1 884/549/1 886/550/1
f 890/524/2 888/525/2 889/526/2 891/527/2
f 884/551/3 885/552/3 889/553/3 888/554/3
f 887/555/4 886/556/4 890/557/4 891/558/4
f 886/559/5 884/560/5 888/561/5 890/562/5
f 891/563/6 889/513/6 885/564/6 887/565/6
f 868/566/66 884/567/66 885/529/66 869/568/66
f 889/569/67 888/570/67 870/571/67 871/445/67
f 888/548/5 884/572/5 868/520/5 870/573/5
f 869/574/69 885/575/69 889/576/69 871/577/69
f 874/578/70 876/544/70 877/579/70 875/580/70
f 881/581/71 880/577/71 872/576/71 873/570/71
f 880/582/5 876/583/5 874/584/5 872/585/5
f 875/579/72 877/580/73 881/586/72 873/587/72
f 895/587/1 893/579/1 892/588/1 894/589/1
f 898/587/2 896/579/2 897/588/2 899/589/2
f 892/590/3 893/147/3 897/588/3 896/591/3
f 895/590/4 894/147/4 898/588/4 899/591/4
f 894/158/5 892/147/5 896/588/5 898/589/5
f 899/158/6 897/147/6 893/588/6 895/589/6
f 913/605/64 917/606/64 918/607/64 914/608/64
f 916/609/65 920/608/65 919/605/65 915/610/65
f 915/611/6 919/612/6 917/613/6 913/614/6
f 914/615/5 918/616/5 920/617/5 916/618/5
f 917/605/62 921/606/62 922/607/62 918/608/62
f 920/609/63 924/608/63 923/605/63 919/610/63
f 919/619/6 923/620/6 921/621/6 917/622/6
f 918/615/5 922/616/5 924/623/5 920/624/5
f 921/605/1 925/606/1 926/607/1 922/608/1
f 924/609/2 928/608/2 927/605/2 923/610/2
f 923/625/6 927/626/6 925/627/6 921/628/6
f 922/627/5 926/628/5 928/625/5 924/626/5
f 925/605/60 929/606/60 930/607/60 926/608/60
f 928/609/61 932/608/61 931/605/61 927/610/61
f 927/629/6 931/630/6 929/631/6 925/632/6
f 926/633/5 930/634/5 932/635/5 928/636/5
f 929/605/58 933/606/58 934/607/58 930/608/58
f 932/609/59 936/608/59 935/605/59 931/610/59
f 931/637/6 935/638/6 933/639/6 929/640/6
f 930/633/5 934/634/5 936/641/5 932/642/5
f 933/605/3 937/606/3 938/607/3 934/608/3
f 936/609/4 940/608/4 939/605/4 935/610/4
f 935/643/6 939/644/6 937/645/6 933/646/6
f 934/607/5 938/608/5 940/647/5 936/648/5
f 937/605/65 941/606/65 942/607/65 938/608/65
f 940/609/64 944/608/64 943/605/64 939/610/64
f 939/649/6 943/650/6 941/608/6 937/651/6
f 938/652/5 942/608/5 944/653/5 940/654/5
f 941/605/63 945/606/63 946/607/63 942/608/63
f 944/609/62 948/608/62 947/605/62 943/610/62
f 943/655/6 947/656/6 945/657/6 941/658/6
f 942/652/5 946/608/5 948/659/5 944/660/5
f 945/605/2 949/606/2 950/607/2 946/608/2
f 948/609/1 952/608/1 951/605/1 947/610/1
f 947/661/6 951/662/6 949/608/6 945/663/6
f 946/608/5 950/663/5 952/661/5 948/662/5
f 949/605/61 953/606/61 954/607/61 950/608/61
f 952/609/60 956/608/60 955/605/60 951/610/60
f 951/664/6 955/665/6 953/652/6 949/666/6
f 950/608/5 954/658/5 956/667/5 952/668/5
f 953/605/59 957/606/59 958/607/59 954/608/59
f 956/609/58 960/608/58 959/605/58 955/610/58
f 955/669/6 959/670/6 957/671/6 953/608/6
f 954/608/5 958/658/5 960/672/5 956/673/5
f 957/605/4 913/606/4 914/607/4 958/608/4
f 960/609/3 916/608/3 915/605/3 959/610/3
f 959/647/6 915/648/6 913/607/6 957/608/6
f 958/645/5 914/646/5 916/643/5 960/644/5
f 964/674/1 962/169/1 961/586/1 963/675/1
f 967/676/2 965/576/2 966/677/2 968/678/2
f 961/679/3 962/680/3 966/681/3 965/682/3
f 964/683/4 963/573/4 967/684/4 968/685/4
f 963/516/5 961/686/5 965/687/5 967/688/5
f 968/689/6 966/690/6 962/691/6 964/692/6
f 972/693/1 970/694/1 969/695/1 971/696/1
f 975/578/2 973/675/2 974/697/2 976/698/2
f 969/571/3 970/699/3 974/700/3 973/701/3
f 972/702/4 971/703/4 975/704/4 976/705/4
f 971/706/5 969/171/5 973/153/5 975/707/5
f 976/682/6 974/707/6 970/675/6 972/578/6
f 979/708/4 977/709/4 978/706/4 980/573/4
f 977/584/74 896/710/74 897/711/74 978/679/74
f 899/712/20 898/544/20 979/590/20 980/445/20
f 898/583/5 896/713/5 977/578/5 979/714/5
f 978/711/75 897/679/76 899/584/75 980/710/75
f 893/709/77 892/706/77 981/573/77 982/708/77
f 983/582/17 894/715/17 895/686/17 984/716/17
f 982/548/4 981/566/4 983/675/4 984/514/4
f 981/583/5 892/713/5 894/578/5 983/714/5
f 895/713/78 893/578/78 982/714/78 984/583/78
usemtl m_b2af6bd8-ffc8-ff72-7f7b-7b18782af15d.004
f 357/108/1 355/41/1 354/172/1 356/173/1
f 360/108/2 358/41/2 359/172/2 361/173/2
f 354/174/3 355/11/3 359/175/3 358/176/3
f 357/174/4 356/11/4 360/175/4 361/176/4
f 356/177/5 354/178/5 358/179/5 360/180/5
f 361/177/6 359/178/6 355/179/6 357/180/6
f 365/181/1 363/41/1 362/182/1 364/183/1
f 368/183/2 366/182/2 367/172/2 369/184/2
f 362/185/3 363/186/3 367/187/3 366/188/3
f 365/189/4 364/185/4 368/188/4 369/190/4
f 364/191/5 362/192/5 366/172/5 368/184/5
f 369/181/6 367/41/6 363/133/6 365/193/6
f 373/181/1 371/41/1 370/182/1 372/183/1
f 376/183/2 374/182/2 375/172/2 377/184/2
f 370/185/3 371/186/3 375/187/3 374/188/3
f 373/189/4 372/185/4 376/188/4 377/190/4
f 372/191/5 370/192/5 374/172/5 376/184/5
f 377/181/6 375/41/6 371/133/6 373/193/6
f 379/180/1 378/179/1 355/172/1 357/173/1
f 361/108/2 359/41/2 380/178/2 381/177/2
f 355/194/3 378/195/3 380/196/3 359/190/3
f 379/197/4 357/106/4 361/187/4 381/172/4
f 381/108/6 380/41/6 378/198/6 379/199/6
f 385/200/1 383/179/1 382/192/1 384/191/1
f 365/193/2 363/133/2 386/178/2 387/201/2
f 382/202/3 383/203/3 386/196/3 363/204/3
f 385/205/4 384/206/4 365/207/4 387/172/4
f 384/208/5 382/205/5 363/172/5 365/184/5
f 387/181/6 386/41/6 383/209/6 385/210/6
f 391/200/1 389/179/1 388/192/1 390/191/1
f 373/193/2 371/133/2 392/178/2 393/201/2
f 388/202/3 389/203/3 392/196/3 371/204/3
f 391/205/4 390/206/4 373/207/4 393/172/4
f 390/208/5 388/205/5 371/172/5 373/184/5
f 393/181/6 392/41/6 389/209/6 391/210/6
f 397/191/1 395/192/1 394/172/1 396/184/1
f 400/181/2 398/41/2 399/133/2 401/193/2
f 394/211/3 395/212/3 399/204/3 398/190/3
f 397/213/4 396/214/4 400/187/4 401/207/4
f 396/215/5 394/216/5 398/172/5 400/184/5
f 401/181/6 399/41/6 395/217/6 397/218/6
f 405/191/1 403/192/1 402/172/1 404/184/1
f 408/181/2 406/41/2 407/133/2 409/193/2
f 402/211/3 403/212/3 407/204/3 406/190/3
f 405/213/4 404/214/4 408/187/4 409/207/4
f 404/215/5 402/216/5 406/172/5 408/184/5
f 409/181/6 407/41/6 403/217/6 405/218/6
f 378/176/1 411/179/1 410/192/1 412/189/1
f 413/219/2 388/133/2 389/178/2 414/174/2
f 410/220/3 411/221/3 389/222/3 388/223/3
f 378/224/4 412/225/4 413/226/4 414/227/4
f 412/228/5 410/224/5 388/227/5 413/229/5
f 414/230/6 389/231/6 411/232/6 378/233/6
f 416/176/1 392/179/1 371/192/1 415/189/1
f 418/219/2 375/133/2 417/178/2 380/174/2
f 371/223/3 392/222/3 417/234/3 375/235/3
f 416/227/4 415/226/4 418/236/4 380/237/4
f 415/229/5 371/227/5 375/237/5 418/238/5
f 380/239/6 417/240/6 392/231/6 416/230/6
f 421/189/1 370/192/1 419/172/1 420/190/1
f 423/114/2 422/41/2 374/133/2 424/219/2
f 419/229/3 370/223/3 374/235/3 422/238/3
f 421/226/4 420/241/4 423/242/4 424/236/4
f 420/229/5 419/227/5 422/237/5 423/238/5
f 424/239/6 374/240/6 370/231/6 421/230/6
f 427/189/1 426/192/1 425/172/1 354/190/1
f 430/114/2 428/41/2 429/133/2 431/219/2
f 425/228/3 426/220/3 429/223/3 428/229/3
f 427/225/4 354/109/4 430/241/4 431/226/4
f 354/228/5 425/224/5 428/227/5 430/229/5
f 431/230/6 429/231/6 426/232/6 427/233/6
f 433/189/1 407/192/1 406/172/1 432/190/1
f 358/114/2 434/41/2 435/133/2 436/219/2
f 406/229/3 407/223/3 435/235/3 434/238/3
f 433/226/4 432/241/4 358/242/4 436/236/4
f 432/229/5 406/227/5 434/237/5 358/238/5
f 436/239/6 435/240/6 407/231/6 433/230/6
f 440/189/1 438/192/1 437/172/1 439/190/1
f 441/114/2 402/41/2 403/133/2 442/219/2
f 437/228/3 438/220/3 403/223/3 402/229/3
f 440/225/4 439/109/4 441/241/4 442/226/4
f 439/228/5 437/224/5 402/227/5 441/229/5
f 442/230/6 403/231/6 438/232/6 440/233/6
f 444/181/1 410/41/1 426/172/1 443/184/1
f 445/181/2 429/41/2 388/172/2 390/184/2
f 426/228/3 410/109/3 388/241/3 429/229/3
f 444/228/4 443/109/4 445/241/4 390/229/4
f 443/243/5 426/224/5 429/227/5 445/244/5
f 390/245/6 388/231/6 410/232/6 444/246/6
f 449/181/1 447/41/1 446/172/1 448/184/1
f 451/181/2 450/41/2 382/172/2 384/184/2
f 446/228/3 447/109/3 382/241/3 450/229/3
f 449/228/4 448/109/4 451/241/4 384/229/4
f 448/243/5 446/224/5 450/227/5 451/244/5
f 384/245/6 382/231/6 447/232/6 449/246/6
f 455/247/1 453/182/1 452/172/1 454/173/1
f 458/108/2 456/41/2 457/182/2 459/247/2
f 452/219/3 453/248/3 457/249/3 456/250/3
f 455/248/4 454/33/4 458/121/4 459/249/4
f 454/251/5 452/133/5 456/252/5 458/253/5
f 459/254/6 457/255/6 453/256/6 455/257/6
f 463/258/1 461/182/1 460/172/1 462/259/1
f 464/260/2 458/41/2 459/182/2 465/258/2
f 460/261/3 461/262/3 459/249/3 458/250/3
f 463/262/4 462/70/4 464/121/4 465/249/4
f 462/263/5 460/264/5 458/252/5 464/265/5
f 465/266/6 459/255/6 461/267/6 463/268/6
f 485/190/1 483/259/1 482/273/1 484/176/1
f 488/190/2 486/259/2 487/273/2 489/176/2
f 482/190/21 483/196/21 487/274/21 486/176/21
f 485/190/22 484/196/22 488/274/22 489/176/22
f 484/190/23 482/259/23 486/273/23 488/176/23
f 489/190/24 487/259/24 483/273/24 485/176/24
f 493/275/25 491/11/25 490/10/25 492/260/25
f 496/275/26 494/11/26 495/10/26 497/260/26
f 490/190/27 491/196/27 495/274/27 494/176/27
f 493/190/28 492/196/28 496/274/28 497/176/28
f 492/275/29 490/11/29 494/10/29 496/260/29
f 497/275/30 495/11/30 491/10/30 493/260/30
f 501/275/31 499/11/31 498/10/31 500/260/31
f 504/275/32 502/11/32 503/10/32 505/260/32
f 498/190/27 499/196/27 503/274/27 502/176/27
f 501/190/28 500/196/28 504/274/28 505/176/28
f 500/275/29 498/11/29 502/10/29 504/260/29
f 505/275/30 503/11/30 499/10/30 501/260/30
f 509/190/1 507/259/1 506/273/1 508/176/1
f 512/190/2 510/259/2 511/273/2 513/176/2
f 506/190/21 507/196/21 511/274/21 510/176/21
f 509/190/22 508/196/22 512/274/22 513/176/22
f 508/190/23 506/259/23 510/273/23 512/176/23
f 513/190/24 511/259/24 507/273/24 509/176/24
f 525/280/1 523/281/1 522/282/1 524/283/1
f 528/284/2 526/285/2 527/286/2 529/287/2
f 522/288/3 523/106/3 527/11/3 526/201/3
f 525/289/4 524/131/4 528/26/4 529/177/4
f 524/280/5 522/281/5 526/290/5 528/291/5
f 529/291/6 527/290/6 523/286/6 525/287/6
f 533/292/1 531/106/1 530/33/1 532/293/1
f 536/294/2 534/295/2 535/10/2 537/296/2
f 530/288/3 531/106/3 535/11/3 534/201/3
f 533/289/4 532/131/4 536/26/4 537/177/4
f 532/292/5 530/106/5 534/11/5 536/297/5
f 537/297/6 535/11/6 531/10/6 533/296/6
f 541/172/1 539/187/1 538/10/1 540/41/1
f 544/172/2 542/187/2 543/10/2 545/41/2
f 538/174/3 539/11/3 543/10/3 542/114/3
f 541/174/4 540/11/4 544/10/4 545/114/4
f 540/197/5 538/106/5 542/11/5 544/178/5
f 545/178/6 543/11/6 539/10/6 541/41/6
f 549/298/1 547/299/1 546/300/1 548/301/1
f 552/302/2 550/303/2 551/304/2 553/305/2
f 546/306/3 547/307/3 551/308/3 550/309/3
f 549/310/4 548/183/4 552/181/4 553/311/4
f 548/312/5 546/313/5 550/265/5 552/314/5
f 553/315/6 551/302/6 547/316/6 549/317/6
f 557/179/1 555/318/1 554/319/1 556/320/1
f 559/264/2 558/321/2 542/26/2 544/178/2
f 554/322/3 555/197/3 542/178/3 558/323/3
f 557/195/4 556/324/4 559/325/4 544/326/4
f 556/197/5 554/131/5 558/26/5 559/178/5
f 544/178/6 542/26/6 555/21/6 557/41/6
f 563/327/1 561/328/1 560/21/1 562/41/1
f 566/172/2 564/207/2 565/329/2 567/330/2
f 560/194/3 561/331/3 565/332/3 564/333/3
f 563/334/4 562/106/4 566/295/4 567/335/4
f 562/197/5 560/131/5 564/336/5 566/337/5
f 567/133/6 565/25/6 561/21/6 563/41/6
f 562/179/1 560/318/1 568/319/1 569/320/1
f 572/264/2 570/321/2 571/26/2 573/178/2
f 568/322/3 560/197/3 571/178/3 570/323/3
f 562/195/4 569/324/4 572/325/4 573/326/4
f 569/197/5 568/131/5 570/26/5 572/178/5
f 573/178/6 571/26/6 560/21/6 562/41/6
f 575/197/1 525/106/1 524/33/1 574/133/1
f 576/337/2 536/295/2 537/10/2 577/41/2
f 524/246/3 525/338/3 537/10/3 536/181/3
f 575/339/4 574/340/4 576/21/4 577/108/4
f 574/232/5 524/338/5 536/10/5 576/41/5
f 577/232/6 537/338/6 525/10/6 575/41/6
f 581/197/1 579/131/1 578/25/1 580/133/1
f 584/337/2 582/336/2 583/21/2 585/41/2
f 578/183/3 579/341/3 583/109/3 582/243/3
f 581/247/4 580/342/4 584/225/4 585/110/4
f 580/182/5 578/342/5 582/225/5 584/224/5
f 585/182/6 583/342/6 579/225/6 581/224/6
f 589/264/1 587/321/1 586/25/1 588/133/1
f 592/264/2 590/321/2 591/25/2 593/133/2
f 586/83/3 587/329/3 591/236/3 590/343/3
f 589/83/4 588/329/4 592/236/4 593/343/4
f 588/330/5 586/329/5 590/236/5 592/237/5
f 593/330/6 591/329/6 587/236/6 589/237/6
f 597/197/7 595/131/7 594/25/7 596/133/7
f 600/337/8 598/336/8 599/21/8 601/41/8
f 594/183/9 595/341/9 599/109/9 598/243/9
f 597/247/10 596/342/10 600/225/10 601/110/10
f 596/182/5 594/342/5 598/225/5 600/224/5
f 601/182/6 599/342/6 595/225/6 597/224/6
f 605/197/9 603/131/9 602/25/9 604/133/9
f 608/337/10 606/336/10 607/21/10 609/41/10
f 602/344/8 603/345/8 607/109/8 606/243/8
f 605/346/7 604/347/7 608/225/7 609/110/7
f 604/348/5 602/347/5 606/225/5 608/224/5
f 609/348/6 607/347/6 603/225/6 605/224/6
f 613/289/1 611/106/1 610/10/1 612/108/1
f 616/289/2 614/106/2 615/10/2 617/108/2
f 610/349/3 611/350/3 615/10/3 614/108/3
f 613/349/4 612/350/4 616/10/4 617/108/4
f 612/349/5 610/350/5 614/10/5 616/108/5
f 617/351/6 615/352/6 611/99/6 613/353/6
f 621/206/1 619/354/1 618/10/1 620/21/1
f 624/206/2 622/354/2 623/10/2 625/21/2
f 618/355/3 619/106/3 623/11/3 622/275/3
f 621/355/4 620/106/4 624/11/4 625/275/4
f 620/131/5 618/106/5 622/11/5 624/26/5
f 625/26/6 623/11/6 619/10/6 621/21/6
f 629/206/1 627/354/1 626/10/1 628/21/1
f 632/206/2 630/354/2 631/10/2 633/21/2
f 626/355/3 627/106/3 631/11/3 630/275/3
f 629/355/4 628/106/4 632/11/4 633/275/4
f 628/131/5 626/106/5 630/11/5 632/26/5
f 633/26/6 631/11/6 627/10/6 629/21/6
f 637/356/1 635/131/1 634/336/1 636/357/1
f 640/358/2 638/25/2 639/21/2 641/359/2
f 634/131/3 635/106/3 639/11/3 638/26/3
f 637/289/4 636/288/4 640/201/4 641/177/4
f 636/356/5 634/131/5 638/26/5 640/360/5
f 641/360/6 639/26/6 635/21/6 637/359/6
f 637/197/1 636/337/1 642/46/1
f 640/133/2 641/41/2 643/193/2
f 642/288/33 636/197/33 640/178/33 643/201/33
f 643/201/6 641/178/6 637/41/6 642/181/6
f 646/206/1 645/354/1 644/10/1 635/21/1
f 639/206/2 647/354/2 648/10/2 649/21/2
f 644/355/3 645/106/3 648/11/3 647/275/3
f 646/355/4 635/106/4 639/11/4 649/275/4
f 635/131/5 644/106/5 647/11/5 639/26/5
f 649/26/6 648/11/6 645/10/6 646/21/6
f 644/70/34 634/321/35 635/206/36
f 647/33/37 639/21/38 638/25/39
f 634/131/35 644/106/34 647/11/37 638/26/39
f 618/70/34 650/321/35 620/206/36
f 622/33/37 624/21/38 651/25/39
f 620/355/40 650/322/41 651/323/42 624/275/43
f 650/131/35 618/106/34 622/11/37 651/26/39
f 653/206/1 652/354/1 637/10/1 642/21/1
f 643/206/2 641/354/2 654/10/2 655/21/2
f 637/355/3 652/106/3 654/11/3 641/275/3
f 653/355/4 642/106/4 643/11/4 655/275/4
f 655/26/6 654/11/6 652/10/6 653/21/6
f 626/356/1 620/131/1 650/336/1 656/357/1
f 657/358/2 651/25/2 624/21/2 630/359/2
f 626/289/4 656/288/4 657/201/4 630/177/4
f 656/356/5 650/131/5 651/26/5 657/360/5
f 630/360/6 624/26/6 620/21/6 626/359/6
f 626/197/1 656/337/1 628/46/1
f 657/133/2 630/41/2 632/193/2
f 628/288/33 656/197/33 657/178/33 632/201/33
f 661/182/44 659/341/44 658/33/44 660/133/44
f 664/267/45 662/361/45 663/10/45 665/41/45
f 658/362/46 659/106/46 663/11/46 662/363/46
f 661/364/47 660/131/47 664/26/47 665/365/47
f 660/197/5 658/106/5 662/11/5 664/178/5
f 665/178/6 663/11/6 659/10/6 661/41/6
f 665/182/48 663/341/48 666/33/48 667/133/48
f 670/267/49 668/361/49 669/10/49 671/41/49
f 666/362/46 663/106/46 669/11/46 668/363/46
f 665/364/47 667/131/47 670/26/47 671/365/47
f 667/197/5 666/106/5 668/11/5 670/178/5
f 671/178/6 669/11/6 663/10/6 665/41/6
f 675/333/1 673/295/1 672/106/1 674/194/1
f 678/114/2 676/10/2 677/33/2 679/219/2
f 672/108/3 673/181/3 677/288/3 676/289/3
f 675/21/4 674/10/4 678/106/4 679/131/4
f 674/114/5 672/10/5 676/106/5 678/194/5
f 679/114/6 677/10/6 673/106/6 675/194/6
usemtl m_409504fd-f58c-4195-329e-2b61b82ac830.004
f 724/432/6 725/433/6 722/434/6
f 725/433/6 726/435/6 722/434/6
f 726/435/6 727/436/6 722/434/6
f 727/436/6 728/437/6 722/434/6
f 728/437/6 729/438/6 722/434/6
f 729/438/6 730/439/6 722/434/6
f 730/439/6 731/440/6 722/434/6
f 731/440/6 732/441/6 722/434/6
f 732/441/6 733/442/6 722/434/6
f 733/442/6 734/443/6 722/434/6
f 734/443/6 723/444/6 722/434/6
f 723/444/6 724/432/6 722/434/6
f 809/432/6 810/433/6 807/434/6
f 810/433/6 811/435/6 807/434/6
f 811/435/6 812/436/6 807/434/6
f 812/436/6 813/437/6 807/434/6
f 813/437/6 814/438/6 807/434/6
f 814/438/6 815/439/6 807/434/6
f 815/439/6 816/440/6 807/434/6
f 816/440/6 817/441/6 807/434/6
f 817/441/6 818/442/6 807/434/6
f 818/442/6 819/443/6 807/434/6
f 819/443/6 808/444/6 807/434/6
f 808/444/6 809/432/6 807/434/6
f 902/592/6 900/593/6 903/594/6
f 903/594/6 900/593/6 904/595/6
f 904/595/6 900/593/6 905/596/6
f 905/596/6 900/593/6 906/597/6
f 906/597/6 900/593/6 907/598/6
f 907/598/6 900/593/6 908/599/6
f 908/599/6 900/593/6 909/600/6
f 909/600/6 900/593/6 910/601/6
f 910/601/6 900/593/6 911/602/6
f 911/602/6 900/593/6 912/603/6
f 912/603/6 900/593/6 901/604/6
f 901/604/6 900/593/6 902/592/6
