# Blender 5.2.0 LTS
# www.blender.org
mtllib ks_vr_default.mtl
o cube
v 0.375000 6.000000 -0.437500
v 0.375000 6.000000 -0.500000
v 0.375000 5.000000 -0.437500
v 0.375000 5.000000 -0.500000
v -0.375000 6.000000 -0.437500
v -0.375000 6.000000 -0.500000
v -0.375000 5.000000 -0.437500
v -0.375000 5.000000 -0.500000
v 0.062500 5.000000 -0.156250
v 0.062500 5.000000 -0.218750
v 0.062500 3.875000 -0.156250
v 0.062500 3.875000 -0.218750
v -0.062500 5.000000 -0.156250
v -0.062500 5.000000 -0.218750
v -0.062500 3.875000 -0.156250
v -0.062500 3.875000 -0.218750
v 0.062500 5.000000 0.218750
v 0.062500 5.000000 0.093750
v 0.062500 3.875000 0.218750
v 0.062500 3.875000 0.093750
v -0.062500 5.000000 0.218750
v -0.062500 5.000000 0.093750
v -0.062500 3.875000 0.218750
v -0.062500 3.875000 0.093750
v 0.062500 4.937500 0.093750
v 0.062500 4.937500 -0.156250
v -0.062500 4.937500 0.093750
v -0.062500 4.937500 -0.156250
v 0.062500 4.562500 0.093750
v 0.062500 4.562500 -0.156250
v 0.062500 4.500000 0.093750
v 0.062500 4.500000 -0.156250
v -0.062500 4.562500 0.093750
v -0.062500 4.562500 -0.156250
v -0.062500 4.500000 0.093750
v -0.062500 4.500000 -0.156250
v 0.062500 4.062500 0.093750
v 0.062500 4.062500 -0.156250
v 0.062500 4.000000 0.093750
v 0.062500 4.000000 -0.156250
v -0.062500 4.062500 0.093750
v -0.062500 4.062500 -0.156250
v -0.062500 4.000000 0.093750
v -0.062500 4.000000 -0.156250
v 0.062500 2.875000 0.218750
v 0.062500 2.875000 0.093750
v -0.062500 2.875000 0.218750
v -0.062500 2.875000 0.093750
v 0.062500 2.875000 -0.156250
v 0.062500 2.875000 -0.218750
v -0.062500 2.875000 -0.156250
v -0.062500 2.875000 -0.218750
v 0.062500 3.562500 0.093750
v 0.062500 3.562500 -0.156250
v 0.062500 3.500000 0.093750
v 0.062500 3.500000 -0.156250
v -0.062500 3.562500 0.093750
v -0.062500 3.562500 -0.156250
v -0.062500 3.500000 0.093750
v -0.062500 3.500000 -0.156250
v 0.062500 3.062500 0.093750
v 0.062500 3.062500 -0.156250
v 0.062500 3.000000 0.093750
v 0.062500 3.000000 -0.156250
v -0.062500 3.062500 0.093750
v -0.062500 3.062500 -0.156250
v -0.062500 3.000000 0.093750
v -0.062500 3.000000 -0.156250
v 0.062500 1.875000 0.218750
v 0.062500 1.875000 0.093750
v -0.062500 1.875000 0.218750
v -0.062500 1.875000 0.093750
v 0.062500 1.875000 -0.156250
v 0.062500 1.875000 -0.218750
v -0.062500 1.875000 -0.156250
v -0.062500 1.875000 -0.218750
v 0.062500 2.562500 0.093750
v 0.062500 2.562500 -0.156250
v 0.062500 2.500000 0.093750
v 0.062500 2.500000 -0.156250
v -0.062500 2.562500 0.093750
v -0.062500 2.562500 -0.156250
v -0.062500 2.500000 0.093750
v -0.062500 2.500000 -0.156250
v 0.062500 2.062500 0.093750
v 0.062500 2.062500 -0.156250
v 0.062500 2.000000 0.093750
v 0.062500 2.000000 -0.156250
v -0.062500 2.062500 0.093750
v -0.062500 2.062500 -0.156250
v -0.062500 2.000000 0.093750
v -0.062500 2.000000 -0.156250
v 0.062500 0.875000 0.218750
v 0.062500 0.875000 0.093750
v -0.062500 0.875000 0.218750
v -0.062500 0.875000 0.093750
v 0.062500 0.875000 -0.156250
v 0.062500 0.875000 -0.218750
v -0.062500 0.875000 -0.156250
v -0.062500 0.875000 -0.218750
v 0.062500 1.562500 0.093750
v 0.062500 1.562500 -0.156250
v 0.062500 1.500000 0.093750
v 0.062500 1.500000 -0.156250
v -0.062500 1.562500 0.093750
v -0.062500 1.562500 -0.156250
v -0.062500 1.500000 0.093750
v -0.062500 1.500000 -0.156250
v 0.062500 1.062500 0.093750
v 0.062500 1.062500 -0.156250
v 0.062500 1.000000 0.093750
v 0.062500 1.000000 -0.156250
v -0.062500 1.062500 0.093750
v -0.062500 1.062500 -0.156250
v -0.062500 1.000000 0.093750
v -0.062500 1.000000 -0.156250
v 0.062500 -0.125000 0.218750
v 0.062500 -0.125000 0.093750
v -0.062500 -0.125000 0.218750
v -0.062500 -0.125000 0.093750
v 0.062500 -0.125000 -0.156250
v 0.062500 -0.125000 -0.218750
v -0.062500 -0.125000 -0.156250
v -0.062500 -0.125000 -0.218750
v 0.062500 0.562500 0.093750
v 0.062500 0.562500 -0.156250
v 0.062500 0.500000 0.093750
v 0.062500 0.500000 -0.156250
v -0.062500 0.562500 0.093750
v -0.062500 0.562500 -0.156250
v -0.062500 0.500000 0.093750
v -0.062500 0.500000 -0.156250
v 0.093750 0.062500 0.093750
v 0.093750 0.062500 -0.156250
v 0.093750 0.000000 0.093750
v 0.093750 -0.000000 -0.156250
v -0.093750 0.062500 0.093750
v -0.093750 0.062500 -0.156250
v -0.093750 0.000000 0.093750
v -0.093750 -0.000000 -0.156250
v 0.375000 0.250000 0.375000
v 0.375000 0.250000 -0.375000
v 0.375000 -0.187500 0.375000
v 0.375000 -0.187500 -0.375000
v -0.375000 0.250000 0.375000
v -0.375000 0.250000 -0.375000
v -0.375000 -0.187500 0.375000
v -0.375000 -0.187500 -0.375000
v 0.312500 0.312500 0.250000
v 0.312500 0.312500 -0.250000
v 0.312500 0.250000 0.250000
v 0.312500 0.250000 -0.250000
v -0.312500 0.312500 0.250000
v -0.312500 0.312500 -0.250000
v -0.312500 0.250000 0.250000
v -0.312500 0.250000 -0.250000
v -0.057455 0.711406 -0.212500
v -0.057455 0.711406 -0.162500
v 0.065879 0.666516 -0.162500
v 0.065879 0.666516 -0.212500
v -0.249842 0.182829 -0.162500
v -0.249842 0.182829 -0.212500
v -0.126507 0.137939 -0.162500
v -0.126507 0.137939 -0.212500
v -0.057455 0.711406 0.212500
v -0.057455 0.711406 0.100000
v 0.065879 0.666516 0.212500
v 0.065879 0.666516 0.100000
v -0.249842 0.182829 0.212500
v -0.249842 0.182829 0.100000
v -0.126507 0.137939 0.212500
v -0.126507 0.137939 0.100000
v 0.249842 0.182829 -0.162500
v 0.249842 0.182829 -0.212500
v 0.126507 0.137939 -0.162500
v 0.126507 0.137939 -0.212500
v 0.057455 0.711406 -0.162500
v 0.057455 0.711406 -0.212500
v -0.065879 0.666516 -0.162500
v -0.065879 0.666516 -0.212500
v 0.249842 0.182829 0.212500
v 0.249842 0.182829 0.100000
v 0.126507 0.137939 0.212500
v 0.126507 0.137939 0.100000
v 0.057455 0.711406 0.212500
v 0.057455 0.711406 0.100000
v -0.065879 0.666516 0.212500
v -0.065879 0.666516 0.100000
v 0.296875 1.312500 0.500000
v 0.296875 1.312500 0.125000
v 0.296875 0.500000 0.500000
v 0.296875 0.500000 0.125000
v -0.328125 1.312500 0.500000
v -0.328125 1.312500 0.125000
v -0.328125 0.500000 0.500000
v -0.328125 0.500000 0.125000
v 0.312500 6.000000 -0.312500
v 0.312500 6.000000 -0.437500
v 0.312500 5.000000 -0.312500
v 0.312500 5.000000 -0.437500
v -0.312500 6.000000 -0.312500
v -0.312500 6.000000 -0.437500
v -0.312500 5.000000 -0.312500
v -0.312500 5.000000 -0.437500
v 0.156250 5.484375 -0.534375
v 0.181370 5.578125 -0.534375
v 0.224880 5.553005 -0.534375
v 0.250000 5.509495 -0.534375
v 0.250000 5.459255 -0.534375
v 0.224880 5.415745 -0.534375
v 0.181370 5.390625 -0.534375
v 0.131130 5.390625 -0.534375
v 0.087620 5.415745 -0.534375
v 0.062500 5.459255 -0.534375
v 0.062500 5.509495 -0.534375
v 0.087620 5.553005 -0.534375
v 0.131130 5.578125 -0.534375
v 0.183464 5.585938 -0.500000
v 0.183464 5.585938 -0.562500
v 0.176050 5.558270 -0.500000
v 0.176050 5.558270 -0.562500
v 0.230599 5.558724 -0.500000
v 0.230599 5.558724 -0.562500
v 0.210345 5.538470 -0.500000
v 0.210345 5.538470 -0.562500
v 0.257812 5.511589 -0.500000
v 0.257812 5.511589 -0.562500
v 0.230145 5.504175 -0.500000
v 0.230145 5.504175 -0.562500
v 0.257812 5.457161 -0.500000
v 0.257812 5.457161 -0.562500
v 0.230145 5.464575 -0.500000
v 0.230145 5.464575 -0.562500
v 0.230599 5.410026 -0.500000
v 0.230599 5.410026 -0.562500
v 0.210345 5.430280 -0.500000
v 0.210345 5.430280 -0.562500
v 0.183464 5.382812 -0.500000
v 0.183464 5.382812 -0.562500
v 0.176050 5.410480 -0.500000
v 0.176050 5.410480 -0.562500
v 0.129036 5.382812 -0.500000
v 0.129036 5.382812 -0.562500
v 0.136450 5.410480 -0.500000
v 0.136450 5.410480 -0.562500
v 0.081901 5.410026 -0.500000
v 0.081901 5.410026 -0.562500
v 0.102155 5.430280 -0.500000
v 0.102155 5.430280 -0.562500
v 0.054688 5.457161 -0.500000
v 0.054688 5.457161 -0.562500
v 0.082355 5.464575 -0.500000
v 0.082355 5.464575 -0.562500
v 0.054688 5.511589 -0.500000
v 0.054688 5.511589 -0.562500
v 0.082355 5.504175 -0.500000
v 0.082355 5.504175 -0.562500
v 0.081901 5.558724 -0.500000
v 0.081901 5.558724 -0.562500
v 0.102155 5.538470 -0.500000
v 0.102155 5.538470 -0.562500
v 0.129036 5.585938 -0.500000
v 0.129036 5.585938 -0.562500
v 0.136450 5.558270 -0.500000
v 0.136450 5.558270 -0.562500
v 0.218750 5.621875 -0.500000
v 0.218750 5.621875 -0.937500
v 0.218750 5.590625 -0.500000
v 0.218750 5.590625 -0.937500
v 0.093750 5.621875 -0.500000
v 0.093750 5.621875 -0.937500
v 0.093750 5.590625 -0.500000
v 0.093750 5.590625 -0.937500
v 0.027459 5.512500 -0.500000
v 0.027459 5.512500 -0.562500
v 0.027459 5.448889 -0.500000
v 0.027459 5.448889 -0.562500
v -0.003791 5.512500 -0.500000
v -0.003791 5.512500 -0.562500
v -0.003791 5.448889 -0.500000
v -0.003791 5.448889 -0.562500
v 0.315625 5.512500 -0.500000
v 0.315625 5.512500 -0.562500
v 0.315625 5.448889 -0.500000
v 0.315625 5.448889 -0.562500
v 0.284375 5.512500 -0.500000
v 0.284375 5.512500 -0.562500
v 0.284375 5.448889 -0.500000
v 0.284375 5.448889 -0.562500
v -0.156250 5.484375 -0.534375
v -0.131130 5.578125 -0.534375
v -0.087620 5.553005 -0.534375
v -0.062500 5.509495 -0.534375
v -0.062500 5.459255 -0.534375
v -0.087620 5.415745 -0.534375
v -0.131130 5.390625 -0.534375
v -0.181370 5.390625 -0.534375
v -0.224880 5.415745 -0.534375
v -0.250000 5.459255 -0.534375
v -0.250000 5.509495 -0.534375
v -0.224880 5.553005 -0.534375
v -0.181370 5.578125 -0.534375
v -0.129036 5.585938 -0.500000
v -0.129036 5.585938 -0.562500
v -0.136450 5.558270 -0.500000
v -0.136450 5.558270 -0.562500
v -0.081901 5.558724 -0.500000
v -0.081901 5.558724 -0.562500
v -0.102155 5.538470 -0.500000
v -0.102155 5.538470 -0.562500
v -0.054688 5.511589 -0.500000
v -0.054688 5.511589 -0.562500
v -0.082355 5.504175 -0.500000
v -0.082355 5.504175 -0.562500
v -0.054688 5.457161 -0.500000
v -0.054688 5.457161 -0.562500
v -0.082355 5.464575 -0.500000
v -0.082355 5.464575 -0.562500
v -0.081901 5.410026 -0.500000
v -0.081901 5.410026 -0.562500
v -0.102155 5.430280 -0.500000
v -0.102155 5.430280 -0.562500
v -0.129036 5.382812 -0.500000
v -0.129036 5.382812 -0.562500
v -0.136450 5.410480 -0.500000
v -0.136450 5.410480 -0.562500
v -0.183464 5.382812 -0.500000
v -0.183464 5.382812 -0.562500
v -0.176050 5.410480 -0.500000
v -0.176050 5.410480 -0.562500
v -0.230599 5.410026 -0.500000
v -0.230599 5.410026 -0.562500
v -0.210345 5.430280 -0.500000
v -0.210345 5.430280 -0.562500
v -0.257812 5.457161 -0.500000
v -0.257812 5.457161 -0.562500
v -0.230145 5.464575 -0.500000
v -0.230145 5.464575 -0.562500
v -0.257812 5.511589 -0.500000
v -0.257812 5.511589 -0.562500
v -0.230145 5.504175 -0.500000
v -0.230145 5.504175 -0.562500
v -0.230599 5.558724 -0.500000
v -0.230599 5.558724 -0.562500
v -0.210345 5.538470 -0.500000
v -0.210345 5.538470 -0.562500
v -0.183464 5.585938 -0.500000
v -0.183464 5.585938 -0.562500
v -0.176050 5.558270 -0.500000
v -0.176050 5.558270 -0.562500
v -0.093750 5.621875 -0.500000
v -0.093750 5.621875 -0.937500
v -0.093750 5.590625 -0.500000
v -0.093750 5.590625 -0.937500
v -0.218750 5.621875 -0.500000
v -0.218750 5.621875 -0.937500
v -0.218750 5.590625 -0.500000
v -0.218750 5.590625 -0.937500
v -0.285041 5.512500 -0.500000
v -0.285041 5.512500 -0.562500
v -0.285041 5.448889 -0.500000
v -0.285041 5.448889 -0.562500
v -0.316291 5.512500 -0.500000
v -0.316291 5.512500 -0.562500
v -0.316291 5.448889 -0.500000
v -0.316291 5.448889 -0.562500
v 0.003125 5.512500 -0.500000
v 0.003125 5.512500 -0.562500
v 0.003125 5.448889 -0.500000
v 0.003125 5.448889 -0.562500
v -0.028125 5.512500 -0.500000
v -0.028125 5.512500 -0.562500
v -0.028125 5.448889 -0.500000
v -0.028125 5.448889 -0.562500
v 0.265625 5.906250 -0.500000
v 0.265625 5.906250 -0.687500
v 0.265625 5.875000 -0.500000
v 0.265625 5.875000 -0.687500
v 0.171875 5.906250 -0.500000
v 0.171875 5.906250 -0.687500
v 0.171875 5.875000 -0.500000
v 0.171875 5.875000 -0.687500
v 0.218750 5.812500 -0.525000
v 0.233404 5.757812 -0.525000
v 0.258784 5.772466 -0.525000
v 0.273438 5.797846 -0.525000
v 0.273438 5.827154 -0.525000
v 0.258784 5.852534 -0.525000
v 0.233404 5.867188 -0.525000
v 0.204096 5.867188 -0.525000
v 0.178716 5.852534 -0.525000
v 0.164062 5.827154 -0.525000
v 0.164062 5.797846 -0.525000
v 0.178716 5.772466 -0.525000
v 0.204096 5.757812 -0.525000
v 0.235497 5.750000 -0.546875
v 0.235497 5.750000 -0.484375
v 0.227714 5.779045 -0.546875
v 0.227714 5.779045 -0.484375
v 0.264503 5.766747 -0.546875
v 0.264503 5.766747 -0.484375
v 0.243241 5.788009 -0.546875
v 0.243241 5.788009 -0.484375
v 0.281250 5.795753 -0.546875
v 0.281250 5.795753 -0.484375
v 0.252205 5.803535 -0.546875
v 0.252205 5.803535 -0.484375
v 0.281250 5.829247 -0.546875
v 0.281250 5.829247 -0.484375
v 0.252205 5.821465 -0.546875
v 0.252205 5.821465 -0.484375
v 0.264503 5.858253 -0.546875
v 0.264503 5.858253 -0.484375
v 0.243241 5.836991 -0.546875
v 0.243241 5.836991 -0.484375
v 0.235497 5.875000 -0.546875
v 0.235497 5.875000 -0.484375
v 0.227714 5.845955 -0.546875
v 0.227714 5.845955 -0.484375
v 0.202003 5.875000 -0.546875
v 0.202003 5.875000 -0.484375
v 0.209786 5.845955 -0.546875
v 0.209786 5.845955 -0.484375
v 0.172997 5.858253 -0.546875
v 0.172997 5.858253 -0.484375
v 0.194259 5.836991 -0.546875
v 0.194259 5.836991 -0.484375
v 0.156250 5.829247 -0.546875
v 0.156250 5.829247 -0.484375
v 0.185295 5.821465 -0.546875
v 0.185295 5.821465 -0.484375
v 0.156250 5.795753 -0.546875
v 0.156250 5.795753 -0.484375
v 0.185295 5.803535 -0.546875
v 0.185295 5.803535 -0.484375
v 0.172997 5.766747 -0.546875
v 0.172997 5.766747 -0.484375
v 0.194259 5.788009 -0.546875
v 0.194259 5.788009 -0.484375
v 0.202003 5.750000 -0.546875
v 0.202003 5.750000 -0.484375
v 0.209786 5.779045 -0.546875
v 0.209786 5.779045 -0.484375
v 0.156629 5.843561 -0.490625
v 0.156629 5.843561 -0.568750
v 0.156629 5.781061 -0.490625
v 0.156629 5.781061 -0.568750
v 0.125379 5.843561 -0.490625
v 0.125379 5.843561 -0.568750
v 0.125379 5.781061 -0.490625
v 0.125379 5.781061 -0.568750
v 0.312879 5.843561 -0.490625
v 0.312879 5.843561 -0.568750
v 0.312879 5.781061 -0.490625
v 0.312879 5.781061 -0.568750
v 0.281629 5.843561 -0.490625
v 0.281629 5.843561 -0.568750
v 0.281629 5.781061 -0.490625
v 0.281629 5.781061 -0.568750
v 0.125000 5.843750 -0.500000
v 0.125000 5.843750 -0.568750
v 0.156250 5.843750 -0.500000
v 0.156250 5.843750 -0.568750
v 0.312500 5.843750 -0.500000
v 0.312500 5.843750 -0.571875
v 0.281250 5.843750 -0.500000
v 0.281250 5.843750 -0.571875
v 0.281250 2.421875 -0.212500
v 0.281250 2.421875 -0.275000
v 0.281250 1.609375 -0.212500
v 0.281250 1.609375 -0.275000
v -0.281250 2.421875 -0.212500
v -0.281250 2.421875 -0.275000
v -0.281250 1.609375 -0.212500
v -0.281250 1.609375 -0.275000
v 0.234375 2.365625 -0.275000
v 0.234375 2.365625 -0.281250
v -0.000000 2.015625 -0.275000
v -0.000000 2.015625 -0.281250
v 0.156250 2.365625 -0.275000
v 0.156250 2.365625 -0.281250
v 0.000000 2.125000 -0.275000
v 0.000000 2.125000 -0.281250
v -0.234375 1.665625 -0.275000
v -0.234375 1.665625 -0.281250
v -0.156250 1.665625 -0.275000
v -0.156250 1.665625 -0.281250
v 0.000000 1.906250 -0.275000
v 0.000000 1.906250 -0.281250
v -0.156250 2.375000 -0.275000
v -0.156250 2.375000 -0.281250
v -0.234375 2.375000 -0.275000
v -0.234375 2.375000 -0.281250
v 0.156250 1.656250 -0.275000
v 0.156250 1.656250 -0.281250
v 0.234375 1.656250 -0.275000
v 0.234375 1.656250 -0.281250
v 0.250000 5.875000 0.671875
v 0.250000 5.875000 0.640625
v 0.250000 5.000000 0.671875
v 0.250000 5.000000 0.640625
v 0.218750 5.875000 0.671875
v 0.218750 5.875000 0.640625
v 0.218750 5.000000 0.671875
v 0.218750 5.000000 0.640625
v -0.218750 5.875000 0.671875
v -0.218750 5.875000 0.640625
v -0.218750 5.000000 0.671875
v -0.218750 5.000000 0.640625
v -0.250000 5.875000 0.671875
v -0.250000 5.875000 0.640625
v -0.250000 5.000000 0.671875
v -0.250000 5.000000 0.640625
v 0.368750 5.884903 0.300697
v 0.368750 5.879477 0.269922
v 0.368750 5.084747 0.441786
v 0.368750 5.079321 0.411011
v 0.337500 5.884903 0.300697
v 0.337500 5.879477 0.269922
v 0.337500 5.084747 0.441786
v 0.337500 5.079321 0.411011
v 0.368750 5.090997 0.441786
v 0.368750 5.080144 0.411486
v 0.243750 4.961646 0.463492
v 0.243750 4.950793 0.433191
v 0.337500 5.090997 0.441786
v 0.337500 5.080144 0.411486
v 0.212500 4.961646 0.463492
v 0.212500 4.950793 0.433191
v -0.350000 5.090997 0.441786
v -0.350000 5.080144 0.411486
v -0.225000 4.961646 0.463492
v -0.225000 4.950793 0.433191
v -0.381250 5.090997 0.441786
v -0.381250 5.080144 0.411486
v -0.256250 4.961646 0.463492
v -0.256250 4.950793 0.433191
v -0.350000 5.884903 0.300697
v -0.350000 5.879477 0.269922
v -0.350000 5.084747 0.441786
v -0.350000 5.079321 0.411011
v -0.381250 5.884903 0.300697
v -0.381250 5.879477 0.269922
v -0.381250 5.084747 0.441786
v -0.381250 5.079321 0.411011
v 0.312500 5.906250 0.671875
v 0.312500 5.906250 0.640625
v 0.312500 5.875000 0.671875
v 0.312500 5.875000 0.640625
v -0.312500 5.906250 0.671875
v -0.312500 5.906250 0.640625
v -0.312500 5.875000 0.671875
v -0.312500 5.875000 0.640625
v 0.375000 5.818750 -0.343750
v 0.375000 5.818750 -0.437500
v 0.375000 5.000000 -0.343750
v 0.312500 5.818750 -0.343750
v 0.312500 5.818750 -0.437500
v 0.312500 5.000000 -0.343750
v -0.312500 5.818750 -0.343750
v -0.312500 5.818750 -0.437500
v -0.312500 5.000000 -0.343750
v -0.375000 5.818750 -0.343750
v -0.375000 5.818750 -0.437500
v -0.375000 5.000000 -0.343750
v -0.343750 5.906250 0.562500
v -0.343750 5.906250 -0.000000
v -0.343750 5.875000 0.562500
v -0.343750 5.875000 -0.000000
v -0.375000 5.906250 0.562500
v -0.375000 5.906250 -0.000000
v -0.375000 5.875000 0.562500
v -0.375000 5.875000 -0.000000
v 0.250000 5.000000 0.687500
v 0.250000 5.000000 0.218750
v 0.250000 4.937500 0.687500
v 0.250000 4.937500 0.218750
v -0.250000 5.000000 0.687500
v -0.250000 5.000000 0.218750
v -0.250000 4.937500 0.687500
v -0.250000 4.937500 0.218750
v -0.312500 5.906250 0.656250
v -0.312500 5.906250 0.562500
v -0.312500 5.875000 0.656250
v -0.312500 5.875000 0.562500
v -0.375000 5.906250 0.656250
v -0.375000 5.875000 0.656250
v 0.375000 5.906250 0.562500
v 0.375000 5.906250 -0.000000
v 0.375000 5.875000 0.562500
v 0.375000 5.875000 -0.000000
v 0.343750 5.906250 0.562500
v 0.343750 5.906250 -0.000000
v 0.343750 5.875000 0.562500
v 0.343750 5.875000 -0.000000
v 0.312500 5.875000 0.656250
v 0.375000 5.906250 0.656250
v 0.375000 5.875000 0.656250
v 0.312500 5.906250 0.656250
v 0.312500 5.906250 0.562500
v 0.312500 5.875000 0.562500
v 0.375000 4.937500 -0.343750
v 0.375000 4.937500 -0.437500
v -0.375000 4.937500 -0.343750
v -0.375000 4.937500 -0.437500
v 0.125000 4.718750 -0.343750
v 0.125000 4.718750 -0.437500
v 0.125000 4.687500 -0.343750
v 0.125000 4.687500 -0.437500
v -0.125000 4.718750 -0.343750
v -0.125000 4.718750 -0.437500
v -0.125000 4.687500 -0.343750
v -0.125000 4.687500 -0.437500
v 0.062500 4.718750 -0.218750
v 0.062500 4.718750 -0.343750
v 0.062500 4.687500 -0.218750
v 0.062500 4.687500 -0.343750
v -0.062500 4.718750 -0.218750
v -0.062500 4.718750 -0.343750
v -0.062500 4.687500 -0.218750
v -0.062500 4.687500 -0.343750
v -0.102903 4.709597 -0.337500
v -0.102903 4.709597 -0.431250
v -0.125000 4.687500 -0.337500
v -0.125000 4.687500 -0.431250
v -0.352903 4.959597 -0.337500
v -0.352903 4.959597 -0.431250
v -0.375000 4.937500 -0.337500
v -0.375000 4.937500 -0.431250
v 0.352903 4.959597 -0.337500
v 0.352903 4.959597 -0.431250
v 0.375000 4.937500 -0.337500
v 0.375000 4.937500 -0.431250
v 0.102903 4.709597 -0.337500
v 0.102903 4.709597 -0.431250
v 0.125000 4.687500 -0.337500
v 0.125000 4.687500 -0.431250
v 0.068750 5.062500 -0.187500
v 0.068750 5.062500 -0.312500
v 0.068750 4.937500 -0.187500
v 0.068750 4.937500 -0.312500
v -0.068750 5.062500 -0.187500
v -0.068750 5.062500 -0.312500
v -0.068750 4.937500 -0.187500
v -0.068750 4.937500 -0.312500
v -0.343750 5.812500 -0.218750
v -0.343750 5.812500 -0.406250
v -0.343750 5.781250 -0.218750
v -0.343750 5.781250 -0.406250
v -0.406250 5.812500 -0.218750
v -0.406250 5.812500 -0.406250
v -0.406250 5.781250 -0.218750
v -0.406250 5.781250 -0.406250
v -0.343750 5.156250 -0.218750
v -0.343750 5.156250 -0.406250
v -0.343750 5.125000 -0.218750
v -0.343750 5.125000 -0.406250
v -0.406250 5.156250 -0.218750
v -0.406250 5.156250 -0.406250
v -0.406250 5.125000 -0.218750
v -0.406250 5.125000 -0.406250
v 0.406250 5.781250 -0.187500
v 0.406250 5.781250 -0.218750
v 0.406250 5.156250 -0.187500
v 0.406250 5.156250 -0.218750
v 0.343750 5.781250 -0.187500
v 0.343750 5.781250 -0.218750
v 0.343750 5.156250 -0.187500
v 0.343750 5.156250 -0.218750
v 0.406250 5.125000 -0.218750
v 0.343750 5.125000 -0.218750
v 0.406250 5.812500 -0.218750
v 0.406250 5.812500 -0.406250
v 0.406250 5.781250 -0.406250
v 0.343750 5.812500 -0.218750
v 0.343750 5.812500 -0.406250
v 0.343750 5.781250 -0.406250
v -0.343750 5.781250 -0.187500
v -0.406250 5.781250 -0.187500
v 0.406250 5.156250 -0.406250
v 0.406250 5.125000 -0.406250
v 0.343750 5.156250 -0.406250
v 0.343750 5.125000 -0.406250
v -0.343750 5.156250 -0.187500
v -0.406250 5.156250 -0.187500
v 0.250000 5.000000 0.681250
v 0.062500 4.937500 0.218750
v 0.250000 4.937500 0.681250
v 0.062500 4.875000 0.218750
v 0.187500 5.000000 0.681250
v 0.000000 4.937500 0.218750
v 0.187500 4.937500 0.681250
v 0.000000 4.875000 0.218750
v -0.187500 5.000000 0.681250
v -0.187500 4.937500 0.681250
v -0.250000 5.000000 0.681250
v -0.062500 4.937500 0.218750
v -0.250000 4.937500 0.681250
v -0.062500 4.875000 0.218750
vn 1.0000 -0.0000 -0.0000
vn -1.0000 -0.0000 -0.0000
vn -0.0000 1.0000 -0.0000
vn -0.0000 -1.0000 -0.0000
vn -0.0000 -0.0000 1.0000
vn -0.0000 -0.0000 -1.0000
vn 0.3420 0.9397 -0.0000
vn -0.3420 -0.9397 -0.0000
vn -0.9397 0.3420 -0.0000
vn 0.9397 -0.3420 -0.0000
vn 0.3420 -0.9397 -0.0000
vn -0.3420 0.9397 -0.0000
vn 0.9397 0.3420 -0.0000
vn -0.9397 -0.3420 -0.0000
vn 0.5000 0.8660 -0.0000
vn -0.5000 -0.8660 -0.0000
vn 0.8660 0.5000 -0.0000
vn -0.8660 -0.5000 -0.0000
vn 0.8660 -0.5000 -0.0000
vn -0.8660 0.5000 -0.0000
vn 0.5000 -0.8660 -0.0000
vn -0.5000 0.8660 -0.0000
vn 0.7486 0.6630 -0.0000
vn -0.7657 -0.6432 -0.0000
vn -0.0001 -0.9600 -0.2799
vn -0.0001 -0.9600 -0.2800
vn 0.7625 -0.6470 -0.0000
vn -0.7463 0.6656 -0.0000
vn 0.0001 -0.9790 -0.2039
vn 0.0001 -0.9790 -0.2040
vn -0.8000 0.6000 -0.0000
vn 0.8944 -0.4472 -0.0000
vn -0.9302 0.0001 -0.3671
vn -0.9301 0.0001 -0.3672
vn 0.8000 0.6000 -0.0000
vn -0.8944 -0.4472 -0.0000
vn 0.9267 0.0001 -0.3757
vn 0.8309 -0.5564 -0.0000
vn -0.8387 0.5446 -0.0000
vn -0.8309 0.5564 -0.0000
vn 0.8387 -0.5446 -0.0000
vn 0.8480 0.5300 -0.0000
vn -0.8376 -0.5463 -0.0000
vn -0.8480 -0.5300 -0.0000
vn 0.8376 0.5463 -0.0000
vn -0.0000 0.9848 -0.1736
vn -0.0000 -0.9848 0.1736
vn -0.0000 0.1736 0.9848
vn -0.0000 -0.1736 -0.9848
vn 0.7184 -0.6549 0.2346
vn -0.7184 0.6549 -0.2346
vn -0.0000 0.9414 -0.3372
vn -0.0000 -0.9414 0.3372
vn -0.0000 0.1655 0.9862
vn -0.0000 -0.1655 -0.9862
vn 0.7184 0.6549 -0.2346
vn -0.7184 -0.6549 0.2346
vn 0.7071 -0.7071 -0.0000
vn -0.7071 0.7071 -0.0000
vn 0.7071 0.7071 -0.0000
vn -0.7071 -0.7071 -0.0000
vn -0.0000 -0.7071 0.7071
vn -0.0000 0.7071 0.7071
vn 0.9267 -0.0000 -0.3757
vn -0.9267 -0.0000 0.3757
vn -0.0000 0.9910 -0.1339
vn -0.0000 -0.9910 0.1339
vn 0.9267 -0.0000 0.3757
vn -0.9267 -0.0000 -0.3757
vt 0.468750 0.468750
vt 0.468750 0.718750
vt 0.453125 0.718750
vt 0.453125 0.468750
vt 0.296875 0.468750
vt 0.296875 0.718750
vt 0.281250 0.718750
vt 0.281250 0.468750
vt 0.468750 0.703125
vt 0.281250 0.703125
vt 0.468750 0.484375
vt 0.281250 0.484375
vt 0.031250 0.750000
vt 0.031250 1.000000
vt 0.000000 1.000000
vt 0.000000 0.750000
vt 0.046875 0.968750
vt 0.046875 1.000000
vt 0.000000 0.968750
vt 0.046875 0.750000
vt 0.171875 0.937500
vt 0.171875 0.953125
vt 0.109375 0.953125
vt 0.109375 0.937500
vt 0.028125 0.937500
vt 0.028125 1.000000
vt 0.000000 0.937500
vt 0.028125 0.984375
vt 0.000000 0.984375
vt 0.156250 0.906250
vt 0.156250 0.921875
vt 0.093750 0.921875
vt 0.093750 0.906250
vt 0.046875 0.937500
vt 0.140625 0.906250
vt 0.140625 0.921875
vt 0.039062 0.968750
vt 0.039062 1.000000
vt 0.007812 1.000000
vt 0.007812 0.968750
vt 0.039062 0.750000
vt 0.007812 0.750000
vt 0.015625 1.000000
vt 0.015625 0.750000
vt 0.039062 0.984375
vt 0.007812 0.984375
vt 0.187500 0.578125
vt 0.187500 0.687500
vt 0.000000 0.687500
vt 0.000000 0.578125
vt 0.187500 0.500000
vt 0.000000 0.500000
vt 0.140625 0.984375
vt 0.140625 1.000000
vt 0.015625 0.984375
vt 0.156250 0.859375
vt 0.156250 0.984375
vt 0.000000 0.859375
vt 0.156250 1.000000
vt 0.020312 0.967188
vt 0.020312 1.000000
vt 0.007812 0.967188
vt 0.140625 0.979688
vt 0.140625 0.992188
vt 0.000000 0.992188
vt 0.000000 0.979688
vt 0.140625 0.967188
vt 0.000000 0.967188
vt 0.028125 0.967188
vt 0.035937 0.967188
vt 0.035937 1.000000
vt 0.140625 0.964063
vt 0.000000 0.964063
vt 0.140625 0.971875
vt 0.000000 0.971875
vt 0.515625 0.843750
vt 0.515625 1.000000
vt 0.437500 1.000000
vt 0.437500 0.843750
vt 0.390625 0.750000
vt 0.390625 0.828125
vt 0.265625 0.828125
vt 0.265625 0.750000
vt 0.390625 0.843750
vt 0.390625 1.000000
vt 0.265625 1.000000
vt 0.265625 0.843750
vt 0.437500 0.718750
vt 0.437500 0.468750
vt 0.312500 0.468750
vt 0.312500 0.718750
vt 0.468750 0.687500
vt 0.281250 0.687500
vt 0.468750 0.500000
vt 0.281250 0.500000
vt 0.031250 0.109375
vt 0.031250 0.125000
vt 0.000000 0.125000
vt 0.000000 0.109375
vt 0.324762 0.675237
vt 0.375000 0.762263
vt 0.187500 0.812500
vt 0.375000 0.862737
vt 0.324762 0.949763
vt 0.237738 1.000000
vt 0.137262 1.000000
vt 0.050237 0.949763
vt 0.000000 0.862737
vt 0.000000 0.762263
vt 0.050237 0.675237
vt 0.137262 0.625000
vt 0.237738 0.625000
vt 0.296875 0.343750
vt 0.310481 0.343750
vt 0.310481 0.359375
vt 0.296875 0.359375
vt 0.306775 0.359375
vt 0.306775 0.343750
vt 0.296875 0.357521
vt 0.296875 0.347621
vt 0.303793 0.345768
vt 0.303792 0.359375
vt 0.296875 0.352457
vt 0.310482 0.352457
vt 0.308628 0.359375
vt 0.298728 0.359375
vt 0.296875 0.357522
vt 0.296875 0.347622
vt 0.303792 0.345768
vt 0.303793 0.359375
vt 0.308629 0.359375
vt 0.298729 0.359375
vt 0.296875 0.357522
vt 0.296875 0.347622
vt 0.303792 0.345769
vt 0.303792 0.359375
vt 0.298728 0.359375
vt 0.296875 0.352457
vt 0.310482 0.352458
vt 0.303793 0.345768
vt 0.303793 0.359375
vt 0.296875 0.357521
vt 0.296875 0.347621
vt 0.308629 0.359375
vt 0.298729 0.359375
vt 0.296875 0.352458
vt 0.310482 0.352457
vt 0.296875 0.357522
vt 0.308628 0.359375
vt 0.298728 0.359375
vt 0.296875 0.352458
vt 0.310481 0.352458
vt 0.298728 0.352458
vt 0.308628 0.352458
vt 0.303793 0.347622
vt 0.303793 0.357522
vt 0.296876 0.345768
vt 0.310482 0.359375
vt 0.298729 0.352457
vt 0.308629 0.352458
vt 0.303793 0.347621
vt 0.303793 0.357521
vt 0.296876 0.359375
vt 0.296875 0.345768
vt 0.298728 0.352458
vt 0.308628 0.352457
vt 0.303792 0.347622
vt 0.303792 0.357522
vt 0.296875 0.345769
vt 0.298729 0.352457
vt 0.308629 0.352457
vt 0.296875 0.359374
vt 0.303793 0.347622
vt 0.303792 0.357522
vt 0.298728 0.352457
vt 0.308628 0.352457
vt 0.310482 0.359374
vt 0.303792 0.347621
vt 0.303793 0.357521
vt 0.343750 0.351562
vt 0.312500 0.351562
vt 0.312500 0.359375
vt 0.343750 0.359375
vt 0.312500 0.375000
vt 0.281250 0.375000
vt 0.359375 0.367188
vt 0.359375 0.375000
vt 0.328125 0.375000
vt 0.328125 0.367188
vt 0.296875 0.375000
vt 0.296875 0.367188
vt 0.406250 0.452847
vt 0.406250 0.468750
vt 0.390625 0.468750
vt 0.390625 0.452847
vt 0.437500 0.452847
vt 0.421875 0.468750
vt 0.421875 0.452847
vt 0.367802 0.406250
vt 0.367802 0.421875
vt 0.359990 0.421875
vt 0.359990 0.406250
vt 0.367802 0.359375
vt 0.367802 0.375000
vt 0.359990 0.375000
vt 0.359990 0.359375
vt 0.399052 0.390347
vt 0.399052 0.406250
vt 0.391240 0.406250
vt 0.391240 0.390347
vt 0.359375 0.390347
vt 0.359375 0.406250
vt 0.351562 0.406250
vt 0.351562 0.390347
vt 0.375000 0.343472
vt 0.375000 0.359375
vt 0.359375 0.359375
vt 0.359375 0.343472
vt 0.367802 0.453125
vt 0.367802 0.468750
vt 0.359990 0.468750
vt 0.359990 0.453125
vt 0.399052 0.421875
vt 0.399052 0.437500
vt 0.391240 0.437500
vt 0.391240 0.421875
vt 0.414677 0.452847
vt 0.414677 0.468750
vt 0.406865 0.468750
vt 0.406865 0.452847
vt 0.343750 0.343472
vt 0.335938 0.359375
vt 0.335938 0.343472
vt 0.375000 0.421875
vt 0.421875 0.421875
vt 0.375000 0.468750
vt 0.343750 0.343750
vt 0.343750 0.390625
vt 0.296875 0.390625
vt 0.375000 0.375000
vt 0.328125 0.359375
vt 0.390625 0.453125
vt 0.343750 0.453125
vt 0.343750 0.437500
vt 0.390625 0.437500
vt 0.312500 0.406250
vt 0.359375 0.453125
vt 0.312500 0.453125
vt 0.390625 0.390625
vt 0.375000 0.328125
vt 0.375000 0.343750
vt 0.328125 0.343750
vt 0.328125 0.328125
vt 0.312500 0.437500
vt 0.359375 0.437500
vt 0.265625 0.453125
vt 0.265625 0.437500
vt 0.296875 0.406250
vt 0.296875 0.453125
vt 0.265625 0.406250
vt 0.296875 0.437500
vt 0.210781 0.797031
vt 0.125000 0.882812
vt 0.242188 0.851406
vt 0.242188 0.914219
vt 0.210781 0.968594
vt 0.156406 1.000000
vt 0.093594 1.000000
vt 0.039219 0.968594
vt 0.007812 0.914219
vt 0.007812 0.851406
vt 0.039219 0.797031
vt 0.093594 0.765625
vt 0.156406 0.765625
vt 0.281250 0.343750
vt 0.289622 0.343750
vt 0.289622 0.359375
vt 0.281250 0.359375
vt 0.285731 0.359375
vt 0.285731 0.343750
vt 0.281250 0.357427
vt 0.281250 0.352945
vt 0.288514 0.351001
vt 0.288510 0.359375
vt 0.281250 0.352112
vt 0.289624 0.352112
vt 0.287677 0.359375
vt 0.283195 0.359373
vt 0.281250 0.357431
vt 0.281250 0.352948
vt 0.288510 0.351001
vt 0.288514 0.359375
vt 0.287680 0.359373
vt 0.283197 0.359375
vt 0.281250 0.357430
vt 0.281250 0.352948
vt 0.288511 0.351003
vt 0.288511 0.359375
vt 0.287677 0.359375
vt 0.283194 0.359375
vt 0.281250 0.352111
vt 0.289624 0.352115
vt 0.288513 0.351001
vt 0.288513 0.359375
vt 0.281250 0.357428
vt 0.281252 0.352945
vt 0.287680 0.359375
vt 0.283198 0.359375
vt 0.281250 0.352115
vt 0.289624 0.352111
vt 0.281252 0.357430
vt 0.281250 0.352948
vt 0.287677 0.359375
vt 0.283195 0.359375
vt 0.281250 0.352114
vt 0.289622 0.352114
vt 0.283195 0.352114
vt 0.287677 0.352114
vt 0.288514 0.352948
vt 0.288514 0.357431
vt 0.281254 0.351001
vt 0.289624 0.359375
vt 0.283197 0.352112
vt 0.287680 0.352114
vt 0.288514 0.352945
vt 0.288514 0.357427
vt 0.281254 0.359375
vt 0.281250 0.351001
vt 0.283195 0.352114
vt 0.287677 0.352112
vt 0.288511 0.352948
vt 0.288511 0.357430
vt 0.281250 0.351003
vt 0.283198 0.352111
vt 0.287680 0.352111
vt 0.281250 0.359371
vt 0.288513 0.352948
vt 0.288511 0.357430
vt 0.283194 0.352111
vt 0.287677 0.352111
vt 0.289624 0.359371
vt 0.288511 0.352945
vt 0.288513 0.357428
vt 0.324219 0.421875
vt 0.324219 0.437500
vt 0.312500 0.421875
vt 0.343750 0.421875
vt 0.332031 0.437500
vt 0.332031 0.421875
vt 0.328125 0.406250
vt 0.328125 0.417969
vt 0.320312 0.417969
vt 0.320312 0.406250
vt 0.328125 0.347656
vt 0.320312 0.359375
vt 0.320312 0.347656
vt 0.312500 0.390625
vt 0.304688 0.390625
vt 0.304688 0.375000
vt 0.335938 0.515625
vt 0.335938 0.531250
vt 0.328125 0.531250
vt 0.328125 0.515625
vt 0.292969 0.406250
vt 0.292969 0.421875
vt 0.281250 0.421875
vt 0.281250 0.406250
vt 0.300781 0.421875
vt 0.300781 0.406250
vt 0.296875 0.402344
vt 0.289062 0.402344
vt 0.289062 0.390625
vt 0.296875 0.410156
vt 0.296875 0.421875
vt 0.289062 0.421875
vt 0.289062 0.410156
vt 0.328125 0.421875
vt 0.328125 0.437500
vt 0.320312 0.437500
vt 0.320312 0.421875
vt 0.390625 0.359375
vt 0.390625 0.421875
vt 0.390625 0.343750
vt 0.390625 0.406250
vt 0.359375 0.343750
vt 0.375000 0.406250
vt 0.312500 0.343750
vt 0.375000 0.390625
vt 0.312500 0.328125
vt 0.546875 0.796875
vt 0.546875 1.000000
vt 0.531250 1.000000
vt 0.531250 0.796875
vt 0.671875 0.984375
vt 0.671875 1.000000
vt 0.531250 0.984375
vt 0.140625 0.796875
vt 0.000000 0.796875
vt 0.671875 0.796875
vt 0.673437 0.882812
vt 0.673437 0.968750
vt 0.671875 0.968750
vt 0.671875 0.882812
vt 0.670313 0.968750
vt 0.670313 0.882812
vt 0.687500 0.953125
vt 0.687500 0.954687
vt 0.671875 0.954687
vt 0.671875 0.953125
vt 0.687500 0.951563
vt 0.671875 0.951563
vt 0.687500 0.882812
vt 0.687500 0.968750
vt 0.656250 0.968750
vt 0.656250 0.882812
vt 0.657031 0.800781
vt 0.657031 0.859375
vt 0.656250 0.859375
vt 0.656250 0.800781
vt 0.671875 0.800781
vt 0.671875 0.859375
vt 0.671094 0.859375
vt 0.671094 0.800781
vt 0.687500 0.838995
vt 0.687500 0.840014
vt 0.658203 0.840014
vt 0.658203 0.838995
vt 0.687500 0.800781
vt 0.687500 0.859375
vt 0.658203 0.859375
vt 0.658203 0.800781
vt 0.685547 0.800781
vt 0.685547 0.859375
vt 0.515625 0.515625
vt 0.515625 0.718750
vt 0.500000 0.718750
vt 0.500000 0.515625
vt 0.515625 0.734375
vt 0.500000 0.734375
vt 1.000000 0.000000
vt 1.000000 0.812500
vt 0.937500 0.812500
vt 0.937500 0.000000
vt 1.000000 0.062500
vt 0.937500 0.062500
vt 0.062500 0.812500
vt 0.062500 1.000000
vt 0.000000 0.812500
vt 0.750000 0.718750
vt 0.750000 0.734375
vt 0.734375 0.734375
vt 0.734375 0.718750
vt 0.703125 0.718750
vt 0.703125 0.734375
vt 0.546875 0.734375
vt 0.546875 0.718750
vt 0.125000 0.171875
vt 0.125000 0.990625
vt 0.031250 0.990625
vt 0.031250 0.171875
vt 0.093750 0.171875
vt 0.093750 0.990625
vt 0.000000 0.990625
vt 0.000000 0.171875
vt 0.125000 0.906250
vt 0.125000 1.000000
vt 0.062500 0.906250
vt 0.125000 0.875000
vt 0.125000 0.968750
vt 0.062500 0.968750
vt 0.062500 0.875000
vt 0.062500 0.990625
vt 0.062500 0.171875
vt 0.125000 0.181250
vt 0.031250 0.181250
vt 0.093750 0.181250
vt 0.093750 1.000000
vt 0.000000 0.181250
vt 0.062500 0.181250
vt 1.000000 0.937500
vt 1.000000 1.000000
vt 0.062500 0.000000
vt 0.000000 0.000000
vt 0.125000 0.937500
vt 0.062500 0.937500
vt 1.000000 0.625000
vt 1.000000 0.687500
vt 0.468750 0.625000
vt 0.843750 0.562500
vt 0.843750 0.625000
vt 0.312500 0.625000
vt 0.312500 0.562500
vt 0.656250 0.218750
vt 0.656250 0.750000
vt 0.156250 0.750000
vt 0.156250 0.218750
vt 0.500000 0.375000
vt 0.500000 0.906250
vt 0.000000 0.906250
vt 0.000000 0.375000
vt 0.718750 0.750000
vt 0.718750 0.812500
vt 0.218750 0.812500
vt 0.218750 0.750000
vt 0.843750 0.500000
vt 0.343750 0.562500
vt 0.343750 0.500000
vt 0.937500 0.937500
vt 0.937500 0.968750
vt 0.843750 0.968750
vt 0.843750 0.937500
vt 0.156250 0.937500
vt 0.156250 0.968750
vt 0.125000 0.843750
vt 0.062500 0.843750
vt 0.125000 0.062500
vt 0.125000 0.156250
vt 0.062500 0.156250
vt 0.062500 0.062500
vt 0.562500 0.937500
vt 0.562500 0.968750
vt 1.000000 0.968750
vt 0.437500 0.968750
vt 0.437500 0.937500
vt 0.125000 0.000000
vt 0.125000 0.562500
vt 0.093750 0.562500
vt 0.093750 0.000000
vt 0.125000 0.437500
vt 0.093750 0.437500
vt 0.093750 0.968750
vt 0.093750 0.937500
vt 0.031250 0.937500
vt 0.031250 0.968750
vt 0.750000 0.906250
vt 0.750000 1.000000
vt 0.750000 0.875000
vt 0.750000 0.968750
vt 0.000000 0.875000
vt 0.750000 0.937500
vt 0.500000 1.000000
vt 0.250000 1.000000
vt 0.250000 0.906250
vt 0.500000 0.875000
vt 0.500000 0.968750
vt 0.250000 0.968750
vt 0.250000 0.875000
vt 0.500000 0.937500
vt 0.250000 0.937500
vt 0.312500 0.968750
vt 0.312500 0.843750
vt 0.312500 0.937500
vt 0.603553 0.906250
vt 0.603553 1.000000
vt 0.603553 0.875000
vt 0.603553 0.968750
vt 0.603553 0.937500
vt 0.137500 0.875000
vt 0.137500 1.000000
vt 0.150000 0.875000
vt 0.150000 1.000000
vt 0.012500 1.000000
vt 0.012500 0.875000
vt 0.187500 0.968750
vt 0.187500 1.000000
vt 0.125000 0.812500
vt 0.125000 0.343750
vt 0.093750 0.343750
vt 0.031250 0.343750
vt 0.000000 0.343750
vt 0.062500 0.343750
vt 0.031250 0.906250
vt 0.468750 0.937500
vt 0.468750 1.000000
vt 0.125000 0.531250
vt 0.062500 0.531250
vt 0.125000 0.500000
vt 0.062500 0.500000
s 0
usemtl m_3d215661-f591-00a8-53e2-d8d611c756be
f 4/1/1 2/2/1 1/3/1 3/4/1
f 7/5/2 5/6/2 6/7/2 8/8/2
f 1/9/3 2/2/3 6/7/3 5/10/3
f 4/1/4 3/11/4 7/12/4 8/8/4
f 3/1/5 1/2/5 5/7/5 7/8/5
f 8/1/6 6/2/6 2/7/6 4/8/6
f 12/13/1 10/14/1 9/15/1 11/16/1
f 15/13/2 13/14/2 14/15/2 16/16/2
f 9/17/3 10/18/3 14/15/3 13/19/3
f 12/17/4 11/18/4 15/15/4 16/19/4
f 11/20/5 9/18/5 13/15/5 15/16/5
f 16/20/6 14/18/6 10/15/6 12/16/6
f 20/13/1 18/14/1 17/15/1 19/16/1
f 23/13/2 21/14/2 22/15/2 24/16/2
f 17/17/3 18/18/3 22/15/3 21/19/3
f 20/17/4 19/18/4 23/15/4 24/19/4
f 19/20/5 17/18/5 21/15/5 23/16/5
f 24/20/6 22/18/6 18/15/6 20/16/6
f 26/21/1 9/22/1 18/23/1 25/24/1
f 27/21/2 22/22/2 13/23/2 28/24/2
f 18/25/3 9/26/3 13/15/3 22/27/3
f 26/25/4 25/26/4 27/15/4 28/27/4
f 25/28/5 18/26/5 22/15/5 27/29/5
f 28/28/6 13/26/6 9/15/6 26/29/6
f 32/30/1 30/31/1 29/32/1 31/33/1
f 35/30/2 33/31/2 34/32/2 36/33/2
f 29/34/3 30/18/3 34/15/3 33/27/3
f 32/34/4 31/18/4 35/15/4 36/27/4
f 31/35/5 29/36/5 33/32/5 35/33/5
f 36/35/6 34/36/6 30/32/6 32/33/6
f 40/30/1 38/31/1 37/32/1 39/33/1
f 43/30/2 41/31/2 42/32/2 44/33/2
f 37/34/3 38/18/3 42/15/3 41/27/3
f 40/34/4 39/18/4 43/15/4 44/27/4
f 39/35/5 37/36/5 41/32/5 43/33/5
f 44/35/6 42/36/6 38/32/6 40/33/6
f 46/13/1 20/14/1 19/15/1 45/16/1
f 47/13/2 23/14/2 24/15/2 48/16/2
f 46/37/4 45/38/4 47/39/4 48/40/4
f 45/41/5 19/38/5 23/39/5 47/42/5
f 48/41/6 24/38/6 20/39/6 46/42/6
f 50/13/1 12/14/1 11/43/1 49/44/1
f 51/44/2 15/43/2 16/15/2 52/16/2
f 50/37/4 49/45/4 51/46/4 52/40/4
f 49/41/5 11/38/5 15/39/5 51/42/5
f 52/41/6 16/38/6 12/39/6 50/42/6
f 56/30/1 54/31/1 53/32/1 55/33/1
f 59/30/2 57/31/2 58/32/2 60/33/2
f 53/34/3 54/18/3 58/15/3 57/27/3
f 56/34/4 55/18/4 59/15/4 60/27/4
f 55/35/5 53/36/5 57/32/5 59/33/5
f 60/35/6 58/36/6 54/32/6 56/33/6
f 64/30/1 62/31/1 61/32/1 63/33/1
f 67/30/2 65/31/2 66/32/2 68/33/2
f 61/34/3 62/18/3 66/15/3 65/27/3
f 64/34/4 63/18/4 67/15/4 68/27/4
f 63/35/5 61/36/5 65/32/5 67/33/5
f 68/35/6 66/36/6 62/32/6 64/33/6
f 70/13/1 46/14/1 45/15/1 69/16/1
f 71/13/2 47/14/2 48/15/2 72/16/2
f 70/37/4 69/38/4 71/39/4 72/40/4
f 69/41/5 45/38/5 47/39/5 71/42/5
f 72/41/6 48/38/6 46/39/6 70/42/6
f 74/13/1 50/14/1 49/43/1 73/44/1
f 75/44/2 51/43/2 52/15/2 76/16/2
f 74/37/4 73/45/4 75/46/4 76/40/4
f 73/41/5 49/38/5 51/39/5 75/42/5
f 76/41/6 52/38/6 50/39/6 74/42/6
f 80/30/1 78/31/1 77/32/1 79/33/1
f 83/30/2 81/31/2 82/32/2 84/33/2
f 77/34/3 78/18/3 82/15/3 81/27/3
f 80/34/4 79/18/4 83/15/4 84/27/4
f 79/35/5 77/36/5 81/32/5 83/33/5
f 84/35/6 82/36/6 78/32/6 80/33/6
f 88/30/1 86/31/1 85/32/1 87/33/1
f 91/30/2 89/31/2 90/32/2 92/33/2
f 85/34/3 86/18/3 90/15/3 89/27/3
f 88/34/4 87/18/4 91/15/4 92/27/4
f 87/35/5 85/36/5 89/32/5 91/33/5
f 92/35/6 90/36/6 86/32/6 88/33/6
f 94/13/1 70/14/1 69/15/1 93/16/1
f 95/13/2 71/14/2 72/15/2 96/16/2
f 94/37/4 93/38/4 95/39/4 96/40/4
f 93/41/5 69/38/5 71/39/5 95/42/5
f 96/41/6 72/38/6 70/39/6 94/42/6
f 98/13/1 74/14/1 73/43/1 97/44/1
f 99/44/2 75/43/2 76/15/2 100/16/2
f 98/37/4 97/45/4 99/46/4 100/40/4
f 97/41/5 73/38/5 75/39/5 99/42/5
f 100/41/6 76/38/6 74/39/6 98/42/6
f 104/30/1 102/31/1 101/32/1 103/33/1
f 107/30/2 105/31/2 106/32/2 108/33/2
f 101/34/3 102/18/3 106/15/3 105/27/3
f 104/34/4 103/18/4 107/15/4 108/27/4
f 103/35/5 101/36/5 105/32/5 107/33/5
f 108/35/6 106/36/6 102/32/6 104/33/6
f 112/30/1 110/31/1 109/32/1 111/33/1
f 115/30/2 113/31/2 114/32/2 116/33/2
f 109/34/3 110/18/3 114/15/3 113/27/3
f 112/34/4 111/18/4 115/15/4 116/27/4
f 111/35/5 109/36/5 113/32/5 115/33/5
f 116/35/6 114/36/6 110/32/6 112/33/6
f 118/13/1 94/14/1 93/15/1 117/16/1
f 119/13/2 95/14/2 96/15/2 120/16/2
f 118/37/4 117/38/4 119/39/4 120/40/4
f 117/41/5 93/38/5 95/39/5 119/42/5
f 120/41/6 96/38/6 94/39/6 118/42/6
f 122/13/1 98/14/1 97/43/1 121/44/1
f 123/44/2 99/43/2 100/15/2 124/16/2
f 122/37/4 121/45/4 123/46/4 124/40/4
f 121/41/5 97/38/5 99/39/5 123/42/5
f 124/41/6 100/38/6 98/39/6 122/42/6
f 128/30/1 126/31/1 125/32/1 127/33/1
f 131/30/2 129/31/2 130/32/2 132/33/2
f 125/34/3 126/18/3 130/15/3 129/27/3
f 128/34/4 127/18/4 131/15/4 132/27/4
f 127/35/5 125/36/5 129/32/5 131/33/5
f 132/35/6 130/36/6 126/32/6 128/33/6
f 136/30/1 134/31/1 133/32/1 135/33/1
f 139/30/2 137/31/2 138/32/2 140/33/2
f 133/34/3 134/18/3 138/15/3 137/27/3
f 136/34/4 135/18/4 139/15/4 140/27/4
f 135/35/5 133/36/5 137/32/5 139/33/5
f 140/35/6 138/36/6 134/32/6 136/33/6
f 144/47/1 142/48/1 141/49/1 143/50/1
f 147/47/2 145/48/2 146/49/2 148/50/2
f 141/51/3 142/48/3 146/49/3 145/52/3
f 144/51/4 143/48/4 147/49/4 148/52/4
f 143/47/5 141/48/5 145/49/5 147/50/5
f 148/47/6 146/48/6 142/49/6 144/50/6
f 152/53/1 150/54/1 149/43/1 151/55/1
f 155/53/2 153/54/2 154/43/2 156/55/2
f 149/56/3 150/57/3 154/29/3 153/58/3
f 152/56/4 151/57/4 155/29/4 156/58/4
f 151/57/5 149/59/5 153/15/5 155/29/5
f 156/57/6 154/59/6 150/15/6 152/29/6
f 160/60/7 157/61/7 158/39/7 159/62/7
f 163/60/8 161/61/8 162/39/8 164/62/8
f 158/63/9 157/64/9 162/65/9 161/66/9
f 160/63/10 159/64/10 163/65/10 164/66/10
f 159/67/5 158/54/5 161/15/5 163/68/5
f 164/67/6 162/54/6 157/15/6 160/68/6
f 168/69/7 166/26/7 165/15/7 167/68/7
f 171/70/8 169/71/8 170/39/8 172/62/8
f 165/72/9 166/64/9 170/65/9 169/73/9
f 168/74/10 167/54/10 171/15/10 172/75/10
f 167/67/5 165/54/5 169/15/5 171/68/5
f 172/67/6 170/54/6 166/15/6 168/68/6
f 176/62/11 174/39/11 173/61/11 175/60/11
f 179/62/12 177/39/12 178/61/12 180/60/12
f 173/66/13 174/65/13 178/64/13 177/63/13
f 176/66/14 175/65/14 179/64/14 180/63/14
f 175/68/5 173/15/5 177/54/5 179/67/5
f 180/68/6 178/15/6 174/54/6 176/67/6
f 184/62/11 182/39/11 181/71/11 183/70/11
f 187/68/12 185/15/12 186/26/12 188/69/12
f 181/73/13 182/65/13 186/64/13 185/72/13
f 184/75/14 183/15/14 187/54/14 188/74/14
f 183/68/5 181/15/5 185/54/5 187/67/5
f 188/68/6 186/15/6 182/54/6 184/67/6
f 192/76/1 190/77/1 189/78/1 191/79/1
f 195/76/2 193/77/2 194/78/2 196/79/2
f 189/80/3 190/81/3 194/82/3 193/83/3
f 192/80/4 191/81/4 195/82/4 196/83/4
f 191/84/5 189/85/5 193/86/5 195/87/5
f 196/84/6 194/85/6 190/86/6 192/87/6
f 200/1/1 198/2/1 197/88/1 199/89/1
f 203/90/2 201/91/2 202/7/2 204/8/2
f 197/92/3 198/2/3 202/7/3 201/93/3
f 200/1/4 199/94/4 203/95/4 204/8/4
f 199/1/5 197/2/5 201/7/5 203/8/5
f 204/96/6 202/97/6 198/98/6 200/99/6
f 218/113/15 222/114/15 223/115/15 219/116/15
f 221/117/16 225/116/16 224/113/16 220/118/16
f 220/119/5 224/120/5 222/121/5 218/122/5
f 219/123/6 223/124/6 225/125/6 221/126/6
f 222/113/17 226/114/17 227/115/17 223/116/17
f 225/117/18 229/116/18 228/113/18 224/118/18
f 224/127/5 228/128/5 226/129/5 222/130/5
f 223/123/6 227/124/6 229/131/6 225/132/6
f 226/113/1 230/114/1 231/115/1 227/116/1
f 229/117/2 233/116/2 232/113/2 228/118/2
f 228/133/5 232/134/5 230/135/5 226/136/5
f 227/135/6 231/136/6 233/133/6 229/134/6
f 230/113/19 234/114/19 235/115/19 231/116/19
f 233/117/20 237/116/20 236/113/20 232/118/20
f 232/125/5 236/137/5 234/138/5 230/139/5
f 231/140/6 235/141/6 237/142/6 233/143/6
f 234/113/21 238/114/21 239/115/21 235/116/21
f 237/117/22 241/116/22 240/113/22 236/118/22
f 236/144/5 240/145/5 238/146/5 234/147/5
f 235/140/6 239/141/6 241/148/6 237/128/6
f 238/113/4 242/114/4 243/115/4 239/116/4
f 241/117/3 245/116/3 244/113/3 240/118/3
f 240/149/5 244/150/5 242/151/5 238/152/5
f 239/115/6 243/116/6 245/153/6 241/154/6
f 242/113/16 246/114/16 247/115/16 243/116/16
f 245/117/15 249/116/15 248/113/15 244/118/15
f 244/155/5 248/156/5 246/116/5 242/157/5
f 243/158/6 247/116/6 249/159/6 245/160/6
f 246/113/18 250/114/18 251/115/18 247/116/18
f 249/117/17 253/116/17 252/113/17 248/118/17
f 248/161/5 252/162/5 250/163/5 246/164/5
f 247/158/6 251/116/6 253/165/6 249/166/6
f 250/113/2 254/114/2 255/115/2 251/116/2
f 253/117/1 257/116/1 256/113/1 252/118/1
f 252/167/5 256/168/5 254/116/5 250/169/5
f 251/116/6 255/169/6 257/167/6 253/168/6
f 254/113/20 258/114/20 259/115/20 255/116/20
f 257/117/19 261/116/19 260/113/19 256/118/19
f 256/170/5 260/171/5 258/158/5 254/172/5
f 255/116/6 259/164/6 261/173/6 257/174/6
f 258/113/22 262/114/22 263/115/22 259/116/22
f 261/117/21 265/116/21 264/113/21 260/118/21
f 260/175/5 264/176/5 262/177/5 258/116/5
f 259/116/6 263/164/6 265/178/6 261/179/6
f 262/113/3 218/114/3 219/115/3 263/116/3
f 265/117/4 221/116/4 220/113/4 264/118/4
f 264/153/5 220/154/5 218/115/5 262/116/5
f 263/151/6 219/152/6 221/149/6 265/150/6
f 269/180/2 268/181/2 266/182/2 267/183/2
f 272/180/2 270/183/2 271/182/2 273/181/2
f 266/184/3 267/90/3 271/8/3 270/185/3
f 269/184/4 268/90/4 272/8/4 273/185/4
f 268/186/5 266/187/5 270/188/5 272/189/5
f 273/189/6 271/188/6 267/190/6 269/191/6
f 277/192/1 275/193/1 274/194/1 276/195/1
f 280/196/2 278/89/2 279/197/2 281/198/2
f 274/199/3 275/200/3 279/201/3 278/202/3
f 277/203/4 276/204/4 280/205/4 281/206/4
f 276/207/5 274/208/5 278/209/5 280/210/5
f 281/211/6 279/212/6 275/213/6 277/214/6
f 285/215/1 283/216/1 282/217/1 284/218/1
f 288/192/2 286/193/2 287/194/2 289/195/2
f 282/219/3 283/220/3 287/221/3 286/222/3
f 285/223/4 284/224/4 288/225/4 289/226/4
f 284/227/5 282/228/5 286/229/5 288/230/5
f 289/231/6 287/183/6 283/232/6 285/233/6
f 266/234/23 282/235/23 283/197/23 267/236/23
f 287/237/24 286/238/24 268/239/24 269/113/24
f 286/216/5 282/240/5 266/188/5 268/241/5
f 267/242/25 283/243/26 287/244/26 269/245/26
f 272/246/27 274/212/27 275/247/27 273/248/27
f 279/249/28 278/245/28 270/244/28 271/238/28
f 278/250/5 274/251/5 272/252/5 270/253/5
f 273/247/29 275/248/30 279/254/29 271/255/29
f 303/113/15 307/114/15 308/115/15 304/116/15
f 306/117/16 310/116/16 309/113/16 305/118/16
f 305/119/5 309/120/5 307/121/5 303/122/5
f 304/123/6 308/124/6 310/125/6 306/126/6
f 307/113/17 311/114/17 312/115/17 308/116/17
f 310/117/18 314/116/18 313/113/18 309/118/18
f 309/127/5 313/128/5 311/129/5 307/130/5
f 308/123/6 312/124/6 314/131/6 310/132/6
f 311/113/1 315/114/1 316/115/1 312/116/1
f 314/117/2 318/116/2 317/113/2 313/118/2
f 313/133/5 317/134/5 315/135/5 311/136/5
f 312/135/6 316/136/6 318/133/6 314/134/6
f 315/113/19 319/114/19 320/115/19 316/116/19
f 318/117/20 322/116/20 321/113/20 317/118/20
f 317/125/5 321/137/5 319/138/5 315/139/5
f 316/140/6 320/141/6 322/142/6 318/143/6
f 319/113/21 323/114/21 324/115/21 320/116/21
f 322/117/22 326/116/22 325/113/22 321/118/22
f 321/144/5 325/145/5 323/146/5 319/147/5
f 320/140/6 324/141/6 326/148/6 322/128/6
f 323/113/4 327/114/4 328/115/4 324/116/4
f 326/117/3 330/116/3 329/113/3 325/118/3
f 325/149/5 329/150/5 327/151/5 323/152/5
f 324/115/6 328/116/6 330/153/6 326/154/6
f 327/113/16 331/114/16 332/115/16 328/116/16
f 330/117/15 334/116/15 333/113/15 329/118/15
f 329/155/5 333/156/5 331/116/5 327/157/5
f 328/158/6 332/116/6 334/159/6 330/160/6
f 331/113/18 335/114/18 336/115/18 332/116/18
f 334/117/17 338/116/17 337/113/17 333/118/17
f 333/161/5 337/162/5 335/163/5 331/164/5
f 332/158/6 336/116/6 338/165/6 334/166/6
f 335/113/2 339/114/2 340/115/2 336/116/2
f 338/117/1 342/116/1 341/113/1 337/118/1
f 337/167/5 341/168/5 339/116/5 335/169/5
f 336/116/6 340/169/6 342/167/6 338/168/6
f 339/113/20 343/114/20 344/115/20 340/116/20
f 342/117/19 346/116/19 345/113/19 341/118/19
f 341/170/5 345/171/5 343/158/5 339/172/5
f 340/116/6 344/164/6 346/173/6 342/174/6
f 343/113/22 347/114/22 348/115/22 344/116/22
f 346/117/21 350/116/21 349/113/21 345/118/21
f 345/175/5 349/176/5 347/177/5 343/116/5
f 344/116/6 348/164/6 350/178/6 346/179/6
f 347/113/3 303/114/3 304/115/3 348/116/3
f 350/117/4 306/116/4 305/113/4 349/118/4
f 349/153/5 305/154/5 303/115/5 347/116/5
f 348/151/6 304/152/6 306/149/6 350/150/6
f 354/180/1 352/183/1 351/182/1 353/181/1
f 357/180/1 358/181/1 356/182/1 355/183/1
f 351/184/3 352/90/3 356/8/3 355/185/3
f 354/184/4 353/90/4 357/8/4 358/185/4
f 353/186/5 351/187/5 355/188/5 357/189/5
f 358/189/6 356/188/6 352/190/6 354/191/6
f 362/192/1 360/193/1 359/194/1 361/195/1
f 365/196/2 363/89/2 364/197/2 366/198/2
f 359/199/3 360/200/3 364/201/3 363/202/3
f 362/203/4 361/204/4 365/205/4 366/206/4
f 361/207/5 359/208/5 363/209/5 365/210/5
f 366/211/6 364/212/6 360/213/6 362/214/6
f 370/215/1 368/216/1 367/217/1 369/218/1
f 373/192/2 371/193/2 372/194/2 374/195/2
f 367/219/3 368/220/3 372/221/3 371/222/3
f 370/223/4 369/224/4 373/225/4 374/226/4
f 369/227/5 367/228/5 371/229/5 373/230/5
f 374/231/6 372/183/6 368/232/6 370/233/6
f 351/234/23 367/235/23 368/197/23 352/236/23
f 372/237/24 371/238/24 353/239/24 354/113/24
f 371/216/5 367/240/5 351/188/5 353/241/5
f 352/242/26 368/243/26 372/244/26 354/245/26
f 357/246/27 359/212/27 360/247/27 358/248/27
f 364/249/28 363/245/28 355/244/28 356/238/28
f 363/250/5 359/251/5 357/252/5 355/253/5
f 358/247/29 360/248/30 364/254/29 356/255/29
f 378/255/1 376/247/1 375/256/1 377/257/1
f 381/255/2 379/247/2 380/256/2 382/257/2
f 375/258/3 376/259/3 380/256/3 379/260/3
f 378/258/4 377/259/4 381/256/4 382/260/4
f 377/261/5 375/259/5 379/256/5 381/257/5
f 382/261/6 380/259/6 376/256/6 378/257/6
f 396/275/21 400/276/21 401/277/21 397/278/21
f 399/279/22 403/278/22 402/275/22 398/280/22
f 398/281/6 402/282/6 400/283/6 396/284/6
f 397/285/5 401/286/5 403/287/5 399/288/5
f 400/275/19 404/276/19 405/277/19 401/278/19
f 403/279/20 407/278/20 406/275/20 402/280/20
f 402/289/6 406/290/6 404/291/6 400/292/6
f 401/285/5 405/286/5 407/293/5 403/294/5
f 404/275/1 408/276/1 409/277/1 405/278/1
f 407/279/2 411/278/2 410/275/2 406/280/2
f 406/295/6 410/296/6 408/297/6 404/298/6
f 405/297/5 409/298/5 411/295/5 407/296/5
f 408/275/17 412/276/17 413/277/17 409/278/17
f 411/279/18 415/278/18 414/275/18 410/280/18
f 410/299/6 414/300/6 412/301/6 408/302/6
f 409/303/5 413/304/5 415/305/5 411/306/5
f 412/275/15 416/276/15 417/277/15 413/278/15
f 415/279/16 419/278/16 418/275/16 414/280/16
f 414/307/6 418/308/6 416/309/6 412/310/6
f 413/303/5 417/304/5 419/311/5 415/312/5
f 416/275/3 420/276/3 421/277/3 417/278/3
f 419/279/4 423/278/4 422/275/4 418/280/4
f 418/313/6 422/314/6 420/315/6 416/316/6
f 417/277/5 421/278/5 423/317/5 419/318/5
f 420/275/22 424/276/22 425/277/22 421/278/22
f 423/279/21 427/278/21 426/275/21 422/280/21
f 422/319/6 426/320/6 424/278/6 420/321/6
f 421/322/5 425/278/5 427/323/5 423/324/5
f 424/275/20 428/276/20 429/277/20 425/278/20
f 427/279/19 431/278/19 430/275/19 426/280/19
f 426/325/6 430/326/6 428/327/6 424/328/6
f 425/322/5 429/278/5 431/329/5 427/330/5
f 428/275/2 432/276/2 433/277/2 429/278/2
f 431/279/1 435/278/1 434/275/1 430/280/1
f 430/331/6 434/332/6 432/278/6 428/333/6
f 429/278/5 433/333/5 435/331/5 431/332/5
f 432/275/18 436/276/18 437/277/18 433/278/18
f 435/279/17 439/278/17 438/275/17 434/280/17
f 434/334/6 438/335/6 436/322/6 432/336/6
f 433/278/5 437/328/5 439/337/5 435/338/5
f 436/275/16 440/276/16 441/277/16 437/278/16
f 439/279/15 443/278/15 442/275/15 438/280/15
f 438/339/6 442/340/6 440/341/6 436/278/6
f 437/278/5 441/328/5 443/342/5 439/343/5
f 440/275/4 396/276/4 397/277/4 441/278/4
f 443/279/3 399/278/3 398/275/3 442/280/3
f 442/317/6 398/318/6 396/277/6 440/278/6
f 441/315/5 397/316/5 399/313/5 443/314/5
f 447/344/1 445/345/1 444/254/1 446/346/1
f 450/347/2 448/244/2 449/348/2 451/349/2
f 444/350/3 445/351/3 449/352/3 448/353/3
f 447/354/4 446/241/4 450/355/4 451/356/4
f 446/184/5 444/357/5 448/358/5 450/359/5
f 451/360/6 449/361/6 445/362/6 447/363/6
f 455/364/1 453/365/1 452/366/1 454/367/1
f 458/246/2 456/346/2 457/368/2 459/369/2
f 452/239/3 453/370/3 457/371/3 456/372/3
f 455/373/4 454/374/4 458/375/4 459/376/4
f 454/377/5 452/378/5 456/379/5 458/380/5
f 459/353/6 457/380/6 453/346/6 455/246/6
f 462/381/4 460/382/4 461/377/4 463/241/4
f 460/252/31 379/383/31 380/384/31 461/350/31
f 382/385/32 381/212/32 462/258/32 463/113/32
f 381/251/5 379/386/5 460/246/5 462/387/5
f 461/384/33 380/350/34 382/252/33 463/383/33
f 376/382/35 375/377/35 464/241/35 465/381/35
f 466/250/36 377/388/36 378/357/36 467/389/36
f 465/216/4 464/234/4 466/346/4 467/182/4
f 464/251/5 375/386/5 377/246/5 466/387/5
f 378/386/37 376/246/37 465/387/37 467/251/37
f 471/390/1 469/391/1 468/392/1 470/393/1
f 474/390/2 472/391/2 473/392/2 475/393/2
f 468/394/3 469/395/3 473/392/3 472/396/3
f 471/394/4 470/395/4 474/392/4 475/396/4
f 470/397/5 468/54/5 472/15/5 474/398/5
f 475/399/6 473/395/6 469/392/6 471/393/6
f 479/400/38 477/401/38 476/402/38 478/403/38
f 482/403/39 480/402/39 481/404/39 483/405/39
f 476/406/3 477/407/3 481/408/3 480/409/3
f 479/410/2 478/406/2 482/409/2 483/411/2
f 478/412/5 476/413/5 480/402/5 482/403/5
f 483/403/6 481/402/6 477/414/6 479/415/6
f 479/400/40 485/401/40 484/402/40 478/403/40
f 488/403/41 486/402/41 487/404/41 489/405/41
f 484/406/4 485/407/4 487/408/4 486/409/4
f 479/410/1 478/406/1 488/409/1 489/411/1
f 478/412/5 484/413/5 486/402/5 488/403/5
f 489/403/6 487/402/6 485/414/6 479/415/6
f 483/416/42 491/417/42 490/418/42 482/419/42
f 478/420/43 492/421/43 493/422/43 479/423/43
f 490/424/3 491/425/3 493/426/3 492/427/3
f 482/428/5 490/429/5 492/430/5 478/431/5
f 479/432/6 493/433/6 491/418/6 483/419/6
f 489/416/44 495/417/44 494/418/44 488/419/44
f 478/420/45 496/421/45 497/422/45 479/423/45
f 494/424/4 495/425/4 497/426/4 496/427/4
f 488/428/5 494/429/5 496/430/5 478/431/5
f 479/432/6 497/433/6 495/418/6 489/419/6
f 501/434/1 499/435/1 498/436/1 500/437/1
f 504/434/2 502/435/2 503/436/2 505/437/2
f 498/435/3 499/438/3 503/439/3 502/436/3
f 501/435/4 500/438/4 504/439/4 505/436/4
f 500/434/5 498/435/5 502/436/5 504/437/5
f 505/434/6 503/435/6 499/436/6 501/437/6
f 509/434/1 507/435/1 506/436/1 508/437/1
f 512/434/2 510/435/2 511/436/2 513/437/2
f 506/435/3 507/438/3 511/439/3 510/436/3
f 509/435/4 508/438/4 512/439/4 513/436/4
f 508/434/5 506/435/5 510/436/5 512/437/5
f 513/434/6 511/435/6 507/436/6 509/437/6
f 549/449/1 547/450/1 546/451/1 548/452/1
f 552/435/2 550/438/2 551/439/2 553/436/2
f 546/453/3 547/454/3 551/455/3 550/456/3
f 549/453/4 548/454/4 552/455/4 553/456/4
f 548/453/5 546/454/5 550/455/5 552/456/5
f 553/453/6 551/454/6 547/455/6 549/456/6
usemtl m_409504fd-f58c-4195-329e-2b61b82ac830
f 207/100/6 208/101/6 205/102/6
f 208/101/6 209/103/6 205/102/6
f 209/103/6 210/104/6 205/102/6
f 210/104/6 211/105/6 205/102/6
f 211/105/6 212/106/6 205/102/6
f 212/106/6 213/107/6 205/102/6
f 213/107/6 214/108/6 205/102/6
f 214/108/6 215/109/6 205/102/6
f 215/109/6 216/110/6 205/102/6
f 216/110/6 217/111/6 205/102/6
f 217/111/6 206/112/6 205/102/6
f 206/112/6 207/100/6 205/102/6
f 292/100/6 293/101/6 290/102/6
f 293/101/6 294/103/6 290/102/6
f 294/103/6 295/104/6 290/102/6
f 295/104/6 296/105/6 290/102/6
f 296/105/6 297/106/6 290/102/6
f 297/106/6 298/107/6 290/102/6
f 298/107/6 299/108/6 290/102/6
f 299/108/6 300/109/6 290/102/6
f 300/109/6 301/110/6 290/102/6
f 301/110/6 302/111/6 290/102/6
f 302/111/6 291/112/6 290/102/6
f 291/112/6 292/100/6 290/102/6
f 385/262/6 383/263/6 386/264/6
f 386/264/6 383/263/6 387/265/6
f 387/265/6 383/263/6 388/266/6
f 388/266/6 383/263/6 389/267/6
f 389/267/6 383/263/6 390/268/6
f 390/268/6 383/263/6 391/269/6
f 391/269/6 383/263/6 392/270/6
f 392/270/6 383/263/6 393/271/6
f 393/271/6 383/263/6 394/272/6
f 394/272/6 383/263/6 395/273/6
f 395/273/6 383/263/6 384/274/6
f 384/274/6 383/263/6 385/262/6
usemtl m_b2af6bd8-ffc8-ff72-7f7b-7b18782af15d
f 517/440/1 515/441/1 514/442/1 516/443/1
f 520/440/2 518/441/2 519/442/2 521/443/2
f 514/440/46 515/444/46 519/445/46 518/443/46
f 517/440/47 516/444/47 520/445/47 521/443/47
f 516/440/48 514/441/48 518/442/48 520/443/48
f 521/440/49 519/441/49 515/442/49 517/443/49
f 525/446/50 523/447/50 522/15/50 524/448/50
f 528/446/51 526/447/51 527/15/51 529/448/51
f 522/440/52 523/444/52 527/445/52 526/443/52
f 525/440/53 524/444/53 528/445/53 529/443/53
f 524/446/54 522/447/54 526/15/54 528/448/54
f 529/446/55 527/447/55 523/15/55 525/448/55
f 533/446/56 531/447/56 530/15/56 532/448/56
f 536/446/57 534/447/57 535/15/57 537/448/57
f 530/440/52 531/444/52 535/445/52 534/443/52
f 533/440/53 532/444/53 536/445/53 537/443/53
f 532/446/54 530/447/54 534/15/54 536/448/54
f 537/446/55 535/447/55 531/15/55 533/448/55
f 541/440/1 539/441/1 538/442/1 540/443/1
f 544/440/2 542/441/2 543/442/2 545/443/2
f 538/440/46 539/444/46 543/445/46 542/443/46
f 541/440/47 540/444/47 544/445/47 545/443/47
f 540/440/48 538/441/48 542/442/48 544/443/48
f 545/440/49 543/441/49 539/442/49 541/443/49
f 3/457/1 555/458/1 554/459/1 556/460/1
f 559/461/2 557/462/2 558/463/2 200/464/2
f 554/465/3 555/466/3 558/447/3 557/467/3
f 3/468/4 556/469/4 559/470/4 200/471/4
f 556/457/5 554/458/5 557/472/5 559/473/5
f 200/473/6 558/472/6 555/463/6 3/464/6
f 204/474/1 561/466/1 560/14/1 562/475/1
f 565/476/2 563/477/2 564/15/2 7/478/2
f 560/465/3 561/466/3 564/447/3 563/467/3
f 204/468/4 562/469/4 565/470/4 7/471/4
f 562/474/5 560/466/5 563/447/5 565/479/5
f 7/479/6 564/447/6 561/15/6 204/478/6
f 569/480/1 567/481/1 566/15/1 568/27/1
f 572/480/2 570/481/2 571/15/2 573/27/2
f 566/482/3 567/447/3 571/15/3 570/483/3
f 569/482/4 568/447/4 572/15/4 573/483/4
f 568/484/5 566/466/5 570/447/5 572/485/5
f 573/485/6 571/447/6 567/15/6 569/27/6
f 577/486/1 575/487/1 574/92/1 576/488/1
f 580/489/2 578/490/2 579/491/2 581/492/2
f 574/493/3 575/494/3 579/495/3 578/496/3
f 577/497/4 576/498/4 580/499/4 581/500/4
f 576/501/5 574/502/5 578/503/5 580/504/5
f 581/505/6 579/489/6 575/506/6 577/507/6
f 585/508/1 583/509/1 582/510/1 584/511/1
f 587/512/2 586/513/2 570/470/2 572/485/2
f 582/514/3 583/484/3 570/485/3 586/515/3
f 585/516/4 584/517/4 587/518/4 572/519/4
f 584/484/5 582/469/5 586/470/5 587/485/5
f 572/485/6 570/470/6 583/19/6 585/27/6
f 591/520/1 589/521/1 588/19/1 590/27/1
f 594/480/2 592/522/2 593/523/2 595/524/2
f 588/525/3 589/526/3 593/527/3 592/528/3
f 591/529/4 590/466/4 594/477/4 595/530/4
f 590/484/5 588/469/5 592/531/5 594/532/5
f 595/533/6 593/534/6 589/19/6 591/27/6
f 590/508/1 588/509/1 597/510/1 598/511/1
f 596/512/2 599/513/2 600/470/2 601/485/2
f 597/514/3 588/484/3 600/485/3 599/515/3
f 590/516/4 598/517/4 596/518/4 601/519/4
f 598/484/5 597/469/5 599/470/5 596/485/5
f 601/485/6 600/470/6 588/19/6 590/27/6
f 603/484/1 3/466/1 556/14/1 602/533/1
f 604/532/2 565/477/2 7/15/2 605/27/2
f 556/535/3 3/536/3 7/15/3 565/499/3
f 603/537/4 602/538/4 604/19/4 605/539/4
f 602/540/5 556/536/5 565/15/5 604/27/5
f 605/540/6 7/536/6 3/15/6 603/27/6
f 609/484/1 607/469/1 606/534/1 608/533/1
f 612/532/2 610/531/2 611/19/2 613/27/2
f 606/498/3 607/541/3 611/542/3 610/543/3
f 609/544/4 608/545/4 612/546/4 613/547/4
f 608/548/5 606/545/5 610/546/5 612/549/5
f 613/548/6 611/545/6 607/546/6 609/549/6
f 617/512/1 615/513/1 614/534/1 616/533/1
f 620/512/2 618/513/2 619/534/2 621/533/2
f 614/79/3 615/523/3 619/550/3 618/551/3
f 617/79/4 616/523/4 620/550/4 621/551/4
f 616/524/5 614/523/5 618/550/5 620/552/5
f 621/524/6 619/523/6 615/550/6 617/552/6
f 625/484/58 623/469/58 622/534/58 624/533/58
f 628/532/59 626/531/59 627/19/59 629/27/59
f 622/498/60 623/541/60 627/542/60 626/543/60
f 625/544/61 624/545/61 628/546/61 629/547/61
f 624/548/5 622/545/5 626/546/5 628/549/5
f 629/548/6 627/545/6 623/546/6 625/549/6
f 633/484/60 631/469/60 630/534/60 632/533/60
f 636/532/61 634/531/61 635/19/61 637/27/61
f 630/553/59 631/554/59 635/542/59 634/543/59
f 633/555/58 632/556/58 636/546/58 637/547/58
f 632/557/5 630/556/5 634/546/5 636/549/5
f 637/557/6 635/556/6 631/546/6 633/549/6
f 641/468/1 639/466/1 638/15/1 640/539/1
f 644/468/2 642/466/2 643/15/2 645/539/2
f 638/558/3 639/559/3 643/15/3 642/539/3
f 641/558/4 640/559/4 644/15/4 645/539/4
f 640/558/5 638/559/5 642/15/5 644/539/5
f 645/560/6 643/561/6 639/562/6 641/563/6
f 649/564/1 647/565/1 646/15/1 648/19/1
f 652/564/2 650/565/2 651/15/2 653/19/2
f 646/566/3 647/466/3 651/447/3 650/446/3
f 649/566/4 648/466/4 652/447/4 653/446/4
f 648/469/5 646/466/5 650/447/5 652/470/5
f 653/470/6 651/447/6 647/15/6 649/19/6
f 657/564/1 655/565/1 654/15/1 656/19/1
f 660/564/2 658/565/2 659/15/2 661/19/2
f 654/566/3 655/466/3 659/447/3 658/446/3
f 657/566/4 656/466/4 660/447/4 661/446/4
f 656/469/5 654/466/5 658/447/5 660/470/5
f 661/470/6 659/447/6 655/15/6 657/19/6
f 665/567/1 663/469/1 662/531/1 664/568/1
f 668/569/2 666/534/2 667/19/2 669/570/2
f 662/469/3 663/466/3 667/447/3 666/470/3
f 665/468/4 664/465/4 668/467/4 669/471/4
f 664/567/5 662/469/5 666/470/5 668/571/5
f 669/571/6 667/470/6 663/19/6 665/570/6
f 665/484/1 664/532/1 670/33/1
f 668/533/2 669/27/2 671/572/2
f 670/465/62 664/484/62 668/485/62 671/467/62
f 671/467/6 669/485/6 665/27/6 670/499/6
f 674/564/1 673/565/1 672/15/1 663/19/1
f 667/564/2 675/565/2 676/15/2 677/19/2
f 672/566/3 673/466/3 676/447/3 675/446/3
f 674/566/4 663/466/4 667/447/4 677/446/4
f 663/469/5 672/466/5 675/447/5 667/470/5
f 677/470/6 676/447/6 673/15/6 674/19/6
f 672/59/1 662/513/1 663/564/1
f 675/14/2 667/19/2 666/534/2
f 662/469/63 672/466/63 675/447/63 666/470/63
f 646/59/1 678/513/1 648/564/1
f 650/14/2 652/19/2 679/534/2
f 648/566/4 678/514/4 679/515/4 652/446/4
f 678/469/63 646/466/63 650/447/63 679/470/63
f 681/564/1 680/565/1 665/15/1 670/19/1
f 671/564/2 669/565/2 682/15/2 683/19/2
f 665/566/3 680/466/3 682/447/3 669/446/3
f 681/566/4 670/466/4 671/447/4 683/446/4
f 683/470/6 682/447/6 680/15/6 681/19/6
f 654/567/1 648/469/1 678/531/1 684/568/1
f 685/569/2 679/534/2 652/19/2 658/570/2
f 654/468/4 684/465/4 685/467/4 658/471/4
f 684/567/5 678/469/5 679/470/5 685/571/5
f 658/571/6 652/470/6 648/19/6 654/570/6
f 654/484/1 684/532/1 656/33/1
f 685/533/2 658/27/2 660/572/2
f 656/465/62 684/484/62 685/485/62 660/467/62
f 689/548/64 687/541/64 686/14/64 688/533/64
f 692/573/65 690/574/65 691/15/65 693/27/65
f 686/575/66 687/466/66 691/447/66 690/576/66
f 689/577/67 688/469/67 692/470/67 693/578/67
f 688/484/5 686/466/5 690/447/5 692/485/5
f 693/485/6 691/447/6 687/15/6 689/27/6
f 693/548/68 691/541/68 694/14/68 695/533/68
f 698/573/69 696/574/69 697/15/69 699/27/69
f 694/575/66 691/466/66 697/447/66 696/576/66
f 693/577/67 695/469/67 698/470/67 699/578/67
f 695/484/5 694/466/5 696/447/5 698/485/5
f 699/485/6 697/447/6 691/15/6 693/27/6
