# Blender 5.2.0 LTS
# www.blender.org
mtllib ks_vr_r_400_right.mtl
o tube.004
v 0.183464 5.617188 -0.500000
v 0.183464 5.617188 -0.562500
v 0.176050 5.589520 -0.500000
v 0.176050 5.589520 -0.562500
v 0.230599 5.589974 -0.500000
v 0.230599 5.589974 -0.562500
v 0.210345 5.569720 -0.500000
v 0.210345 5.569720 -0.562500
v 0.257812 5.542839 -0.500000
v 0.257812 5.542839 -0.562500
v 0.230145 5.535425 -0.500000
v 0.230145 5.535425 -0.562500
v 0.257812 5.488411 -0.500000
v 0.257812 5.488411 -0.562500
v 0.230145 5.495825 -0.500000
v 0.230145 5.495825 -0.562500
v 0.230599 5.441276 -0.500000
v 0.230599 5.441276 -0.562500
v 0.210345 5.461530 -0.500000
v 0.210345 5.461530 -0.562500
v 0.183464 5.414062 -0.500000
v 0.183464 5.414062 -0.562500
v 0.176050 5.441730 -0.500000
v 0.176050 5.441730 -0.562500
v 0.129036 5.414062 -0.500000
v 0.129036 5.414062 -0.562500
v 0.136450 5.441730 -0.500000
v 0.136450 5.441730 -0.562500
v 0.081901 5.441276 -0.500000
v 0.081901 5.441276 -0.562500
v 0.102155 5.461530 -0.500000
v 0.102155 5.461530 -0.562500
v 0.054688 5.488411 -0.500000
v 0.054688 5.488411 -0.562500
v 0.082355 5.495825 -0.500000
v 0.082355 5.495825 -0.562500
v 0.054688 5.542839 -0.500000
v 0.054688 5.542839 -0.562500
v 0.082355 5.535425 -0.500000
v 0.082355 5.535425 -0.562500
v 0.081901 5.589974 -0.500000
v 0.081901 5.589974 -0.562500
v 0.102155 5.569720 -0.500000
v 0.102155 5.569720 -0.562500
v 0.129036 5.617188 -0.500000
v 0.129036 5.617188 -0.562500
v 0.136450 5.589520 -0.500000
v 0.136450 5.589520 -0.562500
v 0.156250 5.515625 -0.534375
v 0.181370 5.609375 -0.534375
v 0.224880 5.584255 -0.534375
v 0.250000 5.540745 -0.534375
v 0.250000 5.490505 -0.534375
v 0.224880 5.446995 -0.534375
v 0.181370 5.421875 -0.534375
v 0.131130 5.421875 -0.534375
v 0.087620 5.446995 -0.534375
v 0.062500 5.490505 -0.534375
v 0.062500 5.540745 -0.534375
v 0.087620 5.584255 -0.534375
v 0.131130 5.609375 -0.534375
v -0.156250 5.515625 -0.534375
v -0.131130 5.609375 -0.534375
v -0.087620 5.584255 -0.534375
v -0.062500 5.540745 -0.534375
v -0.062500 5.490505 -0.534375
v -0.087620 5.446995 -0.534375
v -0.131130 5.421875 -0.534375
v -0.181370 5.421875 -0.534375
v -0.224880 5.446995 -0.534375
v -0.250000 5.490505 -0.534375
v -0.250000 5.540745 -0.534375
v -0.224880 5.584255 -0.534375
v -0.181370 5.609375 -0.534375
v 0.218750 5.140625 -0.525000
v 0.233404 5.085938 -0.525000
v 0.258784 5.100591 -0.525000
v 0.273438 5.125971 -0.525000
v 0.273438 5.155279 -0.525000
v 0.258784 5.180659 -0.525000
v 0.233404 5.195312 -0.525000
v 0.204096 5.195312 -0.525000
v 0.178716 5.180659 -0.525000
v 0.164062 5.155279 -0.525000
v 0.164062 5.125971 -0.525000
v 0.178716 5.100591 -0.525000
v 0.204096 5.085938 -0.525000
v -0.406250 1.125000 0.125000
v -0.406250 1.125000 -0.125000
v -0.406250 0.312500 0.125000
v -0.406250 0.312500 -0.125000
v -0.656250 1.125000 -0.125000
v -0.656250 1.125000 0.125000
v -0.656250 0.312500 -0.125000
v -0.656250 0.312500 0.125000
v -0.218750 0.625000 -0.062500
v -0.218750 0.625000 -0.125000
v -0.218750 0.562500 -0.062500
v -0.218750 0.562500 -0.125000
v -0.406250 0.625000 -0.125000
v -0.406250 0.625000 -0.062500
v -0.406250 0.562500 -0.125000
v -0.406250 0.562500 -0.062500
v -0.218750 0.625000 0.125000
v -0.218750 0.625000 0.062500
v -0.218750 0.562500 0.125000
v -0.218750 0.562500 0.062500
v -0.406250 0.625000 0.062500
v -0.406250 0.625000 0.125000
v -0.406250 0.562500 0.062500
v -0.406250 0.562500 0.125000
v -0.281250 0.625000 -0.062500
v -0.281250 0.625000 0.062500
v -0.281250 0.562500 -0.062500
v -0.281250 0.562500 0.062500
v -0.218750 1.000000 0.125000
v -0.218750 1.000000 0.062500
v -0.218750 0.937500 0.125000
v -0.218750 0.937500 0.062500
v -0.406250 1.000000 0.062500
v -0.406250 1.000000 0.125000
v -0.406250 0.937500 0.062500
v -0.406250 0.937500 0.125000
v -0.218750 1.000000 -0.062500
v -0.218750 0.937500 -0.062500
v -0.281250 1.000000 -0.062500
v -0.281250 1.000000 0.062500
v -0.281250 0.937500 -0.062500
v -0.281250 0.937500 0.062500
v -0.218750 1.000000 -0.125000
v -0.218750 0.937500 -0.125000
v -0.406250 1.000000 -0.125000
v -0.406250 1.000000 -0.062500
v -0.406250 0.937500 -0.125000
v -0.406250 0.937500 -0.062500
v -0.218750 1.375000 -0.062500
v -0.218750 1.375000 -0.125000
v -0.218750 1.312500 -0.062500
v -0.218750 1.312500 -0.125000
v -0.406250 1.375000 -0.125000
v -0.406250 1.375000 -0.062500
v -0.406250 1.312500 -0.125000
v -0.406250 1.312500 -0.062500
v -0.218750 1.375000 0.062500
v -0.218750 1.312500 0.062500
v -0.281250 1.375000 -0.062500
v -0.281250 1.375000 0.062500
v -0.281250 1.312500 -0.062500
v -0.281250 1.312500 0.062500
v -0.218750 1.375000 0.125000
v -0.218750 1.312500 0.125000
v -0.406250 1.375000 0.062500
v -0.406250 1.375000 0.125000
v -0.406250 1.312500 0.062500
v -0.406250 1.312500 0.125000
v 0.062500 5.000000 -0.156250
v 0.062500 5.000000 -0.218750
v 0.062500 3.875000 -0.156250
v 0.062500 3.875000 -0.218750
v -0.062500 5.000000 -0.218750
v -0.062500 5.000000 -0.156250
v -0.062500 3.875000 -0.218750
v -0.062500 3.875000 -0.156250
v 0.062500 5.000000 0.218750
v 0.062500 5.000000 0.093750
v 0.062500 3.875000 0.218750
v 0.062500 3.875000 0.093750
v -0.062500 5.000000 0.093750
v -0.062500 5.000000 0.218750
v -0.062500 3.875000 0.093750
v -0.062500 3.875000 0.218750
v 0.062500 4.937500 0.093750
v 0.062500 4.937500 -0.156250
v -0.062500 4.937500 -0.156250
v -0.062500 4.937500 0.093750
v 0.062500 4.562500 0.093750
v 0.062500 4.562500 -0.156250
v 0.062500 4.500000 0.093750
v 0.062500 4.500000 -0.156250
v -0.062500 4.562500 -0.156250
v -0.062500 4.562500 0.093750
v -0.062500 4.500000 -0.156250
v -0.062500 4.500000 0.093750
v 0.062500 4.125000 0.093750
v 0.062500 4.125000 -0.156250
v 0.062500 3.937500 0.093750
v 0.062500 3.937500 -0.156250
v -0.062500 4.125000 -0.156250
v -0.062500 4.125000 0.093750
v -0.062500 3.937500 -0.156250
v -0.062500 3.937500 0.093750
v -0.218750 3.250000 0.187500
v -0.218750 3.250000 0.125000
v -0.218750 3.187500 0.187500
v -0.218750 3.187500 0.125000
v -0.593750 3.250000 0.125000
v -0.593750 3.250000 0.187500
v -0.593750 3.187500 0.125000
v -0.593750 3.187500 0.187500
v -0.468750 2.750000 0.187500
v -0.468750 2.750000 0.125000
v -0.468750 2.687500 0.187500
v -0.468750 2.687500 0.125000
v -0.843750 2.750000 0.125000
v -0.843750 2.750000 0.187500
v -0.843750 2.687500 0.125000
v -0.843750 2.687500 0.187500
v -0.218750 2.250000 0.187500
v -0.218750 2.250000 0.125000
v -0.218750 2.187500 0.187500
v -0.218750 2.187500 0.125000
v -0.593750 2.250000 0.125000
v -0.593750 2.250000 0.187500
v -0.593750 2.187500 0.125000
v -0.593750 2.187500 0.187500
v -0.468750 1.750000 0.187500
v -0.468750 1.750000 0.125000
v -0.468750 1.687500 0.187500
v -0.468750 1.687500 0.125000
v -0.843750 1.750000 0.125000
v -0.843750 1.750000 0.187500
v -0.843750 1.687500 0.125000
v -0.843750 1.687500 0.187500
v -0.156250 0.250000 0.375000
v -0.156250 0.250000 -0.375000
v -0.156250 -0.187500 0.375000
v -0.156250 -0.187500 -0.375000
v -0.906250 0.250000 -0.375000
v -0.906250 0.250000 0.375000
v -0.906250 -0.187500 -0.375000
v -0.906250 -0.187500 0.375000
v -0.218750 0.312500 0.250000
v -0.218750 0.312500 -0.250000
v -0.218750 0.250000 0.250000
v -0.218750 0.250000 -0.250000
v -0.843750 0.312500 -0.250000
v -0.843750 0.312500 0.250000
v -0.843750 0.250000 -0.250000
v -0.843750 0.250000 0.250000
v -0.575444 0.507583 -0.037500
v -0.575444 0.507583 -0.118750
v -0.487056 0.419194 -0.037500
v -0.487056 0.419194 -0.118750
v -0.796415 0.286612 -0.118750
v -0.796415 0.286612 -0.037500
v -0.708027 0.198223 -0.118750
v -0.708027 0.198223 -0.037500
v -0.273667 0.294194 -0.037500
v -0.273667 0.294194 -0.118750
v -0.362056 0.205806 -0.037500
v -0.362056 0.205806 -0.118750
v -0.494638 0.515165 -0.118750
v -0.494638 0.515165 -0.037500
v -0.583027 0.426777 -0.118750
v -0.583027 0.426777 -0.037500
v -0.273667 0.294194 0.118750
v -0.273667 0.294194 0.037500
v -0.362056 0.205806 0.118750
v -0.362056 0.205806 0.037500
v -0.494638 0.515165 0.037500
v -0.494638 0.515165 0.118750
v -0.583027 0.426777 0.037500
v -0.583027 0.426777 0.118750
v -0.575444 0.507583 0.118750
v -0.575444 0.507583 0.037500
v -0.487056 0.419194 0.118750
v -0.487056 0.419194 0.037500
v -0.796415 0.286612 0.037500
v -0.796415 0.286612 0.118750
v -0.708027 0.198223 0.037500
v -0.708027 0.198223 0.118750
v -0.218750 1.312500 0.500000
v -0.218750 0.500000 0.500000
v -0.218750 0.500000 0.125000
v -0.843750 1.312500 0.125000
v -0.843750 1.312500 0.500000
v -0.843750 0.500000 0.125000
v -0.843750 0.500000 0.500000
v -0.341529 3.861136 0.118750
v -0.341529 3.861136 0.068750
v -0.208947 3.728553 0.118750
v -0.208947 3.728553 0.068750
v -0.562500 3.640165 0.068750
v -0.562500 3.640165 0.118750
v -0.429917 3.507582 0.068750
v -0.429917 3.507582 0.118750
v 0.187500 3.875000 0.250000
v 0.187500 3.875000 -0.250000
v 0.187500 3.812500 0.250000
v 0.187500 3.812500 -0.250000
v -0.375000 3.875000 -0.250000
v -0.375000 3.875000 0.250000
v -0.375000 3.812500 -0.250000
v -0.375000 3.812500 0.250000
v 0.187500 3.812500 0.187500
v 0.187500 3.812500 -0.187500
v 0.187500 3.687500 0.187500
v 0.187500 3.687500 -0.187500
v -0.656250 3.812500 -0.187500
v -0.656250 3.812500 0.187500
v -0.656250 3.687500 -0.187500
v -0.656250 3.687500 0.187500
v 0.125000 3.812500 -0.187500
v 0.125000 3.812500 -0.250000
v 0.125000 3.687500 -0.187500
v 0.062500 3.812500 -0.187500
v 0.062500 3.812500 -0.250000
v 0.062500 3.687500 -0.187500
v -0.062500 3.812500 -0.187500
v -0.062500 3.812500 -0.250000
v -0.062500 3.687500 -0.187500
v -0.125000 3.812500 -0.187500
v -0.125000 3.812500 -0.250000
v -0.125000 3.687500 -0.187500
v -0.250000 3.812500 -0.187500
v -0.250000 3.812500 -0.250000
v -0.250000 3.687500 -0.187500
v -0.312500 3.812500 -0.187500
v -0.312500 3.812500 -0.250000
v -0.312500 3.687500 -0.187500
v -0.375000 3.875000 0.187500
v -0.375000 3.875000 -0.187500
v -0.375000 3.812500 0.187500
v -0.375000 3.812500 -0.187500
v -0.656250 3.875000 -0.187500
v -0.656250 3.875000 0.187500
v 0.125000 3.812500 0.187500
v 0.125000 3.812500 0.250000
v 0.125000 3.687500 0.187500
v 0.062500 3.812500 0.187500
v 0.062500 3.812500 0.250000
v 0.062500 3.687500 0.187500
v -0.062500 3.812500 0.187500
v -0.062500 3.812500 0.250000
v -0.062500 3.687500 0.187500
v -0.125000 3.812500 0.187500
v -0.125000 3.812500 0.250000
v -0.125000 3.687500 0.187500
v -0.250000 3.812500 0.187500
v -0.250000 3.812500 0.250000
v -0.250000 3.687500 0.187500
v -0.312500 3.812500 0.187500
v -0.312500 3.812500 0.250000
v -0.312500 3.687500 0.187500
v -0.341529 3.861136 -0.068750
v -0.341529 3.861136 -0.118750
v -0.208947 3.728553 -0.068750
v -0.208947 3.728553 -0.118750
v -0.562500 3.640165 -0.118750
v -0.562500 3.640165 -0.068750
v -0.429917 3.507582 -0.118750
v -0.429917 3.507582 -0.068750
v -0.062500 3.687500 0.062500
v -0.062500 3.687500 -0.062500
v -0.062500 3.437500 0.062500
v -0.062500 3.437500 -0.062500
v -0.125000 3.687500 -0.062500
v -0.125000 3.687500 0.062500
v -0.125000 3.437500 -0.062500
v -0.125000 3.437500 0.062500
v 0.109375 3.687500 0.031250
v 0.109375 3.687500 -0.031250
v 0.109375 3.568750 0.031250
v 0.109375 3.568750 -0.031250
v 0.062500 3.687500 -0.031250
v 0.062500 3.687500 0.031250
v 0.062500 3.568750 -0.031250
v 0.062500 3.568750 0.031250
v -0.015625 3.490625 0.031250
v -0.015625 3.490625 -0.031250
v -0.015625 3.443750 0.031250
v -0.015625 3.443750 -0.031250
v -0.218750 3.490625 -0.031250
v -0.218750 3.490625 0.031250
v -0.218750 3.443750 -0.031250
v -0.218750 3.443750 0.031250
v -0.406250 3.553125 0.031250
v -0.406250 3.553125 -0.031250
v -0.406250 3.506250 0.031250
v -0.406250 3.506250 -0.031250
v 0.000000 4.000000 0.212500
v 0.000000 4.000000 0.100000
v -0.062500 3.875000 0.212500
v -0.062500 3.875000 0.100000
v -0.062500 4.000000 0.212500
v -0.062500 4.000000 0.100000
v -0.125000 3.875000 0.212500
v -0.125000 3.875000 0.100000
v 0.000000 4.000000 -0.162500
v 0.000000 4.000000 -0.212500
v -0.062500 3.875000 -0.162500
v -0.062500 3.875000 -0.212500
v -0.062500 4.000000 -0.162500
v -0.062500 4.000000 -0.212500
v -0.125000 3.875000 -0.162500
v -0.125000 3.875000 -0.212500
v 0.062500 4.000000 -0.162500
v 0.062500 4.000000 -0.212500
v 0.125000 3.875000 -0.162500
v 0.125000 3.875000 -0.212500
v 0.062500 3.875000 -0.162500
v 0.062500 3.875000 -0.212500
v 0.062500 4.000000 0.212500
v 0.062500 4.000000 0.100000
v 0.125000 3.875000 0.212500
v 0.125000 3.875000 0.100000
v 0.062500 3.875000 0.212500
v 0.062500 3.875000 0.100000
v -0.381250 3.937500 0.275000
v -0.381250 3.937500 -0.693750
v -0.381250 3.875000 0.275000
v -0.381250 3.875000 -0.693750
v -1.100000 3.937500 -0.693750
v -1.100000 3.937500 0.275000
v -1.100000 3.875000 -0.693750
v -1.100000 3.875000 0.275000
v -0.381250 4.437500 -0.256250
v -0.381250 4.437500 -0.725000
v -0.381250 4.406250 -0.256250
v -0.381250 4.406250 -0.725000
v -0.412500 4.437500 -0.725000
v -0.412500 4.437500 -0.256250
v -0.412500 4.406250 -0.725000
v -0.412500 4.406250 -0.256250
v -0.381250 4.875000 -0.256250
v -0.381250 4.875000 -0.725000
v -0.381250 4.843750 -0.256250
v -0.381250 4.843750 -0.725000
v -0.412500 4.875000 -0.725000
v -0.412500 4.875000 -0.256250
v -0.412500 4.843750 -0.725000
v -0.412500 4.843750 -0.256250
v -0.381250 3.937500 -0.756250
v -0.381250 3.875000 -0.756250
v -1.100000 3.937500 -0.756250
v -1.100000 3.875000 -0.756250
v -0.412500 4.437500 -0.756250
v -0.412500 4.406250 -0.756250
v -1.068750 4.437500 -0.756250
v -1.068750 4.437500 -0.725000
v -1.068750 4.406250 -0.756250
v -1.068750 4.406250 -0.725000
v -0.412500 4.875000 -0.756250
v -0.412500 4.843750 -0.756250
v -1.068750 4.875000 -0.756250
v -1.068750 4.875000 -0.725000
v -1.068750 4.843750 -0.756250
v -1.068750 4.843750 -0.725000
v -1.068750 3.937500 -0.725000
v -1.068750 3.937500 -0.756250
v -1.100000 4.875000 -0.756250
v -1.100000 4.875000 -0.725000
v -1.100000 3.937500 -0.725000
v -0.381250 4.875000 -0.756250
v -0.381250 3.937500 -0.725000
v -0.412500 3.937500 -0.756250
v -0.412500 3.937500 -0.725000
v -0.381250 4.875000 -0.225000
v -0.381250 3.937500 -0.225000
v -0.381250 3.937500 -0.256250
v -0.412500 4.875000 -0.225000
v -0.412500 3.937500 -0.256250
v -0.412500 3.937500 -0.225000
v -1.068750 4.875000 0.275000
v -1.068750 4.875000 0.243750
v -1.068750 3.937500 0.275000
v -1.068750 3.937500 0.243750
v -1.100000 4.875000 0.243750
v -1.100000 4.875000 0.275000
v -1.100000 3.937500 0.243750
v -1.068750 4.843750 0.243750
v -1.100000 4.843750 -0.725000
v -1.100000 4.843750 0.243750
v -1.068750 4.437500 0.243750
v -1.068750 4.406250 0.243750
v -1.100000 4.437500 -0.725000
v -1.100000 4.437500 0.243750
v -1.100000 4.406250 -0.725000
v -1.100000 4.406250 0.243750
v -0.662500 3.875000 0.243750
v -0.662500 3.875000 -0.693750
v -0.662500 3.812500 0.243750
v -0.662500 3.812500 -0.693750
v -0.850000 3.875000 -0.693750
v -0.850000 3.875000 0.243750
v -0.850000 3.812500 -0.693750
v -0.850000 3.812500 0.243750
v -0.662500 3.687500 0.243750
v -0.662500 3.687500 -0.693750
v -0.725000 3.812500 -0.693750
v -0.725000 3.812500 0.243750
v -0.725000 3.687500 -0.693750
v -0.725000 3.687500 0.243750
v 0.218750 5.653125 -0.500000
v 0.218750 5.653125 -0.937500
v 0.218750 5.621875 -0.500000
v 0.218750 5.621875 -0.937500
v 0.093750 5.653125 -0.937500
v 0.093750 5.653125 -0.500000
v 0.093750 5.621875 -0.937500
v 0.093750 5.621875 -0.500000
v 0.027459 5.543750 -0.500000
v 0.027459 5.543750 -0.562500
v 0.027459 5.480139 -0.500000
v 0.027459 5.480139 -0.562500
v -0.003791 5.543750 -0.562500
v -0.003791 5.543750 -0.500000
v -0.003791 5.480139 -0.562500
v -0.003791 5.480139 -0.500000
v 0.315625 5.543750 -0.500000
v 0.315625 5.543750 -0.562500
v 0.315625 5.480139 -0.500000
v 0.315625 5.480139 -0.562500
v 0.284375 5.543750 -0.562500
v 0.284375 5.543750 -0.500000
v 0.284375 5.480139 -0.562500
v 0.284375 5.480139 -0.500000
v -0.406250 3.125000 0.125000
v -0.406250 3.125000 -0.125000
v -0.406250 2.125000 0.125000
v -0.406250 2.125000 -0.125000
v -0.656250 3.125000 -0.125000
v -0.656250 3.125000 0.125000
v -0.656250 2.125000 -0.125000
v -0.656250 2.125000 0.125000
v -0.093750 5.653125 -0.500000
v -0.093750 5.653125 -0.937500
v -0.093750 5.621875 -0.500000
v -0.093750 5.621875 -0.937500
v -0.218750 5.653125 -0.937500
v -0.218750 5.653125 -0.500000
v -0.218750 5.621875 -0.937500
v -0.218750 5.621875 -0.500000
v -0.285041 5.543750 -0.500000
v -0.285041 5.543750 -0.562500
v -0.285041 5.480139 -0.500000
v -0.285041 5.480139 -0.562500
v -0.316291 5.543750 -0.562500
v -0.316291 5.543750 -0.500000
v -0.316291 5.480139 -0.562500
v -0.316291 5.480139 -0.500000
v 0.003125 5.543750 -0.500000
v 0.003125 5.543750 -0.562500
v 0.003125 5.480139 -0.500000
v 0.003125 5.480139 -0.562500
v -0.028125 5.543750 -0.562500
v -0.028125 5.543750 -0.500000
v -0.028125 5.480139 -0.562500
v -0.028125 5.480139 -0.500000
v -0.406250 3.687500 0.125000
v -0.406250 3.687500 -0.125000
v -0.656250 3.687500 -0.125000
v -0.656250 3.687500 0.125000
v 0.265625 5.234375 -0.500000
v 0.265625 5.234375 -0.687500
v 0.265625 5.203125 -0.500000
v 0.265625 5.203125 -0.687500
v 0.171875 5.234375 -0.687500
v 0.171875 5.234375 -0.500000
v 0.171875 5.203125 -0.687500
v 0.171875 5.203125 -0.500000
v 0.156629 5.171686 -0.490625
v 0.156629 5.171686 -0.568750
v 0.156629 5.109186 -0.490625
v 0.156629 5.109186 -0.568750
v 0.125379 5.171686 -0.568750
v 0.125379 5.171686 -0.490625
v 0.125379 5.109186 -0.568750
v 0.125379 5.109186 -0.490625
v 0.312879 5.171686 -0.490625
v 0.312879 5.171686 -0.568750
v 0.312879 5.109186 -0.490625
v 0.312879 5.109186 -0.568750
v 0.281629 5.171686 -0.568750
v 0.281629 5.171686 -0.490625
v 0.281629 5.109186 -0.568750
v 0.281629 5.109186 -0.490625
v 0.375000 6.000000 -0.437500
v 0.375000 6.000000 -0.500000
v 0.375000 5.000000 -0.437500
v 0.375000 5.000000 -0.500000
v -0.375000 6.000000 -0.500000
v -0.375000 6.000000 -0.437500
v -0.375000 5.000000 -0.500000
v -0.375000 5.000000 -0.437500
v 0.312500 6.000000 -0.312500
v 0.312500 6.000000 -0.437500
v 0.312500 5.000000 -0.312500
v 0.312500 5.000000 -0.437500
v -0.312500 6.000000 -0.437500
v -0.312500 6.000000 -0.312500
v -0.312500 5.000000 -0.437500
v -0.312500 5.000000 -0.312500
v 0.250000 5.875000 0.671875
v 0.250000 5.875000 0.640625
v 0.250000 5.000000 0.671875
v 0.250000 5.000000 0.640625
v 0.218750 5.875000 0.640625
v 0.218750 5.875000 0.671875
v 0.218750 5.000000 0.640625
v 0.218750 5.000000 0.671875
v -0.218750 5.875000 0.671875
v -0.218750 5.875000 0.640625
v -0.218750 5.000000 0.671875
v -0.218750 5.000000 0.640625
v -0.250000 5.875000 0.640625
v -0.250000 5.875000 0.671875
v -0.250000 5.000000 0.640625
v -0.250000 5.000000 0.671875
v 0.368750 5.884903 0.300697
v 0.368750 5.879477 0.269922
v 0.368750 5.084747 0.441786
v 0.368750 5.079321 0.411011
v 0.337500 5.879477 0.269922
v 0.337500 5.884903 0.300697
v 0.337500 5.079321 0.411011
v 0.337500 5.084747 0.441786
v 0.368750 5.090997 0.441786
v 0.368750 5.080144 0.411486
v 0.243750 4.961646 0.463492
v 0.243750 4.950793 0.433191
v 0.337500 5.090997 0.441786
v 0.337500 5.080144 0.411486
v 0.212500 4.961646 0.463492
v 0.212500 4.950793 0.433191
v -0.350000 5.090997 0.441786
v -0.350000 5.080144 0.411486
v -0.225000 4.961646 0.463492
v -0.225000 4.950793 0.433191
v -0.381250 5.090997 0.441786
v -0.381250 5.080144 0.411486
v -0.256250 4.961646 0.463492
v -0.256250 4.950793 0.433191
v -0.350000 5.884903 0.300697
v -0.350000 5.879477 0.269922
v -0.350000 5.084747 0.441786
v -0.350000 5.079321 0.411011
v -0.381250 5.879477 0.269922
v -0.381250 5.884903 0.300697
v -0.381250 5.079321 0.411011
v -0.381250 5.084747 0.441786
v 0.312500 5.906250 0.671875
v 0.312500 5.906250 0.640625
v 0.312500 5.875000 0.671875
v 0.312500 5.875000 0.640625
v -0.312500 5.906250 0.640625
v -0.312500 5.906250 0.671875
v -0.312500 5.875000 0.640625
v -0.312500 5.875000 0.671875
v 0.375000 5.818750 -0.343750
v 0.375000 5.818750 -0.437500
v 0.375000 5.000000 -0.343750
v 0.312500 5.818750 -0.437500
v 0.312500 5.818750 -0.343750
v 0.312500 5.000000 -0.343750
v -0.312500 5.818750 -0.343750
v -0.312500 5.818750 -0.437500
v -0.312500 5.000000 -0.343750
v -0.375000 5.818750 -0.437500
v -0.375000 5.818750 -0.343750
v -0.375000 5.000000 -0.343750
v -0.343750 5.906250 0.562500
v -0.343750 5.906250 -0.000000
v -0.343750 5.875000 0.562500
v -0.343750 5.875000 -0.000000
v -0.375000 5.906250 -0.000000
v -0.375000 5.906250 0.562500
v -0.375000 5.875000 -0.000000
v -0.375000 5.875000 0.562500
v 0.250000 5.000000 0.687500
v 0.250000 5.000000 0.218750
v 0.250000 4.937500 0.687500
v 0.250000 4.937500 0.218750
v -0.250000 5.000000 0.218750
v -0.250000 5.000000 0.687500
v -0.250000 4.937500 0.218750
v -0.250000 4.937500 0.687500
v -0.312500 5.906250 0.656250
v -0.312500 5.906250 0.562500
v -0.312500 5.875000 0.656250
v -0.312500 5.875000 0.562500
v -0.375000 5.906250 0.656250
v -0.375000 5.875000 0.656250
v 0.375000 5.906250 0.562500
v 0.375000 5.906250 -0.000000
v 0.375000 5.875000 0.562500
v 0.375000 5.875000 -0.000000
v 0.343750 5.906250 -0.000000
v 0.343750 5.906250 0.562500
v 0.343750 5.875000 -0.000000
v 0.343750 5.875000 0.562500
v 0.375000 5.906250 0.656250
v 0.375000 5.875000 0.656250
v 0.312500 5.906250 0.562500
v 0.312500 5.906250 0.656250
v 0.312500 5.875000 0.562500
v 0.312500 5.875000 0.656250
v 0.375000 4.937500 -0.343750
v 0.375000 4.937500 -0.437500
v -0.375000 4.937500 -0.437500
v -0.375000 4.937500 -0.343750
v 0.125000 4.718750 -0.343750
v 0.125000 4.718750 -0.437500
v 0.125000 4.687500 -0.343750
v 0.125000 4.687500 -0.437500
v -0.125000 4.718750 -0.437500
v -0.125000 4.718750 -0.343750
v -0.125000 4.687500 -0.437500
v -0.125000 4.687500 -0.343750
v 0.062500 4.718750 -0.218750
v 0.062500 4.718750 -0.343750
v 0.062500 4.687500 -0.218750
v 0.062500 4.687500 -0.343750
v -0.062500 4.718750 -0.343750
v -0.062500 4.718750 -0.218750
v -0.062500 4.687500 -0.343750
v -0.062500 4.687500 -0.218750
v -0.102903 4.709597 -0.337500
v -0.102903 4.709597 -0.431250
v -0.125000 4.687500 -0.337500
v -0.125000 4.687500 -0.431250
v -0.352903 4.959597 -0.431250
v -0.352903 4.959597 -0.337500
v -0.375000 4.937500 -0.431250
v -0.375000 4.937500 -0.337500
v 0.352903 4.959597 -0.337500
v 0.352903 4.959597 -0.431250
v 0.375000 4.937500 -0.337500
v 0.375000 4.937500 -0.431250
v 0.102903 4.709597 -0.431250
v 0.102903 4.709597 -0.337500
v 0.125000 4.687500 -0.431250
v 0.125000 4.687500 -0.337500
v 0.068750 5.062500 -0.187500
v 0.068750 5.062500 -0.312500
v 0.068750 4.937500 -0.187500
v 0.068750 4.937500 -0.312500
v -0.068750 5.062500 -0.312500
v -0.068750 5.062500 -0.187500
v -0.068750 4.937500 -0.312500
v -0.068750 4.937500 -0.187500
v -0.343750 5.812500 -0.218750
v -0.343750 5.812500 -0.406250
v -0.343750 5.781250 -0.218750
v -0.343750 5.781250 -0.406250
v -0.406250 5.812500 -0.406250
v -0.406250 5.812500 -0.218750
v -0.406250 5.781250 -0.406250
v -0.406250 5.781250 -0.218750
v -0.343750 5.156250 -0.218750
v -0.343750 5.156250 -0.406250
v -0.343750 5.125000 -0.218750
v -0.343750 5.125000 -0.406250
v -0.406250 5.156250 -0.406250
v -0.406250 5.156250 -0.218750
v -0.406250 5.125000 -0.406250
v -0.406250 5.125000 -0.218750
v 0.406250 5.781250 -0.187500
v 0.406250 5.781250 -0.218750
v 0.406250 5.156250 -0.187500
v 0.406250 5.156250 -0.218750
v 0.343750 5.781250 -0.218750
v 0.343750 5.781250 -0.187500
v 0.343750 5.156250 -0.218750
v 0.343750 5.156250 -0.187500
v 0.406250 5.125000 -0.218750
v 0.343750 5.125000 -0.218750
v 0.406250 5.812500 -0.218750
v 0.406250 5.812500 -0.406250
v 0.406250 5.781250 -0.406250
v 0.343750 5.812500 -0.406250
v 0.343750 5.812500 -0.218750
v 0.343750 5.781250 -0.406250
v -0.343750 5.781250 -0.187500
v -0.406250 5.781250 -0.187500
v 0.406250 5.156250 -0.406250
v 0.406250 5.125000 -0.406250
v 0.343750 5.156250 -0.406250
v 0.343750 5.125000 -0.406250
v -0.343750 5.156250 -0.187500
v -0.406250 5.156250 -0.187500
v 0.250000 5.000000 0.681250
v 0.062500 4.937500 0.218750
v 0.250000 4.937500 0.681250
v 0.062500 4.875000 0.218750
v 0.187500 5.000000 0.681250
v 0.000000 4.937500 0.218750
v 0.187500 4.937500 0.681250
v 0.000000 4.875000 0.218750
v -0.187500 5.000000 0.681250
v -0.187500 4.937500 0.681250
v -0.250000 5.000000 0.681250
v -0.062500 4.937500 0.218750
v -0.250000 4.937500 0.681250
v -0.062500 4.875000 0.218750
v 0.125000 5.171875 -0.500000
v 0.125000 5.171875 -0.568750
v 0.156250 5.171875 -0.500000
v 0.156250 5.171875 -0.568750
v 0.312500 5.171875 -0.500000
v 0.312500 5.171875 -0.571875
v 0.281250 5.171875 -0.500000
v 0.281250 5.171875 -0.571875
v -0.129036 5.617188 -0.500000
v -0.129036 5.617188 -0.562500
v -0.136450 5.589520 -0.500000
v -0.136450 5.589520 -0.562500
v -0.081901 5.589974 -0.500000
v -0.081901 5.589974 -0.562500
v -0.102155 5.569720 -0.500000
v -0.102155 5.569720 -0.562500
v -0.054688 5.542839 -0.500000
v -0.054688 5.542839 -0.562500
v -0.082355 5.535425 -0.500000
v -0.082355 5.535425 -0.562500
v -0.054688 5.488411 -0.500000
v -0.054688 5.488411 -0.562500
v -0.082355 5.495825 -0.500000
v -0.082355 5.495825 -0.562500
v -0.081901 5.441276 -0.500000
v -0.081901 5.441276 -0.562500
v -0.102155 5.461530 -0.500000
v -0.102155 5.461530 -0.562500
v -0.129036 5.414062 -0.500000
v -0.129036 5.414062 -0.562500
v -0.136450 5.441730 -0.500000
v -0.136450 5.441730 -0.562500
v -0.183464 5.414062 -0.500000
v -0.183464 5.414062 -0.562500
v -0.176050 5.441730 -0.500000
v -0.176050 5.441730 -0.562500
v -0.230599 5.441276 -0.500000
v -0.230599 5.441276 -0.562500
v -0.210345 5.461530 -0.500000
v -0.210345 5.461530 -0.562500
v -0.257812 5.488411 -0.500000
v -0.257812 5.488411 -0.562500
v -0.230145 5.495825 -0.500000
v -0.230145 5.495825 -0.562500
v -0.257812 5.542839 -0.500000
v -0.257812 5.542839 -0.562500
v -0.230145 5.535425 -0.500000
v -0.230145 5.535425 -0.562500
v -0.230599 5.589974 -0.500000
v -0.230599 5.589974 -0.562500
v -0.210345 5.569720 -0.500000
v -0.210345 5.569720 -0.562500
v -0.183464 5.617188 -0.500000
v -0.183464 5.617188 -0.562500
v -0.176050 5.589520 -0.500000
v -0.176050 5.589520 -0.562500
v 0.235497 5.078125 -0.546875
v 0.235497 5.078125 -0.484375
v 0.227714 5.107170 -0.546875
v 0.227714 5.107170 -0.484375
v 0.264503 5.094872 -0.546875
v 0.264503 5.094872 -0.484375
v 0.243241 5.116134 -0.546875
v 0.243241 5.116134 -0.484375
v 0.281250 5.123878 -0.546875
v 0.281250 5.123878 -0.484375
v 0.252205 5.131660 -0.546875
v 0.252205 5.131660 -0.484375
v 0.281250 5.157372 -0.546875
v 0.281250 5.157372 -0.484375
v 0.252205 5.149590 -0.546875
v 0.252205 5.149590 -0.484375
v 0.264503 5.186378 -0.546875
v 0.264503 5.186378 -0.484375
v 0.243241 5.165116 -0.546875
v 0.243241 5.165116 -0.484375
v 0.235497 5.203125 -0.546875
v 0.235497 5.203125 -0.484375
v 0.227714 5.174080 -0.546875
v 0.227714 5.174080 -0.484375
v 0.202003 5.203125 -0.546875
v 0.202003 5.203125 -0.484375
v 0.209786 5.174080 -0.546875
v 0.209786 5.174080 -0.484375
v 0.172997 5.186378 -0.546875
v 0.172997 5.186378 -0.484375
v 0.194259 5.165116 -0.546875
v 0.194259 5.165116 -0.484375
v 0.156250 5.157372 -0.546875
v 0.156250 5.157372 -0.484375
v 0.185295 5.149590 -0.546875
v 0.185295 5.149590 -0.484375
v 0.156250 5.123878 -0.546875
v 0.156250 5.123878 -0.484375
v 0.185295 5.131660 -0.546875
v 0.185295 5.131660 -0.484375
v 0.172997 5.094872 -0.546875
v 0.172997 5.094872 -0.484375
v 0.194259 5.116134 -0.546875
v 0.194259 5.116134 -0.484375
v 0.202003 5.078125 -0.546875
v 0.202003 5.078125 -0.484375
v 0.209786 5.107170 -0.546875
v 0.209786 5.107170 -0.484375
vn 0.5000 0.8660 -0.0000
vn -0.5000 -0.8660 -0.0000
vn -0.0000 -0.0000 1.0000
vn -0.0000 -0.0000 -1.0000
vn 0.8660 0.5000 -0.0000
vn -0.8660 -0.5000 -0.0000
vn 1.0000 -0.0000 -0.0000
vn -1.0000 -0.0000 -0.0000
vn 0.8660 -0.5000 -0.0000
vn -0.8660 0.5000 -0.0000
vn 0.5000 -0.8660 -0.0000
vn -0.5000 0.8660 -0.0000
vn -0.0000 -1.0000 -0.0000
vn -0.0000 1.0000 -0.0000
vn 0.7071 0.7071 -0.0000
vn -0.7071 -0.7071 -0.0000
vn -0.7071 0.7071 -0.0000
vn 0.7071 -0.7071 -0.0000
vn -0.0000 -0.4472 -0.8944
vn -0.0000 -0.4472 0.8944
vn 0.3162 0.9487 -0.0000
vn -0.3162 -0.9487 -0.0000
vn 0.8944 -0.4472 -0.0000
vn -0.8944 0.4472 -0.0000
vn 0.8944 0.4472 -0.0000
vn -0.8944 -0.4472 -0.0000
vn -0.0000 -0.1736 -0.9848
vn -0.0000 0.1736 0.9848
vn -0.0000 0.9848 -0.1736
vn -0.0000 -0.9848 0.1736
vn 0.7184 -0.6549 0.2346
vn -0.7184 0.6549 -0.2346
vn -0.0000 0.9414 -0.3372
vn -0.0000 -0.9414 0.3372
vn -0.0000 0.1655 0.9862
vn -0.0000 -0.1655 -0.9862
vn 0.7184 0.6549 -0.2346
vn -0.7184 -0.6549 0.2346
vn -0.0000 -0.7071 0.7071
vn -0.0000 0.7071 0.7071
vn 0.9267 -0.0000 -0.3757
vn -0.9267 -0.0000 0.3757
vn -0.0000 0.9910 -0.1339
vn -0.0000 -0.9910 0.1339
vn 0.9267 -0.0000 0.3757
vn -0.9267 -0.0000 -0.3757
vn 0.7625 -0.6470 -0.0000
vn -0.7463 0.6656 -0.0000
vn 0.0001 -0.9790 -0.2039
vn 0.0001 -0.9790 -0.2040
vn 0.7486 0.6630 -0.0000
vn -0.7657 -0.6432 -0.0000
vn -0.0001 -0.9600 -0.2800
vn -0.0001 -0.9600 -0.2799
vn -0.8000 0.6000 -0.0000
vn -0.9302 0.0001 -0.3671
vn -0.9301 0.0001 -0.3672
vn 0.8000 0.6000 -0.0000
vn 0.9267 0.0001 -0.3757
vt 0.296875 0.343750
vt 0.310481 0.343750
vt 0.310481 0.359375
vt 0.296875 0.359375
vt 0.306775 0.359375
vt 0.306775 0.343750
vt 0.296875 0.357521
vt 0.296875 0.347621
vt 0.303793 0.345768
vt 0.303792 0.359375
vt 0.296875 0.352457
vt 0.310482 0.352457
vt 0.308628 0.359375
vt 0.298728 0.359375
vt 0.296875 0.357522
vt 0.296875 0.347622
vt 0.303792 0.345768
vt 0.303793 0.359375
vt 0.308629 0.359375
vt 0.298729 0.359375
vt 0.296875 0.357522
vt 0.296875 0.347622
vt 0.303792 0.345769
vt 0.303792 0.359375
vt 0.298728 0.359375
vt 0.296875 0.352457
vt 0.310482 0.352458
vt 0.303793 0.345768
vt 0.303793 0.359375
vt 0.296875 0.357521
vt 0.296875 0.347621
vt 0.308629 0.359375
vt 0.298729 0.359375
vt 0.296875 0.352458
vt 0.310482 0.352457
vt 0.296875 0.357522
vt 0.308628 0.359375
vt 0.298728 0.359375
vt 0.296875 0.352458
vt 0.310481 0.352458
vt 0.298728 0.352458
vt 0.308628 0.352458
vt 0.303793 0.347622
vt 0.303793 0.357522
vt 0.296876 0.345768
vt 0.310482 0.359375
vt 0.298729 0.352457
vt 0.308629 0.352458
vt 0.303793 0.347621
vt 0.303793 0.357521
vt 0.296876 0.359375
vt 0.296875 0.345768
vt 0.298728 0.352458
vt 0.308628 0.352457
vt 0.303792 0.347622
vt 0.303792 0.357522
vt 0.296875 0.345769
vt 0.298729 0.352457
vt 0.308629 0.352457
vt 0.296875 0.359374
vt 0.303793 0.347622
vt 0.303792 0.357522
vt 0.298728 0.352457
vt 0.308628 0.352457
vt 0.310482 0.359374
vt 0.303792 0.347621
vt 0.303793 0.357521
vt 0.324762 0.675237
vt 0.375000 0.762263
vt 0.187500 0.812500
vt 0.375000 0.862737
vt 0.324762 0.949763
vt 0.237738 1.000000
vt 0.137262 1.000000
vt 0.050237 0.949763
vt 0.000000 0.862737
vt 0.000000 0.762263
vt 0.050237 0.675237
vt 0.137262 0.625000
vt 0.237738 0.625000
vt 0.210781 0.797031
vt 0.242188 0.851406
vt 0.125000 0.882812
vt 0.242188 0.914219
vt 0.210781 0.968594
vt 0.156406 1.000000
vt 0.093594 1.000000
vt 0.039219 0.968594
vt 0.007812 0.914219
vt 0.007812 0.851406
vt 0.039219 0.797031
vt 0.093594 0.765625
vt 0.156406 0.765625
vt 0.015625 0.796875
vt 0.078125 0.796875
vt 0.078125 1.000000
vt 0.015625 1.000000
vt 0.000000 0.796875
vt 0.062500 0.796875
vt 0.062500 1.000000
vt 0.000000 1.000000
vt 0.000000 0.921875
vt 0.062500 0.921875
vt 0.062500 0.984375
vt 0.000000 0.984375
vt 0.000000 0.968750
vt 0.046875 0.968750
vt 0.046875 0.984375
vt 0.015625 0.968750
vt 0.031250 0.968750
vt 0.031250 0.984375
vt 0.015625 0.984375
vt 0.062500 0.968750
vt 0.046875 1.000000
vt 0.046875 0.953125
vt 0.062500 0.953125
vt 0.000000 0.750000
vt 0.046875 0.750000
vt 0.031250 0.750000
vt 0.031250 1.000000
vt 0.028125 0.984375
vt 0.028125 1.000000
vt 0.109375 0.937500
vt 0.171875 0.937500
vt 0.171875 0.953125
vt 0.109375 0.953125
vt 0.000000 0.937500
vt 0.028125 0.937500
vt 0.093750 0.906250
vt 0.140625 0.906250
vt 0.140625 0.921875
vt 0.093750 0.921875
vt 0.156250 0.906250
vt 0.156250 0.921875
vt 0.046875 0.937500
vt 0.093750 0.875000
vt 0.156250 0.875000
vt 0.500000 0.718750
vt 0.609375 0.718750
vt 0.609375 0.734375
vt 0.500000 0.734375
vt 0.734375 0.718750
vt 0.750000 0.718750
vt 0.750000 0.734375
vt 0.734375 0.734375
vt 0.000000 0.578125
vt 0.187500 0.578125
vt 0.187500 0.687500
vt 0.000000 0.687500
vt 0.000000 0.500000
vt 0.187500 0.500000
vt 0.156250 0.984375
vt 0.156250 1.000000
vt 0.140625 0.984375
vt 0.140625 1.000000
vt 0.000000 0.859375
vt 0.156250 0.859375
vt 0.078125 0.968750
vt 0.020312 0.968750
vt 0.020312 1.000000
vt 0.007812 0.968750
vt 0.028125 0.968750
vt 0.007812 1.000000
vt 0.000000 0.971875
vt 0.078125 0.971875
vt 0.078125 0.992188
vt 0.000000 0.992188
vt 0.000000 0.979688
vt 0.078125 0.979688
vt 0.265625 0.843750
vt 0.390625 0.843750
vt 0.390625 1.000000
vt 0.265625 1.000000
vt 0.437500 0.843750
vt 0.515625 0.843750
vt 0.515625 1.000000
vt 0.437500 1.000000
vt 0.265625 0.750000
vt 0.390625 0.750000
vt 0.390625 0.828125
vt 0.265625 0.828125
vt 0.000000 0.953125
vt 0.078125 0.953125
vt 0.012500 0.953125
vt 0.012500 1.000000
vt 0.090625 0.953125
vt 0.090625 1.000000
vt 0.000000 0.909375
vt 0.078125 0.909375
vt 0.078125 0.921875
vt 0.000000 0.987500
vt 0.078125 0.987500
vt 0.125000 0.984375
vt 0.125000 1.000000
vt 0.078125 0.984375
vt 0.218750 0.984375
vt 0.218750 1.000000
vt 0.078125 0.875000
vt 0.218750 0.875000
vt 0.210938 0.968750
vt 0.210938 1.000000
vt 0.109375 0.968750
vt 0.109375 1.000000
vt 0.218750 0.968750
vt 0.000000 0.000000
vt 0.210938 0.000000
vt 0.210938 0.093750
vt 0.000000 0.093750
vt 0.015625 0.906250
vt 0.226562 0.906250
vt 0.226562 1.000000
vt 0.125000 0.968750
vt 0.140625 0.968750
vt 0.101562 0.937500
vt 0.101562 0.953125
vt 0.015625 0.937500
vt 0.015625 0.953125
vt 0.007812 0.937500
vt 0.007812 0.953125
vt 0.031250 0.937500
vt 0.296875 0.423438
vt 0.308594 0.423438
vt 0.308594 0.453125
vt 0.296875 0.453125
vt 0.304688 0.423438
vt 0.320312 0.423438
vt 0.320312 0.453125
vt 0.304688 0.453125
vt 0.316406 0.423438
vt 0.328125 0.423438
vt 0.328125 0.453125
vt 0.316406 0.453125
vt 0.316406 0.429688
vt 0.328125 0.429688
vt 0.328125 0.445312
vt 0.316406 0.445312
vt 0.304688 0.437500
vt 0.355469 0.437500
vt 0.355469 0.449219
vt 0.304688 0.449219
vt 0.320312 0.437500
vt 0.320312 0.449219
vt 0.296875 0.437500
vt 0.347656 0.437500
vt 0.347656 0.449219
vt 0.296875 0.449219
vt 0.296875 0.429688
vt 0.347656 0.429688
vt 0.347656 0.445312
vt 0.296875 0.445312
vt 0.355469 0.429688
vt 0.355469 0.445312
vt 0.324219 0.445312
vt 0.324219 0.429688
vt 0.324219 0.449219
vt 0.324219 0.437500
vt 0.328125 0.437500
vt 0.328125 0.449219
vt 0.000000 0.875000
vt 0.718750 0.875000
vt 0.718750 0.937500
vt 0.031250 0.875000
vt 1.000000 0.875000
vt 1.000000 0.937500
vt 0.281250 0.875000
vt 0.281250 0.937500
vt 0.968750 0.875000
vt 0.968750 0.937500
vt 0.281250 0.031250
vt 1.000000 0.031250
vt 1.000000 1.000000
vt 0.281250 1.000000
vt 0.281250 0.000000
vt 1.000000 0.000000
vt 1.000000 0.968750
vt 0.281250 0.968750
vt 0.031250 0.906250
vt 0.062500 0.906250
vt 0.062500 0.937500
vt 0.531250 0.906250
vt 1.000000 0.906250
vt 0.531250 0.937500
vt 0.937500 0.906250
vt 0.968750 0.906250
vt 0.937500 0.937500
vt 0.000000 0.906250
vt 0.468750 0.906250
vt 0.468750 0.937500
vt 0.937500 0.531250
vt 0.968750 0.531250
vt 0.968750 1.000000
vt 0.937500 1.000000
vt 0.937500 0.000000
vt 0.968750 0.000000
vt 0.968750 0.468750
vt 0.937500 0.468750
vt 0.062500 0.875000
vt 0.937500 0.875000
vt 1.000000 0.062500
vt 0.281250 0.062500
vt 0.687500 0.906250
vt 0.687500 0.937500
vt 0.312500 0.906250
vt 0.312500 0.937500
vt 0.312500 0.031250
vt 0.968750 0.031250
vt 0.968750 0.062500
vt 0.312500 0.062500
vt 0.968750 0.968750
vt 0.312500 0.968750
vt 0.687500 0.000000
vt 0.718750 0.000000
vt 0.031250 0.000000
vt 0.062500 0.000000
vt 0.312500 0.000000
vt 0.750000 0.000000
vt 0.750000 0.937500
vt 0.250000 0.000000
vt 0.250000 0.937500
vt 0.250000 0.031250
vt 0.250000 0.062500
vt 0.250000 0.968750
vt 0.718750 0.906250
vt 0.281250 0.906250
vt 0.312500 1.000000
vt 0.406250 0.875000
vt 0.593750 0.875000
vt 0.593750 0.937500
vt 0.406250 0.937500
vt 0.218750 0.937500
vt 0.218750 0.000000
vt 0.031250 0.062500
vt 0.218750 0.062500
vt 0.406250 0.812500
vt 0.468750 0.812500
vt 0.000000 0.812500
vt 0.937500 0.812500
vt 0.156250 0.812500
vt 0.218750 0.812500
vt 0.156250 0.937500
vt 0.062500 0.812500
vt 1.000000 0.812500
vt 0.156250 0.000000
vt 0.156250 0.062500
vt 0.296875 0.367188
vt 0.328125 0.367188
vt 0.328125 0.375000
vt 0.296875 0.375000
vt 0.312500 0.351562
vt 0.343750 0.351562
vt 0.343750 0.359375
vt 0.312500 0.359375
vt 0.359375 0.367188
vt 0.359375 0.375000
vt 0.281250 0.375000
vt 0.312500 0.375000
vt 0.312500 0.468750
vt 0.281250 0.468750
vt 0.351562 0.390347
vt 0.359375 0.390347
vt 0.359375 0.406250
vt 0.351562 0.406250
vt 0.390625 0.452847
vt 0.406250 0.452847
vt 0.406250 0.468750
vt 0.390625 0.468750
vt 0.391240 0.390347
vt 0.399052 0.390347
vt 0.399052 0.406250
vt 0.391240 0.406250
vt 0.421875 0.452847
vt 0.437500 0.452847
vt 0.437500 0.468750
vt 0.421875 0.468750
vt 0.359990 0.406250
vt 0.367802 0.406250
vt 0.367802 0.421875
vt 0.359990 0.421875
vt 0.359990 0.359375
vt 0.367802 0.359375
vt 0.367802 0.375000
vt 0.359990 0.375000
vt 0.335938 0.343472
vt 0.343750 0.343472
vt 0.335938 0.359375
vt 0.359375 0.343472
vt 0.375000 0.343472
vt 0.375000 0.359375
vt 0.359375 0.359375
vt 0.406865 0.452847
vt 0.414677 0.452847
vt 0.414677 0.468750
vt 0.406865 0.468750
vt 0.359990 0.453125
vt 0.367802 0.453125
vt 0.367802 0.468750
vt 0.359990 0.468750
vt 0.391240 0.421875
vt 0.399052 0.421875
vt 0.399052 0.437500
vt 0.391240 0.437500
vt 0.015625 0.750000
vt 0.078125 0.750000
vt 0.062500 0.750000
vt 0.015625 0.859375
vt 0.078125 0.859375
vt 0.062500 0.859375
vt 0.265625 0.437500
vt 0.265625 0.453125
vt 0.359375 0.437500
vt 0.359375 0.453125
vt 0.265625 0.406250
vt 0.296875 0.406250
vt 0.328125 0.515625
vt 0.335938 0.515625
vt 0.335938 0.531250
vt 0.328125 0.531250
vt 0.312500 0.421875
vt 0.324219 0.421875
vt 0.312500 0.437500
vt 0.304688 0.375000
vt 0.312500 0.390625
vt 0.304688 0.390625
vt 0.332031 0.421875
vt 0.343750 0.421875
vt 0.343750 0.437500
vt 0.332031 0.437500
vt 0.320312 0.406250
vt 0.328125 0.406250
vt 0.328125 0.417969
vt 0.320312 0.417969
vt 0.320312 0.347656
vt 0.328125 0.347656
vt 0.328125 0.359375
vt 0.320312 0.359375
vt 0.312500 0.406250
vt 0.320312 0.421875
vt 0.281250 0.406250
vt 0.292969 0.406250
vt 0.292969 0.421875
vt 0.281250 0.421875
vt 0.328125 0.421875
vt 0.300781 0.406250
vt 0.300781 0.421875
vt 0.289062 0.390625
vt 0.296875 0.390625
vt 0.296875 0.402344
vt 0.289062 0.402344
vt 0.289062 0.410156
vt 0.296875 0.410156
vt 0.296875 0.421875
vt 0.289062 0.421875
vt 0.468750 0.468750
vt 0.468750 0.718750
vt 0.281250 0.718750
vt 0.453125 0.468750
vt 0.453125 0.718750
vt 0.296875 0.468750
vt 0.296875 0.718750
vt 0.281250 0.703125
vt 0.468750 0.703125
vt 0.468750 0.484375
vt 0.281250 0.484375
vt 0.000000 0.109375
vt 0.031250 0.109375
vt 0.031250 0.125000
vt 0.000000 0.125000
vt 0.437500 0.718750
vt 0.312500 0.718750
vt 0.281250 0.687500
vt 0.468750 0.687500
vt 0.468750 0.500000
vt 0.281250 0.500000
vt 0.500000 0.515625
vt 0.515625 0.515625
vt 0.515625 0.718750
vt 0.515625 0.734375
vt 0.937500 0.062500
vt 0.546875 0.718750
vt 0.703125 0.718750
vt 0.703125 0.734375
vt 0.546875 0.734375
vt 0.000000 0.171875
vt 0.062500 0.171875
vt 0.062500 0.990625
vt 0.000000 0.990625
vt 0.031250 0.171875
vt 0.125000 0.171875
vt 0.125000 0.990625
vt 0.031250 0.990625
vt 0.093750 0.171875
vt 0.093750 0.990625
vt 0.125000 0.906250
vt 0.125000 0.875000
vt 0.000000 0.181250
vt 0.062500 0.181250
vt 0.031250 0.181250
vt 0.125000 0.181250
vt 0.093750 0.181250
vt 0.093750 1.000000
vt 0.125000 0.937500
vt 0.343750 0.500000
vt 0.843750 0.500000
vt 0.843750 0.562500
vt 0.343750 0.562500
vt 0.468750 0.625000
vt 1.000000 0.625000
vt 1.000000 0.687500
vt 0.218750 0.750000
vt 0.718750 0.750000
vt 0.718750 0.812500
vt 0.312500 0.562500
vt 0.843750 0.625000
vt 0.312500 0.625000
vt 0.156250 0.218750
vt 0.656250 0.218750
vt 0.656250 0.750000
vt 0.156250 0.750000
vt 0.000000 0.375000
vt 0.500000 0.375000
vt 0.500000 0.906250
vt 0.843750 0.937500
vt 0.937500 0.968750
vt 0.843750 0.968750
vt 0.156250 0.968750
vt 0.062500 0.843750
vt 0.125000 0.843750
vt 0.062500 0.062500
vt 0.125000 0.062500
vt 0.125000 0.156250
vt 0.062500 0.156250
vt 0.562500 0.937500
vt 0.562500 0.968750
vt 0.093750 0.937500
vt 0.093750 0.968750
vt 0.437500 0.937500
vt 0.437500 0.968750
vt 0.093750 0.000000
vt 0.125000 0.000000
vt 0.125000 0.562500
vt 0.093750 0.562500
vt 0.093750 0.437500
vt 0.125000 0.437500
vt 0.750000 1.000000
vt 0.750000 0.906250
vt 0.750000 0.875000
vt 0.750000 0.968750
vt 0.500000 0.937500
vt 0.500000 0.968750
vt 0.250000 0.906250
vt 0.500000 1.000000
vt 0.250000 1.000000
vt 0.250000 0.875000
vt 0.500000 0.875000
vt 0.312500 0.843750
vt 0.603553 0.937500
vt 0.603553 0.968750
vt 0.603553 0.906250
vt 0.603553 1.000000
vt 0.603553 0.875000
vt 0.012500 0.875000
vt 0.150000 0.875000
vt 0.150000 1.000000
vt 0.137500 0.875000
vt 0.137500 1.000000
vt 0.187500 0.968750
vt 0.187500 1.000000
vt 0.125000 0.812500
vt 0.000000 0.343750
vt 0.062500 0.343750
vt 0.093750 0.343750
vt 0.125000 0.343750
vt 0.031250 0.343750
vt 0.468750 1.000000
vt 0.125000 0.531250
vt 0.062500 0.531250
vt 0.125000 0.500000
vt 0.062500 0.500000
vt 0.312500 0.453125
vt 0.390625 0.390625
vt 0.390625 0.437500
vt 0.343750 0.390625
vt 0.375000 0.328125
vt 0.375000 0.343750
vt 0.328125 0.343750
vt 0.328125 0.328125
vt 0.375000 0.421875
vt 0.421875 0.421875
vt 0.375000 0.468750
vt 0.343750 0.343750
vt 0.375000 0.375000
vt 0.390625 0.453125
vt 0.343750 0.453125
vt 0.390625 0.359375
vt 0.390625 0.421875
vt 0.390625 0.343750
vt 0.390625 0.406250
vt 0.359375 0.343750
vt 0.375000 0.406250
vt 0.312500 0.343750
vt 0.375000 0.390625
vt 0.312500 0.328125
vt 0.281250 0.343750
vt 0.289622 0.343750
vt 0.289622 0.359375
vt 0.281250 0.359375
vt 0.285731 0.359375
vt 0.285731 0.343750
vt 0.281250 0.357427
vt 0.281250 0.352945
vt 0.288514 0.351001
vt 0.288510 0.359375
vt 0.281250 0.352112
vt 0.289624 0.352112
vt 0.287677 0.359375
vt 0.283195 0.359373
vt 0.281250 0.357431
vt 0.281250 0.352948
vt 0.288510 0.351001
vt 0.288514 0.359375
vt 0.287680 0.359373
vt 0.283197 0.359375
vt 0.281250 0.357430
vt 0.281250 0.352948
vt 0.288511 0.351003
vt 0.288511 0.359375
vt 0.287677 0.359375
vt 0.283194 0.359375
vt 0.281250 0.352111
vt 0.289624 0.352115
vt 0.288513 0.351001
vt 0.288513 0.359375
vt 0.281250 0.357428
vt 0.281252 0.352945
vt 0.287680 0.359375
vt 0.283198 0.359375
vt 0.281250 0.352115
vt 0.289624 0.352111
vt 0.281252 0.357430
vt 0.281250 0.352948
vt 0.287677 0.359375
vt 0.283195 0.359375
vt 0.281250 0.352114
vt 0.289622 0.352114
vt 0.283195 0.352114
vt 0.287677 0.352114
vt 0.288514 0.352948
vt 0.288514 0.357431
vt 0.281254 0.351001
vt 0.289624 0.359375
vt 0.283197 0.352112
vt 0.287680 0.352114
vt 0.288514 0.352945
vt 0.288514 0.357427
vt 0.281254 0.359375
vt 0.281250 0.351001
vt 0.283195 0.352114
vt 0.287677 0.352112
vt 0.288511 0.352948
vt 0.288511 0.357430
vt 0.281250 0.351003
vt 0.283198 0.352111
vt 0.287680 0.352111
vt 0.281250 0.359371
vt 0.288513 0.352948
vt 0.288511 0.357430
vt 0.283194 0.352111
vt 0.287677 0.352111
vt 0.289624 0.359371
vt 0.288511 0.352945
vt 0.288513 0.357428
s 1
usemtl m_3d215661-f591-00a8-53e2-d8d611c756be.004
f 1/1/1 5/2/1 6/3/1 2/4/1
f 4/5/2 8/4/2 7/1/2 3/6/2
f 3/7/3 7/8/3 5/9/3 1/10/3
f 2/11/4 6/12/4 8/13/4 4/14/4
f 5/1/5 9/2/5 10/3/5 6/4/5
f 8/5/6 12/4/6 11/1/6 7/6/6
f 7/15/3 11/16/3 9/17/3 5/18/3
f 6/11/4 10/12/4 12/19/4 8/20/4
f 9/1/7 13/2/7 14/3/7 10/4/7
f 12/5/8 16/4/8 15/1/8 11/6/8
f 11/21/3 15/22/3 13/23/3 9/24/3
f 10/23/4 14/24/4 16/21/4 12/22/4
f 13/1/9 17/2/9 18/3/9 14/4/9
f 16/5/10 20/4/10 19/1/10 15/6/10
f 15/13/3 19/25/3 17/26/3 13/27/3
f 14/28/4 18/29/4 20/30/4 16/31/4
f 17/1/11 21/2/11 22/3/11 18/4/11
f 20/5/12 24/4/12 23/1/12 19/6/12
f 19/32/3 23/33/3 21/34/3 17/35/3
f 18/28/4 22/29/4 24/36/4 20/16/4
f 21/1/13 25/2/13 26/3/13 22/4/13
f 24/5/14 28/4/14 27/1/14 23/6/14
f 23/37/3 27/38/3 25/39/3 21/40/3
f 22/3/4 26/4/4 28/41/4 24/42/4
f 25/1/2 29/2/2 30/3/2 26/4/2
f 28/5/1 32/4/1 31/1/1 27/6/1
f 27/43/3 31/44/3 29/4/3 25/45/3
f 26/46/4 30/4/4 32/47/4 28/48/4
f 29/1/6 33/2/6 34/3/6 30/4/6
f 32/5/5 36/4/5 35/1/5 31/6/5
f 31/49/3 35/50/3 33/51/3 29/52/3
f 30/46/4 34/4/4 36/53/4 32/54/4
f 33/1/8 37/2/8 38/3/8 34/4/8
f 36/5/7 40/4/7 39/1/7 35/6/7
f 35/55/3 39/56/3 37/4/3 33/57/3
f 34/4/4 38/57/4 40/55/4 36/56/4
f 37/1/10 41/2/10 42/3/10 38/4/10
f 40/5/9 44/4/9 43/1/9 39/6/9
f 39/58/3 43/59/3 41/46/3 37/60/3
f 38/4/4 42/52/4 44/61/4 40/62/4
f 41/1/12 45/2/12 46/3/12 42/4/12
f 44/5/11 48/4/11 47/1/11 43/6/11
f 43/63/3 47/64/3 45/65/3 41/4/3
f 42/4/4 46/52/4 48/66/4 44/67/4
f 45/1/14 1/2/14 2/3/14 46/4/14
f 48/5/13 4/4/13 3/1/13 47/6/13
f 47/41/3 3/42/3 1/3/3 45/4/3
f 46/39/4 2/40/4 4/37/4 48/38/4
f 91/94/4 94/95/4 92/96/4 89/97/4
f 90/94/7 91/95/7 89/96/7 88/97/7
f 95/98/3 90/99/3 88/100/3 93/101/3
f 94/94/8 95/95/8 93/96/8 92/97/8
f 93/102/14 88/103/14 89/104/14 92/105/14
f 94/102/13 91/103/13 90/104/13 95/105/13
f 99/106/4 102/107/4 100/108/4 97/105/4
f 98/109/7 99/110/7 97/111/7 96/112/7
f 103/109/3 98/113/3 96/104/3 101/112/3
f 102/106/8 103/109/8 101/112/8 100/105/8
f 101/112/14 96/104/14 97/100/14 100/97/14
f 102/109/13 99/113/13 98/104/13 103/112/13
f 107/106/4 110/107/4 108/108/4 105/105/4
f 106/109/7 107/110/7 105/111/7 104/112/7
f 111/109/3 106/113/3 104/104/3 109/112/3
f 110/106/8 111/109/8 109/112/8 108/105/8
f 109/112/14 104/104/14 105/100/14 108/97/14
f 110/109/13 107/113/13 106/104/13 111/112/13
f 98/106/4 114/109/4 112/112/4 96/105/4
f 107/109/7 98/107/7 96/108/7 105/112/7
f 115/107/3 107/113/3 105/104/3 113/108/3
f 114/106/8 115/110/8 113/111/8 112/105/8
f 113/107/14 105/113/14 96/100/14 112/114/14
f 114/115/13 98/116/13 107/104/13 115/108/13
f 119/106/4 122/107/4 120/108/4 117/105/4
f 118/109/7 119/110/7 117/111/7 116/112/7
f 123/109/3 118/113/3 116/104/3 121/112/3
f 122/106/8 123/109/8 121/112/8 120/105/8
f 121/112/14 116/104/14 117/100/14 120/97/14
f 122/109/13 119/113/13 118/104/13 123/112/13
f 125/106/4 128/109/4 126/112/4 124/105/4
f 119/109/7 125/107/7 124/108/7 117/112/7
f 129/107/3 119/113/3 117/104/3 127/108/3
f 128/106/8 129/110/8 127/111/8 126/105/8
f 127/107/14 117/113/14 124/100/14 126/114/14
f 128/115/13 125/116/13 119/104/13 129/108/13
f 131/106/4 134/107/4 132/108/4 130/105/4
f 125/109/7 131/110/7 130/111/7 124/112/7
f 135/109/3 125/113/3 124/104/3 133/112/3
f 134/106/8 135/109/8 133/112/8 132/105/8
f 133/112/14 124/104/14 130/100/14 132/97/14
f 134/109/13 131/113/13 125/104/13 135/112/13
f 139/106/4 142/107/4 140/108/4 137/105/4
f 138/109/7 139/110/7 137/111/7 136/112/7
f 143/109/3 138/113/3 136/104/3 141/112/3
f 142/106/8 143/109/8 141/112/8 140/105/8
f 141/112/14 136/104/14 137/100/14 140/97/14
f 142/109/13 139/113/13 138/104/13 143/112/13
f 138/106/4 148/109/4 146/112/4 136/105/4
f 145/109/7 138/107/7 136/108/7 144/112/7
f 149/107/3 145/113/3 144/104/3 147/108/3
f 148/106/8 149/110/8 147/111/8 146/105/8
f 147/107/14 144/113/14 136/100/14 146/114/14
f 148/115/13 138/116/13 145/104/13 149/108/13
f 145/106/4 154/107/4 152/108/4 144/105/4
f 151/109/7 145/110/7 144/111/7 150/112/7
f 155/109/3 151/113/3 150/104/3 153/112/3
f 154/106/8 155/109/8 153/112/8 152/105/8
f 153/112/14 150/104/14 144/100/14 152/97/14
f 154/109/13 145/113/13 151/104/13 155/112/13
f 159/117/4 162/118/4 160/114/4 157/101/4
f 158/117/7 159/119/7 157/120/7 156/101/7
f 163/117/3 158/118/3 156/114/3 161/101/3
f 162/117/8 163/119/8 161/120/8 160/101/8
f 161/106/14 156/107/14 157/114/14 160/101/14
f 162/106/13 159/107/13 158/114/13 163/101/13
f 167/117/4 170/118/4 168/114/4 165/101/4
f 166/117/7 167/119/7 165/120/7 164/101/7
f 171/117/3 166/118/3 164/114/3 169/101/3
f 170/117/8 171/119/8 169/120/8 168/101/8
f 169/106/14 164/107/14 165/114/14 168/101/14
f 170/106/13 167/107/13 166/114/13 171/101/13
f 173/105/4 174/121/4 161/122/4 156/101/4
f 172/123/7 173/124/7 156/125/7 165/126/7
f 175/105/3 172/121/3 165/122/3 168/101/3
f 174/123/8 175/124/8 168/125/8 161/126/8
f 168/127/14 165/128/14 156/122/14 161/101/14
f 174/127/13 173/128/13 172/122/13 175/101/13
f 179/129/4 182/130/4 180/131/4 177/132/4
f 178/129/7 179/133/7 177/134/7 176/132/7
f 183/129/3 178/130/3 176/131/3 181/132/3
f 182/129/8 183/133/8 181/134/8 180/132/8
f 181/127/14 176/135/14 177/114/14 180/101/14
f 182/127/13 179/135/13 178/114/13 183/101/13
f 187/129/4 190/130/4 188/131/4 185/132/4
f 186/136/7 187/137/7 185/134/7 184/132/7
f 191/129/3 186/130/3 184/131/3 189/132/3
f 190/136/8 191/137/8 189/134/8 188/132/8
f 189/127/14 184/135/14 185/114/14 188/101/14
f 190/127/13 187/135/13 186/114/13 191/101/13
f 195/138/4 198/139/4 196/140/4 193/141/4
f 194/142/7 195/143/7 193/144/7 192/145/7
f 199/138/3 194/139/3 192/140/3 197/141/3
f 198/142/8 199/143/8 197/144/8 196/145/8
f 197/138/14 192/139/14 193/140/14 196/141/14
f 198/138/13 195/139/13 194/140/13 199/141/13
f 203/138/4 206/139/4 204/140/4 201/141/4
f 202/142/7 203/143/7 201/144/7 200/145/7
f 207/138/3 202/139/3 200/140/3 205/141/3
f 206/142/8 207/143/8 205/144/8 204/145/8
f 205/138/14 200/139/14 201/140/14 204/141/14
f 206/138/13 203/139/13 202/140/13 207/141/13
f 211/138/4 214/139/4 212/140/4 209/141/4
f 210/142/7 211/143/7 209/144/7 208/145/7
f 215/138/3 210/139/3 208/140/3 213/141/3
f 214/142/8 215/143/8 213/144/8 212/145/8
f 213/138/14 208/139/14 209/140/14 212/141/14
f 214/138/13 211/139/13 210/140/13 215/141/13
f 219/138/4 222/139/4 220/140/4 217/141/4
f 218/142/7 219/143/7 217/144/7 216/145/7
f 223/138/3 218/139/3 216/140/3 221/141/3
f 222/142/8 223/143/8 221/144/8 220/145/8
f 221/138/14 216/139/14 217/140/14 220/141/14
f 222/138/13 219/139/13 218/140/13 223/141/13
f 227/146/4 230/147/4 228/148/4 225/149/4
f 226/146/7 227/147/7 225/148/7 224/149/7
f 231/146/3 226/147/3 224/148/3 229/149/3
f 230/146/8 231/147/8 229/148/8 228/149/8
f 229/150/14 224/151/14 225/148/14 228/149/14
f 230/150/13 227/151/13 226/148/13 231/149/13
f 235/105/4 238/152/4 236/153/4 233/101/4
f 234/112/7 235/154/7 233/155/7 232/97/7
f 239/105/3 234/152/3 232/153/3 237/101/3
f 238/112/8 239/154/8 237/155/8 236/97/8
f 237/156/14 232/157/14 233/152/14 236/105/14
f 238/156/13 235/157/13 234/152/13 239/105/13
f 243/106/4 246/158/4 244/96/4 241/101/4
f 242/106/15 243/159/15 241/160/15 240/101/15
f 247/106/3 242/158/3 240/96/3 245/101/3
f 246/161/16 247/162/16 245/122/16 244/163/16
f 245/164/17 240/165/17 241/166/17 244/167/17
f 246/168/18 243/169/18 242/96/18 247/101/18
f 251/106/4 254/158/4 252/96/4 249/101/4
f 250/106/18 251/159/18 249/160/18 248/101/18
f 255/106/3 250/158/3 248/96/3 253/101/3
f 254/161/17 255/162/17 253/122/17 252/163/17
f 253/164/15 248/165/15 249/166/15 252/167/15
f 254/168/16 251/169/16 250/96/16 255/101/16
f 259/106/4 262/158/4 260/96/4 257/101/4
f 258/161/18 259/162/18 257/122/18 256/163/18
f 263/106/3 258/158/3 256/96/3 261/101/3
f 262/106/17 263/159/17 261/160/17 260/101/17
f 261/168/15 256/169/15 257/96/15 260/101/15
f 262/164/16 259/165/16 258/166/16 263/167/16
f 267/106/4 270/158/4 268/96/4 265/101/4
f 266/161/15 267/162/15 265/122/15 264/163/15
f 271/106/3 266/158/3 264/96/3 269/101/3
f 270/106/16 271/159/16 269/160/16 268/101/16
f 269/168/17 264/169/17 265/96/17 268/101/17
f 270/164/18 267/165/18 266/166/18 271/167/18
f 274/170/4 277/171/4 275/172/4 151/173/4
f 273/174/7 274/175/7 151/176/7 272/177/7
f 278/170/3 273/171/3 272/172/3 276/173/3
f 277/174/8 278/175/8 276/176/8 275/177/8
f 276/178/14 272/179/14 151/180/14 275/181/14
f 277/178/13 274/179/13 273/180/13 278/181/13
f 282/182/4 285/183/4 283/96/4 280/101/4
f 281/182/15 282/184/15 280/185/15 279/101/15
f 286/182/3 281/183/3 279/96/3 284/101/3
f 285/183/16 286/186/16 284/187/16 283/96/16
f 284/188/17 279/189/17 280/190/17 283/102/17
f 285/191/18 282/192/18 281/96/18 286/101/18
f 290/105/4 293/154/4 291/155/4 288/101/4
f 289/105/7 290/193/7 288/194/7 287/101/7
f 294/195/3 289/196/3 287/197/3 292/96/3
f 293/105/8 294/193/8 292/194/8 291/101/8
f 292/198/14 287/199/14 288/197/14 291/96/14
f 293/198/13 290/199/13 289/197/13 294/96/13
f 298/106/4 301/200/4 299/201/4 296/101/4
f 297/109/7 298/202/7 296/203/7 295/97/7
f 302/161/3 297/204/3 295/197/3 300/163/3
f 301/109/8 302/202/8 300/203/8 299/97/8
f 300/205/14 295/206/14 296/207/14 299/208/14
f 301/209/13 298/210/13 297/211/13 302/97/13
f 304/194/7 303/203/7 305/212/7
f 306/155/8 307/194/8 308/212/8
f 303/213/14 304/154/14 307/193/14 306/212/14
f 305/213/3 303/155/3 306/194/3 308/212/3
f 308/212/19 307/194/19 304/203/19 305/202/19
f 310/194/7 309/203/7 311/212/7
f 312/155/8 313/194/8 314/212/8
f 309/213/14 310/154/14 313/193/14 312/212/14
f 311/213/3 309/155/3 312/194/3 314/212/3
f 314/212/19 313/194/19 310/203/19 311/202/19
f 316/194/7 315/203/7 317/212/7
f 318/155/8 319/194/8 320/212/8
f 315/213/14 316/154/14 319/193/14 318/212/14
f 317/213/3 315/155/3 318/194/3 320/212/3
f 320/212/19 319/194/19 316/203/19 317/202/19
f 324/127/4 299/214/4 325/215/4 322/182/4
f 323/216/7 324/123/7 322/126/7 321/217/7
f 300/218/3 323/123/3 321/126/3 326/219/3
f 299/216/8 300/123/8 326/126/8 325/217/8
f 326/205/14 321/206/14 322/207/14 325/208/14
f 299/205/13 324/206/13 323/207/13 300/208/13
f 327/203/7 328/194/7 329/212/7
f 331/194/8 330/155/8 332/212/8
f 331/193/14 328/154/14 327/213/14 330/212/14
f 330/194/4 327/155/4 329/213/4 332/212/4
f 328/203/20 331/194/20 332/212/20 329/202/20
f 333/203/7 334/194/7 335/212/7
f 337/194/8 336/155/8 338/212/8
f 337/193/14 334/154/14 333/213/14 336/212/14
f 336/194/4 333/155/4 335/213/4 338/212/4
f 334/203/20 337/194/20 338/212/20 335/202/20
f 339/203/7 340/194/7 341/212/7
f 343/194/8 342/155/8 344/212/8
f 343/193/14 340/154/14 339/213/14 342/212/14
f 342/194/4 339/155/4 341/213/4 344/212/4
f 340/203/20 343/194/20 344/212/20 341/202/20
f 348/182/4 351/183/4 349/96/4 346/101/4
f 347/182/15 348/184/15 346/185/15 345/101/15
f 352/182/3 347/183/3 345/96/3 350/101/3
f 351/183/16 352/186/16 350/187/16 349/96/16
f 350/188/17 345/189/17 346/190/17 349/102/17
f 351/191/18 348/192/18 347/96/18 352/101/18
f 356/127/4 359/216/4 357/97/4 354/101/4
f 355/127/7 356/220/7 354/120/7 353/101/7
f 360/216/3 355/220/3 353/120/3 358/97/3
f 359/127/8 360/220/8 358/120/8 357/101/8
f 358/109/14 353/110/14 354/120/14 357/97/14
f 359/109/13 356/110/13 355/120/13 360/97/13
f 364/221/4 367/222/4 365/223/4 362/224/4
f 363/225/7 364/226/7 362/227/7 361/228/7
f 368/229/3 363/230/3 361/231/3 366/232/3
f 367/225/8 368/226/8 366/227/8 365/228/8
f 366/233/14 361/234/14 362/235/14 365/236/14
f 367/233/13 364/234/13 363/235/13 368/236/13
f 372/237/4 375/238/4 373/239/4 370/240/4
f 371/237/7 372/241/7 370/242/7 369/240/7
f 376/243/3 371/244/3 369/245/3 374/246/3
f 375/237/8 376/241/8 374/242/8 373/240/8
f 374/247/14 369/248/14 370/249/14 373/250/14
f 375/247/13 372/248/13 371/249/13 376/250/13
f 368/251/17 367/252/17 370/250/17 369/247/17
f 364/251/18 363/252/18 371/250/18 372/247/18
f 363/238/3 368/239/3 369/246/3 371/243/3
f 372/238/4 370/239/4 367/246/4 364/243/4
f 379/241/8 377/242/8 378/240/8 380/237/8
f 374/251/21 373/252/21 378/253/21 377/254/21
f 375/251/22 376/252/22 379/253/22 380/254/22
f 376/238/3 374/239/3 377/255/3 379/256/3
f 380/257/4 378/258/4 373/246/4 375/243/4
f 384/110/23 382/120/23 381/101/23 383/106/23
f 387/110/24 385/120/24 386/101/24 388/106/24
f 381/109/14 382/97/14 386/101/14 385/106/14
f 384/109/13 383/97/13 387/101/13 388/106/13
f 383/109/3 381/97/3 385/101/3 387/106/3
f 388/110/4 386/120/4 382/97/4 384/109/4
f 392/110/23 390/120/23 389/97/23 391/109/23
f 395/109/24 393/97/24 394/101/24 396/106/24
f 389/112/14 390/97/14 394/101/14 393/105/14
f 392/109/13 391/112/13 395/105/13 396/106/13
f 391/109/3 389/97/3 393/101/3 395/106/3
f 396/110/4 394/120/4 390/97/4 392/109/4
f 400/110/25 398/120/25 397/97/25 399/109/25
f 401/109/26 389/97/26 390/101/26 402/106/26
f 400/109/13 399/112/13 401/105/13 402/106/13
f 399/109/3 397/97/3 389/101/3 401/106/3
f 402/110/4 390/120/4 398/97/4 400/109/4
f 397/112/14 398/97/14 390/101/14 389/105/14
f 406/110/25 404/120/25 403/101/25 405/106/25
f 407/110/26 381/120/26 382/101/26 408/106/26
f 406/109/13 405/97/13 407/101/13 408/106/13
f 405/109/3 403/97/3 381/101/3 407/106/3
f 408/110/4 382/120/4 404/97/4 406/109/4
f 403/109/14 404/97/14 382/101/14 381/106/14
f 497/345/4 500/346/4 498/347/4 495/348/4
f 496/349/7 497/350/7 495/351/7 494/352/7
f 501/346/3 496/353/3 494/354/3 499/347/3
f 500/349/8 501/350/8 499/351/8 498/352/8
f 499/355/14 494/356/14 495/357/14 498/358/14
f 500/355/13 497/356/13 496/357/13 501/358/13
f 505/359/4 508/360/4 506/361/4 503/362/4
f 504/363/7 505/364/7 503/365/7 502/366/7
f 509/367/3 504/368/3 502/369/3 507/370/3
f 508/371/8 509/372/8 507/373/8 506/374/8
f 507/375/14 502/376/14 503/377/14 506/378/14
f 508/379/13 505/380/13 504/381/13 509/382/13
f 513/383/4 516/384/4 514/351/4 511/385/4
f 512/386/7 513/387/7 511/388/7 510/389/7
f 517/390/3 512/391/3 510/392/3 515/393/3
f 516/363/8 517/364/8 515/365/8 514/366/8
f 515/394/14 510/395/14 511/396/14 514/397/14
f 516/398/13 513/399/13 512/400/13 517/401/13
f 521/402/4 524/403/4 522/96/4 519/97/4
f 520/402/7 521/403/7 519/96/7 518/97/7
f 525/117/3 520/404/3 518/100/3 523/101/3
f 524/402/8 525/403/8 523/96/8 522/97/8
f 523/102/14 518/103/14 519/104/14 522/105/14
f 524/102/13 521/103/13 520/104/13 525/105/13
f 529/345/4 532/346/4 530/347/4 527/348/4
f 528/349/7 529/350/7 527/351/7 526/352/7
f 533/346/3 528/353/3 526/354/3 531/347/3
f 532/349/8 533/350/8 531/351/8 530/352/8
f 531/355/14 526/356/14 527/357/14 530/358/14
f 532/355/13 529/356/13 528/357/13 533/358/13
f 537/359/4 540/360/4 538/361/4 535/362/4
f 536/363/7 537/364/7 535/365/7 534/366/7
f 541/367/3 536/368/3 534/369/3 539/370/3
f 540/371/8 541/372/8 539/373/8 538/374/8
f 539/375/14 534/376/14 535/377/14 538/378/14
f 540/379/13 537/380/13 536/381/13 541/382/13
f 545/383/4 548/384/4 546/351/4 543/385/4
f 544/386/7 545/387/7 543/388/7 542/389/7
f 549/390/3 544/391/3 542/392/3 547/393/3
f 548/363/8 549/364/8 547/365/8 546/366/8
f 547/394/14 542/395/14 543/396/14 546/397/14
f 548/398/13 545/399/13 544/400/13 549/401/13
f 519/405/4 522/406/4 552/96/4 551/97/4
f 518/405/7 519/406/7 551/96/7 550/97/7
f 523/156/3 518/407/3 550/100/3 553/101/3
f 522/405/8 523/406/8 553/96/8 552/97/8
f 553/102/14 550/103/14 551/104/14 552/105/14
f 557/408/4 560/243/4 558/224/4 555/409/4
f 556/408/7 557/410/7 555/411/7 554/409/7
f 561/408/3 556/243/3 554/224/3 559/409/3
f 560/408/8 561/410/8 559/411/8 558/409/8
f 559/412/14 554/413/14 555/224/14 558/409/14
f 560/412/13 557/413/13 556/224/13 561/409/13
f 89/402/4 92/403/4 524/96/4 521/97/4
f 88/402/7 89/403/7 521/96/7 520/97/7
f 93/117/3 88/404/3 520/100/3 525/101/3
f 92/402/8 93/403/8 525/96/8 524/97/8
f 565/414/4 568/415/4 566/416/4 563/417/4
f 564/418/7 565/419/7 563/256/7 562/420/7
f 569/421/3 564/356/3 562/422/3 567/423/3
f 568/424/8 569/425/8 567/426/8 566/427/8
f 567/428/14 562/429/14 563/430/14 566/431/14
f 568/432/13 565/433/13 564/434/13 569/435/13
f 573/436/4 576/428/4 574/437/4 571/418/4
f 572/438/7 573/439/7 571/440/7 570/441/7
f 577/437/3 572/442/3 570/257/3 575/241/3
f 576/443/8 577/436/8 575/418/8 574/444/8
f 575/445/14 570/446/14 571/447/14 574/448/14
f 576/449/13 573/450/13 572/451/13 577/452/13
f 581/358/4 584/453/4 582/454/4 579/455/4
f 580/456/7 581/453/7 579/454/7 578/457/7
f 585/358/3 580/453/3 578/454/3 583/455/3
f 584/358/8 585/458/8 583/459/8 582/455/8
f 583/460/14 578/461/14 579/454/14 582/455/14
f 584/358/13 581/453/13 580/462/13 585/463/13
f 589/464/4 592/465/4 590/466/4 587/467/4
f 588/373/7 589/453/7 587/454/7 586/468/7
f 593/358/3 588/453/3 586/454/3 591/455/3
f 592/358/8 593/357/8 591/469/8 590/455/8
f 591/470/14 586/471/14 587/454/14 590/455/14
f 592/358/13 589/453/13 588/472/13 593/473/13
f 597/474/4 600/475/4 598/476/4 595/138/4
f 596/474/7 597/475/7 595/476/7 594/138/7
f 601/474/3 596/475/3 594/476/3 599/138/3
f 600/474/8 601/475/8 599/476/8 598/138/8
f 599/138/14 594/476/14 595/477/14 598/141/14
f 600/138/13 597/476/13 596/477/13 601/141/13
f 605/474/4 608/475/4 606/476/4 603/138/4
f 604/474/7 605/475/7 603/476/7 602/138/7
f 609/474/3 604/475/3 602/476/3 607/138/3
f 608/474/8 609/475/8 607/476/8 606/138/8
f 607/138/14 602/476/14 603/477/14 606/141/14
f 608/138/13 605/476/13 604/477/13 609/141/13
f 645/479/4 648/480/4 646/481/4 643/482/4
f 644/142/7 645/143/7 643/144/7 642/145/7
f 649/479/3 644/480/3 642/481/3 647/482/3
f 648/138/8 649/476/8 647/477/8 646/141/8
f 647/479/14 642/480/14 643/481/14 646/482/14
f 648/479/13 645/480/13 644/481/13 649/482/13
f 501/436/47 502/361/47 503/411/47 500/579/47
f 506/580/48 507/581/48 499/426/48 498/582/48
f 507/583/3 502/584/3 501/585/3 499/586/3
f 500/411/49 503/579/50 506/420/49 498/410/49
f 494/587/51 510/588/51 511/374/51 495/589/51
f 514/590/52 515/582/52 496/446/52 497/1/52
f 515/388/3 510/591/3 494/347/3 496/434/3
f 495/592/53 511/593/53 514/426/53 497/581/53
f 526/587/51 542/588/51 543/374/51 527/589/51
f 546/590/52 547/582/52 528/446/52 529/1/52
f 547/388/3 542/591/3 526/347/3 528/434/3
f 527/592/54 543/593/53 546/426/53 529/581/53
f 798/594/13 796/595/13 797/442/13 799/434/13
f 796/585/55 559/596/55 558/597/55 797/429/55
f 560/598/23 561/361/23 798/413/23 799/1/23
f 561/584/3 559/599/3 796/436/3 798/600/3
f 797/597/56 558/429/57 560/585/56 799/596/56
f 555/595/58 554/442/58 800/434/58 801/594/58
f 802/583/26 556/601/26 557/422/26 803/602/26
f 801/388/13 800/587/13 802/418/13 803/352/13
f 800/584/3 554/599/3 556/436/3 802/600/3
f 557/599/59 555/436/59 801/600/59 803/584/59
f 533/436/47 534/361/47 535/411/47 532/579/47
f 538/580/48 539/581/48 531/426/48 530/582/48
f 539/583/3 534/584/3 533/585/3 531/586/3
f 532/411/49 535/579/50 538/420/49 530/410/49
f 804/1/1 808/2/1 809/3/1 805/4/1
f 807/5/2 811/4/2 810/1/2 806/6/2
f 806/7/3 810/8/3 808/9/3 804/10/3
f 805/11/4 809/12/4 811/13/4 807/14/4
f 808/1/5 812/2/5 813/3/5 809/4/5
f 811/5/6 815/4/6 814/1/6 810/6/6
f 810/15/3 814/16/3 812/17/3 808/18/3
f 809/11/4 813/12/4 815/19/4 811/20/4
f 812/1/7 816/2/7 817/3/7 813/4/7
f 815/5/8 819/4/8 818/1/8 814/6/8
f 814/21/3 818/22/3 816/23/3 812/24/3
f 813/23/4 817/24/4 819/21/4 815/22/4
f 816/1/9 820/2/9 821/3/9 817/4/9
f 819/5/10 823/4/10 822/1/10 818/6/10
f 818/13/3 822/25/3 820/26/3 816/27/3
f 817/28/4 821/29/4 823/30/4 819/31/4
f 820/1/11 824/2/11 825/3/11 821/4/11
f 823/5/12 827/4/12 826/1/12 822/6/12
f 822/32/3 826/33/3 824/34/3 820/35/3
f 821/28/4 825/29/4 827/36/4 823/16/4
f 824/1/13 828/2/13 829/3/13 825/4/13
f 827/5/14 831/4/14 830/1/14 826/6/14
f 826/37/3 830/38/3 828/39/3 824/40/3
f 825/3/4 829/4/4 831/41/4 827/42/4
f 828/1/2 832/2/2 833/3/2 829/4/2
f 831/5/1 835/4/1 834/1/1 830/6/1
f 830/43/3 834/44/3 832/4/3 828/45/3
f 829/46/4 833/4/4 835/47/4 831/48/4
f 832/1/6 836/2/6 837/3/6 833/4/6
f 835/5/5 839/4/5 838/1/5 834/6/5
f 834/49/3 838/50/3 836/51/3 832/52/3
f 833/46/4 837/4/4 839/53/4 835/54/4
f 836/1/8 840/2/8 841/3/8 837/4/8
f 839/5/7 843/4/7 842/1/7 838/6/7
f 838/55/3 842/56/3 840/4/3 836/57/3
f 837/4/4 841/57/4 843/55/4 839/56/4
f 840/1/10 844/2/10 845/3/10 841/4/10
f 843/5/9 847/4/9 846/1/9 842/6/9
f 842/58/3 846/59/3 844/46/3 840/60/3
f 841/4/4 845/52/4 847/61/4 843/62/4
f 844/1/12 848/2/12 849/3/12 845/4/12
f 847/5/11 851/4/11 850/1/11 846/6/11
f 846/63/3 850/64/3 848/65/3 844/4/3
f 845/4/4 849/52/4 851/66/4 847/67/4
f 848/1/14 804/2/14 805/3/14 849/4/14
f 851/5/13 807/4/13 806/1/13 850/6/13
f 850/41/3 806/42/3 804/3/3 848/4/3
f 849/39/4 805/40/4 807/37/4 851/38/4
f 852/603/11 856/604/11 857/605/11 853/606/11
f 855/607/12 859/606/12 858/603/12 854/608/12
f 854/609/4 858/610/4 856/611/4 852/612/4
f 853/613/3 857/614/3 859/615/3 855/616/3
f 856/603/9 860/604/9 861/605/9 857/606/9
f 859/607/10 863/606/10 862/603/10 858/608/10
f 858/617/4 862/618/4 860/619/4 856/620/4
f 857/613/3 861/614/3 863/621/3 859/622/3
f 860/603/7 864/604/7 865/605/7 861/606/7
f 863/607/8 867/606/8 866/603/8 862/608/8
f 862/623/4 866/624/4 864/625/4 860/626/4
f 861/625/3 865/626/3 867/623/3 863/624/3
f 864/603/5 868/604/5 869/605/5 865/606/5
f 867/607/6 871/606/6 870/603/6 866/608/6
f 866/627/4 870/628/4 868/629/4 864/630/4
f 865/631/3 869/632/3 871/633/3 867/634/3
f 868/603/1 872/604/1 873/605/1 869/606/1
f 871/607/2 875/606/2 874/603/2 870/608/2
f 870/635/4 874/636/4 872/637/4 868/638/4
f 869/631/3 873/632/3 875/639/3 871/640/3
f 872/603/14 876/604/14 877/605/14 873/606/14
f 875/607/13 879/606/13 878/603/13 874/608/13
f 874/641/4 878/642/4 876/643/4 872/644/4
f 873/605/3 877/606/3 879/645/3 875/646/3
f 876/603/12 880/604/12 881/605/12 877/606/12
f 879/607/11 883/606/11 882/603/11 878/608/11
f 878/647/4 882/648/4 880/606/4 876/649/4
f 877/650/3 881/606/3 883/651/3 879/652/3
f 880/603/10 884/604/10 885/605/10 881/606/10
f 883/607/9 887/606/9 886/603/9 882/608/9
f 882/653/4 886/654/4 884/655/4 880/656/4
f 881/650/3 885/606/3 887/657/3 883/658/3
f 884/603/8 888/604/8 889/605/8 885/606/8
f 887/607/7 891/606/7 890/603/7 886/608/7
f 886/659/4 890/660/4 888/606/4 884/661/4
f 885/606/3 889/661/3 891/659/3 887/660/3
f 888/603/6 892/604/6 893/605/6 889/606/6
f 891/607/5 895/606/5 894/603/5 890/608/5
f 890/662/4 894/663/4 892/650/4 888/664/4
f 889/606/3 893/656/3 895/665/3 891/666/3
f 892/603/2 896/604/2 897/605/2 893/606/2
f 895/607/1 899/606/1 898/603/1 894/608/1
f 894/667/4 898/668/4 896/669/4 892/606/4
f 893/606/3 897/656/3 899/670/3 895/671/3
f 896/603/13 852/604/13 853/605/13 897/606/13
f 899/607/14 855/606/14 854/603/14 898/608/14
f 898/645/4 854/646/4 852/605/4 896/606/4
f 897/643/3 853/644/3 855/641/3 899/642/3
usemtl m_409504fd-f58c-4195-329e-2b61b82ac830.004
f 51/68/4 52/69/4 49/70/4
f 52/69/4 53/71/4 49/70/4
f 53/71/4 54/72/4 49/70/4
f 54/72/4 55/73/4 49/70/4
f 55/73/4 56/74/4 49/70/4
f 56/74/4 57/75/4 49/70/4
f 57/75/4 58/76/4 49/70/4
f 58/76/4 59/77/4 49/70/4
f 59/77/4 60/78/4 49/70/4
f 60/78/4 61/79/4 49/70/4
f 61/79/4 50/80/4 49/70/4
f 50/80/4 51/68/4 49/70/4
f 64/68/4 65/69/4 62/70/4
f 65/69/4 66/71/4 62/70/4
f 66/71/4 67/72/4 62/70/4
f 67/72/4 68/73/4 62/70/4
f 68/73/4 69/74/4 62/70/4
f 69/74/4 70/75/4 62/70/4
f 70/75/4 71/76/4 62/70/4
f 71/76/4 72/77/4 62/70/4
f 72/77/4 73/78/4 62/70/4
f 73/78/4 74/79/4 62/70/4
f 74/79/4 63/80/4 62/70/4
f 63/80/4 64/68/4 62/70/4
f 77/81/3 78/82/3 75/83/3
f 78/82/3 79/84/3 75/83/3
f 79/84/3 80/85/3 75/83/3
f 80/85/3 81/86/3 75/83/3
f 81/86/3 82/87/3 75/83/3
f 82/87/3 83/88/3 75/83/3
f 83/88/3 84/89/3 75/83/3
f 84/89/3 85/90/3 75/83/3
f 85/90/3 86/91/3 75/83/3
f 86/91/3 87/92/3 75/83/3
f 87/92/3 76/93/3 75/83/3
f 76/93/3 77/81/3 75/83/3
usemtl m_b2af6bd8-ffc8-ff72-7f7b-7b18782af15d.004
f 412/259/4 415/260/4 413/261/4 410/127/4
f 411/262/7 412/263/7 410/264/7 409/220/7
f 416/265/3 411/263/3 409/264/3 414/266/3
f 415/259/8 416/267/8 414/268/8 413/127/8
f 414/269/14 409/270/14 410/271/14 413/272/14
f 415/273/13 412/274/13 411/275/13 416/276/13
f 420/277/4 423/278/4 421/279/4 418/220/4
f 419/280/7 420/281/7 418/264/7 417/282/7
f 424/283/3 419/284/3 417/268/3 422/285/3
f 423/286/8 424/287/8 422/288/8 421/127/8
f 422/289/14 417/290/14 418/291/14 421/292/14
f 423/293/13 420/294/13 419/295/13 424/296/13
f 428/277/4 431/278/4 429/279/4 426/220/4
f 427/280/7 428/281/7 426/264/7 425/282/7
f 432/283/3 427/284/3 425/268/3 430/285/3
f 431/286/8 432/287/8 430/288/8 429/127/8
f 430/289/14 425/290/14 426/291/14 429/292/14
f 431/293/13 428/294/13 427/295/13 432/296/13
f 434/259/4 436/260/4 435/261/4 433/127/4
f 412/259/7 434/297/7 433/279/7 410/127/7
f 436/298/8 415/263/8 413/264/8 435/285/8
f 413/273/14 410/274/14 433/299/14 435/300/14
f 436/266/13 434/264/13 412/271/13 415/272/13
f 438/277/4 441/301/4 439/302/4 437/220/4
f 423/277/7 438/278/7 437/279/7 421/220/7
f 442/303/3 423/284/3 421/268/3 440/304/3
f 441/283/8 442/284/8 440/268/8 439/285/8
f 440/305/14 421/306/14 437/307/14 439/308/14
f 441/304/13 438/268/13 423/309/13 442/310/13
f 444/277/4 447/301/4 445/302/4 443/220/4
f 431/277/7 444/278/7 443/279/7 429/220/7
f 448/303/3 431/284/3 429/268/3 446/304/3
f 447/283/8 448/284/8 446/268/8 445/285/8
f 446/305/14 429/306/14 443/307/14 445/308/14
f 447/304/13 444/268/13 431/309/13 448/310/13
f 450/311/4 435/312/4 451/261/4 445/302/4
f 449/313/7 450/314/7 445/279/7 446/220/7
f 453/273/3 449/315/3 446/304/3 452/266/3
f 435/293/8 453/294/8 452/268/8 451/285/8
f 452/269/14 446/305/14 445/308/14 451/300/14
f 435/266/13 450/304/13 449/310/13 453/276/13
f 433/312/4 456/316/4 443/317/4 454/261/4
f 455/313/7 433/314/7 454/279/7 426/220/7
f 457/318/3 455/273/3 426/266/3 429/319/3
f 456/293/8 457/294/8 429/268/8 443/285/8
f 429/320/14 426/269/14 454/300/14 443/321/14
f 456/319/13 433/266/13 455/276/13 457/322/13
f 460/312/4 462/316/4 430/317/4 425/261/4
f 459/313/7 460/314/7 425/279/7 458/220/7
f 463/318/3 459/273/3 458/266/3 461/319/3
f 462/293/8 463/294/8 461/268/8 430/285/8
f 461/320/14 458/269/14 425/300/14 430/321/14
f 462/319/13 460/266/13 459/276/13 463/322/13
f 467/311/4 470/312/4 468/261/4 465/302/4
f 466/313/7 467/314/7 465/279/7 464/220/7
f 414/273/3 466/315/3 464/304/3 469/266/3
f 470/293/8 414/294/8 469/268/8 468/285/8
f 469/269/14 464/305/14 465/308/14 468/300/14
f 470/266/13 467/304/13 466/310/13 414/276/13
f 448/301/4 472/323/4 452/261/4 446/302/4
f 471/286/7 448/284/7 446/268/7 465/127/7
f 473/324/3 471/303/3 465/304/3 468/266/3
f 472/277/8 473/281/8 468/264/8 452/220/8
f 468/273/14 465/315/14 446/310/14 452/276/14
f 472/269/13 448/305/13 471/325/13 473/272/13
f 442/301/4 478/323/4 476/261/4 440/302/4
f 475/286/7 442/284/7 440/268/7 474/127/7
f 479/324/3 475/303/3 474/304/3 477/266/3
f 478/277/8 479/281/8 477/264/8 476/220/8
f 477/273/14 474/315/14 440/310/14 476/276/14
f 478/269/13 442/305/13 475/325/13 479/272/13
f 483/326/4 486/327/4 484/328/4 481/329/4
f 482/259/7 483/298/7 481/285/7 480/127/7
f 487/262/3 482/199/3 480/330/3 485/220/3
f 486/297/8 487/263/8 485/264/8 484/279/8
f 485/313/14 480/331/14 481/330/14 484/220/14
f 486/332/13 483/333/13 482/197/13 487/120/13
f 489/334/4 492/335/4 490/288/4 483/329/4
f 488/336/7 489/337/7 483/285/7 482/127/7
f 493/338/3 488/339/3 482/330/3 491/340/3
f 492/341/8 493/342/8 491/264/8 490/279/8
f 491/343/14 482/331/14 483/330/14 490/340/14
f 492/344/13 489/333/13 488/197/13 493/153/13
f 613/293/27 616/274/27 614/342/27 611/337/27
f 612/293/7 613/274/7 611/342/7 610/337/7
f 617/293/28 612/274/28 610/342/28 615/337/28
f 616/293/8 617/274/8 615/342/8 614/337/8
f 615/293/29 610/274/29 611/299/29 614/478/29
f 616/293/30 613/274/30 612/299/30 617/478/30
f 621/341/31 619/100/31 618/101/31 620/336/31
f 624/341/32 622/100/32 623/101/32 625/336/32
f 618/274/33 619/299/33 623/478/33 622/293/33
f 621/274/34 620/299/34 624/478/34 625/293/34
f 620/341/35 618/100/35 622/101/35 624/336/35
f 625/341/36 623/100/36 619/101/36 621/336/36
f 629/341/37 627/100/37 626/101/37 628/336/37
f 632/341/38 630/100/38 631/101/38 633/336/38
f 626/274/33 627/299/33 631/478/33 630/293/33
f 629/274/34 628/299/34 632/478/34 633/293/34
f 628/341/35 626/100/35 630/101/35 632/336/35
f 633/341/36 631/100/36 627/101/36 629/336/36
f 637/293/27 640/274/27 638/342/27 635/337/27
f 636/293/7 637/274/7 635/342/7 634/337/7
f 641/293/28 636/274/28 634/342/28 639/337/28
f 640/293/8 641/274/8 639/342/8 638/337/8
f 639/293/29 634/274/29 635/299/29 638/478/29
f 640/293/30 637/274/30 636/299/30 641/478/30
f 580/483/4 589/484/4 653/485/4 651/486/4
f 652/487/7 580/488/7 651/489/7 650/490/7
f 655/484/3 652/488/3 650/489/3 654/485/3
f 589/483/8 655/491/8 654/492/8 653/486/8
f 654/278/14 650/493/14 651/194/14 653/100/14
f 589/297/13 580/494/13 652/212/13 655/113/13
f 592/495/4 585/496/4 659/100/4 657/101/4
f 658/497/7 592/498/7 657/194/7 656/120/7
f 661/496/3 658/498/3 656/194/3 660/100/3
f 585/495/8 661/499/8 660/500/8 659/101/8
f 660/278/14 656/493/14 657/194/14 659/100/14
f 585/297/13 592/494/13 658/212/13 661/113/13
f 665/127/4 668/279/4 666/100/4 663/101/4
f 664/127/7 665/264/7 663/271/7 662/101/7
f 669/279/3 664/501/3 662/194/3 667/100/3
f 668/127/8 669/264/8 667/271/8 666/101/8
f 667/205/14 662/314/14 663/100/14 666/101/14
f 668/205/13 665/314/13 664/100/13 669/101/13
f 673/502/4 676/503/4 674/504/4 671/505/4
f 672/506/7 673/507/7 671/508/7 670/471/7
f 677/509/3 672/510/3 670/511/3 675/339/3
f 676/512/8 677/504/8 675/513/8 674/514/8
f 675/515/14 670/516/14 671/517/14 674/518/14
f 676/519/13 673/520/13 672/521/13 677/286/13
f 681/127/4 669/279/4 667/113/4 679/106/4
f 680/522/7 681/285/7 679/523/7 678/524/7
f 683/279/3 680/501/3 678/212/3 682/113/3
f 669/279/8 683/340/8 682/525/8 667/113/8
f 682/526/14 678/527/14 679/501/14 667/279/14
f 669/528/13 681/529/13 680/530/13 683/531/13
f 687/127/4 690/220/4 688/110/4 685/106/4
f 686/127/7 687/532/7 685/533/7 684/106/7
f 691/534/3 686/501/3 684/212/3 689/535/3
f 690/536/8 691/264/8 689/275/8 688/537/8
f 689/538/14 684/539/14 685/540/14 688/541/14
f 690/542/13 687/543/13 686/194/13 691/500/13
f 686/127/4 696/279/4 694/113/4 684/106/4
f 693/522/7 686/285/7 684/523/7 692/524/7
f 697/279/3 693/501/3 692/212/3 695/113/3
f 696/279/8 697/340/8 695/525/8 694/113/8
f 695/526/14 692/527/14 684/501/14 694/279/14
f 696/528/13 686/529/13 693/530/13 697/531/13
f 699/127/4 700/317/4 585/544/4 580/101/4
f 698/220/7 699/501/7 580/194/7 652/120/7
f 701/127/3 698/317/3 652/544/3 661/101/3
f 700/127/8 701/534/8 661/500/8 585/101/8
f 661/286/14 652/545/14 580/544/14 585/101/14
f 700/259/13 699/546/13 698/547/13 701/106/13
f 705/319/4 708/548/4 706/549/4 703/322/4
f 704/220/7 705/501/7 703/212/7 702/110/7
f 709/319/3 704/548/3 702/549/3 707/322/3
f 708/127/8 709/534/8 707/535/8 706/106/8
f 707/550/14 702/521/14 703/551/14 706/552/14
f 708/553/13 705/554/13 704/549/13 709/322/13
f 713/304/4 716/536/4 714/537/4 711/310/4
f 712/220/7 713/340/7 711/525/7 710/110/7
f 717/304/3 712/536/3 710/537/3 715/310/3
f 716/220/8 717/340/8 715/525/8 714/110/8
f 715/555/14 710/174/14 711/537/14 714/310/14
f 716/555/13 713/174/13 712/537/13 717/310/13
f 721/319/4 724/548/4 722/549/4 719/322/4
f 720/220/18 721/501/18 719/212/18 718/110/18
f 725/319/3 720/548/3 718/549/3 723/322/3
f 724/127/17 725/534/17 723/535/17 722/106/17
f 723/550/15 718/521/15 719/551/15 722/552/15
f 724/553/16 721/554/16 720/549/16 725/322/16
f 729/319/4 732/556/4 730/557/4 727/322/4
f 728/220/15 729/501/15 727/212/15 726/110/15
f 733/319/3 728/556/3 726/557/3 731/322/3
f 732/127/16 733/534/16 731/535/16 730/106/16
f 731/550/17 726/558/17 727/559/17 730/552/17
f 732/553/18 729/560/18 728/557/18 733/322/18
f 737/561/4 740/562/4 738/563/4 735/185/4
f 736/259/7 737/494/7 735/194/7 734/101/7
f 741/259/3 736/564/3 734/565/3 739/101/3
f 740/259/8 741/494/8 739/194/8 738/101/8
f 739/259/14 734/564/14 735/565/14 738/101/14
f 740/259/13 737/564/13 736/565/13 741/101/13
f 745/106/4 748/113/4 746/100/4 743/101/4
f 744/106/7 745/566/7 743/567/7 742/101/7
f 749/113/3 744/212/3 742/194/3 747/100/3
f 748/106/8 749/566/8 747/567/8 746/101/8
f 747/341/14 742/568/14 743/194/14 746/100/14
f 748/341/13 745/568/13 744/194/13 749/100/13
f 753/106/4 756/113/4 754/100/4 751/101/4
f 752/106/7 753/566/7 751/567/7 750/101/7
f 757/113/3 752/212/3 750/194/3 755/100/3
f 756/106/8 757/566/8 755/567/8 754/101/8
f 755/341/14 750/568/14 751/194/14 754/100/14
f 756/341/13 753/568/13 752/194/13 757/100/13
f 761/569/4 764/570/4 762/113/4 759/106/4
f 760/571/7 761/572/7 759/212/7 758/535/7
f 765/570/3 760/572/3 758/212/3 763/113/3
f 764/569/8 765/573/8 763/110/8 762/106/8
f 763/113/14 758/212/14 759/194/14 762/100/14
f 764/297/13 761/494/13 760/493/13 765/278/13
f 761/501/7 760/534/7 766/129/7
f 765/220/8 764/127/8 767/277/8
f 766/493/39 760/501/39 765/279/39 767/278/39
f 767/278/4 764/279/4 761/127/4 766/286/4
f 770/106/4 773/113/4 771/100/4 769/101/4
f 759/106/7 770/566/7 769/567/7 768/101/7
f 762/113/3 759/212/3 768/194/3 772/100/3
f 773/106/8 762/566/8 772/567/8 771/101/8
f 772/341/14 768/568/14 769/194/14 771/100/14
f 773/341/13 770/568/13 759/194/13 762/100/13
f 768/153/8 759/566/8 758/525/8
f 772/120/7 763/110/7 762/106/7
f 758/212/40 768/194/40 772/100/40 763/113/40
f 742/153/8 744/566/8 774/525/8
f 747/120/7 775/110/7 749/106/7
f 744/568/13 774/527/13 775/526/13 749/341/13
f 774/212/40 742/194/40 747/100/40 775/113/40
f 777/106/4 779/113/4 778/100/4 776/101/4
f 766/106/7 777/566/7 776/567/7 761/101/7
f 779/106/8 767/566/8 764/567/8 778/101/8
f 764/341/14 761/568/14 776/194/14 778/100/14
f 779/341/13 777/568/13 766/194/13 767/100/13
f 750/569/4 755/570/4 749/113/4 744/106/4
f 780/571/7 750/572/7 744/212/7 774/535/7
f 781/570/3 780/572/3 774/212/3 775/113/3
f 755/569/8 781/573/8 775/110/8 749/106/8
f 755/297/13 750/494/13 780/493/13 781/278/13
f 750/501/7 780/534/7 752/129/7
f 781/220/8 755/127/8 757/277/8
f 752/493/39 780/501/39 781/279/39 757/278/39
f 785/548/41 783/551/41 782/120/41 784/220/41
f 788/288/42 786/574/42 787/101/42 789/127/42
f 782/575/43 783/194/43 787/100/43 786/576/43
f 785/577/44 784/212/44 788/113/44 789/578/44
f 784/501/3 782/194/3 786/100/3 788/279/3
f 789/279/4 787/100/4 783/101/4 785/127/4
f 789/548/45 787/551/45 790/120/45 791/220/45
f 794/288/46 792/574/46 793/101/46 795/127/46
f 790/575/43 787/194/43 793/100/43 792/576/43
f 789/577/44 791/212/44 794/113/44 795/578/44
f 791/501/3 790/194/3 792/100/3 794/279/3
f 795/279/4 793/100/4 787/101/4 789/127/4
