#   Blender 5.2.0 LTS
# www.blender.org
mtllib ks_vr_r_1000_right.mtl
o tube.004
v 0.183464 5.617188 -0.500000
v 0.183464 5.617188 -0.562500
v 0.176050 5.589520 -0.500000
v 0.176050 5.589520 -0.562500
v 0.230599 5.589974 -0.500000
v 0.230599 5.589974 -0.562500
v 0.210345 5.569720 -0.500000
v 0.210345 5.569720 -0.562500
v 0.257812 5.542839 -0.500000
v 0.257812 5.542839 -0.562500
v 0.230145 5.535425 -0.500000
v 0.230145 5.535425 -0.562500
v 0.257812 5.488411 -0.500000
v 0.257812 5.488411 -0.562500
v 0.230145 5.495825 -0.500000
v 0.230145 5.495825 -0.562500
v 0.230599 5.441276 -0.500000
v 0.230599 5.441276 -0.562500
v 0.210345 5.461530 -0.500000
v 0.210345 5.461530 -0.562500
v 0.183464 5.414062 -0.500000
v 0.183464 5.414062 -0.562500
v 0.176050 5.441730 -0.500000
v 0.176050 5.441730 -0.562500
v 0.129036 5.414062 -0.500000
v 0.129036 5.414062 -0.562500
v 0.136450 5.441730 -0.500000
v 0.136450 5.441730 -0.562500
v 0.081901 5.441276 -0.500000
v 0.081901 5.441276 -0.562500
v 0.102155 5.461530 -0.500000
v 0.102155 5.461530 -0.562500
v 0.054688 5.488411 -0.500000
v 0.054688 5.488411 -0.562500
v 0.082355 5.495825 -0.500000
v 0.082355 5.495825 -0.562500
v 0.054688 5.542839 -0.500000
v 0.054688 5.542839 -0.562500
v 0.082355 5.535425 -0.500000
v 0.082355 5.535425 -0.562500
v 0.081901 5.589974 -0.500000
v 0.081901 5.589974 -0.562500
v 0.102155 5.569720 -0.500000
v 0.102155 5.569720 -0.562500
v 0.129036 5.617188 -0.500000
v 0.129036 5.617188 -0.562500
v 0.136450 5.589520 -0.500000
v 0.136450 5.589520 -0.562500
v 0.156250 5.515625 -0.534375
v 0.181370 5.609375 -0.534375
v 0.224880 5.584255 -0.534375
v 0.250000 5.540745 -0.534375
v 0.250000 5.490505 -0.534375
v 0.224880 5.446995 -0.534375
v 0.181370 5.421875 -0.534375
v 0.131130 5.421875 -0.534375
v 0.087620 5.446995 -0.534375
v 0.062500 5.490505 -0.534375
v 0.062500 5.540745 -0.534375
v 0.087620 5.584255 -0.534375
v 0.131130 5.609375 -0.534375
v -0.156250 5.515625 -0.534375
v -0.131130 5.609375 -0.534375
v -0.087620 5.584255 -0.534375
v -0.062500 5.540745 -0.534375
v -0.062500 5.490505 -0.534375
v -0.087620 5.446995 -0.534375
v -0.131130 5.421875 -0.534375
v -0.181370 5.421875 -0.534375
v -0.224880 5.446995 -0.534375
v -0.250000 5.490505 -0.534375
v -0.250000 5.540745 -0.534375
v -0.224880 5.584255 -0.534375
v -0.181370 5.609375 -0.534375
v 0.218750 5.140625 -0.525000
v 0.233404 5.085938 -0.525000
v 0.258784 5.100591 -0.525000
v 0.273438 5.125971 -0.525000
v 0.273438 5.155279 -0.525000
v 0.258784 5.180659 -0.525000
v 0.233404 5.195312 -0.525000
v 0.204096 5.195312 -0.525000
v 0.178716 5.180659 -0.525000
v 0.164062 5.155279 -0.525000
v 0.164062 5.125971 -0.525000
v 0.178716 5.100591 -0.525000
v 0.204096 5.085938 -0.525000
v -0.968750 1.125000 0.125000
v -0.968750 1.125000 -0.125000
v -0.968750 0.312500 0.125000
v -0.968750 0.312500 -0.125000
v -1.218750 1.125000 -0.125000
v -1.218750 1.125000 0.125000
v -1.218750 0.312500 -0.125000
v -1.218750 0.312500 0.125000
v -0.781250 1.375000 -0.062500
v -0.781250 1.375000 -0.125000
v -0.781250 1.312500 -0.062500
v -0.781250 1.312500 -0.125000
v -0.968750 1.375000 -0.125000
v -0.968750 1.375000 -0.062500
v -0.968750 1.312500 -0.125000
v -0.968750 1.312500 -0.062500
v -0.781250 1.375000 0.062500
v -0.781250 1.312500 0.062500
v -0.843750 1.375000 -0.062500
v -0.843750 1.375000 0.062500
v -0.843750 1.312500 -0.062500
v -0.843750 1.312500 0.062500
v -0.781250 1.375000 0.125000
v -0.781250 1.312500 0.125000
v -0.968750 1.375000 0.062500
v -0.968750 1.375000 0.125000
v -0.968750 1.312500 0.062500
v -0.968750 1.312500 0.125000
v -0.781250 1.000000 -0.062500
v -0.781250 1.000000 -0.125000
v -0.781250 0.937500 -0.062500
v -0.781250 0.937500 -0.125000
v -0.968750 1.000000 -0.125000
v -0.968750 1.000000 -0.062500
v -0.968750 0.937500 -0.125000
v -0.968750 0.937500 -0.062500
v -0.781250 1.000000 0.062500
v -0.781250 0.937500 0.062500
v -0.843750 1.000000 -0.062500
v -0.843750 1.000000 0.062500
v -0.843750 0.937500 -0.062500
v -0.843750 0.937500 0.062500
v -0.781250 1.000000 0.125000
v -0.781250 0.937500 0.125000
v -0.968750 1.000000 0.062500
v -0.968750 1.000000 0.125000
v -0.968750 0.937500 0.062500
v -0.968750 0.937500 0.125000
v -0.781250 0.625000 0.062500
v -0.781250 0.625000 -0.062500
v -0.781250 0.562500 0.062500
v -0.781250 0.562500 -0.062500
v -0.843750 0.625000 -0.062500
v -0.843750 0.625000 0.062500
v -0.843750 0.562500 -0.062500
v -0.843750 0.562500 0.062500
v -0.781250 0.625000 0.125000
v -0.781250 0.562500 0.125000
v -0.968750 0.625000 0.062500
v -0.968750 0.625000 0.125000
v -0.968750 0.562500 0.062500
v -0.968750 0.562500 0.125000
v -0.781250 0.625000 -0.125000
v -0.781250 0.562500 -0.125000
v -0.968750 0.625000 -0.125000
v -0.968750 0.625000 -0.062500
v -0.968750 0.562500 -0.125000
v -0.968750 0.562500 -0.062500
v 0.062500 5.000000 -0.156250
v 0.062500 5.000000 -0.218750
v 0.062500 3.875000 -0.156250
v 0.062500 3.875000 -0.218750
v -0.062500 5.000000 -0.218750
v -0.062500 5.000000 -0.156250
v -0.062500 3.875000 -0.218750
v -0.062500 3.875000 -0.156250
v 0.062500 5.000000 0.218750
v 0.062500 5.000000 0.093750
v 0.062500 3.875000 0.218750
v 0.062500 3.875000 0.093750
v -0.062500 5.000000 0.093750
v -0.062500 5.000000 0.218750
v -0.062500 3.875000 0.093750
v -0.062500 3.875000 0.218750
v 0.062500 4.937500 0.093750
v 0.062500 4.937500 -0.156250
v -0.062500 4.937500 -0.156250
v -0.062500 4.937500 0.093750
v 0.062500 4.562500 0.093750
v 0.062500 4.562500 -0.156250
v 0.062500 4.500000 0.093750
v 0.062500 4.500000 -0.156250
v -0.062500 4.562500 -0.156250
v -0.062500 4.562500 0.093750
v -0.062500 4.500000 -0.156250
v -0.062500 4.500000 0.093750
v 0.062500 4.125000 0.093750
v 0.062500 4.125000 -0.156250
v 0.062500 3.937500 0.093750
v 0.062500 3.937500 -0.156250
v -0.062500 4.125000 -0.156250
v -0.062500 4.125000 0.093750
v -0.062500 3.937500 -0.156250
v -0.062500 3.937500 0.093750
v -0.781250 3.250000 0.187500
v -0.781250 3.250000 0.125000
v -0.781250 3.187500 0.187500
v -0.781250 3.187500 0.125000
v -1.156250 3.250000 0.125000
v -1.156250 3.250000 0.187500
v -1.156250 3.187500 0.125000
v -1.156250 3.187500 0.187500
v -1.031250 2.750000 0.187500
v -1.031250 2.750000 0.125000
v -1.031250 2.687500 0.187500
v -1.031250 2.687500 0.125000
v -1.406250 2.750000 0.125000
v -1.406250 2.750000 0.187500
v -1.406250 2.687500 0.125000
v -1.406250 2.687500 0.187500
v -0.781250 2.250000 0.187500
v -0.781250 2.250000 0.125000
v -0.781250 2.187500 0.187500
v -0.781250 2.187500 0.125000
v -1.156250 2.250000 0.125000
v -1.156250 2.250000 0.187500
v -1.156250 2.187500 0.125000
v -1.156250 2.187500 0.187500
v -1.031250 1.750000 0.187500
v -1.031250 1.750000 0.125000
v -1.031250 1.687500 0.187500
v -1.031250 1.687500 0.125000
v -1.406250 1.750000 0.125000
v -1.406250 1.750000 0.187500
v -1.406250 1.687500 0.125000
v -1.406250 1.687500 0.187500
v -0.718750 0.250000 0.375000
v -0.718750 0.250000 -0.375000
v -0.718750 -0.187500 0.375000
v -0.718750 -0.187500 -0.375000
v -1.468750 0.250000 -0.375000
v -1.468750 0.250000 0.375000
v -1.468750 -0.187500 -0.375000
v -1.468750 -0.187500 0.375000
v -0.781250 0.312500 0.250000
v -0.781250 0.312500 -0.250000
v -0.781250 0.250000 0.250000
v -0.781250 0.250000 -0.250000
v -1.406250 0.312500 -0.250000
v -1.406250 0.312500 0.250000
v -1.406250 0.250000 -0.250000
v -1.406250 0.250000 0.250000
v -1.137944 0.507583 -0.037500
v -1.137944 0.507583 -0.118750
v -1.049556 0.419194 -0.037500
v -1.049556 0.419194 -0.118750
v -1.358915 0.286612 -0.118750
v -1.358915 0.286612 -0.037500
v -1.270527 0.198223 -0.118750
v -1.270527 0.198223 -0.037500
v -0.836167 0.294194 -0.037500
v -0.836167 0.294194 -0.118750
v -0.924556 0.205806 -0.037500
v -0.924556 0.205806 -0.118750
v -1.057138 0.515165 -0.118750
v -1.057138 0.515165 -0.037500
v -1.145527 0.426777 -0.118750
v -1.145527 0.426777 -0.037500
v -0.836167 0.294194 0.118750
v -0.836167 0.294194 0.037500
v -0.924556 0.205806 0.118750
v -0.924556 0.205806 0.037500
v -1.057138 0.515165 0.037500
v -1.057138 0.515165 0.118750
v -1.145527 0.426777 0.037500
v -1.145527 0.426777 0.118750
v -1.137944 0.507583 0.118750
v -1.137944 0.507583 0.037500
v -1.049556 0.419194 0.118750
v -1.049556 0.419194 0.037500
v -1.358915 0.286612 0.037500
v -1.358915 0.286612 0.118750
v -1.270527 0.198223 0.037500
v -1.270527 0.198223 0.118750
v -0.781250 1.312500 0.500000
v -0.781250 0.500000 0.500000
v -0.781250 0.500000 0.125000
v -1.406250 1.312500 0.125000
v -1.406250 1.312500 0.500000
v -1.406250 0.500000 0.125000
v -1.406250 0.500000 0.500000
v -0.904029 3.861136 0.118750
v -0.904029 3.861136 0.068750
v -0.771447 3.728553 0.118750
v -0.771447 3.728553 0.068750
v -1.125000 3.640165 0.068750
v -1.125000 3.640165 0.118750
v -0.992417 3.507582 0.068750
v -0.992417 3.507582 0.118750
v 0.187500 3.875000 0.250000
v 0.187500 3.875000 -0.250000
v 0.187500 3.812500 0.250000
v 0.187500 3.812500 -0.250000
v -0.937500 3.875000 -0.250000
v -0.937500 3.875000 0.250000
v -0.937500 3.812500 -0.250000
v -0.937500 3.812500 0.250000
v -0.375000 3.812500 0.187500
v -0.375000 3.812500 -0.187500
v -0.375000 3.687500 0.187500
v -0.375000 3.687500 -0.187500
v -1.218750 3.812500 -0.187500
v -1.218750 3.812500 0.187500
v -1.218750 3.687500 -0.187500
v -1.218750 3.687500 0.187500
v -0.375000 3.812500 -0.250000
v -0.437500 3.812500 -0.187500
v -0.437500 3.812500 -0.250000
v -0.437500 3.687500 -0.187500
v -0.625000 3.812500 -0.187500
v -0.625000 3.812500 -0.250000
v -0.625000 3.687500 -0.187500
v -0.687500 3.812500 -0.187500
v -0.687500 3.812500 -0.250000
v -0.687500 3.687500 -0.187500
v -0.875000 3.812500 -0.187500
v -0.875000 3.812500 -0.250000
v -0.875000 3.687500 -0.187500
v -0.937500 3.812500 -0.187500
v -0.937500 3.687500 -0.187500
v -0.937500 3.875000 0.187500
v -0.937500 3.875000 -0.187500
v -0.937500 3.812500 0.187500
v -1.218750 3.875000 -0.187500
v -1.218750 3.875000 0.187500
v -0.437500 3.812500 0.187500
v -0.437500 3.812500 0.250000
v -0.437500 3.687500 0.187500
v -0.500000 3.812500 0.187500
v -0.500000 3.812500 0.250000
v -0.500000 3.687500 0.187500
v -0.625000 3.812500 0.187500
v -0.625000 3.812500 0.250000
v -0.625000 3.687500 0.187500
v -0.687500 3.812500 0.187500
v -0.687500 3.812500 0.250000
v -0.687500 3.687500 0.187500
v -0.812500 3.812500 0.187500
v -0.812500 3.812500 0.250000
v -0.812500 3.687500 0.187500
v -0.875000 3.812500 0.187500
v -0.875000 3.812500 0.250000
v -0.875000 3.687500 0.187500
v -0.904029 3.861136 -0.068750
v -0.904029 3.861136 -0.118750
v -0.771447 3.728553 -0.068750
v -0.771447 3.728553 -0.118750
v -1.125000 3.640165 -0.118750
v -1.125000 3.640165 -0.068750
v -0.992417 3.507582 -0.118750
v -0.992417 3.507582 -0.068750
v -0.187500 3.687500 0.062500
v -0.187500 3.687500 -0.062500
v -0.187500 3.437500 0.062500
v -0.187500 3.437500 -0.062500
v -0.250000 3.687500 -0.062500
v -0.250000 3.687500 0.062500
v -0.250000 3.437500 -0.062500
v -0.250000 3.437500 0.062500
v 0.109375 3.687500 0.031250
v 0.109375 3.687500 -0.031250
v 0.109375 3.568750 0.031250
v 0.109375 3.568750 -0.031250
v 0.062500 3.687500 -0.031250
v 0.062500 3.687500 0.031250
v 0.062500 3.568750 -0.031250
v 0.062500 3.568750 0.031250
v -0.015625 3.490625 0.031250
v -0.015625 3.490625 -0.031250
v -0.015625 3.443750 0.031250
v -0.015625 3.443750 -0.031250
v -0.218750 3.490625 -0.031250
v -0.218750 3.490625 0.031250
v -0.218750 3.443750 -0.031250
v -0.218750 3.443750 0.031250
v -0.406250 3.553125 0.031250
v -0.406250 3.553125 -0.031250
v -0.406250 3.506250 0.031250
v -0.406250 3.506250 -0.031250
v 0.187500 3.812500 0.187500
v 0.187500 3.812500 -0.187500
v 0.187500 3.687500 0.187500
v 0.187500 3.687500 -0.187500
v -0.125000 3.812500 -0.187500
v -0.125000 3.812500 -0.250000
v -0.125000 3.687500 -0.187500
v -0.187500 3.812500 -0.187500
v -0.187500 3.812500 -0.250000
v -0.187500 3.687500 -0.187500
v 0.125000 3.812500 -0.187500
v 0.125000 3.812500 -0.250000
v 0.125000 3.687500 -0.187500
v 0.062500 3.812500 -0.187500
v 0.062500 3.812500 -0.250000
v 0.062500 3.687500 -0.187500
v -0.390625 3.553125 0.031250
v -0.390625 3.553125 -0.031250
v -0.390625 3.506250 0.031250
v -0.390625 3.506250 -0.031250
v -0.968750 3.615625 0.031250
v -0.968750 3.615625 -0.031250
v -0.968750 3.568750 0.031250
v -0.968750 3.568750 -0.031250
v 0.000000 4.000000 -0.162500
v 0.000000 4.000000 -0.212500
v -0.062500 3.875000 -0.162500
v -0.062500 3.875000 -0.212500
v -0.062500 4.000000 -0.162500
v -0.062500 4.000000 -0.212500
v -0.125000 3.875000 -0.162500
v -0.125000 3.875000 -0.212500
v 0.062500 4.000000 -0.162500
v 0.062500 4.000000 -0.212500
v 0.125000 3.875000 -0.162500
v 0.125000 3.875000 -0.212500
v 0.062500 3.875000 -0.162500
v 0.062500 3.875000 -0.212500
v 0.062500 4.000000 0.212500
v 0.062500 4.000000 0.100000
v 0.125000 3.875000 0.212500
v 0.125000 3.875000 0.100000
v 0.062500 3.875000 0.212500
v 0.062500 3.875000 0.100000
v 0.000000 4.000000 0.212500
v 0.000000 4.000000 0.100000
v -0.062500 3.875000 0.212500
v -0.062500 3.875000 0.100000
v -0.062500 4.000000 0.212500
v -0.062500 4.000000 0.100000
v -0.125000 3.875000 0.212500
v -0.125000 3.875000 0.100000
v -0.381250 3.937500 0.306250
v -0.381250 3.937500 -0.693750
v -0.381250 3.875000 0.306250
v -0.381250 3.875000 -0.693750
v -1.256250 3.937500 -0.693750
v -1.256250 3.937500 0.306250
v -1.256250 3.875000 -0.693750
v -1.256250 3.875000 0.306250
v -0.381250 4.437500 -0.225000
v -0.381250 4.437500 -0.725000
v -0.381250 4.406250 -0.225000
v -0.381250 4.406250 -0.725000
v -0.412500 4.437500 -0.725000
v -0.412500 4.437500 -0.225000
v -0.412500 4.406250 -0.725000
v -0.412500 4.406250 -0.225000
v -0.381250 4.875000 -0.225000
v -0.381250 4.875000 -0.725000
v -0.381250 4.843750 -0.225000
v -0.381250 4.843750 -0.725000
v -0.412500 4.875000 -0.725000
v -0.412500 4.875000 -0.225000
v -0.412500 4.843750 -0.725000
v -0.412500 4.843750 -0.225000
v -0.381250 3.937500 -0.756250
v -0.381250 3.875000 -0.756250
v -1.256250 3.937500 -0.756250
v -1.256250 3.875000 -0.756250
v -0.412500 4.437500 -0.756250
v -0.412500 4.406250 -0.756250
v -1.225000 4.437500 -0.756250
v -1.225000 4.437500 -0.725000
v -1.225000 4.406250 -0.756250
v -1.225000 4.406250 -0.725000
v -0.412500 4.875000 -0.756250
v -0.412500 4.843750 -0.756250
v -1.225000 4.875000 -0.756250
v -1.225000 4.875000 -0.725000
v -1.225000 4.843750 -0.756250
v -1.225000 4.843750 -0.725000
v -0.412500 4.437500 0.306250
v -0.412500 4.437500 0.275000
v -0.412500 4.406250 0.306250
v -0.412500 4.406250 0.275000
v -0.787500 4.437500 0.275000
v -0.787500 4.437500 0.306250
v -0.787500 4.406250 0.275000
v -0.787500 4.406250 0.306250
v -0.412500 4.875000 0.306250
v -0.412500 4.875000 0.275000
v -0.412500 4.843750 0.306250
v -0.412500 4.843750 0.275000
v -0.787500 4.875000 0.275000
v -0.787500 4.875000 0.306250
v -0.787500 4.843750 0.275000
v -0.787500 4.843750 0.306250
v -1.225000 3.937500 -0.725000
v -1.225000 3.937500 -0.756250
v -1.256250 4.875000 -0.756250
v -1.256250 4.875000 -0.725000
v -1.256250 3.937500 -0.725000
v -0.381250 4.875000 -0.756250
v -0.381250 3.937500 -0.725000
v -0.412500 3.937500 -0.756250
v -0.412500 3.937500 -0.725000
v -0.381250 4.875000 -0.193750
v -0.381250 3.937500 -0.193750
v -0.381250 3.937500 -0.225000
v -0.412500 4.875000 -0.193750
v -0.412500 3.937500 -0.225000
v -0.412500 3.937500 -0.193750
v -1.225000 4.875000 0.306250
v -1.225000 4.875000 0.275000
v -1.225000 3.937500 0.306250
v -1.225000 3.937500 0.275000
v -1.256250 4.875000 0.275000
v -1.256250 4.875000 0.306250
v -1.256250 3.937500 0.275000
v -0.381250 4.875000 0.306250
v -0.381250 4.875000 0.275000
v -0.381250 3.937500 0.275000
v -0.412500 3.937500 0.275000
v -0.412500 3.937500 0.306250
v -0.787500 3.937500 0.306250
v -0.787500 3.937500 0.275000
v -0.818750 4.875000 0.275000
v -0.818750 4.875000 0.306250
v -0.818750 3.937500 0.275000
v -0.818750 3.937500 0.306250
v -1.225000 4.843750 0.275000
v -1.256250 4.843750 -0.725000
v -1.256250 4.843750 0.275000
v -1.225000 4.437500 0.275000
v -1.225000 4.406250 0.275000
v -1.256250 4.437500 -0.725000
v -1.256250 4.437500 0.275000
v -1.256250 4.406250 -0.725000
v -1.256250 4.406250 0.275000
v -0.975000 3.875000 -0.193750
v -0.975000 3.875000 -0.693750
v -0.975000 3.812500 -0.193750
v -0.975000 3.812500 -0.693750
v -1.162500 3.875000 -0.693750
v -1.162500 3.875000 -0.193750
v -1.162500 3.812500 -0.693750
v -1.162500 3.812500 -0.193750
v -0.975000 3.687500 -0.193750
v -0.975000 3.687500 -0.693750
v -1.037500 3.812500 -0.693750
v -1.037500 3.812500 -0.193750
v -1.037500 3.687500 -0.693750
v -1.037500 3.687500 -0.193750
v 0.250000 5.875000 0.671875
v 0.250000 5.875000 0.640625
v 0.250000 5.000000 0.671875
v 0.250000 5.000000 0.640625
v 0.218750 5.875000 0.640625
v 0.218750 5.875000 0.671875
v 0.218750 5.000000 0.640625
v 0.218750 5.000000 0.671875
v -0.218750 5.875000 0.671875
v -0.218750 5.875000 0.640625
v -0.218750 5.000000 0.671875
v -0.218750 5.000000 0.640625
v -0.250000 5.875000 0.640625
v -0.250000 5.875000 0.671875
v -0.250000 5.000000 0.640625
v -0.250000 5.000000 0.671875
v 0.368750 5.884903 0.300697
v 0.368750 5.879477 0.269922
v 0.368750 5.084747 0.441786
v 0.368750 5.079321 0.411011
v 0.337500 5.879477 0.269922
v 0.337500 5.884903 0.300697
v 0.337500 5.079321 0.411011
v 0.337500 5.084747 0.441786
v 0.368750 5.090997 0.441786
v 0.368750 5.080144 0.411486
v 0.243750 4.961646 0.463492
v 0.243750 4.950793 0.433191
v 0.337500 5.090997 0.441786
v 0.337500 5.080144 0.411486
v 0.212500 4.961646 0.463492
v 0.212500 4.950793 0.433191
v -0.350000 5.090997 0.441786
v -0.350000 5.080144 0.411486
v -0.225000 4.961646 0.463492
v -0.225000 4.950793 0.433191
v -0.381250 5.090997 0.441786
v -0.381250 5.080144 0.411486
v -0.256250 4.961646 0.463492
v -0.256250 4.950793 0.433191
v -0.350000 5.884903 0.300697
v -0.350000 5.879477 0.269922
v -0.350000 5.084747 0.441786
v -0.350000 5.079321 0.411011
v -0.381250 5.879477 0.269922
v -0.381250 5.884903 0.300697
v -0.381250 5.079321 0.411011
v -0.381250 5.084747 0.441786
v 0.312500 5.906250 0.671875
v 0.312500 5.906250 0.640625
v 0.312500 5.875000 0.671875
v 0.312500 5.875000 0.640625
v -0.312500 5.906250 0.640625
v -0.312500 5.906250 0.671875
v -0.312500 5.875000 0.640625
v -0.312500 5.875000 0.671875
v 0.375000 5.818750 -0.343750
v 0.375000 5.818750 -0.437500
v 0.375000 5.000000 -0.343750
v 0.375000 5.000000 -0.437500
v 0.312500 5.818750 -0.437500
v 0.312500 5.818750 -0.343750
v 0.312500 5.000000 -0.437500
v 0.312500 5.000000 -0.343750
v -0.312500 5.818750 -0.343750
v -0.312500 5.818750 -0.437500
v -0.312500 5.000000 -0.343750
v -0.312500 5.000000 -0.437500
v -0.375000 5.818750 -0.437500
v -0.375000 5.818750 -0.343750
v -0.375000 5.000000 -0.437500
v -0.375000 5.000000 -0.343750
v -0.343750 5.906250 0.562500
v -0.343750 5.906250 -0.000000
v -0.343750 5.875000 0.562500
v -0.343750 5.875000 -0.000000
v -0.375000 5.906250 -0.000000
v -0.375000 5.906250 0.562500
v -0.375000 5.875000 -0.000000
v -0.375000 5.875000 0.562500
v 0.250000 5.000000 0.687500
v 0.250000 5.000000 0.218750
v 0.250000 4.937500 0.687500
v 0.250000 4.937500 0.218750
v -0.250000 5.000000 0.218750
v -0.250000 5.000000 0.687500
v -0.250000 4.937500 0.218750
v -0.250000 4.937500 0.687500
v -0.312500 5.906250 0.656250
v -0.312500 5.906250 0.562500
v -0.312500 5.875000 0.656250
v -0.312500 5.875000 0.562500
v -0.375000 5.906250 0.656250
v -0.375000 5.875000 0.656250
v 0.375000 5.906250 0.562500
v 0.375000 5.906250 -0.000000
v 0.375000 5.875000 0.562500
v 0.375000 5.875000 -0.000000
v 0.343750 5.906250 -0.000000
v 0.343750 5.906250 0.562500
v 0.343750 5.875000 -0.000000
v 0.343750 5.875000 0.562500
v 0.375000 5.906250 0.656250
v 0.375000 5.875000 0.656250
v 0.312500 5.906250 0.562500
v 0.312500 5.906250 0.656250
v 0.312500 5.875000 0.562500
v 0.312500 5.875000 0.656250
v 0.375000 4.937500 -0.343750
v 0.375000 4.937500 -0.437500
v -0.375000 4.937500 -0.437500
v -0.375000 4.937500 -0.343750
v 0.125000 4.718750 -0.343750
v 0.125000 4.718750 -0.437500
v 0.125000 4.687500 -0.343750
v 0.125000 4.687500 -0.437500
v -0.125000 4.718750 -0.437500
v -0.125000 4.718750 -0.343750
v -0.125000 4.687500 -0.437500
v -0.125000 4.687500 -0.343750
v 0.062500 4.718750 -0.218750
v 0.062500 4.718750 -0.343750
v 0.062500 4.687500 -0.218750
v 0.062500 4.687500 -0.343750
v -0.062500 4.718750 -0.343750
v -0.062500 4.718750 -0.218750
v -0.062500 4.687500 -0.343750
v -0.062500 4.687500 -0.218750
v -0.102903 4.709597 -0.337500
v -0.102903 4.709597 -0.431250
v -0.125000 4.687500 -0.337500
v -0.125000 4.687500 -0.431250
v -0.352903 4.959597 -0.431250
v -0.352903 4.959597 -0.337500
v -0.375000 4.937500 -0.431250
v -0.375000 4.937500 -0.337500
v 0.352903 4.959597 -0.337500
v 0.352903 4.959597 -0.431250
v 0.375000 4.937500 -0.337500
v 0.375000 4.937500 -0.431250
v 0.102903 4.709597 -0.431250
v 0.102903 4.709597 -0.337500
v 0.125000 4.687500 -0.431250
v 0.125000 4.687500 -0.337500
v 0.068750 5.062500 -0.187500
v 0.068750 5.062500 -0.312500
v 0.068750 4.937500 -0.187500
v 0.068750 4.937500 -0.312500
v -0.068750 5.062500 -0.312500
v -0.068750 5.062500 -0.187500
v -0.068750 4.937500 -0.312500
v -0.068750 4.937500 -0.187500
v -0.343750 5.812500 -0.218750
v -0.343750 5.812500 -0.406250
v -0.343750 5.781250 -0.218750
v -0.343750 5.781250 -0.406250
v -0.406250 5.812500 -0.406250
v -0.406250 5.812500 -0.218750
v -0.406250 5.781250 -0.406250
v -0.406250 5.781250 -0.218750
v -0.343750 5.156250 -0.218750
v -0.343750 5.156250 -0.406250
v -0.343750 5.125000 -0.218750
v -0.343750 5.125000 -0.406250
v -0.406250 5.156250 -0.406250
v -0.406250 5.156250 -0.218750
v -0.406250 5.125000 -0.406250
v -0.406250 5.125000 -0.218750
v 0.406250 5.781250 -0.187500
v 0.406250 5.781250 -0.218750
v 0.406250 5.156250 -0.187500
v 0.406250 5.156250 -0.218750
v 0.343750 5.781250 -0.218750
v 0.343750 5.781250 -0.187500
v 0.343750 5.156250 -0.218750
v 0.343750 5.156250 -0.187500
v 0.406250 5.125000 -0.218750
v 0.343750 5.125000 -0.218750
v 0.406250 5.812500 -0.218750
v 0.406250 5.812500 -0.406250
v 0.406250 5.781250 -0.406250
v 0.343750 5.812500 -0.406250
v 0.343750 5.812500 -0.218750
v 0.343750 5.781250 -0.406250
v -0.343750 5.781250 -0.187500
v -0.406250 5.781250 -0.187500
v 0.406250 5.156250 -0.406250
v 0.406250 5.125000 -0.406250
v 0.343750 5.156250 -0.406250
v 0.343750 5.125000 -0.406250
v -0.343750 5.156250 -0.187500
v -0.406250 5.156250 -0.187500
v 0.250000 5.000000 0.681250
v 0.062500 4.937500 0.218750
v 0.250000 4.937500 0.681250
v 0.062500 4.875000 0.218750
v 0.187500 5.000000 0.681250
v 0.000000 4.937500 0.218750
v 0.187500 4.937500 0.681250
v 0.000000 4.875000 0.218750
v -0.187500 5.000000 0.681250
v -0.187500 4.937500 0.681250
v -0.250000 5.000000 0.681250
v -0.062500 4.937500 0.218750
v -0.250000 4.937500 0.681250
v -0.062500 4.875000 0.218750
v 0.218750 5.653125 -0.500000
v 0.218750 5.653125 -0.937500
v 0.218750 5.621875 -0.500000
v 0.218750 5.621875 -0.937500
v 0.093750 5.653125 -0.937500
v 0.093750 5.653125 -0.500000
v 0.093750 5.621875 -0.937500
v 0.093750 5.621875 -0.500000
v 0.027459 5.543750 -0.500000
v 0.027459 5.543750 -0.562500
v 0.027459 5.480139 -0.500000
v 0.027459 5.480139 -0.562500
v -0.003791 5.543750 -0.562500
v -0.003791 5.543750 -0.500000
v -0.003791 5.480139 -0.562500
v -0.003791 5.480139 -0.500000
v 0.315625 5.543750 -0.500000
v 0.315625 5.543750 -0.562500
v 0.315625 5.480139 -0.500000
v 0.315625 5.480139 -0.562500
v 0.284375 5.543750 -0.562500
v 0.284375 5.543750 -0.500000
v 0.284375 5.480139 -0.562500
v 0.284375 5.480139 -0.500000
v -0.968750 3.125000 0.125000
v -0.968750 3.125000 -0.125000
v -0.968750 2.125000 0.125000
v -0.968750 2.125000 -0.125000
v -1.218750 3.125000 -0.125000
v -1.218750 3.125000 0.125000
v -1.218750 2.125000 -0.125000
v -1.218750 2.125000 0.125000
v -0.093750 5.653125 -0.500000
v -0.093750 5.653125 -0.937500
v -0.093750 5.621875 -0.500000
v -0.093750 5.621875 -0.937500
v -0.218750 5.653125 -0.937500
v -0.218750 5.653125 -0.500000
v -0.218750 5.621875 -0.937500
v -0.218750 5.621875 -0.500000
v -0.285041 5.543750 -0.500000
v -0.285041 5.543750 -0.562500
v -0.285041 5.480139 -0.500000
v -0.285041 5.480139 -0.562500
v -0.316291 5.543750 -0.562500
v -0.316291 5.543750 -0.500000
v -0.316291 5.480139 -0.562500
v -0.316291 5.480139 -0.500000
v 0.003125 5.543750 -0.500000
v 0.003125 5.543750 -0.562500
v 0.003125 5.480139 -0.500000
v 0.003125 5.480139 -0.562500
v -0.028125 5.543750 -0.562500
v -0.028125 5.543750 -0.500000
v -0.028125 5.480139 -0.562500
v -0.028125 5.480139 -0.500000
v -0.968750 3.687500 0.125000
v -0.968750 3.687500 -0.125000
v -1.218750 3.687500 -0.125000
v -1.218750 3.687500 0.125000
v 0.265625 5.234375 -0.500000
v 0.265625 5.234375 -0.687500
v 0.265625 5.203125 -0.500000
v 0.265625 5.203125 -0.687500
v 0.171875 5.234375 -0.687500
v 0.171875 5.234375 -0.500000
v 0.171875 5.203125 -0.687500
v 0.171875 5.203125 -0.500000
v 0.156629 5.171686 -0.490625
v 0.156629 5.171686 -0.568750
v 0.156629 5.109186 -0.490625
v 0.156629 5.109186 -0.568750
v 0.125379 5.171686 -0.568750
v 0.125379 5.171686 -0.490625
v 0.125379 5.109186 -0.568750
v 0.125379 5.109186 -0.490625
v 0.312879 5.171686 -0.490625
v 0.312879 5.171686 -0.568750
v 0.312879 5.109186 -0.490625
v 0.312879 5.109186 -0.568750
v 0.281629 5.171686 -0.568750
v 0.281629 5.171686 -0.490625
v 0.281629 5.109186 -0.568750
v 0.281629 5.109186 -0.490625
v 0.375000 6.000000 -0.437500
v 0.375000 6.000000 -0.500000
v 0.375000 5.000000 -0.500000
v -0.375000 6.000000 -0.500000
v -0.375000 6.000000 -0.437500
v -0.375000 5.000000 -0.500000
v 0.312500 6.000000 -0.312500
v 0.312500 6.000000 -0.437500
v 0.312500 5.000000 -0.312500
v -0.312500 6.000000 -0.437500
v -0.312500 6.000000 -0.312500
v -0.312500 5.000000 -0.312500
v 0.125000 5.171875 -0.500000
v 0.125000 5.171875 -0.568750
v 0.156250 5.171875 -0.500000
v 0.156250 5.171875 -0.568750
v 0.312500 5.171875 -0.500000
v 0.312500 5.171875 -0.571875
v 0.281250 5.171875 -0.500000
v 0.281250 5.171875 -0.571875
v -0.129036 5.617188 -0.500000
v -0.129036 5.617188 -0.562500
v -0.136450 5.589520 -0.500000
v -0.136450 5.589520 -0.562500
v -0.081901 5.589974 -0.500000
v -0.081901 5.589974 -0.562500
v -0.102155 5.569720 -0.500000
v -0.102155 5.569720 -0.562500
v -0.054688 5.542839 -0.500000
v -0.054688 5.542839 -0.562500
v -0.082355 5.535425 -0.500000
v -0.082355 5.535425 -0.562500
v -0.054688 5.488411 -0.500000
v -0.054688 5.488411 -0.562500
v -0.082355 5.495825 -0.500000
v -0.082355 5.495825 -0.562500
v -0.081901 5.441276 -0.500000
v -0.081901 5.441276 -0.562500
v -0.102155 5.461530 -0.500000
v -0.102155 5.461530 -0.562500
v -0.129036 5.414062 -0.500000
v -0.129036 5.414062 -0.562500
v -0.136450 5.441730 -0.500000
v -0.136450 5.441730 -0.562500
v -0.183464 5.414062 -0.500000
v -0.183464 5.414062 -0.562500
v -0.176050 5.441730 -0.500000
v -0.176050 5.441730 -0.562500
v -0.230599 5.441276 -0.500000
v -0.230599 5.441276 -0.562500
v -0.210345 5.461530 -0.500000
v -0.210345 5.461530 -0.562500
v -0.257812 5.488411 -0.500000
v -0.257812 5.488411 -0.562500
v -0.230145 5.495825 -0.500000
v -0.230145 5.495825 -0.562500
v -0.257812 5.542839 -0.500000
v -0.257812 5.542839 -0.562500
v -0.230145 5.535425 -0.500000
v -0.230145 5.535425 -0.562500
v -0.230599 5.589974 -0.500000
v -0.230599 5.589974 -0.562500
v -0.210345 5.569720 -0.500000
v -0.210345 5.569720 -0.562500
v -0.183464 5.617188 -0.500000
v -0.183464 5.617188 -0.562500
v -0.176050 5.589520 -0.500000
v -0.176050 5.589520 -0.562500
v 0.235497 5.078125 -0.546875
v 0.235497 5.078125 -0.484375
v 0.227714 5.107170 -0.546875
v 0.227714 5.107170 -0.484375
v 0.264503 5.094872 -0.546875
v 0.264503 5.094872 -0.484375
v 0.243241 5.116134 -0.546875
v 0.243241 5.116134 -0.484375
v 0.281250 5.123878 -0.546875
v 0.281250 5.123878 -0.484375
v 0.252205 5.131660 -0.546875
v 0.252205 5.131660 -0.484375
v 0.281250 5.157372 -0.546875
v 0.281250 5.157372 -0.484375
v 0.252205 5.149590 -0.546875
v 0.252205 5.149590 -0.484375
v 0.264503 5.186378 -0.546875
v 0.264503 5.186378 -0.484375
v 0.243241 5.165116 -0.546875
v 0.243241 5.165116 -0.484375
v 0.235497 5.203125 -0.546875
v 0.235497 5.203125 -0.484375
v 0.227714 5.174080 -0.546875
v 0.227714 5.174080 -0.484375
v 0.202003 5.203125 -0.546875
v 0.202003 5.203125 -0.484375
v 0.209786 5.174080 -0.546875
v 0.209786 5.174080 -0.484375
v 0.172997 5.186378 -0.546875
v 0.172997 5.186378 -0.484375
v 0.194259 5.165116 -0.546875
v 0.194259 5.165116 -0.484375
v 0.156250 5.157372 -0.546875
v 0.156250 5.157372 -0.484375
v 0.185295 5.149590 -0.546875
v 0.185295 5.149590 -0.484375
v 0.156250 5.123878 -0.546875
v 0.156250 5.123878 -0.484375
v 0.185295 5.131660 -0.546875
v 0.185295 5.131660 -0.484375
v 0.172997 5.094872 -0.546875
v 0.172997 5.094872 -0.484375
v 0.194259 5.116134 -0.546875
v 0.194259 5.116134 -0.484375
v 0.202003 5.078125 -0.546875
v 0.202003 5.078125 -0.484375
v 0.209786 5.107170 -0.546875
v 0.209786 5.107170 -0.484375
vn 0.5000 0.8660 -0.0000
vn -0.5000 -0.8660 -0.0000
vn -0.0000 -0.0000 1.0000
vn -0.0000 -0.0000 -1.0000
vn 0.8660 0.5000 -0.0000
vn -0.8660 -0.5000 -0.0000
vn 1.0000 -0.0000 -0.0000
vn -1.0000 -0.0000 -0.0000
vn 0.8660 -0.5000 -0.0000
vn -0.8660 0.5000 -0.0000
vn 0.5000 -0.8660 -0.0000
vn -0.5000 0.8660 -0.0000
vn -0.0000 -1.0000 -0.0000
vn -0.0000 1.0000 -0.0000
vn 0.7071 0.7071 -0.0000
vn -0.7071 -0.7071 -0.0000
vn -0.7071 0.7071 -0.0000
vn 0.7071 -0.7071 -0.0000
vn -0.0000 -0.4472 -0.8944
vn -0.0000 -0.4472 0.8944
vn 0.3162 0.9487 -0.0000
vn -0.3162 -0.9487 -0.0000
vn 0.1075 0.9942 -0.0000
vn -0.1075 -0.9942 -0.0000
vn 0.8944 -0.4472 -0.0000
vn -0.8944 0.4472 -0.0000
vn 0.8944 0.4472 -0.0000
vn -0.8944 -0.4472 -0.0000
vn -0.0000 -0.1736 -0.9848
vn -0.0000 0.1736 0.9848
vn -0.0000 0.9848 -0.1736
vn -0.0000 -0.9848 0.1736
vn 0.7184 -0.6549 0.2346
vn -0.7184 0.6549 -0.2346
vn -0.0000 0.9414 -0.3372
vn -0.0000 -0.9414 0.3372
vn -0.0000 0.1655 0.9862
vn -0.0000 -0.1655 -0.9862
vn 0.7184 0.6549 -0.2346
vn -0.7184 -0.6549 0.2346
vn -0.0000 -0.7071 0.7071
vn -0.0000 0.7071 0.7071
vn 0.9267 -0.0000 -0.3757
vn -0.9267 -0.0000 0.3757
vn -0.0000 0.9910 -0.1339
vn -0.0000 -0.9910 0.1339
vn 0.9267 -0.0000 0.3757
vn -0.9267 -0.0000 -0.3757
vn 0.7625 -0.6470 -0.0000
vn -0.7463 0.6656 -0.0000
vn 0.0002 -0.9790 -0.2039
vn 0.0002 -0.9790 -0.2040
vn 0.0001 -0.9790 -0.2039
vn 0.7486 0.6630 -0.0000
vn -0.7657 -0.6432 -0.0000
vn -0.0001 -0.9600 -0.2800
vn -0.0002 -0.9600 -0.2800
vn -0.0001 -0.9600 -0.2799
vn -0.8000 0.6000 -0.0000
vn -0.9302 0.0002 -0.3671
vn -0.9302 0.0002 -0.3672
vn 0.8000 0.6000 -0.0000
vn 0.9267 0.0003 -0.3758
vn 0.9267 0.0001 -0.3757
vn 0.9268 0.0002 -0.3757
vn 0.9268 0.0001 -0.3757
vt 0.281250 0.343750
vt 0.294856 0.343750
vt 0.294856 0.359375
vt 0.281250 0.359375
vt 0.291150 0.359375
vt 0.291150 0.343750
vt 0.281250 0.357521
vt 0.281250 0.347621
vt 0.288168 0.345768
vt 0.288167 0.359375
vt 0.281250 0.352457
vt 0.294857 0.352457
vt 0.293003 0.359375
vt 0.283103 0.359375
vt 0.281250 0.357522
vt 0.281250 0.347622
vt 0.288167 0.345768
vt 0.288168 0.359375
vt 0.293004 0.359375
vt 0.283104 0.359375
vt 0.281250 0.357522
vt 0.281250 0.347622
vt 0.288167 0.345769
vt 0.288167 0.359375
vt 0.283103 0.359375
vt 0.281250 0.352457
vt 0.294857 0.352458
vt 0.288168 0.345768
vt 0.288168 0.359375
vt 0.281250 0.357521
vt 0.281250 0.347621
vt 0.293004 0.359375
vt 0.283104 0.359375
vt 0.281250 0.352458
vt 0.294857 0.352457
vt 0.281250 0.357522
vt 0.293003 0.359375
vt 0.283103 0.359375
vt 0.281250 0.352458
vt 0.294856 0.352458
vt 0.283103 0.352458
vt 0.293003 0.352458
vt 0.288168 0.347622
vt 0.288168 0.357522
vt 0.281251 0.345768
vt 0.294857 0.359375
vt 0.283104 0.352457
vt 0.293004 0.352458
vt 0.288168 0.347621
vt 0.288168 0.357521
vt 0.281251 0.359375
vt 0.281250 0.345768
vt 0.283103 0.352458
vt 0.293003 0.352457
vt 0.288167 0.347622
vt 0.288167 0.357522
vt 0.281250 0.345769
vt 0.283104 0.352457
vt 0.293004 0.352457
vt 0.281250 0.359374
vt 0.288168 0.347622
vt 0.288167 0.357522
vt 0.283103 0.352457
vt 0.293003 0.352457
vt 0.294857 0.359374
vt 0.288167 0.347621
vt 0.288168 0.357521
vt 0.324762 0.675237
vt 0.375000 0.762263
vt 0.187500 0.812500
vt 0.375000 0.862737
vt 0.324762 0.949763
vt 0.237738 1.000000
vt 0.137262 1.000000
vt 0.050237 0.949763
vt 0.000000 0.862737
vt 0.000000 0.762263
vt 0.050237 0.675237
vt 0.137262 0.625000
vt 0.237738 0.625000
vt 0.210781 0.797031
vt 0.242188 0.851406
vt 0.125000 0.882812
vt 0.242188 0.914219
vt 0.210781 0.968594
vt 0.156406 1.000000
vt 0.093594 1.000000
vt 0.039219 0.968594
vt 0.007812 0.914219
vt 0.007812 0.851406
vt 0.039219 0.797031
vt 0.093594 0.765625
vt 0.156406 0.765625
vt 0.015625 0.796875
vt 0.078125 0.796875
vt 0.078125 1.000000
vt 0.015625 1.000000
vt 0.000000 0.796875
vt 0.062500 0.796875
vt 0.062500 1.000000
vt 0.000000 1.000000
vt 0.000000 0.921875
vt 0.062500 0.921875
vt 0.062500 0.984375
vt 0.000000 0.984375
vt 0.000000 0.968750
vt 0.046875 0.968750
vt 0.046875 0.984375
vt 0.015625 0.968750
vt 0.031250 0.968750
vt 0.031250 0.984375
vt 0.015625 0.984375
vt 0.062500 0.968750
vt 0.046875 1.000000
vt 0.046875 0.953125
vt 0.062500 0.953125
vt 0.000000 0.750000
vt 0.046875 0.750000
vt 0.031250 0.750000
vt 0.031250 1.000000
vt 0.028125 0.984375
vt 0.028125 1.000000
vt 0.109375 0.937500
vt 0.171875 0.937500
vt 0.171875 0.953125
vt 0.109375 0.953125
vt 0.000000 0.937500
vt 0.028125 0.937500
vt 0.093750 0.906250
vt 0.140625 0.906250
vt 0.140625 0.921875
vt 0.093750 0.921875
vt 0.156250 0.906250
vt 0.156250 0.921875
vt 0.046875 0.937500
vt 0.093750 0.875000
vt 0.156250 0.875000
vt 0.500000 0.718750
vt 0.609375 0.718750
vt 0.609375 0.734375
vt 0.500000 0.734375
vt 0.734375 0.718750
vt 0.750000 0.718750
vt 0.750000 0.734375
vt 0.734375 0.734375
vt 0.000000 0.578125
vt 0.187500 0.578125
vt 0.187500 0.687500
vt 0.000000 0.687500
vt 0.000000 0.500000
vt 0.187500 0.500000
vt 0.156250 0.984375
vt 0.156250 1.000000
vt 0.140625 0.984375
vt 0.140625 1.000000
vt 0.000000 0.859375
vt 0.156250 0.859375
vt 0.078125 0.968750
vt 0.020312 0.968750
vt 0.020312 1.000000
vt 0.007812 0.968750
vt 0.028125 0.968750
vt 0.007812 1.000000
vt 0.000000 0.971875
vt 0.078125 0.971875
vt 0.078125 0.992188
vt 0.000000 0.992188
vt 0.000000 0.979688
vt 0.078125 0.979688
vt 0.265625 0.843750
vt 0.390625 0.843750
vt 0.390625 1.000000
vt 0.265625 1.000000
vt 0.437500 0.843750
vt 0.515625 0.843750
vt 0.515625 1.000000
vt 0.437500 1.000000
vt 0.265625 0.750000
vt 0.390625 0.750000
vt 0.390625 0.828125
vt 0.265625 0.828125
vt 0.000000 0.953125
vt 0.078125 0.953125
vt 0.012500 0.953125
vt 0.012500 1.000000
vt 0.090625 0.953125
vt 0.090625 1.000000
vt 0.000000 0.909375
vt 0.078125 0.909375
vt 0.078125 0.921875
vt 0.000000 0.987500
vt 0.078125 0.987500
vt 0.250000 0.984375
vt 0.250000 1.000000
vt 0.125000 0.984375
vt 0.125000 1.000000
vt 0.000000 0.875000
vt 0.250000 0.875000
vt 0.210938 0.968750
vt 0.210938 1.000000
vt 0.109375 0.968750
vt 0.109375 1.000000
vt 0.218750 0.968750
vt 0.218750 1.000000
vt 0.000000 0.000000
vt 0.210938 0.000000
vt 0.210938 0.093750
vt 0.000000 0.093750
vt 0.015625 0.906250
vt 0.226562 0.906250
vt 0.226562 1.000000
vt 0.125000 0.968750
vt 0.140625 0.968750
vt 0.101562 0.937500
vt 0.101562 0.953125
vt 0.015625 0.937500
vt 0.015625 0.953125
vt 0.007812 0.937500
vt 0.007812 0.953125
vt 0.031250 0.937500
vt 0.296875 0.423438
vt 0.308594 0.423438
vt 0.308594 0.453125
vt 0.296875 0.453125
vt 0.304688 0.423438
vt 0.320312 0.423438
vt 0.320312 0.453125
vt 0.304688 0.453125
vt 0.316406 0.423438
vt 0.328125 0.423438
vt 0.328125 0.453125
vt 0.316406 0.453125
vt 0.316406 0.429688
vt 0.328125 0.429688
vt 0.328125 0.445312
vt 0.316406 0.445312
vt 0.304688 0.437500
vt 0.355469 0.437500
vt 0.355469 0.449219
vt 0.304688 0.449219
vt 0.320312 0.437500
vt 0.320312 0.449219
vt 0.296875 0.437500
vt 0.347656 0.437500
vt 0.347656 0.449219
vt 0.296875 0.449219
vt 0.296875 0.429688
vt 0.347656 0.429688
vt 0.347656 0.445312
vt 0.296875 0.445312
vt 0.355469 0.429688
vt 0.355469 0.445312
vt 0.324219 0.445312
vt 0.324219 0.429688
vt 0.324219 0.449219
vt 0.324219 0.437500
vt 0.328125 0.437500
vt 0.328125 0.449219
vt 0.062500 0.875000
vt 0.937500 0.875000
vt 0.937500 0.937500
vt 0.062500 0.937500
vt 1.000000 0.875000
vt 1.000000 0.937500
vt 0.062500 0.000000
vt 0.937500 0.000000
vt 0.937500 1.000000
vt 0.000000 0.906250
vt 0.031250 0.906250
vt 0.500000 0.906250
vt 1.000000 0.906250
vt 0.500000 0.937500
vt 0.968750 0.906250
vt 0.968750 0.937500
vt 0.968750 0.500000
vt 1.000000 0.500000
vt 1.000000 1.000000
vt 0.968750 1.000000
vt 0.968750 0.000000
vt 1.000000 0.000000
vt 0.875000 0.875000
vt 0.875000 0.937500
vt 0.125000 0.000000
vt 1.000000 0.062500
vt 0.125000 0.062500
vt 0.125000 0.937500
vt 0.812500 0.906250
vt 0.812500 0.937500
vt 0.062500 0.906250
vt 0.187500 0.906250
vt 0.187500 0.937500
vt 0.937500 0.906250
vt 0.187500 0.031250
vt 1.000000 0.031250
vt 0.187500 0.062500
vt 1.000000 0.968750
vt 0.187500 0.968750
vt 0.375000 0.906250
vt 0.375000 0.937500
vt 0.625000 0.906250
vt 0.625000 0.937500
vt 0.625000 0.000000
vt 0.625000 0.031250
vt 0.625000 0.968750
vt 0.625000 1.000000
vt 0.718750 0.000000
vt 0.750000 0.000000
vt 0.750000 0.937500
vt 0.718750 0.937500
vt 0.031250 0.000000
vt 0.250000 0.000000
vt 0.281250 0.000000
vt 0.281250 0.937500
vt 0.250000 0.937500
vt 0.250000 0.031250
vt 0.281250 0.031250
vt 0.281250 0.062500
vt 0.250000 0.062500
vt 0.281250 0.968750
vt 0.250000 0.968750
vt 0.687500 0.000000
vt 0.687500 0.937500
vt 0.312500 0.000000
vt 0.312500 0.937500
vt 0.312500 0.031250
vt 0.312500 0.062500
vt 0.312500 0.968750
vt 0.312500 1.000000
vt 0.281250 1.000000
vt 0.718750 0.906250
vt 0.750000 0.906250
vt 0.250000 0.906250
vt 0.281250 0.906250
vt 0.406250 0.875000
vt 0.593750 0.875000
vt 0.593750 0.937500
vt 0.406250 0.937500
vt 0.500000 0.875000
vt 0.031250 0.875000
vt 0.218750 0.875000
vt 0.218750 0.937500
vt 0.218750 0.000000
vt 0.218750 0.500000
vt 0.031250 0.500000
vt 0.406250 0.812500
vt 0.468750 0.812500
vt 0.468750 0.937500
vt 0.000000 0.812500
vt 0.500000 0.812500
vt 0.156250 0.812500
vt 0.218750 0.812500
vt 0.156250 0.937500
vt 1.000000 0.812500
vt 0.156250 0.000000
vt 0.156250 0.500000
vt 0.500000 0.515625
vt 0.515625 0.515625
vt 0.515625 0.718750
vt 0.515625 0.734375
vt 0.937500 0.812500
vt 0.937500 0.062500
vt 0.062500 0.812500
vt 0.546875 0.718750
vt 0.703125 0.718750
vt 0.703125 0.734375
vt 0.546875 0.734375
vt 0.000000 0.171875
vt 0.062500 0.171875
vt 0.062500 0.990625
vt 0.000000 0.990625
vt 0.031250 0.171875
vt 0.125000 0.171875
vt 0.125000 0.990625
vt 0.031250 0.990625
vt 0.093750 0.171875
vt 0.093750 0.990625
vt 0.125000 0.906250
vt 0.125000 0.875000
vt 0.000000 0.181250
vt 0.062500 0.181250
vt 0.031250 0.181250
vt 0.125000 0.181250
vt 0.093750 0.181250
vt 0.093750 1.000000
vt 0.343750 0.500000
vt 0.843750 0.500000
vt 0.843750 0.562500
vt 0.343750 0.562500
vt 0.468750 0.625000
vt 1.000000 0.625000
vt 1.000000 0.687500
vt 0.468750 0.687500
vt 0.218750 0.750000
vt 0.718750 0.750000
vt 0.718750 0.812500
vt 0.312500 0.562500
vt 0.843750 0.625000
vt 0.312500 0.625000
vt 0.156250 0.218750
vt 0.656250 0.218750
vt 0.656250 0.750000
vt 0.156250 0.750000
vt 0.000000 0.375000
vt 0.500000 0.375000
vt 0.843750 0.937500
vt 0.937500 0.968750
vt 0.843750 0.968750
vt 0.156250 0.968750
vt 0.062500 0.843750
vt 0.125000 0.843750
vt 0.062500 0.062500
vt 0.125000 0.156250
vt 0.062500 0.156250
vt 0.562500 0.937500
vt 0.562500 0.968750
vt 0.093750 0.937500
vt 0.093750 0.968750
vt 0.437500 0.937500
vt 0.437500 0.968750
vt 0.093750 0.000000
vt 0.125000 0.562500
vt 0.093750 0.562500
vt 0.093750 0.437500
vt 0.125000 0.437500
vt 0.750000 1.000000
vt 0.750000 0.875000
vt 0.750000 0.968750
vt 0.500000 0.968750
vt 0.500000 1.000000
vt 0.312500 0.843750
vt 0.603553 0.937500
vt 0.603553 0.968750
vt 0.603553 0.906250
vt 0.603553 1.000000
vt 0.603553 0.875000
vt 0.012500 0.875000
vt 0.150000 0.875000
vt 0.150000 1.000000
vt 0.137500 0.875000
vt 0.137500 1.000000
vt 0.187500 1.000000
vt 0.125000 0.812500
vt 0.000000 0.343750
vt 0.062500 0.343750
vt 0.093750 0.343750
vt 0.125000 0.343750
vt 0.031250 0.343750
vt 0.468750 1.000000
vt 0.125000 0.531250
vt 0.062500 0.531250
vt 0.125000 0.500000
vt 0.062500 0.500000
vt 0.296875 0.367188
vt 0.328125 0.367188
vt 0.328125 0.375000
vt 0.296875 0.375000
vt 0.312500 0.351562
vt 0.343750 0.351562
vt 0.343750 0.359375
vt 0.312500 0.359375
vt 0.359375 0.367188
vt 0.359375 0.375000
vt 0.281250 0.375000
vt 0.312500 0.375000
vt 0.312500 0.468750
vt 0.281250 0.468750
vt 0.351562 0.390347
vt 0.359375 0.390347
vt 0.359375 0.406250
vt 0.351562 0.406250
vt 0.390625 0.452847
vt 0.406250 0.452847
vt 0.406250 0.468750
vt 0.390625 0.468750
vt 0.391240 0.390347
vt 0.399052 0.390347
vt 0.399052 0.406250
vt 0.391240 0.406250
vt 0.421875 0.452847
vt 0.437500 0.452847
vt 0.437500 0.468750
vt 0.421875 0.468750
vt 0.359990 0.406250
vt 0.367802 0.406250
vt 0.367802 0.421875
vt 0.359990 0.421875
vt 0.359990 0.359375
vt 0.367802 0.359375
vt 0.367802 0.375000
vt 0.359990 0.375000
vt 0.335938 0.343472
vt 0.343750 0.343472
vt 0.335938 0.359375
vt 0.359375 0.343472
vt 0.375000 0.343472
vt 0.375000 0.359375
vt 0.359375 0.359375
vt 0.406865 0.452847
vt 0.414677 0.452847
vt 0.414677 0.468750
vt 0.406865 0.468750
vt 0.359990 0.453125
vt 0.367802 0.453125
vt 0.367802 0.468750
vt 0.359990 0.468750
vt 0.391240 0.421875
vt 0.399052 0.421875
vt 0.399052 0.437500
vt 0.391240 0.437500
vt 0.015625 0.750000
vt 0.078125 0.750000
vt 0.062500 0.750000
vt 0.015625 0.859375
vt 0.078125 0.859375
vt 0.062500 0.859375
vt 0.265625 0.437500
vt 0.265625 0.453125
vt 0.359375 0.437500
vt 0.359375 0.453125
vt 0.265625 0.406250
vt 0.296875 0.406250
vt 0.328125 0.515625
vt 0.335938 0.515625
vt 0.335938 0.531250
vt 0.328125 0.531250
vt 0.312500 0.421875
vt 0.324219 0.421875
vt 0.312500 0.437500
vt 0.304688 0.375000
vt 0.312500 0.390625
vt 0.304688 0.390625
vt 0.332031 0.421875
vt 0.343750 0.421875
vt 0.343750 0.437500
vt 0.332031 0.437500
vt 0.320312 0.406250
vt 0.328125 0.406250
vt 0.328125 0.417969
vt 0.320312 0.417969
vt 0.320312 0.347656
vt 0.328125 0.347656
vt 0.328125 0.359375
vt 0.320312 0.359375
vt 0.312500 0.406250
vt 0.320312 0.421875
vt 0.281250 0.406250
vt 0.292969 0.406250
vt 0.292969 0.421875
vt 0.281250 0.421875
vt 0.328125 0.421875
vt 0.300781 0.406250
vt 0.300781 0.421875
vt 0.289062 0.390625
vt 0.296875 0.390625
vt 0.296875 0.402344
vt 0.289062 0.402344
vt 0.289062 0.410156
vt 0.296875 0.410156
vt 0.296875 0.421875
vt 0.289062 0.421875
vt 0.468750 0.468750
vt 0.468750 0.718750
vt 0.281250 0.718750
vt 0.453125 0.468750
vt 0.453125 0.718750
vt 0.296875 0.468750
vt 0.296875 0.718750
vt 0.281250 0.703125
vt 0.468750 0.703125
vt 0.468750 0.484375
vt 0.281250 0.484375
vt 0.000000 0.109375
vt 0.031250 0.109375
vt 0.031250 0.125000
vt 0.000000 0.125000
vt 0.437500 0.718750
vt 0.312500 0.718750
vt 0.281250 0.687500
vt 0.468750 0.500000
vt 0.281250 0.500000
vt 0.312500 0.453125
vt 0.390625 0.390625
vt 0.390625 0.437500
vt 0.343750 0.390625
vt 0.375000 0.328125
vt 0.375000 0.343750
vt 0.328125 0.343750
vt 0.328125 0.328125
vt 0.375000 0.421875
vt 0.421875 0.421875
vt 0.375000 0.468750
vt 0.343750 0.343750
vt 0.296875 0.343750
vt 0.375000 0.375000
vt 0.390625 0.453125
vt 0.343750 0.453125
vt 0.390625 0.359375
vt 0.390625 0.421875
vt 0.390625 0.343750
vt 0.390625 0.406250
vt 0.359375 0.343750
vt 0.375000 0.406250
vt 0.312500 0.343750
vt 0.375000 0.390625
vt 0.312500 0.328125
vt 0.310481 0.343750
vt 0.310481 0.359375
vt 0.296875 0.359375
vt 0.306775 0.359375
vt 0.306775 0.343750
vt 0.296875 0.357521
vt 0.296875 0.347621
vt 0.303793 0.345768
vt 0.303792 0.359375
vt 0.296875 0.352457
vt 0.310482 0.352457
vt 0.308628 0.359375
vt 0.298728 0.359375
vt 0.296875 0.357522
vt 0.296875 0.347622
vt 0.303792 0.345768
vt 0.303793 0.359375
vt 0.308629 0.359375
vt 0.298729 0.359375
vt 0.296875 0.357522
vt 0.296875 0.347622
vt 0.303792 0.345769
vt 0.303792 0.359375
vt 0.298728 0.359375
vt 0.296875 0.352457
vt 0.310482 0.352458
vt 0.303793 0.345768
vt 0.303793 0.359375
vt 0.296875 0.357521
vt 0.296875 0.347621
vt 0.308629 0.359375
vt 0.298729 0.359375
vt 0.296875 0.352458
vt 0.310482 0.352457
vt 0.296875 0.357522
vt 0.308628 0.359375
vt 0.298728 0.359375
vt 0.296875 0.352458
vt 0.310481 0.352458
vt 0.298728 0.352458
vt 0.308628 0.352458
vt 0.303793 0.347622
vt 0.303793 0.357522
vt 0.296876 0.345768
vt 0.310482 0.359375
vt 0.298729 0.352457
vt 0.308629 0.352458
vt 0.303793 0.347621
vt 0.303793 0.357521
vt 0.296876 0.359375
vt 0.296875 0.345768
vt 0.298728 0.352458
vt 0.308628 0.352457
vt 0.303792 0.347622
vt 0.303792 0.357522
vt 0.296875 0.345769
vt 0.298729 0.352457
vt 0.308629 0.352457
vt 0.296875 0.359374
vt 0.303793 0.347622
vt 0.303792 0.357522
vt 0.298728 0.352457
vt 0.308628 0.352457
vt 0.310482 0.359374
vt 0.303792 0.347621
vt 0.303793 0.357521
vt 0.289622 0.343750
vt 0.289622 0.359375
vt 0.285731 0.359375
vt 0.285731 0.343750
vt 0.281250 0.357427
vt 0.281250 0.352945
vt 0.288514 0.351001
vt 0.288510 0.359375
vt 0.281250 0.352112
vt 0.289624 0.352112
vt 0.287677 0.359375
vt 0.283195 0.359373
vt 0.281250 0.357431
vt 0.281250 0.352948
vt 0.288510 0.351001
vt 0.288514 0.359375
vt 0.287680 0.359373
vt 0.283197 0.359375
vt 0.281250 0.357430
vt 0.281250 0.352948
vt 0.288511 0.351003
vt 0.288511 0.359375
vt 0.287677 0.359375
vt 0.283194 0.359375
vt 0.281250 0.352111
vt 0.289624 0.352115
vt 0.288513 0.351001
vt 0.288513 0.359375
vt 0.281250 0.357428
vt 0.281252 0.352945
vt 0.287680 0.359375
vt 0.283198 0.359375
vt 0.281250 0.352115
vt 0.289624 0.352111
vt 0.281252 0.357430
vt 0.281250 0.352948
vt 0.287677 0.359375
vt 0.283195 0.359375
vt 0.281250 0.352114
vt 0.289622 0.352114
vt 0.283195 0.352114
vt 0.287677 0.352114
vt 0.288514 0.352948
vt 0.288514 0.357431
vt 0.281254 0.351001
vt 0.289624 0.359375
vt 0.283197 0.352112
vt 0.287680 0.352114
vt 0.288514 0.352945
vt 0.288514 0.357427
vt 0.281254 0.359375
vt 0.281250 0.351001
vt 0.283195 0.352114
vt 0.287677 0.352112
vt 0.288511 0.352948
vt 0.288511 0.357430
vt 0.281250 0.351003
vt 0.283198 0.352111
vt 0.287680 0.352111
vt 0.281250 0.359371
vt 0.288513 0.352948
vt 0.288511 0.357430
vt 0.283194 0.352111
vt 0.287677 0.352111
vt 0.289624 0.359371
vt 0.288511 0.352945
vt 0.288513 0.357428
s 1
usemtl m_3d215661-f591-00a8-53e2-d8d611c756be.005
f 1/1/1 5/2/1 6/3/1 2/4/1
f 4/5/2 8/4/2 7/1/2 3/6/2
f 3/7/3 7/8/3 5/9/3 1/10/3
f 2/11/4 6/12/4 8/13/4 4/14/4
f 5/1/5 9/2/5 10/3/5 6/4/5
f 8/5/6 12/4/6 11/1/6 7/6/6
f 7/15/3 11/16/3 9/17/3 5/18/3
f 6/11/4 10/12/4 12/19/4 8/20/4
f 9/1/7 13/2/7 14/3/7 10/4/7
f 12/5/8 16/4/8 15/1/8 11/6/8
f 11/21/3 15/22/3 13/23/3 9/24/3
f 10/23/4 14/24/4 16/21/4 12/22/4
f 13/1/9 17/2/9 18/3/9 14/4/9
f 16/5/10 20/4/10 19/1/10 15/6/10
f 15/13/3 19/25/3 17/26/3 13/27/3
f 14/28/4 18/29/4 20/30/4 16/31/4
f 17/1/11 21/2/11 22/3/11 18/4/11
f 20/5/12 24/4/12 23/1/12 19/6/12
f 19/32/3 23/33/3 21/34/3 17/35/3
f 18/28/4 22/29/4 24/36/4 20/16/4
f 21/1/13 25/2/13 26/3/13 22/4/13
f 24/5/14 28/4/14 27/1/14 23/6/14
f 23/37/3 27/38/3 25/39/3 21/40/3
f 22/3/4 26/4/4 28/41/4 24/42/4
f 25/1/2 29/2/2 30/3/2 26/4/2
f 28/5/1 32/4/1 31/1/1 27/6/1
f 27/43/3 31/44/3 29/4/3 25/45/3
f 26/46/4 30/4/4 32/47/4 28/48/4
f 29/1/6 33/2/6 34/3/6 30/4/6
f 32/5/5 36/4/5 35/1/5 31/6/5
f 31/49/3 35/50/3 33/51/3 29/52/3
f 30/46/4 34/4/4 36/53/4 32/54/4
f 33/1/8 37/2/8 38/3/8 34/4/8
f 36/5/7 40/4/7 39/1/7 35/6/7
f 35/55/3 39/56/3 37/4/3 33/57/3
f 34/4/4 38/57/4 40/55/4 36/56/4
f 37/1/10 41/2/10 42/3/10 38/4/10
f 40/5/9 44/4/9 43/1/9 39/6/9
f 39/58/3 43/59/3 41/46/3 37/60/3
f 38/4/4 42/52/4 44/61/4 40/62/4
f 41/1/12 45/2/12 46/3/12 42/4/12
f 44/5/11 48/4/11 47/1/11 43/6/11
f 43/63/3 47/64/3 45/65/3 41/4/3
f 42/4/4 46/52/4 48/66/4 44/67/4
f 45/1/14 1/2/14 2/3/14 46/4/14
f 48/5/13 4/4/13 3/1/13 47/6/13
f 47/41/3 3/42/3 1/3/3 45/4/3
f 46/39/4 2/40/4 4/37/4 48/38/4
f 91/94/4 94/95/4 92/96/4 89/97/4
f 90/94/7 91/95/7 89/96/7 88/97/7
f 95/98/3 90/99/3 88/100/3 93/101/3
f 94/94/8 95/95/8 93/96/8 92/97/8
f 93/102/14 88/103/14 89/104/14 92/105/14
f 94/102/13 91/103/13 90/104/13 95/105/13
f 99/106/4 102/107/4 100/108/4 97/105/4
f 98/109/7 99/110/7 97/111/7 96/112/7
f 103/109/3 98/113/3 96/104/3 101/112/3
f 102/106/8 103/109/8 101/112/8 100/105/8
f 101/112/14 96/104/14 97/100/14 100/97/14
f 102/109/13 99/113/13 98/104/13 103/112/13
f 98/106/4 108/109/4 106/112/4 96/105/4
f 105/109/7 98/107/7 96/108/7 104/112/7
f 109/107/3 105/113/3 104/104/3 107/108/3
f 108/106/8 109/110/8 107/111/8 106/105/8
f 107/107/14 104/113/14 96/100/14 106/114/14
f 108/115/13 98/116/13 105/104/13 109/108/13
f 105/106/4 114/107/4 112/108/4 104/105/4
f 111/109/7 105/110/7 104/111/7 110/112/7
f 115/109/3 111/113/3 110/104/3 113/112/3
f 114/106/8 115/109/8 113/112/8 112/105/8
f 113/112/14 110/104/14 104/100/14 112/97/14
f 114/109/13 105/113/13 111/104/13 115/112/13
f 119/106/4 122/107/4 120/108/4 117/105/4
f 118/109/7 119/110/7 117/111/7 116/112/7
f 123/109/3 118/113/3 116/104/3 121/112/3
f 122/106/8 123/109/8 121/112/8 120/105/8
f 121/112/14 116/104/14 117/100/14 120/97/14
f 122/109/13 119/113/13 118/104/13 123/112/13
f 118/106/4 128/109/4 126/112/4 116/105/4
f 125/109/7 118/107/7 116/108/7 124/112/7
f 129/107/3 125/113/3 124/104/3 127/108/3
f 128/106/8 129/110/8 127/111/8 126/105/8
f 127/107/14 124/113/14 116/100/14 126/114/14
f 128/115/13 118/116/13 125/104/13 129/108/13
f 125/106/4 134/107/4 132/108/4 124/105/4
f 131/109/7 125/110/7 124/111/7 130/112/7
f 135/109/3 131/113/3 130/104/3 133/112/3
f 134/106/8 135/109/8 133/112/8 132/105/8
f 133/112/14 130/104/14 124/100/14 132/97/14
f 134/109/13 125/113/13 131/104/13 135/112/13
f 139/106/4 142/109/4 140/112/4 137/105/4
f 138/109/7 139/107/7 137/108/7 136/112/7
f 143/107/3 138/113/3 136/104/3 141/108/3
f 142/106/8 143/110/8 141/111/8 140/105/8
f 141/107/14 136/113/14 137/100/14 140/114/14
f 142/115/13 139/116/13 138/104/13 143/108/13
f 138/106/4 148/107/4 146/108/4 136/105/4
f 145/109/7 138/110/7 136/111/7 144/112/7
f 149/109/3 145/113/3 144/104/3 147/112/3
f 148/106/8 149/109/8 147/112/8 146/105/8
f 147/112/14 144/104/14 136/100/14 146/97/14
f 148/109/13 138/113/13 145/104/13 149/112/13
f 151/106/4 154/107/4 152/108/4 150/105/4
f 139/109/7 151/110/7 150/111/7 137/112/7
f 155/109/3 139/113/3 137/104/3 153/112/3
f 154/106/8 155/109/8 153/112/8 152/105/8
f 153/112/14 137/104/14 150/100/14 152/97/14
f 154/109/13 151/113/13 139/104/13 155/112/13
f 159/117/4 162/118/4 160/114/4 157/101/4
f 158/117/7 159/119/7 157/120/7 156/101/7
f 163/117/3 158/118/3 156/114/3 161/101/3
f 162/117/8 163/119/8 161/120/8 160/101/8
f 161/106/14 156/107/14 157/114/14 160/101/14
f 162/106/13 159/107/13 158/114/13 163/101/13
f 167/117/4 170/118/4 168/114/4 165/101/4
f 166/117/7 167/119/7 165/120/7 164/101/7
f 171/117/3 166/118/3 164/114/3 169/101/3
f 170/117/8 171/119/8 169/120/8 168/101/8
f 169/106/14 164/107/14 165/114/14 168/101/14
f 170/106/13 167/107/13 166/114/13 171/101/13
f 173/105/4 174/121/4 161/122/4 156/101/4
f 172/123/7 173/124/7 156/125/7 165/126/7
f 175/105/3 172/121/3 165/122/3 168/101/3
f 174/123/8 175/124/8 168/125/8 161/126/8
f 168/127/14 165/128/14 156/122/14 161/101/14
f 174/127/13 173/128/13 172/122/13 175/101/13
f 179/129/4 182/130/4 180/131/4 177/132/4
f 178/129/7 179/133/7 177/134/7 176/132/7
f 183/129/3 178/130/3 176/131/3 181/132/3
f 182/129/8 183/133/8 181/134/8 180/132/8
f 181/127/14 176/135/14 177/114/14 180/101/14
f 182/127/13 179/135/13 178/114/13 183/101/13
f 187/129/4 190/130/4 188/131/4 185/132/4
f 186/136/7 187/137/7 185/134/7 184/132/7
f 191/129/3 186/130/3 184/131/3 189/132/3
f 190/136/8 191/137/8 189/134/8 188/132/8
f 189/127/14 184/135/14 185/114/14 188/101/14
f 190/127/13 187/135/13 186/114/13 191/101/13
f 195/138/4 198/139/4 196/140/4 193/141/4
f 194/142/7 195/143/7 193/144/7 192/145/7
f 199/138/3 194/139/3 192/140/3 197/141/3
f 198/142/8 199/143/8 197/144/8 196/145/8
f 197/138/14 192/139/14 193/140/14 196/141/14
f 198/138/13 195/139/13 194/140/13 199/141/13
f 203/138/4 206/139/4 204/140/4 201/141/4
f 202/142/7 203/143/7 201/144/7 200/145/7
f 207/138/3 202/139/3 200/140/3 205/141/3
f 206/142/8 207/143/8 205/144/8 204/145/8
f 205/138/14 200/139/14 201/140/14 204/141/14
f 206/138/13 203/139/13 202/140/13 207/141/13
f 211/138/4 214/139/4 212/140/4 209/141/4
f 210/142/7 211/143/7 209/144/7 208/145/7
f 215/138/3 210/139/3 208/140/3 213/141/3
f 214/142/8 215/143/8 213/144/8 212/145/8
f 213/138/14 208/139/14 209/140/14 212/141/14
f 214/138/13 211/139/13 210/140/13 215/141/13
f 219/138/4 222/139/4 220/140/4 217/141/4
f 218/142/7 219/143/7 217/144/7 216/145/7
f 223/138/3 218/139/3 216/140/3 221/141/3
f 222/142/8 223/143/8 221/144/8 220/145/8
f 221/138/14 216/139/14 217/140/14 220/141/14
f 222/138/13 219/139/13 218/140/13 223/141/13
f 227/146/4 230/147/4 228/148/4 225/149/4
f 226/146/7 227/147/7 225/148/7 224/149/7
f 231/146/3 226/147/3 224/148/3 229/149/3
f 230/146/8 231/147/8 229/148/8 228/149/8
f 229/150/14 224/151/14 225/148/14 228/149/14
f 230/150/13 227/151/13 226/148/13 231/149/13
f 235/105/4 238/152/4 236/153/4 233/101/4
f 234/112/7 235/154/7 233/155/7 232/97/7
f 239/105/3 234/152/3 232/153/3 237/101/3
f 238/112/8 239/154/8 237/155/8 236/97/8
f 237/156/14 232/157/14 233/152/14 236/105/14
f 238/156/13 235/157/13 234/152/13 239/105/13
f 243/106/4 246/158/4 244/96/4 241/101/4
f 242/106/15 243/159/15 241/160/15 240/101/15
f 247/106/3 242/158/3 240/96/3 245/101/3
f 246/161/16 247/162/16 245/122/16 244/163/16
f 245/164/17 240/165/17 241/166/17 244/167/17
f 246/168/18 243/169/18 242/96/18 247/101/18
f 251/106/4 254/158/4 252/96/4 249/101/4
f 250/106/18 251/159/18 249/160/18 248/101/18
f 255/106/3 250/158/3 248/96/3 253/101/3
f 254/161/17 255/162/17 253/122/17 252/163/17
f 253/164/15 248/165/15 249/166/15 252/167/15
f 254/168/16 251/169/16 250/96/16 255/101/16
f 259/106/4 262/158/4 260/96/4 257/101/4
f 258/161/18 259/162/18 257/122/18 256/163/18
f 263/106/3 258/158/3 256/96/3 261/101/3
f 262/106/17 263/159/17 261/160/17 260/101/17
f 261/168/15 256/169/15 257/96/15 260/101/15
f 262/164/16 259/165/16 258/166/16 263/167/16
f 267/106/4 270/158/4 268/96/4 265/101/4
f 266/161/15 267/162/15 265/122/15 264/163/15
f 271/106/3 266/158/3 264/96/3 269/101/3
f 270/106/16 271/159/16 269/160/16 268/101/16
f 269/168/17 264/169/17 265/96/17 268/101/17
f 270/164/18 267/165/18 266/166/18 271/167/18
f 274/170/4 277/171/4 275/172/4 111/173/4
f 273/174/7 274/175/7 111/176/7 272/177/7
f 278/170/3 273/171/3 272/172/3 276/173/3
f 277/174/8 278/175/8 276/176/8 275/177/8
f 276/178/14 272/179/14 111/180/14 275/181/14
f 277/178/13 274/179/13 273/180/13 278/181/13
f 282/182/4 285/183/4 283/96/4 280/101/4
f 281/182/15 282/184/15 280/185/15 279/101/15
f 286/182/3 281/183/3 279/96/3 284/101/3
f 285/183/16 286/186/16 284/187/16 283/96/16
f 284/188/17 279/189/17 280/190/17 283/102/17
f 285/191/18 282/192/18 281/96/18 286/101/18
f 290/105/4 293/193/4 291/194/4 288/101/4
f 289/105/7 290/195/7 288/196/7 287/101/7
f 294/105/3 289/193/3 287/194/3 292/101/3
f 293/105/8 294/195/8 292/196/8 291/101/8
f 292/197/14 287/198/14 288/194/14 291/101/14
f 293/197/13 290/198/13 289/194/13 294/101/13
f 298/106/4 301/199/4 299/200/4 296/101/4
f 297/109/7 298/201/7 296/202/7 295/97/7
f 302/161/3 297/203/3 295/204/3 300/163/3
f 301/109/8 302/201/8 300/202/8 299/97/8
f 300/205/14 295/206/14 296/207/14 299/208/14
f 301/209/13 298/210/13 297/211/13 302/97/13
f 303/196/7 296/202/7 298/212/7
f 304/155/8 305/196/8 306/212/8
f 296/213/14 303/154/14 305/195/14 304/212/14
f 298/213/3 296/155/3 304/196/3 306/212/3
f 306/212/19 305/196/19 303/202/19 298/201/19
f 308/196/7 307/202/7 309/212/7
f 310/155/8 311/196/8 312/212/8
f 307/213/14 308/154/14 311/195/14 310/212/14
f 309/213/3 307/155/3 310/196/3 312/212/3
f 312/212/19 311/196/19 308/202/19 309/201/19
f 314/196/7 313/202/7 315/212/7
f 316/155/8 293/196/8 317/212/8
f 313/213/14 314/154/14 293/195/14 316/212/14
f 315/213/3 313/155/3 316/196/3 317/212/3
f 317/212/19 293/196/19 314/202/19 315/201/19
f 316/127/4 299/214/4 321/215/4 319/182/4
f 320/216/7 316/123/7 319/126/7 318/217/7
f 300/218/3 320/123/3 318/126/3 322/219/3
f 299/216/8 300/123/8 322/126/8 321/217/8
f 322/205/14 318/206/14 319/207/14 321/208/14
f 299/205/13 316/206/13 320/207/13 300/208/13
f 323/202/7 324/196/7 325/212/7
f 327/196/8 326/155/8 328/212/8
f 327/195/14 324/154/14 323/213/14 326/212/14
f 326/196/4 323/155/4 325/213/4 328/212/4
f 324/202/20 327/196/20 328/212/20 325/201/20
f 329/202/7 330/196/7 331/212/7
f 333/196/8 332/155/8 334/212/8
f 333/195/14 330/154/14 329/213/14 332/212/14
f 332/196/4 329/155/4 331/213/4 334/212/4
f 330/202/20 333/196/20 334/212/20 331/201/20
f 335/202/7 336/196/7 337/212/7
f 339/196/8 338/155/8 340/212/8
f 339/195/14 336/154/14 335/213/14 338/212/14
f 338/196/4 335/155/4 337/213/4 340/212/4
f 336/202/20 339/196/20 340/212/20 337/201/20
f 344/182/4 347/183/4 345/96/4 342/101/4
f 343/182/15 344/184/15 342/185/15 341/101/15
f 348/182/3 343/183/3 341/96/3 346/101/3
f 347/183/16 348/186/16 346/187/16 345/96/16
f 346/188/17 341/189/17 342/190/17 345/102/17
f 347/191/18 344/192/18 343/96/18 348/101/18
f 352/127/4 355/216/4 353/97/4 350/101/4
f 351/127/7 352/220/7 350/120/7 349/101/7
f 356/216/3 351/220/3 349/120/3 354/97/3
f 355/127/8 356/220/8 354/120/8 353/101/8
f 354/109/14 349/110/14 350/120/14 353/97/14
f 355/109/13 352/110/13 351/120/13 356/97/13
f 360/221/4 363/222/4 361/223/4 358/224/4
f 359/225/7 360/226/7 358/227/7 357/228/7
f 364/229/3 359/230/3 357/231/3 362/232/3
f 363/225/8 364/226/8 362/227/8 361/228/8
f 362/233/14 357/234/14 358/235/14 361/236/14
f 363/233/13 360/234/13 359/235/13 364/236/13
f 368/237/4 371/238/4 369/239/4 366/240/4
f 367/237/7 368/241/7 366/242/7 365/240/7
f 372/243/3 367/244/3 365/245/3 370/246/3
f 371/237/8 372/241/8 370/242/8 369/240/8
f 370/247/14 365/248/14 366/249/14 369/250/14
f 371/247/13 368/248/13 367/249/13 372/250/13
f 364/251/17 363/252/17 366/250/17 365/247/17
f 360/251/18 359/252/18 367/250/18 368/247/18
f 359/238/3 364/239/3 365/246/3 367/243/3
f 368/238/4 366/239/4 363/246/4 360/243/4
f 375/241/8 373/242/8 374/240/8 376/237/8
f 370/251/21 369/252/21 374/253/21 373/254/21
f 371/251/22 372/252/22 375/253/22 376/254/22
f 372/238/3 370/239/3 373/255/3 375/256/3
f 376/257/4 374/258/4 369/246/4 371/243/4
f 380/106/4 298/199/4 296/200/4 378/101/4
f 379/109/7 380/201/7 378/202/7 377/97/7
f 297/161/3 379/203/3 377/204/3 295/163/3
f 295/205/14 377/206/14 378/207/14 296/208/14
f 298/209/13 380/210/13 379/211/13 297/97/13
f 382/196/7 381/202/7 383/212/7
f 384/155/8 385/196/8 386/212/8
f 381/213/14 382/154/14 385/195/14 384/212/14
f 383/213/3 381/155/3 384/196/3 386/212/3
f 386/212/19 385/196/19 382/202/19 383/201/19
f 388/196/7 387/202/7 389/212/7
f 390/155/8 391/196/8 392/212/8
f 387/213/14 388/154/14 391/195/14 390/212/14
f 389/213/3 387/155/3 390/196/3 392/212/3
f 392/212/19 391/196/19 388/202/19 389/201/19
f 396/241/7 394/242/7 393/240/7 395/237/7
f 399/241/8 397/242/8 398/240/8 400/237/8
f 393/248/23 394/249/23 398/250/23 397/247/23
f 396/248/24 395/249/24 399/250/24 400/247/24
f 395/244/3 393/245/3 397/246/3 399/243/3
f 400/238/4 398/239/4 394/240/4 396/237/4
f 404/110/25 402/120/25 401/97/25 403/109/25
f 407/109/26 405/97/26 406/101/26 408/106/26
f 401/112/14 402/97/14 406/101/14 405/105/14
f 404/109/13 403/112/13 407/105/13 408/106/13
f 403/109/3 401/97/3 405/101/3 407/106/3
f 408/110/4 406/120/4 402/97/4 404/109/4
f 412/110/27 410/120/27 409/97/27 411/109/27
f 413/109/28 401/97/28 402/101/28 414/106/28
f 412/109/13 411/112/13 413/105/13 414/106/13
f 411/109/3 409/97/3 401/101/3 413/106/3
f 414/110/4 402/120/4 410/97/4 412/109/4
f 409/112/14 410/97/14 402/101/14 401/105/14
f 418/110/27 416/120/27 415/101/27 417/106/27
f 419/110/28 421/120/28 422/101/28 420/106/28
f 418/109/13 417/97/13 419/101/13 420/106/13
f 417/109/3 415/97/3 421/101/3 419/106/3
f 420/110/4 422/120/4 416/97/4 418/109/4
f 415/109/14 416/97/14 422/101/14 421/106/14
f 424/110/25 422/120/25 421/101/25 423/106/25
f 427/110/26 425/120/26 426/101/26 428/106/26
f 421/109/14 422/97/14 426/101/14 425/106/14
f 424/109/13 423/97/13 427/101/13 428/106/13
f 423/109/3 421/97/3 425/101/3 427/106/3
f 428/110/4 426/120/4 422/97/4 424/109/4
f 544/356/4 547/357/4 545/358/4 542/138/4
f 543/356/7 544/357/7 542/358/7 541/138/7
f 548/356/3 543/357/3 541/358/3 546/138/3
f 547/356/8 548/357/8 546/358/8 545/138/8
f 546/138/14 541/358/14 542/359/14 545/141/14
f 547/138/13 544/358/13 543/359/13 548/141/13
f 552/356/4 555/357/4 553/358/4 550/138/4
f 551/356/7 552/357/7 550/358/7 549/138/7
f 556/356/3 551/357/3 549/358/3 554/138/3
f 555/356/8 556/357/8 554/358/8 553/138/8
f 554/138/14 549/358/14 550/359/14 553/141/14
f 555/138/13 552/358/13 551/359/13 556/141/13
f 592/363/4 595/364/4 593/365/4 590/366/4
f 591/142/7 592/143/7 590/144/7 589/145/7
f 596/363/3 591/364/3 589/365/3 594/366/3
f 595/138/8 596/358/8 594/359/8 593/141/8
f 594/363/14 589/364/14 590/365/14 593/366/14
f 595/363/13 592/364/13 591/365/13 596/366/13
f 750/453/4 753/454/4 751/455/4 748/456/4
f 749/457/7 750/458/7 748/459/7 747/460/7
f 754/454/3 749/461/3 747/462/3 752/455/3
f 753/457/8 754/458/8 752/459/8 751/460/8
f 752/463/14 747/464/14 748/465/14 751/466/14
f 753/463/13 750/464/13 749/465/13 754/466/13
f 758/467/4 761/468/4 759/469/4 756/470/4
f 757/471/7 758/472/7 756/473/7 755/474/7
f 762/475/3 757/476/3 755/477/3 760/478/3
f 761/479/8 762/480/8 760/481/8 759/482/8
f 760/483/14 755/484/14 756/485/14 759/486/14
f 761/487/13 758/488/13 757/489/13 762/490/13
f 766/491/4 769/492/4 767/459/4 764/493/4
f 765/494/7 766/495/7 764/496/7 763/497/7
f 770/498/3 765/499/3 763/500/3 768/501/3
f 769/471/8 770/472/8 768/473/8 767/474/8
f 768/502/14 763/503/14 764/504/14 767/505/14
f 769/506/13 766/507/13 765/508/13 770/509/13
f 774/510/4 777/511/4 775/96/4 772/97/4
f 773/510/7 774/511/7 772/96/7 771/97/7
f 778/117/3 773/512/3 771/100/3 776/101/3
f 777/510/8 778/511/8 776/96/8 775/97/8
f 776/102/14 771/103/14 772/104/14 775/105/14
f 777/102/13 774/103/13 773/104/13 778/105/13
f 782/453/4 785/454/4 783/455/4 780/456/4
f 781/457/7 782/458/7 780/459/7 779/460/7
f 786/454/3 781/461/3 779/462/3 784/455/3
f 785/457/8 786/458/8 784/459/8 783/460/8
f 784/463/14 779/464/14 780/465/14 783/466/14
f 785/463/13 782/464/13 781/465/13 786/466/13
f 790/467/4 793/468/4 791/469/4 788/470/4
f 789/471/7 790/472/7 788/473/7 787/474/7
f 794/475/3 789/476/3 787/477/3 792/478/3
f 793/479/8 794/480/8 792/481/8 791/482/8
f 792/483/14 787/484/14 788/485/14 791/486/14
f 793/487/13 790/488/13 789/489/13 794/490/13
f 798/491/4 801/492/4 799/459/4 796/493/4
f 797/494/7 798/495/7 796/496/7 795/497/7
f 802/498/3 797/499/3 795/500/3 800/501/3
f 801/471/8 802/472/8 800/473/8 799/474/8
f 800/502/14 795/503/14 796/504/14 799/505/14
f 801/506/13 798/507/13 797/508/13 802/509/13
f 772/513/4 775/514/4 805/96/4 804/97/4
f 771/513/7 772/514/7 804/96/7 803/97/7
f 776/156/3 771/515/3 803/100/3 806/101/3
f 775/513/8 776/514/8 806/96/8 805/97/8
f 806/102/14 803/103/14 804/104/14 805/105/14
f 810/516/4 813/243/4 811/224/4 808/517/4
f 809/516/7 810/518/7 808/519/7 807/517/7
f 814/516/3 809/243/3 807/224/3 812/517/3
f 813/516/8 814/518/8 812/519/8 811/517/8
f 812/520/14 807/521/14 808/224/14 811/517/14
f 813/520/13 810/521/13 809/224/13 814/517/13
f 89/510/4 92/511/4 777/96/4 774/97/4
f 88/510/7 89/511/7 774/96/7 773/97/7
f 93/117/3 88/512/3 773/100/3 778/101/3
f 92/510/8 93/511/8 778/96/8 777/97/8
f 818/522/4 821/523/4 819/524/4 816/525/4
f 817/526/7 818/527/7 816/256/7 815/528/7
f 822/529/3 817/464/3 815/530/3 820/531/3
f 821/532/8 822/533/8 820/534/8 819/535/8
f 820/536/14 815/537/14 816/538/14 819/539/14
f 821/540/13 818/541/13 817/542/13 822/543/13
f 826/544/4 829/536/4 827/545/4 824/526/4
f 825/546/7 826/547/7 824/548/7 823/549/7
f 830/545/3 825/550/3 823/257/3 828/241/3
f 829/551/8 830/544/8 828/526/8 827/552/8
f 828/553/14 823/554/14 824/555/14 827/556/14
f 829/557/13 826/558/13 825/559/13 830/560/13
f 833/466/4 836/561/4 834/562/4 832/563/4
f 600/564/7 833/561/7 832/562/7 831/565/7
f 611/466/3 600/561/3 831/562/3 835/563/3
f 836/466/8 611/566/8 835/567/8 834/563/8
f 835/568/14 831/569/14 832/562/14 834/563/14
f 836/466/13 833/561/13 600/570/13 611/571/13
f 603/572/4 608/573/4 840/574/4 838/575/4
f 839/481/7 603/561/7 838/562/7 837/576/7
f 842/466/3 839/561/3 837/562/3 841/563/3
f 608/466/8 842/465/8 841/577/8 840/563/8
f 841/578/14 837/392/14 838/562/14 840/563/14
f 608/466/13 603/561/13 839/579/13 842/580/13
f 754/544/49 755/469/49 756/519/49 753/581/49
f 759/582/50 760/583/50 752/534/50 751/584/50
f 760/585/3 755/586/3 754/587/3 752/588/3
f 753/519/51 756/581/52 759/528/51 751/518/53
f 747/589/54 763/590/54 764/482/54 748/591/54
f 767/592/55 768/584/55 749/554/55 750/593/55
f 768/496/3 763/594/3 747/455/3 749/542/3
f 748/595/56 764/596/57 767/534/57 750/583/57
f 779/589/54 795/590/54 796/482/54 780/591/54
f 799/592/55 800/584/55 781/554/55 782/593/55
f 800/496/3 795/594/3 779/455/3 781/542/3
f 780/595/58 796/596/57 799/534/57 782/583/57
f 845/597/13 843/598/13 844/550/13 846/542/13
f 843/587/59 812/599/59 811/600/59 844/537/59
f 813/601/25 814/469/25 845/521/25 846/593/25
f 814/586/3 812/602/3 843/544/3 845/603/3
f 844/600/60 811/537/61 813/587/60 846/599/60
f 808/598/62 807/550/62 847/542/62 848/597/62
f 849/585/28 809/604/28 810/530/28 850/605/28
f 848/496/13 847/589/13 849/526/13 850/460/13
f 847/586/3 807/602/3 809/544/3 849/603/3
f 810/602/63 808/544/64 848/603/65 850/586/66
f 786/544/49 787/469/49 788/519/49 785/581/49
f 791/582/50 792/583/50 784/534/50 783/584/50
f 792/585/3 787/586/3 786/587/3 784/588/3
f 785/519/51 788/581/52 791/528/51 783/518/53
f 851/593/1 855/606/1 856/607/1 852/608/1
f 854/609/2 858/608/2 857/593/2 853/610/2
f 853/611/3 857/612/3 855/613/3 851/614/3
f 852/615/4 856/616/4 858/617/4 854/618/4
f 855/593/5 859/606/5 860/607/5 856/608/5
f 858/609/6 862/608/6 861/593/6 857/610/6
f 857/619/3 861/620/3 859/621/3 855/622/3
f 856/615/4 860/616/4 862/623/4 858/624/4
f 859/593/7 863/606/7 864/607/7 860/608/7
f 862/609/8 866/608/8 865/593/8 861/610/8
f 861/625/3 865/626/3 863/627/3 859/628/3
f 860/627/4 864/628/4 866/625/4 862/626/4
f 863/593/9 867/606/9 868/607/9 864/608/9
f 866/609/10 870/608/10 869/593/10 865/610/10
f 865/617/3 869/629/3 867/630/3 863/631/3
f 864/632/4 868/633/4 870/634/4 866/635/4
f 867/593/11 871/606/11 872/607/11 868/608/11
f 870/609/12 874/608/12 873/593/12 869/610/12
f 869/636/3 873/637/3 871/638/3 867/639/3
f 868/632/4 872/633/4 874/640/4 870/620/4
f 871/593/13 875/606/13 876/607/13 872/608/13
f 874/609/14 878/608/14 877/593/14 873/610/14
f 873/641/3 877/642/3 875/643/3 871/644/3
f 872/607/4 876/608/4 878/645/4 874/646/4
f 875/593/2 879/606/2 880/607/2 876/608/2
f 878/609/1 882/608/1 881/593/1 877/610/1
f 877/647/3 881/648/3 879/608/3 875/649/3
f 876/650/4 880/608/4 882/651/4 878/652/4
f 879/593/6 883/606/6 884/607/6 880/608/6
f 882/609/5 886/608/5 885/593/5 881/610/5
f 881/653/3 885/654/3 883/655/3 879/656/3
f 880/650/4 884/608/4 886/657/4 882/658/4
f 883/593/8 887/606/8 888/607/8 884/608/8
f 886/609/7 890/608/7 889/593/7 885/610/7
f 885/659/3 889/660/3 887/608/3 883/661/3
f 884/608/4 888/661/4 890/659/4 886/660/4
f 887/593/10 891/606/10 892/607/10 888/608/10
f 890/609/9 894/608/9 893/593/9 889/610/9
f 889/662/3 893/663/3 891/650/3 887/664/3
f 888/608/4 892/656/4 894/665/4 890/666/4
f 891/593/12 895/606/12 896/607/12 892/608/12
f 894/609/11 898/608/11 897/593/11 893/610/11
f 893/667/3 897/668/3 895/669/3 891/608/3
f 892/608/4 896/656/4 898/670/4 894/671/4
f 895/593/14 851/606/14 852/607/14 896/608/14
f 898/609/13 854/608/13 853/593/13 897/610/13
f 897/645/3 853/646/3 851/607/3 895/608/3
f 896/643/4 852/644/4 854/641/4 898/642/4
f 899/1/11 903/672/11 904/673/11 900/4/11
f 902/674/12 906/4/12 905/1/12 901/675/12
f 901/676/4 905/677/4 903/678/4 899/679/4
f 900/680/3 904/681/3 906/682/3 902/683/3
f 903/1/9 907/672/9 908/673/9 904/4/9
f 906/674/10 910/4/10 909/1/10 905/675/10
f 905/684/4 909/685/4 907/686/4 903/687/4
f 904/680/3 908/681/3 910/688/3 906/689/3
f 907/1/7 911/672/7 912/673/7 908/4/7
f 910/674/8 914/4/8 913/1/8 909/675/8
f 909/690/4 913/691/4 911/692/4 907/693/4
f 908/692/3 912/693/3 914/690/3 910/691/3
f 911/1/5 915/672/5 916/673/5 912/4/5
f 914/674/6 918/4/6 917/1/6 913/675/6
f 913/694/4 917/695/4 915/696/4 911/697/4
f 912/698/3 916/699/3 918/700/3 914/701/3
f 915/1/1 919/672/1 920/673/1 916/4/1
f 918/674/2 922/4/2 921/1/2 917/675/2
f 917/702/4 921/703/4 919/704/4 915/705/4
f 916/698/3 920/699/3 922/706/3 918/707/3
f 919/1/14 923/672/14 924/673/14 920/4/14
f 922/674/13 926/4/13 925/1/13 921/675/13
f 921/708/4 925/709/4 923/710/4 919/711/4
f 920/673/3 924/4/3 926/712/3 922/713/3
f 923/1/12 927/672/12 928/673/12 924/4/12
f 926/674/11 930/4/11 929/1/11 925/675/11
f 925/714/4 929/715/4 927/4/4 923/716/4
f 924/717/3 928/4/3 930/718/3 926/719/3
f 927/1/10 931/672/10 932/673/10 928/4/10
f 930/674/9 934/4/9 933/1/9 929/675/9
f 929/720/4 933/721/4 931/722/4 927/723/4
f 928/717/3 932/4/3 934/724/3 930/725/3
f 931/1/8 935/672/8 936/673/8 932/4/8
f 934/674/7 938/4/7 937/1/7 933/675/7
f 933/726/4 937/727/4 935/4/4 931/728/4
f 932/4/3 936/728/3 938/726/3 934/727/3
f 935/1/6 939/672/6 940/673/6 936/4/6
f 938/674/5 942/4/5 941/1/5 937/675/5
f 937/729/4 941/730/4 939/717/4 935/731/4
f 936/4/3 940/723/3 942/732/3 938/733/3
f 939/1/2 943/672/2 944/673/2 940/4/2
f 942/674/1 946/4/1 945/1/1 941/675/1
f 941/734/4 945/735/4 943/736/4 939/4/4
f 940/4/3 944/723/3 946/737/3 942/738/3
f 943/1/13 899/672/13 900/673/13 944/4/13
f 946/674/14 902/4/14 901/1/14 945/675/14
f 945/712/4 901/713/4 899/673/4 943/4/4
f 944/710/3 900/711/3 902/708/3 946/709/3
usemtl m_409504fd-f58c-4195-329e-2b61b82ac830.005
f 51/68/4 52/69/4 49/70/4
f 52/69/4 53/71/4 49/70/4
f 53/71/4 54/72/4 49/70/4
f 54/72/4 55/73/4 49/70/4
f 55/73/4 56/74/4 49/70/4
f 56/74/4 57/75/4 49/70/4
f 57/75/4 58/76/4 49/70/4
f 58/76/4 59/77/4 49/70/4
f 59/77/4 60/78/4 49/70/4
f 60/78/4 61/79/4 49/70/4
f 61/79/4 50/80/4 49/70/4
f 50/80/4 51/68/4 49/70/4
f 64/68/4 65/69/4 62/70/4
f 65/69/4 66/71/4 62/70/4
f 66/71/4 67/72/4 62/70/4
f 67/72/4 68/73/4 62/70/4
f 68/73/4 69/74/4 62/70/4
f 69/74/4 70/75/4 62/70/4
f 70/75/4 71/76/4 62/70/4
f 71/76/4 72/77/4 62/70/4
f 72/77/4 73/78/4 62/70/4
f 73/78/4 74/79/4 62/70/4
f 74/79/4 63/80/4 62/70/4
f 63/80/4 64/68/4 62/70/4
f 77/81/3 78/82/3 75/83/3
f 78/82/3 79/84/3 75/83/3
f 79/84/3 80/85/3 75/83/3
f 80/85/3 81/86/3 75/83/3
f 81/86/3 82/87/3 75/83/3
f 82/87/3 83/88/3 75/83/3
f 83/88/3 84/89/3 75/83/3
f 84/89/3 85/90/3 75/83/3
f 85/90/3 86/91/3 75/83/3
f 86/91/3 87/92/3 75/83/3
f 87/92/3 76/93/3 75/83/3
f 76/93/3 77/81/3 75/83/3
usemtl m_b2af6bd8-ffc8-ff72-7f7b-7b18782af15d.005
f 432/259/4 435/260/4 433/261/4 430/262/4
f 431/197/7 432/263/7 430/264/7 429/127/7
f 436/259/3 431/260/3 429/261/3 434/262/3
f 435/197/8 436/263/8 434/264/8 433/127/8
f 434/265/14 429/266/14 430/267/14 433/100/14
f 435/265/13 432/266/13 431/267/13 436/100/13
f 440/268/4 443/269/4 441/220/4 438/127/4
f 439/270/7 440/271/7 438/264/7 437/272/7
f 444/273/3 439/271/3 437/264/3 442/274/3
f 443/268/8 444/270/8 442/272/8 441/127/8
f 442/275/14 437/276/14 438/277/14 441/278/14
f 443/279/13 440/280/13 439/276/13 444/275/13
f 448/268/4 451/269/4 449/220/4 446/127/4
f 447/270/7 448/271/7 446/264/7 445/272/7
f 452/273/3 447/271/3 445/264/3 450/274/3
f 451/268/8 452/270/8 450/272/8 449/127/8
f 450/275/14 445/276/14 446/277/14 449/278/14
f 451/279/13 448/280/13 447/276/13 452/275/13
f 454/197/4 456/281/4 455/282/4 453/127/4
f 432/197/7 454/259/7 453/262/7 430/127/7
f 456/260/8 435/263/8 433/264/8 455/261/8
f 433/283/14 430/280/14 453/284/14 455/285/14
f 456/286/13 454/264/13 432/277/13 435/196/13
f 458/268/4 461/287/4 459/288/4 457/127/4
f 443/269/7 458/289/7 457/262/7 441/220/7
f 462/290/3 443/271/3 441/264/3 460/291/3
f 461/292/8 462/273/8 460/274/8 459/261/8
f 460/293/14 441/294/14 457/284/14 459/295/14
f 461/291/13 458/264/13 443/296/13 462/297/13
f 464/268/4 467/287/4 465/288/4 463/127/4
f 451/269/7 464/289/7 463/262/7 449/220/7
f 468/290/3 451/271/3 449/264/3 466/291/3
f 467/292/8 468/273/8 466/274/8 465/261/8
f 466/293/14 449/294/14 463/284/14 465/295/14
f 467/291/13 464/264/13 451/296/13 468/297/13
f 472/268/4 475/298/4 473/299/4 470/127/4
f 471/268/7 472/269/7 470/220/7 469/127/7
f 476/300/3 471/271/3 469/264/3 474/301/3
f 475/273/8 476/271/8 474/264/8 473/274/8
f 474/302/14 469/280/14 470/294/14 473/303/14
f 475/304/13 472/296/13 471/277/13 476/305/13
f 480/268/4 483/298/4 481/299/4 478/127/4
f 479/268/7 480/269/7 478/220/7 477/127/7
f 484/300/3 479/271/3 477/264/3 482/301/3
f 483/273/8 484/271/8 482/264/8 481/274/8
f 482/302/14 477/280/14 478/294/14 481/303/14
f 483/304/13 480/296/13 479/277/13 484/305/13
f 486/306/4 455/307/4 487/308/4 465/309/4
f 485/310/7 486/265/7 465/262/7 466/220/7
f 489/311/3 485/312/3 466/313/3 488/314/3
f 455/266/8 489/279/8 488/274/8 487/261/8
f 488/315/14 466/316/14 465/317/14 487/318/14
f 455/314/13 486/313/13 485/319/13 489/320/13
f 453/321/4 492/306/4 463/309/4 490/322/4
f 491/310/7 453/265/7 490/262/7 446/220/7
f 493/312/3 491/323/3 446/324/3 449/313/3
f 492/266/8 493/279/8 449/274/8 463/261/8
f 449/316/14 446/325/14 490/326/14 463/317/14
f 492/313/13 453/324/13 491/327/13 493/319/13
f 496/321/4 498/306/4 450/309/4 445/322/4
f 495/205/7 496/310/7 445/220/7 494/127/7
f 499/312/3 495/323/3 494/324/3 497/313/3
f 498/279/8 499/280/8 497/264/8 450/274/8
f 497/312/14 494/323/14 445/325/14 450/316/14
f 498/319/13 496/327/13 495/328/13 499/329/13
f 503/306/4 506/307/4 504/308/4 501/309/4
f 502/205/7 503/310/7 501/220/7 500/127/7
f 434/311/3 502/312/3 500/313/3 505/314/3
f 506/279/8 434/280/8 505/264/8 504/274/8
f 505/311/14 500/312/14 501/316/14 504/315/14
f 506/320/13 503/319/13 502/329/13 434/194/13
f 509/321/4 510/306/4 478/309/4 508/322/4
f 429/205/7 509/310/7 508/220/7 507/127/7
f 511/312/3 429/323/3 507/324/3 477/313/3
f 510/279/8 511/280/8 477/264/8 478/274/8
f 477/312/14 507/323/14 508/325/14 478/316/14
f 510/319/13 509/327/13 429/328/13 511/329/13
f 513/306/4 516/307/4 514/308/4 481/309/4
f 512/205/7 513/310/7 481/220/7 482/127/7
f 517/311/3 512/312/3 482/313/3 515/314/3
f 516/279/8 517/280/8 515/264/8 514/274/8
f 515/311/14 482/312/14 481/316/14 514/315/14
f 516/320/13 513/319/13 512/329/13 517/194/13
f 468/330/4 519/331/4 488/308/4 466/309/4
f 518/268/7 468/271/7 466/264/7 501/127/7
f 520/332/3 518/333/3 501/313/3 504/314/3
f 519/268/8 520/271/8 504/264/8 488/127/8
f 504/311/14 501/312/14 466/329/14 488/194/14
f 519/311/13 468/312/13 518/329/13 520/194/13
f 462/330/4 525/331/4 523/308/4 460/309/4
f 522/268/7 462/271/7 460/264/7 521/127/7
f 526/332/3 522/333/3 521/313/3 524/314/3
f 525/268/8 526/271/8 524/264/8 523/127/8
f 524/311/14 521/312/14 460/329/14 523/194/14
f 525/311/13 462/312/13 522/329/13 526/194/13
f 530/334/4 533/335/4 531/336/4 528/337/4
f 529/197/7 530/338/7 528/272/7 527/127/7
f 534/339/3 529/340/3 527/341/3 532/220/3
f 533/338/8 534/263/8 532/264/8 531/272/8
f 532/310/14 527/342/14 528/343/14 531/344/14
f 533/344/13 530/343/13 529/204/13 534/120/13
f 536/345/4 539/346/4 537/347/4 530/337/4
f 535/348/7 536/349/7 530/272/7 529/127/7
f 540/350/3 535/351/3 529/341/3 538/352/3
f 539/349/8 540/353/8 538/264/8 537/272/8
f 538/354/14 529/342/14 530/343/14 537/355/14
f 539/355/13 536/343/13 535/204/13 540/153/13
f 560/266/29 563/280/29 561/353/29 558/360/29
f 559/266/7 560/280/7 558/353/7 557/360/7
f 564/266/30 559/280/30 557/353/30 562/360/30
f 563/266/8 564/280/8 562/353/8 561/360/8
f 562/266/31 557/280/31 558/284/31 561/361/31
f 563/266/32 560/280/32 559/284/32 564/361/32
f 568/362/33 566/100/33 565/101/33 567/348/33
f 571/362/34 569/100/34 570/101/34 572/348/34
f 565/280/35 566/284/35 570/361/35 569/266/35
f 568/280/36 567/284/36 571/361/36 572/266/36
f 567/362/37 565/100/37 569/101/37 571/348/37
f 572/362/38 570/100/38 566/101/38 568/348/38
f 576/362/39 574/100/39 573/101/39 575/348/39
f 579/362/40 577/100/40 578/101/40 580/348/40
f 573/280/35 574/284/35 578/361/35 577/266/35
f 576/280/36 575/284/36 579/361/36 580/266/36
f 575/362/37 573/100/37 577/101/37 579/348/37
f 580/362/38 578/100/38 574/101/38 576/348/38
f 584/266/29 587/280/29 585/353/29 582/360/29
f 583/266/7 584/280/7 582/353/7 581/360/7
f 588/266/30 583/280/30 581/353/30 586/360/30
f 587/266/8 588/280/8 586/353/8 585/360/8
f 586/266/31 581/280/31 582/284/31 585/361/31
f 587/266/32 584/280/32 583/284/32 588/361/32
f 600/367/4 603/368/4 601/369/4 598/370/4
f 599/371/7 600/372/7 598/373/7 597/374/7
f 604/368/3 599/372/3 597/373/3 602/369/3
f 603/367/8 604/375/8 602/376/8 601/370/8
f 602/289/14 597/377/14 598/196/14 601/100/14
f 603/259/13 600/378/13 599/212/13 604/113/13
f 608/379/4 611/380/4 609/100/4 606/101/4
f 607/381/7 608/382/7 606/196/7 605/120/7
f 612/380/3 607/382/3 605/196/3 610/100/3
f 611/379/8 612/383/8 610/384/8 609/101/8
f 610/289/14 605/377/14 606/196/14 609/100/14
f 611/259/13 608/378/13 607/212/13 612/113/13
f 616/127/4 619/262/4 617/100/4 614/101/4
f 615/127/7 616/264/7 614/277/7 613/101/7
f 620/262/3 615/286/3 613/196/3 618/100/3
f 619/127/8 620/264/8 618/277/8 617/101/8
f 618/205/14 613/265/14 614/100/14 617/101/14
f 619/205/13 616/265/13 615/100/13 620/101/13
f 624/385/4 627/386/4 625/387/4 622/388/4
f 623/389/7 624/390/7 622/391/7 621/392/7
f 628/393/3 623/394/3 621/395/3 626/351/3
f 627/396/8 628/387/8 626/397/8 625/398/8
f 626/399/14 621/400/14 622/401/14 625/402/14
f 627/403/13 624/404/13 623/270/13 628/268/13
f 632/127/4 620/262/4 618/113/4 630/106/4
f 631/405/7 632/261/7 630/406/7 629/407/7
f 634/262/3 631/286/3 629/212/3 633/113/3
f 620/262/8 634/352/8 633/408/8 618/113/8
f 633/409/14 629/410/14 630/286/14 618/262/14
f 620/411/13 632/285/13 631/412/13 634/413/13
f 638/127/4 641/220/4 639/110/4 636/106/4
f 637/127/7 638/414/7 636/415/7 635/106/7
f 642/416/3 637/286/3 635/212/3 640/417/3
f 641/418/8 642/264/8 640/296/8 639/419/8
f 640/420/14 635/283/14 636/421/14 639/422/14
f 641/423/13 638/424/13 637/196/13 642/384/13
f 637/127/4 647/262/4 645/113/4 635/106/4
f 644/405/7 637/261/7 635/406/7 643/407/7
f 648/262/3 644/286/3 643/212/3 646/113/3
f 647/262/8 648/352/8 646/408/8 645/113/8
f 646/409/14 643/410/14 635/286/14 645/262/14
f 647/411/13 637/285/13 644/412/13 648/413/13
f 650/127/4 651/308/4 611/425/4 600/101/4
f 649/220/7 650/286/7 600/196/7 599/120/7
f 652/127/3 649/308/3 599/425/3 612/101/3
f 651/127/8 652/416/8 612/384/8 611/101/8
f 612/268/14 599/331/14 600/425/14 611/101/14
f 651/197/13 650/426/13 649/427/13 652/106/13
f 656/314/4 659/272/4 657/428/4 654/320/4
f 655/220/7 656/286/7 654/212/7 653/110/7
f 660/314/3 655/272/3 653/428/3 658/320/3
f 659/127/8 660/416/8 658/417/8 657/106/8
f 658/332/14 653/270/14 654/429/14 657/194/14
f 659/198/13 656/338/13 655/428/13 660/320/13
f 664/324/4 667/418/4 665/419/4 662/327/4
f 663/220/7 664/352/7 662/408/7 661/110/7
f 668/324/3 663/418/3 661/419/3 666/327/3
f 667/220/8 668/352/8 666/408/8 665/110/8
f 666/430/14 661/174/14 662/419/14 665/327/14
f 667/430/13 664/174/13 663/419/13 668/327/13
f 672/314/4 675/272/4 673/428/4 670/320/4
f 671/220/18 672/286/18 670/212/18 669/110/18
f 676/314/3 671/272/3 669/428/3 674/320/3
f 675/127/17 676/416/17 674/417/17 673/106/17
f 674/332/15 669/270/15 670/429/15 673/194/15
f 675/198/16 672/338/16 671/428/16 676/320/16
f 680/314/4 683/431/4 681/432/4 678/320/4
f 679/220/15 680/286/15 678/212/15 677/110/15
f 684/314/3 679/431/3 677/432/3 682/320/3
f 683/127/16 684/416/16 682/417/16 681/106/16
f 682/332/17 677/433/17 678/434/17 681/194/17
f 683/198/18 680/435/18 679/432/18 684/320/18
f 688/436/4 691/437/4 689/438/4 686/185/4
f 687/197/7 688/378/7 686/196/7 685/101/7
f 692/197/3 687/439/3 685/440/3 690/101/3
f 691/197/8 692/378/8 690/196/8 689/101/8
f 690/197/14 685/439/14 686/440/14 689/101/14
f 691/197/13 688/439/13 687/440/13 692/101/13
f 696/106/4 699/113/4 697/100/4 694/101/4
f 695/106/7 696/297/7 694/441/7 693/101/7
f 700/113/3 695/212/3 693/196/3 698/100/3
f 699/106/8 700/297/8 698/441/8 697/101/8
f 698/362/14 693/442/14 694/196/14 697/100/14
f 699/362/13 696/442/13 695/196/13 700/100/13
f 704/106/4 707/113/4 705/100/4 702/101/4
f 703/106/7 704/297/7 702/441/7 701/101/7
f 708/113/3 703/212/3 701/196/3 706/100/3
f 707/106/8 708/297/8 706/441/8 705/101/8
f 706/362/14 701/442/14 702/196/14 705/100/14
f 707/362/13 704/442/13 703/196/13 708/100/13
f 712/443/4 715/444/4 713/113/4 710/106/4
f 711/445/7 712/446/7 710/212/7 709/417/7
f 716/444/3 711/446/3 709/212/3 714/113/3
f 715/443/8 716/447/8 714/110/8 713/106/8
f 714/113/14 709/212/14 710/196/14 713/100/14
f 715/259/13 712/378/13 711/377/13 716/289/13
f 712/286/7 711/416/7 717/129/7
f 716/220/8 715/127/8 718/269/8
f 717/377/41 711/286/41 716/262/41 718/289/41
f 718/289/4 715/262/4 712/127/4 717/268/4
f 721/106/4 724/113/4 722/100/4 720/101/4
f 710/106/7 721/297/7 720/441/7 719/101/7
f 713/113/3 710/212/3 719/196/3 723/100/3
f 724/106/8 713/297/8 723/441/8 722/101/8
f 723/362/14 719/442/14 720/196/14 722/100/14
f 724/362/13 721/442/13 710/196/13 713/100/13
f 719/153/8 710/297/8 709/408/8
f 723/120/7 714/110/7 713/106/7
f 709/212/42 719/196/42 723/100/42 714/113/42
f 693/153/8 695/297/8 725/408/8
f 698/120/7 726/110/7 700/106/7
f 695/442/13 725/410/13 726/409/13 700/362/13
f 725/212/42 693/196/42 698/100/42 726/113/42
f 728/106/4 730/113/4 729/100/4 727/101/4
f 717/106/7 728/297/7 727/441/7 712/101/7
f 730/106/8 718/297/8 715/441/8 729/101/8
f 715/362/14 712/442/14 727/196/14 729/100/14
f 730/362/13 728/442/13 717/196/13 718/100/13
f 701/443/4 706/444/4 700/113/4 695/106/4
f 731/445/7 701/446/7 695/212/7 725/417/7
f 732/444/3 731/446/3 725/212/3 726/113/3
f 706/443/8 732/447/8 726/110/8 700/106/8
f 706/259/13 701/378/13 731/377/13 732/289/13
f 701/286/7 731/416/7 703/129/7
f 732/220/8 706/127/8 708/269/8
f 703/377/41 731/286/41 732/262/41 708/289/41
f 736/272/43 734/429/43 733/120/43 735/220/43
f 739/347/44 737/448/44 738/101/44 740/127/44
f 733/449/45 734/196/45 738/100/45 737/450/45
f 736/451/46 735/212/46 739/113/46 740/452/46
f 735/286/3 733/196/3 737/100/3 739/262/3
f 740/262/4 738/100/4 734/101/4 736/127/4
f 740/272/47 738/429/47 741/120/47 742/220/47
f 745/347/48 743/448/48 744/101/48 746/127/48
f 741/449/45 738/196/45 744/100/45 743/450/45
f 740/451/46 742/212/46 745/113/46 746/452/46
f 742/286/3 741/196/3 743/100/3 745/262/3
f 746/262/4 744/100/4 738/101/4 740/127/4
