# Blender 5.2.0 LTS
# www.blender.org
mtllib ks_zs3v_metal.mtl
o cube.005
v 0.328125 4.625000 -0.813125
v 0.328125 4.625000 -0.874375
v 0.000000 3.984375 -0.813125
v 0.000000 3.984375 -0.874375
v -0.328125 4.625000 -0.813125
v -0.328125 4.625000 -0.874375
v 0.059375 4.188172 -0.174553
v 0.059375 4.302129 -0.820833
v 0.059375 4.049684 -0.198973
v 0.059375 4.163640 -0.845253
v -0.059375 4.302129 -0.820833
v -0.059375 4.188172 -0.174553
v -0.059375 4.163640 -0.845253
v -0.059375 4.049684 -0.198973
v 0.062500 4.312500 -0.225000
v 0.062500 4.312500 -0.850000
v 0.062500 4.187500 -0.225000
v 0.062500 4.187500 -0.850000
v -0.062500 4.312500 -0.850000
v -0.062500 4.312500 -0.225000
v -0.062500 4.187500 -0.850000
v -0.062500 4.187500 -0.225000
v 0.353125 4.687500 -0.813125
v 0.353125 4.687500 -0.875625
v 0.353125 4.625000 -0.813125
v 0.353125 4.625000 -0.875625
v -0.353125 4.687500 -0.875625
v -0.353125 4.687500 -0.813125
v -0.353125 4.625000 -0.875625
v -0.353125 4.625000 -0.813125
v 0.000000 4.037500 -0.875000
v 0.000000 4.037500 -0.812500
v 0.000000 3.921875 -0.874375
v 0.000000 3.921875 -0.811875
v 0.352123 4.687500 -0.875000
v 0.352123 4.687500 -0.812500
v 0.431250 4.687500 -0.875000
v 0.431250 4.687500 -0.812500
v -0.352123 4.687500 -0.812500
v -0.352123 4.687500 -0.875000
v -0.431250 4.687500 -0.812500
v -0.431250 4.687500 -0.875000
vn 0.8900 -0.4559 -0.0000
vn -0.8900 -0.4559 -0.0000
vn -0.0000 1.0000 -0.0000
vn -0.0000 -0.0000 1.0000
vn -0.0000 -0.0000 -1.0000
vn -0.0000 0.1736 -0.9848
vn 1.0000 -0.0000 -0.0000
vn -0.0000 -0.1736 0.9848
vn -1.0000 -0.0000 -0.0000
vn -0.0000 0.9848 0.1736
vn -0.0000 -0.9848 -0.1736
vn -0.0000 -1.0000 -0.0000
vn -0.8793 0.4763 -0.0000
vn 0.8713 -0.4908 -0.0000
vn 0.0100 -0.0054 -0.9999
vn 0.8793 0.4763 -0.0000
vn -0.8713 -0.4908 -0.0000
vn 0.0100 0.0054 0.9999
vt 0.316406 0.488281
vt 0.316406 0.632812
vt 0.300781 0.632812
vt 0.300781 0.488281
vt 0.468750 0.445312
vt 0.468750 0.460938
vt 0.289062 0.460938
vt 0.289062 0.445312
vt 0.468750 0.710938
vt 0.289062 0.710938
vt 0.375000 0.562500
vt 0.466406 0.710938
vt 0.593750 0.671875
vt 0.623438 0.671875
vt 0.623438 0.703125
vt 0.593750 0.703125
vt 0.562500 0.531250
vt 0.703125 0.531250
vt 0.703125 0.562500
vt 0.562500 0.562500
vt 0.592188 0.562500
vt 0.592188 0.703125
vt 0.562500 0.703125
vt 0.000000 0.875000
vt 0.125000 0.875000
vt 0.125000 1.000000
vt 0.000000 1.000000
vt 0.625000 0.875000
vt 0.625000 1.000000
vt 0.000000 0.375000
vt 0.125000 0.375000
vt 0.875000 0.437500
vt 1.000000 0.437500
vt 1.000000 0.453125
vt 0.875000 0.453125
vt 0.906250 0.453125
vt 0.921875 0.453125
vt 0.921875 0.468750
vt 0.906250 0.468750
vt 0.578125 0.421875
vt 0.703125 0.421875
vt 0.703125 0.437500
vt 0.578125 0.437500
vt 0.937500 0.468750
vt 0.937500 0.484375
vt 0.921875 0.484375
vt 0.578125 0.468750
vt 0.703125 0.468750
vt 0.703125 0.484375
vt 0.578125 0.484375
vt 0.578125 0.453125
vt 0.703125 0.453125
vt 0.953125 0.437500
vt 0.953125 0.453125
vt 0.921875 0.437500
vt 0.687500 0.453125
vt 0.687500 0.468750
vt 0.656250 0.468750
vt 0.656250 0.453125
vt 0.593750 0.468750
vt 0.593750 0.453125
vt 0.867188 0.468750
vt 0.867188 0.453125
vt 0.984375 0.453125
vt 0.984375 0.468750
vt 0.687500 0.437500
vt 0.585938 0.453125
vt 0.585938 0.437500
vt 0.671875 0.468750
vt 0.671875 0.453125
vt 0.718750 0.437500
vt 0.718750 0.468750
vt 0.609375 0.468750
vt 0.609375 0.437500
vt 0.671875 0.437500
vt 0.984375 0.437500
vt 0.929688 0.453125
vt 0.929688 0.437500
s 1
usemtl m_3d215661-f591-00a8-53e2-d8d611c756be.017
f 4/1/1 2/2/1 1/3/1 3/4/1
f 3/1/2 5/2/2 6/3/2 4/4/2
f 1/5/3 2/6/3 6/7/3 5/8/3
f 1/9/4 5/10/4 3/11/4
f 6/12/5 2/10/5 4/11/5
f 10/13/6 13/14/6 11/15/6 8/16/6
f 9/17/7 10/18/7 8/19/7 7/20/7
f 14/13/8 9/14/8 7/15/8 12/16/8
f 13/17/9 14/18/9 12/19/9 11/20/9
f 12/20/10 7/21/10 8/22/10 11/23/10
f 13/20/11 10/21/11 9/22/11 14/23/11
f 26/32/5 29/33/5 27/34/5 24/35/5
f 25/36/7 26/37/7 24/38/7 23/39/7
f 30/40/4 25/41/4 23/42/4 28/43/4
f 29/38/9 30/44/9 28/45/9 27/46/9
f 28/47/3 23/48/3 24/49/3 27/50/3
f 29/51/12 26/52/12 25/48/12 30/47/12
f 34/53/9 32/54/9 31/37/9 33/55/9
f 37/56/3 35/57/3 36/58/3 38/59/3
f 31/52/13 32/48/13 36/60/13 35/61/13
f 34/48/14 33/49/14 37/50/14 38/47/14
f 33/62/15 31/63/15 35/64/15 37/65/15
f 38/66/4 36/56/4 32/67/4 34/68/4
f 41/52/3 39/48/3 40/69/3 42/70/3
f 32/71/16 31/72/16 40/73/16 39/74/16
f 33/52/17 34/48/17 41/60/17 42/61/17
f 34/75/18 32/70/18 39/51/18 41/43/18
f 42/76/5 40/64/5 31/77/5 33/78/5
usemtl m_b2af6bd8-ffc8-ff72-7f7b-7b18782af15d.017
f 18/24/5 21/25/5 19/26/5 16/27/5
f 17/24/7 18/28/7 16/29/7 15/27/7
f 22/24/4 17/25/4 15/26/4 20/27/4
f 21/24/9 22/28/9 20/29/9 19/27/9
f 20/30/3 15/31/3 16/26/3 19/27/3
f 21/30/12 18/31/12 17/26/12 22/27/12
