# Blender 5.2.0 LTS
# www.blender.org
mtllib ks_zs3_metal.mtl
o cube.005
v 0.000000 7.025080 -0.406251
v 0.000000 7.025080 -0.468751
v 0.000000 7.140705 -0.406876
v 0.000000 7.140705 -0.469376
v 0.352123 6.375080 -0.406250
v 0.352123 6.375080 -0.468750
v 0.431250 6.375080 -0.406250
v 0.431250 6.375080 -0.468750
v -0.352123 6.375080 -0.468750
v -0.352123 6.375080 -0.406250
v -0.431250 6.375080 -0.468750
v -0.431250 6.375080 -0.406250
v 0.328125 6.437500 -0.468125
v 0.328125 6.437500 -0.406875
v 0.000000 7.078125 -0.468126
v 0.000000 7.078125 -0.406876
v -0.328125 6.437500 -0.468125
v -0.328125 6.437500 -0.406875
v -0.183162 6.506807 -0.343750
v -0.183162 6.506807 -0.437500
v -0.315231 6.223586 -0.343750
v -0.315231 6.223586 -0.437500
v -0.239807 6.533221 -0.437501
v -0.239807 6.533221 -0.343751
v -0.371875 6.250000 -0.437500
v -0.371875 6.250000 -0.343750
v 0.239807 6.533221 -0.343751
v 0.239807 6.533221 -0.437501
v 0.371875 6.250000 -0.343750
v 0.371875 6.250000 -0.437500
v 0.183163 6.506807 -0.437500
v 0.183163 6.506807 -0.343750
v 0.315231 6.223586 -0.437500
v 0.315231 6.223586 -0.343750
v 0.375000 6.250000 -0.343750
v 0.375000 6.250000 -0.437500
v 0.375000 6.000000 -0.343750
v 0.375000 6.000000 -0.437500
v 0.312500 6.250000 -0.437500
v 0.312500 6.250000 -0.343750
v 0.312500 6.000000 -0.437500
v 0.312500 6.000000 -0.343750
v -0.312500 6.250000 -0.343750
v -0.312500 6.250000 -0.437500
v -0.312500 6.000000 -0.343750
v -0.312500 6.000000 -0.437500
v -0.375000 6.250000 -0.437500
v -0.375000 6.250000 -0.343750
v -0.375000 6.000000 -0.437500
v -0.375000 6.000000 -0.343750
v 0.353125 6.437500 -0.406875
v 0.353125 6.437500 -0.469375
v 0.353125 6.375000 -0.406875
v 0.353125 6.375000 -0.469375
v -0.353125 6.437500 -0.469375
v -0.353125 6.437500 -0.406875
v -0.353125 6.375000 -0.469375
v -0.353125 6.375000 -0.406875
vn -1.0000 -0.0000 -0.0000
vn -0.0000 -1.0000 -0.0000
vn -0.8793 -0.4763 -0.0000
vn 0.8713 0.4908 -0.0000
vn 0.0100 0.0054 0.9999
vn -0.0000 -0.0000 -1.0000
vn 0.8793 -0.4763 -0.0000
vn -0.8713 0.4908 -0.0000
vn 0.0100 -0.0054 -0.9999
vn -0.0000 -0.0000 1.0000
vn 0.8900 0.4559 -0.0000
vn -0.8900 0.4559 -0.0000
vn 0.9063 -0.4226 -0.0000
vn -0.9063 0.4226 -0.0000
vn 0.4226 0.9063 -0.0000
vn -0.4226 -0.9063 -0.0000
vn 0.9063 0.4226 -0.0000
vn -0.9063 -0.4226 -0.0000
vn -0.4226 0.9063 -0.0000
vn 0.4226 -0.9063 -0.0000
vn 1.0000 -0.0000 -0.0000
vn -0.0000 1.0000 -0.0000
vt 0.671875 0.437500
vt 0.671875 0.453125
vt 0.640625 0.453125
vt 0.640625 0.437500
vt 0.687500 0.453125
vt 0.687500 0.468750
vt 0.656250 0.468750
vt 0.656250 0.453125
vt 0.703125 0.453125
vt 0.703125 0.468750
vt 0.593750 0.468750
vt 0.593750 0.453125
vt 0.703125 0.484375
vt 0.578125 0.484375
vt 0.578125 0.468750
vt 0.585938 0.468750
vt 0.585938 0.453125
vt 0.859375 0.437500
vt 0.859375 0.453125
vt 0.757812 0.453125
vt 0.757812 0.437500
vt 0.671875 0.468750
vt 0.703125 0.406250
vt 0.703125 0.437500
vt 0.593750 0.437500
vt 0.593750 0.406250
vt 0.843750 0.437500
vt 0.843750 0.453125
vt 0.750000 0.453125
vt 0.750000 0.437500
vt 0.687500 0.437500
vt 0.632812 0.453125
vt 0.632812 0.437500
vt 0.316406 0.488281
vt 0.316406 0.632812
vt 0.300781 0.632812
vt 0.300781 0.488281
vt 0.468750 0.445312
vt 0.468750 0.460938
vt 0.289062 0.460938
vt 0.289062 0.445312
vt 0.468750 0.710938
vt 0.289062 0.710938
vt 0.375000 0.562500
vt 0.466406 0.710938
vt 0.562500 0.625000
vt 0.625000 0.625000
vt 0.625000 0.937500
vt 0.562500 0.937500
vt 0.468750 0.625000
vt 0.531250 0.625000
vt 0.531250 0.937500
vt 0.468750 0.937500
vt 0.343750 0.625000
vt 0.406250 0.625000
vt 0.406250 0.937500
vt 0.343750 0.937500
vt 0.093750 0.906250
vt 0.156250 0.906250
vt 0.156250 0.968750
vt 0.093750 0.968750
vt 0.000000 0.750000
vt 0.062500 0.750000
vt 0.062500 1.000000
vt 0.000000 1.000000
vt 0.031250 0.750000
vt 0.125000 0.750000
vt 0.125000 1.000000
vt 0.031250 1.000000
vt 0.093750 0.750000
vt 0.093750 1.000000
vt 0.062500 0.906250
vt 0.125000 0.906250
vt 0.062500 0.875000
vt 0.125000 0.875000
vt 0.125000 0.968750
vt 0.062500 0.968750
vt 0.734375 0.437500
vt 0.734375 0.453125
vt 0.578125 0.421875
vt 0.703125 0.421875
vt 0.578125 0.437500
vt 0.656250 0.437500
vt 0.578125 0.453125
s 1
usemtl m_3d215661-f591-00a8-53e2-d8d611c756be.016
f 4/1/1 2/2/1 1/3/1 3/4/1
f 7/5/2 5/6/2 6/7/2 8/8/2
f 1/9/3 2/10/3 6/11/3 5/12/3
f 4/10/4 3/13/4 7/14/4 8/15/4
f 3/16/5 1/17/5 5/9/5 7/10/5
f 8/18/6 6/19/6 2/20/6 4/21/6
f 11/9/2 9/10/2 10/22/2 12/2/2
f 2/23/7 1/24/7 10/25/7 9/26/7
f 3/9/8 4/10/8 11/11/8 12/12/8
f 4/27/9 2/28/9 9/29/9 11/30/9
f 12/31/10 10/5/10 1/32/10 3/33/10
f 16/34/11 14/35/11 13/36/11 15/37/11
f 15/34/12 17/35/12 18/36/12 16/37/12
f 13/38/2 14/39/2 18/40/2 17/41/2
f 13/42/6 17/43/6 15/44/6
f 18/45/10 14/43/10 16/44/10
f 54/78/6 57/18/6 55/19/6 52/79/6
f 53/5/21 54/9/21 52/10/21 51/6/21
f 58/80/10 53/81/10 51/24/10 56/82/10
f 57/83/1 58/1/1 56/2/1 55/8/1
f 56/15/22 51/10/22 52/13/22 55/14/22
f 57/84/2 54/9/2 53/10/2 58/15/2
usemtl m_b2af6bd8-ffc8-ff72-7f7b-7b18782af15d.016
f 22/46/6 25/47/6 23/48/6 20/49/6
f 21/50/13 22/51/13 20/52/13 19/53/13
f 26/54/10 21/55/10 19/56/10 24/57/10
f 25/55/14 26/50/14 24/53/14 23/56/14
f 24/58/15 19/59/15 20/60/15 23/61/15
f 25/58/16 22/59/16 21/60/16 26/61/16
f 30/46/6 33/47/6 31/48/6 28/49/6
f 29/50/17 30/51/17 28/52/17 27/53/17
f 34/54/10 29/55/10 27/56/10 32/57/10
f 33/55/18 34/50/18 32/53/18 31/56/18
f 32/58/19 27/59/19 28/60/19 31/61/19
f 33/58/20 30/59/20 29/60/20 34/61/20
f 38/62/6 41/63/6 39/64/6 36/65/6
f 37/66/21 38/67/21 36/68/21 35/69/21
f 42/63/10 37/67/10 35/68/10 40/64/10
f 41/62/1 42/70/1 40/71/1 39/65/1
f 40/72/22 35/73/22 36/68/22 39/64/22
f 41/74/2 38/75/2 37/76/2 42/77/2
f 46/62/6 49/63/6 47/64/6 44/65/6
f 45/66/21 46/67/21 44/68/21 43/69/21
f 50/63/10 45/67/10 43/68/10 48/64/10
f 49/62/1 50/70/1 48/71/1 47/65/1
f 48/72/22 43/73/22 44/68/22 47/64/22
f 49/74/2 46/75/2 45/76/2 50/77/2
