# Made in Blockbench 5.1.6
mtllib arm.mtl

o cylinder
v 0 -0.24999999999999933 -4.874999999999998
v 0.0388325 -0.15625 -0.6249999999999998
v 0.0388325 -0.15624999999999933 -4.874999999999998
v 0.09375 -0.21116749999999906 -4.874999999999998
v 0.09375 -0.28883249999999916 -4.874999999999998
v 0.0388325 -0.34375 -0.6249999999999998
v 0.0388325 -0.3437499999999991 -4.874999999999998
v -0.0388325 -0.34375 -0.6249999999999998
v -0.0388325 -0.3437499999999991 -4.874999999999998
v -0.09375 -0.28883249999999916 -4.874999999999998
v -0.09375 -0.21116749999999906 -4.874999999999998
v -0.0388325 -0.15625 -0.6249999999999998
v -0.0388325 -0.15624999999999933 -4.874999999999998
v -0.25 0 1.942890293094024e-16
v 0.25 0 1.942890293094024e-16
v -0.25 -0.02588812500000026 0.06250000000000008
v 0.25 -0.02588812500000026 0.06250000000000008
v -0.25 -0.0625 0.025888125000000123
v 0.25 -0.0625 0.025888125000000123
v -0.25 -0.0625 -0.025888124999999956
v 0.25 -0.0625 -0.025888124999999956
v -0.25 -0.02588812500000004 -0.062499999999999806
v 0.25 -0.02588812500000004 -0.062499999999999806
v -0.25 0.02588812500000026 -0.06249999999999992
v 0.25 0.02588812500000026 -0.06249999999999992
v -0.25 0.0625 -0.025888124999999956
v 0.25 0.0625 -0.025888124999999956
v -0.25 0.0625 0.025888125000000012
v 0.25 0.0625 0.025888125000000012
v -0.25 0.02588812500000026 0.0625000000000002
v 0.25 0.02588812500000026 0.0625000000000002
v 0.25 0 1.942890293094024e-16
v 0.3125 0 1.942890293094024e-16
v 0.25 -0.04143437499999969 0.09375000000000008
v 0.3125 -0.04143437499999969 0.09375000000000008
v 0.25 -0.10003125000000024 0.03883250000000013
v 0.3125 -0.10003125000000024 0.03883250000000013
v 0.25 -0.10003125000000024 -0.03883249999999985
v 0.3125 -0.10003125000000024 -0.03883249999999985
v 0.25 -0.04143437499999991 -0.09374999999999992
v 0.3125 -0.04143437499999991 -0.09374999999999992
v 0.25 0.04143437499999991 -0.09374999999999992
v 0.3125 0.04143437499999991 -0.09374999999999992
v 0.25 0.10003125000000002 -0.03883249999999974
v 0.3125 0.10003125000000002 -0.03883249999999974
v 0.25 0.1000312499999998 0.03883250000000002
v 0.3125 0.1000312499999998 0.03883250000000002
v 0.25 0.04143437499999969 0.0937500000000002
v 0.3125 0.04143437499999969 0.0937500000000002
v -0.3125 0 1.942890293094024e-16
v -0.25 0 1.942890293094024e-16
v -0.3125 -0.04143437499999969 0.09375000000000008
v -0.25 -0.04143437499999969 0.09375000000000008
v -0.3125 -0.10003125000000024 0.03883250000000013
v -0.25 -0.10003125000000024 0.03883250000000013
v -0.3125 -0.10003125000000024 -0.03883249999999985
v -0.25 -0.10003125000000024 -0.03883249999999985
v -0.3125 -0.04143437499999991 -0.09374999999999992
v -0.25 -0.04143437499999991 -0.09374999999999992
v -0.3125 0.04143437499999991 -0.09374999999999992
v -0.25 0.04143437499999991 -0.09374999999999992
v -0.3125 0.10003125000000002 -0.03883249999999974
v -0.25 0.10003125000000002 -0.03883249999999974
v -0.3125 0.1000312499999998 0.03883250000000002
v -0.25 0.1000312499999998 0.03883250000000002
v -0.3125 0.04143437499999969 0.0937500000000002
v -0.25 0.04143437499999969 0.0937500000000002
v -0.24977312499999998 0.10000000000000009 -0.03202624999999984
v -0.184070625 -0.15625 -0.33108062499999996
v -0.24977312499999998 -0.10000000000000009 -0.03202624999999995
v -0.184070625 -0.35317375000000006 -0.33108062499999985
v -0.311930625 0.10000000000000009 -0.03855937499999987
v -0.246258125 -0.15625 -0.33108062499999996
v -0.311930625 -0.10000000000000009 -0.03855937499999998
v -0.246258125 -0.35317375000000006 -0.33108062499999985
v 0.311930625 0.10000000000000009 -0.03855937499999987
v 0.253429375 -0.15625 -0.33108062499999996
v 0.311930625 -0.10000000000000009 -0.03855937499999998
v 0.24977312499999998 0.10000000000000009 -0.03202624999999984
v 0.191241875 -0.15625 -0.33108062499999996
v 0.24977312499999998 -0.10000000000000009 -0.03202624999999995
v 0.36249999999999993 0.07499999999999973 0.6437500000000003
v 0.36249999999999993 0.07499999999999996 0.11250000000000013
v 0.36249999999999993 -0.07500000000000018 0.6437500000000002
v 0.36249999999999993 -0.07499999999999996 0.11250000000000018
v 0.225 0.07499999999999973 0.6437500000000003
v 0.225 0.07499999999999996 0.11250000000000013
v 0.225 -0.07500000000000018 0.6437500000000002
v 0.225 -0.07499999999999996 0.11250000000000018
v 0.30625 0.10000000000000009 0.6625000000000003
v 0.30625 0.10000000000000009 0.03750000000000017
v 0.30625 -0.10000000000000031 0.6625000000000003
v 0.30625 -0.10000000000000009 0.03750000000000006
v 0.25 0.10000000000000009 0.6625000000000003
v 0.25 0.10000000000000009 0.03750000000000017
v 0.25 -0.10000000000000031 0.6625000000000003
v 0.25 -0.10000000000000009 0.03750000000000006
v -0.25 0.10000000000000009 0.6625000000000003
v -0.25 0.10000000000000009 0.03750000000000017
v -0.25 -0.10000000000000031 0.6625000000000003
v -0.25 -0.10000000000000009 0.03750000000000006
v -0.30625 0.10000000000000009 0.6625000000000003
v -0.30625 0.10000000000000009 0.03750000000000017
v -0.30625 -0.10000000000000031 0.6625000000000003
v -0.30625 -0.10000000000000009 0.03750000000000006
v -0.225 0.07499999999999973 0.6437500000000003
v -0.225 0.07499999999999996 0.11250000000000013
v -0.225 -0.07500000000000018 0.6437500000000002
v -0.225 -0.07499999999999996 0.11250000000000018
v -0.36249999999999993 0.07499999999999973 0.6437500000000003
v -0.36249999999999993 0.07499999999999996 0.11250000000000013
v -0.36249999999999993 -0.07500000000000018 0.6437500000000002
v -0.36249999999999993 -0.07499999999999996 0.11250000000000018
v 0 -0.25 -0.6249999999999998
v 0.09375 -0.21116749999999995 -0.6249999999999998
v 0.09375 -0.2888324999999998 -0.6249999999999998
v -0.09375 -0.2888324999999998 -0.6249999999999998
v -0.09375 -0.21116749999999995 -0.6249999999999998
v 0.191241875 -0.35317375000000006 -0.33108062499999985
v 0.253429375 -0.35317375000000006 -0.33108062499999985
v -0.184070625 -0.1499999999999999 -0.3185806249999998
v -0.184070625 -0.1499999999999999 -0.6499999999999997
v -0.184070625 -0.35317375000000006 -0.33108062499999985
v -0.184070625 -0.35317374999999995 -0.6499999999999997
v -0.246258125 -0.1499999999999999 -0.3185806249999998
v -0.246258125 -0.1499999999999999 -0.6499999999999997
v -0.246258125 -0.35317375000000006 -0.33108062499999985
v -0.246258125 -0.35317374999999995 -0.6499999999999997
v 0.2 -0.15593750000000006 -0.5812499999999996
v 0.2 -0.15593749999999984 -0.6437499999999998
v 0.2 -0.34406249999999994 -0.5812499999999996
v 0.2 -0.3440624999999998 -0.6437499999999998
v -0.1875 -0.15593750000000006 -0.5812499999999996
v -0.1875 -0.15593749999999984 -0.6437499999999998
v -0.1875 -0.34406249999999994 -0.5812499999999996
v -0.1875 -0.3440624999999998 -0.6437499999999998
v 0.253429375 -0.1499999999999999 -0.3185806249999998
v 0.253429375 -0.1499999999999999 -0.6499999999999997
v 0.253429375 -0.35317375000000006 -0.33108062499999985
v 0.253429375 -0.35317374999999995 -0.6499999999999997
v 0.191241875 -0.1499999999999999 -0.3185806249999998
v 0.191241875 -0.1499999999999999 -0.6499999999999997
v 0.191241875 -0.35317375000000006 -0.33108062499999985
v 0.191241875 -0.35317374999999995 -0.6499999999999997
vt 0.15625 0.46875
vt 0.1640625 0.46875
vt 0.1640625 1
vt 0.15625 1
vt 0.26657265625 0.5234375
vt 0.2734375 0.5303023437500001
vt 0.26171875 0.53515625
vt 0.2734375 0.5303023437500001
vt 0.2734375 0.5400101562499999
vt 0.26171875 0.53515625
vt 0.171875 0.46875
vt 0.1796875 0.46875
vt 0.1796875 1
vt 0.171875 1
vt 0.2734375 0.5400101562499999
vt 0.26657265625 0.546875
vt 0.26171875 0.53515625
vt 0.09375 0.46875
vt 0.1015625 0.46875
vt 0.1015625 1
vt 0.09375 1
vt 0.26657265625 0.546875
vt 0.25686484375 0.546875
vt 0.26171875 0.53515625
vt 0.1875 0.46875
vt 0.1953125 0.46875
vt 0.1953125 1
vt 0.1875 1
vt 0.25686484375 0.546875
vt 0.25 0.5400101562499999
vt 0.26171875 0.53515625
vt 0.25 0.5400101562499999
vt 0.25 0.5303023437500001
vt 0.26171875 0.53515625
vt 0.203125 0.46875
vt 0.2109375 0.46875
vt 0.2109375 1
vt 0.203125 1
vt 0.25 0.5303023437500001
vt 0.25686484375 0.5234375
vt 0.26171875 0.53515625
vt 0.109375 0.46875
vt 0.1171875 0.46875
vt 0.1171875 1
vt 0.109375 1
vt 0.25686484375 0.5234375
vt 0.26657265625 0.5234375
vt 0.26171875 0.53515625
vt 0.3828125 0.8561390625
vt 0.3873890625 0.8515625
vt 0.390625 0.859375
vt 0.53125 0.5703125
vt 0.53125 0.578125
vt 0.46875 0.578125
vt 0.46875 0.5703125
vt 0.3782359375 0.4375
vt 0.3828125 0.44207656250000005
vt 0.375 0.4453125
vt 0.3828125 0.8626109375
vt 0.3828125 0.8561390625
vt 0.390625 0.859375
vt 0.4765625 0.8203125
vt 0.4765625 0.828125
vt 0.4140625 0.828125
vt 0.4140625 0.8203125
vt 0.3828125 0.44207656250000005
vt 0.3828125 0.44854843749999995
vt 0.375 0.4453125
vt 0.3873890625 0.8671875
vt 0.3828125 0.8626109375
vt 0.390625 0.859375
vt 0.53125 0.6015625
vt 0.53125 0.609375
vt 0.46875 0.609375
vt 0.46875 0.6015625
vt 0.3828125 0.44854843749999995
vt 0.3782359375 0.453125
vt 0.375 0.4453125
vt 0.3938609375 0.8671875
vt 0.3873890625 0.8671875
vt 0.390625 0.859375
vt 0.46875 0.75
vt 0.46875 0.7421875
vt 0.53125 0.7421875
vt 0.53125 0.75
vt 0.3782359375 0.453125
vt 0.3717640625 0.453125
vt 0.375 0.4453125
vt 0.3984375 0.8626109375
vt 0.3938609375 0.8671875
vt 0.390625 0.859375
vt 0.46875 0.59375
vt 0.46875 0.5859375
vt 0.53125 0.5859375
vt 0.53125 0.59375
vt 0.3717640625 0.453125
vt 0.3671875 0.44854843749999995
vt 0.375 0.4453125
vt 0.3984375 0.8561390625
vt 0.3984375 0.8626109375
vt 0.390625 0.859375
vt 0.46875 0.734375
vt 0.46875 0.7265625
vt 0.53125 0.7265625
vt 0.53125 0.734375
vt 0.3671875 0.44854843749999995
vt 0.3671875 0.44207656250000005
vt 0.375 0.4453125
vt 0.3938609375 0.8515625
vt 0.3984375 0.8561390625
vt 0.390625 0.859375
vt 0.46875 0.5625
vt 0.46875 0.5546875
vt 0.53125 0.5546875
vt 0.53125 0.5625
vt 0.3671875 0.44207656250000005
vt 0.3717640625 0.4375
vt 0.375 0.4453125
vt 0.3873890625 0.8515625
vt 0.3938609375 0.8515625
vt 0.390625 0.859375
vt 0.46875 0.71875
vt 0.46875 0.7109375
vt 0.53125 0.7109375
vt 0.53125 0.71875
vt 0.3717640625 0.4375
vt 0.3782359375 0.4375
vt 0.375 0.4453125
vt 0.45624609375 0.93655234375
vt 0.46357109375 0.9296875
vt 0.46875 0.94140625
vt 0.1796875 0.3515625
vt 0.1796875 0.359375
vt 0.171875 0.359375
vt 0.171875 0.3515625
vt 0.47392890625 0.8984375
vt 0.48125390625 0.90530234375
vt 0.46875 0.91015625
vt 0.45624609375 0.94626015625
vt 0.45624609375 0.93655234375
vt 0.46875 0.94140625
vt 0.0625 0.46875
vt 0.0625 0.4765625
vt 0.0546875 0.4765625
vt 0.0546875 0.46875
vt 0.48125390625 0.90530234375
vt 0.48125390625 0.91501015625
vt 0.46875 0.91015625
vt 0.46357109375 0.953125
vt 0.45624609375 0.94626015625
vt 0.46875 0.94140625
vt 0.2421875 0.3515625
vt 0.2421875 0.359375
vt 0.234375 0.359375
vt 0.234375 0.3515625
vt 0.48125390625 0.91501015625
vt 0.47392890625 0.921875
vt 0.46875 0.91015625
vt 0.4739296875 0.953125
vt 0.46357109375 0.953125
vt 0.46875 0.94140625
vt 0.3828125 0.3671875
vt 0.3828125 0.359375
vt 0.390625 0.359375
vt 0.390625 0.3671875
vt 0.47392890625 0.921875
vt 0.4635703125 0.921875
vt 0.46875 0.91015625
vt 0.48125390625 0.94626015625
vt 0.4739296875 0.953125
vt 0.46875 0.94140625
vt 0.640625 0.765625
vt 0.640625 0.7578125
vt 0.6484375 0.7578125
vt 0.6484375 0.765625
vt 0.4635703125 0.921875
vt 0.45624609375 0.91501015625
vt 0.46875 0.91015625
vt 0.48125390625 0.93655234375
vt 0.48125390625 0.94626015625
vt 0.46875 0.94140625
vt 0.6328125 0.46875
vt 0.6328125 0.4609375
vt 0.640625 0.4609375
vt 0.640625 0.46875
vt 0.45624609375 0.91501015625
vt 0.45624609375 0.90530234375
vt 0.46875 0.91015625
vt 0.4739296875 0.9296875
vt 0.48125390625 0.93655234375
vt 0.46875 0.94140625
vt 0.640625 0.8125
vt 0.640625 0.8046875
vt 0.6484375 0.8046875
vt 0.6484375 0.8125
vt 0.45624609375 0.90530234375
vt 0.4635703125 0.8984375
vt 0.46875 0.91015625
vt 0.46357109375 0.9296875
vt 0.4739296875 0.9296875
vt 0.46875 0.94140625
vt 0.6328125 0.453125
vt 0.6328125 0.4453125
vt 0.640625 0.4453125
vt 0.640625 0.453125
vt 0.4635703125 0.8984375
vt 0.47392890625 0.8984375
vt 0.46875 0.91015625
vt 0.45624609375 0.87405234375
vt 0.4635703125 0.8671875
vt 0.46875 0.87890625
vt 0.6484375 0.7890625
vt 0.6484375 0.796875
vt 0.640625 0.796875
vt 0.640625 0.7890625
vt 0.4739296875 0.8359375
vt 0.48125390625 0.84280234375
vt 0.46875 0.84765625
vt 0.45624609375 0.88376015625
vt 0.45624609375 0.87405234375
vt 0.46875 0.87890625
vt 0.640625 0.3671875
vt 0.640625 0.375
vt 0.6328125 0.375
vt 0.6328125 0.3671875
vt 0.48125390625 0.84280234375
vt 0.48125390625 0.85251015625
vt 0.46875 0.84765625
vt 0.4635703125 0.890625
vt 0.45624609375 0.88376015625
vt 0.46875 0.87890625
vt 0.2578125 0.3515625
vt 0.2578125 0.359375
vt 0.25 0.359375
vt 0.25 0.3515625
vt 0.48125390625 0.85251015625
vt 0.4739296875 0.859375
vt 0.46875 0.84765625
vt 0.47392890625 0.890625
vt 0.4635703125 0.890625
vt 0.46875 0.87890625
vt 0.640625 0.921875
vt 0.640625 0.9140625
vt 0.6484375 0.9140625
vt 0.6484375 0.921875
vt 0.4739296875 0.859375
vt 0.46357109375 0.859375
vt 0.46875 0.84765625
vt 0.48125390625 0.88376015625
vt 0.47392890625 0.890625
vt 0.46875 0.87890625
vt 0.640625 0.75
vt 0.640625 0.7421875
vt 0.6484375 0.7421875
vt 0.6484375 0.75
vt 0.46357109375 0.859375
vt 0.45624609375 0.85251015625
vt 0.46875 0.84765625
vt 0.48125390625 0.87405234375
vt 0.48125390625 0.88376015625
vt 0.46875 0.87890625
vt 0.15625 0.359375
vt 0.15625 0.3515625
vt 0.1640625 0.3515625
vt 0.1640625 0.359375
vt 0.45624609375 0.85251015625
vt 0.45624609375 0.84280234375
vt 0.46875 0.84765625
vt 0.47392890625 0.8671875
vt 0.48125390625 0.87405234375
vt 0.46875 0.87890625
vt 0.21875 0.359375
vt 0.21875 0.3515625
vt 0.2265625 0.3515625
vt 0.2265625 0.359375
vt 0.45624609375 0.84280234375
vt 0.46357109375 0.8359375
vt 0.46875 0.84765625
vt 0.4635703125 0.8671875
vt 0.47392890625 0.8671875
vt 0.46875 0.87890625
vt 0.640625 0.84375
vt 0.640625 0.8359375
vt 0.6484375 0.8359375
vt 0.6484375 0.84375
vt 0.46357109375 0.8359375
vt 0.4739296875 0.8359375
vt 0.46875 0.84765625
vt 0.396134609375 0.750294765625
vt 0.380336328125 0.769171796875
vt 0.330427890625 0.769171796875
vt 0.3464728125 0.75
vt 0.375 0.950950859375
vt 0.390625 0.9347075
vt 0.390625 0.984006328125
vt 0.3752921875 1
vt 0.510535703125 0.9140625
vt 0.560444296875 0.9140625
vt 0.559165078125 0.9217768749999999
vt 0.509868203125 0.921875
vt 0.515639296875 0.808145
vt 0.515639296875 0.7584825
vt 0.523423203125 0.7578125
vt 0.523288515625 0.80685984375
vt 0.59375 0.4296875
vt 0.6171875 0.4296875
vt 0.6171875 0.4375
vt 0.59375 0.4375
vt 0.484375 0.4140625
vt 0.484375 0.390625
vt 0.4921875 0.390625
vt 0.4921875 0.4140625
vt 0.39587984375 0.7235150781249999
vt 0.3798403125 0.7421875
vt 0.33068265625 0.7421875
vt 0.34697265625 0.723223515625
vt 0.359375 0.62546515625
vt 0.375 0.609375
vt 0.375 0.6591434375
vt 0.35966921875 0.674986171875
vt 0.515625 0.85593578125
vt 0.515625 0.905093671875
vt 0.5079 0.90625
vt 0.5078125 0.8564842968749999
vt 0.6015625 0.40625
vt 0.578125 0.40625
vt 0.578125 0.3984375
vt 0.6015625 0.3984375
vt 0.328125 0.671875
vt 0.3125 0.671875
vt 0.3125 0.6015625
vt 0.328125 0.6015625
vt 0.3359375 0.6015625
vt 0.3515625 0.6015625
vt 0.3515625 0.671875
vt 0.3359375 0.671875
vt 0.015625 0.5859375
vt 0.015625 0.65625
vt 0 0.65625
vt 0 0.5859375
vt 0.0234375 0.65625
vt 0.0234375 0.5859375
vt 0.0390625 0.5859375
vt 0.0390625 0.65625
vt 0.203125 0.4296875
vt 0.203125 0.4453125
vt 0.1875 0.4453125
vt 0.1875 0.4296875
vt 0.4375 0.4453125
vt 0.4375 0.4296875
vt 0.453125 0.4296875
vt 0.453125 0.4453125
vt 0.2421875 0.6875
vt 0.21875 0.6875
vt 0.21875 0.609375
vt 0.2421875 0.609375
vt 0.328125 0.78125
vt 0.3515625 0.78125
vt 0.3515625 0.859375
vt 0.328125 0.859375
vt 0.3203125 0.4765625
vt 0.3203125 0.5546875
vt 0.3125 0.5546875
vt 0.3125 0.4765625
vt 0.328125 0.5546875
vt 0.328125 0.4765625
vt 0.3359375 0.4765625
vt 0.3359375 0.5546875
vt 0.359375 0.3828125
vt 0.359375 0.40625
vt 0.3515625 0.40625
vt 0.3515625 0.3828125
vt 0.59375 0.640625
vt 0.59375 0.6171875
vt 0.6015625 0.6171875
vt 0.6015625 0.640625
vt 0.2734375 0.671875
vt 0.25 0.671875
vt 0.25 0.59375
vt 0.2734375 0.59375
vt 0.28125 0.59375
vt 0.3046875 0.59375
vt 0.3046875 0.671875
vt 0.28125 0.671875
vt 0.3515625 0.4765625
vt 0.3515625 0.5546875
vt 0.34375 0.5546875
vt 0.34375 0.4765625
vt 0.359375 0.5546875
vt 0.359375 0.4765625
vt 0.3671875 0.4765625
vt 0.3671875 0.5546875
vt 0.4140625 0.3828125
vt 0.4140625 0.40625
vt 0.40625 0.40625
vt 0.40625 0.3828125
vt 0.421875 0.40625
vt 0.421875 0.3828125
vt 0.4296875 0.3828125
vt 0.4296875 0.40625
vt 0.0625 0.65625
vt 0.046875 0.65625
vt 0.046875 0.5859375
vt 0.0625 0.5859375
vt 0.0703125 0.5859375
vt 0.0859375 0.5859375
vt 0.0859375 0.65625
vt 0.0703125 0.65625
vt 0.3671875 0.9296875
vt 0.3671875 1
vt 0.3515625 1
vt 0.3515625 0.9296875
vt 0.359375 0.921875
vt 0.359375 0.8515625
vt 0.375 0.8515625
vt 0.375 0.921875
vt 0.4765625 0.421875
vt 0.4765625 0.4375
vt 0.4609375 0.4375
vt 0.4609375 0.421875
vt 0.484375 0.4375
vt 0.484375 0.421875
vt 0.5 0.421875
vt 0.5 0.4375
vt 0.4765625 0.6962601562499999
vt 0.46969765625 0.703125
vt 0.46484375 0.69140625
vt 0.4765625 0.6865523437500001
vt 0.4765625 0.6962601562499999
vt 0.46484375 0.69140625
vt 0.125 0.46875
vt 0.1328125 0.46875
vt 0.1328125 1
vt 0.125 1
vt 0.46969765625 0.6796875
vt 0.4765625 0.6865523437500001
vt 0.46484375 0.69140625
vt 0.45998984375 0.6796875
vt 0.46969765625 0.6796875
vt 0.46484375 0.69140625
vt 0.453125 0.6865523437500001
vt 0.45998984375 0.6796875
vt 0.46484375 0.69140625
vt 0.453125 0.6962601562499999
vt 0.453125 0.6865523437500001
vt 0.46484375 0.69140625
vt 0.140625 0.46875
vt 0.1484375 0.46875
vt 0.1484375 1
vt 0.140625 1
vt 0.45998984375 0.703125
vt 0.453125 0.6962601562499999
vt 0.46484375 0.69140625
vt 0.46969765625 0.703125
vt 0.45998984375 0.703125
vt 0.46484375 0.69140625
vt 0.55902890625 0.843730546875
vt 0.510120859375 0.843730546875
vt 0.51067203125 0.8359375
vt 0.560191640625 0.8360624999999999
vt 0.5 0.40625
vt 0.5 0.3828125
vt 0.5078125 0.3828125
vt 0.5078125 0.40625
vt 0.40625 0.921875
vt 0.3828125 0.921875
vt 0.3828125 0.88044765625
vt 0.40625 0.88201015625
vt 0.3828125 0.63982265625
vt 0.40625 0.63826015625
vt 0.40625 0.6796875
vt 0.3828125 0.6796875
vt 0.2265625 0.4375
vt 0.2265625 0.4765625
vt 0.21875 0.4765625
vt 0.21875 0.4375
vt 0.234375 0.4765625
vt 0.234375 0.4375
vt 0.2421875 0.4375
vt 0.2421875 0.4765625
vt 0.546875 0.40625
vt 0.546875 0.3828125
vt 0.5546875 0.3828125
vt 0.5546875 0.40625
vt 0.515625 0.40625
vt 0.515625 0.3828125
vt 0.5234375 0.3828125
vt 0.5234375 0.40625
vt 0.53125 0.4375
vt 0.5078125 0.4375
vt 0.5078125 0.4296875
vt 0.53125 0.4296875
vt 0.59375 0.4921875
vt 0.6171875 0.4921875
vt 0.6171875 0.5
vt 0.59375 0.5
vt 0.53125 0.4765625
vt 0.53125 0.484375
vt 0.484375 0.484375
vt 0.484375 0.4765625
vt 0 0.4765625
vt 0 0.46875
vt 0.046875 0.46875
vt 0.046875 0.4765625
vt 0.390625 0.6875
vt 0.390625 0.7109375
vt 0.34375 0.7109375
vt 0.34375 0.6875
vt 0.359375 0.84375
vt 0.359375 0.8203125
vt 0.40625 0.8203125
vt 0.40625 0.84375
vt 0.40625 0.625
vt 0.3828125 0.625
vt 0.3828125 0.58357265625
vt 0.40625 0.58513515625
vt 0.3984375 0.96013515625
vt 0.421875 0.95857265625
vt 0.421875 1
vt 0.3984375 1
vt 0.34375 0.4296875
vt 0.34375 0.46875
vt 0.3359375 0.46875
vt 0.3359375 0.4296875
vt 0.3515625 0.46875
vt 0.3515625 0.4296875
vt 0.359375 0.4296875
vt 0.359375 0.46875
vt 0.5625 0.40625
vt 0.5625 0.3828125
vt 0.5703125 0.3828125
vt 0.5703125 0.40625
vt 0.53125 0.40625
vt 0.53125 0.3828125
vt 0.5390625 0.3828125
vt 0.5390625 0.40625
vn 0.7071067811865472 0.7071067811865479 1.4846839764264268e-16
vn 0 0 -1
vn 0 0 -1
vn 0.7071067811865487 -0.7071067811865465 -1.484683976426424e-16
vn 0 0 -1
vn 0 -1 -2.089831575765001e-16
vn 0 0 -1
vn -0.7071067811865487 -0.7071067811865465 -1.1036588851311469e-16
vn 0 0 -1
vn 0 0 -1
vn -0.7071067811865472 0.7071067811865479 1.1036588851311493e-16
vn 0 0 -1
vn 0 1 1.567373681823751e-16
vn 0 0 -1
vn -1 0 0
vn 0 -0.7071067811865497 0.7071067811865454
vn 1 0 0
vn -1 0 0
vn 0 -1 0
vn 1 0 0
vn -1 0 0
vn 0 -0.7071067811865465 -0.7071067811865486
vn 1 0 0
vn -1 0 0
vn 0 -2.1442708280826636e-15 -1
vn 1 0 0
vn -1 0 0
vn 0 0.7071067811865497 -0.7071067811865454
vn 1 0 0
vn -1 0 0
vn 0 1 0
vn 1 0 0
vn -1 0 0
vn 0 0.7071067811865518 0.7071067811865432
vn 1 0 0
vn -1 0 0
vn 0 -2.1442708280826545e-15 1
vn 1 0 0
vn -1 0 0
vn 0 -0.683827992041588 0.7296432534467581
vn 1 0 0
vn -1 0 0
vn 0 -1 0
vn 1 0 0
vn -1 0 0
vn 0 -0.6838279920415901 -0.7296432534467561
vn 1 0 0
vn -1 0 0
vn 0 0 -1
vn 1 0 0
vn -1 0 0
vn 0 0.6838279920415923 -0.7296432534467541
vn 1 0 0
vn -1 0 0
vn 0 1 2.8590047630854567e-15
vn 1 0 0
vn -1 0 0
vn 0 0.6838279920415923 0.7296432534467541
vn 1 0 0
vn -1 0 0
vn 0 -1.339736661437713e-15 1
vn 1 0 0
vn -1 0 0
vn 0 -0.683827992041588 0.7296432534467581
vn 1 0 0
vn -1 0 0
vn 0 -1 0
vn 1 0 0
vn -1 0 0
vn 0 -0.6838279920415901 -0.7296432534467561
vn 1 0 0
vn -1 0 0
vn 0 0 -1
vn 1 0 0
vn -1 0 0
vn 0 0.6838279920415923 -0.7296432534467541
vn 1 0 0
vn -1 0 0
vn 0 1 2.8590047630854567e-15
vn 1 0 0
vn -1 0 0
vn 0 0.6838279920415923 0.7296432534467541
vn 1 0 0
vn -1 0 0
vn 0 -1.339736661437713e-15 1
vn 1 0 0
vn 0.9767057396181973 1.2097833605404771e-16 0.2145830799407785
vn -0.9757130695495456 1.2159857488251443e-16 -0.21905251861187033
vn 0 0.7593598786345706 -0.650670865123136
vn -0.0668568210192114 -0.7687133336120894 0.6360895976277192
vn -0.1045301802467721 -5.520704531886116e-16 0.9945217149049976
vn 0 -5.637832026990935e-16 -1
vn 0.9805826095907294 -1.105615311282575e-16 -0.19610646539121385
vn -0.9813799069579434 -1.066240156475011e-16 0.19207675085553294
vn 0 0.7522020353213877 -0.6589325443915804
vn 0.10453018024677213 -5.520704531886116e-16 0.9945217149049976
vn 1 0 0
vn -1 0 0
vn 0 1 4.17966315153e-16
vn 0 -1 -4.1796631515300015e-16
vn 0 -7.401486830834381e-16 1
vn 0 -3.7007434154171906e-16 -1
vn 1 0 0
vn -1 0 0
vn 0 1 0
vn 0 -1 -3.5527136788004996e-16
vn 0 0 1
vn 0 5.551115123125778e-16 -1
vn 1 0 0
vn -1 0 0
vn 0 1 0
vn 0 -1 -3.5527136788004996e-16
vn 0 0 1
vn 0 5.551115123125778e-16 -1
vn 1 0 0
vn -1 0 0
vn 0 1 4.17966315153e-16
vn 0 -1 -4.1796631515300015e-16
vn 0 -7.401486830834381e-16 1
vn 0 -3.7007434154171906e-16 -1
vn 0 0 1
vn 0 0 1
vn 1 0 0
vn 0 0 1
vn 0 0 1
vn 0 0 1
vn 0 0 1
vn -1 0 0
vn 0 0 1
vn 0 0 1
vn 0.06780679991321305 -0.7610599448322435 0.6451278929464079
vn 0 -5.637832026990935e-16 -1
vn 1 0 0
vn -1 0 0
vn 0 1 0
vn 0 -1 -3.4812028106638456e-16
vn 0 -0.06140758669218374 0.9981127733360806
vn 0 0 -1
vn 1 0 0
vn -1 0 0
vn 0 1 3.5527136788004883e-15
vn 0 -1 -1.7763568394002442e-15
vn 0 0 1
vn 0 0 -1
vn 1 0 0
vn -1 0 0
vn 0 1 0
vn 0 -1 -3.4812028106638456e-16
vn 0 -0.06140758669218374 0.9981127733360806
vn 0 0 -1
usemtl m_4f1e39de-9a37-e2de-5a3e-983629909618
f 2/1/1 115/2/1 4/3/1 3/4/1
f 3/5/2 4/6/2 1/7/2
f 4/8/3 5/9/3 1/10/3
f 116/11/4 6/12/4 7/13/4 5/14/4
f 5/15/5 7/16/5 1/17/5
f 6/18/6 8/19/6 9/20/6 7/21/6
f 7/22/7 9/23/7 1/24/7
f 8/25/8 117/26/8 10/27/8 9/28/8
f 9/29/9 10/30/9 1/31/9
f 10/32/10 11/33/10 1/34/10
f 118/35/11 12/36/11 13/37/11 11/38/11
f 11/39/12 13/40/12 1/41/12
f 12/42/13 2/43/13 3/44/13 13/45/13
f 13/46/14 3/47/14 1/48/14
f 18/49/15 16/50/15 14/51/15
f 16/52/16 18/53/16 19/54/16 17/55/16
f 17/56/17 19/57/17 15/58/17
f 20/59/18 18/60/18 14/61/18
f 18/62/19 20/63/19 21/64/19 19/65/19
f 19/66/20 21/67/20 15/68/20
f 22/69/21 20/70/21 14/71/21
f 20/72/22 22/73/22 23/74/22 21/75/22
f 21/76/23 23/77/23 15/78/23
f 24/79/24 22/80/24 14/81/24
f 22/82/25 24/83/25 25/84/25 23/85/25
f 23/86/26 25/87/26 15/88/26
f 26/89/27 24/90/27 14/91/27
f 24/92/28 26/93/28 27/94/28 25/95/28
f 25/96/29 27/97/29 15/98/29
f 28/99/30 26/100/30 14/101/30
f 26/102/31 28/103/31 29/104/31 27/105/31
f 27/106/32 29/107/32 15/108/32
f 30/109/33 28/110/33 14/111/33
f 28/112/34 30/113/34 31/114/34 29/115/34
f 29/116/35 31/117/35 15/118/35
f 16/119/36 30/120/36 14/121/36
f 30/122/37 16/123/37 17/124/37 31/125/37
f 31/126/38 17/127/38 15/128/38
f 36/129/39 34/130/39 32/131/39
f 34/132/40 36/133/40 37/134/40 35/135/40
f 35/136/41 37/137/41 33/138/41
f 38/139/42 36/140/42 32/141/42
f 36/142/43 38/143/43 39/144/43 37/145/43
f 37/146/44 39/147/44 33/148/44
f 40/149/45 38/150/45 32/151/45
f 38/152/46 40/153/46 41/154/46 39/155/46
f 39/156/47 41/157/47 33/158/47
f 42/159/48 40/160/48 32/161/48
f 40/162/49 42/163/49 43/164/49 41/165/49
f 41/166/50 43/167/50 33/168/50
f 44/169/51 42/170/51 32/171/51
f 42/172/52 44/173/52 45/174/52 43/175/52
f 43/176/53 45/177/53 33/178/53
f 46/179/54 44/180/54 32/181/54
f 44/182/55 46/183/55 47/184/55 45/185/55
f 45/186/56 47/187/56 33/188/56
f 48/189/57 46/190/57 32/191/57
f 46/192/58 48/193/58 49/194/58 47/195/58
f 47/196/59 49/197/59 33/198/59
f 34/199/60 48/200/60 32/201/60
f 48/202/61 34/203/61 35/204/61 49/205/61
f 49/206/62 35/207/62 33/208/62
f 54/209/63 52/210/63 50/211/63
f 52/212/64 54/213/64 55/214/64 53/215/64
f 53/216/65 55/217/65 51/218/65
f 56/219/66 54/220/66 50/221/66
f 54/222/67 56/223/67 57/224/67 55/225/67
f 55/226/68 57/227/68 51/228/68
f 58/229/69 56/230/69 50/231/69
f 56/232/70 58/233/70 59/234/70 57/235/70
f 57/236/71 59/237/71 51/238/71
f 60/239/72 58/240/72 50/241/72
f 58/242/73 60/243/73 61/244/73 59/245/73
f 59/246/74 61/247/74 51/248/74
f 62/249/75 60/250/75 50/251/75
f 60/252/76 62/253/76 63/254/76 61/255/76
f 61/256/77 63/257/77 51/258/77
f 64/259/78 62/260/78 50/261/78
f 62/262/79 64/263/79 65/264/79 63/265/79
f 63/266/80 65/267/80 51/268/80
f 66/269/81 64/270/81 50/271/81
f 64/272/82 66/273/82 67/274/82 65/275/82
f 65/276/83 67/277/83 51/278/83
f 52/279/84 66/280/84 50/281/84
f 66/282/85 52/283/85 53/284/85 67/285/85
f 67/286/86 53/287/86 51/288/86
f 71/289/87 69/290/87 68/291/87 70/292/87
f 74/293/88 72/294/88 73/295/88 75/296/88
f 68/297/89 69/298/89 73/299/89 72/300/89
f 71/301/90 70/302/90 74/303/90 75/304/90
f 70/305/91 68/306/91 72/307/91 74/308/91
f 75/309/92 73/310/92 69/311/92 71/312/92
f 120/313/93 77/314/93 76/315/93 78/316/93
f 81/317/94 79/318/94 80/319/94 119/320/94
f 76/321/95 77/322/95 80/323/95 79/324/95
f 78/325/96 76/326/96 79/327/96 81/328/96
f 85/329/97 83/330/97 82/331/97 84/332/97
f 88/333/98 86/334/98 87/335/98 89/336/98
f 82/337/99 83/338/99 87/339/99 86/340/99
f 85/341/100 84/342/100 88/343/100 89/344/100
f 84/345/101 82/346/101 86/347/101 88/348/101
f 89/349/102 87/350/102 83/351/102 85/352/102
f 93/353/103 91/354/103 90/355/103 92/356/103
f 96/357/104 94/358/104 95/359/104 97/360/104
f 90/361/105 91/362/105 95/363/105 94/364/105
f 93/365/106 92/366/106 96/367/106 97/368/106
f 92/369/107 90/370/107 94/371/107 96/372/107
f 97/373/108 95/374/108 91/375/108 93/376/108
f 101/377/109 99/378/109 98/379/109 100/380/109
f 104/381/110 102/382/110 103/383/110 105/384/110
f 98/385/111 99/386/111 103/387/111 102/388/111
f 101/389/112 100/390/112 104/391/112 105/392/112
f 100/393/113 98/394/113 102/395/113 104/396/113
f 105/397/114 103/398/114 99/399/114 101/400/114
f 109/401/115 107/402/115 106/403/115 108/404/115
f 112/405/116 110/406/116 111/407/116 113/408/116
f 106/409/117 107/410/117 111/411/117 110/412/117
f 109/413/118 108/414/118 112/415/118 113/416/118
f 108/417/119 106/418/119 110/419/119 112/420/119
f 113/421/120 111/422/120 107/423/120 109/424/120
f 115/425/121 2/426/121 114/427/121
f 116/428/122 115/429/122 114/430/122
f 115/431/123 116/432/123 5/433/123 4/434/123
f 6/435/124 116/436/124 114/437/124
f 8/438/125 6/439/125 114/440/125
f 117/441/126 8/442/126 114/443/126
f 118/444/127 117/445/127 114/446/127
f 117/447/128 118/448/128 11/449/128 10/450/128
f 12/451/129 118/452/129 114/453/129
f 2/454/130 12/455/130 114/456/130
f 120/457/131 78/458/131 81/459/131 119/460/131
f 119/461/132 80/462/132 77/463/132 120/464/132
f 124/465/133 122/466/133 121/467/133 123/468/133
f 127/469/134 125/470/134 126/471/134 128/472/134
f 121/473/135 122/474/135 126/475/135 125/476/135
f 124/477/136 123/478/136 127/479/136 128/480/136
f 123/481/137 121/482/137 125/483/137 127/484/137
f 128/485/138 126/486/138 122/487/138 124/488/138
f 132/489/139 130/490/139 129/491/139 131/492/139
f 135/493/140 133/494/140 134/495/140 136/496/140
f 129/497/141 130/498/141 134/499/141 133/500/141
f 132/501/142 131/502/142 135/503/142 136/504/142
f 131/505/143 129/506/143 133/507/143 135/508/143
f 136/509/144 134/510/144 130/511/144 132/512/144
f 140/513/145 138/514/145 137/515/145 139/516/145
f 143/517/146 141/518/146 142/519/146 144/520/146
f 137/521/147 138/522/147 142/523/147 141/524/147
f 140/525/148 139/526/148 143/527/148 144/528/148
f 139/529/149 137/530/149 141/531/149 143/532/149
f 144/533/150 142/534/150 138/535/150 140/536/150