# Blender 5.1.2
# www.blender.org
mtllib light.mtl
o Cube
v -0.031250 -0.062500 -0.062500
v -0.062500 -0.031250 -0.062500
v -0.062500 0.031250 -0.062500
v -0.031250 0.062500 -0.062500
v 0.062500 -0.031250 -0.062500
v 0.031250 -0.062500 -0.062500
v 0.031250 0.062500 -0.062500
v 0.062500 0.031250 -0.062500
v -0.062500 -0.031250 0.062500
v -0.031250 -0.062500 0.062500
v -0.031250 0.062500 0.062500
v -0.062500 0.031250 0.062500
v 0.031250 -0.062500 0.062500
v 0.062500 -0.031250 0.062500
v 0.062500 0.031250 0.062500
v 0.031250 0.062500 0.062500
vn 0.7071 -0.7071 -0.0000
vn 0.7071 0.7071 -0.0000
vn -0.7071 -0.7071 -0.0000
vn -0.7071 0.7071 -0.0000
vn -0.0000 -1.0000 -0.0000
vn -0.0000 -0.0000 -1.0000
vn -1.0000 -0.0000 -0.0000
vn -0.0000 1.0000 -0.0000
vn 1.0000 -0.0000 -0.0000
vn -0.0000 -0.0000 1.0000
vt 0.250346 0.000692
vt 0.000692 0.250346
vt 0.250346 0.999308
vt 0.000692 0.749654
vt 0.749654 0.000692
vt 0.999308 0.250346
vt 0.749654 0.999308
vt 0.999308 0.749654
s 0
usemtl Material.001
f 13/1/1 5/2/1 14/2/1
f 16/3/2 8/4/2 7/3/2
f 1/5/3 9/6/3 2/6/3
f 4/7/4 12/8/4 11/7/4
f 13/1/5 1/5/5 6/1/5
f 4/7/6 8/4/6 6/1/6
f 12/8/7 2/6/7 9/6/7
f 7/3/8 11/7/8 16/3/8
f 8/4/9 14/2/9 5/2/9
f 16/3/10 12/8/10 10/5/10
f 13/1/1 6/1/1 5/2/1
f 16/3/2 15/4/2 8/4/2
f 1/5/3 10/5/3 9/6/3
f 4/7/4 3/8/4 12/8/4
f 13/1/5 10/5/5 1/5/5
f 6/1/6 1/5/6 2/6/6
f 2/6/6 3/8/6 4/7/6
f 4/7/6 7/3/6 8/4/6
f 8/4/6 5/2/6 6/1/6
f 6/1/6 2/6/6 4/7/6
f 12/8/7 3/8/7 2/6/7
f 7/3/8 4/7/8 11/7/8
f 8/4/9 15/4/9 14/2/9
f 10/5/10 13/1/10 14/2/10
f 14/2/10 15/4/10 16/3/10
f 16/3/10 11/7/10 12/8/10
f 12/8/10 9/6/10 10/5/10
f 10/5/10 14/2/10 16/3/10
