# Blender 5.2.0 LTS
# www.blender.org
mtllib ks_vr_default.mtl
o cube.001
v -0.156250 1.306250 -0.275000
v -0.156250 1.306250 -0.281250
v 0.000000 1.546875 -0.275000
v 0.000000 1.546875 -0.281250
v -0.234375 1.306250 -0.275000
v -0.234375 1.306250 -0.281250
v 0.000000 1.656250 -0.275000
v 0.000000 1.656250 -0.281250
v -0.156250 2.006250 -0.275000
v -0.156250 2.006250 -0.281250
v 0.000000 1.765625 -0.275000
v 0.000000 1.765625 -0.281250
v -0.234375 2.006250 -0.275000
v -0.234375 2.006250 -0.281250
v 0.000000 1.656250 -0.275000
v 0.000000 1.656250 -0.281250
v 0.156250 1.306250 -0.275000
v 0.156250 1.306250 -0.281250
v 0.234375 1.306250 -0.275000
v 0.234375 1.306250 -0.281250
v 0.156250 2.006250 -0.275000
v 0.156250 2.006250 -0.281250
v 0.234375 2.006250 -0.275000
v 0.234375 2.006250 -0.281250
v -0.224880 5.553005 -0.534375
v 0.368750 5.084747 0.441786
v 0.368750 5.073894 0.380236
v 0.243750 4.961646 0.463492
v 0.243750 4.950793 0.401942
v 0.306250 5.084747 0.441786
v 0.306250 5.073894 0.380236
v 0.181250 4.961646 0.463492
v 0.181250 4.950793 0.401942
v -0.318750 5.084747 0.441786
v -0.318750 5.073894 0.380236
v -0.193750 4.961646 0.463492
v -0.193750 4.950793 0.401942
v -0.381250 5.084747 0.441786
v -0.381250 5.073894 0.380236
v -0.256250 4.961646 0.463492
v -0.256250 4.950793 0.401942
v -0.031250 4.937500 0.218750
v -0.187500 4.937500 0.687500
v -0.031250 4.875000 0.218750
v -0.093750 4.937500 0.218750
v -0.250000 4.937500 0.687500
v -0.093750 4.875000 0.218750
v 0.093750 4.937500 0.218750
v 0.250000 4.937500 0.687500
v 0.093750 4.875000 0.218750
v 0.031250 4.937500 0.218750
v 0.187500 4.937500 0.687500
v 0.031250 4.875000 0.218750
v 0.406250 5.812500 -0.218750
v 0.406250 5.781250 -0.187500
v 0.406250 5.781250 -0.218750
v 0.343750 5.812500 -0.218750
v 0.343750 5.781250 -0.187500
v 0.343750 5.781250 -0.218750
v 0.406250 5.156250 -0.187500
v 0.406250 5.156250 -0.218750
v 0.406250 5.125000 -0.218750
v 0.343750 5.156250 -0.187500
v 0.343750 5.156250 -0.218750
v 0.343750 5.125000 -0.218750
v -0.343750 5.812500 -0.218750
v -0.343750 5.781250 -0.187500
v -0.343750 5.781250 -0.218750
v -0.406250 5.812500 -0.218750
v -0.406250 5.781250 -0.187500
v -0.406250 5.781250 -0.218750
v -0.343750 5.156250 -0.187500
v -0.343750 5.156250 -0.218750
v -0.343750 5.125000 -0.218750
v -0.406250 5.156250 -0.187500
v -0.406250 5.156250 -0.218750
v -0.406250 5.125000 -0.218750
v 0.224880 5.553005 -0.534375
v 0.250000 5.509495 -0.534375
v 0.250000 5.459255 -0.534375
v 0.224880 5.415745 -0.534375
v 0.181370 5.390625 -0.534375
v 0.131130 5.390625 -0.534375
v 0.087620 5.415745 -0.534375
v 0.062500 5.459255 -0.534375
v 0.062500 5.509495 -0.534375
v 0.087620 5.553005 -0.534375
v 0.131130 5.578125 -0.534375
v 0.183464 5.585938 -0.500000
v 0.183464 5.585938 -0.562500
v 0.176050 5.558270 -0.500000
v 0.176050 5.558270 -0.562500
v 0.230599 5.558724 -0.500000
v 0.230599 5.558724 -0.562500
v 0.210345 5.538470 -0.500000
v 0.210345 5.538470 -0.562500
v 0.257812 5.511589 -0.500000
v 0.257812 5.511589 -0.562500
v 0.230145 5.504175 -0.500000
v 0.230145 5.504175 -0.562500
v 0.257812 5.457161 -0.500000
v 0.257812 5.457161 -0.562500
v 0.230145 5.464575 -0.500000
v 0.230145 5.464575 -0.562500
v 0.230599 5.410026 -0.500000
v 0.230599 5.410026 -0.562500
v 0.210345 5.430280 -0.500000
v 0.210345 5.430280 -0.562500
v 0.183464 5.382812 -0.500000
v 0.183464 5.382812 -0.562500
v 0.176050 5.410480 -0.500000
v 0.176050 5.410480 -0.562500
v 0.129036 5.382812 -0.500000
v 0.129036 5.382812 -0.562500
v 0.136450 5.410480 -0.500000
v 0.136450 5.410480 -0.562500
v 0.081901 5.410026 -0.500000
v 0.081901 5.410026 -0.562500
v 0.102155 5.430280 -0.500000
v 0.102155 5.430280 -0.562500
v 0.054688 5.457161 -0.500000
v 0.054688 5.457161 -0.562500
v 0.082355 5.464575 -0.500000
v 0.082355 5.464575 -0.562500
v 0.054688 5.511589 -0.500000
v 0.054688 5.511589 -0.562500
v 0.082355 5.504175 -0.500000
v 0.082355 5.504175 -0.562500
v 0.081901 5.558724 -0.500000
v 0.081901 5.558724 -0.562500
v 0.102155 5.538470 -0.500000
v 0.102155 5.538470 -0.562500
v 0.129036 5.585938 -0.500000
v 0.129036 5.585938 -0.562500
v 0.136450 5.558270 -0.500000
v 0.136450 5.558270 -0.562500
v 0.315625 5.512500 -0.500000
v 0.315625 5.512500 -0.562500
v 0.284375 5.512500 -0.500000
v 0.284375 5.512500 -0.562500
v 0.218750 5.621875 -0.500000
v 0.218750 5.621875 -0.937500
v 0.218750 5.590625 -0.500000
v 0.218750 5.590625 -0.937500
v 0.027459 5.512500 -0.500000
v 0.027459 5.512500 -0.562500
v -0.003791 5.512500 -0.500000
v -0.003791 5.512500 -0.562500
v 0.093750 5.590625 -0.500000
v 0.093750 5.590625 -0.937500
v 0.093750 5.621875 -0.500000
v 0.093750 5.621875 -0.937500
v 0.183464 5.585938 -0.500000
v 0.183464 5.585938 -0.562500
v 0.176050 5.558270 -0.500000
v 0.176050 5.558270 -0.562500
v 0.230599 5.558724 -0.500000
v 0.230599 5.558724 -0.562500
v 0.210345 5.538470 -0.500000
v 0.210345 5.538470 -0.562500
v 0.257812 5.511589 -0.500000
v 0.257812 5.511589 -0.562500
v 0.230145 5.504175 -0.500000
v 0.230145 5.504175 -0.562500
v 0.257812 5.457161 -0.500000
v 0.257812 5.457161 -0.562500
v 0.230145 5.464575 -0.500000
v 0.230145 5.464575 -0.562500
v 0.230599 5.410026 -0.500000
v 0.230599 5.410026 -0.562500
v 0.210345 5.430280 -0.500000
v 0.210345 5.430280 -0.562500
v 0.183464 5.382812 -0.500000
v 0.183464 5.382812 -0.562500
v 0.176050 5.410480 -0.500000
v 0.176050 5.410480 -0.562500
v 0.129036 5.382812 -0.500000
v 0.129036 5.382812 -0.562500
v 0.136450 5.410480 -0.500000
v 0.136450 5.410480 -0.562500
v 0.081901 5.410026 -0.500000
v 0.081901 5.410026 -0.562500
v 0.102155 5.430280 -0.500000
v 0.102155 5.430280 -0.562500
v 0.054688 5.457161 -0.500000
v 0.054688 5.457161 -0.562500
v 0.082355 5.464575 -0.500000
v 0.082355 5.464575 -0.562500
v 0.054688 5.511589 -0.500000
v 0.054688 5.511589 -0.562500
v 0.082355 5.504175 -0.500000
v 0.082355 5.504175 -0.562500
v 0.081901 5.558724 -0.500000
v 0.081901 5.558724 -0.562500
v 0.102155 5.538470 -0.500000
v 0.102155 5.538470 -0.562500
v 0.129036 5.585938 -0.500000
v 0.129036 5.585938 -0.562500
v 0.136450 5.558270 -0.500000
v 0.136450 5.558270 -0.562500
v -0.131130 5.578125 -0.534375
v -0.087620 5.553005 -0.534375
v -0.062500 5.509495 -0.534375
v -0.062500 5.459255 -0.534375
v -0.087620 5.415745 -0.534375
v -0.131130 5.390625 -0.534375
v -0.181370 5.390625 -0.534375
v -0.224880 5.415745 -0.534375
v -0.250000 5.459255 -0.534375
v -0.250000 5.509495 -0.534375
v -0.181370 5.578125 -0.534375
v -0.129036 5.585938 -0.500000
v -0.129036 5.585938 -0.562500
v -0.136450 5.558270 -0.500000
v -0.136450 5.558270 -0.562500
v -0.081901 5.558724 -0.500000
v -0.081901 5.558724 -0.562500
v -0.102155 5.538470 -0.500000
v -0.102155 5.538470 -0.562500
v -0.054688 5.511589 -0.500000
v -0.054688 5.511589 -0.562500
v -0.082355 5.504175 -0.500000
v -0.082355 5.504175 -0.562500
v -0.054688 5.457161 -0.500000
v -0.054688 5.457161 -0.562500
v -0.082355 5.464575 -0.500000
v -0.082355 5.464575 -0.562500
v -0.081901 5.410026 -0.500000
v -0.081901 5.410026 -0.562500
v -0.102155 5.430280 -0.500000
v -0.102155 5.430280 -0.562500
v -0.129036 5.382812 -0.500000
v -0.129036 5.382812 -0.562500
v -0.136450 5.410480 -0.500000
v -0.136450 5.410480 -0.562500
v -0.183464 5.382812 -0.500000
v -0.183464 5.382812 -0.562500
v -0.176050 5.410480 -0.500000
v -0.176050 5.410480 -0.562500
v -0.230599 5.410026 -0.500000
v -0.230599 5.410026 -0.562500
v -0.210345 5.430280 -0.500000
v -0.210345 5.430280 -0.562500
v -0.257812 5.457161 -0.500000
v -0.257812 5.457161 -0.562500
v -0.230145 5.464575 -0.500000
v -0.230145 5.464575 -0.562500
v -0.257812 5.511589 -0.500000
v -0.257812 5.511589 -0.562500
v -0.230145 5.504175 -0.500000
v -0.230145 5.504175 -0.562500
v -0.230599 5.558724 -0.500000
v -0.230599 5.558724 -0.562500
v -0.210345 5.538470 -0.500000
v -0.210345 5.538470 -0.562500
v -0.183464 5.585938 -0.500000
v -0.183464 5.585938 -0.562500
v -0.176050 5.558270 -0.500000
v -0.176050 5.558270 -0.562500
v 0.003125 5.512500 -0.500000
v 0.003125 5.512500 -0.562500
v -0.028125 5.512500 -0.500000
v -0.028125 5.512500 -0.562500
v -0.093750 5.621875 -0.500000
v -0.093750 5.621875 -0.937500
v -0.093750 5.590625 -0.500000
v -0.093750 5.590625 -0.937500
v -0.285041 5.512500 -0.500000
v -0.285041 5.512500 -0.562500
v -0.316291 5.512500 -0.500000
v -0.316291 5.512500 -0.562500
v -0.218750 5.590625 -0.500000
v -0.218750 5.590625 -0.937500
v -0.218750 5.621875 -0.500000
v -0.218750 5.621875 -0.937500
v -0.129036 5.585938 -0.500000
v -0.129036 5.585938 -0.562500
v -0.136450 5.558270 -0.500000
v -0.136450 5.558270 -0.562500
v -0.081901 5.558724 -0.500000
v -0.081901 5.558724 -0.562500
v -0.102155 5.538470 -0.500000
v -0.102155 5.538470 -0.562500
v -0.054688 5.511589 -0.500000
v -0.054688 5.511589 -0.562500
v -0.082355 5.504175 -0.500000
v -0.082355 5.504175 -0.562500
v -0.054688 5.457161 -0.500000
v -0.054688 5.457161 -0.562500
v -0.082355 5.464575 -0.500000
v -0.082355 5.464575 -0.562500
v -0.081901 5.410026 -0.500000
v -0.081901 5.410026 -0.562500
v -0.102155 5.430280 -0.500000
v -0.102155 5.430280 -0.562500
v -0.129036 5.382812 -0.500000
v -0.129036 5.382812 -0.562500
v -0.136450 5.410480 -0.500000
v -0.136450 5.410480 -0.562500
v -0.183464 5.382812 -0.500000
v -0.183464 5.382812 -0.562500
v -0.176050 5.410480 -0.500000
v -0.176050 5.410480 -0.562500
v -0.230599 5.410026 -0.500000
v -0.230599 5.410026 -0.562500
v -0.210345 5.430280 -0.500000
v -0.210345 5.430280 -0.562500
v -0.257812 5.457161 -0.500000
v -0.257812 5.457161 -0.562500
v -0.230145 5.464575 -0.500000
v -0.230145 5.464575 -0.562500
v -0.257812 5.511589 -0.500000
v -0.257812 5.511589 -0.562500
v -0.230145 5.504175 -0.500000
v -0.230145 5.504175 -0.562500
v -0.230599 5.558724 -0.500000
v -0.230599 5.558724 -0.562500
v -0.210345 5.538470 -0.500000
v -0.210345 5.538470 -0.562500
v -0.183464 5.585938 -0.500000
v -0.183464 5.585938 -0.562500
v -0.176050 5.558270 -0.500000
v -0.176050 5.558270 -0.562500
v 0.233404 5.757812 -0.525000
v 0.258784 5.772466 -0.525000
v 0.273438 5.797846 -0.525000
v 0.273438 5.827154 -0.525000
v 0.258784 5.852534 -0.525000
v 0.233404 5.867188 -0.525000
v 0.204096 5.867188 -0.525000
v 0.178716 5.852534 -0.525000
v 0.164062 5.827154 -0.525000
v 0.164062 5.797846 -0.525000
v 0.178716 5.772466 -0.525000
v 0.204096 5.757812 -0.525000
v 0.235497 5.750000 -0.546875
v 0.235497 5.750000 -0.484375
v 0.227714 5.779045 -0.546875
v 0.227714 5.779045 -0.484375
v 0.264503 5.766747 -0.546875
v 0.264503 5.766747 -0.484375
v 0.243241 5.788009 -0.546875
v 0.243241 5.788009 -0.484375
v 0.281250 5.795753 -0.546875
v 0.281250 5.795753 -0.484375
v 0.252205 5.803535 -0.546875
v 0.252205 5.803535 -0.484375
v 0.281250 5.829247 -0.546875
v 0.281250 5.829247 -0.484375
v 0.252205 5.821465 -0.546875
v 0.252205 5.821465 -0.484375
v 0.264503 5.858253 -0.546875
v 0.264503 5.858253 -0.484375
v 0.243241 5.836991 -0.546875
v 0.243241 5.836991 -0.484375
v 0.235497 5.875000 -0.546875
v 0.235497 5.875000 -0.484375
v 0.227714 5.845955 -0.546875
v 0.227714 5.845955 -0.484375
v 0.202003 5.875000 -0.546875
v 0.202003 5.875000 -0.484375
v 0.209786 5.845955 -0.546875
v 0.209786 5.845955 -0.484375
v 0.172997 5.858253 -0.546875
v 0.172997 5.858253 -0.484375
v 0.194259 5.836991 -0.546875
v 0.194259 5.836991 -0.484375
v 0.156250 5.829247 -0.546875
v 0.156250 5.829247 -0.484375
v 0.185295 5.821465 -0.546875
v 0.185295 5.821465 -0.484375
v 0.156250 5.795753 -0.546875
v 0.156250 5.795753 -0.484375
v 0.185295 5.803535 -0.546875
v 0.185295 5.803535 -0.484375
v 0.172997 5.766747 -0.546875
v 0.172997 5.766747 -0.484375
v 0.194259 5.788009 -0.546875
v 0.194259 5.788009 -0.484375
v 0.202003 5.750000 -0.546875
v 0.202003 5.750000 -0.484375
v 0.209786 5.779045 -0.546875
v 0.209786 5.779045 -0.484375
v 0.171875 5.906250 -0.500000
v 0.171875 5.906250 -0.687500
v 0.171875 5.875000 -0.500000
v 0.171875 5.875000 -0.687500
v 0.125000 5.843750 -0.500000
v 0.125000 5.843750 -0.568750
v 0.156250 5.843750 -0.500000
v 0.156250 5.843750 -0.568750
v 0.265625 5.906250 -0.500000
v 0.265625 5.906250 -0.687500
v 0.312500 5.843750 -0.500000
v 0.312500 5.843750 -0.571875
v 0.265625 5.875000 -0.500000
v 0.265625 5.875000 -0.687500
v 0.281250 5.843750 -0.500000
v 0.281250 5.843750 -0.571875
v 0.062500 5.000000 -0.156250
v 0.062500 5.000000 -0.218750
v 0.062500 3.875000 -0.156250
v 0.062500 3.875000 -0.218750
v -0.062500 5.000000 -0.156250
v -0.062500 5.000000 -0.218750
v -0.062500 3.875000 -0.156250
v -0.062500 3.875000 -0.218750
v 0.062500 5.000000 0.218750
v 0.062500 5.000000 0.093750
v 0.062500 3.875000 0.218750
v 0.062500 3.875000 0.093750
v -0.062500 5.000000 0.218750
v -0.062500 5.000000 0.093750
v -0.062500 3.875000 0.218750
v -0.062500 3.875000 0.093750
v 0.062500 5.000000 0.093750
v 0.062500 5.000000 -0.156250
v 0.062500 4.937500 0.093750
v 0.062500 4.937500 -0.156250
v -0.062500 5.000000 0.093750
v -0.062500 5.000000 -0.156250
v -0.062500 4.937500 0.093750
v -0.062500 4.937500 -0.156250
v 0.062500 4.562500 0.093750
v 0.062500 4.562500 -0.156250
v 0.062500 4.500000 0.093750
v 0.062500 4.500000 -0.156250
v -0.062500 4.562500 0.093750
v -0.062500 4.562500 -0.156250
v -0.062500 4.500000 0.093750
v -0.062500 4.500000 -0.156250
v 0.062500 4.062500 0.093750
v 0.062500 4.062500 -0.156250
v 0.062500 4.000000 0.093750
v 0.062500 4.000000 -0.156250
v -0.062500 4.062500 0.093750
v -0.062500 4.062500 -0.156250
v -0.062500 4.000000 0.093750
v -0.062500 4.000000 -0.156250
v 0.062500 3.875000 0.218750
v 0.062500 3.875000 0.093750
v 0.062500 2.875000 0.218750
v 0.062500 2.875000 0.093750
v -0.062500 3.875000 0.218750
v -0.062500 3.875000 0.093750
v -0.062500 2.875000 0.218750
v -0.062500 2.875000 0.093750
v 0.062500 3.875000 -0.156250
v 0.062500 3.875000 -0.218750
v 0.062500 2.875000 -0.156250
v 0.062500 2.875000 -0.218750
v -0.062500 3.875000 -0.156250
v -0.062500 3.875000 -0.218750
v -0.062500 2.875000 -0.156250
v -0.062500 2.875000 -0.218750
v 0.062500 3.562500 0.093750
v 0.062500 3.562500 -0.156250
v 0.062500 3.500000 0.093750
v 0.062500 3.500000 -0.156250
v -0.062500 3.562500 0.093750
v -0.062500 3.562500 -0.156250
v -0.062500 3.500000 0.093750
v -0.062500 3.500000 -0.156250
v 0.062500 3.062500 0.093750
v 0.062500 3.062500 -0.156250
v 0.062500 3.000000 0.093750
v 0.062500 3.000000 -0.156250
v -0.062500 3.062500 0.093750
v -0.062500 3.062500 -0.156250
v -0.062500 3.000000 0.093750
v -0.062500 3.000000 -0.156250
v 0.062500 2.875000 0.218750
v 0.062500 2.875000 0.093750
v 0.062500 1.875000 0.218750
v 0.062500 1.875000 0.093750
v -0.062500 2.875000 0.218750
v -0.062500 2.875000 0.093750
v -0.062500 1.875000 0.218750
v -0.062500 1.875000 0.093750
v 0.062500 2.875000 -0.156250
v 0.062500 2.875000 -0.218750
v 0.062500 1.875000 -0.156250
v 0.062500 1.875000 -0.218750
v -0.062500 2.875000 -0.156250
v -0.062500 2.875000 -0.218750
v -0.062500 1.875000 -0.156250
v -0.062500 1.875000 -0.218750
v 0.062500 2.562500 0.093750
v 0.062500 2.562500 -0.156250
v 0.062500 2.500000 0.093750
v 0.062500 2.500000 -0.156250
v -0.062500 2.562500 0.093750
v -0.062500 2.562500 -0.156250
v -0.062500 2.500000 0.093750
v -0.062500 2.500000 -0.156250
v 0.062500 2.062500 0.093750
v 0.062500 2.062500 -0.156250
v 0.062500 2.000000 0.093750
v 0.062500 2.000000 -0.156250
v -0.062500 2.062500 0.093750
v -0.062500 2.062500 -0.156250
v -0.062500 2.000000 0.093750
v -0.062500 2.000000 -0.156250
v 0.062500 1.875000 0.218750
v 0.062500 1.875000 0.093750
v 0.062500 0.875000 0.218750
v 0.062500 0.875000 0.093750
v -0.062500 1.875000 0.218750
v -0.062500 1.875000 0.093750
v -0.062500 0.875000 0.218750
v -0.062500 0.875000 0.093750
v 0.062500 1.875000 -0.156250
v 0.062500 1.875000 -0.218750
v 0.062500 0.875000 -0.156250
v 0.062500 0.875000 -0.218750
v -0.062500 1.875000 -0.156250
v -0.062500 1.875000 -0.218750
v -0.062500 0.875000 -0.156250
v -0.062500 0.875000 -0.218750
v 0.062500 1.562500 0.093750
v 0.062500 1.562500 -0.156250
v 0.062500 1.500000 0.093750
v 0.062500 1.500000 -0.156250
v -0.062500 1.562500 0.093750
v -0.062500 1.562500 -0.156250
v -0.062500 1.500000 0.093750
v -0.062500 1.500000 -0.156250
v 0.062500 1.062500 0.093750
v 0.062500 1.062500 -0.156250
v 0.062500 1.000000 0.093750
v 0.062500 1.000000 -0.156250
v -0.062500 1.062500 0.093750
v -0.062500 1.062500 -0.156250
v -0.062500 1.000000 0.093750
v -0.062500 1.000000 -0.156250
v 0.062500 0.875000 0.218750
v 0.062500 0.875000 0.093750
v 0.062500 -0.125000 0.218750
v 0.062500 -0.125000 0.093750
v -0.062500 0.875000 0.218750
v -0.062500 0.875000 0.093750
v -0.062500 -0.125000 0.218750
v -0.062500 -0.125000 0.093750
v 0.062500 0.875000 -0.156250
v 0.062500 0.875000 -0.218750
v 0.062500 -0.125000 -0.156250
v 0.062500 -0.125000 -0.218750
v -0.062500 0.875000 -0.156250
v -0.062500 0.875000 -0.218750
v -0.062500 -0.125000 -0.156250
v -0.062500 -0.125000 -0.218750
v 0.062500 0.562500 0.093750
v 0.062500 0.562500 -0.156250
v 0.062500 0.500000 0.093750
v 0.062500 0.500000 -0.156250
v -0.062500 0.562500 0.093750
v -0.062500 0.562500 -0.156250
v -0.062500 0.500000 0.093750
v -0.062500 0.500000 -0.156250
v 0.093750 0.062500 0.093750
v 0.093750 0.062500 -0.156250
v 0.093750 0.000000 0.093750
v 0.093750 -0.000000 -0.156250
v -0.093750 0.062500 0.093750
v -0.093750 0.062500 -0.156250
v -0.093750 0.000000 0.093750
v -0.093750 -0.000000 -0.156250
v 0.375000 0.250000 0.375000
v 0.375000 0.250000 -0.375000
v 0.375000 -0.187500 0.375000
v 0.375000 -0.187500 -0.375000
v -0.375000 0.250000 0.375000
v -0.375000 0.250000 -0.375000
v -0.375000 -0.187500 0.375000
v -0.375000 -0.187500 -0.375000
v 0.312500 0.312500 0.250000
v 0.312500 0.312500 -0.250000
v 0.312500 0.250000 0.250000
v 0.312500 0.250000 -0.250000
v -0.312500 0.312500 0.250000
v -0.312500 0.312500 -0.250000
v -0.312500 0.250000 0.250000
v -0.312500 0.250000 -0.250000
v -0.057455 0.711406 -0.162500
v -0.057455 0.711406 -0.212500
v 0.065879 0.666516 -0.162500
v 0.065879 0.666516 -0.212500
v -0.249842 0.182829 -0.162500
v -0.249842 0.182829 -0.212500
v -0.126507 0.137939 -0.162500
v -0.126507 0.137939 -0.212500
v -0.057455 0.711406 0.212500
v -0.057455 0.711406 0.100000
v 0.065879 0.666516 0.212500
v 0.065879 0.666516 0.100000
v -0.249842 0.182829 0.212500
v -0.249842 0.182829 0.100000
v -0.126507 0.137939 0.212500
v -0.126507 0.137939 0.100000
v 0.249842 0.182829 -0.162500
v 0.249842 0.182829 -0.212500
v 0.126507 0.137939 -0.162500
v 0.126507 0.137939 -0.212500
v 0.057455 0.711406 -0.162500
v 0.057455 0.711406 -0.212500
v -0.065879 0.666516 -0.162500
v -0.065879 0.666516 -0.212500
v 0.249842 0.182829 0.212500
v 0.249842 0.182829 0.100000
v 0.126507 0.137939 0.212500
v 0.126507 0.137939 0.100000
v 0.057455 0.711406 0.212500
v 0.057455 0.711406 0.100000
v -0.065879 0.666516 0.212500
v -0.065879 0.666516 0.100000
v 0.296875 1.312500 0.500000
v 0.296875 1.312500 0.125000
v 0.296875 0.500000 0.500000
v 0.296875 0.500000 0.125000
v -0.328125 1.312500 0.500000
v -0.328125 1.312500 0.125000
v -0.328125 0.500000 0.500000
v -0.328125 0.500000 0.125000
v 0.250000 5.875000 0.687500
v 0.250000 5.875000 0.625000
v 0.250000 5.000000 0.687500
v 0.250000 5.000000 0.625000
v 0.187500 5.875000 0.687500
v 0.187500 5.875000 0.625000
v 0.187500 5.000000 0.687500
v 0.187500 5.000000 0.625000
v -0.187500 5.875000 0.687500
v -0.187500 5.875000 0.625000
v -0.187500 5.000000 0.687500
v -0.187500 5.000000 0.625000
v -0.250000 5.875000 0.687500
v -0.250000 5.875000 0.625000
v -0.250000 5.000000 0.687500
v -0.250000 5.000000 0.625000
v 0.368750 5.884903 0.300697
v 0.368750 5.874051 0.239147
v 0.368750 5.084747 0.441786
v 0.368750 5.073894 0.380236
v 0.306250 5.884903 0.300697
v 0.306250 5.874051 0.239147
v 0.306250 5.084747 0.441786
v 0.306250 5.073894 0.380236
v -0.318750 5.884903 0.300697
v -0.318750 5.874051 0.239147
v -0.318750 5.084747 0.441786
v -0.318750 5.073894 0.380236
v -0.381250 5.884903 0.300697
v -0.381250 5.874051 0.239147
v -0.381250 5.084747 0.441786
v -0.381250 5.073894 0.380236
v 0.312500 5.937500 0.687500
v 0.312500 5.937500 0.625000
v 0.312500 5.875000 0.687500
v 0.312500 5.875000 0.625000
v -0.312500 5.937500 0.687500
v -0.312500 5.937500 0.625000
v -0.312500 5.875000 0.687500
v -0.312500 5.875000 0.625000
v 0.375000 5.812500 -0.343750
v 0.375000 5.812500 -0.437500
v 0.375000 5.000000 -0.343750
v 0.375000 5.000000 -0.437500
v 0.312500 5.812500 -0.343750
v 0.312500 5.812500 -0.437500
v 0.312500 5.000000 -0.343750
v 0.312500 5.000000 -0.437500
v -0.312500 5.812500 -0.343750
v -0.312500 5.812500 -0.437500
v -0.312500 5.000000 -0.343750
v -0.312500 5.000000 -0.437500
v -0.375000 5.812500 -0.343750
v -0.375000 5.812500 -0.437500
v -0.375000 5.000000 -0.343750
v -0.375000 5.000000 -0.437500
v -0.312500 5.937500 0.562500
v -0.312500 5.937500 -0.000000
v -0.312500 5.875000 0.562500
v -0.312500 5.875000 -0.000000
v -0.375000 5.937500 0.562500
v -0.375000 5.937500 -0.000000
v -0.375000 5.875000 0.562500
v -0.375000 5.875000 -0.000000
v 0.250000 5.000000 0.687500
v 0.250000 5.000000 0.218750
v 0.250000 4.937500 0.687500
v 0.250000 4.937500 0.218750
v -0.250000 5.000000 0.687500
v -0.250000 5.000000 0.218750
v -0.250000 4.937500 0.687500
v -0.250000 4.937500 0.218750
v -0.312500 5.937500 0.656250
v -0.312500 5.937500 0.562500
v -0.312500 5.875000 0.656250
v -0.312500 5.875000 0.562500
v -0.375000 5.937500 0.656250
v -0.375000 5.937500 0.562500
v -0.375000 5.875000 0.656250
v -0.375000 5.875000 0.562500
v 0.375000 5.937500 0.562500
v 0.375000 5.937500 -0.000000
v 0.375000 5.875000 0.562500
v 0.375000 5.875000 -0.000000
v 0.312500 5.937500 0.562500
v 0.312500 5.937500 -0.000000
v 0.312500 5.875000 0.562500
v 0.312500 5.875000 -0.000000
v 0.375000 5.937500 0.656250
v 0.375000 5.937500 0.562500
v 0.375000 5.875000 0.656250
v 0.375000 5.875000 0.562500
v 0.312500 5.937500 0.656250
v 0.312500 5.937500 0.562500
v 0.312500 5.875000 0.656250
v 0.312500 5.875000 0.562500
v 0.375000 5.000000 -0.343750
v 0.375000 5.000000 -0.437500
v 0.375000 4.937500 -0.343750
v 0.375000 4.937500 -0.437500
v -0.375000 5.000000 -0.343750
v -0.375000 5.000000 -0.437500
v -0.375000 4.937500 -0.343750
v -0.375000 4.937500 -0.437500
v 0.125000 4.718750 -0.343750
v 0.125000 4.718750 -0.437500
v 0.125000 4.687500 -0.343750
v 0.125000 4.687500 -0.437500
v -0.125000 4.718750 -0.343750
v -0.125000 4.718750 -0.437500
v -0.125000 4.687500 -0.343750
v -0.125000 4.687500 -0.437500
v 0.062500 4.718750 -0.218750
v 0.062500 4.718750 -0.343750
v 0.062500 4.687500 -0.218750
v 0.062500 4.687500 -0.343750
v -0.062500 4.718750 -0.218750
v -0.062500 4.718750 -0.343750
v -0.062500 4.687500 -0.218750
v -0.062500 4.687500 -0.343750
v -0.102903 4.709597 -0.337500
v -0.102903 4.709597 -0.431250
v -0.125000 4.687500 -0.337500
v -0.125000 4.687500 -0.431250
v -0.352903 4.959597 -0.337500
v -0.352903 4.959597 -0.431250
v -0.375000 4.937500 -0.337500
v -0.375000 4.937500 -0.431250
v 0.352903 4.959597 -0.337500
v 0.352903 4.959597 -0.431250
v 0.375000 4.937500 -0.337500
v 0.375000 4.937500 -0.431250
v 0.102903 4.709597 -0.337500
v 0.102903 4.709597 -0.431250
v 0.125000 4.687500 -0.337500
v 0.125000 4.687500 -0.431250
v 0.062500 5.062500 -0.187500
v 0.062500 5.062500 -0.312500
v 0.062500 4.937500 -0.187500
v 0.062500 4.937500 -0.312500
v -0.062500 5.062500 -0.187500
v -0.062500 5.062500 -0.312500
v -0.062500 4.937500 -0.187500
v -0.062500 4.937500 -0.312500
v -0.343750 5.812500 -0.218750
v -0.343750 5.812500 -0.406250
v -0.343750 5.781250 -0.218750
v -0.343750 5.781250 -0.406250
v -0.406250 5.812500 -0.218750
v -0.406250 5.812500 -0.406250
v -0.406250 5.781250 -0.218750
v -0.406250 5.781250 -0.406250
v -0.343750 5.156250 -0.218750
v -0.343750 5.156250 -0.406250
v -0.343750 5.125000 -0.218750
v -0.343750 5.125000 -0.406250
v -0.406250 5.156250 -0.218750
v -0.406250 5.156250 -0.406250
v -0.406250 5.125000 -0.218750
v -0.406250 5.125000 -0.406250
v 0.406250 5.781250 -0.187500
v 0.406250 5.781250 -0.218750
v 0.406250 5.156250 -0.187500
v 0.406250 5.156250 -0.218750
v 0.343750 5.781250 -0.187500
v 0.343750 5.781250 -0.218750
v 0.343750 5.156250 -0.187500
v 0.343750 5.156250 -0.218750
v 0.406250 5.812500 -0.218750
v 0.406250 5.812500 -0.406250
v 0.406250 5.781250 -0.218750
v 0.406250 5.781250 -0.406250
v 0.343750 5.812500 -0.218750
v 0.343750 5.812500 -0.406250
v 0.343750 5.781250 -0.218750
v 0.343750 5.781250 -0.406250
v 0.406250 5.156250 -0.218750
v 0.406250 5.156250 -0.406250
v 0.406250 5.125000 -0.218750
v 0.406250 5.125000 -0.406250
v 0.343750 5.156250 -0.218750
v 0.343750 5.156250 -0.406250
v 0.343750 5.125000 -0.218750
v 0.343750 5.125000 -0.406250
v -0.343750 5.781250 -0.187500
v -0.343750 5.781250 -0.218750
v -0.343750 5.156250 -0.187500
v -0.343750 5.156250 -0.218750
v -0.406250 5.781250 -0.187500
v -0.406250 5.781250 -0.218750
v -0.406250 5.156250 -0.187500
v -0.406250 5.156250 -0.218750
v 0.375000 6.000000 -0.437500
v 0.375000 6.000000 -0.500000
v 0.375000 5.000000 -0.437500
v 0.375000 5.000000 -0.500000
v -0.375000 6.000000 -0.437500
v -0.375000 6.000000 -0.500000
v -0.375000 5.000000 -0.437500
v -0.375000 5.000000 -0.500000
v 0.312500 6.000000 -0.312500
v 0.312500 6.000000 -0.437500
v 0.312500 5.000000 -0.312500
v 0.312500 5.000000 -0.437500
v -0.312500 6.000000 -0.312500
v -0.312500 6.000000 -0.437500
v -0.312500 5.000000 -0.312500
v -0.312500 5.000000 -0.437500
v 0.218750 5.621875 -0.500000
v 0.218750 5.621875 -0.937500
v 0.218750 5.590625 -0.500000
v 0.218750 5.590625 -0.937500
v 0.093750 5.621875 -0.500000
v 0.093750 5.621875 -0.937500
v 0.093750 5.590625 -0.500000
v 0.093750 5.590625 -0.937500
v 0.027459 5.512500 -0.500000
v 0.027459 5.512500 -0.562500
v 0.027459 5.448889 -0.500000
v 0.027459 5.448889 -0.562500
v -0.003791 5.512500 -0.500000
v -0.003791 5.512500 -0.562500
v -0.003791 5.448889 -0.500000
v -0.003791 5.448889 -0.562500
v 0.315625 5.512500 -0.500000
v 0.315625 5.512500 -0.562500
v 0.315625 5.448889 -0.500000
v 0.315625 5.448889 -0.562500
v 0.284375 5.512500 -0.500000
v 0.284375 5.512500 -0.562500
v 0.284375 5.448889 -0.500000
v 0.284375 5.448889 -0.562500
v -0.093750 5.621875 -0.500000
v -0.093750 5.621875 -0.937500
v -0.093750 5.590625 -0.500000
v -0.093750 5.590625 -0.937500
v -0.218750 5.621875 -0.500000
v -0.218750 5.621875 -0.937500
v -0.218750 5.590625 -0.500000
v -0.218750 5.590625 -0.937500
v -0.285041 5.512500 -0.500000
v -0.285041 5.512500 -0.562500
v -0.285041 5.448889 -0.500000
v -0.285041 5.448889 -0.562500
v -0.316291 5.512500 -0.500000
v -0.316291 5.512500 -0.562500
v -0.316291 5.448889 -0.500000
v -0.316291 5.448889 -0.562500
v 0.003125 5.512500 -0.500000
v 0.003125 5.512500 -0.562500
v 0.003125 5.448889 -0.500000
v 0.003125 5.448889 -0.562500
v -0.028125 5.512500 -0.500000
v -0.028125 5.512500 -0.562500
v -0.028125 5.448889 -0.500000
v -0.028125 5.448889 -0.562500
v 0.265625 5.906250 -0.500000
v 0.265625 5.906250 -0.687500
v 0.265625 5.875000 -0.500000
v 0.265625 5.875000 -0.687500
v 0.171875 5.906250 -0.500000
v 0.171875 5.906250 -0.687500
v 0.171875 5.875000 -0.500000
v 0.171875 5.875000 -0.687500
v 0.156629 5.843561 -0.490625
v 0.156629 5.843561 -0.568750
v 0.156629 5.781061 -0.490625
v 0.156629 5.781061 -0.568750
v 0.125379 5.843561 -0.490625
v 0.125379 5.843561 -0.568750
v 0.125379 5.781061 -0.490625
v 0.125379 5.781061 -0.568750
v 0.312879 5.843561 -0.490625
v 0.312879 5.843561 -0.568750
v 0.312879 5.781061 -0.490625
v 0.312879 5.781061 -0.568750
v 0.281629 5.843561 -0.490625
v 0.281629 5.843561 -0.568750
v 0.281629 5.781061 -0.490625
v 0.281629 5.781061 -0.568750
v 0.281250 2.062500 -0.212500
v 0.281250 2.062500 -0.275000
v 0.281250 1.250000 -0.212500
v 0.281250 1.250000 -0.275000
v -0.281250 2.062500 -0.212500
v -0.281250 2.062500 -0.275000
v -0.281250 1.250000 -0.212500
v -0.281250 1.250000 -0.275000
vn 0.8387 -0.5446 -0.0000
vn -0.8309 0.5564 -0.0000
vn -0.0000 -1.0000 -0.0000
vn -1.0000 -0.0000 -0.0000
vn -0.0000 -0.0000 1.0000
vn -0.0000 -0.0000 -1.0000
vn 0.8387 0.5446 -0.0000
vn -0.8309 -0.5564 -0.0000
vn -0.0000 1.0000 -0.0000
vn 1.0000 -0.0000 -0.0000
vn -0.8387 -0.5446 -0.0000
vn 0.8309 0.5564 -0.0000
vn -0.8387 0.5446 -0.0000
vn 0.8309 -0.5564 -0.0000
vn 0.7071 -0.6964 0.1228
vn -0.7071 0.6964 -0.1228
vn -0.0000 0.9848 -0.1737
vn -0.0000 -0.9848 0.1736
vn -0.0000 0.1736 0.9848
vn -0.0000 -0.1736 -0.9848
vn 0.7071 0.6964 -0.1228
vn -0.7071 -0.6964 0.1228
vn -0.9487 -0.0000 -0.3162
vn 0.9487 -0.0000 0.3162
vn -0.0000 -0.9912 0.1322
vn -0.9487 -0.0000 0.3162
vn 0.9487 -0.0000 -0.3162
vn -0.0000 0.7071 0.7071
vn -0.0000 -0.7071 0.7071
vn 0.5000 0.8660 -0.0000
vn -0.5000 -0.8660 -0.0000
vn 0.8660 0.5000 -0.0000
vn -0.8660 -0.5000 -0.0000
vn 0.8660 -0.5000 -0.0000
vn -0.8660 0.5000 -0.0000
vn 0.5000 -0.8660 -0.0000
vn -0.5000 0.8660 -0.0000
vn 0.7486 0.6630 -0.0000
vn -0.7657 -0.6432 -0.0000
vn -0.0003 -0.9600 -0.2799
vn -0.0006 -0.9600 -0.2800
vn -0.0004 -0.9600 -0.2799
vn -0.0006 -0.9600 -0.2799
vn 0.7625 -0.6470 -0.0000
vn -0.7463 0.6656 -0.0000
vn 0.0006 -0.9790 -0.2038
vn 0.0004 -0.9790 -0.2039
vn 0.0003 -0.9790 -0.2038
vn -0.0004 -0.9600 -0.2800
vn -0.8000 0.6000 -0.0000
vn 0.8944 -0.4472 -0.0000
vn -0.9302 0.0006 -0.3670
vn -0.9302 0.0004 -0.3671
vn 0.8000 0.6000 -0.0000
vn -0.8944 -0.4472 -0.0000
vn 0.9266 0.0007 -0.3759
vn 0.9268 0.0003 -0.3757
vn 0.9268 0.0005 -0.3756
vn 0.9268 0.0003 -0.3756
vn 0.3420 0.9397 -0.0000
vn -0.3420 -0.9397 -0.0000
vn -0.9397 0.3420 -0.0000
vn 0.9397 -0.3420 -0.0000
vn 0.3420 -0.9397 -0.0000
vn -0.3420 0.9397 -0.0000
vn 0.9397 0.3420 -0.0000
vn -0.9397 -0.3420 -0.0000
vn -0.0000 0.9848 -0.1736
vn -0.0000 -0.9848 0.1737
vn 0.7071 -0.7071 -0.0000
vn -0.7071 0.7071 -0.0000
vn 0.7071 0.7071 -0.0000
vn -0.7071 -0.7071 -0.0000
vt 0.673437 0.882812
vt 0.671875 0.882812
vt 0.671875 0.968750
vt 0.673437 0.968750
vt 0.670313 0.882812
vt 0.670313 0.968750
vt 0.687500 0.953125
vt 0.671875 0.953125
vt 0.671875 0.954687
vt 0.687500 0.954687
vt 0.687500 0.951563
vt 0.671875 0.951563
vt 0.687500 0.882812
vt 0.687500 0.968750
vt 0.656250 0.882812
vt 0.656250 0.968750
vt 0.062500 0.812500
vt 0.062500 1.000000
vt 0.000000 1.000000
vt 0.000000 0.812500
vt 1.000000 0.000000
vt 1.000000 0.062500
vt 0.937500 0.062500
vt 0.937500 0.000000
vt 1.000000 1.000000
vt 1.000000 0.937500
vt 0.468750 0.937500
vt 0.531250 0.937500
vt 0.000000 0.937500
vt 0.093750 0.468750
vt 0.093750 1.000000
vt 0.031250 1.000000
vt 0.031250 0.468750
vt 0.093750 0.000000
vt 0.093750 0.531250
vt 0.031250 0.531250
vt 0.031250 0.000000
vt 0.531250 1.000000
vt 0.468750 1.000000
vt 0.093750 0.937500
vt 0.125000 0.906250
vt 0.093750 0.906250
vt 0.031250 0.937500
vt 0.031250 0.906250
vt 0.000000 0.906250
vt 0.125000 0.875000
vt 0.062500 0.906250
vt 0.062500 0.875000
vt 0.125000 0.937500
vt 0.062500 0.937500
vt 0.125000 0.968750
vt 0.125000 1.000000
vt 0.062500 0.968750
vt 0.296875 0.343750
vt 0.310481 0.343750
vt 0.310481 0.359375
vt 0.296875 0.359375
vt 0.306775 0.359375
vt 0.306775 0.343750
vt 0.296875 0.357521
vt 0.296875 0.347621
vt 0.303793 0.345768
vt 0.303792 0.359375
vt 0.296875 0.352457
vt 0.310482 0.352457
vt 0.308628 0.359375
vt 0.298728 0.359375
vt 0.296875 0.357522
vt 0.296875 0.347622
vt 0.303792 0.345768
vt 0.303793 0.359375
vt 0.308629 0.359375
vt 0.298729 0.359375
vt 0.296875 0.357522
vt 0.296875 0.347622
vt 0.303792 0.345769
vt 0.303792 0.359375
vt 0.298728 0.359375
vt 0.296875 0.352457
vt 0.310482 0.352458
vt 0.303793 0.345768
vt 0.303793 0.359375
vt 0.296875 0.357521
vt 0.296875 0.347621
vt 0.308629 0.359375
vt 0.298729 0.359375
vt 0.296875 0.352458
vt 0.310482 0.352457
vt 0.296875 0.357522
vt 0.308628 0.359375
vt 0.298728 0.359375
vt 0.296875 0.352458
vt 0.310481 0.352458
vt 0.298728 0.352458
vt 0.308628 0.352458
vt 0.303793 0.347622
vt 0.303793 0.357522
vt 0.296876 0.345768
vt 0.310482 0.359375
vt 0.298729 0.352457
vt 0.308629 0.352458
vt 0.303793 0.347621
vt 0.303793 0.357521
vt 0.296876 0.359375
vt 0.296875 0.345768
vt 0.298728 0.352458
vt 0.308628 0.352457
vt 0.303792 0.347622
vt 0.303792 0.357522
vt 0.296875 0.345769
vt 0.298729 0.352457
vt 0.308629 0.352457
vt 0.296875 0.359374
vt 0.303793 0.347622
vt 0.303792 0.357522
vt 0.298728 0.352457
vt 0.308628 0.352457
vt 0.310482 0.359374
vt 0.303792 0.347621
vt 0.303793 0.357521
vt 0.046875 1.000000
vt 0.000000 0.984375
vt 0.046875 0.984375
vt 0.375000 0.421875
vt 0.421875 0.421875
vt 0.421875 0.468750
vt 0.375000 0.468750
vt 0.343750 0.343750
vt 0.343750 0.390625
vt 0.296875 0.390625
vt 0.375000 0.359375
vt 0.375000 0.375000
vt 0.328125 0.375000
vt 0.328125 0.359375
vt 0.390625 0.453125
vt 0.343750 0.453125
vt 0.343750 0.437500
vt 0.390625 0.437500
vt 0.390625 0.359375
vt 0.343750 0.359375
vt 0.390625 0.343750
vt 0.468750 0.078125
vt 0.468750 0.093750
vt 0.421875 0.093750
vt 0.421875 0.078125
vt 0.312500 0.406250
vt 0.359375 0.406250
vt 0.359375 0.453125
vt 0.312500 0.453125
vt 0.390625 0.390625
vt 0.375000 0.328125
vt 0.375000 0.343750
vt 0.328125 0.343750
vt 0.328125 0.328125
vt 0.312500 0.437500
vt 0.359375 0.437500
vt 0.281250 0.343750
vt 0.294856 0.343750
vt 0.294856 0.359375
vt 0.281250 0.359375
vt 0.291150 0.359375
vt 0.291150 0.343750
vt 0.281250 0.357521
vt 0.281250 0.347621
vt 0.288168 0.345768
vt 0.288167 0.359375
vt 0.281250 0.352457
vt 0.294857 0.352457
vt 0.293003 0.359375
vt 0.283103 0.359375
vt 0.281250 0.357522
vt 0.281250 0.347622
vt 0.288167 0.345768
vt 0.288168 0.359375
vt 0.293004 0.359375
vt 0.283104 0.359375
vt 0.281250 0.357522
vt 0.281250 0.347622
vt 0.288167 0.345769
vt 0.288167 0.359375
vt 0.283103 0.359375
vt 0.281250 0.352457
vt 0.294857 0.352458
vt 0.288168 0.345768
vt 0.288168 0.359375
vt 0.281250 0.357521
vt 0.281250 0.347621
vt 0.293004 0.359375
vt 0.283104 0.359375
vt 0.281250 0.352458
vt 0.294857 0.352457
vt 0.281250 0.357522
vt 0.293003 0.359375
vt 0.283103 0.359375
vt 0.281250 0.352458
vt 0.294856 0.352458
vt 0.283103 0.352458
vt 0.293003 0.352458
vt 0.288168 0.347622
vt 0.288168 0.357522
vt 0.281251 0.345768
vt 0.294857 0.359375
vt 0.283104 0.352457
vt 0.293004 0.352458
vt 0.288168 0.347621
vt 0.288168 0.357521
vt 0.281251 0.359375
vt 0.281250 0.345768
vt 0.283103 0.352458
vt 0.293003 0.352457
vt 0.288167 0.347622
vt 0.288167 0.357522
vt 0.281250 0.345769
vt 0.283104 0.352457
vt 0.293004 0.352457
vt 0.281250 0.359374
vt 0.288168 0.347622
vt 0.288167 0.357522
vt 0.283103 0.352457
vt 0.293003 0.352457
vt 0.294857 0.359374
vt 0.288167 0.347621
vt 0.288168 0.357521
vt 0.289622 0.343750
vt 0.289622 0.359375
vt 0.285731 0.359375
vt 0.285731 0.343750
vt 0.281250 0.357427
vt 0.281250 0.352945
vt 0.288514 0.351001
vt 0.288510 0.359375
vt 0.281250 0.352112
vt 0.289624 0.352112
vt 0.287677 0.359375
vt 0.283195 0.359373
vt 0.281250 0.357431
vt 0.281250 0.352948
vt 0.288510 0.351001
vt 0.288514 0.359375
vt 0.287680 0.359373
vt 0.283197 0.359375
vt 0.281250 0.357430
vt 0.281250 0.352948
vt 0.288511 0.351003
vt 0.288511 0.359375
vt 0.287677 0.359375
vt 0.283194 0.359375
vt 0.281250 0.352111
vt 0.289624 0.352115
vt 0.288513 0.351001
vt 0.288513 0.359375
vt 0.281250 0.357428
vt 0.281252 0.352945
vt 0.287680 0.359375
vt 0.283198 0.359375
vt 0.281250 0.352115
vt 0.289624 0.352111
vt 0.281252 0.357430
vt 0.281250 0.352948
vt 0.287677 0.359375
vt 0.283195 0.359375
vt 0.281250 0.352114
vt 0.289622 0.352114
vt 0.283195 0.352114
vt 0.287677 0.352114
vt 0.288514 0.352948
vt 0.288514 0.357431
vt 0.281254 0.351001
vt 0.289624 0.359375
vt 0.283197 0.352112
vt 0.287680 0.352114
vt 0.288514 0.352945
vt 0.288514 0.357427
vt 0.281254 0.359375
vt 0.281250 0.351001
vt 0.283195 0.352114
vt 0.287677 0.352112
vt 0.288511 0.352948
vt 0.288511 0.357430
vt 0.281250 0.351003
vt 0.283198 0.352111
vt 0.287680 0.352111
vt 0.281250 0.359371
vt 0.288513 0.352948
vt 0.288511 0.357430
vt 0.283194 0.352111
vt 0.287677 0.352111
vt 0.289624 0.359371
vt 0.288511 0.352945
vt 0.288513 0.357428
vt 0.375000 0.406250
vt 0.312500 0.343750
vt 0.390625 0.421875
vt 0.328125 0.421875
vt 0.390625 0.406250
vt 0.328125 0.406250
vt 0.359375 0.343750
vt 0.296875 0.406250
vt 0.375000 0.390625
vt 0.312500 0.390625
vt 0.312500 0.328125
vt 0.312500 0.421875
vt 0.312500 0.359375
vt 0.031250 0.750000
vt 0.000000 0.750000
vt 0.046875 0.968750
vt 0.000000 0.968750
vt 0.046875 0.750000
vt 0.171875 0.937500
vt 0.171875 0.953125
vt 0.109375 0.953125
vt 0.109375 0.937500
vt 0.028125 0.937500
vt 0.028125 1.000000
vt 0.028125 0.984375
vt 0.156250 0.906250
vt 0.156250 0.921875
vt 0.093750 0.921875
vt 0.046875 0.937500
vt 0.140625 0.906250
vt 0.140625 0.921875
vt 0.039062 0.968750
vt 0.039062 1.000000
vt 0.007812 1.000000
vt 0.007812 0.968750
vt 0.039062 0.750000
vt 0.007812 0.750000
vt 0.015625 1.000000
vt 0.015625 0.750000
vt 0.039062 0.984375
vt 0.007812 0.984375
vt 0.187500 0.578125
vt 0.187500 0.687500
vt 0.000000 0.687500
vt 0.000000 0.578125
vt 0.187500 0.500000
vt 0.000000 0.500000
vt 0.140625 0.984375
vt 0.140625 1.000000
vt 0.015625 0.984375
vt 0.156250 0.859375
vt 0.156250 0.984375
vt 0.000000 0.859375
vt 0.156250 1.000000
vt 0.020312 0.967188
vt 0.020312 1.000000
vt 0.007812 0.967188
vt 0.140625 0.979688
vt 0.140625 0.992188
vt 0.000000 0.992188
vt 0.000000 0.979688
vt 0.140625 0.967188
vt 0.000000 0.967188
vt 0.028125 0.967188
vt 0.035937 0.967188
vt 0.035937 1.000000
vt 0.140625 0.964063
vt 0.000000 0.964063
vt 0.140625 0.971875
vt 0.000000 0.971875
vt 0.515625 0.843750
vt 0.515625 1.000000
vt 0.437500 1.000000
vt 0.437500 0.843750
vt 0.390625 0.750000
vt 0.390625 0.828125
vt 0.265625 0.828125
vt 0.265625 0.750000
vt 0.390625 0.843750
vt 0.390625 1.000000
vt 0.265625 1.000000
vt 0.265625 0.843750
vt 0.515625 0.515625
vt 0.515625 0.718750
vt 0.500000 0.718750
vt 0.500000 0.515625
vt 0.515625 0.734375
vt 0.500000 0.734375
vt 1.000000 0.812500
vt 0.937500 0.812500
vt 0.750000 0.718750
vt 0.750000 0.734375
vt 0.734375 0.734375
vt 0.734375 0.718750
vt 0.703125 0.718750
vt 0.703125 0.734375
vt 0.546875 0.734375
vt 0.546875 0.718750
vt 0.125000 0.187500
vt 0.031250 0.187500
vt 0.093750 0.187500
vt 0.000000 0.187500
vt 0.062500 0.187500
vt 0.062500 0.000000
vt 0.000000 0.000000
vt 1.000000 0.625000
vt 1.000000 0.687500
vt 0.468750 0.687500
vt 0.468750 0.625000
vt 0.843750 0.562500
vt 0.843750 0.625000
vt 0.312500 0.625000
vt 0.312500 0.562500
vt 0.656250 0.218750
vt 0.656250 0.750000
vt 0.156250 0.750000
vt 0.156250 0.218750
vt 0.500000 0.375000
vt 0.500000 0.906250
vt 0.000000 0.375000
vt 0.718750 0.750000
vt 0.718750 0.812500
vt 0.218750 0.812500
vt 0.218750 0.750000
vt 0.843750 0.500000
vt 0.343750 0.562500
vt 0.343750 0.500000
vt 0.937500 0.937500
vt 0.937500 1.000000
vt 0.843750 1.000000
vt 0.843750 0.937500
vt 0.156250 0.937500
vt 0.125000 0.843750
vt 0.062500 0.843750
vt 0.125000 0.062500
vt 0.125000 0.156250
vt 0.062500 0.156250
vt 0.062500 0.062500
vt 0.562500 0.937500
vt 0.562500 1.000000
vt 0.437500 0.937500
vt 0.125000 0.000000
vt 0.125000 0.562500
vt 0.062500 0.562500
vt 0.125000 0.437500
vt 0.062500 0.437500
vt 0.750000 0.906250
vt 0.750000 1.000000
vt 0.750000 0.875000
vt 0.750000 0.968750
vt 0.000000 0.875000
vt 0.750000 0.937500
vt 0.031250 0.968750
vt 0.093750 0.968750
vt 0.500000 1.000000
vt 0.250000 1.000000
vt 0.250000 0.906250
vt 0.500000 0.875000
vt 0.500000 0.968750
vt 0.250000 0.968750
vt 0.250000 0.875000
vt 0.500000 0.937500
vt 0.250000 0.937500
vt 0.156250 0.968750
vt 0.437500 0.968750
vt 0.312500 0.968750
vt 0.312500 0.843750
vt 0.312500 0.937500
vt 0.603553 0.906250
vt 0.603553 1.000000
vt 0.603553 0.875000
vt 0.603553 0.968750
vt 0.603553 0.937500
vt 0.187500 0.968750
vt 0.187500 1.000000
vt 0.125000 0.812500
vt 0.125000 0.343750
vt 0.093750 0.343750
vt 0.031250 0.343750
vt 0.000000 0.343750
vt 0.062500 0.343750
vt 0.468750 0.468750
vt 0.468750 0.671875
vt 0.453125 0.671875
vt 0.453125 0.468750
vt 0.296875 0.468750
vt 0.296875 0.671875
vt 0.281250 0.671875
vt 0.281250 0.468750
vt 0.468750 0.656250
vt 0.281250 0.656250
vt 0.468750 0.484375
vt 0.281250 0.484375
vt 0.437500 0.671875
vt 0.437500 0.468750
vt 0.312500 0.468750
vt 0.312500 0.671875
vt 0.468750 0.640625
vt 0.281250 0.640625
vt 0.468750 0.500000
vt 0.281250 0.500000
vt 0.031250 0.109375
vt 0.031250 0.125000
vt 0.000000 0.125000
vt 0.000000 0.109375
vt 0.343750 0.351562
vt 0.312500 0.351562
vt 0.312500 0.375000
vt 0.281250 0.375000
vt 0.359375 0.367188
vt 0.359375 0.375000
vt 0.328125 0.367188
vt 0.296875 0.375000
vt 0.296875 0.367188
vt 0.406250 0.452847
vt 0.406250 0.468750
vt 0.390625 0.468750
vt 0.390625 0.452847
vt 0.437500 0.452847
vt 0.421875 0.452847
vt 0.367802 0.406250
vt 0.367802 0.421875
vt 0.359990 0.421875
vt 0.359990 0.406250
vt 0.367802 0.359375
vt 0.367802 0.375000
vt 0.359990 0.375000
vt 0.359990 0.359375
vt 0.399052 0.390347
vt 0.399052 0.406250
vt 0.391240 0.406250
vt 0.391240 0.390347
vt 0.359375 0.390347
vt 0.351562 0.406250
vt 0.351562 0.390347
vt 0.375000 0.343472
vt 0.359375 0.359375
vt 0.359375 0.343472
vt 0.367802 0.453125
vt 0.367802 0.468750
vt 0.359990 0.468750
vt 0.359990 0.453125
vt 0.399052 0.421875
vt 0.399052 0.437500
vt 0.391240 0.437500
vt 0.391240 0.421875
vt 0.414677 0.452847
vt 0.414677 0.468750
vt 0.406865 0.468750
vt 0.406865 0.452847
vt 0.343750 0.343472
vt 0.335938 0.359375
vt 0.335938 0.343472
vt 0.265625 0.453125
vt 0.265625 0.437500
vt 0.296875 0.453125
vt 0.265625 0.406250
vt 0.296875 0.437500
vt 0.324219 0.421875
vt 0.324219 0.437500
vt 0.343750 0.421875
vt 0.332031 0.437500
vt 0.332031 0.421875
vt 0.328125 0.417969
vt 0.320312 0.417969
vt 0.320312 0.406250
vt 0.328125 0.347656
vt 0.320312 0.359375
vt 0.320312 0.347656
vt 0.304688 0.390625
vt 0.304688 0.375000
vt 0.335938 0.515625
vt 0.335938 0.531250
vt 0.328125 0.531250
vt 0.328125 0.515625
vt 0.292969 0.406250
vt 0.292969 0.421875
vt 0.281250 0.421875
vt 0.281250 0.406250
vt 0.300781 0.421875
vt 0.300781 0.406250
vt 0.296875 0.402344
vt 0.289062 0.402344
vt 0.289062 0.390625
vt 0.296875 0.410156
vt 0.296875 0.421875
vt 0.289062 0.421875
vt 0.289062 0.410156
vt 0.328125 0.437500
vt 0.320312 0.437500
vt 0.320312 0.421875
vt 0.546875 0.796875
vt 0.546875 1.000000
vt 0.531250 0.796875
vt 0.671875 0.984375
vt 0.671875 1.000000
vt 0.531250 0.984375
vt 0.140625 0.796875
vt 0.000000 0.796875
vt 0.671875 0.796875
s 1
usemtl m_b2af6bd8-ffc8-ff72-7f7b-7b18782af15d
f 29/17/15 27/18/15 26/19/15 28/20/15
f 32/17/16 30/18/16 31/19/16 33/20/16
f 26/21/17 27/22/17 31/23/17 30/24/17
f 29/21/18 28/22/18 32/23/18 33/24/18
f 28/17/19 26/18/19 30/19/19 32/20/19
f 33/17/20 31/18/20 27/19/20 29/20/20
f 37/17/21 35/18/21 34/19/21 36/20/21
f 40/17/22 38/18/22 39/19/22 41/20/22
f 34/21/17 35/22/17 39/23/17 38/24/17
f 37/21/18 36/22/18 40/23/18 41/24/18
f 36/17/19 34/18/19 38/19/19 40/20/19
f 41/17/20 39/18/20 35/19/20 37/20/20
f 42/25/23 44/26/23 43/27/23
f 45/19/24 46/28/24 47/29/24
f 43/30/9 42/31/9 45/32/9 46/33/9
f 44/34/25 43/35/25 46/36/25 47/37/25
f 47/28/6 45/38/6 42/39/6 44/27/6
f 48/25/26 50/26/26 49/27/26
f 51/19/27 52/28/27 53/29/27
f 49/30/9 48/31/9 51/32/9 52/33/9
f 50/34/25 49/35/25 52/36/25 53/37/25
f 53/28/6 51/38/6 48/39/6 50/27/6
f 54/40/4 56/41/4 55/42/4
f 57/43/10 58/44/10 59/45/10
f 56/46/3 55/41/3 58/47/3 59/48/3
f 55/41/28 54/49/28 57/50/28 58/47/28
f 59/47/6 57/50/6 54/29/6 56/45/6
f 61/49/10 60/40/10 62/42/10
f 63/43/4 64/29/4 65/44/4
f 60/51/9 61/52/9 64/18/9 63/53/9
f 62/41/29 60/49/29 63/50/29 65/47/29
f 65/47/6 64/50/6 61/29/6 62/45/6
f 66/40/4 68/41/4 67/42/4
f 69/43/10 70/44/10 71/45/10
f 68/46/3 67/41/3 70/47/3 71/48/3
f 67/41/28 66/49/28 69/50/28 70/47/28
f 71/47/6 69/50/6 66/29/6 68/45/6
f 73/49/10 72/40/10 74/42/10
f 75/43/4 76/29/4 77/44/4
f 72/51/9 73/52/9 76/18/9 75/53/9
f 74/41/29 72/49/29 75/50/29 77/47/29
f 77/47/6 76/50/6 73/29/6 74/45/6
f 643/21/10 641/379/10 640/380/10 642/24/10
f 646/21/4 644/379/4 645/380/4 647/24/4
f 640/21/68 641/22/68 645/23/68 644/24/68
f 643/21/69 642/22/69 646/23/69 647/24/69
f 642/21/19 640/379/19 644/380/19 646/24/19
f 647/21/20 645/379/20 641/380/20 643/24/20
f 651/21/10 649/379/10 648/380/10 650/24/10
f 654/21/4 652/379/4 653/380/4 655/24/4
f 648/21/68 649/22/68 653/23/68 652/24/68
f 651/21/69 650/22/69 654/23/69 655/24/69
f 650/21/19 648/379/19 652/380/19 654/24/19
f 655/21/20 653/379/20 649/380/20 651/24/20
f 667/389/10 665/52/10 664/32/10 666/390/10
f 670/391/4 668/31/4 669/19/4 671/392/4
f 664/41/9 665/52/9 669/18/9 668/47/9
f 667/46/3 666/51/3 670/53/3 671/48/3
f 666/389/5 664/52/5 668/18/5 670/393/5
f 671/393/6 669/18/6 665/19/6 667/392/6
f 675/389/10 673/52/10 672/32/10 674/390/10
f 678/391/4 676/31/4 677/19/4 679/392/4
f 672/41/9 673/52/9 677/18/9 676/47/9
f 675/46/3 674/51/3 678/53/3 679/48/3
f 674/389/5 672/52/5 676/18/5 678/393/5
f 679/393/6 677/18/6 673/19/6 675/392/6
f 683/26/10 681/25/10 680/19/10 682/29/10
f 686/26/4 684/25/4 685/19/4 687/29/4
f 680/394/9 681/18/9 685/19/9 684/395/9
f 683/394/3 682/18/3 686/19/3 687/395/3
f 682/49/5 680/52/5 684/18/5 686/50/5
f 687/50/6 685/18/6 681/19/6 683/29/6
f 691/396/10 689/397/10 688/398/10 690/399/10
f 694/400/4 692/401/4 693/402/4 695/403/4
f 688/404/9 689/405/9 693/406/9 692/407/9
f 691/408/3 690/409/3 694/45/3 695/410/3
f 690/411/5 688/412/5 692/413/5 694/414/5
f 695/415/6 693/400/6 689/416/6 691/417/6
f 699/418/10 697/419/10 696/420/10 698/421/10
f 702/422/4 700/344/4 701/18/4 703/50/4
f 696/423/9 697/49/9 701/50/9 700/424/9
f 699/425/3 698/426/3 702/427/3 703/428/3
f 698/49/5 696/52/5 700/18/5 702/50/5
f 703/50/6 701/18/6 697/19/6 699/29/6
f 707/429/10 705/430/10 704/19/10 706/29/10
f 710/26/4 708/25/4 709/363/4 711/431/4
f 704/432/9 705/433/9 709/434/9 708/394/9
f 707/435/3 706/52/3 710/18/3 711/436/3
f 706/49/5 704/52/5 708/18/5 710/50/5
f 711/50/6 709/18/6 705/19/6 707/29/6
f 715/418/10 713/419/10 712/420/10 714/421/10
f 718/422/4 716/344/4 717/18/4 719/50/4
f 712/423/9 713/49/9 717/50/9 716/424/9
f 715/425/3 714/426/3 718/427/3 719/428/3
f 714/49/5 712/52/5 716/18/5 718/50/5
f 719/50/6 717/18/6 713/19/6 715/29/6
f 723/49/10 721/52/10 720/32/10 722/43/10
f 726/40/4 724/31/4 725/19/4 727/29/4
f 720/437/9 721/438/9 725/19/9 724/45/9
f 723/439/3 722/440/3 726/307/3 727/441/3
f 722/442/5 720/438/5 724/19/5 726/29/5
f 727/442/6 725/438/6 721/19/6 723/29/6
f 731/49/10 729/51/10 728/443/10 730/43/10
f 734/40/4 732/444/4 733/307/4 735/29/4
f 728/409/9 729/445/9 733/446/9 732/447/9
f 731/448/3 730/449/3 734/450/3 735/451/3
f 730/452/5 728/449/5 732/450/5 734/453/5
f 735/452/6 733/449/6 729/450/6 731/453/6
f 739/422/10 737/454/10 736/443/10 738/43/10
f 742/422/4 740/454/4 741/443/4 743/43/4
f 736/364/9 737/455/9 741/456/9 740/457/9
f 739/364/3 738/455/3 742/456/3 743/457/3
f 738/431/5 736/455/5 740/456/5 742/458/5
f 743/431/6 741/455/6 737/456/6 739/458/6
f 747/49/70 745/51/70 744/443/70 746/43/70
f 750/40/71 748/444/71 749/307/71 751/29/71
f 744/409/72 745/445/72 749/446/72 748/447/72
f 747/448/73 746/449/73 750/450/73 751/451/73
f 746/452/5 744/449/5 748/450/5 750/453/5
f 751/452/6 749/449/6 745/450/6 747/453/6
f 755/49/72 753/51/72 752/443/72 754/43/72
f 758/40/73 756/444/73 757/307/73 759/29/73
f 752/459/71 753/460/71 757/446/71 756/447/71
f 755/461/70 754/462/70 758/450/70 759/451/70
f 754/463/5 752/462/5 756/450/5 758/453/5
f 759/463/6 757/462/6 753/450/6 755/453/6
f 763/46/10 761/52/10 760/19/10 762/441/10
f 766/46/4 764/52/4 765/19/4 767/441/4
f 760/46/9 761/52/9 765/19/9 764/441/9
f 763/46/3 762/52/3 766/19/3 767/441/3
f 762/46/5 760/52/5 764/19/5 766/441/5
f 767/46/6 765/52/6 761/19/6 763/441/6
f 771/464/10 769/465/10 768/19/10 770/307/10
f 774/464/4 772/465/4 773/19/4 775/307/4
f 768/466/9 769/52/9 773/18/9 772/17/9
f 771/466/3 770/52/3 774/18/3 775/17/3
f 770/51/5 768/52/5 772/18/5 774/53/5
f 775/53/6 773/18/6 769/19/6 771/307/6
f 779/464/10 777/465/10 776/19/10 778/307/10
f 782/464/4 780/465/4 781/19/4 783/307/4
f 776/466/9 777/52/9 781/18/9 780/17/9
f 779/466/3 778/52/3 782/18/3 783/17/3
f 778/51/5 776/52/5 780/18/5 782/53/5
f 783/53/6 781/18/6 777/19/6 779/307/6
f 787/467/10 785/51/10 784/444/10 786/468/10
f 790/469/4 788/443/4 789/307/4 791/470/4
f 784/51/9 785/52/9 789/18/9 788/53/9
f 787/46/3 786/41/3 790/47/3 791/48/3
f 786/467/5 784/51/5 788/53/5 790/471/5
f 791/471/6 789/53/6 785/307/6 787/470/6
f 795/464/10 793/465/10 792/19/10 794/307/10
f 798/464/4 796/465/4 797/19/4 799/307/4
f 792/466/9 793/52/9 797/18/9 796/17/9
f 795/466/3 794/52/3 798/18/3 799/17/3
f 794/51/5 792/52/5 796/18/5 798/53/5
f 799/53/6 797/18/6 793/19/6 795/307/6
f 803/464/10 801/465/10 800/19/10 802/307/10
f 806/464/4 804/465/4 805/19/4 807/307/4
f 800/466/9 801/52/9 805/18/9 804/17/9
f 803/466/3 802/52/3 806/18/3 807/17/3
f 802/51/5 800/52/5 804/18/5 806/53/5
f 807/53/6 805/18/6 801/19/6 803/307/6
f 811/467/10 809/51/10 808/444/10 810/468/10
f 814/469/4 812/443/4 813/307/4 815/470/4
f 808/51/9 809/52/9 813/18/9 812/53/9
f 811/46/3 810/41/3 814/47/3 815/48/3
f 810/467/5 808/51/5 812/53/5 814/471/5
f 815/471/6 813/53/6 809/307/6 811/470/6
usemtl m_3d215661-f591-00a8-53e2-d8d611c756be
f 4/1/1 3/2/1 1/3/1 2/4/1
f 7/2/2 8/5/2 6/6/2 5/3/2
f 1/7/3 5/8/3 6/9/3 2/10/3
f 4/11/4 3/7/4 7/8/4 8/12/4
f 3/13/5 7/2/5 5/3/5 1/14/5
f 8/2/6 4/15/6 2/16/6 6/3/6
f 12/1/7 10/4/7 9/3/7 11/2/7
f 15/2/8 13/3/8 14/6/8 16/5/8
f 9/7/9 10/10/9 14/9/9 13/8/9
f 12/11/10 11/7/10 15/8/10 16/12/10
f 11/13/5 9/14/5 13/3/5 15/2/5
f 16/2/6 14/3/6 10/16/6 12/15/6
f 4/1/11 18/4/11 17/3/11 3/2/11
f 7/2/12 19/3/12 20/6/12 8/5/12
f 17/7/3 18/10/3 20/9/3 19/8/3
f 3/13/5 17/14/5 19/3/5 7/2/5
f 8/2/6 20/3/6 18/16/6 4/15/6
f 12/1/13 11/2/13 21/3/13 22/4/13
f 15/2/14 16/5/14 24/6/14 23/3/14
f 21/7/9 23/8/9 24/9/9 22/10/9
f 11/13/5 15/2/5 23/3/5 21/14/5
f 16/2/6 12/15/6 22/16/6 24/3/6
f 89/54/30 93/55/30 94/56/30 90/57/30
f 92/58/31 96/57/31 95/54/31 91/59/31
f 91/60/5 95/61/5 93/62/5 89/63/5
f 90/64/6 94/65/6 96/66/6 92/67/6
f 93/54/32 97/55/32 98/56/32 94/57/32
f 96/58/33 100/57/33 99/54/33 95/59/33
f 95/68/5 99/69/5 97/70/5 93/71/5
f 94/64/6 98/65/6 100/72/6 96/73/6
f 97/54/10 101/55/10 102/56/10 98/57/10
f 100/58/4 104/57/4 103/54/4 99/59/4
f 99/74/5 103/75/5 101/76/5 97/77/5
f 98/76/6 102/77/6 104/74/6 100/75/6
f 101/54/34 105/55/34 106/56/34 102/57/34
f 104/58/35 108/57/35 107/54/35 103/59/35
f 103/66/5 107/78/5 105/79/5 101/80/5
f 102/81/6 106/82/6 108/83/6 104/84/6
f 105/54/36 109/55/36 110/56/36 106/57/36
f 108/58/37 112/57/37 111/54/37 107/59/37
f 107/85/5 111/86/5 109/87/5 105/88/5
f 106/81/6 110/82/6 112/89/6 108/69/6
f 109/54/3 113/55/3 114/56/3 110/57/3
f 112/58/9 116/57/9 115/54/9 111/59/9
f 111/90/5 115/91/5 113/92/5 109/93/5
f 110/56/6 114/57/6 116/94/6 112/95/6
f 113/54/31 117/55/31 118/56/31 114/57/31
f 116/58/30 120/57/30 119/54/30 115/59/30
f 115/96/5 119/97/5 117/57/5 113/98/5
f 114/99/6 118/57/6 120/100/6 116/101/6
f 117/54/33 121/55/33 122/56/33 118/57/33
f 120/58/32 124/57/32 123/54/32 119/59/32
f 119/102/5 123/103/5 121/104/5 117/105/5
f 118/99/6 122/57/6 124/106/6 120/107/6
f 121/54/4 125/55/4 126/56/4 122/57/4
f 124/58/10 128/57/10 127/54/10 123/59/10
f 123/108/5 127/109/5 125/57/5 121/110/5
f 122/57/6 126/110/6 128/108/6 124/109/6
f 125/54/35 129/55/35 130/56/35 126/57/35
f 128/58/34 132/57/34 131/54/34 127/59/34
f 127/111/5 131/112/5 129/99/5 125/113/5
f 126/57/6 130/105/6 132/114/6 128/115/6
f 129/54/37 133/55/37 134/56/37 130/57/37
f 132/58/36 136/57/36 135/54/36 131/59/36
f 131/116/5 135/117/5 133/118/5 129/57/5
f 130/57/6 134/105/6 136/119/6 132/120/6
f 133/54/9 89/55/9 90/56/9 134/57/9
f 136/58/3 92/57/3 91/54/3 135/59/3
f 135/94/5 91/95/5 89/56/5 133/57/5
f 134/92/6 90/93/6 92/90/6 136/91/6
f 138/121/3 137/19/3 139/122/3 140/123/3
f 143/123/4 141/121/4 142/19/4 144/122/4
f 141/124/38 137/125/38 138/126/38 142/127/38
f 140/128/39 139/129/39 143/130/39 144/54/39
f 139/131/5 137/132/5 141/133/5 143/134/5
f 142/135/40 138/136/41 140/137/42 144/138/43
f 146/139/3 145/140/3 147/128/3 148/141/3
f 151/142/10 149/143/10 150/144/10 152/145/10
f 149/146/44 145/147/44 146/148/44 150/149/44
f 148/150/45 147/138/45 151/137/45 152/129/45
f 147/151/5 145/152/5 149/153/5 151/154/5
f 150/148/46 146/149/47 148/155/46 152/156/48
f 153/157/30 157/158/30 158/159/30 154/160/30
f 156/161/31 160/160/31 159/157/31 155/162/31
f 155/163/5 159/164/5 157/165/5 153/166/5
f 154/167/6 158/168/6 160/169/6 156/170/6
f 157/157/32 161/158/32 162/159/32 158/160/32
f 160/161/33 164/160/33 163/157/33 159/162/33
f 159/171/5 163/172/5 161/173/5 157/174/5
f 158/167/6 162/168/6 164/175/6 160/176/6
f 161/157/10 165/158/10 166/159/10 162/160/10
f 164/161/4 168/160/4 167/157/4 163/162/4
f 163/177/5 167/178/5 165/179/5 161/180/5
f 162/179/6 166/180/6 168/177/6 164/178/6
f 165/157/34 169/158/34 170/159/34 166/160/34
f 168/161/35 172/160/35 171/157/35 167/162/35
f 167/169/5 171/181/5 169/182/5 165/183/5
f 166/184/6 170/185/6 172/186/6 168/187/6
f 169/157/36 173/158/36 174/159/36 170/160/36
f 172/161/37 176/160/37 175/157/37 171/162/37
f 171/188/5 175/189/5 173/190/5 169/191/5
f 170/184/6 174/185/6 176/192/6 172/172/6
f 173/157/3 177/158/3 178/159/3 174/160/3
f 176/161/9 180/160/9 179/157/9 175/162/9
f 175/193/5 179/194/5 177/195/5 173/196/5
f 174/159/6 178/160/6 180/197/6 176/198/6
f 177/157/31 181/158/31 182/159/31 178/160/31
f 180/161/30 184/160/30 183/157/30 179/162/30
f 179/199/5 183/200/5 181/160/5 177/201/5
f 178/202/6 182/160/6 184/203/6 180/204/6
f 181/157/33 185/158/33 186/159/33 182/160/33
f 184/161/32 188/160/32 187/157/32 183/162/32
f 183/205/5 187/206/5 185/207/5 181/208/5
f 182/202/6 186/160/6 188/209/6 184/210/6
f 185/157/4 189/158/4 190/159/4 186/160/4
f 188/161/10 192/160/10 191/157/10 187/162/10
f 187/211/5 191/212/5 189/160/5 185/213/5
f 186/160/6 190/213/6 192/211/6 188/212/6
f 189/157/35 193/158/35 194/159/35 190/160/35
f 192/161/34 196/160/34 195/157/34 191/162/34
f 191/214/5 195/215/5 193/202/5 189/216/5
f 190/160/6 194/208/6 196/217/6 192/218/6
f 193/157/37 197/158/37 198/159/37 194/160/37
f 196/161/36 200/160/36 199/157/36 195/162/36
f 195/219/5 199/220/5 197/221/5 193/160/5
f 194/160/6 198/208/6 200/222/6 196/223/6
f 197/157/9 153/158/9 154/159/9 198/160/9
f 200/161/3 156/160/3 155/157/3 199/162/3
f 199/197/5 155/198/5 153/159/5 197/160/5
f 198/195/6 154/196/6 156/193/6 200/194/6
f 212/54/30 216/55/30 217/56/30 213/57/30
f 215/58/31 219/57/31 218/54/31 214/59/31
f 214/60/5 218/61/5 216/62/5 212/63/5
f 213/64/6 217/65/6 219/66/6 215/67/6
f 216/54/32 220/55/32 221/56/32 217/57/32
f 219/58/33 223/57/33 222/54/33 218/59/33
f 218/68/5 222/69/5 220/70/5 216/71/5
f 217/64/6 221/65/6 223/72/6 219/73/6
f 220/54/10 224/55/10 225/56/10 221/57/10
f 223/58/4 227/57/4 226/54/4 222/59/4
f 222/74/5 226/75/5 224/76/5 220/77/5
f 221/76/6 225/77/6 227/74/6 223/75/6
f 224/54/34 228/55/34 229/56/34 225/57/34
f 227/58/35 231/57/35 230/54/35 226/59/35
f 226/66/5 230/78/5 228/79/5 224/80/5
f 225/81/6 229/82/6 231/83/6 227/84/6
f 228/54/36 232/55/36 233/56/36 229/57/36
f 231/58/37 235/57/37 234/54/37 230/59/37
f 230/85/5 234/86/5 232/87/5 228/88/5
f 229/81/6 233/82/6 235/89/6 231/69/6
f 232/54/3 236/55/3 237/56/3 233/57/3
f 235/58/9 239/57/9 238/54/9 234/59/9
f 234/90/5 238/91/5 236/92/5 232/93/5
f 233/56/6 237/57/6 239/94/6 235/95/6
f 236/54/31 240/55/31 241/56/31 237/57/31
f 239/58/30 243/57/30 242/54/30 238/59/30
f 238/96/5 242/97/5 240/57/5 236/98/5
f 237/99/6 241/57/6 243/100/6 239/101/6
f 240/54/33 244/55/33 245/56/33 241/57/33
f 243/58/32 247/57/32 246/54/32 242/59/32
f 242/102/5 246/103/5 244/104/5 240/105/5
f 241/99/6 245/57/6 247/106/6 243/107/6
f 244/54/4 248/55/4 249/56/4 245/57/4
f 247/58/10 251/57/10 250/54/10 246/59/10
f 246/108/5 250/109/5 248/57/5 244/110/5
f 245/57/6 249/110/6 251/108/6 247/109/6
f 248/54/35 252/55/35 253/56/35 249/57/35
f 251/58/34 255/57/34 254/54/34 250/59/34
f 250/111/5 254/112/5 252/99/5 248/113/5
f 249/57/6 253/105/6 255/114/6 251/115/6
f 252/54/37 256/55/37 257/56/37 253/57/37
f 255/58/36 259/57/36 258/54/36 254/59/36
f 254/116/5 258/117/5 256/118/5 252/57/5
f 253/57/6 257/105/6 259/119/6 255/120/6
f 256/54/9 212/55/9 213/56/9 257/57/9
f 259/58/3 215/57/3 214/54/3 258/59/3
f 258/94/5 214/95/5 212/56/5 256/57/5
f 257/92/6 213/93/6 215/90/6 259/91/6
f 261/121/3 260/19/3 262/122/3 263/123/3
f 266/123/4 264/121/4 265/19/4 267/122/4
f 264/124/38 260/125/38 261/126/38 265/127/38
f 263/128/39 262/129/39 266/130/39 267/54/39
f 262/131/5 260/132/5 264/133/5 266/134/5
f 265/135/49 261/136/43 263/137/42 267/138/43
f 269/139/3 268/140/3 270/128/3 271/141/3
f 274/142/10 272/143/10 273/144/10 275/145/10
f 272/146/44 268/147/44 269/148/44 273/149/44
f 271/150/45 270/138/45 274/137/45 275/129/45
f 270/151/5 268/152/5 272/153/5 274/154/5
f 273/148/46 269/149/47 271/155/46 275/156/48
f 276/157/30 280/158/30 281/159/30 277/160/30
f 279/161/31 283/160/31 282/157/31 278/162/31
f 278/163/5 282/164/5 280/165/5 276/166/5
f 277/167/6 281/168/6 283/169/6 279/170/6
f 280/157/32 284/158/32 285/159/32 281/160/32
f 283/161/33 287/160/33 286/157/33 282/162/33
f 282/171/5 286/172/5 284/173/5 280/174/5
f 281/167/6 285/168/6 287/175/6 283/176/6
f 284/157/10 288/158/10 289/159/10 285/160/10
f 287/161/4 291/160/4 290/157/4 286/162/4
f 286/177/5 290/178/5 288/179/5 284/180/5
f 285/179/6 289/180/6 291/177/6 287/178/6
f 288/157/34 292/158/34 293/159/34 289/160/34
f 291/161/35 295/160/35 294/157/35 290/162/35
f 290/169/5 294/181/5 292/182/5 288/183/5
f 289/184/6 293/185/6 295/186/6 291/187/6
f 292/157/36 296/158/36 297/159/36 293/160/36
f 295/161/37 299/160/37 298/157/37 294/162/37
f 294/188/5 298/189/5 296/190/5 292/191/5
f 293/184/6 297/185/6 299/192/6 295/172/6
f 296/157/3 300/158/3 301/159/3 297/160/3
f 299/161/9 303/160/9 302/157/9 298/162/9
f 298/193/5 302/194/5 300/195/5 296/196/5
f 297/159/6 301/160/6 303/197/6 299/198/6
f 300/157/31 304/158/31 305/159/31 301/160/31
f 303/161/30 307/160/30 306/157/30 302/162/30
f 302/199/5 306/200/5 304/160/5 300/201/5
f 301/202/6 305/160/6 307/203/6 303/204/6
f 304/157/33 308/158/33 309/159/33 305/160/33
f 307/161/32 311/160/32 310/157/32 306/162/32
f 306/205/5 310/206/5 308/207/5 304/208/5
f 305/202/6 309/160/6 311/209/6 307/210/6
f 308/157/4 312/158/4 313/159/4 309/160/4
f 311/161/10 315/160/10 314/157/10 310/162/10
f 310/211/5 314/212/5 312/160/5 308/213/5
f 309/160/6 313/213/6 315/211/6 311/212/6
f 312/157/35 316/158/35 317/159/35 313/160/35
f 315/161/34 319/160/34 318/157/34 314/162/34
f 314/214/5 318/215/5 316/202/5 312/216/5
f 313/160/6 317/208/6 319/217/6 315/218/6
f 316/157/37 320/158/37 321/159/37 317/160/37
f 319/161/36 323/160/36 322/157/36 318/162/36
f 318/219/5 322/220/5 320/221/5 316/160/5
f 317/160/6 321/208/6 323/222/6 319/223/6
f 320/157/9 276/158/9 277/159/9 321/160/9
f 323/161/3 279/160/3 278/157/3 322/162/3
f 322/197/5 278/198/5 276/159/5 320/160/5
f 321/195/6 277/196/6 279/193/6 323/194/6
f 336/157/36 340/224/36 341/225/36 337/160/36
f 339/226/37 343/160/37 342/157/37 338/227/37
f 338/228/6 342/229/6 340/230/6 336/231/6
f 337/232/5 341/233/5 343/234/5 339/235/5
f 340/157/34 344/224/34 345/225/34 341/160/34
f 343/226/35 347/160/35 346/157/35 342/227/35
f 342/236/6 346/237/6 344/238/6 340/239/6
f 341/232/5 345/233/5 347/240/5 343/241/5
f 344/157/10 348/224/10 349/225/10 345/160/10
f 347/226/4 351/160/4 350/157/4 346/227/4
f 346/242/6 350/243/6 348/244/6 344/245/6
f 345/244/5 349/245/5 351/242/5 347/243/5
f 348/157/32 352/224/32 353/225/32 349/160/32
f 351/226/33 355/160/33 354/157/33 350/227/33
f 350/246/6 354/247/6 352/248/6 348/249/6
f 349/250/5 353/251/5 355/252/5 351/253/5
f 352/157/30 356/224/30 357/225/30 353/160/30
f 355/226/31 359/160/31 358/157/31 354/227/31
f 354/254/6 358/255/6 356/256/6 352/257/6
f 353/250/5 357/251/5 359/258/5 355/259/5
f 356/157/9 360/224/9 361/225/9 357/160/9
f 359/226/3 363/160/3 362/157/3 358/227/3
f 358/260/6 362/261/6 360/262/6 356/263/6
f 357/225/5 361/160/5 363/264/5 359/265/5
f 360/157/37 364/224/37 365/225/37 361/160/37
f 363/226/36 367/160/36 366/157/36 362/227/36
f 362/266/6 366/267/6 364/160/6 360/268/6
f 361/269/5 365/160/5 367/270/5 363/271/5
f 364/157/35 368/224/35 369/225/35 365/160/35
f 367/226/34 371/160/34 370/157/34 366/227/34
f 366/272/6 370/273/6 368/274/6 364/275/6
f 365/269/5 369/160/5 371/276/5 367/277/5
f 368/157/4 372/224/4 373/225/4 369/160/4
f 371/226/10 375/160/10 374/157/10 370/227/10
f 370/278/6 374/279/6 372/160/6 368/280/6
f 369/160/5 373/280/5 375/278/5 371/279/5
f 372/157/33 376/224/33 377/225/33 373/160/33
f 375/226/32 379/160/32 378/157/32 374/227/32
f 374/281/6 378/282/6 376/269/6 372/283/6
f 373/160/5 377/275/5 379/284/5 375/285/5
f 376/157/31 380/224/31 381/225/31 377/160/31
f 379/226/30 383/160/30 382/157/30 378/227/30
f 378/286/6 382/287/6 380/288/6 376/160/6
f 377/160/5 381/275/5 383/289/5 379/290/5
f 380/157/3 336/224/3 337/225/3 381/160/3
f 383/226/9 339/160/9 338/157/9 382/227/9
f 382/264/6 338/265/6 336/225/6 380/160/6
f 381/262/5 337/263/5 339/260/5 383/261/5
f 385/291/10 384/146/10 386/292/10 387/152/10
f 390/139/3 388/293/3 389/294/3 391/134/3
f 388/153/50 384/141/50 385/295/50 389/296/50
f 387/297/51 386/147/51 390/298/51 391/54/51
f 386/152/5 384/291/5 388/146/5 390/292/5
f 389/295/52 385/296/53 387/153/52 391/141/53
f 393/293/54 392/294/54 394/134/54 395/139/54
f 398/151/55 396/299/55 397/300/55 399/301/55
f 396/153/4 392/141/4 393/295/4 397/296/4
f 395/131/3 394/124/3 398/302/3 399/303/3
f 394/152/5 392/291/5 396/146/5 398/292/5
f 397/291/56 393/146/57 395/292/58 399/152/59
f 403/304/10 401/32/10 400/19/10 402/305/10
f 406/304/4 404/32/4 405/19/4 407/305/4
f 400/306/9 401/121/9 405/19/9 404/307/9
f 403/306/3 402/121/3 406/19/3 407/307/3
f 402/308/5 400/121/5 404/19/5 406/305/5
f 407/308/6 405/121/6 401/19/6 403/305/6
f 411/304/10 409/32/10 408/19/10 410/305/10
f 414/304/4 412/32/4 413/19/4 415/305/4
f 408/306/9 409/121/9 413/19/9 412/307/9
f 411/306/3 410/121/3 414/19/3 415/307/3
f 410/308/5 408/121/5 412/19/5 414/305/5
f 415/308/6 413/121/6 409/19/6 411/305/6
f 419/309/10 417/310/10 416/311/10 418/312/10
f 422/309/4 420/310/4 421/311/4 423/312/4
f 416/313/9 417/314/9 421/19/9 420/29/9
f 419/313/3 418/314/3 422/19/3 423/29/3
f 418/315/5 416/314/5 420/19/5 422/122/5
f 423/315/6 421/314/6 417/19/6 419/122/6
f 427/316/10 425/317/10 424/318/10 426/42/10
f 430/316/4 428/317/4 429/318/4 431/42/4
f 424/319/9 425/121/9 429/19/9 428/29/9
f 427/319/3 426/121/3 430/19/3 431/29/3
f 426/320/5 424/321/5 428/318/5 430/42/5
f 431/320/6 429/321/6 425/318/6 427/42/6
f 435/316/10 433/317/10 432/318/10 434/42/10
f 438/316/4 436/317/4 437/318/4 439/42/4
f 432/319/9 433/121/9 437/19/9 436/29/9
f 435/319/3 434/121/3 438/19/3 439/29/3
f 434/320/5 432/321/5 436/318/5 438/42/5
f 439/320/6 437/321/6 433/318/6 435/42/6
f 443/304/10 441/32/10 440/19/10 442/305/10
f 446/304/4 444/32/4 445/19/4 447/305/4
f 440/322/9 441/323/9 445/324/9 444/325/9
f 443/322/3 442/323/3 446/324/3 447/325/3
f 442/326/5 440/323/5 444/324/5 446/327/5
f 447/326/6 445/323/6 441/324/6 443/327/6
f 451/304/10 449/32/10 448/328/10 450/329/10
f 454/329/4 452/328/4 453/19/4 455/305/4
f 448/330/9 449/323/9 453/324/9 452/331/9
f 451/322/3 450/330/3 454/331/3 455/325/3
f 450/326/5 448/323/5 452/324/5 454/327/5
f 455/326/6 453/323/6 449/324/6 451/327/6
f 459/316/10 457/317/10 456/318/10 458/42/10
f 462/316/4 460/317/4 461/318/4 463/42/4
f 456/319/9 457/121/9 461/19/9 460/29/9
f 459/319/3 458/121/3 462/19/3 463/29/3
f 458/320/5 456/321/5 460/318/5 462/42/5
f 463/320/6 461/321/6 457/318/6 459/42/6
f 467/316/10 465/317/10 464/318/10 466/42/10
f 470/316/4 468/317/4 469/318/4 471/42/4
f 464/319/9 465/121/9 469/19/9 468/29/9
f 467/319/3 466/121/3 470/19/3 471/29/3
f 466/320/5 464/321/5 468/318/5 470/42/5
f 471/320/6 469/321/6 465/318/6 467/42/6
f 475/304/10 473/32/10 472/19/10 474/305/10
f 478/304/4 476/32/4 477/19/4 479/305/4
f 472/322/9 473/323/9 477/324/9 476/325/9
f 475/322/3 474/323/3 478/324/3 479/325/3
f 474/326/5 472/323/5 476/324/5 478/327/5
f 479/326/6 477/323/6 473/324/6 475/327/6
f 483/304/10 481/32/10 480/328/10 482/329/10
f 486/329/4 484/328/4 485/19/4 487/305/4
f 480/330/9 481/323/9 485/324/9 484/331/9
f 483/322/3 482/330/3 486/331/3 487/325/3
f 482/326/5 480/323/5 484/324/5 486/327/5
f 487/326/6 485/323/6 481/324/6 483/327/6
f 491/316/10 489/317/10 488/318/10 490/42/10
f 494/316/4 492/317/4 493/318/4 495/42/4
f 488/319/9 489/121/9 493/19/9 492/29/9
f 491/319/3 490/121/3 494/19/3 495/29/3
f 490/320/5 488/321/5 492/318/5 494/42/5
f 495/320/6 493/321/6 489/318/6 491/42/6
f 499/316/10 497/317/10 496/318/10 498/42/10
f 502/316/4 500/317/4 501/318/4 503/42/4
f 496/319/9 497/121/9 501/19/9 500/29/9
f 499/319/3 498/121/3 502/19/3 503/29/3
f 498/320/5 496/321/5 500/318/5 502/42/5
f 503/320/6 501/321/6 497/318/6 499/42/6
f 507/304/10 505/32/10 504/19/10 506/305/10
f 510/304/4 508/32/4 509/19/4 511/305/4
f 504/322/9 505/323/9 509/324/9 508/325/9
f 507/322/3 506/323/3 510/324/3 511/325/3
f 506/326/5 504/323/5 508/324/5 510/327/5
f 511/326/6 509/323/6 505/324/6 507/327/6
f 515/304/10 513/32/10 512/328/10 514/329/10
f 518/329/4 516/328/4 517/19/4 519/305/4
f 512/330/9 513/323/9 517/324/9 516/331/9
f 515/322/3 514/330/3 518/331/3 519/325/3
f 514/326/5 512/323/5 516/324/5 518/327/5
f 519/326/6 517/323/6 513/324/6 515/327/6
f 523/316/10 521/317/10 520/318/10 522/42/10
f 526/316/4 524/317/4 525/318/4 527/42/4
f 520/319/9 521/121/9 525/19/9 524/29/9
f 523/319/3 522/121/3 526/19/3 527/29/3
f 522/320/5 520/321/5 524/318/5 526/42/5
f 527/320/6 525/321/6 521/318/6 523/42/6
f 531/316/10 529/317/10 528/318/10 530/42/10
f 534/316/4 532/317/4 533/318/4 535/42/4
f 528/319/9 529/121/9 533/19/9 532/29/9
f 531/319/3 530/121/3 534/19/3 535/29/3
f 530/320/5 528/321/5 532/318/5 534/42/5
f 535/320/6 533/321/6 529/318/6 531/42/6
f 539/304/10 537/32/10 536/19/10 538/305/10
f 542/304/4 540/32/4 541/19/4 543/305/4
f 536/322/9 537/323/9 541/324/9 540/325/9
f 539/322/3 538/323/3 542/324/3 543/325/3
f 538/326/5 536/323/5 540/324/5 542/327/5
f 543/326/6 541/323/6 537/324/6 539/327/6
f 547/304/10 545/32/10 544/328/10 546/329/10
f 550/329/4 548/328/4 549/19/4 551/305/4
f 544/330/9 545/323/9 549/324/9 548/331/9
f 547/322/3 546/330/3 550/331/3 551/325/3
f 546/326/5 544/323/5 548/324/5 550/327/5
f 551/326/6 549/323/6 545/324/6 547/327/6
f 555/316/10 553/317/10 552/318/10 554/42/10
f 558/316/4 556/317/4 557/318/4 559/42/4
f 552/319/9 553/121/9 557/19/9 556/29/9
f 555/319/3 554/121/3 558/19/3 559/29/3
f 554/320/5 552/321/5 556/318/5 558/42/5
f 559/320/6 557/321/6 553/318/6 555/42/6
f 563/316/10 561/317/10 560/318/10 562/42/10
f 566/316/4 564/317/4 565/318/4 567/42/4
f 560/319/9 561/121/9 565/19/9 564/29/9
f 563/319/3 562/121/3 566/19/3 567/29/3
f 562/320/5 560/321/5 564/318/5 566/42/5
f 567/320/6 565/321/6 561/318/6 563/42/6
f 571/332/10 569/333/10 568/334/10 570/335/10
f 574/332/4 572/333/4 573/334/4 575/335/4
f 568/336/9 569/333/9 573/334/9 572/337/9
f 571/336/3 570/333/3 574/334/3 575/337/3
f 570/332/5 568/333/5 572/334/5 574/335/5
f 575/332/6 573/333/6 569/334/6 571/335/6
f 579/338/10 577/339/10 576/328/10 578/340/10
f 582/338/4 580/339/4 581/328/4 583/340/4
f 576/341/9 577/342/9 581/122/9 580/343/9
f 579/341/3 578/342/3 582/122/3 583/343/3
f 578/342/5 576/344/5 580/19/5 582/122/5
f 583/342/6 581/344/6 577/19/6 579/122/6
f 587/345/60 585/346/60 584/324/60 586/347/60
f 590/345/61 588/346/61 589/324/61 591/347/61
f 584/348/62 585/349/62 589/350/62 588/351/62
f 587/348/63 586/349/63 590/350/63 591/351/63
f 586/352/5 584/339/5 588/19/5 590/353/5
f 591/352/6 589/339/6 585/19/6 587/353/6
f 595/354/60 593/314/60 592/19/60 594/353/60
f 598/355/61 596/356/61 597/324/61 599/347/61
f 592/357/62 593/349/62 597/350/62 596/358/62
f 595/359/63 594/339/63 598/19/63 599/360/63
f 594/352/5 592/339/5 596/19/5 598/353/5
f 599/352/6 597/339/6 593/19/6 595/353/6
f 603/347/64 601/324/64 600/346/64 602/345/64
f 606/347/65 604/324/65 605/346/65 607/345/65
f 600/351/66 601/350/66 605/349/66 604/348/66
f 603/351/67 602/350/67 606/349/67 607/348/67
f 602/353/5 600/19/5 604/339/5 606/352/5
f 607/353/6 605/19/6 601/339/6 603/352/6
f 611/347/64 609/324/64 608/356/64 610/355/64
f 614/353/65 612/19/65 613/314/65 615/354/65
f 608/358/66 609/350/66 613/349/66 612/357/66
f 611/360/67 610/19/67 614/339/67 615/359/67
f 610/353/5 608/19/5 612/339/5 614/352/5
f 615/353/6 613/19/6 609/339/6 611/352/6
f 619/361/10 617/362/10 616/363/10 618/364/10
f 622/361/4 620/362/4 621/363/4 623/364/4
f 616/365/9 617/366/9 621/367/9 620/368/9
f 619/365/3 618/366/3 622/367/3 623/368/3
f 618/369/5 616/370/5 620/371/5 622/372/5
f 623/369/6 621/370/6 617/371/6 619/372/6
f 627/373/10 625/374/10 624/375/10 626/376/10
f 630/373/4 628/374/4 629/375/4 631/376/4
f 624/374/9 625/377/9 629/378/9 628/375/9
f 627/374/3 626/377/3 630/378/3 631/375/3
f 626/373/5 624/374/5 628/375/5 630/376/5
f 631/373/6 629/374/6 625/375/6 627/376/6
f 635/373/10 633/374/10 632/375/10 634/376/10
f 638/373/4 636/374/4 637/375/4 639/376/4
f 632/374/9 633/377/9 637/378/9 636/375/9
f 635/374/3 634/377/3 638/378/3 639/375/3
f 634/373/5 632/374/5 636/375/5 638/376/5
f 639/373/6 637/374/6 633/375/6 635/376/6
f 659/381/10 657/382/10 656/383/10 658/384/10
f 662/374/4 660/377/4 661/378/4 663/375/4
f 656/385/9 657/386/9 661/387/9 660/388/9
f 659/385/3 658/386/3 662/387/3 663/388/3
f 658/385/5 656/386/5 660/387/5 662/388/5
f 663/385/6 661/386/6 657/387/6 659/388/6
f 819/472/10 817/473/10 816/474/10 818/475/10
f 822/476/4 820/477/4 821/478/4 823/479/4
f 816/480/9 817/473/9 821/478/9 820/481/9
f 819/472/3 818/482/3 822/483/3 823/479/3
f 818/472/5 816/473/5 820/478/5 822/479/5
f 823/472/6 821/473/6 817/478/6 819/479/6
f 827/472/10 825/473/10 824/484/10 826/485/10
f 830/486/4 828/487/4 829/478/4 831/479/4
f 824/488/9 825/473/9 829/478/9 828/489/9
f 827/472/3 826/490/3 830/491/3 831/479/3
f 826/472/5 824/473/5 828/478/5 830/479/5
f 831/492/6 829/493/6 825/494/6 827/495/6
f 835/496/10 833/140/10 832/303/10 834/497/10
f 838/496/4 836/140/4 837/303/4 839/497/4
f 832/498/9 833/486/9 837/479/9 836/499/9
f 835/498/3 834/486/3 838/479/3 839/499/3
f 834/500/5 832/501/5 836/133/5 838/502/5
f 839/502/6 837/133/6 833/503/6 835/504/6
f 843/505/10 841/506/10 840/507/10 842/508/10
f 846/509/4 844/485/4 845/126/4 847/510/4
f 840/511/9 841/512/9 845/513/9 844/514/9
f 843/515/3 842/516/3 846/517/3 847/518/3
f 842/519/5 840/520/5 844/521/5 846/522/5
f 847/523/6 845/147/6 841/524/6 843/525/6
f 851/526/10 849/131/10 848/527/10 850/528/10
f 854/505/4 852/506/4 853/507/4 855/508/4
f 848/529/9 849/530/9 853/531/9 852/532/9
f 851/533/3 850/534/3 854/535/3 855/536/3
f 850/537/5 848/538/5 852/539/5 854/540/5
f 855/541/6 853/140/6 849/542/6 851/543/6
f 859/496/10 857/140/10 856/303/10 858/497/10
f 862/496/4 860/140/4 861/303/4 863/497/4
f 856/498/9 857/486/9 861/479/9 860/499/9
f 859/498/3 858/486/3 862/479/3 863/499/3
f 858/500/5 856/501/5 860/133/5 862/502/5
f 863/502/6 861/133/6 857/503/6 859/504/6
f 867/505/10 865/506/10 864/507/10 866/508/10
f 870/509/4 868/485/4 869/126/4 871/510/4
f 864/511/9 865/512/9 869/513/9 868/514/9
f 867/515/3 866/516/3 870/517/3 871/518/3
f 866/519/5 864/520/5 868/521/5 870/522/5
f 871/523/6 869/147/6 865/524/6 867/525/6
f 875/526/10 873/131/10 872/527/10 874/528/10
f 878/505/4 876/506/4 877/507/4 879/508/4
f 872/529/9 873/530/9 877/531/9 876/532/9
f 875/533/3 874/534/3 878/535/3 879/536/3
f 874/537/5 872/538/5 876/539/5 878/540/5
f 879/541/6 877/140/6 873/542/6 875/543/6
f 883/156/10 881/148/10 880/544/10 882/545/10
f 886/156/4 884/148/4 885/544/4 887/545/4
f 880/298/9 881/546/9 885/544/9 884/547/9
f 883/298/3 882/546/3 886/544/3 887/547/3
f 882/548/5 880/546/5 884/544/5 886/545/5
f 887/548/6 885/546/6 881/544/6 883/545/6
f 891/549/10 889/550/10 888/155/10 890/302/10
f 894/551/4 892/137/4 893/552/4 895/553/4
f 888/296/9 889/554/9 893/555/9 892/556/9
f 891/557/3 890/134/3 894/558/3 895/559/3
f 890/498/5 888/300/5 892/560/5 894/561/5
f 895/562/6 893/563/6 889/564/6 891/565/6
f 899/566/10 897/567/10 896/568/10 898/569/10
f 902/146/4 900/302/4 901/570/4 903/571/4
f 896/130/9 897/572/9 901/573/9 900/574/9
f 899/575/3 898/576/3 902/577/3 903/578/3
f 898/294/5 896/579/5 900/580/5 902/581/5
f 903/556/6 901/581/6 897/302/6 899/146/6
f 907/582/10 905/583/10 904/38/10 906/584/10
f 910/582/4 908/583/4 909/38/4 911/584/4
f 904/585/9 905/586/9 909/38/9 908/587/9
f 907/585/3 906/586/3 910/38/3 911/587/3
f 906/588/5 904/339/5 908/19/5 910/589/5
f 911/590/6 909/586/6 905/38/6 907/584/6
l 78 79
l 79 80
l 80 81
l 81 82
l 82 83
l 83 84
l 84 85
l 85 86
l 86 87
l 87 88
l 202 203
l 203 204
l 204 205
l 205 206
l 206 207
l 207 208
l 208 209
l 209 210
l 25 210
l 25 211
l 201 211
l 201 202
l 325 326
l 326 327
l 327 328
l 328 329
l 329 330
l 330 331
l 331 332
l 332 333
l 333 334
l 334 335
l 324 335
l 324 325
