# Made in Blockbench 5.1.4
mtllib zs3.mtl

o cube
v 0.375 7.5625 -0.38125
v 0.375 7.5625 -0.44375
v 0.375 7.25 -0.38125
v 0.375 7.25 -0.44375
v -0.375 7.5625 -0.38125
v -0.375 7.5625 -0.44375
v -0.375 7.25 -0.38125
v -0.375 7.25 -0.44375
v 0.5 7.6875 -0.375
v 0.5 7.6875 -0.4375
v 0.5 7.625 -0.375
v 0.5 7.625 -0.4375
v -0.5 7.6875 -0.375
v -0.5 7.6875 -0.4375
v -0.5 7.625 -0.375
v -0.5 7.625 -0.4375
v 0.4375 7.71875 -0.375
v 0.4375 7.71875 -0.4375
v 0.4375 7.6875 -0.375
v 0.4375 7.6875 -0.4375
v -0.4375 7.71875 -0.375
v -0.4375 7.71875 -0.4375
v -0.4375 7.6875 -0.375
v -0.4375 7.6875 -0.4375
v -0.031249712736527352 8.499398901419164 -0.374375
v -0.031249712736527352 8.499398901419164 -0.436875
v 0.049940168868263746 8.452523901419164 -0.374375
v 0.049940168868263746 8.452523901419164 -0.436875
v -0.49999971273652744 7.687500085371253 -0.374375
v -0.49999971273652744 7.687500085371253 -0.436875
v -0.4188098311317363 7.640625085371253 -0.374375
v -0.4188098311317363 7.640625085371253 -0.436875
v 0.49999971273652744 7.687500085371253 -0.375
v 0.49999971273652744 7.687500085371253 -0.4375
v 0.4188098311317363 7.640625085371253 -0.375
v 0.4188098311317363 7.640625085371253 -0.4375
v 0.031249712736527352 8.499398901419164 -0.375
v 0.031249712736527352 8.499398901419164 -0.4375
v -0.049940168868263746 8.452523901419164 -0.375
v -0.049940168868263746 8.452523901419164 -0.4375
v 0.03125 8.498276875 -0.371875
v 0.03125 8.498276875 -0.434375
v 0.03125 8.435776875 -0.371875
v 0.03125 8.435776875 -0.434375
v -0.03125 8.498276875 -0.371875
v -0.03125 8.498276875 -0.434375
v -0.03125 8.435776875 -0.371875
v -0.03125 8.435776875 -0.434375
v 0.375 7.875 -0.36875
v 0.375 7.875 -0.43125
v 0.375 7.71875 -0.36875
v 0.375 7.71875 -0.43125
v -0.375 7.875 -0.36875
v -0.375 7.875 -0.43125
v -0.375 7.71875 -0.36875
v -0.375 7.71875 -0.43125
v 0.3125 8 -0.36875
v 0.3125 8 -0.43125
v 0.3125 7.875 -0.36875
v 0.3125 7.875 -0.43125
v -0.3125 8 -0.36875
v -0.3125 8 -0.43125
v -0.3125 7.875 -0.36875
v -0.3125 7.875 -0.43125
v 0.234375 8.125 -0.36875
v 0.234375 8.125 -0.43125
v 0.234375 8 -0.36875
v 0.234375 8 -0.43125
v -0.234375 8.125 -0.36875
v -0.234375 8.125 -0.43125
v -0.234375 8 -0.36875
v -0.234375 8 -0.43125
v 0.15625 8.25 -0.36875
v 0.15625 8.25 -0.43125
v 0.15625 8.125 -0.36875
v 0.15625 8.125 -0.43125
v -0.15625 8.25 -0.36875
v -0.15625 8.25 -0.43125
v -0.15625 8.125 -0.36875
v -0.15625 8.125 -0.43125
v 0.09375 8.375 -0.36875
v 0.09375 8.375 -0.43125
v 0.09375 8.25 -0.36875
v 0.09375 8.25 -0.43125
v -0.09375 8.375 -0.36875
v -0.09375 8.375 -0.43125
v -0.09375 8.25 -0.36875
v -0.09375 8.25 -0.43125
v 0.21875 8.140625 -0.21875
v 0.21875 8.140625 -0.375
v 0.21875 7.625 -0.21875
v 0.21875 7.625 -0.375
v -0.21875 8.140625 -0.21875
v -0.21875 8.140625 -0.375
v -0.21875 7.625 -0.21875
v -0.21875 7.625 -0.375
v 0.171875 8.109375 -0.440625
v 0.171875 8.109375 -0.440625
v 0.171875 7.65625 -0.440625
v 0.171875 7.65625 -0.440625
v -0.171875 8.109375 -0.440625
v -0.171875 8.109375 -0.440625
v -0.171875 7.65625 -0.440625
v -0.171875 7.65625 -0.440625
v 0.21875 8.15625 -0.4375
v 0.21875 8.15625 -0.625
v 0.21875 8.109375 -0.4375
v 0.21875 8.109375 -0.625
v -0.21875 8.15625 -0.4375
v -0.21875 8.15625 -0.625
v -0.21875 8.109375 -0.4375
v -0.21875 8.109375 -0.625
v -0.171875 8.109375 -0.4375
v -0.171875 8.109375 -0.453125
v -0.171875 7.65625 -0.4375
v -0.171875 7.65625 -0.453125
v -0.21875 8.109375 -0.4375
v -0.21875 8.109375 -0.453125
v -0.21875 7.65625 -0.4375
v -0.21875 7.65625 -0.453125
v 0.21875 8.109375 -0.4375
v 0.21875 8.109375 -0.453125
v 0.21875 7.65625 -0.4375
v 0.21875 7.65625 -0.453125
v 0.171875 8.109375 -0.4375
v 0.171875 8.109375 -0.453125
v 0.171875 7.65625 -0.4375
v 0.171875 7.65625 -0.453125
v 0.21875 8.109375 -0.453125
v 0.21875 8.109375 -0.625
v 0.21875 7.65625 -0.453125
v 0.171875 8.109375 -0.453125
v 0.171875 8.109375 -0.625
v 0.171875 7.65625 -0.453125
v -0.171875 8.109375 -0.453125
v -0.171875 8.109375 -0.625
v -0.171875 7.65625 -0.453125
v -0.21875 8.109375 -0.453125
v -0.21875 8.109375 -0.625
v -0.21875 7.65625 -0.453125
v 0.28125 8 -0.34375
v 0.28125 8 -0.40625
v 0.28125 7.8125 -0.34375
v 0.28125 7.8125 -0.40625
v 0.21875 8 -0.34375
v 0.21875 8 -0.40625
v 0.21875 7.8125 -0.34375
v 0.21875 7.8125 -0.40625
v -0.21875 8 -0.34375
v -0.21875 8 -0.40625
v -0.21875 7.8125 -0.34375
v -0.21875 7.8125 -0.40625
v -0.28125 8 -0.34375
v -0.28125 8 -0.40625
v -0.28125 7.8125 -0.34375
v -0.28125 7.8125 -0.40625
v 0.28125 7.8125 -0.34375
v 0.28125 7.8125 -0.40625
v 0.375 7.5625 -0.375
v 0.375 7.5625 -0.4375
v 0.21875 7.8125 -0.34375
v 0.21875 7.8125 -0.40625
v 0.3125 7.5625 -0.375
v 0.3125 7.5625 -0.4375
v -0.21875 7.8125 -0.34375
v -0.21875 7.8125 -0.40625
v -0.3125 7.5625 -0.375
v -0.3125 7.5625 -0.4375
v -0.28125 7.8125 -0.34375
v -0.28125 7.8125 -0.40625
v -0.375 7.5625 -0.375
v -0.375 7.5625 -0.4375
vt 0.296875 0.65625
vt 0.296875 0.734375
vt 0.28125 0.734375
vt 0.28125 0.65625
vt 0.296875 0.65625
vt 0.296875 0.734375
vt 0.28125 0.734375
vt 0.28125 0.65625
vt 0.46875 0.71875
vt 0.46875 0.734375
vt 0.28125 0.734375
vt 0.28125 0.71875
vt 0.203125 0.078125
vt 0.203125 0.09375
vt 0.015625 0.09375
vt 0.015625 0.078125
vt 0.46875 0.65625
vt 0.46875 0.734375
vt 0.28125 0.734375
vt 0.28125 0.65625
vt 0.46875 0.65625
vt 0.46875 0.734375
vt 0.28125 0.734375
vt 0.28125 0.65625
vt 0.765625 0.40625
vt 0.765625 0.421875
vt 0.75 0.421875
vt 0.75 0.40625
vt 0.78125 0.40625
vt 0.78125 0.421875
vt 0.765625 0.421875
vt 0.765625 0.40625
vt 1 0.40625
vt 1 0.421875
vt 0.75 0.421875
vt 0.75 0.40625
vt 1 0.421875
vt 1 0.4375
vt 0.75 0.4375
vt 0.75 0.421875
vt 1 0.40625
vt 1 0.421875
vt 0.75 0.421875
vt 0.75 0.40625
vt 1 0.40625
vt 1 0.421875
vt 0.75 0.421875
vt 0.75 0.40625
vt 0.765625 0.40625
vt 0.765625 0.4140625
vt 0.75 0.4140625
vt 0.75 0.40625
vt 0.78125 0.40625
vt 0.78125 0.4140625
vt 0.765625 0.4140625
vt 0.765625 0.40625
vt 0.984375 0.40625
vt 0.984375 0.421875
vt 0.765625 0.421875
vt 0.765625 0.40625
vt 0.984375 0.421875
vt 0.984375 0.4375
vt 0.765625 0.4375
vt 0.765625 0.421875
vt 0.984375 0.40625
vt 0.984375 0.4140625
vt 0.765625 0.4140625
vt 0.765625 0.40625
vt 0.984375 0.40625
vt 0.984375 0.4140625
vt 0.765625 0.4140625
vt 0.765625 0.40625
vt 0.765625 0.3984375
vt 0.765625 0.421875
vt 0.75 0.421875
vt 0.75 0.3984375
vt 0.78125 0.3984375
vt 0.78125 0.421875
vt 0.765625 0.421875
vt 0.765625 0.3984375
vt 0.984375 0.40625
vt 0.984375 0.421875
vt 0.75 0.421875
vt 0.75 0.40625
vt 0.984375 0.421875
vt 0.984375 0.4375
vt 0.75 0.4375
vt 0.75 0.421875
vt 0.984375 0.3984375
vt 0.984375 0.421875
vt 0.75 0.421875
vt 0.75 0.3984375
vt 1 0.3984375
vt 1 0.421875
vt 0.765625 0.421875
vt 0.765625 0.3984375
vt 0.765625 0.3984375
vt 0.765625 0.421875
vt 0.75 0.421875
vt 0.75 0.3984375
vt 0.78125 0.3984375
vt 0.78125 0.421875
vt 0.765625 0.421875
vt 0.765625 0.3984375
vt 1 0.40625
vt 1 0.421875
vt 0.765625 0.421875
vt 0.765625 0.40625
vt 1 0.421875
vt 1 0.4375
vt 0.765625 0.4375
vt 0.765625 0.421875
vt 1 0.3984375
vt 1 0.421875
vt 0.765625 0.421875
vt 0.765625 0.3984375
vt 0.984375 0.3984375
vt 0.984375 0.421875
vt 0.75 0.421875
vt 0.75 0.3984375
vt 0.78125 0.40625
vt 0.78125 0.421875
vt 0.765625 0.421875
vt 0.765625 0.40625
vt 0.765625 0.40625
vt 0.765625 0.421875
vt 0.75 0.421875
vt 0.75 0.40625
vt 0.78125 0.421875
vt 0.78125 0.4375
vt 0.765625 0.4375
vt 0.765625 0.421875
vt 0.78125 0.40625
vt 0.78125 0.421875
vt 0.765625 0.421875
vt 0.765625 0.40625
vt 0.78125 0.40625
vt 0.78125 0.421875
vt 0.765625 0.421875
vt 0.765625 0.40625
vt 0.765625 0.40625
vt 0.765625 0.421875
vt 0.75 0.421875
vt 0.75 0.40625
vt 0.71875 0.3203125
vt 0.71875 0.359375
vt 0.703125 0.359375
vt 0.703125 0.3203125
vt 0.71875 0.3046875
vt 0.71875 0.34375
vt 0.703125 0.34375
vt 0.703125 0.3046875
vt 0.875 0.34375
vt 0.875 0.359375
vt 0.6875 0.359375
vt 0.6875 0.34375
vt 0.875 0.328125
vt 0.875 0.34375
vt 0.6875 0.34375
vt 0.6875 0.328125
vt 0.875 0.3046875
vt 0.875 0.34375
vt 0.6875 0.34375
vt 0.6875 0.3046875
vt 0.875 0.3203125
vt 0.875 0.359375
vt 0.6875 0.359375
vt 0.6875 0.3203125
vt 0.71875 0.3359375
vt 0.71875 0.3671875
vt 0.703125 0.3671875
vt 0.703125 0.3359375
vt 0.703125 0.3359375
vt 0.703125 0.3671875
vt 0.6875 0.3671875
vt 0.6875 0.3359375
vt 0.875 0.3515625
vt 0.875 0.3671875
vt 0.71875 0.3671875
vt 0.71875 0.3515625
vt 0.875 0.3359375
vt 0.875 0.3515625
vt 0.71875 0.3515625
vt 0.71875 0.3359375
vt 0.875 0.3359375
vt 0.875 0.3671875
vt 0.71875 0.3671875
vt 0.71875 0.3359375
vt 0.875 0.3359375
vt 0.875 0.3671875
vt 0.71875 0.3671875
vt 0.71875 0.3359375
vt 0.72265625 0.3046875
vt 0.72265625 0.3359375
vt 0.70703125 0.3359375
vt 0.70703125 0.3046875
vt 0.70703125 0.3046875
vt 0.70703125 0.3359375
vt 0.69140625 0.3359375
vt 0.69140625 0.3046875
vt 0.859375 0.3203125
vt 0.859375 0.3359375
vt 0.7421875 0.3359375
vt 0.7421875 0.3203125
vt 0.859375 0.3046875
vt 0.859375 0.3203125
vt 0.7421875 0.3203125
vt 0.7421875 0.3046875
vt 0.859375 0.3046875
vt 0.859375 0.3359375
vt 0.7421875 0.3359375
vt 0.7421875 0.3046875
vt 0.859375 0.3046875
vt 0.859375 0.3359375
vt 0.7421875 0.3359375
vt 0.7421875 0.3046875
vt 0.70703125 0.2734375
vt 0.70703125 0.3046875
vt 0.69140625 0.3046875
vt 0.69140625 0.2734375
vt 0.69140625 0.2734375
vt 0.69140625 0.3046875
vt 0.67578125 0.3046875
vt 0.67578125 0.2734375
vt 0.82421875 0.2890625
vt 0.82421875 0.3046875
vt 0.74609375 0.3046875
vt 0.74609375 0.2890625
vt 0.82421875 0.2734375
vt 0.82421875 0.2890625
vt 0.74609375 0.2890625
vt 0.74609375 0.2734375
vt 0.82421875 0.2734375
vt 0.82421875 0.3046875
vt 0.74609375 0.3046875
vt 0.74609375 0.2734375
vt 0.82421875 0.2734375
vt 0.82421875 0.3046875
vt 0.74609375 0.3046875
vt 0.74609375 0.2734375
vt 0.70703125 0.25
vt 0.70703125 0.28125
vt 0.69140625 0.28125
vt 0.69140625 0.25
vt 0.69140625 0.25
vt 0.69140625 0.28125
vt 0.67578125 0.28125
vt 0.67578125 0.25
vt 0.80859375 0.265625
vt 0.80859375 0.28125
vt 0.76171875 0.28125
vt 0.76171875 0.265625
vt 0.80859375 0.25
vt 0.80859375 0.265625
vt 0.76171875 0.265625
vt 0.76171875 0.25
vt 0.80859375 0.25
vt 0.80859375 0.28125
vt 0.76171875 0.28125
vt 0.76171875 0.25
vt 0.80859375 0.25
vt 0.80859375 0.28125
vt 0.76171875 0.28125
vt 0.76171875 0.25
vt 0.34375 0.1875
vt 0.34375 0.30078125
vt 0.3046875 0.30078125
vt 0.3046875 0.1875
vt 0.3359375 0.1875
vt 0.3359375 0.30078125
vt 0.296875 0.30078125
vt 0.296875 0.1875
vt 0.4140625 0.2734375
vt 0.4140625 0.3125
vt 0.3046875 0.3125
vt 0.3046875 0.2734375
vt 0.4140625 0.265625
vt 0.4140625 0.3046875
vt 0.3046875 0.3046875
vt 0.3046875 0.265625
vt 0.4140625 0.1875
vt 0.4140625 0.30078125
vt 0.3046875 0.30078125
vt 0.3046875 0.1875
vt 0.4140625 0.1875
vt 0.4140625 0.30078125
vt 0.3046875 0.30078125
vt 0.3046875 0.1875
vt 0 1
vt 0 1
vt 0 0.5625
vt 0 0.5625
vt 0 1
vt 0 1
vt 0 0.5625
vt 0 0.5625
vt 0 1
vt 0.40625 1
vt 0 1
vt 0.40625 1
vt 0 1
vt 0.40625 1
vt 0 1
vt 0.40625 1
vt 0.40625 0.09375
vt 0.40625 0.53125
vt 0 0.53125
vt 0 0.09375
vt 0.34375 0.53125
vt 0.34375 1
vt 0 1
vt 0 0.53125
vt 0.328125 0.28515625
vt 0.328125 0.296875
vt 0.28125 0.296875
vt 0.28125 0.28515625
vt 0.34375 0.28515625
vt 0.34375 0.296875
vt 0.296875 0.296875
vt 0.296875 0.28515625
vt 0.40625 0.234375
vt 0.40625 0.28125
vt 0.28125 0.28125
vt 0.28125 0.234375
vt 0.40625 0.25
vt 0.40625 0.296875
vt 0.28125 0.296875
vt 0.28125 0.25
vt 0.40625 0.28515625
vt 0.40625 0.296875
vt 0.28125 0.296875
vt 0.28125 0.28515625
vt 0.40625 0.28515625
vt 0.40625 0.296875
vt 0.28125 0.296875
vt 0.28125 0.28515625
vt 0.28515625 0.1953125
vt 0.28515625 0.30078125
vt 0.28125 0.30078125
vt 0.28125 0.1953125
vt 0.328125 0.1953125
vt 0.328125 0.30078125
vt 0.32421875 0.30078125
vt 0.32421875 0.1953125
vt 0.29296875 0.265625
vt 0.29296875 0.26953125
vt 0.28125 0.26953125
vt 0.28125 0.265625
vt 0.29296875 0.30859375
vt 0.29296875 0.3125
vt 0.28125 0.3125
vt 0.28125 0.30859375
vt 0.29296875 0.1953125
vt 0.29296875 0.30078125
vt 0.28125 0.30078125
vt 0.28125 0.1953125
vt 0.40625 0.1953125
vt 0.40625 0.30078125
vt 0.39453125 0.30078125
vt 0.39453125 0.1953125
vt 0.28515625 0.1953125
vt 0.28515625 0.30078125
vt 0.28125 0.30078125
vt 0.28125 0.1953125
vt 0.328125 0.1953125
vt 0.328125 0.30078125
vt 0.32421875 0.30078125
vt 0.32421875 0.1953125
vt 0.29296875 0.265625
vt 0.29296875 0.26953125
vt 0.28125 0.26953125
vt 0.28125 0.265625
vt 0.29296875 0.30859375
vt 0.29296875 0.3125
vt 0.28125 0.3125
vt 0.28125 0.30859375
vt 0.29296875 0.1953125
vt 0.29296875 0.30078125
vt 0.28125 0.30078125
vt 0.28125 0.1953125
vt 0.40625 0.1953125
vt 0.40625 0.30078125
vt 0.39453125 0.30078125
vt 0.39453125 0.1953125
vt 0.28125 0.296875
vt 0.296875 0.296875
vt 0.296875 0.171875
vt 0.296875 0.296875
vt 0.28125 0.296875
vt 0.28125 0.171875
vt 0.28125 0.28125
vt 0.296875 0.28125
vt 0.296875 0.296875
vt 0.28125 0.296875
vt 0.296875 0.171875
vt 0.296875 0.296875
vt 0.28125 0.296875
vt 0.28125 0.171875
vt 0.296875 0.296875
vt 0.28125 0.296875
vt 0.28125 0.171875
vt 0.296875 0.171875
vt 0.28125 0.296875
vt 0.296875 0.296875
vt 0.296875 0.171875
vt 0.296875 0.296875
vt 0.28125 0.296875
vt 0.28125 0.171875
vt 0.28125 0.28125
vt 0.296875 0.28125
vt 0.296875 0.296875
vt 0.28125 0.296875
vt 0.296875 0.171875
vt 0.296875 0.296875
vt 0.28125 0.296875
vt 0.28125 0.171875
vt 0.296875 0.296875
vt 0.28125 0.296875
vt 0.28125 0.171875
vt 0.296875 0.171875
vt 0.125 0.8125
vt 0.125 1
vt 0.0625 1
vt 0.0625 0.8125
vt 0.0625 0.8125
vt 0.0625 1
vt 0 1
vt 0 0.8125
vt 0.0625 0.9375
vt 0.0625 1
vt 0 1
vt 0 0.9375
vt 0.0625 0.875
vt 0.0625 0.9375
vt 0 0.9375
vt 0 0.875
vt 0.0625 0.8125
vt 0.0625 1
vt 0 1
vt 0 0.8125
vt 0.125 0.8125
vt 0.125 1
vt 0.0625 1
vt 0.0625 0.8125
vt 0.125 0.8125
vt 0.125 1
vt 0.0625 1
vt 0.0625 0.8125
vt 0.0625 0.8125
vt 0.0625 1
vt 0 1
vt 0 0.8125
vt 0.0625 0.9375
vt 0.0625 1
vt 0 1
vt 0 0.9375
vt 0.0625 0.875
vt 0.0625 0.9375
vt 0 0.9375
vt 0 0.875
vt 0.0625 0.8125
vt 0.0625 1
vt 0 1
vt 0 0.8125
vt 0.125 0.8125
vt 0.125 1
vt 0.0625 1
vt 0.0625 0.8125
vt 0.0625 1
vt 0 1
vt 0 0.5
vt 0.0625 0.5
vt 0.0625 0.5
vt 0.0625 1
vt 0 1
vt 0 0.5
vt 0 0.9375
vt 0.0625 0.9375
vt 0.0625 1
vt 0 1
vt 0.0625 0.9375
vt 0.0625 1
vt 0 1
vt 0 0.9375
vt 0.0625 0.5
vt 0.0625 1
vt 0 1
vt 0 0.5
vt 0.0625 1
vt 0 1
vt 0 0.5
vt 0.0625 0.5
vt 0.0625 1
vt 0 1
vt 0 0.5
vt 0.0625 0.5
vt 0.0625 0.5
vt 0.0625 1
vt 0 1
vt 0 0.5
vt 0 0.9375
vt 0.0625 0.9375
vt 0.0625 1
vt 0 1
vt 0.0625 0.9375
vt 0.0625 1
vt 0 1
vt 0 0.9375
vt 0.0625 0.5
vt 0.0625 1
vt 0 1
vt 0 0.5
vt 0.0625 1
vt 0 1
vt 0 0.5
vt 0.0625 0.5
vn 1 0 0
vn -1 0 0
vn 0 1 0
vn 0 -1 0
vn 0 0 1
vn 0 0 -1
vn 1 0 0
vn -1 0 0
vn 0 1 0
vn 0 -1 0
vn 0 0 1
vn 0 0 -1
vn 1 0 0
vn -1 0 0
vn 0 1 0
vn 0 -1 0
vn 0 0 1
vn 0 0 -1
vn 0.5000000000000002 0.8660254037844387 0
vn -0.5 -0.8660254037844387 0
vn -0.8660254037844386 0.5000000000000001 0
vn 0.8660254037844387 -0.5000000000000001 0
vn 0 0 1
vn 0 0 -1
vn 0.5 -0.8660254037844387 0
vn -0.5000000000000002 0.8660254037844387 0
vn 0.8660254037844386 0.5000000000000001 0
vn -0.8660254037844387 -0.5000000000000001 0
vn 0 0 1
vn 0 0 -1
vn 1 0 0
vn -1 0 0
vn 0 1 0
vn 0 -1 0
vn 0 0 1
vn 0 0 -1
vn 1 0 0
vn -1 0 0
vn 0 1 0
vn 0 -1 0
vn 0 0 1
vn 0 0 -1
vn 1 0 0
vn -1 0 0
vn 0 1 0
vn 0 -1 0
vn 0 0 1
vn 0 0 -1
vn 1 0 0
vn -1 0 0
vn 0 1 0
vn 0 -1 0
vn 0 0 1
vn 0 0 -1
vn 1 0 0
vn -1 0 0
vn 0 1 0
vn 0 -1 0
vn 0 0 1
vn 0 0 -1
vn 1 0 0
vn -1 0 0
vn 0 1 0
vn 0 -1 0
vn 0 0 1
vn 0 0 -1
vn 1 0 0
vn -1 0 0
vn 0 1 0
vn 0 -1 0
vn 0 0 1
vn 0 0 -1
vn 0 0 0
vn 0 0 0
vn 0 0 0
vn 0 0 0
vn 0 0 1
vn 0 0 -1
vn 1 0 0
vn -1 0 0
vn 0 1 0
vn 0 -1 0
vn 0 0 1
vn 0 0 -1
vn 1 0 0
vn -1 0 0
vn 0 1 0
vn 0 -1 0
vn 0 0 1
vn 0 0 -1
vn 1 0 0
vn -1 0 0
vn 0 1 0
vn 0 -1 0
vn 0 0 1
vn 0 0 -1
vn -1 0 0
vn -1 0 0
vn 0 1 0
vn 0 0 1
vn 0 -0.3546542341205386 -0.9349975263177837
vn -1 0 0
vn -1 0 0
vn 0 1 0
vn 0 0 1
vn 0 -0.3546542341205386 -0.9349975263177837
vn 1 0 0
vn -1 0 0
vn 0 1 0
vn 0 -1 0
vn 0 0 1
vn 0 0 -1
vn 1 0 0
vn -1 0 0
vn 0 1 0
vn 0 -1 0
vn 0 0 1
vn 0 0 -1
vn 0.9363291775690445 0.3511234415883917 0
vn -0.9363291775690445 -0.3511234415883917 0
vn 0 1 0
vn 0 -1 0
vn 0 -0.12403473458920847 0.9922778767136677
vn 0 0.12403473458920847 -0.9922778767136677
vn 0.9363291775690445 -0.3511234415883917 0
vn -0.9363291775690445 0.3511234415883917 0
vn 0 1 0
vn 0 -1 0
vn 0 -0.12403473458920847 0.9922778767136677
vn 0 0.12403473458920847 -0.9922778767136677
usemtl m_3d215661-f591-00a8-53e2-d8d611c756be
f 4/1/1 2/2/1 1/3/1 3/4/1
f 7/5/2 5/6/2 6/7/2 8/8/2
f 1/9/3 2/10/3 6/11/3 5/12/3
f 4/13/4 3/14/4 7/15/4 8/16/4
f 3/17/5 1/18/5 5/19/5 7/20/5
f 8/21/6 6/22/6 2/23/6 4/24/6
f 12/25/7 10/26/7 9/27/7 11/28/7
f 15/29/8 13/30/8 14/31/8 16/32/8
f 9/33/9 10/34/9 14/35/9 13/36/9
f 12/37/10 11/38/10 15/39/10 16/40/10
f 11/41/11 9/42/11 13/43/11 15/44/11
f 16/45/12 14/46/12 10/47/12 12/48/12
f 20/49/13 18/50/13 17/51/13 19/52/13
f 23/53/14 21/54/14 22/55/14 24/56/14
f 17/57/15 18/58/15 22/59/15 21/60/15
f 20/61/16 19/62/16 23/63/16 24/64/16
f 19/65/17 17/66/17 21/67/17 23/68/17
f 24/69/18 22/70/18 18/71/18 20/72/18
f 28/73/19 26/74/19 25/75/19 27/76/19
f 31/77/20 29/78/20 30/79/20 32/80/20
f 25/81/21 26/82/21 30/83/21 29/84/21
f 28/85/22 27/86/22 31/87/22 32/88/22
f 27/89/23 25/90/23 29/91/23 31/92/23
f 32/93/24 30/94/24 26/95/24 28/96/24
f 36/97/25 34/98/25 33/99/25 35/100/25
f 39/101/26 37/102/26 38/103/26 40/104/26
f 33/105/27 34/106/27 38/107/27 37/108/27
f 36/109/28 35/110/28 39/111/28 40/112/28
f 35/113/29 33/114/29 37/115/29 39/116/29
f 40/117/30 38/118/30 34/119/30 36/120/30
f 44/121/31 42/122/31 41/123/31 43/124/31
f 47/125/32 45/126/32 46/127/32 48/128/32
f 41/129/33 42/130/33 46/131/33 45/132/33
f 44/133/34 43/134/34 47/135/34 48/136/34
f 43/137/35 41/138/35 45/139/35 47/140/35
f 48/141/36 46/142/36 42/143/36 44/144/36
f 52/145/37 50/146/37 49/147/37 51/148/37
f 55/149/38 53/150/38 54/151/38 56/152/38
f 49/153/39 50/154/39 54/155/39 53/156/39
f 52/157/40 51/158/40 55/159/40 56/160/40
f 51/161/41 49/162/41 53/163/41 55/164/41
f 56/165/42 54/166/42 50/167/42 52/168/42
f 60/169/43 58/170/43 57/171/43 59/172/43
f 63/173/44 61/174/44 62/175/44 64/176/44
f 57/177/45 58/178/45 62/179/45 61/180/45
f 60/181/46 59/182/46 63/183/46 64/184/46
f 59/185/47 57/186/47 61/187/47 63/188/47
f 64/189/48 62/190/48 58/191/48 60/192/48
f 68/193/49 66/194/49 65/195/49 67/196/49
f 71/197/50 69/198/50 70/199/50 72/200/50
f 65/201/51 66/202/51 70/203/51 69/204/51
f 68/205/52 67/206/52 71/207/52 72/208/52
f 67/209/53 65/210/53 69/211/53 71/212/53
f 72/213/54 70/214/54 66/215/54 68/216/54
f 76/217/55 74/218/55 73/219/55 75/220/55
f 79/221/56 77/222/56 78/223/56 80/224/56
f 73/225/57 74/226/57 78/227/57 77/228/57
f 76/229/58 75/230/58 79/231/58 80/232/58
f 75/233/59 73/234/59 77/235/59 79/236/59
f 80/237/60 78/238/60 74/239/60 76/240/60
f 84/241/61 82/242/61 81/243/61 83/244/61
f 87/245/62 85/246/62 86/247/62 88/248/62
f 81/249/63 82/250/63 86/251/63 85/252/63
f 84/253/64 83/254/64 87/255/64 88/256/64
f 83/257/65 81/258/65 85/259/65 87/260/65
f 88/261/66 86/262/66 82/263/66 84/264/66
f 92/265/67 90/266/67 89/267/67 91/268/67
f 95/269/68 93/270/68 94/271/68 96/272/68
f 89/273/69 90/274/69 94/275/69 93/276/69
f 92/277/70 91/278/70 95/279/70 96/280/70
f 91/281/71 89/282/71 93/283/71 95/284/71
f 96/285/72 94/286/72 90/287/72 92/288/72
usemtl m_1d567ed6-7592-1569-2418-62653f879dbc
f 98/289/73 97/290/73 100/291/73 99/292/73
f 101/293/74 102/294/74 103/295/74 104/296/74
f 98/297/75 102/298/75 97/299/75 101/300/75
f 99/301/76 103/302/76 100/303/76 104/304/76
f 99/305/77 97/306/77 101/307/77 103/308/77
f 104/309/78 102/310/78 98/311/78 100/312/78
usemtl m_3d215661-f591-00a8-53e2-d8d611c756be
f 108/313/79 106/314/79 105/315/79 107/316/79
f 111/317/80 109/318/80 110/319/80 112/320/80
f 105/321/81 106/322/81 110/323/81 109/324/81
f 108/325/82 107/326/82 111/327/82 112/328/82
f 107/329/83 105/330/83 109/331/83 111/332/83
f 112/333/84 110/334/84 106/335/84 108/336/84
f 116/337/85 114/338/85 113/339/85 115/340/85
f 119/341/86 117/342/86 118/343/86 120/344/86
f 113/345/87 114/346/87 118/347/87 117/348/87
f 116/349/88 115/350/88 119/351/88 120/352/88
f 115/353/89 113/354/89 117/355/89 119/356/89
f 120/357/90 118/358/90 114/359/90 116/360/90
f 124/361/91 122/362/91 121/363/91 123/364/91
f 127/365/92 125/366/92 126/367/92 128/368/92
f 121/369/93 122/370/93 126/371/93 125/372/93
f 124/373/94 123/374/94 127/375/94 128/376/94
f 123/377/95 121/378/95 125/379/95 127/380/95
f 128/381/96 126/382/96 122/383/96 124/384/96
f 129/385/97 130/386/97 131/387/97
f 132/388/98 133/389/98 134/390/98
f 132/391/99 129/392/99 130/393/99 133/394/99
f 131/395/100 129/396/100 132/397/100 134/398/100
f 133/399/101 130/400/101 131/401/101 134/402/101
f 135/403/102 136/404/102 137/405/102
f 138/406/103 139/407/103 140/408/103
f 138/409/104 135/410/104 136/411/104 139/412/104
f 137/413/105 135/414/105 138/415/105 140/416/105
f 139/417/106 136/418/106 137/419/106 140/420/106
usemtl m_de520ccc-0234-6a6c-1047-8b7438fb9ffd
f 144/421/107 142/422/107 141/423/107 143/424/107
f 147/425/108 145/426/108 146/427/108 148/428/108
f 141/429/109 142/430/109 146/431/109 145/432/109
f 144/433/110 143/434/110 147/435/110 148/436/110
f 143/437/111 141/438/111 145/439/111 147/440/111
f 148/441/112 146/442/112 142/443/112 144/444/112
f 152/445/113 150/446/113 149/447/113 151/448/113
f 155/449/114 153/450/114 154/451/114 156/452/114
f 149/453/115 150/454/115 154/455/115 153/456/115
f 152/457/116 151/458/116 155/459/116 156/460/116
f 151/461/117 149/462/117 153/463/117 155/464/117
f 156/465/118 154/466/118 150/467/118 152/468/118
f 158/469/119 157/470/119 159/471/119 160/472/119
f 163/473/120 161/474/120 162/475/120 164/476/120
f 161/477/121 157/478/121 158/479/121 162/480/121
f 160/481/122 159/482/122 163/483/122 164/484/122
f 159/485/123 157/486/123 161/487/123 163/488/123
f 162/489/124 158/490/124 160/491/124 164/492/124
f 166/493/125 165/494/125 167/495/125 168/496/125
f 171/497/126 169/498/126 170/499/126 172/500/126
f 169/501/127 165/502/127 166/503/127 170/504/127
f 168/505/128 167/506/128 171/507/128 172/508/128
f 167/509/129 165/510/129 169/511/129 171/512/129
f 170/513/130 166/514/130 168/515/130 172/516/130