# Made in Blockbench 5.1.4
mtllib zs3v.mtl

o mesh
v 0.21875 3.796875 -0.640625
v 0.21875 3.796875 -0.8125
v 0.21875 3.34375 -0.640625
v 0.171875 3.796875 -0.640625
v 0.171875 3.796875 -0.8125
v 0.171875 3.34375 -0.640625
v -0.171875 3.796875 -0.640625
v -0.171875 3.796875 -0.8125
v -0.171875 3.34375 -0.640625
v -0.21875 3.796875 -0.640625
v -0.21875 3.796875 -0.8125
v -0.21875 3.34375 -0.640625
v 0.171875 3.796875 -0.628125
v 0.171875 3.796875 -0.628125
v 0.171875 3.34375 -0.628125
v 0.171875 3.34375 -0.628125
v -0.171875 3.796875 -0.628125
v -0.171875 3.796875 -0.628125
v -0.171875 3.34375 -0.628125
v -0.171875 3.34375 -0.628125
v 0.5 3.875 -0.5625
v 0.5 3.875 -0.625
v 0.5 3.8125 -0.5625
v 0.5 3.8125 -0.625
v -0.5 3.875 -0.5625
v -0.5 3.875 -0.625
v -0.5 3.8125 -0.5625
v -0.5 3.8125 -0.625
v 0.4375 3.8125 -0.5625
v 0.4375 3.8125 -0.625
v 0.4375 3.78125 -0.5625
v 0.4375 3.78125 -0.625
v -0.4375 3.8125 -0.5625
v -0.4375 3.8125 -0.625
v -0.4375 3.78125 -0.5625
v -0.4375 3.78125 -0.625
v 0.049940168868263746 3.0474760985808356 -0.561875
v 0.049940168868263746 3.0474760985808356 -0.624375
v -0.031249712736527352 3.0006010985808356 -0.561875
v -0.031249712736527352 3.0006010985808356 -0.624375
v -0.4188098311317363 3.859374914628747 -0.561875
v -0.4188098311317363 3.859374914628747 -0.624375
v -0.49999971273652744 3.812499914628747 -0.561875
v -0.49999971273652744 3.812499914628747 -0.624375
v 0.4188098311317363 3.859374914628747 -0.5625
v 0.4188098311317363 3.859374914628747 -0.625
v 0.49999971273652744 3.812499914628747 -0.5625
v 0.49999971273652744 3.812499914628747 -0.625
v -0.049940168868263746 3.0474760985808356 -0.5625
v -0.049940168868263746 3.0474760985808356 -0.625
v 0.031249712736527352 3.0006010985808356 -0.5625
v 0.031249712736527352 3.0006010985808356 -0.625
v 0.03125 3.064223125 -0.559375
v 0.03125 3.064223125 -0.621875
v 0.03125 3.001723125 -0.559375
v 0.03125 3.001723125 -0.621875
v -0.03125 3.064223125 -0.559375
v -0.03125 3.064223125 -0.621875
v -0.03125 3.001723125 -0.559375
v -0.03125 3.001723125 -0.621875
v 0.375 3.78125 -0.55625
v 0.375 3.78125 -0.61875
v 0.375 3.625 -0.55625
v 0.375 3.625 -0.61875
v -0.375 3.78125 -0.55625
v -0.375 3.78125 -0.61875
v -0.375 3.625 -0.55625
v -0.375 3.625 -0.61875
v 0.3125 3.625 -0.55625
v 0.3125 3.625 -0.61875
v 0.3125 3.5 -0.55625
v 0.3125 3.5 -0.61875
v -0.3125 3.625 -0.55625
v -0.3125 3.625 -0.61875
v -0.3125 3.5 -0.55625
v -0.3125 3.5 -0.61875
v 0.234375 3.5 -0.55625
v 0.234375 3.5 -0.61875
v 0.234375 3.375 -0.55625
v 0.234375 3.375 -0.61875
v -0.234375 3.5 -0.55625
v -0.234375 3.5 -0.61875
v -0.234375 3.375 -0.55625
v -0.234375 3.375 -0.61875
v 0.15625 3.375 -0.55625
v 0.15625 3.375 -0.61875
v 0.15625 3.25 -0.55625
v 0.15625 3.25 -0.61875
v -0.15625 3.375 -0.55625
v -0.15625 3.375 -0.61875
v -0.15625 3.25 -0.55625
v -0.15625 3.25 -0.61875
v 0.09375 3.25 -0.55625
v 0.09375 3.25 -0.61875
v 0.09375 3.125 -0.55625
v 0.09375 3.125 -0.61875
v -0.09375 3.25 -0.55625
v -0.09375 3.25 -0.61875
v -0.09375 3.125 -0.55625
v -0.09375 3.125 -0.61875
v 0.21875 3.828125 -0.40625
v 0.21875 3.828125 -0.5625
v 0.21875 3.3125 -0.40625
v 0.21875 3.3125 -0.5625
v -0.21875 3.828125 -0.40625
v -0.21875 3.828125 -0.5625
v -0.21875 3.3125 -0.40625
v -0.21875 3.3125 -0.5625
v 0.21875 3.84375 -0.625
v 0.21875 3.84375 -0.8125
v 0.21875 3.796875 -0.625
v 0.21875 3.796875 -0.8125
v -0.21875 3.84375 -0.625
v -0.21875 3.84375 -0.8125
v -0.21875 3.796875 -0.625
v -0.21875 3.796875 -0.8125
v -0.171875 3.796875 -0.625
v -0.171875 3.796875 -0.640625
v -0.171875 3.34375 -0.625
v -0.171875 3.34375 -0.640625
v -0.21875 3.796875 -0.625
v -0.21875 3.796875 -0.640625
v -0.21875 3.34375 -0.625
v -0.21875 3.34375 -0.640625
v 0.21875 3.796875 -0.625
v 0.21875 3.796875 -0.640625
v 0.21875 3.34375 -0.625
v 0.21875 3.34375 -0.640625
v 0.171875 3.796875 -0.625
v 0.171875 3.796875 -0.640625
v 0.171875 3.34375 -0.625
v 0.171875 3.34375 -0.640625
v 0.0625 3.375 -0.25
v 0.0625 3.375 -0.5625
v 0.0625 3.25 -0.25
v 0.0625 3.25 -0.5625
v -0.0625 3.375 -0.25
v -0.0625 3.375 -0.5625
v -0.0625 3.25 -0.25
v -0.0625 3.25 -0.5625
v 0.056249999999999994 3.214253941148979 -0.16361524708594177
v 0.056249999999999994 3.357760228285888 -0.5100700717776743
v 0.056249999999999994 3.0987689995850682 -0.21145067613157797
v 0.056249999999999994 3.242275286721977 -0.5579055008233105
v -0.05625000000000002 3.214253941148979 -0.16361524708594177
v -0.05625000000000002 3.357760228285888 -0.5100700717776743
v -0.05625000000000002 3.0987689995850682 -0.21145067613157797
v -0.05625000000000002 3.242275286721977 -0.5579055008233105
vt 0.28125 0.296875
vt 0.296875 0.296875
vt 0.296875 0.171875
vt 0.296875 0.296875
vt 0.28125 0.296875
vt 0.28125 0.171875
vt 0.28125 0.28125
vt 0.296875 0.28125
vt 0.296875 0.296875
vt 0.28125 0.296875
vt 0.296875 0.171875
vt 0.296875 0.296875
vt 0.28125 0.296875
vt 0.28125 0.171875
vt 0.296875 0.296875
vt 0.28125 0.296875
vt 0.28125 0.171875
vt 0.296875 0.171875
vt 0.28125 0.296875
vt 0.296875 0.296875
vt 0.296875 0.171875
vt 0.296875 0.296875
vt 0.28125 0.296875
vt 0.28125 0.171875
vt 0.28125 0.28125
vt 0.296875 0.28125
vt 0.296875 0.296875
vt 0.28125 0.296875
vt 0.296875 0.171875
vt 0.296875 0.296875
vt 0.28125 0.296875
vt 0.28125 0.171875
vt 0.296875 0.296875
vt 0.28125 0.296875
vt 0.28125 0.171875
vt 0.296875 0.171875
vt 0 1
vt 0 1
vt 0 0.5625
vt 0 0.5625
vt 0 1
vt 0 1
vt 0 0.5625
vt 0 0.5625
vt 0 1
vt 0.40625 1
vt 0 1
vt 0.40625 1
vt 0 1
vt 0.40625 1
vt 0 1
vt 0.40625 1
vt 0.40625 0.09375
vt 0.40625 0.53125
vt 0 0.53125
vt 0 0.09375
vt 0.34375 0.53125
vt 0.34375 1
vt 0 1
vt 0 0.53125
vt 0.765625 0.421875
vt 0.765625 0.40625
vt 0.75 0.40625
vt 0.75 0.421875
vt 0.78125 0.421875
vt 0.78125 0.40625
vt 0.765625 0.40625
vt 0.765625 0.421875
vt 1 0.4375
vt 1 0.421875
vt 0.75 0.421875
vt 0.75 0.4375
vt 1 0.421875
vt 1 0.40625
vt 0.75 0.40625
vt 0.75 0.421875
vt 1 0.421875
vt 1 0.40625
vt 0.75 0.40625
vt 0.75 0.421875
vt 1 0.421875
vt 1 0.40625
vt 0.75 0.40625
vt 0.75 0.421875
vt 0.765625 0.4140625
vt 0.765625 0.40625
vt 0.75 0.40625
vt 0.75 0.4140625
vt 0.78125 0.4140625
vt 0.78125 0.40625
vt 0.765625 0.40625
vt 0.765625 0.4140625
vt 0.984375 0.4375
vt 0.984375 0.421875
vt 0.765625 0.421875
vt 0.765625 0.4375
vt 0.984375 0.421875
vt 0.984375 0.40625
vt 0.765625 0.40625
vt 0.765625 0.421875
vt 0.984375 0.4140625
vt 0.984375 0.40625
vt 0.765625 0.40625
vt 0.765625 0.4140625
vt 0.984375 0.4140625
vt 0.984375 0.40625
vt 0.765625 0.40625
vt 0.765625 0.4140625
vt 0.765625 0.421875
vt 0.765625 0.3984375
vt 0.75 0.3984375
vt 0.75 0.421875
vt 0.78125 0.421875
vt 0.78125 0.3984375
vt 0.765625 0.3984375
vt 0.765625 0.421875
vt 0.984375 0.4375
vt 0.984375 0.421875
vt 0.75 0.421875
vt 0.75 0.4375
vt 0.984375 0.421875
vt 0.984375 0.40625
vt 0.75 0.40625
vt 0.75 0.421875
vt 0.984375 0.421875
vt 0.984375 0.3984375
vt 0.75 0.3984375
vt 0.75 0.421875
vt 1 0.421875
vt 1 0.3984375
vt 0.765625 0.3984375
vt 0.765625 0.421875
vt 0.765625 0.421875
vt 0.765625 0.3984375
vt 0.75 0.3984375
vt 0.75 0.421875
vt 0.78125 0.421875
vt 0.78125 0.3984375
vt 0.765625 0.3984375
vt 0.765625 0.421875
vt 1 0.4375
vt 1 0.421875
vt 0.765625 0.421875
vt 0.765625 0.4375
vt 1 0.421875
vt 1 0.40625
vt 0.765625 0.40625
vt 0.765625 0.421875
vt 1 0.421875
vt 1 0.3984375
vt 0.765625 0.3984375
vt 0.765625 0.421875
vt 0.984375 0.421875
vt 0.984375 0.3984375
vt 0.75 0.3984375
vt 0.75 0.421875
vt 0.78125 0.421875
vt 0.78125 0.40625
vt 0.765625 0.40625
vt 0.765625 0.421875
vt 0.765625 0.421875
vt 0.765625 0.40625
vt 0.75 0.40625
vt 0.75 0.421875
vt 0.78125 0.421875
vt 0.78125 0.40625
vt 0.765625 0.40625
vt 0.765625 0.421875
vt 0.78125 0.4375
vt 0.78125 0.421875
vt 0.765625 0.421875
vt 0.765625 0.4375
vt 0.78125 0.421875
vt 0.78125 0.40625
vt 0.765625 0.40625
vt 0.765625 0.421875
vt 0.765625 0.421875
vt 0.765625 0.40625
vt 0.75 0.40625
vt 0.75 0.421875
vt 0.71875 0.359375
vt 0.71875 0.3203125
vt 0.703125 0.3203125
vt 0.703125 0.359375
vt 0.71875 0.34375
vt 0.71875 0.3046875
vt 0.703125 0.3046875
vt 0.703125 0.34375
vt 0.875 0.34375
vt 0.875 0.328125
vt 0.6875 0.328125
vt 0.6875 0.34375
vt 0.875 0.359375
vt 0.875 0.34375
vt 0.6875 0.34375
vt 0.6875 0.359375
vt 0.875 0.34375
vt 0.875 0.3046875
vt 0.6875 0.3046875
vt 0.6875 0.34375
vt 0.875 0.359375
vt 0.875 0.3203125
vt 0.6875 0.3203125
vt 0.6875 0.359375
vt 0.71875 0.3671875
vt 0.71875 0.3359375
vt 0.703125 0.3359375
vt 0.703125 0.3671875
vt 0.703125 0.3671875
vt 0.703125 0.3359375
vt 0.6875 0.3359375
vt 0.6875 0.3671875
vt 0.875 0.3515625
vt 0.875 0.3359375
vt 0.71875 0.3359375
vt 0.71875 0.3515625
vt 0.875 0.3671875
vt 0.875 0.3515625
vt 0.71875 0.3515625
vt 0.71875 0.3671875
vt 0.875 0.3671875
vt 0.875 0.3359375
vt 0.71875 0.3359375
vt 0.71875 0.3671875
vt 0.875 0.3671875
vt 0.875 0.3359375
vt 0.71875 0.3359375
vt 0.71875 0.3671875
vt 0.72265625 0.3359375
vt 0.72265625 0.3046875
vt 0.70703125 0.3046875
vt 0.70703125 0.3359375
vt 0.70703125 0.3359375
vt 0.70703125 0.3046875
vt 0.69140625 0.3046875
vt 0.69140625 0.3359375
vt 0.859375 0.3203125
vt 0.859375 0.3046875
vt 0.7421875 0.3046875
vt 0.7421875 0.3203125
vt 0.859375 0.3359375
vt 0.859375 0.3203125
vt 0.7421875 0.3203125
vt 0.7421875 0.3359375
vt 0.859375 0.3359375
vt 0.859375 0.3046875
vt 0.7421875 0.3046875
vt 0.7421875 0.3359375
vt 0.859375 0.3359375
vt 0.859375 0.3046875
vt 0.7421875 0.3046875
vt 0.7421875 0.3359375
vt 0.70703125 0.3046875
vt 0.70703125 0.2734375
vt 0.69140625 0.2734375
vt 0.69140625 0.3046875
vt 0.69140625 0.3046875
vt 0.69140625 0.2734375
vt 0.67578125 0.2734375
vt 0.67578125 0.3046875
vt 0.82421875 0.2890625
vt 0.82421875 0.2734375
vt 0.74609375 0.2734375
vt 0.74609375 0.2890625
vt 0.82421875 0.3046875
vt 0.82421875 0.2890625
vt 0.74609375 0.2890625
vt 0.74609375 0.3046875
vt 0.82421875 0.3046875
vt 0.82421875 0.2734375
vt 0.74609375 0.2734375
vt 0.74609375 0.3046875
vt 0.82421875 0.3046875
vt 0.82421875 0.2734375
vt 0.74609375 0.2734375
vt 0.74609375 0.3046875
vt 0.70703125 0.28125
vt 0.70703125 0.25
vt 0.69140625 0.25
vt 0.69140625 0.28125
vt 0.69140625 0.28125
vt 0.69140625 0.25
vt 0.67578125 0.25
vt 0.67578125 0.28125
vt 0.80859375 0.265625
vt 0.80859375 0.25
vt 0.76171875 0.25
vt 0.76171875 0.265625
vt 0.80859375 0.28125
vt 0.80859375 0.265625
vt 0.76171875 0.265625
vt 0.76171875 0.28125
vt 0.80859375 0.28125
vt 0.80859375 0.25
vt 0.76171875 0.25
vt 0.76171875 0.28125
vt 0.80859375 0.28125
vt 0.80859375 0.25
vt 0.76171875 0.25
vt 0.76171875 0.28125
vt 0.34375 0.1875
vt 0.34375 0.30078125
vt 0.3046875 0.30078125
vt 0.3046875 0.1875
vt 0.3359375 0.1875
vt 0.3359375 0.30078125
vt 0.296875 0.30078125
vt 0.296875 0.1875
vt 0.4140625 0.2734375
vt 0.4140625 0.3125
vt 0.3046875 0.3125
vt 0.3046875 0.2734375
vt 0.4140625 0.265625
vt 0.4140625 0.3046875
vt 0.3046875 0.3046875
vt 0.3046875 0.265625
vt 0.4140625 0.1875
vt 0.4140625 0.30078125
vt 0.3046875 0.30078125
vt 0.3046875 0.1875
vt 0.4140625 0.1875
vt 0.4140625 0.30078125
vt 0.3046875 0.30078125
vt 0.3046875 0.1875
vt 0.328125 0.28515625
vt 0.328125 0.296875
vt 0.28125 0.296875
vt 0.28125 0.28515625
vt 0.34375 0.28515625
vt 0.34375 0.296875
vt 0.296875 0.296875
vt 0.296875 0.28515625
vt 0.40625 0.234375
vt 0.40625 0.28125
vt 0.28125 0.28125
vt 0.28125 0.234375
vt 0.40625 0.25
vt 0.40625 0.296875
vt 0.28125 0.296875
vt 0.28125 0.25
vt 0.40625 0.28515625
vt 0.40625 0.296875
vt 0.28125 0.296875
vt 0.28125 0.28515625
vt 0.40625 0.28515625
vt 0.40625 0.296875
vt 0.28125 0.296875
vt 0.28125 0.28515625
vt 0.28515625 0.1953125
vt 0.28515625 0.30078125
vt 0.28125 0.30078125
vt 0.28125 0.1953125
vt 0.328125 0.1953125
vt 0.328125 0.30078125
vt 0.32421875 0.30078125
vt 0.32421875 0.1953125
vt 0.29296875 0.265625
vt 0.29296875 0.26953125
vt 0.28125 0.26953125
vt 0.28125 0.265625
vt 0.29296875 0.30859375
vt 0.29296875 0.3125
vt 0.28125 0.3125
vt 0.28125 0.30859375
vt 0.29296875 0.1953125
vt 0.29296875 0.30078125
vt 0.28125 0.30078125
vt 0.28125 0.1953125
vt 0.40625 0.1953125
vt 0.40625 0.30078125
vt 0.39453125 0.30078125
vt 0.39453125 0.1953125
vt 0.28515625 0.1953125
vt 0.28515625 0.30078125
vt 0.28125 0.30078125
vt 0.28125 0.1953125
vt 0.328125 0.1953125
vt 0.328125 0.30078125
vt 0.32421875 0.30078125
vt 0.32421875 0.1953125
vt 0.29296875 0.265625
vt 0.29296875 0.26953125
vt 0.28125 0.26953125
vt 0.28125 0.265625
vt 0.29296875 0.30859375
vt 0.29296875 0.3125
vt 0.28125 0.3125
vt 0.28125 0.30859375
vt 0.29296875 0.1953125
vt 0.29296875 0.30078125
vt 0.28125 0.30078125
vt 0.28125 0.1953125
vt 0.40625 0.1953125
vt 0.40625 0.30078125
vt 0.39453125 0.30078125
vt 0.39453125 0.1953125
vt 0.3125 0.875
vt 0.3125 1
vt 0 1
vt 0 0.875
vt 0.375 0.875
vt 0.375 1
vt 0.0625 1
vt 0.0625 0.875
vt 0.125 0.625
vt 0.125 0.9375
vt 0 0.9375
vt 0 0.625
vt 0.125 0.6875
vt 0.125 1
vt 0 1
vt 0 0.6875
vt 0.125 0.875
vt 0.125 1
vt 0 1
vt 0 0.875
vt 0.125 0.875
vt 0.125 1
vt 0 1
vt 0 0.875
vt 0.375 0.875
vt 0.375 1
vt 0 1
vt 0 0.875
vt 0.421875 0.875
vt 0.421875 1
vt 0.046875 1
vt 0.046875 0.875
vt 0.1125 0.578125
vt 0.1125 0.953125
vt 0 0.953125
vt 0 0.578125
vt 0.1125 0.625
vt 0.1125 1
vt 0 1
vt 0 0.625
vt 0.1125 0.875
vt 0.1125 1
vt 0 1
vt 0 0.875
vt 0.125 0.875
vt 0.125 1
vt 0.0125 1
vt 0.0125 0.875
vn -1 0 0
vn -1 0 0
vn 0 1 0
vn 0 0 1
vn 0 -0.3546542341205386 -0.9349975263177837
vn -1 0 0
vn -1 0 0
vn 0 1 0
vn 0 0 1
vn 0 -0.3546542341205386 -0.9349975263177837
vn 0 0 0
vn 0 0 0
vn 0 0 0
vn 0 0 0
vn 0 0 1
vn 0 0 -1
vn 1 0 0
vn -1 0 0
vn 0 1 0
vn 0 -1 0
vn 0 0 1
vn 0 0 -1
vn 1 0 0
vn -1 0 0
vn 0 1 0
vn 0 -1 0
vn 0 0 1
vn 0 0 -1
vn 0.5000000000000002 -0.8660254037844387 0
vn -0.5 0.8660254037844387 0
vn 0.8660254037844387 0.5000000000000001 0
vn -0.8660254037844386 -0.5000000000000001 0
vn 0 0 1
vn 0 0 -1
vn 0.5 0.8660254037844387 0
vn -0.5000000000000002 -0.8660254037844387 0
vn -0.8660254037844387 0.5000000000000001 0
vn 0.8660254037844386 -0.5000000000000001 0
vn 0 0 1
vn 0 0 -1
vn 1 0 0
vn -1 0 0
vn 0 1 0
vn 0 -1 0
vn 0 0 1
vn 0 0 -1
vn 1 0 0
vn -1 0 0
vn 0 1 0
vn 0 -1 0
vn 0 0 1
vn 0 0 -1
vn 1 0 0
vn -1 0 0
vn 0 1 0
vn 0 -1 0
vn 0 0 1
vn 0 0 -1
vn 1 0 0
vn -1 0 0
vn 0 1 0
vn 0 -1 0
vn 0 0 1
vn 0 0 -1
vn 1 0 0
vn -1 0 0
vn 0 1 0
vn 0 -1 0
vn 0 0 1
vn 0 0 -1
vn 1 0 0
vn -1 0 0
vn 0 1 0
vn 0 -1 0
vn 0 0 1
vn 0 0 -1
vn 1 0 0
vn -1 0 0
vn 0 1 0
vn 0 -1 0
vn 0 0 1
vn 0 0 -1
vn 1 0 0
vn -1 0 0
vn 0 1 0
vn 0 -1 0
vn 0 0 1
vn 0 0 -1
vn 1 0 0
vn -1 0 0
vn 0 1 0
vn 0 -1 0
vn 0 0 1
vn 0 0 -1
vn 1 0 0
vn -1 0 0
vn 0 1 0
vn 0 -1 0
vn 0 0 1
vn 0 0 -1
vn 1 0 0
vn -1 0 0
vn 0 1 0
vn 0 -1 0
vn 0 0 1
vn 0 0 -1
vn 1 0 0
vn -1 0 0
vn 0 0.9238795325112866 0.38268343236509017
vn 0 -0.9238795325112866 -0.38268343236509017
vn 0 -0.3826834323650899 0.9238795325112867
vn 0 0.3826834323650899 -0.9238795325112867
usemtl m_3d215661-f591-00a8-53e2-d8d611c756be
f 1/1/1 2/2/1 3/3/1
f 4/4/2 5/5/2 6/6/2
f 4/7/3 1/8/3 2/9/3 5/10/3
f 3/11/4 1/12/4 4/13/4 6/14/4
f 5/15/5 2/16/5 3/17/5 6/18/5
f 7/19/6 8/20/6 9/21/6
f 10/22/7 11/23/7 12/24/7
f 10/25/8 7/26/8 8/27/8 11/28/8
f 9/29/9 7/30/9 10/31/9 12/32/9
f 11/33/10 8/34/10 9/35/10 12/36/10
usemtl m_adb34d05-0c7c-b30d-8452-2fc43beea9f3
f 14/37/11 13/38/11 16/39/11 15/40/11
f 17/41/12 18/42/12 19/43/12 20/44/12
f 14/45/13 18/46/13 13/47/13 17/48/13
f 15/49/14 19/50/14 16/51/14 20/52/14
f 15/53/15 13/54/15 17/55/15 19/56/15
f 20/57/16 18/58/16 14/59/16 16/60/16
usemtl m_3d215661-f591-00a8-53e2-d8d611c756be
f 24/61/17 22/62/17 21/63/17 23/64/17
f 27/65/18 25/66/18 26/67/18 28/68/18
f 21/69/19 22/70/19 26/71/19 25/72/19
f 24/73/20 23/74/20 27/75/20 28/76/20
f 23/77/21 21/78/21 25/79/21 27/80/21
f 28/81/22 26/82/22 22/83/22 24/84/22
f 32/85/23 30/86/23 29/87/23 31/88/23
f 35/89/24 33/90/24 34/91/24 36/92/24
f 29/93/25 30/94/25 34/95/25 33/96/25
f 32/97/26 31/98/26 35/99/26 36/100/26
f 31/101/27 29/102/27 33/103/27 35/104/27
f 36/105/28 34/106/28 30/107/28 32/108/28
f 40/109/29 38/110/29 37/111/29 39/112/29
f 43/113/30 41/114/30 42/115/30 44/116/30
f 37/117/31 38/118/31 42/119/31 41/120/31
f 40/121/32 39/122/32 43/123/32 44/124/32
f 39/125/33 37/126/33 41/127/33 43/128/33
f 44/129/34 42/130/34 38/131/34 40/132/34
f 48/133/35 46/134/35 45/135/35 47/136/35
f 51/137/36 49/138/36 50/139/36 52/140/36
f 45/141/37 46/142/37 50/143/37 49/144/37
f 48/145/38 47/146/38 51/147/38 52/148/38
f 47/149/39 45/150/39 49/151/39 51/152/39
f 52/153/40 50/154/40 46/155/40 48/156/40
f 56/157/41 54/158/41 53/159/41 55/160/41
f 59/161/42 57/162/42 58/163/42 60/164/42
f 53/165/43 54/166/43 58/167/43 57/168/43
f 56/169/44 55/170/44 59/171/44 60/172/44
f 55/173/45 53/174/45 57/175/45 59/176/45
f 60/177/46 58/178/46 54/179/46 56/180/46
f 64/181/47 62/182/47 61/183/47 63/184/47
f 67/185/48 65/186/48 66/187/48 68/188/48
f 61/189/49 62/190/49 66/191/49 65/192/49
f 64/193/50 63/194/50 67/195/50 68/196/50
f 63/197/51 61/198/51 65/199/51 67/200/51
f 68/201/52 66/202/52 62/203/52 64/204/52
f 72/205/53 70/206/53 69/207/53 71/208/53
f 75/209/54 73/210/54 74/211/54 76/212/54
f 69/213/55 70/214/55 74/215/55 73/216/55
f 72/217/56 71/218/56 75/219/56 76/220/56
f 71/221/57 69/222/57 73/223/57 75/224/57
f 76/225/58 74/226/58 70/227/58 72/228/58
f 80/229/59 78/230/59 77/231/59 79/232/59
f 83/233/60 81/234/60 82/235/60 84/236/60
f 77/237/61 78/238/61 82/239/61 81/240/61
f 80/241/62 79/242/62 83/243/62 84/244/62
f 79/245/63 77/246/63 81/247/63 83/248/63
f 84/249/64 82/250/64 78/251/64 80/252/64
f 88/253/65 86/254/65 85/255/65 87/256/65
f 91/257/66 89/258/66 90/259/66 92/260/66
f 85/261/67 86/262/67 90/263/67 89/264/67
f 88/265/68 87/266/68 91/267/68 92/268/68
f 87/269/69 85/270/69 89/271/69 91/272/69
f 92/273/70 90/274/70 86/275/70 88/276/70
f 96/277/71 94/278/71 93/279/71 95/280/71
f 99/281/72 97/282/72 98/283/72 100/284/72
f 93/285/73 94/286/73 98/287/73 97/288/73
f 96/289/74 95/290/74 99/291/74 100/292/74
f 95/293/75 93/294/75 97/295/75 99/296/75
f 100/297/76 98/298/76 94/299/76 96/300/76
f 104/301/77 102/302/77 101/303/77 103/304/77
f 107/305/78 105/306/78 106/307/78 108/308/78
f 101/309/79 102/310/79 106/311/79 105/312/79
f 104/313/80 103/314/80 107/315/80 108/316/80
f 103/317/81 101/318/81 105/319/81 107/320/81
f 108/321/82 106/322/82 102/323/82 104/324/82
f 112/325/83 110/326/83 109/327/83 111/328/83
f 115/329/84 113/330/84 114/331/84 116/332/84
f 109/333/85 110/334/85 114/335/85 113/336/85
f 112/337/86 111/338/86 115/339/86 116/340/86
f 111/341/87 109/342/87 113/343/87 115/344/87
f 116/345/88 114/346/88 110/347/88 112/348/88
f 120/349/89 118/350/89 117/351/89 119/352/89
f 123/353/90 121/354/90 122/355/90 124/356/90
f 117/357/91 118/358/91 122/359/91 121/360/91
f 120/361/92 119/362/92 123/363/92 124/364/92
f 119/365/93 117/366/93 121/367/93 123/368/93
f 124/369/94 122/370/94 118/371/94 120/372/94
f 128/373/95 126/374/95 125/375/95 127/376/95
f 131/377/96 129/378/96 130/379/96 132/380/96
f 125/381/97 126/382/97 130/383/97 129/384/97
f 128/385/98 127/386/98 131/387/98 132/388/98
f 127/389/99 125/390/99 129/391/99 131/392/99
f 132/393/100 130/394/100 126/395/100 128/396/100
usemtl m_de520ccc-0234-6a6c-1047-8b7438fb9ffd
f 136/397/101 134/398/101 133/399/101 135/400/101
f 139/401/102 137/402/102 138/403/102 140/404/102
f 133/405/103 134/406/103 138/407/103 137/408/103
f 136/409/104 135/410/104 139/411/104 140/412/104
f 135/413/105 133/414/105 137/415/105 139/416/105
f 140/417/106 138/418/106 134/419/106 136/420/106
f 144/421/107 142/422/107 141/423/107 143/424/107
f 147/425/108 145/426/108 146/427/108 148/428/108
f 141/429/109 142/430/109 146/431/109 145/432/109
f 144/433/110 143/434/110 147/435/110 148/436/110
f 143/437/111 141/438/111 145/439/111 147/440/111
f 148/441/112 146/442/112 142/443/112 144/444/112