# Made in Blockbench 4.12.6
mtllib gate_4.mtl

o cube
v -0.3861322992127232 0.08749999999999991 0.9737215711831968
v -0.3115051944850409 0.08749999999999991 0.12072986094213978
v -0.3861322992127232 -0.08750000000000002 0.9737215711831968
v -0.3115051944850409 -0.08750000000000002 0.12072986094213978
v -0.44839446784345727 0.08749999999999991 0.9682743372614682
v -0.37376736311577496 0.08749999999999991 0.11528262702041114
v -0.44839446784345727 -0.08750000000000002 0.9682743372614682
v -0.37376736311577496 -0.08750000000000002 0.11528262702041114
v 0.44839446784345727 0.08749999999999991 0.9682743372614682
v 0.37322263972360203 0.08749999999999991 0.10905641015733747
v 0.44839446784345727 -0.08750000000000002 0.9682743372614682
v 0.37322263972360203 -0.08750000000000002 0.10905641015733747
v 0.3861322992127232 0.08749999999999991 0.9737215711831968
v 0.31096047109286806 0.08749999999999991 0.1145036440790661
v 0.3861322992127232 -0.08750000000000002 0.9737215711831968
v 0.31096047109286806 -0.08750000000000002 0.1145036440790661
v -0.3144599086862685 0.08749999999999991 -0.7251027144618447
v 0.03179062588783349 0.08749999999999991 -4.019456492869249
v -0.3144599086862685 -0.08750000000000002 -0.7251027144618447
v 0.03179062588783349 -0.08750000000000002 -4.019456492869249
v -0.37661752714678565 0.08749999999999991 -0.7316357434160732
v -0.030366992572683493 0.08749999999999991 -4.02598952182348
v -0.37661752714678565 -0.08750000000000002 -0.7316357434160732
v -0.030366992572683493 -0.08750000000000002 -4.02598952182348
v 0.03125 0.08749999999999991 -4
v 0.03125 0.08749999999999991 -4.562499999999999
v 0.03125 -0.08750000000000002 -4
v 0.03125 -0.08750000000000002 -4.562499999999999
v -0.03125 0.08749999999999991 -4
v -0.03125 0.08749999999999991 -4.5625
v -0.03125 -0.08750000000000002 -4
v -0.03125 -0.08750000000000002 -4.5625
v 0.3125 0.0625 -1.125
v -0.2937500000000002 0.0625 -1.1250000000000002
v 0.3125 -0.0625 -1.125
v -0.2937500000000002 -0.0625 -1.1250000000000002
v 0.3125 0.0625 -1.0624999999999998
v -0.2937500000000002 0.0625 -1.0625000000000002
v 0.3125 -0.0625 -1.0624999999999998
v -0.2937500000000002 -0.0625 -1.0625000000000002
v 0.1875 0.0625 -2.437500000000001
v -0.16875000000000012 0.0625 -2.4375000000000004
v 0.1875 -0.0625 -2.437500000000001
v -0.16875000000000012 -0.0625 -2.4375000000000004
v 0.1875 0.0625 -2.3750000000000004
v -0.16875000000000018 0.0625 -2.375
v 0.1875 -0.0625 -2.3750000000000004
v -0.16875000000000018 -0.0625 -2.375
v 0.375 0.08749999999999991 0.12499999999999989
v 0.3750000000000001 0.08749999999999991 -0.7375000000000003
v 0.375 -0.08750000000000002 0.12499999999999989
v 0.3750000000000001 -0.08750000000000002 -0.7375000000000003
v 0.3125 0.08749999999999991 0.12499999999999989
v 0.3125 0.08749999999999991 -0.7375
v 0.3125 -0.08750000000000002 0.12499999999999989
v 0.3125 -0.08750000000000002 -0.7375
v -0.3125 0.08749999999999991 0.1250000000000001
v -0.3125 0.08749999999999991 -0.73125
v -0.3125 -0.08750000000000002 0.1250000000000001
v -0.3125 -0.08750000000000002 -0.73125
v -0.37500000000000006 0.08749999999999991 0.125
v -0.375 0.08749999999999991 -0.73125
v -0.37500000000000006 -0.08750000000000002 0.125
v -0.375 -0.08750000000000002 -0.73125
v 0.53125 0.15625 1
v 0.5312500000000001 0.15625 0.5
v 0.53125 -0.15625 1
v 0.5312500000000001 -0.15625 0.5
v 0.34375 0.15625 1
v 0.34375 0.15625 0.5
v 0.34375 -0.15625 1
v 0.34375 -0.15625 0.5
v -0.34375 0.15625 1
v -0.34375 0.15625 0.49999999999999994
v -0.34375 -0.15625 1
v -0.34375 -0.15625 0.49999999999999994
v -0.53125 0.15625 1
v -0.53125 0.15625 0.49999999999999994
v -0.53125 -0.15625 1
v -0.53125 -0.15625 0.49999999999999994
v 0.37661752714678565 0.08749999999999991 -0.7378857434160737
v 0.03036699257268355 0.08749999999999991 -4.03223952182348
v 0.37661752714678565 -0.08750000000000002 -0.7378857434160737
v 0.03036699257268355 -0.08750000000000002 -4.03223952182348
v 0.3144599086862686 0.08749999999999991 -0.731352714461845
v -0.03179062588783349 0.08749999999999991 -4.025706492869252
v 0.3144599086862686 -0.08750000000000002 -0.731352714461845
v -0.03179062588783349 -0.08750000000000002 -4.025706492869252
vt 0.1171875 0.8125
vt 0.1171875 0.84375
vt 0.03125 0.84375
vt 0.03125 0.8125
vt 0.21875 0.84375
vt 0.21875 0.875
vt 0.1328125 0.875
vt 0.1328125 0.84375
vt 0.171875 0.8203125
vt 0.171875 0.7265625
vt 0.1796875 0.7265625
vt 0.1796875 0.8203125
vt 0.1796875 0.7265625
vt 0.1796875 0.8203125
vt 0.1875 0.8203125
vt 0.1875 0.7265625
vt 0.046875 0.75
vt 0.046875 0.78125
vt 0.0390625 0.78125
vt 0.0390625 0.75
vt 0.0390625 0.75
vt 0.0390625 0.78125
vt 0.03125 0.78125
vt 0.03125 0.75
vt 0.1171875 0.8125
vt 0.1171875 0.84375
vt 0.03125 0.84375
vt 0.03125 0.8125
vt 0.21875 0.8125
vt 0.21875 0.84375
vt 0.1328125 0.84375
vt 0.1328125 0.8125
vt 0.1875 0.8203125
vt 0.1875 0.7265625
vt 0.1953125 0.7265625
vt 0.1953125 0.8203125
vt 0.1953125 0.7265625
vt 0.1953125 0.8203125
vt 0.203125 0.8203125
vt 0.203125 0.7265625
vt 0.0625 0.75
vt 0.0625 0.78125
vt 0.0546875 0.78125
vt 0.0546875 0.75
vt 0.0546875 0.75
vt 0.0546875 0.78125
vt 0.046875 0.78125
vt 0.046875 0.75
vt 0 0.9375
vt 0 0.96875
vt 0.421875 0.96875
vt 0.421875 0.9375
vt 0 0.875
vt 0 0.90625
vt 0.421875 0.90625
vt 0.421875 0.875
vt 0.0078125 0.875
vt 0.0078125 0.453125
vt 0 0.453125
vt 0 0.875
vt 0.015625 0.453125
vt 0.015625 0.875
vt 0.0078125 0.875
vt 0.0078125 0.453125
vt 0.0703125 0.75
vt 0.0703125 0.78125
vt 0.078125 0.78125
vt 0.078125 0.75
vt 0.0625 0.75
vt 0.0625 0.78125
vt 0.0703125 0.78125
vt 0.0703125 0.75
vt 0.1015625 0.78125
vt 0.1015625 0.8125
vt 0.03125 0.8125
vt 0.03125 0.78125
vt 0.171875 0.78125
vt 0.171875 0.8125
vt 0.1015625 0.8125
vt 0.1015625 0.78125
vt 0.203125 0.8125
vt 0.203125 0.7421875
vt 0.2109375 0.7421875
vt 0.2109375 0.8125
vt 0.2109375 0.7421875
vt 0.2109375 0.8125
vt 0.21875 0.8125
vt 0.21875 0.7421875
vt 0.109375 0.75
vt 0.109375 0.78125
vt 0.1015625 0.78125
vt 0.1015625 0.75
vt 0.1015625 0.75
vt 0.1015625 0.78125
vt 0.09375 0.78125
vt 0.09375 0.75
vt 0.21875 0.84375
vt 0.21875 0.875
vt 0.140625 0.875
vt 0.140625 0.84375
vt 0.21875 0.84375
vt 0.21875 0.875
vt 0.1328125 0.875
vt 0.1328125 0.84375
vt 0.171875 0.8203125
vt 0.171875 0.7265625
vt 0.1796875 0.7265625
vt 0.1796875 0.8203125
vt 0.1796875 0.7265625
vt 0.1796875 0.8203125
vt 0.1875 0.8203125
vt 0.1875 0.7265625
vt 0.046875 0.75
vt 0.046875 0.78125
vt 0.0390625 0.78125
vt 0.0390625 0.75
vt 0.0390625 0.75
vt 0.0390625 0.78125
vt 0.03125 0.78125
vt 0.03125 0.75
vt 0.21875 0.84375
vt 0.21875 0.875
vt 0.1328125 0.875
vt 0.1328125 0.84375
vt 0.21875 0.84375
vt 0.21875 0.875
vt 0.125 0.875
vt 0.125 0.84375
vt 0.171875 0.8125
vt 0.171875 0.71875
vt 0.1796875 0.71875
vt 0.1796875 0.8125
vt 0.1796875 0.71875
vt 0.1796875 0.8125
vt 0.1875 0.8125
vt 0.1875 0.71875
vt 0.046875 0.75
vt 0.046875 0.78125
vt 0.0390625 0.78125
vt 0.0390625 0.75
vt 0.0390625 0.75
vt 0.0390625 0.78125
vt 0.03125 0.78125
vt 0.03125 0.75
vt 0.125 0.8125
vt 0.125 0.84375
vt 0.03125 0.84375
vt 0.03125 0.8125
vt 0.21875 0.8125
vt 0.21875 0.84375
vt 0.125 0.84375
vt 0.125 0.8125
vt 0.1875 0.8125
vt 0.1875 0.71875
vt 0.1953125 0.71875
vt 0.1953125 0.8125
vt 0.1953125 0.71875
vt 0.1953125 0.8125
vt 0.203125 0.8125
vt 0.203125 0.71875
vt 0.0625 0.75
vt 0.0625 0.78125
vt 0.0546875 0.78125
vt 0.0546875 0.75
vt 0.0546875 0.75
vt 0.0546875 0.78125
vt 0.046875 0.78125
vt 0.046875 0.75
vt 0.125 0.84375
vt 0.125 0.875
vt 0.03125 0.875
vt 0.03125 0.84375
vt 0.21875 0.84375
vt 0.21875 0.875
vt 0.125 0.875
vt 0.125 0.84375
vt 0.171875 0.8125
vt 0.171875 0.71875
vt 0.1796875 0.71875
vt 0.1796875 0.8125
vt 0.1796875 0.71875
vt 0.1796875 0.8125
vt 0.1875 0.8125
vt 0.1875 0.71875
vt 0.046875 0.75
vt 0.046875 0.78125
vt 0.0390625 0.78125
vt 0.0390625 0.75
vt 0.0390625 0.75
vt 0.0390625 0.78125
vt 0.03125 0.78125
vt 0.03125 0.75
vt 0.9375 0.6796875
vt 0.9375 0.71875
vt 0.875 0.71875
vt 0.875 0.6796875
vt 0.0546875 0.234375
vt 0.0546875 0.2734375
vt 0 0.2734375
vt 0 0.234375
vt 0.9296875 0.7109375
vt 0.8671875 0.7109375
vt 0.8671875 0.6875
vt 0.9296875 0.6875
vt 0.9765625 0.7734375
vt 0.9140625 0.7734375
vt 0.9140625 0.75
vt 0.9765625 0.75
vt 0.8828125 0.6796875
vt 0.8828125 0.71875
vt 0.859375 0.71875
vt 0.859375 0.6796875
vt 0.8984375 0.6796875
vt 0.8984375 0.71875
vt 0.875 0.71875
vt 0.875 0.6796875
vt 0.984375 0.734375
vt 0.984375 0.7734375
vt 0.9296875 0.7734375
vt 0.9296875 0.734375
vt 0.0625 0
vt 0.0625 0.0390625
vt 0 0.0390625
vt 0 0
vt 0.9296875 0.7109375
vt 0.875 0.7109375
vt 0.875 0.6875
vt 0.9296875 0.6875
vt 0.078125 0.0390625
vt 0.015625 0.0390625
vt 0.015625 0.015625
vt 0.078125 0.015625
vt 0.9296875 0.6796875
vt 0.9296875 0.71875
vt 0.90625 0.71875
vt 0.90625 0.6796875
vt 0.90625 0.6796875
vt 0.90625 0.71875
vt 0.8828125 0.71875
vt 0.8828125 0.6796875
vt 0.421875 0.96875
vt 0.421875 1
vt 0 1
vt 0 0.96875
vt 0.421875 0.9375
vt 0.421875 0.96875
vt 0 0.96875
vt 0 0.9375
vt 0 0.875
vt 0 0.453125
vt 0.0078125 0.453125
vt 0.0078125 0.875
vt 0.0078125 0.453125
vt 0.0078125 0.875
vt 0.015625 0.875
vt 0.015625 0.453125
vt 0.078125 0.75
vt 0.078125 0.78125
vt 0.0703125 0.78125
vt 0.0703125 0.75
vt 0.0703125 0.75
vt 0.0703125 0.78125
vt 0.0625 0.78125
vt 0.0625 0.75
vn 0.9961946980917455 0 0.08715574274765818
vn -0.9961946980917455 0 -0.08715574274765818
vn 0 1 0
vn 0 -1 0
vn -0.08715574274765818 0 0.9961946980917455
vn 0.08715574274765818 0 -0.9961946980917455
vn 0.9961946980917455 0 -0.08715574274765825
vn -0.9961946980917455 0 0.08715574274765814
vn 0 1 0
vn 0 -1 0
vn 0.08715574274765775 0 0.9961946980917455
vn -0.08715574274765808 0 -0.9961946980917455
vn 0.9945218953682735 0 0.10452846326765346
vn -0.9945218953682735 0 -0.10452846326765347
vn 0 1 0
vn 0 -1 0
vn -0.10452846326765249 0 0.9945218953682735
vn 0.10452846326767017 0 -0.9945218953682716
vn 1 0 -1.387778780781446e-17
vn -1 0 1.387778780781446e-17
vn 0 1 0
vn 0 -1 0
vn -3.566591466608315e-15 0 1
vn 3.566591466608315e-15 0 -1
vn 4.163336342344337e-16 0 -1
vn -4.163336342344337e-16 0 1
vn 0 1 0
vn 0 -1 0
vn 1 0 3.3306690738754696e-16
vn -1 0 -3.3306690738754696e-16
vn -5.967448757360216e-16 0 -1
vn 5.967448757360216e-16 0 1
vn 0 1 0
vn 0 -1 0
vn 1 0 3.3306690738754696e-16
vn -1 0 -3.3306690738754696e-16
vn 1 0 6.938893903907228e-17
vn -1 0 5.551115123125783e-17
vn 0 1 0
vn 0 -1 0
vn -2.7755575615628914e-17 0 1
vn 1.8041124150158794e-16 0 -1
vn 1 0 2.7755575615628907e-17
vn -1 0 -2.7755575615628907e-17
vn 0 1 0
vn 0 -1 0
vn -9.71445146547012e-17 0 1
vn 9.71445146547012e-17 0 -1
vn 1 0 4.163336342344337e-17
vn -1 0 1.8041124150158794e-16
vn 0 1 0
vn 0 -1 0
vn -2.7755575615628914e-17 0 1
vn 6.938893903907228e-17 0 -1
vn 1 0 -5.551115123125783e-17
vn -1 0 5.551115123125783e-17
vn 0 1 0
vn 0 -1 0
vn -4.163336342344338e-17 0 1
vn 4.163336342344338e-17 0 -1
vn 0.9945218953682735 0 -0.10452846326765346
vn -0.9945218953682735 0 0.10452846326765343
vn 0 1 0
vn 0 -1 0
vn 0.10452846326765834 0 0.994521895368273
vn -0.10452846326765136 0 -0.9945218953682736
usemtl m_9ae8e664-107c-b92d-6546-467bebb67028
f 4/1/1 2/2/1 1/3/1 3/4/1
f 7/5/2 5/6/2 6/7/2 8/8/2
f 1/9/3 2/10/3 6/11/3 5/12/3
f 4/13/4 3/14/4 7/15/4 8/16/4
f 3/17/5 1/18/5 5/19/5 7/20/5
f 8/21/6 6/22/6 2/23/6 4/24/6
f 12/25/7 10/26/7 9/27/7 11/28/7
f 15/29/8 13/30/8 14/31/8 16/32/8
f 9/33/9 10/34/9 14/35/9 13/36/9
f 12/37/10 11/38/10 15/39/10 16/40/10
f 11/41/11 9/42/11 13/43/11 15/44/11
f 16/45/12 14/46/12 10/47/12 12/48/12
f 20/49/13 18/50/13 17/51/13 19/52/13
f 23/53/14 21/54/14 22/55/14 24/56/14
f 17/57/15 18/58/15 22/59/15 21/60/15
f 20/61/16 19/62/16 23/63/16 24/64/16
f 19/65/17 17/66/17 21/67/17 23/68/17
f 24/69/18 22/70/18 18/71/18 20/72/18
f 28/73/19 26/74/19 25/75/19 27/76/19
f 31/77/20 29/78/20 30/79/20 32/80/20
f 25/81/21 26/82/21 30/83/21 29/84/21
f 28/85/22 27/86/22 31/87/22 32/88/22
f 27/89/23 25/90/23 29/91/23 31/92/23
f 32/93/24 30/94/24 26/95/24 28/96/24
f 36/97/25 34/98/25 33/99/25 35/100/25
f 39/101/26 37/102/26 38/103/26 40/104/26
f 33/105/27 34/106/27 38/107/27 37/108/27
f 36/109/28 35/110/28 39/111/28 40/112/28
f 35/113/29 33/114/29 37/115/29 39/116/29
f 40/117/30 38/118/30 34/119/30 36/120/30
f 44/121/31 42/122/31 41/123/31 43/124/31
f 47/125/32 45/126/32 46/127/32 48/128/32
f 41/129/33 42/130/33 46/131/33 45/132/33
f 44/133/34 43/134/34 47/135/34 48/136/34
f 43/137/35 41/138/35 45/139/35 47/140/35
f 48/141/36 46/142/36 42/143/36 44/144/36
f 52/145/37 50/146/37 49/147/37 51/148/37
f 55/149/38 53/150/38 54/151/38 56/152/38
f 49/153/39 50/154/39 54/155/39 53/156/39
f 52/157/40 51/158/40 55/159/40 56/160/40
f 51/161/41 49/162/41 53/163/41 55/164/41
f 56/165/42 54/166/42 50/167/42 52/168/42
f 60/169/43 58/170/43 57/171/43 59/172/43
f 63/173/44 61/174/44 62/175/44 64/176/44
f 57/177/45 58/178/45 62/179/45 61/180/45
f 60/181/46 59/182/46 63/183/46 64/184/46
f 59/185/47 57/186/47 61/187/47 63/188/47
f 64/189/48 62/190/48 58/191/48 60/192/48
f 68/193/49 66/194/49 65/195/49 67/196/49
f 71/197/50 69/198/50 70/199/50 72/200/50
f 65/201/51 66/202/51 70/203/51 69/204/51
f 68/205/52 67/206/52 71/207/52 72/208/52
f 67/209/53 65/210/53 69/211/53 71/212/53
f 72/213/54 70/214/54 66/215/54 68/216/54
f 76/217/55 74/218/55 73/219/55 75/220/55
f 79/221/56 77/222/56 78/223/56 80/224/56
f 73/225/57 74/226/57 78/227/57 77/228/57
f 76/229/58 75/230/58 79/231/58 80/232/58
f 75/233/59 73/234/59 77/235/59 79/236/59
f 80/237/60 78/238/60 74/239/60 76/240/60
f 84/241/61 82/242/61 81/243/61 83/244/61
f 87/245/62 85/246/62 86/247/62 88/248/62
f 81/249/63 82/250/63 86/251/63 85/252/63
f 84/253/64 83/254/64 87/255/64 88/256/64
f 83/257/65 81/258/65 85/259/65 87/260/65
f 88/261/66 86/262/66 82/263/66 84/264/66